<?xml version="1.0" encoding="utf-8"?>
<!-- Generator: Adobe Illustrator 21.1.0, SVG Export Plug-In . SVG Version: 6.00 Build 0)  -->
<svg version="1.1" id="Icon_Set" xmlns="http://www.w3.org/2000/svg" xmlns:xlink="http://www.w3.org/1999/xlink" x="0px" y="0px"
	 viewBox="0 0 512 512" style="enable-background:new 0 0 512 512;" xml:space="preserve">
<style type="text/css">
	.st0{fill:#FFFFFF;}
	.st1{fill:#5B7C31;}
	.st2{fill:#E56823;}
	.st3{fill:#FE8E46;}
	.st4{fill:#7DAC51;}
	.st5{fill:#463218;}
	.st6{fill:#FEFE71;}
	.st7{fill:#D6CD1E;}
	.st8{fill:none;stroke:#FFFFFF;stroke-width:14;stroke-miterlimit:10;}
	.st9{fill:none;stroke:#463218;stroke-width:14;stroke-linecap:round;stroke-linejoin:round;stroke-miterlimit:10;}
</style>
<g id="Bacon">
	<g>
		<g>
			<g>
				<path class="st6" d="M192,404.4c39.1,0,70.8-31.7,70.8-70.8s31.7-70.8,70.8-70.8s70.8-31.7,70.8-70.8l-64.3-64.3
					c0,39.1-31.7,70.8-70.8,70.8s-70.8,31.7-70.8,70.8s-31.7,70.8-70.8,70.8L192,404.4z"/>
			</g>
		</g>
	</g>
	<g>
		<g>
			<g>
				<path class="st3" d="M249.2,178.4c-39.1,0-70.8,31.7-70.8,70.8c0,39.1-31.7,70.8-70.8,70.8l20.1,20.1
					c39.1,0,70.8-31.7,70.8-70.8c0-39.1,31.7-70.8,70.8-70.8c39.1,0,70.8-31.7,70.8-70.8L320,107.6
					C320,146.7,288.3,178.4,249.2,178.4z"/>
			</g>
		</g>
	</g>
	<g>
		<g>
			<g>
				<path class="st3" d="M305.5,234.7c-39.1,0-70.8,31.7-70.8,70.8c0,39.1-31.7,70.8-70.8,70.8l28.1,28.1
					c39.1,0,70.8-31.7,70.8-70.8c0-39.1,31.7-70.8,70.8-70.8c39.1,0,70.8-31.7,70.8-70.8l-28.1-28.1
					C376.3,203,344.6,234.7,305.5,234.7z"/>
			</g>
		</g>
	</g>
	<g>
		<g>
			<g>
				<path class="st2" d="M286.5,167.8l20.1,20.1c20.1-12.5,33.6-34.8,33.6-60.2L320,107.6C320,133.1,306.6,155.3,286.5,167.8z"/>
			</g>
		</g>
	</g>
	<g>
		<g>
			<g>
				<path class="st7" d="M306.5,187.9l64.3,64.3c20.1-12.5,33.6-34.8,33.6-60.2l-64.3-64.3C340.1,153.1,326.6,175.4,306.5,187.9z"/>
			</g>
		</g>
	</g>
	<g>
		<g>
			<g>
				<path class="st2" d="M342.7,224.1l28.1,28.1c20.1-12.5,33.6-34.8,33.6-60.2l-28.1-28.1C376.3,189.3,362.9,211.6,342.7,224.1z"/>
			</g>
		</g>
	</g>
	<g>
		<g>
			<g>
				<path class="st2" d="M174.3,272.9c-9.8,27.4-35.9,47.1-66.7,47.1l20.1,20.1c30.8,0,57-19.6,66.7-47.1L174.3,272.9z"/>
			</g>
		</g>
	</g>
	<g>
		<g>
			<g>
				<path class="st7" d="M194.4,293c-9.8,27.4-35.9,47.1-66.7,47.1l64.3,64.3c30.8,0,57-19.6,66.7-47.1L194.4,293z"/>
			</g>
		</g>
	</g>
	<g>
		<g>
			<g>
				<path class="st2" d="M196.3,404.2c0.8,0,1.5-0.1,2.3-0.2c0.4,0,0.7-0.1,1.1-0.1c0.8-0.1,1.6-0.2,2.4-0.3c0.3,0,0.6-0.1,0.9-0.1
					c1.1-0.2,2.1-0.4,3.1-0.6c0.2,0,0.4-0.1,0.6-0.1c0.8-0.2,1.7-0.4,2.5-0.6c0.4-0.1,0.7-0.2,1.1-0.3c0.7-0.2,1.4-0.4,2-0.6
					c0.4-0.1,0.7-0.2,1.1-0.3c0.7-0.2,1.5-0.5,2.2-0.7c0.3-0.1,0.6-0.2,0.8-0.3c1-0.4,1.9-0.7,2.8-1.1c0.3-0.1,0.7-0.3,1-0.4
					c0.6-0.3,1.2-0.5,1.9-0.8c0.4-0.2,0.8-0.4,1.2-0.6c0.6-0.3,1.1-0.6,1.6-0.8c0.4-0.2,0.8-0.4,1.2-0.6c0.6-0.3,1.2-0.7,1.8-1
					c0.5-0.3,1-0.6,1.4-0.9c0.6-0.4,1.2-0.8,1.9-1.2c0.4-0.3,0.8-0.6,1.2-0.8c0.4-0.3,0.9-0.6,1.3-0.9c0.4-0.3,0.8-0.6,1.2-0.9
					c0.4-0.3,0.8-0.6,1.2-0.9c0.4-0.3,0.8-0.7,1.2-1c0.4-0.3,0.7-0.6,1.1-1c0.8-0.7,1.5-1.3,2.2-2c0.3-0.3,0.6-0.6,0.9-0.9
					c0.4-0.4,0.8-0.8,1.3-1.3c0.3-0.3,0.6-0.6,0.8-0.9c0.4-0.4,0.8-0.9,1.2-1.4c0.2-0.3,0.5-0.5,0.7-0.8c1.4-1.7,2.8-3.4,4.1-5.2
					c0.2-0.2,0.3-0.5,0.5-0.7c0.4-0.6,0.8-1.1,1.1-1.7c0.2-0.3,0.3-0.5,0.5-0.8c0.4-0.6,0.7-1.2,1.1-1.8c0.1-0.2,0.2-0.3,0.3-0.5
					c1.2-2,2.3-4.2,3.3-6.3c0.1-0.2,0.2-0.5,0.3-0.7c0.3-0.7,0.6-1.3,0.8-2c0.1-0.2,0.2-0.5,0.3-0.7c0.3-0.7,0.5-1.4,0.8-2.1
					l-28.1-28.1c-9.8,27.4-35.9,47.1-66.7,47.1l28.1,28.1c1.1,0,2.2,0,3.3-0.1C195.7,404.3,196,404.3,196.3,404.2z"/>
			</g>
		</g>
	</g>
	<g>
		<g>
			<g>
				<path class="st5" d="M192,411.4c-1.9,0-3.6-0.7-4.9-2.1L122.7,345c-2-2-2.6-5-1.5-7.6s3.6-4.3,6.5-4.3
					c35.2,0,63.8-28.6,63.8-63.8c0-42.9,34.9-77.8,77.8-77.8c35.2,0,63.8-28.6,63.8-63.8c0-2.8,1.7-5.4,4.3-6.5
					c2.6-1.1,5.6-0.5,7.6,1.5l64.3,64.3c1.3,1.3,2.1,3.1,2.1,4.9c0,42.9-34.9,77.8-77.8,77.8c-35.2,0-63.8,28.6-63.8,63.8
					C269.8,376.5,234.9,411.4,192,411.4z M143,345.5l51.8,51.8c33.9-1.5,61-29.5,61-63.7c0-42.9,34.9-77.8,77.8-77.8
					c34.2,0,62.2-27.1,63.7-61L345.5,143c-7.2,35.6-38.6,62.4-76.3,62.4c-35.2,0-63.8,28.6-63.8,63.8
					C205.5,306.9,178.6,338.4,143,345.5z"/>
			</g>
		</g>
	</g>
	<g>
		<g>
			<g>
				<path class="st0" d="M232,255.6l-12.1-7c9.8-17,25.4-29.6,44.1-35.5l4.2,13.4C252.9,231.3,240,241.7,232,255.6z"/>
			</g>
		</g>
	</g>
	<g>
		<g>
			<g>
				<path class="st5" d="M192,411.4c-1.9,0-3.6-0.7-4.9-2.1L159,381.2c-2-2-2.6-5-1.5-7.6s3.6-4.3,6.5-4.3
					c35.2,0,63.8-28.6,63.8-63.8c0-42.9,34.9-77.8,77.8-77.8c35.2,0,63.8-28.6,63.8-63.8c0-2.8,1.7-5.4,4.3-6.5
					c2.6-1.1,5.6-0.5,7.6,1.5l28.1,28.1c1.3,1.3,2.1,3.1,2.1,4.9c0,42.9-34.9,77.8-77.8,77.8c-35.2,0-63.8,28.6-63.8,63.8
					C269.8,376.5,234.9,411.4,192,411.4z M179.3,381.8l15.6,15.6c33.9-1.5,61-29.5,61-63.7c0-42.9,34.9-77.8,77.8-77.8
					c34.2,0,62.2-27.1,63.7-61l-15.6-15.6c-7.2,35.6-38.6,62.4-76.3,62.4c-35.2,0-63.8,28.6-63.8,63.8
					C241.7,343.1,214.8,374.6,179.3,381.8z"/>
			</g>
		</g>
	</g>
	<g>
		<g>
			<g>
				<path class="st5" d="M127.7,347.1c-1.9,0-3.6-0.7-4.9-2.1L102.7,325c-2-2-2.6-5-1.5-7.6s3.6-4.3,6.5-4.3
					c17,0,33.1-6.6,45.1-18.7c12-12,18.7-28.1,18.7-45.1c0-42.9,34.9-77.8,77.8-77.8l0,0c17,0,33.1-6.6,45.1-18.7
					c12-12,18.7-28.1,18.7-45.1c0-2.8,1.7-5.4,4.3-6.5c2.6-1.1,5.6-0.5,7.6,1.5l20.1,20.1c1.3,1.3,2.1,3.1,2.1,4.9
					c0,42.9-34.9,77.8-77.8,77.8c-35.2,0-63.8,28.6-63.8,63.8C205.5,312.2,170.6,347.1,127.7,347.1z M123,325.5l7.5,7.5
					c33.9-1.5,61-29.5,61-63.7c0-42.9,34.9-77.8,77.8-77.8c34.2,0,62.2-27.1,63.7-61l-7.5-7.5c-3,14.9-10.3,28.6-21.3,39.6
					c-14.7,14.7-34.2,22.8-55,22.8c0,0,0,0,0,0l0,0c-35.2,0-63.8,28.6-63.8,63.8c0,20.8-8.1,40.3-22.8,55
					C151.6,315.2,137.9,322.5,123,325.5z"/>
			</g>
		</g>
	</g>
</g>
</svg>
