<?xml version="1.0" encoding="utf-8"?>
<!-- Generator: Adobe Illustrator 21.1.0, SVG Export Plug-In . SVG Version: 6.00 Build 0)  -->
<svg version="1.1" id="Icon_Set" xmlns="http://www.w3.org/2000/svg" xmlns:xlink="http://www.w3.org/1999/xlink" x="0px" y="0px"
	 viewBox="0 0 512 512" style="enable-background:new 0 0 512 512;" xml:space="preserve">
<style type="text/css">
	.st0{fill:#FFFFFF;}
	.st1{fill:#5B7C31;}
	.st2{fill:#E56823;}
	.st3{fill:#FE8E46;}
	.st4{fill:#7DAC51;}
	.st5{fill:#463218;}
	.st6{fill:#FEFE71;}
	.st7{fill:#D6CD1E;}
	.st8{fill:none;stroke:#FFFFFF;stroke-width:14;stroke-miterlimit:10;}
	.st9{fill:none;stroke:#463218;stroke-width:14;stroke-linecap:round;stroke-linejoin:round;stroke-miterlimit:10;}
</style>
<g id="Beef_Steak">
	<g>
		<g>
			<g>
				<path class="st3" d="M404.6,220.1c2.9-32.9-31.8-25-34.6-24h0c-30.5,10.8-114.8-35.3-114.8-35.3l0,0
					c-15.3-11-34.1-17.5-54.5-17.5c-51.6,0-93.5,41.8-93.5,93.5c0,51.6,41.8,93.5,93.5,93.5c123.5,0,183.2-72.8,197.7-93.5
					C402.3,232.3,404,226.5,404.6,220.1z"/>
			</g>
		</g>
	</g>
	<g>
		<g>
			<g>
				<path class="st2" d="M251.9,279.1c-51.6,0-93.5-41.8-93.5-93.5c0-12.5,2.5-24.4,6.9-35.3c-34.1,13.9-58.1,47.4-58.1,86.5
					c0,51.6,41.8,93.5,93.5,93.5c123.5,0,183.2-72.8,197.7-93.5c0.7-0.8,1.3-1.7,1.8-2.5C367.8,257.3,319.4,279.1,251.9,279.1z"/>
			</g>
		</g>
	</g>
	<g>
		<g>
			<g>
				<g>
					<path class="st2" d="M200.7,330.3c-51.6,0-93.5-41.8-93.5-93.5v38.4c0,51.6,41.8,93.5,93.5,93.5c123.5,0,183.2-72.8,197.7-93.5
						c3.8-4.5,5.6-10.3,6.1-16.6v-38.4c-0.6,6.3-2.3,12.1-6.1,16.6C383.9,257.5,324.2,330.3,200.7,330.3z"/>
				</g>
			</g>
		</g>
		<g>
			<g>
				<g>
					<path class="st3" d="M404.6,212.9L404.6,212.9L404.6,212.9C404.6,212.9,404.6,212.9,404.6,212.9z"/>
				</g>
			</g>
		</g>
	</g>
	<g>
		<g>
			<g>
				<path class="st5" d="M200.7,337.3c-55.4,0-100.5-45.1-100.5-100.5s45.1-100.5,100.5-100.5c21,0,41.1,6.4,58.2,18.6
					c2.9,1.5,22.5,12,45,21.2c41,16.8,57.5,15.6,63.7,13.5c3.5-1.3,22.1-5.2,34.1,3.9c5.2,4,11.2,11.9,9.8,27.3l0,0
					c-0.7,8.3-3.3,15.1-7.5,20.3C387.8,264,326.3,337.3,200.7,337.3z M200.7,150.3c-47.7,0-86.5,38.8-86.5,86.5s38.8,86.5,86.5,86.5
					c119.3,0,177.1-69.3,192-90.5c0.1-0.2,0.3-0.4,0.4-0.5c2.5-2.9,4-7.1,4.5-12.7l0,0c0.6-7.1-0.8-12-4.1-14.7
					c-6.4-5.1-19-2.7-21.1-2c0,0,0,0-0.1,0c-3.9,1.4-8.4,2-13.3,2c-36.9,0-99.3-33.5-107.1-37.8c-0.2-0.1-0.5-0.3-0.7-0.5
					C236.4,155.9,218.9,150.3,200.7,150.3z M404.6,220.1L404.6,220.1L404.6,220.1z"/>
			</g>
		</g>
	</g>
	<g>
		<g>
			<g>
				<g>
					<path class="st5" d="M200.7,375.7c-55.4,0-100.5-45.1-100.5-100.5v-38.4c0-3.9,3.1-7,7-7c3.9,0,7,3.1,7,7
						c0,47.7,38.8,86.5,86.5,86.5c119.3,0,177.1-69.3,192-90.5c0.1-0.2,0.3-0.4,0.4-0.5c2.5-2.9,4-7.1,4.5-12.7
						c0.3-3.7,3.5-6.5,7.3-6.4c3.7,0.2,6.7,3.2,6.7,7v38.4c0,0.2,0,0.4,0,0.6c-0.7,8.3-3.3,15.1-7.6,20.3
						C387.8,302.4,326.3,375.7,200.7,375.7z M115.5,290c7,40.7,42.6,71.7,85.2,71.7c119.3,0,177.1-69.3,192-90.5
						c0.1-0.2,0.3-0.4,0.4-0.5c2.5-2.9,3.9-6.9,4.5-12.4v-8.7c-23,28.7-84.1,87.7-196.8,87.7C164.8,337.3,133.3,318.4,115.5,290z"/>
				</g>
			</g>
		</g>
		<g>
			<g>
				<g>
					<path class="st5" d="M404.6,219.9c-3.6,0-6.6-2.7-7-6.3l0,0c-0.4-3.8,2.4-7.3,6.3-7.7c3.8-0.4,7.3,2.4,7.7,6.3c0,0,0,0,0,0l0,0
						c0.4,3.8-2.4,7.3-6.3,7.7C405,219.9,404.8,219.9,404.6,219.9z"/>
				</g>
			</g>
		</g>
	</g>
	<g>
		<g>
			<g>
				<path class="st2" d="M275.9,171.3c-12.4-5.9-20.7-10.5-20.7-10.5c-4-2.9-8.3-5.4-12.7-7.7c-0.3,0.2-101,50.8-104.4,153l0,0
					c13,11.7,29.3,19.9,47.3,22.9C175.2,247.1,275.9,171.3,275.9,171.3z"/>
			</g>
		</g>
	</g>
	<g>
		<g>
			<g>
				<path class="st2" d="M347.7,196.9c-10-1.5-21.2-4.8-32.4-8.8c0,0-81.3,77.7-77.7,140c21.6-2.7,40.9-7.8,57.9-14.2
					C288.6,285,347.7,196.9,347.7,196.9z"/>
			</g>
		</g>
	</g>
	<g>
		<g>
			<g>
				<path class="st5" d="M185.4,336c-0.4,0-0.8,0-1.1-0.1c-19-3.1-36.6-11.6-50.9-24.6c-1.5-1.4-2.4-3.4-2.3-5.4
					c1.4-43.6,20.6-84.9,55.4-119.5c26.2-26,51.8-39,52.8-39.5c2-1,4.3-1,6.3,0c4.7,2.3,9.1,5,13.3,8c1.7,0.9,9.4,5,20,10.1
					c2.4,1.2,4,3.6,4,6.3c0,2.3-1,4.4-2.8,5.7c-2.1,1.6-97.2,74.8-87.7,151.2c0.3,2.2-0.5,4.4-2.1,5.9
					C188.9,335.3,187.2,336,185.4,336z M145.2,303.1c9.5,8,20.6,13.8,32.5,17.1c-0.8-32.9,14.1-69,43.7-105.1
					c15.5-18.9,31.6-33.8,41.6-42.2c-6.8-3.4-10.9-5.7-11.2-5.8c-0.2-0.1-0.5-0.3-0.7-0.5c-2.7-2-5.6-3.8-8.6-5.4
					c-7.4,4.2-26.9,16.1-46.4,35.4C164.5,228.1,147.3,263.9,145.2,303.1z"/>
			</g>
		</g>
	</g>
	<g>
		<g>
			<g>
				<path class="st5" d="M237.6,335c-1.6,0-3.2-0.6-4.5-1.6c-1.5-1.2-2.4-3-2.5-5c-3.8-64.6,76.4-142.2,79.8-145.4
					c1.9-1.8,4.7-2.4,7.2-1.5c12,4.3,22.5,7.2,31.1,8.5c2.2,0.3,4.1,1.7,5.1,3.7c1,2,1,4.3,0,6.3c-0.1,0.3-0.3,0.5-0.4,0.8
					c-22.2,33.1-55.6,92.6-51.1,111.4c0.8,3.4-1,6.9-4.3,8.2c-18.7,7-38.7,11.9-59.5,14.5C238.2,335,237.9,335,237.6,335z
					 M317.1,196.1c-13.7,13.9-69.7,73.6-72.5,123.8c15-2.4,29.5-6,43.4-10.8c-0.2-14.4,8-36.7,24.8-67.7
					c8.7-16.1,17.8-30.8,23.4-39.7C330.3,200.3,324,198.4,317.1,196.1z"/>
			</g>
		</g>
	</g>
	<g>
		<g>
			<g>
				<path class="st0" d="M153.2,193.3l-13-5.2c0.4-0.9,9.6-23,44.8-26.9l1.6,13.9C160,178,153.3,193.1,153.2,193.3z"/>
			</g>
		</g>
	</g>
</g>
</svg>
