<?xml version="1.0" encoding="utf-8"?>
<!-- Generator: Adobe Illustrator 21.1.0, SVG Export Plug-In . SVG Version: 6.00 Build 0)  -->
<svg version="1.1" id="Icon_Set" xmlns="http://www.w3.org/2000/svg" xmlns:xlink="http://www.w3.org/1999/xlink" x="0px" y="0px"
	 viewBox="0 0 512 512" style="enable-background:new 0 0 512 512;" xml:space="preserve">
<style type="text/css">
	.st0{fill:#FFFFFF;}
	.st1{fill:#5B7C31;}
	.st2{fill:#E56823;}
	.st3{fill:#FE8E46;}
	.st4{fill:#7DAC51;}
	.st5{fill:#463218;}
	.st6{fill:#FEFE71;}
	.st7{fill:#D6CD1E;}
	.st8{fill:none;stroke:#FFFFFF;stroke-width:14;stroke-miterlimit:10;}
	.st9{fill:none;stroke:#463218;stroke-width:14;stroke-linecap:round;stroke-linejoin:round;stroke-miterlimit:10;}
</style>
<g id="Beer">
	<g>
		<g>
			<g>
				<path class="st6" d="M193.8,152.8c0-15,12.2-27.1,27.1-27.1c6.4,0,12.3,2.2,16.9,5.9c4.6-15.8,19.1-27.3,36.3-27.3
					c20.9,0,37.8,16.9,37.8,37.8v12.2L193.8,152.8z"/>
			</g>
		</g>
	</g>
	<g>
		<g>
			<g>
				<rect x="158.4" y="154.3" class="st6" width="153.6" height="253.4"/>
			</g>
		</g>
	</g>
	<g>
		<g>
			<g>
				<rect x="158.4" y="154.3" class="st7" width="76.8" height="253.4"/>
			</g>
		</g>
	</g>
	<g>
		<g>
			<g>
				<rect x="158.4" y="201.6" class="st3" width="153.6" height="206.1"/>
			</g>
		</g>
	</g>
	<g>
		<g>
			<g>
				<rect x="158.4" y="201.6" class="st2" width="47.7" height="206.1"/>
			</g>
		</g>
	</g>
	<g>
		<g>
			<g>
				<path class="st5" d="M312,414.7H158.4c-3.9,0-7-3.1-7-7V154.3c0-3.9,3.1-7,7-7H312c3.9,0,7,3.1,7,7v253.4
					C319,411.5,315.9,414.7,312,414.7z M165.4,400.7H305V161.3H165.4V400.7z"/>
			</g>
		</g>
	</g>
	<g>
		<g>
			<g>
				<path class="st5" d="M312,414.7H158.4c-3.9,0-7-3.1-7-7V201.6c0-3.9,3.1-7,7-7H312c3.9,0,7,3.1,7,7v206.1
					C319,411.5,315.9,414.7,312,414.7z M165.4,400.7H305V208.6H165.4V400.7z"/>
			</g>
		</g>
	</g>
	<g>
		<g>
			<g>
				<rect x="158.4" y="383.4" class="st1" width="153.6" height="24.2"/>
			</g>
		</g>
	</g>
	<g>
		<g>
			<g>
				<path class="st5" d="M312,414.7H158.4c-3.9,0-7-3.1-7-7v-24.2c0-3.9,3.1-7,7-7H312c3.9,0,7,3.1,7,7v24.2
					C319,411.5,315.9,414.7,312,414.7z M165.4,400.7H305v-10.2H165.4V400.7z"/>
			</g>
		</g>
	</g>
	<g>
		<g>
			<g>
				<g>
					<path class="st2" d="M223.6,383.4h-35V244.5c0-9.7,7.8-17.5,17.5-17.5h0c9.7,0,17.5,7.8,17.5,17.5V383.4z"/>
				</g>
			</g>
		</g>
		<g>
			<g>
				<g>
					<path class="st2" d="M281.8,383.4h-35V244.5c0-9.7,7.8-17.5,17.5-17.5h0c9.7,0,17.5,7.8,17.5,17.5V383.4z"/>
				</g>
			</g>
		</g>
	</g>
	<g>
		<g>
			<g>
				<g>
					<path class="st5" d="M223.6,390.4h-35c-3.9,0-7-3.1-7-7V244.5c0-13.5,11-24.5,24.5-24.5s24.5,11,24.5,24.5v138.9
						C230.6,387.3,227.5,390.4,223.6,390.4z M195.6,376.4h21V244.5c0-5.8-4.7-10.5-10.5-10.5s-10.5,4.7-10.5,10.5V376.4z"/>
				</g>
			</g>
		</g>
		<g>
			<g>
				<g>
					<path class="st5" d="M281.8,390.4h-35c-3.9,0-7-3.1-7-7V244.5c0-13.5,11-24.5,24.5-24.5c13.5,0,24.5,11,24.5,24.5v138.9
						C288.8,387.3,285.7,390.4,281.8,390.4z M253.9,376.4h21V244.5c0-5.8-4.7-10.5-10.5-10.5c-5.8,0-10.5,4.7-10.5,10.5V376.4z"/>
				</g>
			</g>
		</g>
	</g>
	<g>
		<g>
			<g>
				<path class="st5" d="M312,309.8c-2.7,0-5.2-1.5-6.4-4.1c-1.6-3.5,0-7.7,3.5-9.3l17.6-8c12-5.5,19.8-17.5,19.8-30.8v-31.4H312
					c-3.9,0-7-3.1-7-7s3.1-7,7-7h41.5c3.9,0,7,3.1,7,7v38.4c0,18.7-11,35.8-28,43.5l-17.6,8C314,309.6,313,309.8,312,309.8z"/>
			</g>
		</g>
	</g>
	<g>
		<g>
			<g>
				<path class="st5" d="M312,161.3C312,161.3,312,161.3,312,161.3l-118.3-1.5c-3.8,0-6.9-3.2-6.9-7c0-18.8,15.3-34.1,34.1-34.1
					c4.7,0,9.3,1,13.5,2.8c7.6-14.6,22.9-24.2,39.8-24.2c24.7,0,44.8,20.1,44.8,44.8v12.2c0,1.9-0.7,3.7-2.1,5
					C315.6,160.6,313.9,161.3,312,161.3z M202,145.9l103,1.3v-5.1c0-17-13.8-30.8-30.8-30.8c-13.6,0-25.8,9.1-29.6,22.3
					c-0.6,2.2-2.4,4-4.6,4.7c-2.2,0.7-4.7,0.3-6.5-1.2c-3.6-2.9-7.9-4.4-12.6-4.4C212.3,132.7,204.8,138.2,202,145.9z"/>
			</g>
		</g>
	</g>
	<g>
		<g>
			<g>
				<rect x="184" y="171" class="st0" width="29.9" height="14"/>
			</g>
		</g>
	</g>
</g>
</svg>
