<?xml version="1.0" encoding="utf-8"?>
<!-- Generator: Adobe Illustrator 21.1.0, SVG Export Plug-In . SVG Version: 6.00 Build 0)  -->
<svg version="1.1" id="Icon_Set" xmlns="http://www.w3.org/2000/svg" xmlns:xlink="http://www.w3.org/1999/xlink" x="0px" y="0px"
	 viewBox="0 0 512 512" style="enable-background:new 0 0 512 512;" xml:space="preserve">
<style type="text/css">
	.st0{fill:#FFFFFF;}
	.st1{fill:#5B7C31;}
	.st2{fill:#E56823;}
	.st3{fill:#FE8E46;}
	.st4{fill:#7DAC51;}
	.st5{fill:#463218;}
	.st6{fill:#FEFE71;}
	.st7{fill:#D6CD1E;}
	.st8{fill:none;stroke:#FFFFFF;stroke-width:14;stroke-miterlimit:10;}
	.st9{fill:none;stroke:#463218;stroke-width:14;stroke-linecap:round;stroke-linejoin:round;stroke-miterlimit:10;}
</style>
<g id="Black_Forest">
	<g>
		<g>
			<g>
				<rect x="116.9" y="205.4" class="st2" width="276.1" height="153"/>
			</g>
		</g>
	</g>
	<g>
		<g>
			<g>
				<rect x="177" y="205.4" class="st3" width="216" height="153"/>
			</g>
		</g>
	</g>
	<g>
		<g>
			<g>
				<g>
					<circle class="st2" cx="183.2" cy="191.8" r="20.5"/>
				</g>
			</g>
		</g>
		<g>
			<g>
				<g>
					<circle class="st2" cx="254.9" cy="191.8" r="20.5"/>
				</g>
			</g>
		</g>
		<g>
			<g>
				<g>
					<circle class="st2" cx="326.7" cy="191.8" r="20.5"/>
				</g>
			</g>
		</g>
		<g>
			<g>
				<g>
					<path class="st5" d="M183.2,219.3c-15.2,0-27.5-12.4-27.5-27.5s12.4-27.5,27.5-27.5s27.5,12.4,27.5,27.5
						S198.4,219.3,183.2,219.3z M183.2,178.3c-7.5,0-13.5,6.1-13.5,13.5s6.1,13.5,13.5,13.5c7.5,0,13.5-6.1,13.5-13.5
						S190.7,178.3,183.2,178.3z"/>
				</g>
			</g>
		</g>
		<g>
			<g>
				<g>
					<path class="st5" d="M254.9,219.3c-15.2,0-27.5-12.4-27.5-27.5s12.4-27.5,27.5-27.5s27.5,12.4,27.5,27.5
						S270.1,219.3,254.9,219.3z M254.9,178.3c-7.5,0-13.5,6.1-13.5,13.5s6.1,13.5,13.5,13.5c7.5,0,13.5-6.1,13.5-13.5
						S262.4,178.3,254.9,178.3z"/>
				</g>
			</g>
		</g>
		<g>
			<g>
				<g>
					<path class="st5" d="M326.7,219.3c-15.2,0-27.5-12.4-27.5-27.5s12.4-27.5,27.5-27.5s27.5,12.4,27.5,27.5
						S341.8,219.3,326.7,219.3z M326.7,178.3c-7.5,0-13.5,6.1-13.5,13.5s6.1,13.5,13.5,13.5s13.5-6.1,13.5-13.5
						S334.1,178.3,326.7,178.3z"/>
				</g>
			</g>
		</g>
	</g>
	<g>
		<g>
			<g>
				<path class="st6" d="M393,246.4v-41H116.9v40.7l0.4,0.3c0-10.9,8.8-19.7,19.7-19.7l0,0c10.9,0,19.7,8.8,19.7,19.7
					c0,10.9,8.8,19.7,19.7,19.7h0c10.9,0,19.7-8.8,19.7-19.7c0-10.9,8.8-19.7,19.7-19.7h0c10.9,0,19.7,8.8,19.7,19.7v0
					c0,10.9,8.8,19.7,19.7,19.7c10.9,0,19.7-8.8,19.7-19.7c0-10.9,8.8-19.7,19.7-19.7l0,0c10.9,0,19.7,8.8,19.7,19.7
					c0,10.9,8.8,19.7,19.7,19.7h0c10.9,0,19.7-8.8,19.7-19.7c0-10.9,8.8-19.7,19.7-19.7h0C384.1,226.8,392.9,235.6,393,246.4
					L393,246.4L393,246.4z"/>
			</g>
		</g>
	</g>
	<g>
		<g>
			<g>
				<path class="st7" d="M176,205.4h-59.1v40.7l0.4,0.3c0-10.9,8.8-19.7,19.7-19.7s19.7,8.8,19.7,19.7c0,10.8,8.6,19.5,19.4,19.7
					V205.4z"/>
			</g>
		</g>
	</g>
	<g>
		<g>
			<g>
				<path class="st5" d="M393,365.4H116.9c-3.9,0-7-3.1-7-7v-153c0-3.9,3.1-7,7-7H393c3.9,0,7,3.1,7,7v153
					C400,362.3,396.8,365.4,393,365.4z M123.9,351.4H386v-139H123.9V351.4z"/>
			</g>
		</g>
	</g>
	<g>
		<g>
			<g>
				<rect x="116.9" y="266.1" class="st1" width="276.1" height="36.5"/>
			</g>
		</g>
	</g>
	<g>
		<g>
			<g>
				<rect x="176" y="266.1" class="st4" width="216.9" height="36.5"/>
			</g>
		</g>
	</g>
	<g>
		<g>
			<g>
				<path class="st5" d="M393,309.6H116.9c-3.9,0-7-3.1-7-7v-36.5c0-3.9,3.1-7,7-7H393c3.9,0,7,3.1,7,7v36.5
					C400,306.5,396.8,309.6,393,309.6z M123.9,295.6H386v-22.5H123.9V295.6z"/>
			</g>
		</g>
	</g>
	<g>
		<g>
			<g>
				<path class="st5" d="M333.9,273.1c-14.7,0-26.7-12-26.7-26.7c0-7-5.7-12.7-12.7-12.7s-12.7,5.7-12.7,12.7
					c0,14.7-12,26.7-26.7,26.7s-26.7-12-26.7-26.7c0-7-5.7-12.7-12.7-12.7s-12.7,5.7-12.7,12.7c0,14.7-12,26.7-26.7,26.7
					s-26.7-12-26.7-26.7c0-7-5.7-12.7-12.7-12.7s-12.7,5.7-12.7,12.7c0,2.7-1.5,5.1-3.9,6.3c-2.4,1.2-5.3,0.9-7.4-0.8l-0.4-0.3
					c-1.7-1.3-2.7-3.4-2.7-5.5v-40.7c0-3.9,3.1-7,7-7H393c3.9,0,7,3.1,7,7v41c0,3.6-2.8,6.7-6.4,7l0,0c-2,0.2-3.9-0.5-5.3-1.8
					c-1.4-1.3-2.3-3.2-2.3-5.2c0-7-5.7-12.7-12.7-12.7s-12.7,5.7-12.7,12.7C360.6,261.2,348.6,273.1,333.9,273.1z M294.5,219.8
					c14.7,0,26.7,12,26.7,26.7c0,7,5.7,12.7,12.7,12.7c7,0,12.7-5.7,12.7-12.7c0-14.7,12-26.7,26.7-26.7c4.6,0,8.9,1.2,12.7,3.2
					v-10.5H123.9v10.7c3.9-2.2,8.3-3.4,13.1-3.4c14.7,0,26.7,12,26.7,26.7c0,7,5.7,12.7,12.7,12.7s12.7-5.7,12.7-12.7
					c0-14.7,12-26.7,26.7-26.7c14.7,0,26.7,12,26.7,26.7c0,7,5.7,12.7,12.7,12.7s12.7-5.7,12.7-12.7
					C267.8,231.7,279.8,219.8,294.5,219.8z"/>
			</g>
		</g>
	</g>
	<g>
		<g>
			<g>
				<path class="st5" d="M183.2,178.3c-3.9,0-7-3.1-7-7v-17.7c0-3.9,3.1-7,7-7s7,3.1,7,7v17.7C190.2,175.1,187.1,178.3,183.2,178.3z
					"/>
			</g>
		</g>
	</g>
	<g>
		<g>
			<g>
				<path class="st5" d="M254.9,178.3c-3.9,0-7-3.1-7-7v-17.7c0-3.9,3.1-7,7-7s7,3.1,7,7v17.7C261.9,175.1,258.8,178.3,254.9,178.3z
					"/>
			</g>
		</g>
	</g>
	<g>
		<g>
			<g>
				<path class="st5" d="M326.7,178.3c-3.9,0-7-3.1-7-7v-17.7c0-3.9,3.1-7,7-7s7,3.1,7,7v17.7C333.7,175.1,330.5,178.3,326.7,178.3z
					"/>
			</g>
		</g>
	</g>
	<g>
		<g>
			<g>
				<rect x="285" y="323.7" class="st0" width="54.9" height="14"/>
			</g>
		</g>
	</g>
	<g>
		<g>
			<g>
				<rect x="357.3" y="323.7" class="st0" width="21" height="14"/>
			</g>
		</g>
	</g>
</g>
</svg>
