<?xml version="1.0" encoding="utf-8"?>
<!-- Generator: Adobe Illustrator 21.1.0, SVG Export Plug-In . SVG Version: 6.00 Build 0)  -->
<svg version="1.1" id="Icon_Set" xmlns="http://www.w3.org/2000/svg" xmlns:xlink="http://www.w3.org/1999/xlink" x="0px" y="0px"
	 viewBox="0 0 512 512" style="enable-background:new 0 0 512 512;" xml:space="preserve">
<style type="text/css">
	.st0{fill:#FFFFFF;}
	.st1{fill:#5B7C31;}
	.st2{fill:#E56823;}
	.st3{fill:#FE8E46;}
	.st4{fill:#7DAC51;}
	.st5{fill:#463218;}
	.st6{fill:#FEFE71;}
	.st7{fill:#D6CD1E;}
	.st8{fill:none;stroke:#FFFFFF;stroke-width:14;stroke-miterlimit:10;}
	.st9{fill:none;stroke:#463218;stroke-width:14;stroke-linecap:round;stroke-linejoin:round;stroke-miterlimit:10;}
</style>
<g id="Bubble_Tea">
	<g>
		<g>
			<g>
				<rect x="299.5" y="93.9" class="st2" width="21.8" height="100"/>
			</g>
		</g>
	</g>
	<g>
		<g>
			<g>
				<polygon class="st4" points="320.6,418.1 218.2,418.1 187.4,193.9 351.5,193.9 				"/>
			</g>
		</g>
	</g>
	<g>
		<g>
			<g>
				<polygon class="st1" points="187.4,193.9 218.2,418.1 259.2,418.1 228.4,193.9 				"/>
			</g>
		</g>
	</g>
	<g>
		<g>
			<g>
				<path class="st5" d="M320.6,425.1H218.2c-3.5,0-6.5-2.6-6.9-6l-30.8-224.2c-0.3-2,0.3-4,1.7-5.6c1.3-1.5,3.3-2.4,5.3-2.4h164
					c2,0,3.9,0.9,5.3,2.4c1.3,1.5,1.9,3.5,1.7,5.6l-30.8,224.2C327.1,422.6,324.1,425.1,320.6,425.1z M224.3,411.1h90.2l28.9-210.2
					h-148L224.3,411.1z"/>
			</g>
		</g>
	</g>
	<g>
		<g>
			<g>
				<path class="st5" d="M187.4,200.9h-26.9c-3.9,0-7-3.1-7-7s3.1-7,7-7h26.9c3.9,0,7,3.1,7,7S191.3,200.9,187.4,200.9z"/>
			</g>
		</g>
	</g>
	<g>
		<g>
			<g>
				<path class="st3" d="M222.6,345.4c-5.1,0-9.8,1.5-13.8,4l6.4,46.9c2.3,0.7,4.8,1.1,7.4,1.1c14.3,0,26-11.6,26-26
					S236.9,345.4,222.6,345.4z"/>
			</g>
		</g>
	</g>
	<g>
		<g>
			<g>
				<polygon class="st6" points="333.9,321.9 344.4,245.5 194.5,245.5 205,321.9 				"/>
			</g>
		</g>
	</g>
	<g>
		<g>
			<g>
				<polygon class="st7" points="194.5,245.5 205,321.9 246,321.9 235.5,245.5 				"/>
			</g>
		</g>
	</g>
	<g>
		<g>
			<g>
				<path class="st5" d="M222.6,404.3c-3.2,0-6.3-0.5-9.3-1.4c-2.6-0.8-4.6-3-5-5.8l-6.4-46.9c-0.4-2.7,0.9-5.4,3.2-6.9
					c5.3-3.3,11.3-5.1,17.5-5.1c18.2,0,33,14.8,33,33S240.8,404.3,222.6,404.3z M221.5,390.3c0.4,0,0.7,0,1.1,0c10.5,0,19-8.5,19-19
					s-8.5-19-19-19c-2.1,0-4.2,0.4-6.2,1L221.5,390.3z"/>
			</g>
		</g>
	</g>
	<g>
		<g>
			<g>
				<path class="st5" d="M333.9,328.9H205c-3.5,0-6.5-2.6-6.9-6l-10.5-76.4c-0.3-2,0.3-4,1.7-5.6c1.3-1.5,3.3-2.4,5.3-2.4h149.8
					c2,0,3.9,0.9,5.3,2.4c1.3,1.5,1.9,3.5,1.7,5.6l-10.5,76.4C340.3,326.3,337.4,328.9,333.9,328.9z M211.1,314.9h116.6l8.6-62.4
					H202.5L211.1,314.9z"/>
			</g>
		</g>
	</g>
	<g>
		<g>
			<g>
				<path class="st3" d="M228,384.6c-5.1,0-9.8,1.5-13.8,4l4.1,29.5h34.6c0.7-2.4,1.1-4.9,1.1-7.6C254,396.2,242.4,384.6,228,384.6z
					"/>
			</g>
		</g>
	</g>
	<g>
		<g>
			<g>
				<path class="st5" d="M252.9,425.1h-34.6c-3.5,0-6.5-2.6-6.9-6l-4.1-29.5c-0.4-2.7,0.9-5.4,3.2-6.9c5.3-3.3,11.3-5.1,17.6-5.1
					c18.2,0,33,14.8,33,33c0,3.3-0.5,6.5-1.4,9.6C258.7,423.1,255.9,425.1,252.9,425.1z M224.3,411.1H247c0-0.2,0-0.4,0-0.6
					c0-10.5-8.5-19-19-19c-2.1,0-4.2,0.4-6.2,1L224.3,411.1z"/>
			</g>
		</g>
	</g>
	<g>
		<g>
			<g>
				<circle class="st3" cx="264.2" cy="389.6" r="26"/>
			</g>
		</g>
	</g>
	<g>
		<g>
			<g>
				<path class="st5" d="M264.2,422.5c-18.2,0-33-14.8-33-33s14.8-33,33-33s33,14.8,33,33S282.4,422.5,264.2,422.5z M264.2,370.6
					c-10.5,0-19,8.5-19,19s8.5,19,19,19s19-8.5,19-19S274.7,370.6,264.2,370.6z"/>
			</g>
		</g>
	</g>
	<g>
		<g>
			<g>
				<path class="st3" d="M329.7,351.9c-1.4-0.2-2.8-0.4-4.3-0.4c-14.3,0-26,11.6-26,26c0,13.4,10.1,24.4,23.2,25.8L329.7,351.9z"/>
			</g>
		</g>
	</g>
	<g>
		<g>
			<g>
				<path class="st5" d="M322.7,410.3c-0.2,0-0.5,0-0.8,0c-16.8-1.8-29.4-15.9-29.4-32.8c0-18.2,14.8-33,33-33
					c1.8,0,3.6,0.2,5.4,0.4c3.7,0.6,6.3,4.1,5.8,7.9l-7.1,51.4C329.1,407.8,326.1,410.3,322.7,410.3z M321.7,358.9
					c-8.7,1.8-15.2,9.4-15.2,18.6c0,7.3,4.1,13.7,10.3,16.9L321.7,358.9z"/>
			</g>
		</g>
	</g>
	<g>
		<g>
			<g>
				<path class="st3" d="M321.3,413.2c-0.8-13.6-12.1-24.4-25.9-24.4c-14.3,0-26,11.6-26,26c0,1.1,0.1,2.2,0.2,3.3h51L321.3,413.2z"
					/>
			</g>
		</g>
	</g>
	<g>
		<g>
			<g>
				<path class="st5" d="M320.6,425.1h-51c-3.5,0-6.5-2.6-6.9-6.1c-0.2-1.4-0.3-2.9-0.3-4.2c0-18.2,14.8-33,33-33
					c17.4,0,31.9,13.6,32.9,31c0,0.5,0,0.9-0.1,1.4l-0.7,4.9C327.1,422.6,324.1,425.1,320.6,425.1z M276.8,411.1H314
					c-1.7-8.8-9.4-15.3-18.6-15.3C286.2,395.8,278.5,402.4,276.8,411.1z"/>
			</g>
		</g>
	</g>
	<g>
		<g>
			<g>
				<path class="st5" d="M321.3,200.9h-21.8c-3.9,0-7-3.1-7-7v-100c0-3.9,3.1-7,7-7h21.8c3.9,0,7,3.1,7,7v100
					C328.3,197.8,325.2,200.9,321.3,200.9z M306.5,186.9h7.8v-86h-7.8V186.9z"/>
			</g>
		</g>
	</g>
	<g>
		<g>
			<g>
				<rect x="274.6" y="215.5" class="st0" width="24.9" height="14"/>
			</g>
		</g>
	</g>
	<g>
		<g>
			<g>
				<rect x="312.6" y="215.5" class="st0" width="14.4" height="14"/>
			</g>
		</g>
	</g>
</g>
</svg>
