<?xml version="1.0" encoding="utf-8"?>
<!-- Generator: Adobe Illustrator 21.1.0, SVG Export Plug-In . SVG Version: 6.00 Build 0)  -->
<svg version="1.1" id="Icon_Set" xmlns="http://www.w3.org/2000/svg" xmlns:xlink="http://www.w3.org/1999/xlink" x="0px" y="0px"
	 viewBox="0 0 512 512" style="enable-background:new 0 0 512 512;" xml:space="preserve">
<style type="text/css">
	.st0{fill:#FFFFFF;}
	.st1{fill:#5B7C31;}
	.st2{fill:#E56823;}
	.st3{fill:#FE8E46;}
	.st4{fill:#7DAC51;}
	.st5{fill:#463218;}
	.st6{fill:#FEFE71;}
	.st7{fill:#D6CD1E;}
	.st8{fill:none;stroke:#FFFFFF;stroke-width:14;stroke-miterlimit:10;}
	.st9{fill:none;stroke:#463218;stroke-width:14;stroke-linecap:round;stroke-linejoin:round;stroke-miterlimit:10;}
</style>
<g id="Burger">
	<g>
		<g>
			<g>
				<path class="st3" d="M350.1,261.5H161.9c-13.1,0-23.8-10.6-23.8-23.8v0c0-13.1,10.6-23.8,23.8-23.8h188.3
					c13.1,0,23.8,10.6,23.8,23.8v0C373.9,250.9,363.3,261.5,350.1,261.5z"/>
			</g>
		</g>
	</g>
	<g>
		<g>
			<g>
				<path class="st2" d="M204.8,237.7L204.8,237.7c0-13.1,10.6-23.8,23.8-23.8h-66.7c-13.1,0-23.8,10.6-23.8,23.8l0,0
					c0,13.1,10.6,23.8,23.8,23.8h66.7C215.4,261.5,204.8,250.9,204.8,237.7z"/>
			</g>
		</g>
	</g>
	<g>
		<g>
			<g>
				<path class="st6" d="M297.8,376.7h-83.7c-33.4,0-60.6-27.1-60.6-60.6v-33.9h204.8v33.9C358.4,349.6,331.3,376.7,297.8,376.7z"/>
			</g>
		</g>
	</g>
	<g>
		<g>
			<g>
				<path class="st7" d="M214.2,316.1v-33.9h-60.6v33.9c0,33.4,27.1,60.6,60.6,60.6h60.6C241.3,376.7,214.2,349.6,214.2,316.1z"/>
			</g>
		</g>
	</g>
	<g>
		<g>
			<g>
				<path class="st5" d="M297.8,383.7h-83.7c-37.2,0-67.6-30.3-67.6-67.6v-33.9c0-3.9,3.1-7,7-7h204.8c3.9,0,7,3.1,7,7v33.9
					C365.4,353.4,335.1,383.7,297.8,383.7z M160.6,289.2v26.9c0,29.5,24,53.6,53.6,53.6h83.7c29.5,0,53.6-24,53.6-53.6v-26.9H160.6z
					"/>
			</g>
		</g>
	</g>
	<g>
		<g>
			<g>
				<path class="st6" d="M214.2,135.3h83.7c33.4,0,60.6,27.1,60.6,60.6V214H153.6v-18.1C153.6,162.4,180.7,135.3,214.2,135.3z"/>
			</g>
		</g>
	</g>
	<g>
		<g>
			<g>
				<path class="st7" d="M274.8,135.3h-60.6c-33.4,0-60.6,27.1-60.6,60.6V214h60.6v-18.1C214.2,162.4,241.3,135.3,274.8,135.3z"/>
			</g>
		</g>
	</g>
	<g>
		<g>
			<g>
				<path class="st5" d="M358.4,221H153.6c-3.9,0-7-3.1-7-7v-18.1c0-37.2,30.3-67.6,67.6-67.6h83.7c37.2,0,67.6,30.3,67.6,67.6V214
					C365.4,217.8,362.3,221,358.4,221z M160.6,207h190.8v-11.1c0-29.5-24-53.6-53.6-53.6h-83.7c-29.5,0-53.6,24-53.6,53.6V207z"/>
			</g>
		</g>
	</g>
	<g>
		<g>
			<g>
				<path class="st5" d="M350.1,268.5H161.9c-17,0-30.8-13.8-30.8-30.8s13.8-30.8,30.8-30.8h188.3c17,0,30.8,13.8,30.8,30.8
					S367.1,268.5,350.1,268.5z M161.9,221c-9.3,0-16.8,7.5-16.8,16.8s7.5,16.8,16.8,16.8h188.3c9.3,0,16.8-7.5,16.8-16.8
					s-7.5-16.8-16.8-16.8H161.9z"/>
			</g>
		</g>
	</g>
	<g>
		<g>
			<g>
				<path class="st4" d="M360.4,251.3c-3.9-0.2-7.6,0.2-11,1.3c-7.3,2.2-15.1,2.5-22.4,0.2c-3-1-6.2-1.5-9.6-1.5
					c-3.3,0-6.5,0.5-9.6,1.5c-7.1,2.3-14.8,2.3-21.8,0c-3-1-6.2-1.5-9.6-1.5c-3.3,0-6.5,0.5-9.6,1.5c-7.1,2.3-14.8,2.3-21.8,0
					c-3-1-6.2-1.5-9.6-1.5c-3.3,0-6.5,0.5-9.6,1.5c-7.1,2.3-14.8,2.3-21.8,0c-3-1-6.2-1.5-9.6-1.5c-3.3,0-6.5,0.5-9.6,1.5
					c-7.3,2.4-15.1,2-22.4-0.2c-3.5-1-7.2-1.5-11-1.3c-15.4,1-27.9,13.4-28.9,28.8c-1.2,18.1,13.1,33.2,31,33.2
					c7.9,0,15-2.9,20.5-7.7c5.5,4.8,12.6,7.7,20.5,7.7c7.9,0,15-2.9,20.5-7.7c5.5,4.8,12.6,7.7,20.5,7.7s15-2.9,20.5-7.7
					c5.5,4.8,12.6,7.7,20.5,7.7s15-2.9,20.5-7.7c5.5,4.8,12.6,7.7,20.5,7.7c7.9,0,15-2.9,20.5-7.7c5.5,4.8,12.6,7.7,20.5,7.7
					c17.9,0,32.2-15.1,31-33.2C388.3,264.7,375.8,252.3,360.4,251.3z"/>
			</g>
		</g>
	</g>
	<g>
		<g>
			<g>
				<g>
					<path class="st1" d="M308.2,252.7c3-1,6.1-1.5,9.4-1.5c-0.1,0-0.1,0-0.2,0c-3.3,0-6.5,0.5-9.6,1.5c-3.5,1.1-7.1,1.7-10.8,1.7
						C300.9,254.4,304.6,253.9,308.2,252.7z"/>
				</g>
			</g>
		</g>
		<g>
			<g>
				<g>
					<path class="st1" d="M349.2,252.7c3-1,6.1-1.5,9.4-1.5c-3.2,0-6.2,0.4-9.1,1.3c-4.9,1.5-10,2.1-15.1,1.7
						C339.3,254.7,344.4,254.3,349.2,252.7z"/>
				</g>
			</g>
		</g>
		<g>
			<g>
				<g>
					<path class="st1" d="M267.2,252.7c3-1,6.1-1.5,9.4-1.5c-0.1,0-0.1,0-0.2,0c-3.3,0-6.5,0.5-9.6,1.5c-2.3,0.7-4.6,1.2-7,1.5
						C262.4,254,264.8,253.5,267.2,252.7z"/>
				</g>
			</g>
		</g>
		<g>
			<g>
				<g>
					<path class="st1" d="M360.5,251.3C360.5,251.3,360.5,251.3,360.5,251.3c-0.6,0-1.1-0.1-1.6-0.1
						C359.4,251.2,360,251.2,360.5,251.3z"/>
				</g>
			</g>
		</g>
		<g>
			<g>
				<g>
					<path class="st1" d="M297.3,305.6c-0.1,0-0.1,0.1-0.2,0.1c5.4,4.7,12.5,7.6,20.3,7.6c0.1,0,0.1,0,0.2,0
						C309.8,313.2,302.7,310.3,297.3,305.6z"/>
				</g>
			</g>
		</g>
		<g>
			<g>
				<g>
					<path class="st1" d="M338.2,305.6c-0.1,0-0.1,0.1-0.2,0.1c5.4,4.7,12.5,7.6,20.3,7.6c0,0,0.1,0,0.1,0
						C350.8,313.2,343.7,310.3,338.2,305.6z"/>
				</g>
			</g>
		</g>
		<g>
			<g>
				<g>
					<path class="st1" d="M256.3,305.6c-0.1,0-0.1,0.1-0.2,0.1c5.4,4.7,12.5,7.6,20.3,7.6c0.1,0,0.1,0,0.2,0
						C268.9,313.2,261.7,310.3,256.3,305.6z"/>
				</g>
			</g>
		</g>
		<g>
			<g>
				<g>
					<path class="st1" d="M204.9,280.1c1.1-15.4,13.5-27.8,28.9-28.8c-2.7,0.2-5.3,0.6-7.8,1.4c-7.1,2.3-14.8,2.3-21.8,0
						c-3-1-6.2-1.5-9.6-1.5c-3.3,0-6.5,0.5-9.6,1.5c-7.3,2.4-15.1,2-22.4-0.2c-3.5-1-7.2-1.5-11-1.3c-15.4,1-27.9,13.4-28.9,28.8
						c-1.2,18.1,13.1,33.2,31,33.2c7.9,0,15-2.9,20.5-7.7c5.5,4.8,12.6,7.7,20.5,7.7c7.9,0,15-2.9,20.5-7.7
						c5.5,4.8,12.6,7.7,20.5,7.7c0.1,0,0.1,0,0.2,0C217.9,313.2,203.6,298.1,204.9,280.1z"/>
				</g>
			</g>
		</g>
		<g>
			<g>
				<g>
					<path class="st1" d="M235.7,251.2c-0.1,0-0.1,0-0.2,0c-0.1,0-0.1,0-0.2,0C235.5,251.2,235.6,251.2,235.7,251.2z"/>
				</g>
			</g>
		</g>
	</g>
	<g>
		<g>
			<g>
				<path class="st5" d="M358.4,320.3c-7.3,0-14.4-2.1-20.5-6c-6.1,3.9-13.2,6-20.5,6s-14.4-2.1-20.5-6c-6.1,3.9-13.2,6-20.5,6
					s-14.4-2.1-20.5-6c-6.1,3.9-13.2,6-20.5,6s-14.4-2.1-20.5-6c-6.1,3.9-13.2,6-20.5,6s-14.4-2.1-20.5-6c-6.1,3.9-13.2,6-20.5,6
					c-10.5,0-20.6-4.4-27.8-12.1c-7.3-7.8-10.9-18-10.1-28.6c1.3-18.9,16.5-34.1,35.5-35.3c4.6-0.3,9.1,0.2,13.5,1.5
					c6.4,1.9,12.7,2,18.2,0.2c7.5-2.4,15.9-2.4,23.4,0c5.7,1.8,11.9,1.8,17.5,0c7.6-2.4,15.9-2.4,23.4,0c5.7,1.8,11.9,1.8,17.5,0
					c7.6-2.4,15.9-2.4,23.4,0c5.7,1.8,11.9,1.8,17.5,0c7.6-2.4,15.9-2.4,23.4,0c5.5,1.8,11.8,1.7,18.2-0.2c4.4-1.3,8.9-1.8,13.5-1.5
					c18.9,1.2,34.2,16.4,35.5,35.3c0.7,10.7-2.9,20.8-10.1,28.6C379,315.9,368.9,320.3,358.4,320.3z M337.9,298.6
					c1.7,0,3.3,0.6,4.6,1.7c4.4,3.9,10,6,15.9,6c6.7,0,13-2.7,17.6-7.6c4.6-4.9,6.9-11.4,6.4-18.1c-0.8-11.9-10.4-21.5-22.4-22.3
					c0,0,0,0,0,0c-2.9-0.2-5.8,0.1-8.6,1c-9.1,2.8-18.3,2.8-26.6,0.1c-4.8-1.5-10-1.5-14.8,0c-8.4,2.7-17.7,2.7-26.2,0
					c-4.8-1.5-10-1.5-14.8,0c-8.4,2.7-17.7,2.7-26.2,0c-4.8-1.5-10-1.5-14.8,0c-8.4,2.7-17.7,2.7-26.2,0c-4.8-1.5-10-1.5-14.8,0
					c-8.3,2.7-17.5,2.6-26.6-0.1c-2.8-0.8-5.6-1.2-8.6-1c-11.9,0.8-21.6,10.3-22.4,22.3c-0.5,6.8,1.8,13.2,6.4,18.1
					c4.6,4.9,10.8,7.6,17.6,7.6c5.8,0,11.5-2.1,15.9-6c2.6-2.3,6.6-2.3,9.2,0c4.4,3.9,10,6,15.9,6s11.5-2.1,15.9-6
					c2.6-2.3,6.6-2.3,9.2,0c4.4,3.9,10,6,15.9,6s11.5-2.1,15.9-6c2.6-2.3,6.6-2.3,9.2,0c4.4,3.9,10,6,15.9,6s11.5-2.1,15.9-6
					c2.6-2.3,6.6-2.3,9.2,0c4.4,3.9,10,6,15.9,6s11.5-2.1,15.9-6C334.6,299.1,336.3,298.6,337.9,298.6z"/>
			</g>
		</g>
	</g>
	<g>
		<g>
			<g>
				<path class="st0" d="M185.8,197l-13.3-4.3c4.7-14.5,14.2-27.3,26.9-35.8l7.9-5.3l7.8,11.6l-7.9,5.3
					C197.1,175.4,189.5,185.5,185.8,197z"/>
			</g>
		</g>
	</g>
</g>
</svg>
