<?xml version="1.0" encoding="utf-8"?>
<!-- Generator: Adobe Illustrator 21.1.0, SVG Export Plug-In . SVG Version: 6.00 Build 0)  -->
<svg version="1.1" id="Icon_Set" xmlns="http://www.w3.org/2000/svg" xmlns:xlink="http://www.w3.org/1999/xlink" x="0px" y="0px"
	 viewBox="0 0 512 512" style="enable-background:new 0 0 512 512;" xml:space="preserve">
<style type="text/css">
	.st0{fill:#FFFFFF;}
	.st1{fill:#5B7C31;}
	.st2{fill:#E56823;}
	.st3{fill:#FE8E46;}
	.st4{fill:#7DAC51;}
	.st5{fill:#463218;}
	.st6{fill:#FEFE71;}
	.st7{fill:#D6CD1E;}
	.st8{fill:none;stroke:#FFFFFF;stroke-width:14;stroke-miterlimit:10;}
	.st9{fill:none;stroke:#463218;stroke-width:14;stroke-linecap:round;stroke-linejoin:round;stroke-miterlimit:10;}
</style>
<g id="Burrito">
	<g>
		<g>
			<g>
				<circle class="st3" cx="180.8" cy="217.1" r="36.3"/>
			</g>
		</g>
	</g>
	<g>
		<g>
			<g>
				<circle class="st3" cx="332.1" cy="217.1" r="36.3"/>
			</g>
		</g>
	</g>
	<g>
		<g>
			<g>
				<path class="st5" d="M180.8,260.3c-23.9,0-43.3-19.4-43.3-43.3s19.4-43.3,43.3-43.3s43.3,19.4,43.3,43.3
					S204.6,260.3,180.8,260.3z M180.8,187.8c-16.1,0-29.3,13.1-29.3,29.3s13.1,29.3,29.3,29.3s29.3-13.1,29.3-29.3
					S196.9,187.8,180.8,187.8z"/>
			</g>
		</g>
	</g>
	<g>
		<g>
			<g>
				<path class="st5" d="M332.1,260.3c-23.9,0-43.3-19.4-43.3-43.3s19.4-43.3,43.3-43.3s43.3,19.4,43.3,43.3S356,260.3,332.1,260.3z
					 M332.1,187.8c-16.1,0-29.3,13.1-29.3,29.3s13.1,29.3,29.3,29.3s29.3-13.1,29.3-29.3S348.2,187.8,332.1,187.8z"/>
			</g>
		</g>
	</g>
	<g>
		<g>
			<g>
				<path class="st4" d="M379.7,256.4c0.7-2.7,1-5.5,1-8.4c0-19-15.4-34.4-34.4-34.4c-5.4,0-10.5,1.2-15.1,3.5
					c-2.5-16.5-16.8-29.2-34.1-29.2c-2.6,0-5.1,0.3-7.6,0.8c-5.3-12.2-17.5-20.7-31.6-20.7c-0.7,0-1.3,0-2,0.1c-0.7,0-1.3-0.1-2-0.1
					c-14.1,0-26.3,8.5-31.6,20.7c-2.4-0.5-5-0.8-7.6-0.8c-17.2,0-31.5,12.7-34.1,29.2c-4.5-2.2-9.7-3.5-15.1-3.5
					c-19,0-34.4,15.4-34.4,34.4c0,2.9,0.4,5.7,1,8.4c-15.9,3.1-27.9,17-27.9,33.8c0,19,15.4,34.4,34.4,34.4
					c19,0,34.4-15.4,34.4-34.4c0-2.9-0.4-5.7-1-8.4c14.2-2.7,25.3-14.2,27.5-28.6c4.6,2.2,9.7,3.5,15.1,3.5
					c14.1,0,26.3-8.5,31.6-20.7c2.4,0.5,5,0.8,7.6,0.8c0.7,0,1.3,0,2-0.1c0.7,0,1.3,0.1,2,0.1c2.6,0,5.1-0.3,7.6-0.8
					c5.3,12.2,17.4,20.7,31.6,20.7c5.4,0,10.5-1.2,15.1-3.5c2.2,14.4,13.3,25.8,27.5,28.6c-0.7,2.7-1,5.5-1,8.4
					c0,19,15.4,34.4,34.4,34.4s34.4-15.4,34.4-34.4C407.6,273.5,395.6,259.5,379.7,256.4z"/>
			</g>
		</g>
	</g>
	<g>
		<g>
			<g>
				<path class="st5" d="M373.1,331.7c-22.9,0-41.4-18.6-41.4-41.4c0-1.1,0-2.2,0.1-3.4c-11.3-4.2-20.2-13.2-24.4-24.4
					c-3.3,0.8-6.7,1.3-10.2,1.3c-14.6,0-28-7.7-35.5-20c-1.2,0.1-2.5,0.2-3.7,0.2c-0.6,0-1.3,0-2-0.1c-0.7,0-1.4,0.1-2,0.1
					c-1.2,0-2.5-0.1-3.7-0.2c-7.4,12.3-20.8,20-35.5,20c-3.5,0-6.9-0.4-10.2-1.3c-4.2,11.3-13.1,20.2-24.4,24.4
					c0.1,1.1,0.1,2.2,0.1,3.4c0,22.9-18.6,41.4-41.4,41.4s-41.4-18.6-41.4-41.4c0-17.5,11-32.9,27-38.9c-0.1-1.1-0.1-2.2-0.1-3.4
					c0-22.9,18.6-41.4,41.4-41.4c3.5,0,6.9,0.4,10.3,1.3c5.9-15.9,21.4-27,38.9-27c1.2,0,2.4,0.1,3.7,0.2c7.4-12.3,20.8-20,35.5-20
					c0.7,0,1.4,0,2,0.1c0.6,0,1.3-0.1,2-0.1c14.7,0,28.1,7.7,35.5,20c1.2-0.1,2.4-0.2,3.7-0.2c17.4,0,32.9,11.2,38.9,27
					c3.3-0.8,6.8-1.3,10.3-1.3c22.9,0,41.4,18.6,41.4,41.4c0,1.1,0,2.2-0.1,3.4c16,5.9,27,21.3,27,38.9
					C414.6,313.1,396,331.7,373.1,331.7z M312.2,246.3c1.1,0,2.2,0.3,3.3,0.8c2,1,3.3,2.9,3.7,5.1c1.7,11.4,10.5,20.6,21.9,22.8
					c1.9,0.4,3.5,1.5,4.6,3.1c1,1.6,1.4,3.6,0.9,5.5c-0.5,2.2-0.8,4.4-0.8,6.7c0,15.1,12.3,27.4,27.4,27.4s27.4-12.3,27.4-27.4
					c0-13.1-9.3-24.5-22.2-26.9c-1.9-0.4-3.5-1.5-4.6-3.1c-1-1.6-1.4-3.6-0.9-5.5c0.5-2.2,0.8-4.4,0.8-6.7
					c0-15.1-12.3-27.4-27.4-27.4c-4.2,0-8.2,0.9-12,2.8c-2,1-4.3,0.9-6.3-0.1c-2-1-3.3-2.9-3.7-5.1c-2-13.3-13.7-23.3-27.1-23.3
					c-2,0-4,0.2-6,0.7c-3.3,0.7-6.6-1-8-4c-4.4-10-14.2-16.5-25.2-16.5c-0.5,0-1.1,0-1.6,0.1c-0.3,0-0.6,0-0.8,0
					c-0.5,0-1.1-0.1-1.6-0.1c-10.9,0-20.8,6.5-25.2,16.5c-1.3,3.1-4.7,4.8-8,4c-2-0.4-4-0.7-6-0.7c-13.4,0-25.1,10-27.1,23.3
					c-0.3,2.2-1.7,4.1-3.7,5.1c-2,1-4.3,1.1-6.3,0.1c-3.8-1.8-7.8-2.8-12-2.8c-15.1,0-27.4,12.3-27.4,27.4c0,2.3,0.3,4.5,0.8,6.7
					c0.5,1.9,0.1,3.8-0.9,5.5c-1,1.6-2.7,2.7-4.6,3.1c-12.9,2.5-22.2,13.8-22.2,26.9c0,15.1,12.3,27.4,27.4,27.4
					c15.1,0,27.4-12.3,27.4-27.4c0-2.3-0.3-4.5-0.8-6.7c-0.5-1.9-0.1-3.8,0.9-5.5s2.7-2.7,4.6-3.1c11.4-2.2,20.2-11.3,21.9-22.8
					c0.3-2.2,1.7-4.1,3.7-5.1c2-1,4.3-1.1,6.3-0.1c3.8,1.8,7.8,2.8,12,2.8c10.9,0,20.8-6.5,25.1-16.5c1.3-3.1,4.7-4.8,8-4
					c2.5,0.6,5.1,0.8,7.7,0.6c0.3,0,0.5,0,0.8,0c2.5,0.1,5.1-0.1,7.7-0.6c3.3-0.7,6.6,1,8,4c4.4,10,14.2,16.5,25.1,16.5
					c4.2,0,8.2-0.9,12-2.8C310.1,246.5,311.2,246.3,312.2,246.3z"/>
			</g>
		</g>
	</g>
	<g>
		<g>
			<g>
				<path class="st6" d="M393.6,320.1c-11.3-64.6-67.7-113.7-135.5-113.7s-124.2,49.1-135.5,113.7c-2.2,12.5,7.5,23.9,20.2,23.9
					h230.7C386,344,395.7,332.6,393.6,320.1z"/>
			</g>
		</g>
	</g>
	<g>
		<g>
			<g>
				<path class="st7" d="M392.6,315.2H245c-12.7,0-22.4-11.4-20.2-23.9c5.9-33.8,24.2-63.3,49.9-83.8c-5.5-0.7-11.1-1-16.8-1
					c-67.9,0-124.2,49.1-135.5,113.7c-2.2,12.5,7.5,23.9,20.2,23.9h230.7c12.7,0,22.4-11.4,20.2-23.9
					C393.3,318.5,392.9,316.8,392.6,315.2z"/>
			</g>
		</g>
	</g>
	<g>
		<g>
			<g>
				<path class="st5" d="M373.4,351H142.6c-8.1,0-15.8-3.6-21.1-9.8c-5.2-6.2-7.4-14.3-6-22.3c5.8-33.1,23.2-63.4,48.9-85.2
					c26.1-22.1,59.3-34.3,93.5-34.3c34.2,0,67.4,12.2,93.5,34.3c25.8,21.9,43.1,52.1,48.9,85.2l0,0c1.4,8-0.8,16.1-6,22.3
					C389.2,347.4,381.5,351,373.4,351z M258,213.4c-30.9,0-60.9,11-84.4,31c-23.3,19.7-39,47.1-44.2,77c-0.7,3.9,0.4,7.8,2.9,10.9
					c2.6,3.1,6.3,4.8,10.3,4.8h230.7c4,0,7.8-1.8,10.3-4.8c2.5-3,3.6-7,2.9-10.9l0,0c-5.2-29.9-20.9-57.2-44.2-77
					C318.9,224.4,288.9,213.4,258,213.4z"/>
			</g>
		</g>
	</g>
	<g>
		<g>
			<g>
				<path class="st0" d="M168.2,302.1l-13.5-3.9c6.9-24.2,22.8-44.4,44.6-56.9l7,12.1C187.6,264.2,174.1,281.5,168.2,302.1z"/>
			</g>
		</g>
	</g>
</g>
</svg>
