<?xml version="1.0" encoding="utf-8"?>
<!-- Generator: Adobe Illustrator 21.1.0, SVG Export Plug-In . SVG Version: 6.00 Build 0)  -->
<svg version="1.1" id="Icon_Set" xmlns="http://www.w3.org/2000/svg" xmlns:xlink="http://www.w3.org/1999/xlink" x="0px" y="0px"
	 viewBox="0 0 512 512" style="enable-background:new 0 0 512 512;" xml:space="preserve">
<style type="text/css">
	.st0{fill:#FFFFFF;}
	.st1{fill:#5B7C31;}
	.st2{fill:#E56823;}
	.st3{fill:#FE8E46;}
	.st4{fill:#7DAC51;}
	.st5{fill:#463218;}
	.st6{fill:#FEFE71;}
	.st7{fill:#D6CD1E;}
	.st8{fill:none;stroke:#FFFFFF;stroke-width:14;stroke-miterlimit:10;}
	.st9{fill:none;stroke:#463218;stroke-width:14;stroke-linecap:round;stroke-linejoin:round;stroke-miterlimit:10;}
</style>
<g id="Cake">
	<g>
		<g>
			<g>
				<polygon class="st7" points="358.4,335.1 165.7,409.6 165.7,281.1 358.4,206.6 				"/>
			</g>
		</g>
	</g>
	<g>
		<g>
			<g>
				<path class="st5" d="M165.7,416.6c-1.4,0-2.8-0.4-4-1.2c-1.9-1.3-3-3.5-3-5.8V281.1c0-2.9,1.8-5.5,4.5-6.5l192.7-74.5
					c2.2-0.8,4.6-0.5,6.5,0.8c1.9,1.3,3,3.5,3,5.8v128.5c0,2.9-1.8,5.5-4.5,6.5l-192.7,74.5C167.4,416.4,166.5,416.6,165.7,416.6z
					 M172.7,285.9v113.5l178.7-69.1V216.8L172.7,285.9z M358.4,335.1L358.4,335.1L358.4,335.1z"/>
			</g>
		</g>
	</g>
	<g>
		<g>
			<g>
				<polygon class="st4" points="358.4,291.7 165.7,366.2 165.7,322.9 358.4,248.4 				"/>
			</g>
		</g>
	</g>
	<g>
		<g>
			<g>
				<path class="st5" d="M165.7,373.2c-1.4,0-2.8-0.4-4-1.2c-1.9-1.3-3-3.5-3-5.8v-43.4c0-2.9,1.8-5.5,4.5-6.5l192.7-74.5
					c2.2-0.8,4.6-0.5,6.5,0.8c1.9,1.3,3,3.5,3,5.8v43.4c0,2.9-1.8,5.5-4.5,6.5l-192.7,74.5C167.4,373.1,166.5,373.2,165.7,373.2z
					 M172.7,327.7V356l178.7-69.1v-28.4L172.7,327.7z M358.4,291.7L358.4,291.7L358.4,291.7z"/>
			</g>
		</g>
	</g>
	<g>
		<g>
			<g>
				<path class="st6" d="M165.7,281.1l66.3-128c0,0,85.1-27.4,126.4,53.5L165.7,281.1z"/>
			</g>
		</g>
	</g>
	<g>
		<g>
			<g>
				<path class="st7" d="M298.3,191.2v-20.7l-6.4-18.8c-31.8-7.7-59.9,1.4-59.9,1.4l-31,59.9C257.2,219.2,298.3,191.2,298.3,191.2z"
					/>
			</g>
		</g>
	</g>
	<g>
		<g>
			<g>
				<path class="st5" d="M165.7,288.1c-2,0-3.9-0.8-5.2-2.3c-1.9-2.2-2.3-5.3-1-7.9l66.3-128c0.8-1.6,2.3-2.9,4.1-3.4
					c0.9-0.3,23.1-7.3,50.7-3.9c25.8,3.2,61.4,16.3,84.1,60.9c0.9,1.8,1,3.8,0.3,5.7c-0.7,1.9-2.2,3.3-4,4l-192.7,74.5
					C167.4,288,166.5,288.1,165.7,288.1z M236.8,159l-56.4,108.9l168-64.9c-16-27.2-39.4-42.8-69.6-46.5
					C259.5,154.1,243,157.4,236.8,159z"/>
			</g>
		</g>
	</g>
	<g>
		<g>
			<g>
				<circle class="st3" cx="298.3" cy="148.6" r="35.7"/>
			</g>
		</g>
	</g>
	<g>
		<g>
			<g>
				<path class="st2" d="M310.1,160.7c-13.2,0-23.9-10.7-23.9-23.9c0-11.4,8-20.9,18.6-23.3c-2.1-0.4-4.3-0.6-6.5-0.6
					c-19.7,0-35.7,16-35.7,35.7c0,19.7,16,35.7,35.7,35.7s35.7-16,35.7-35.7c0-2.2-0.2-4.4-0.6-6.5
					C331,152.8,321.5,160.7,310.1,160.7z"/>
			</g>
		</g>
	</g>
	<g>
		<g>
			<g>
				<path class="st5" d="M298.3,191.3c-23.5,0-42.7-19.2-42.7-42.7s19.2-42.7,42.7-42.7s42.7,19.2,42.7,42.7
					S321.9,191.3,298.3,191.3z M298.3,119.9c-15.8,0-28.7,12.9-28.7,28.7s12.9,28.7,28.7,28.7s28.7-12.9,28.7-28.7
					S314.1,119.9,298.3,119.9z"/>
			</g>
		</g>
	</g>
	<g>
		<g>
			<g>
				<path class="st5" d="M307.2,145.2c-0.3,0-0.6,0-1-0.1c-3.8-0.5-6.5-4.1-6-7.9c0.2-1.2,4.4-29.3,28.7-41.1
					c3.5-1.7,7.7-0.2,9.4,3.2s0.2,7.7-3.2,9.4c-17.7,8.6-20.9,30.2-21,30.4C313.6,142.6,310.6,145.2,307.2,145.2z"/>
			</g>
		</g>
	</g>
	<g>
		<g>
			<g>
				
					<rect x="294.9" y="280.4" transform="matrix(0.9438 -0.3305 0.3305 0.9438 -77.3558 119.9342)" class="st0" width="38.2" height="14"/>
			</g>
		</g>
	</g>
</g>
</svg>
