<?xml version="1.0" encoding="utf-8"?>
<!-- Generator: Adobe Illustrator 21.1.0, SVG Export Plug-In . SVG Version: 6.00 Build 0)  -->
<svg version="1.1" id="Icon_Set" xmlns="http://www.w3.org/2000/svg" xmlns:xlink="http://www.w3.org/1999/xlink" x="0px" y="0px"
	 viewBox="0 0 512 512" style="enable-background:new 0 0 512 512;" xml:space="preserve">
<style type="text/css">
	.st0{fill:#FFFFFF;}
	.st1{fill:#5B7C31;}
	.st2{fill:#E56823;}
	.st3{fill:#FE8E46;}
	.st4{fill:#7DAC51;}
	.st5{fill:#463218;}
	.st6{fill:#FEFE71;}
	.st7{fill:#D6CD1E;}
	.st8{fill:none;stroke:#FFFFFF;stroke-width:14;stroke-miterlimit:10;}
	.st9{fill:none;stroke:#463218;stroke-width:14;stroke-linecap:round;stroke-linejoin:round;stroke-miterlimit:10;}
</style>
<g id="Canned_Food">
	<g>
		<g>
			<g>
				<path class="st1" d="M185.9,360.7V151.3c0-12.9,10.4-23.3,23.3-23.3H158c-12.9,0-23.3,10.4-23.3,23.3v209.4
					c0,12.9,10.4,23.3,23.3,23.3h51.2C196.3,384,185.9,373.6,185.9,360.7z"/>
			</g>
		</g>
	</g>
	<g>
		<g>
			<g>
				<path class="st2" d="M325.6,384H209.2c-12.9,0-23.3-10.4-23.3-23.3V151.3c0-12.9,10.4-23.3,23.3-23.3h116.3
					c12.9,0,23.3,10.4,23.3,23.3v209.4C348.9,373.6,338.4,384,325.6,384z"/>
			</g>
		</g>
	</g>
	<g>
		<g>
			<g>
				<path class="st3" d="M211.1,154v209.4c0,9,5.1,16.8,12.5,20.7h101.9c12.9,0,23.3-10.4,23.3-23.3V151.3c0-9-5.1-16.8-12.5-20.7
					H234.4C221.6,130.7,211.1,141.1,211.1,154z"/>
			</g>
		</g>
	</g>
	<g>
		<g>
			<g>
				<path class="st4" d="M185.9,264.7v96c0,12.9,10.4,23.3,23.3,23.3h116.3c12.9,0,23.3-10.4,23.3-23.3v-134c0,0-100.1,0-133.6,0
					S185.9,264.7,185.9,264.7z"/>
			</g>
		</g>
	</g>
	<g>
		<g>
			<g>
				<path class="st1" d="M234.5,357.1c-12.9,0-23.3-10.4-23.3-23.3v-96c0,0-0.5-4.8,0.3-10.9c-29.4,2.7-25.6,37.8-25.6,37.8v96
					c0,12.9,10.4,23.3,23.3,23.3h116.3c12.9,0,23.3-10.4,23.3-23.3v-3.6H234.5z"/>
			</g>
		</g>
	</g>
	<g>
		<g>
			<g>
				<path class="st5" d="M325.6,391H209.2c-16.7,0-30.3-13.6-30.3-30.3V151.3c0-16.7,13.6-30.3,30.3-30.3h116.3
					c16.7,0,30.3,13.6,30.3,30.3v209.4C355.9,377.4,342.3,391,325.6,391z M209.2,135c-9,0-16.3,7.3-16.3,16.3v209.4
					c0,9,7.3,16.3,16.3,16.3h116.3c9,0,16.3-7.3,16.3-16.3V151.3c0-9-7.3-16.3-16.3-16.3H209.2z"/>
			</g>
		</g>
	</g>
	<g>
		<g>
			<g>
				<path class="st5" d="M209.2,391H158c-16.7,0-30.3-13.6-30.3-30.3V151.3c0-16.7,13.6-30.3,30.3-30.3h51.2c3.9,0,7,3.1,7,7
					s-3.1,7-7,7c-9,0-16.3,7.3-16.3,16.3v209.4c0,9,7.3,16.3,16.3,16.3c3.9,0,7,3.1,7,7S213.1,391,209.2,391z M158,135
					c-9,0-16.3,7.3-16.3,16.3v209.4c0,9,7.3,16.3,16.3,16.3h25.7c-3-4.7-4.8-10.3-4.8-16.3V151.3c0-6,1.8-11.6,4.8-16.3H158z"/>
			</g>
		</g>
	</g>
	<g>
		<g>
			<g>
				<path class="st3" d="M215.2,226.7c16.2,0,29.3,13.1,29.3,29.3s-13.1,29.3-29.3,29.3h133.6c16.2,0,29.3-13.1,29.3-29.3
					s-13.1-29.3-29.3-29.3H215.2"/>
			</g>
		</g>
	</g>
	<g>
		<g>
			<g>
				<path class="st5" d="M348.9,292.3H215.2c-3.9,0-7-3.1-7-7s3.1-7,7-7c12.3,0,22.3-10,22.3-22.3s-10-22.3-22.3-22.3
					c-12.3,0-22.3,10-22.3,22.3c0,3.9-3.1,7-7,7s-7-3.1-7-7c0-20,16.3-36.3,36.3-36.3h133.6c20,0,36.3,16.3,36.3,36.3
					S368.9,292.3,348.9,292.3z M243.9,278.3h105c12.3,0,22.3-10,22.3-22.3s-10-22.3-22.3-22.3h-105c4.8,6.2,7.7,13.9,7.7,22.3
					S248.7,272.2,243.9,278.3z"/>
			</g>
		</g>
	</g>
	<g>
		<g>
			<g>
				<path class="st6" d="M216.2,226.7c0-35.1,21-65.2,51.1-78.6c30.1,13.4,51.1,43.5,51.1,78.6H216.2z"/>
			</g>
		</g>
	</g>
	<g>
		<g>
			<g>
				<path class="st5" d="M318.5,233.7H216.2c-3.9,0-7-3.1-7-7c0-36.7,21.7-70.1,55.3-85c1.8-0.8,3.9-0.8,5.7,0
					c33.6,14.9,55.3,48.3,55.3,85C325.5,230.5,322.4,233.7,318.5,233.7z M223.6,219.7h87.7c-2.4-27.3-19-51.7-43.8-63.9
					C242.6,168,226,192.3,223.6,219.7z"/>
			</g>
		</g>
	</g>
	<g>
		<g>
			<g>
				<circle class="st5" cx="284.9" cy="199.8" r="7.7"/>
			</g>
		</g>
	</g>
	<g>
		<g>
			<g>
				<path class="st5" d="M185.9,263c-3.9,0-7-3.1-7-7c0-20,16.3-36.3,36.3-36.3c3.9,0,7,3.1,7,7s-3.1,7-7,7
					c-12.3,0-22.3,10-22.3,22.3C192.9,259.9,189.8,263,185.9,263z"/>
			</g>
		</g>
	</g>
	<g>
		<g>
			<g>
				<rect x="311.5" y="307.2" class="st0" width="14" height="31.6"/>
			</g>
		</g>
	</g>
	<g>
		<g>
			<g>
				<path class="st5" d="M414.8,288.2h-12.6c-3.9,0-7-3.1-7-7V233c0-3.9,3.1-7,7-7h12.6c17.6,0,32,14,32,31.1
					C446.8,274.2,432.5,288.2,414.8,288.2z M409.2,274.2h5.6c9.9,0,18-7.7,18-17.1c0-9.4-8.1-17.1-18-17.1h-5.6V274.2z"/>
			</g>
		</g>
	</g>
	<g>
		<g>
			<g>
				<path class="st5" d="M402.2,263h-24.1c-3.9,0-7-3.1-7-7s3.1-7,7-7h24.1c3.9,0,7,3.1,7,7S406.1,263,402.2,263z"/>
			</g>
		</g>
	</g>
</g>
</svg>
