<?xml version="1.0" encoding="utf-8"?>
<!-- Generator: Adobe Illustrator 21.1.0, SVG Export Plug-In . SVG Version: 6.00 Build 0)  -->
<svg version="1.1" id="Icon_Set" xmlns="http://www.w3.org/2000/svg" xmlns:xlink="http://www.w3.org/1999/xlink" x="0px" y="0px"
	 viewBox="0 0 512 512" style="enable-background:new 0 0 512 512;" xml:space="preserve">
<style type="text/css">
	.st0{fill:#FFFFFF;}
	.st1{fill:#5B7C31;}
	.st2{fill:#E56823;}
	.st3{fill:#FE8E46;}
	.st4{fill:#7DAC51;}
	.st5{fill:#463218;}
	.st6{fill:#FEFE71;}
	.st7{fill:#D6CD1E;}
	.st8{fill:none;stroke:#FFFFFF;stroke-width:14;stroke-miterlimit:10;}
	.st9{fill:none;stroke:#463218;stroke-width:14;stroke-linecap:round;stroke-linejoin:round;stroke-miterlimit:10;}
</style>
<g id="Cereal">
	<g>
		<g>
			<g>
				<polygon class="st3" points="323.4,124.3 386.7,124.3 359.1,161 295.9,161 				"/>
			</g>
		</g>
	</g>
	<g>
		<g>
			<g>
				<polygon class="st2" points="188.6,124.3 125.3,124.3 152.9,161 216.1,161 				"/>
			</g>
		</g>
	</g>
	<g>
		<g>
			<g>
				<rect x="152.9" y="161" class="st2" width="63.3" height="226.7"/>
			</g>
		</g>
	</g>
	<g>
		<g>
			<g>
				<rect x="216.1" y="161" class="st4" width="141.5" height="226.7"/>
			</g>
		</g>
	</g>
	<g>
		<g>
			<g>
				<path class="st3" d="M216.1,275.8c20.8,32.1,56.9,53.3,98,53.3c15.4,0,30.1-3,43.5-8.4V161H216.1V275.8z"/>
			</g>
		</g>
	</g>
	<g>
		<g>
			<g>
				<path class="st5" d="M216.1,394.7h-63.3c-3.9,0-7-3.1-7-7V161c0-3.9,3.1-7,7-7h63.3c3.9,0,7,3.1,7,7v226.7
					C223.1,391.6,220,394.7,216.1,394.7z M159.9,380.7h49.3V168h-49.3V380.7z"/>
			</g>
		</g>
	</g>
	<g>
		<g>
			<g>
				<rect x="152.9" y="278.6" class="st1" width="63.3" height="109.1"/>
			</g>
		</g>
	</g>
	<g>
		<g>
			<g>
				<path class="st5" d="M216.1,394.7h-63.3c-3.9,0-7-3.1-7-7V278.6c0-3.9,3.1-7,7-7h63.3c3.9,0,7,3.1,7,7v109.1
					C223.1,391.6,220,394.7,216.1,394.7z M159.9,380.7h49.3v-95.1h-49.3V380.7z"/>
			</g>
		</g>
	</g>
	<g>
		<g>
			<g>
				<path class="st5" d="M357.7,394.7H216.1c-3.9,0-7-3.1-7-7V161c0-3.9,3.1-7,7-7h141.5c3.9,0,7,3.1,7,7v226.7
					C364.7,391.6,361.5,394.7,357.7,394.7z M223.1,380.7h127.5V168H223.1V380.7z"/>
			</g>
		</g>
	</g>
	<g>
		<g>
			<g>
				<path class="st5" d="M216.1,168h-63.3c-2.2,0-4.3-1-5.6-2.8l-27.6-36.7c-1.6-2.1-1.8-5-0.7-7.3s3.6-3.9,6.3-3.9h63.3
					c2.2,0,4.3,1,5.6,2.8l27.6,36.7c1.6,2.1,1.8,5,0.7,7.3S218.8,168,216.1,168z M156.4,154h45.8l-17.1-22.7h-45.8L156.4,154z"/>
			</g>
		</g>
	</g>
	<g>
		<g>
			<g>
				<path class="st5" d="M359.1,168h-63.3c-2.7,0-5.1-1.5-6.3-3.9s-0.9-5.2,0.7-7.3l27.6-36.7c1.3-1.8,3.4-2.8,5.6-2.8h63.3
					c2.7,0,5.1,1.5,6.3,3.9s0.9,5.2-0.7,7.3l-27.6,36.7C363.4,167,361.3,168,359.1,168z M309.9,154h45.8l17.1-22.7h-45.8L309.9,154z
					"/>
			</g>
		</g>
	</g>
	<g>
		<g>
			<g>
				<path class="st5" d="M314.2,336.1c-42.1,0-80.9-21.1-103.9-56.4c-0.7-1.1-1.1-2.5-1.1-3.8V161c0-3.9,3.1-7,7-7h141.5
					c3.9,0,7,3.1,7,7v159.6c0,2.9-1.7,5.4-4.4,6.5C345.6,333.1,330.1,336.1,314.2,336.1z M223.1,273.7c20.5,30.3,54.4,48.4,91,48.4
					c12.5,0,24.8-2.1,36.5-6.2V168H223.1V273.7z"/>
			</g>
		</g>
	</g>
	<g>
		<g>
			<g>
				<path class="st6" d="M357.7,186.5c-6.5,0-13.3,0.3-20.3,1c-42,4.2-74.8,20.8-73.1,37c1.6,16.2,37,25.9,79,21.7
					c5-0.5,9.8-1.2,14.4-2V186.5z"/>
			</g>
		</g>
	</g>
	<g>
		<g>
			<g>
				<path class="st5" d="M323.9,254.1c-13.7,0-26.5-1.5-37.2-4.4c-17.9-4.9-28.4-13.6-29.5-24.6s7.4-21.5,24-29.9
					c14.6-7.4,34.2-12.6,55.4-14.7c7.1-0.7,14.1-1,21.1-1c3.9,0,7,3.1,7,7v57.7c0,3.4-2.4,6.3-5.8,6.9c-4.9,0.9-10,1.6-15,2.1
					C337.1,253.8,330.4,254.1,323.9,254.1z M350.7,193.6c-4.2,0.1-8.4,0.4-12.6,0.8c-42.2,4.2-67.8,20.2-66.9,29.3
					s29.2,19.7,71.4,15.4c2.7-0.3,5.4-0.6,8.1-1V193.6z"/>
			</g>
		</g>
	</g>
	<g>
		<g>
			<g>
				<path class="st7" d="M357.7,244.1c-4.7,0.8-9.5,1.5-14.4,2c-42,4.2-77.4-5.5-79-21.7c0,0,0.1,77.2,83.7,68.8
					c3.4-0.3,6.6-0.8,9.7-1.4V244.1z"/>
			</g>
		</g>
	</g>
	<g>
		<g>
			<g>
				<path class="st5" d="M335.6,300.8c-21.9,0-39.8-6.1-53.3-18.3c-24.8-22.4-25.1-56.6-25.1-58.1c0-3.7,2.9-6.8,6.6-7
					c3.8-0.2,6.9,2.6,7.3,6.3c0.9,9.1,29.2,19.7,71.4,15.4c4.6-0.5,9.3-1.1,13.9-1.9c2-0.4,4.1,0.2,5.7,1.5c1.6,1.3,2.5,3.3,2.5,5.4
					v47.7c0,3.4-2.4,6.3-5.8,6.9c-3.4,0.6-6.8,1.1-10.3,1.4C344.2,300.6,339.8,300.8,335.6,300.8z M275.1,245.5
					c2.9,8.8,7.9,18.8,16.7,26.7c13,11.7,31.7,16.4,55.5,14c1.2-0.1,2.3-0.2,3.4-0.4v-33.5c-2.2,0.3-4.5,0.6-6.7,0.8
					c-21.2,2.1-41.5,0.9-57.2-3.4C282.4,248.5,278.5,247.1,275.1,245.5z"/>
			</g>
		</g>
	</g>
	<g>
		<g>
			<g>
				<rect x="177.5" y="301.3" class="st0" width="14" height="39.7"/>
			</g>
		</g>
	</g>
	<g>
		<g>
			<g>
				<rect x="177.5" y="353.2" class="st0" width="14" height="13.1"/>
			</g>
		</g>
	</g>
</g>
</svg>
