<?xml version="1.0" encoding="utf-8"?>
<!-- Generator: Adobe Illustrator 21.1.0, SVG Export Plug-In . SVG Version: 6.00 Build 0)  -->
<svg version="1.1" id="Icon_Set" xmlns="http://www.w3.org/2000/svg" xmlns:xlink="http://www.w3.org/1999/xlink" x="0px" y="0px"
	 viewBox="0 0 512 512" style="enable-background:new 0 0 512 512;" xml:space="preserve">
<style type="text/css">
	.st0{fill:#FFFFFF;}
	.st1{fill:#5B7C31;}
	.st2{fill:#E56823;}
	.st3{fill:#FE8E46;}
	.st4{fill:#7DAC51;}
	.st5{fill:#463218;}
	.st6{fill:#FEFE71;}
	.st7{fill:#D6CD1E;}
	.st8{fill:none;stroke:#FFFFFF;stroke-width:14;stroke-miterlimit:10;}
	.st9{fill:none;stroke:#463218;stroke-width:14;stroke-linecap:round;stroke-linejoin:round;stroke-miterlimit:10;}
</style>
<g id="Cheese">
	<g>
		<g>
			<g>
				<path class="st7" d="M153.6,245.2l153.6-93.1c0,0,51.2,44.8,51.2,118.4L153.6,245.2z"/>
			</g>
		</g>
	</g>
	<g>
		<g>
			<g>
				<polygon class="st6" points="358.4,359.9 153.6,334.8 153.6,245.2 358.4,270.4 				"/>
			</g>
		</g>
	</g>
	<g>
		<g>
			<g>
				<path class="st5" d="M358.4,366.9c-0.3,0-0.6,0-0.9-0.1l-204.8-25.2c-3.5-0.4-6.1-3.4-6.1-6.9v-89.6c0-2,0.9-3.9,2.4-5.2
					c1.5-1.3,3.5-1.9,5.5-1.7l204.8,25.3c3.5,0.4,6.1,3.4,6.1,6.9v89.5c0,2-0.9,3.9-2.4,5.2C361.8,366.3,360.1,366.9,358.4,366.9z
					 M160.6,328.6L351.4,352v-75.4l-190.8-23.5V328.6z"/>
			</g>
		</g>
	</g>
	<g>
		<g>
			<g>
				<path class="st6" d="M256.4,217.2c19.5,0,35.3-15.8,35.3-35.3c0-6.4-1.7-12.4-4.7-17.6l-60.4,36.6
					C233,210.7,243.9,217.2,256.4,217.2z"/>
			</g>
		</g>
	</g>
	<g>
		<g>
			<g>
				<path class="st6" d="M277.2,260.4c0,0,6.6-26.7,33.3-23.8c25,2.7,25,31,25,31L277.2,260.4z"/>
			</g>
		</g>
	</g>
	<g>
		<g>
			<g>
				<path class="st5" d="M358.4,277.4c-0.3,0-0.6,0-0.9-0.1l-204.8-25.3c-3-0.4-5.4-2.6-6-5.5c-0.6-2.9,0.7-5.9,3.2-7.5l153.6-93.1
					c2.6-1.6,5.9-1.3,8.2,0.7c2.2,1.9,53.6,47.8,53.6,123.6c0,2-0.9,3.9-2.4,5.2C361.8,276.8,360.1,277.4,358.4,277.4z M174.5,240.7
					l176.7,21.8c-2.9-53.8-34.2-90.5-45-101.6L174.5,240.7z"/>
			</g>
		</g>
	</g>
	<g>
		<g>
			<g>
				<path class="st5" d="M256.4,224.2c-14.5,0-27.8-7.3-35.7-19.5c-1-1.6-1.4-3.5-0.9-5.4c0.4-1.8,1.6-3.4,3.2-4.4l60.4-36.6
					c1.6-1,3.6-1.3,5.4-0.8c1.8,0.5,3.4,1.7,4.3,3.3c3.7,6.4,5.6,13.7,5.6,21.1C298.8,205.2,279.8,224.2,256.4,224.2z M237.2,202.7
					c5.2,4.8,12,7.5,19.2,7.5c15.6,0,28.3-12.7,28.3-28.3c0-2.5-0.3-5-1-7.4L237.2,202.7z"/>
			</g>
		</g>
	</g>
	<g>
		<g>
			<g>
				<path class="st7" d="M204.8,311.5c-13.4,0-24.2,10.9-24.2,24.2c0,0.8,0,1.6,0.1,2.4l46.9,5.8c0.9-2.5,1.4-5.3,1.4-8.2
					C229.1,322.3,218.2,311.5,204.8,311.5z"/>
			</g>
		</g>
	</g>
	<g>
		<g>
			<g>
				<path class="st7" d="M277.2,260.4c-0.3,1.6-0.4,3.2-0.4,4.9c0,16.2,13.2,29.4,29.4,29.4c15.4,0,28.1-11.9,29.3-27.1L277.2,260.4
					z"/>
			</g>
		</g>
	</g>
	<g>
		<g>
			<g>
				<path class="st7" d="M188.8,249.5c0,0-4.5,33.4-35.3,33.4l0.1-37.7L188.8,249.5z"/>
			</g>
		</g>
	</g>
	<g>
		<g>
			<g>
				<path class="st5" d="M227.7,350.9c-0.3,0-0.6,0-0.9-0.1l-46.9-5.8c-3.3-0.4-5.8-3-6.1-6.3c-0.1-1-0.2-2.1-0.2-3.1
					c0-17.2,14-31.2,31.2-31.2c17.2,0,31.2,14,31.2,31.2c0,3.6-0.6,7.1-1.8,10.5C233.3,349,230.6,350.9,227.7,350.9z M188,331.9
					l34.1,4.2c0-0.1,0-0.3,0-0.4c0-9.5-7.7-17.2-17.2-17.2C196.6,318.5,189.8,324.2,188,331.9z"/>
			</g>
		</g>
	</g>
	<g>
		<g>
			<g>
				<path class="st5" d="M306.2,301.7c-20.1,0-36.4-16.3-36.4-36.4c0-2,0.2-4,0.5-6c0.6-3.7,4-6.3,7.8-5.8l58.2,7.2
					c3.7,0.5,6.4,3.8,6.1,7.5C341,287,325.1,301.7,306.2,301.7z M284,268.3c1.5,10.9,10.9,19.4,22.2,19.4c9.3,0,17.4-5.8,20.8-14.1
					L284,268.3z"/>
			</g>
		</g>
	</g>
	<g>
		<g>
			<g>
				<path class="st5" d="M335.5,274.6c-0.3,0-0.6,0-0.9-0.1l-58.2-7.2c-2-0.2-3.8-1.3-4.9-3c-1.1-1.6-1.5-3.7-1-5.6
					c2.8-11.3,14.9-31.9,40.8-29.1c24.7,2.7,31.2,26,31.2,38c0,2-0.9,3.9-2.4,5.2C338.8,274,337.2,274.6,335.5,274.6z M287.3,254.6
					l39.9,4.9c-0.4-1.3-0.8-2.7-1.4-4.1c-3.1-7.2-8.4-11.1-16-11.9C297.5,242.2,290.7,248.9,287.3,254.6z"/>
			</g>
		</g>
	</g>
	<g>
		<g>
			<g>
				<path class="st5" d="M153.6,289.9c-1.9,0-3.6-0.7-5-2.1c-1.3-1.3-2-3.1-2-5l0.1-37.7c0-2,0.9-3.9,2.4-5.2
					c1.5-1.3,3.5-1.9,5.5-1.7l35.2,4.3c1.9,0.2,3.5,1.2,4.7,2.7c1.1,1.5,1.6,3.4,1.4,5.2C194,264.1,182.8,289.9,153.6,289.9z
					 M160.6,253.1l-0.1,22c11.7-2.9,17.1-12.7,19.5-19.6L160.6,253.1z"/>
			</g>
		</g>
	</g>
	<g>
		<g>
			<g>
				<path class="st0" d="M317,218.4c-0.9-5.2-7.2-17.6-11-24.2l12.2-6.9c1.1,2,11,19.4,12.6,28.7L317,218.4z"/>
			</g>
		</g>
	</g>
</g>
</svg>
