<?xml version="1.0" encoding="utf-8"?>
<!-- Generator: Adobe Illustrator 21.1.0, SVG Export Plug-In . SVG Version: 6.00 Build 0)  -->
<svg version="1.1" id="Icon_Set" xmlns="http://www.w3.org/2000/svg" xmlns:xlink="http://www.w3.org/1999/xlink" x="0px" y="0px"
	 viewBox="0 0 512 512" style="enable-background:new 0 0 512 512;" xml:space="preserve">
<style type="text/css">
	.st0{fill:#FFFFFF;}
	.st1{fill:#5B7C31;}
	.st2{fill:#E56823;}
	.st3{fill:#FE8E46;}
	.st4{fill:#7DAC51;}
	.st5{fill:#463218;}
	.st6{fill:#FEFE71;}
	.st7{fill:#D6CD1E;}
	.st8{fill:none;stroke:#FFFFFF;stroke-width:14;stroke-miterlimit:10;}
	.st9{fill:none;stroke:#463218;stroke-width:14;stroke-linecap:round;stroke-linejoin:round;stroke-miterlimit:10;}
</style>
<g id="Chocolate">
	<g>
		<g>
			<g>
				<rect x="153.6" y="204.8" class="st3" width="102.4" height="102.4"/>
			</g>
		</g>
	</g>
	<g>
		<g>
			<g>
				<polygon class="st2" points="229.6,280.8 256,307.2 153.6,307.2 180,280.8 				"/>
			</g>
		</g>
	</g>
	<g>
		<g>
			<g>
				<rect x="180" y="231.2" class="st6" width="49.6" height="49.6"/>
			</g>
		</g>
	</g>
	<g>
		<g>
			<g>
				<polygon class="st7" points="229.6,280.8 180,280.8 180,231.2 				"/>
			</g>
		</g>
	</g>
	<g>
		<g>
			<g>
				<path class="st5" d="M256,314.2H153.6c-3.9,0-7-3.1-7-7V204.8c0-3.9,3.1-7,7-7H256c3.9,0,7,3.1,7,7v102.4
					C263,311.1,259.9,314.2,256,314.2z M160.6,300.2H249v-88.4h-88.4V300.2z"/>
			</g>
		</g>
	</g>
	<g>
		<g>
			<g>
				<path class="st5" d="M229.6,287.8H180c-3.9,0-7-3.1-7-7v-49.6c0-3.9,3.1-7,7-7h49.6c3.9,0,7,3.1,7,7v49.6
					C236.6,284.7,233.5,287.8,229.6,287.8z M187,273.8h35.6v-35.6H187V273.8z"/>
			</g>
		</g>
	</g>
	<g>
		<g>
			<g>
				<polygon class="st3" points="180,231.2 153.6,204.8 256,204.8 229.6,231.2 				"/>
			</g>
		</g>
	</g>
	<g>
		<g>
			<g>
				<path class="st5" d="M229.6,238.2H180c-1.9,0-3.6-0.7-4.9-2l-26.4-26.4c-2-2-2.6-5-1.5-7.6c1.1-2.6,3.6-4.3,6.5-4.3H256
					c2.8,0,5.4,1.7,6.5,4.3c1.1,2.6,0.5,5.6-1.5,7.6l-26.4,26.4C233.3,237.4,231.5,238.2,229.6,238.2z M182.9,224.2h43.8l12.4-12.4
					h-68.6L182.9,224.2z"/>
			</g>
		</g>
	</g>
	<g>
		<g>
			<g>
				<polygon class="st2" points="180,231.2 180,280.8 153.6,307.2 153.6,204.8 				"/>
			</g>
		</g>
	</g>
	<g>
		<g>
			<g>
				<path class="st5" d="M153.6,314.2c-0.9,0-1.8-0.2-2.7-0.5c-2.6-1.1-4.3-3.6-4.3-6.5V204.8c0-2.8,1.7-5.4,4.3-6.5
					c2.6-1.1,5.6-0.5,7.6,1.5l26.4,26.4c1.3,1.3,2.1,3.1,2.1,5v49.6c0,1.9-0.7,3.6-2.1,5l-26.4,26.4
					C157.2,313.5,155.4,314.2,153.6,314.2z M160.6,221.7v68.6l12.4-12.4v-43.8L160.6,221.7z"/>
			</g>
		</g>
	</g>
	<g>
		<g>
			<g>
				<path class="st5" d="M256,314.2H153.6c-2.8,0-5.4-1.7-6.5-4.3c-1.1-2.6-0.5-5.6,1.5-7.6l26.4-26.4c1.3-1.3,3.1-2,4.9-2h49.6
					c1.9,0,3.6,0.7,4.9,2l26.4,26.4c2,2,2.6,5,1.5,7.6C261.4,312.5,258.8,314.2,256,314.2z M170.5,300.2h68.6l-12.4-12.4h-43.8
					L170.5,300.2z"/>
			</g>
		</g>
	</g>
	<g>
		<g>
			<g>
				<rect x="256" y="204.8" class="st3" width="102.4" height="102.4"/>
			</g>
		</g>
	</g>
	<g>
		<g>
			<g>
				<polygon class="st2" points="332,280.8 358.4,307.2 256,307.2 282.4,280.8 				"/>
			</g>
		</g>
	</g>
	<g>
		<g>
			<g>
				<rect x="282.4" y="231.2" class="st6" width="49.6" height="49.6"/>
			</g>
		</g>
	</g>
	<g>
		<g>
			<g>
				<polygon class="st7" points="332,280.8 282.4,280.8 282.4,231.2 				"/>
			</g>
		</g>
	</g>
	<g>
		<g>
			<g>
				<path class="st5" d="M358.4,314.2H256c-3.9,0-7-3.1-7-7V204.8c0-3.9,3.1-7,7-7h102.4c3.9,0,7,3.1,7,7v102.4
					C365.4,311.1,362.3,314.2,358.4,314.2z M263,300.2h88.4v-88.4H263V300.2z"/>
			</g>
		</g>
	</g>
	<g>
		<g>
			<g>
				<path class="st5" d="M332,287.8h-49.6c-3.9,0-7-3.1-7-7v-49.6c0-3.9,3.1-7,7-7H332c3.9,0,7,3.1,7,7v49.6
					C339,284.7,335.9,287.8,332,287.8z M289.4,273.8H325v-35.6h-35.6V273.8z"/>
			</g>
		</g>
	</g>
	<g>
		<g>
			<g>
				<polygon class="st3" points="282.4,231.2 256,204.8 358.4,204.8 332,231.2 				"/>
			</g>
		</g>
	</g>
	<g>
		<g>
			<g>
				<path class="st5" d="M332,238.2h-49.6c-1.9,0-3.6-0.7-5-2l-26.4-26.4c-2-2-2.6-5-1.5-7.6c1.1-2.6,3.6-4.3,6.5-4.3h102.4
					c2.8,0,5.4,1.7,6.5,4.3c1.1,2.6,0.5,5.6-1.5,7.6L337,236.1C335.7,237.4,333.9,238.2,332,238.2z M285.3,224.2h43.8l12.4-12.4
					h-68.6L285.3,224.2z"/>
			</g>
		</g>
	</g>
	<g>
		<g>
			<g>
				<polygon class="st2" points="282.4,231.2 282.4,280.8 256,307.2 256,204.8 				"/>
			</g>
		</g>
	</g>
	<g>
		<g>
			<g>
				<path class="st5" d="M256,314.2c-0.9,0-1.8-0.2-2.7-0.5c-2.6-1.1-4.3-3.6-4.3-6.5V204.8c0-2.8,1.7-5.4,4.3-6.5
					c2.6-1.1,5.6-0.5,7.6,1.5l26.4,26.4c1.3,1.3,2,3.1,2,5v49.6c0,1.9-0.7,3.6-2,5L261,312.2C259.6,313.5,257.8,314.2,256,314.2z
					 M263,221.7v68.6l12.4-12.4v-43.8L263,221.7z"/>
			</g>
		</g>
	</g>
	<g>
		<g>
			<g>
				<path class="st5" d="M358.4,314.2H256c-2.8,0-5.4-1.7-6.5-4.3c-1.1-2.6-0.5-5.6,1.5-7.6l26.4-26.4c1.3-1.3,3.1-2,5-2H332
					c1.9,0,3.6,0.7,5,2l26.4,26.4c2,2,2.6,5,1.5,7.6C363.8,312.5,361.2,314.2,358.4,314.2z M272.9,300.2h68.6l-12.4-12.4h-43.8
					L272.9,300.2z"/>
			</g>
		</g>
	</g>
	<g>
		<g>
			<g>
				<rect x="153.6" y="102.4" class="st3" width="102.4" height="102.4"/>
			</g>
		</g>
	</g>
	<g>
		<g>
			<g>
				<polygon class="st2" points="229.6,178.4 256,204.8 153.6,204.8 180,178.4 				"/>
			</g>
		</g>
	</g>
	<g>
		<g>
			<g>
				<rect x="180" y="128.8" class="st6" width="49.6" height="49.6"/>
			</g>
		</g>
	</g>
	<g>
		<g>
			<g>
				<polygon class="st7" points="229.6,178.4 180,178.4 180,128.8 				"/>
			</g>
		</g>
	</g>
	<g>
		<g>
			<g>
				<rect x="153.6" y="280.7" class="st6" width="204.8" height="128.9"/>
			</g>
		</g>
	</g>
	<g>
		<g>
			<g>
				<polygon class="st7" points="180,383.1 180,280.7 153.6,280.7 153.6,409.6 358.4,409.6 358.4,383.1 				"/>
			</g>
		</g>
	</g>
	<g>
		<g>
			<g>
				<polygon class="st7" points="204.8,356.6 219.5,377.9 358.4,307.2 358.4,280.7 				"/>
			</g>
		</g>
	</g>
	<g>
		<g>
			<g>
				<path class="st5" d="M358.4,416.6H153.6c-3.9,0-7-3.1-7-7V102.4c0-3.9,3.1-7,7-7h204.8c3.9,0,7,3.1,7,7v307.2
					C365.4,413.5,362.3,416.6,358.4,416.6z M160.6,402.6h190.8V109.4H160.6V402.6z"/>
			</g>
		</g>
	</g>
	<g>
		<g>
			<g>
				<path class="st5" d="M256,211.8H153.6c-3.9,0-7-3.1-7-7V102.4c0-3.9,3.1-7,7-7H256c3.9,0,7,3.1,7,7v102.4
					C263,208.7,259.9,211.8,256,211.8z M160.6,197.8H249v-88.4h-88.4V197.8z"/>
			</g>
		</g>
	</g>
	<g>
		<g>
			<g>
				<path class="st5" d="M229.6,185.4H180c-3.9,0-7-3.1-7-7v-49.6c0-3.9,3.1-7,7-7h49.6c3.9,0,7,3.1,7,7v49.6
					C236.6,182.3,233.5,185.4,229.6,185.4z M187,171.4h35.6v-35.6H187V171.4z"/>
			</g>
		</g>
	</g>
	<g>
		<g>
			<g>
				<polygon class="st3" points="180,128.8 153.6,102.4 256,102.4 229.6,128.8 				"/>
			</g>
		</g>
	</g>
	<g>
		<g>
			<g>
				<path class="st5" d="M229.6,135.8H180c-1.9,0-3.6-0.7-4.9-2l-26.4-26.4c-2-2-2.6-5-1.5-7.6c1.1-2.6,3.6-4.3,6.5-4.3H256
					c2.8,0,5.4,1.7,6.5,4.3c1.1,2.6,0.5,5.6-1.5,7.6l-26.4,26.4C233.3,135,231.5,135.8,229.6,135.8z M182.9,121.8h43.8l12.4-12.4
					h-68.6L182.9,121.8z"/>
			</g>
		</g>
	</g>
	<g>
		<g>
			<g>
				<polygon class="st2" points="180,128.8 180,178.4 153.6,204.8 153.6,102.4 				"/>
			</g>
		</g>
	</g>
	<g>
		<g>
			<g>
				<path class="st5" d="M153.6,211.8c-0.9,0-1.8-0.2-2.7-0.5c-2.6-1.1-4.3-3.6-4.3-6.5V102.4c0-2.8,1.7-5.4,4.3-6.5
					c2.6-1.1,5.6-0.5,7.6,1.5l26.4,26.4c1.3,1.3,2.1,3.1,2.1,5v49.6c0,1.9-0.7,3.6-2.1,5l-26.4,26.4
					C157.2,211.1,155.4,211.8,153.6,211.8z M160.6,119.3v68.6l12.4-12.4v-43.8L160.6,119.3z"/>
			</g>
		</g>
	</g>
	<g>
		<g>
			<g>
				<path class="st5" d="M256,211.8H153.6c-2.8,0-5.4-1.7-6.5-4.3c-1.1-2.6-0.5-5.6,1.5-7.6l26.4-26.4c1.3-1.3,3.1-2,4.9-2h49.6
					c1.9,0,3.6,0.7,4.9,2l26.4,26.4c2,2,2.6,5,1.5,7.6C261.4,210.1,258.8,211.8,256,211.8z M170.5,197.8h68.6l-12.4-12.4h-43.8
					L170.5,197.8z"/>
			</g>
		</g>
	</g>
	<g>
		<g>
			<g>
				<rect x="256" y="102.4" class="st3" width="102.4" height="102.4"/>
			</g>
		</g>
	</g>
	<g>
		<g>
			<g>
				<polygon class="st2" points="332,178.4 358.4,204.8 256,204.8 282.4,178.4 				"/>
			</g>
		</g>
	</g>
	<g>
		<g>
			<g>
				<rect x="282.4" y="128.8" class="st6" width="49.6" height="49.6"/>
			</g>
		</g>
	</g>
	<g>
		<g>
			<g>
				<polygon class="st7" points="332,178.4 282.4,178.4 282.4,128.8 				"/>
			</g>
		</g>
	</g>
	<g>
		<g>
			<g>
				<path class="st5" d="M358.4,211.8H256c-3.9,0-7-3.1-7-7V102.4c0-3.9,3.1-7,7-7h102.4c3.9,0,7,3.1,7,7v102.4
					C365.4,208.7,362.3,211.8,358.4,211.8z M263,197.8h88.4v-88.4H263V197.8z"/>
			</g>
		</g>
	</g>
	<g>
		<g>
			<g>
				<path class="st5" d="M332,185.4h-49.6c-3.9,0-7-3.1-7-7v-49.6c0-3.9,3.1-7,7-7H332c3.9,0,7,3.1,7,7v49.6
					C339,182.3,335.9,185.4,332,185.4z M289.4,171.4H325v-35.6h-35.6V171.4z"/>
			</g>
		</g>
	</g>
	<g>
		<g>
			<g>
				<polygon class="st3" points="282.4,128.8 256,102.4 358.4,102.4 332,128.8 				"/>
			</g>
		</g>
	</g>
	<g>
		<g>
			<g>
				<path class="st5" d="M332,135.8h-49.6c-1.9,0-3.6-0.7-5-2l-26.4-26.4c-2-2-2.6-5-1.5-7.6c1.1-2.6,3.6-4.3,6.5-4.3h102.4
					c2.8,0,5.4,1.7,6.5,4.3c1.1,2.6,0.5,5.6-1.5,7.6L337,133.7C335.7,135,333.9,135.8,332,135.8z M285.3,121.8h43.8l12.4-12.4h-68.6
					L285.3,121.8z"/>
			</g>
		</g>
	</g>
	<g>
		<g>
			<g>
				<polygon class="st2" points="282.4,128.8 282.4,178.4 256,204.8 256,102.4 				"/>
			</g>
		</g>
	</g>
	<g>
		<g>
			<g>
				<path class="st5" d="M256,211.8c-0.9,0-1.8-0.2-2.7-0.5c-2.6-1.1-4.3-3.6-4.3-6.5V102.4c0-2.8,1.7-5.4,4.3-6.5
					c2.6-1.1,5.6-0.5,7.6,1.5l26.4,26.4c1.3,1.3,2,3.1,2,5v49.6c0,1.9-0.7,3.6-2,5L261,209.8C259.6,211.1,257.8,211.8,256,211.8z
					 M263,119.3v68.6l12.4-12.4v-43.8L263,119.3z"/>
			</g>
		</g>
	</g>
	<g>
		<g>
			<g>
				<path class="st5" d="M358.4,211.8H256c-2.8,0-5.4-1.7-6.5-4.3c-1.1-2.6-0.5-5.6,1.5-7.6l26.4-26.4c1.3-1.3,3.1-2,5-2H332
					c1.9,0,3.6,0.7,5,2l26.4,26.4c2,2,2.6,5,1.5,7.6C363.8,210.1,361.2,211.8,358.4,211.8z M272.9,197.8h68.6l-12.4-12.4h-43.8
					L272.9,197.8z"/>
			</g>
		</g>
	</g>
	<g>
		<g>
			<g>
				<polygon class="st4" points="153.6,280.7 358.4,280.7 204.8,356.6 				"/>
			</g>
		</g>
	</g>
	<g>
		<g>
			<g>
				<path class="st5" d="M204.8,363.6c-2.3,0-4.5-1.1-5.8-3.1l-51.2-75.9c-1.4-2.1-1.6-4.9-0.4-7.2c1.2-2.3,3.6-3.7,6.2-3.7h204.8
					c3.3,0,6.1,2.2,6.8,5.4c0.7,3.2-0.8,6.4-3.7,7.9l-153.6,75.9C206.9,363.3,205.8,363.6,204.8,363.6z M166.8,287.7l40.4,59.9
					l121.2-59.9H166.8z"/>
			</g>
		</g>
	</g>
	<g>
		<g>
			<g>
				
					<rect x="207.1" y="311.3" transform="matrix(0.9026 -0.4304 0.4304 0.9026 -114.3106 131.1848)" class="st0" width="51.4" height="14"/>
			</g>
		</g>
	</g>
</g>
</svg>
