<?xml version="1.0" encoding="utf-8"?>
<!-- Generator: Adobe Illustrator 21.1.0, SVG Export Plug-In . SVG Version: 6.00 Build 0)  -->
<svg version="1.1" id="Icon_Set" xmlns="http://www.w3.org/2000/svg" xmlns:xlink="http://www.w3.org/1999/xlink" x="0px" y="0px"
	 viewBox="0 0 512 512" style="enable-background:new 0 0 512 512;" xml:space="preserve">
<style type="text/css">
	.st0{fill:#FFFFFF;}
	.st1{fill:#5B7C31;}
	.st2{fill:#E56823;}
	.st3{fill:#FE8E46;}
	.st4{fill:#7DAC51;}
	.st5{fill:#463218;}
	.st6{fill:#FEFE71;}
	.st7{fill:#D6CD1E;}
	.st8{fill:none;stroke:#FFFFFF;stroke-width:14;stroke-miterlimit:10;}
	.st9{fill:none;stroke:#463218;stroke-width:14;stroke-linecap:round;stroke-linejoin:round;stroke-miterlimit:10;}
</style>
<g id="Churros">
	<g>
		<g>
			<g>
				<path class="st4" d="M397.3,343H114.7c-26.1,0-47.3-21.2-47.3-47.3v0h377.3v0C444.7,321.8,423.5,343,397.3,343z"/>
			</g>
		</g>
	</g>
	<g>
		<g>
			<g>
				<path class="st1" d="M184.7,295.7L184.7,295.7H67.3l0,0c0,26.1,21.2,47.3,47.3,47.3H232C205.9,343,184.7,321.8,184.7,295.7z"/>
			</g>
		</g>
	</g>
	<g>
		<g>
			<g>
				<path class="st5" d="M397.3,350H114.7c-29.9,0-54.3-24.4-54.3-54.3c0-3.9,3.1-7,7-7h377.3c3.9,0,7,3.1,7,7
					C451.7,325.6,427.3,350,397.3,350z M75,302.7c3.3,18.9,19.9,33.3,39.7,33.3h282.7c19.8,0,36.4-14.4,39.7-33.3H75z"/>
			</g>
		</g>
	</g>
	<g>
		<g>
			<g>
				<g>
					<path class="st3" d="M359.9,232.4H152.1l0,0c-2.4-0.3-4.9,0.2-7.4,1.5h0c-3.8,2-8.3,2-12.1,0h0c-9.5-5-20.7,3.1-18.9,13.7l0,0
						c0.7,4.2-0.7,8.5-3.7,11.5c-7.7,7.5-3.5,20.6,7.2,22.2c4.2,0.6,7.9,3.3,9.8,7.1c2.4,4.8,7,7.3,11.7,7.3h234.7L359.9,232.4z"/>
				</g>
			</g>
		</g>
		<g>
			<g>
				<g>
					<path class="st2" d="M367.1,266.5l-22.5-7.4H110h0c-7.7,7.5-3.5,20.6,7.2,22.2c4.2,0.6,7.9,3.3,9.8,7.1c2.4,4.8,7,7.3,11.7,7.3
						h234.7L367.1,266.5z"/>
				</g>
			</g>
		</g>
		<g>
			<g>
				<g>
					<path class="st5" d="M373.3,302.7H138.7c-7.7,0-14.5-4.3-17.9-11.2c-0.9-1.8-2.6-3-4.5-3.3c-7.6-1.1-13.8-6.3-16.2-13.6
						s-0.4-15.2,5.1-20.5c1.4-1.4,2.1-3.4,1.7-5.3c-1.3-7.6,1.8-15.1,8-19.6c6.2-4.5,14.3-5.1,21.1-1.5c1.8,0.9,3.8,0.9,5.6,0
						c3.4-1.8,7.2-2.6,11-2.3h207.5c3.3,0,6.2,2.3,6.8,5.5l13.4,63.2c0.4,2.1-0.1,4.2-1.4,5.9S375.4,302.7,373.3,302.7z
						 M126.6,239.3c-1.7,0-2.9,0.7-3.5,1.2c-0.9,0.7-3,2.6-2.4,5.9c1.1,6.5-1,13.1-5.8,17.7c-2.4,2.4-1.9,5.1-1.5,6.2
						s1.5,3.6,4.9,4.1c6.5,0.9,12.2,5,15.1,10.9c1.5,3,4.3,3.4,5.4,3.4h226l-10.5-49.2H152.1c-0.2,0-0.5,0-0.7,0
						c-1.2-0.1-2.3,0.1-3.4,0.7c-5.8,3.1-12.8,3.1-18.6,0C128.4,239.5,127.4,239.3,126.6,239.3z"/>
				</g>
			</g>
		</g>
		<g>
			<g>
				<g>
					<path class="st5" d="M373.3,302.7H138.7c-7.7,0-14.5-4.3-17.9-11.2c-0.9-1.8-2.6-3-4.5-3.3c-7.6-1.1-13.8-6.3-16.2-13.6
						s-0.4-15.2,5.1-20.5c1.3-1.3,3.1-2,4.9-2h234.7c0.7,0,1.5,0.1,2.2,0.4l22.5,7.4c2.4,0.8,4.1,2.8,4.7,5.2l6.2,29.1
						c0.4,2.1-0.1,4.2-1.4,5.9S375.4,302.7,373.3,302.7z M113.5,266.1c-0.7,1.7-0.4,3.4-0.1,4.2c0.3,1.1,1.5,3.6,4.9,4.1
						c6.5,0.9,12.2,5,15.1,10.9c1.5,3,4.3,3.4,5.4,3.4h226l-3.6-16.8l-17.6-5.8H113.5z"/>
				</g>
			</g>
		</g>
		<g>
			<g>
				<g>
					<path class="st6" d="M379.4,233.9L379.4,233.9c9.5-5,20.7,3.1,18.9,13.7v0c-0.7,4.2,0.7,8.5,3.7,11.5l0,0
						c7.7,7.5,3.5,20.6-7.2,22.2h0c-4.2,0.6-7.9,3.3-9.8,7.1v0c-4.8,9.7-18.6,9.7-23.3,0l0,0c-1.9-3.8-5.6-6.5-9.8-7.1h0
						c-10.7-1.6-14.9-14.7-7.2-22.2l0,0c3.1-3,4.5-7.3,3.7-11.5v0c-1.8-10.6,9.3-18.7,18.9-13.7l0,0
						C371.1,235.9,375.6,235.9,379.4,233.9z"/>
				</g>
			</g>
		</g>
		<g>
			<g>
				<g>
					<path class="st5" d="M373.3,302.7c-7.7,0-14.5-4.3-17.9-11.2c-0.9-1.8-2.6-3-4.5-3.3c-7.6-1.1-13.8-6.3-16.2-13.6
						s-0.4-15.2,5.1-20.5c1.4-1.4,2.1-3.4,1.7-5.3c-1.3-7.6,1.8-15.1,8-19.6c6.2-4.5,14.3-5.1,21.1-1.5c1.8,0.9,3.8,0.9,5.6,0l0,0
						c6.8-3.6,14.9-3,21.1,1.5c6.2,4.5,9.3,12,8,19.6c-0.3,2,0.3,3.9,1.7,5.3c5.5,5.4,7.4,13.2,5.1,20.5s-8.6,12.5-16.2,13.6
						c-2,0.3-3.7,1.5-4.5,3.3C387.9,298.4,381,302.7,373.3,302.7z M361.2,239.3c-1.7,0-2.9,0.7-3.5,1.2c-0.9,0.7-3,2.6-2.4,5.9
						c1.1,6.5-1,13.1-5.8,17.7c-2.4,2.4-1.9,5.1-1.5,6.2c0.3,1.1,1.5,3.6,4.9,4.1c6.5,0.9,12.2,5,15.1,10.9c1.5,3,4.3,3.4,5.4,3.4
						c1.1,0,3.9-0.3,5.4-3.4c2.9-5.9,8.5-10,15.1-10.9c3.3-0.5,4.5-3,4.9-4.1c0.3-1.1,0.9-3.8-1.5-6.2c-4.7-4.6-6.9-11.2-5.8-17.7
						c0.6-3.3-1.5-5.2-2.4-5.9c-0.9-0.7-3.3-2-6.3-0.5l0,0c-5.8,3.1-12.8,3.1-18.6,0C363,239.5,362.1,239.3,361.2,239.3z
						 M379.4,233.9L379.4,233.9L379.4,233.9z"/>
				</g>
			</g>
		</g>
		<g>
			<g>
				<g>
					<circle class="st7" cx="373.3" cy="264" r="9.6"/>
				</g>
			</g>
		</g>
	</g>
	<g>
		<g>
			<g>
				<g>
					<path class="st3" d="M314.8,169.1H197.2l0,0c-2.4-0.3-4.9,0.2-7.4,1.5h0c-3.8,2-8.3,2-12.1,0h0c-9.5-5-20.7,3.1-18.9,13.7l0,0
						c0.7,4.2-0.7,8.5-3.7,11.5c-7.7,7.5-3.5,20.6,7.2,22.2c4.2,0.6,7.9,3.3,9.8,7.1c2.4,4.8,7,7.3,11.7,7.3h144.4L314.8,169.1z"/>
				</g>
			</g>
		</g>
		<g>
			<g>
				<g>
					<path class="st2" d="M322,203.2l-22.5-7.4H155.1h0c-7.7,7.5-3.5,20.6,7.2,22.2c4.2,0.6,7.9,3.3,9.8,7.1c2.4,4.8,7,7.3,11.7,7.3
						h144.4L322,203.2z"/>
				</g>
			</g>
		</g>
		<g>
			<g>
				<g>
					<path class="st5" d="M328.2,239.3H183.8c-7.7,0-14.5-4.3-17.9-11.2c-0.9-1.8-2.6-3-4.5-3.3c-7.6-1.1-13.8-6.3-16.2-13.6
						s-0.4-15.2,5.1-20.5c1.4-1.4,2.1-3.4,1.7-5.3c-1.3-7.6,1.8-15.1,8-19.6c6.2-4.5,14.3-5.1,21.1-1.5c1.8,0.9,3.8,0.9,5.6,0
						c3.4-1.8,7.2-2.6,11-2.3h117.2c3.3,0,6.2,2.3,6.8,5.5l13.4,63.2c0.4,2.1-0.1,4.2-1.4,5.9S330.3,239.3,328.2,239.3z M171.7,176
						c-1.7,0-2.9,0.7-3.5,1.2c-0.9,0.7-3,2.6-2.4,5.9c1.1,6.5-1,13.1-5.8,17.7c-2.4,2.4-1.9,5.1-1.5,6.2s1.5,3.6,4.9,4.1
						c6.5,0.9,12.2,5,15.1,10.9c1.5,3,4.3,3.4,5.4,3.4h135.8l-10.5-49.2H197.2c-0.2,0-0.5,0-0.7,0c-1.2-0.1-2.3,0.1-3.4,0.7
						c-5.8,3.1-12.8,3.1-18.6,0C173.5,176.2,172.5,176,171.7,176z"/>
				</g>
			</g>
		</g>
		<g>
			<g>
				<g>
					<path class="st5" d="M328.2,239.3H183.8c-7.7,0-14.5-4.3-17.9-11.2c-0.9-1.8-2.6-3-4.5-3.3c-7.6-1.1-13.8-6.3-16.2-13.6
						s-0.4-15.2,5.1-20.5c1.3-1.3,3.1-2,4.9-2h144.4c0.7,0,1.5,0.1,2.2,0.4l22.5,7.4c2.4,0.8,4.1,2.8,4.7,5.2l6.2,29.1
						c0.4,2.1-0.1,4.2-1.4,5.9S330.3,239.3,328.2,239.3z M158.6,202.8c-0.7,1.7-0.4,3.4-0.1,4.2c0.3,1.1,1.5,3.6,4.9,4.1
						c6.5,0.9,12.2,5,15.1,10.9c1.5,3,4.3,3.4,5.4,3.4h135.8l-3.6-16.8l-17.6-5.8H158.6z"/>
				</g>
			</g>
		</g>
		<g>
			<g>
				<g>
					<path class="st6" d="M334.3,170.5L334.3,170.5c9.5-5,20.7,3.1,18.9,13.7v0c-0.7,4.2,0.7,8.5,3.7,11.5l0,0
						c7.7,7.5,3.5,20.6-7.2,22.2l0,0c-4.2,0.6-7.9,3.3-9.8,7.1l0,0c-4.8,9.7-18.6,9.7-23.3,0v0c-1.9-3.8-5.6-6.5-9.8-7.1l0,0
						c-10.7-1.6-14.9-14.7-7.2-22.2v0c3.1-3,4.5-7.3,3.7-11.5v0c-1.8-10.6,9.3-18.7,18.9-13.7l0,0
						C325.9,172.5,330.5,172.5,334.3,170.5z"/>
				</g>
			</g>
		</g>
		<g>
			<g>
				<g>
					<path class="st5" d="M328.2,239.3c-7.7,0-14.5-4.3-17.9-11.2c-0.9-1.8-2.6-3-4.5-3.3c-7.6-1.1-13.8-6.3-16.2-13.6
						s-0.4-15.2,5.1-20.5c1.4-1.4,2.1-3.4,1.7-5.3c-1.3-7.6,1.8-15.1,8-19.6c6.2-4.5,14.3-5.1,21.1-1.5c1.8,0.9,3.8,0.9,5.6,0l0,0
						c6.8-3.6,14.9-3,21.1,1.5c6.2,4.5,9.3,12,8,19.6c-0.3,1.9,0.3,3.9,1.7,5.3c5.5,5.4,7.4,13.2,5.1,20.5s-8.6,12.5-16.2,13.6
						c-2,0.3-3.7,1.5-4.5,3.3C342.8,235.1,335.9,239.3,328.2,239.3z M316.1,176c-1.7,0-2.9,0.7-3.5,1.2c-0.9,0.7-3,2.6-2.4,5.9
						c1.1,6.5-1,13.1-5.8,17.7c-2.4,2.4-1.9,5.1-1.5,6.2s1.5,3.6,4.9,4.1c6.5,0.9,12.2,5,15.1,10.9c1.5,3,4.3,3.4,5.4,3.4
						c1.1,0,3.9-0.3,5.4-3.4c2.9-5.9,8.5-10,15.1-10.9c3.3-0.5,4.5-3,4.9-4.1s0.9-3.8-1.5-6.2c-4.7-4.6-6.9-11.2-5.8-17.7
						c0.6-3.3-1.5-5.2-2.4-5.9c-0.9-0.7-3.3-2-6.3-0.5l0,0c-5.8,3.1-12.8,3.1-18.6,0C317.9,176.2,316.9,176,316.1,176z M334.3,170.5
						L334.3,170.5L334.3,170.5z"/>
				</g>
			</g>
		</g>
		<g>
			<g>
				<g>
					<circle class="st7" cx="328.2" cy="198.4" r="9.6"/>
				</g>
			</g>
		</g>
	</g>
	<g>
		<g>
			<g>
				<rect x="283.4" y="270.4" class="st0" width="27.9" height="14"/>
			</g>
		</g>
	</g>
</g>
</svg>
