<?xml version="1.0" encoding="utf-8"?>
<!-- Generator: Adobe Illustrator 16.0.0, SVG Export Plug-In . SVG Version: 6.00 Build 0)  -->
<!DOCTYPE svg PUBLIC "-//W3C//DTD SVG 1.1//EN" "http://www.w3.org/Graphics/SVG/1.1/DTD/svg11.dtd">
<svg version="1.1" id="Слой_1" xmlns="http://www.w3.org/2000/svg" xmlns:xlink="http://www.w3.org/1999/xlink" x="0px" y="0px"
	 width="512px" height="512px" viewBox="0 0 512 512" enable-background="new 0 0 512 512" xml:space="preserve">
<g id="_x31_5_church_x2C__religion_x2C__god_x2C__cross_x2C__chapel_x2C__building_x2C__architecture_1_">
	<g>
		<g>
			<polygon fill="#ED5564" points="256,44.031 156.015,204.008 355.984,204.008 			"/>
		</g>
	</g>
	<g opacity="0.3">
		<g>
			<polygon fill="#FFFFFF" points="256,44.031 156.015,204.008 172.012,204.008 263.998,56.83 			"/>
		</g>
	</g>
	<g opacity="0.3">
		<g>
			<polygon points="263.99,56.818 355.984,204.008 339.988,204.008 256,69.633 			"/>
		</g>
	</g>
	<g>
		<g>
			<polygon fill="#E6E9ED" points="172.012,241.252 36.032,315.991 36.032,475.968 172.012,475.968 			"/>
		</g>
	</g>
	<g>
		<g>
			<polygon fill="#E6E9ED" points="339.988,241.252 475.967,315.991 475.967,475.968 339.988,475.968 			"/>
		</g>
	</g>
	<g>
		<g>
			<rect x="172.012" y="204.008" fill="#E6E9ED" width="167.977" height="287.958"/>
		</g>
	</g>
	<g>
		<g>
			<path fill="#5D9CEC" d="M256.141,371.983c-19.88,0-35.994,16.114-35.994,35.994h71.988
				C292.135,388.098,276.02,371.983,256.141,371.983z"/>
		</g>
	</g>
	<g>
		<g>
			<path fill="#5D9CEC" d="M104.022,331.988c-15.458,0-27.996,12.538-27.996,27.996v67.99h55.992v-67.99
				C132.018,344.526,119.481,331.988,104.022,331.988z"/>
		</g>
	</g>
	<g>
		<g>
			<path fill="#5D9CEC" d="M407.979,331.988c-15.459,0-27.996,12.538-27.996,27.996v67.99h55.99v-67.99
				C435.973,344.526,423.436,331.988,407.979,331.988z"/>
		</g>
	</g>
	<g>
		<g>
			<path fill="#5D9CEC" d="M256,244.002c-15.459,0-27.996,12.537-27.996,27.996v67.99h55.992v-67.99
				C283.996,256.539,271.459,244.002,256,244.002z"/>
		</g>
	</g>
	<g>
		<g>
			<rect x="28.033" y="475.968" fill="#CCD1D9" width="143.979" height="15.998"/>
		</g>
	</g>
	<g>
		<g>
			<rect x="339.988" y="475.968" fill="#CCD1D9" width="143.979" height="15.998"/>
		</g>
	</g>
	<g>
		<g>
			<polygon fill="#656D78" points="299.994,491.966 212.006,491.966 196.009,507.963 315.99,507.963 			"/>
		</g>
	</g>
	<g>
		<g>
			<rect x="220.225" y="403.979" fill="#ED5564" width="71.551" height="87.987"/>
		</g>
	</g>
	<g>
		<g>
			<polygon fill="#ED5564" points="339.988,241.252 507.963,331.988 507.963,315.991 339.988,225.254 			"/>
		</g>
	</g>
	<g>
		<g>
			<polygon fill="#ED5564" points="172.012,241.252 4.037,331.988 4.037,315.991 172.012,225.254 			"/>
		</g>
	</g>
	<g opacity="0.3">
		<g>
			<g>
				<polygon fill="#FFFFFF" points="12.036,311.672 4.037,315.991 4.037,331.988 12.036,327.669 				"/>
			</g>
		</g>
	</g>
	<g opacity="0.2">
		<g>
			<g>
				<polygon points="499.965,311.672 507.963,315.991 507.963,331.988 499.965,327.669 				"/>
			</g>
		</g>
	</g>
	<g opacity="0.2">
		<g>
			<rect x="164.013" y="475.968" width="7.999" height="15.998"/>
		</g>
	</g>
	<g opacity="0.2">
		<g>
			<polygon points="164.013,475.968 172.012,475.968 172.012,241.252 164.013,245.649 			"/>
		</g>
	</g>
	<g opacity="0.2">
		<g>
			<polygon points="164.013,245.571 172.012,241.252 172.012,225.254 164.013,229.574 			"/>
		</g>
	</g>
	<g opacity="0.2">
		<g>
			<rect x="339.988" y="475.968" width="7.998" height="15.998"/>
		</g>
	</g>
	<g opacity="0.2">
		<g>
			<polygon points="347.986,475.968 339.988,475.968 339.988,241.252 347.986,245.649 			"/>
		</g>
	</g>
	<g opacity="0.2">
		<g>
			<polygon points="347.986,245.571 339.988,241.252 339.988,225.254 347.986,229.574 			"/>
		</g>
	</g>
	<g opacity="0.3">
		<g>
			<path fill="#FFFFFF" d="M82.877,427.975h16.56l23.684-88.361c-3.976-3.727-9.014-6.266-14.638-7.172L82.877,427.975z"/>
		</g>
	</g>
	<g opacity="0.3">
		<g>
			<path fill="#FFFFFF" d="M386.832,427.975h16.561l23.684-88.361c-3.977-3.727-9.014-6.266-14.639-7.172L386.832,427.975z"/>
		</g>
	</g>
	<g opacity="0.3">
		<g>
			<path fill="#FFFFFF" d="M234.855,339.988h16.559l23.686-88.362c-3.977-3.727-9.016-6.266-14.639-7.171L234.855,339.988z"/>
		</g>
	</g>
	<g opacity="0.3">
		<g>
			<path fill="#FFFFFF" d="M260.563,407.978l8.936-33.37c-4.133-1.656-8.623-2.624-13.357-2.624c-0.875,0-1.703,0.194-2.563,0.257
				l-9.584,35.737H260.563z"/>
		</g>
	</g>
	<g opacity="0.4">
		<g>
			<rect x="220.225" y="403.979" fill="#FFFFFF" width="7.904" height="87.987"/>
		</g>
	</g>
	<g opacity="0.2">
		<g>
			<rect x="284.23" y="403.979" width="7.904" height="87.987"/>
		</g>
	</g>
	<g opacity="0.7">
		<g>
			<rect x="28.033" y="475.968" fill="#FFFFFF" width="7.999" height="15.998"/>
		</g>
	</g>
	<g opacity="0.7">
		<g>
			<polygon fill="#FFFFFF" points="44.031,475.968 36.032,475.968 36.032,314.718 44.031,310.383 			"/>
		</g>
	</g>
	<g opacity="0.2">
		<g>
			<rect x="475.967" y="475.968" width="8" height="15.998"/>
		</g>
	</g>
	<g opacity="0.2">
		<g>
			<polygon points="467.969,475.968 475.967,475.968 475.967,314.718 467.969,310.383 			"/>
		</g>
	</g>
	<g opacity="0.7">
		<g>
			<rect x="172.012" y="204.008" fill="#FFFFFF" width="8.5" height="287.958"/>
		</g>
	</g>
	<g opacity="0.2">
		<g>
			<rect x="331.488" y="204.008" width="8.5" height="287.958"/>
		</g>
	</g>
	<g id="_x31_5_church_x2C__religion_x2C__god_x2C__cross_x2C__chapel_x2C__building_x2C__architecture">
		<g>
			<g>
				<path fill="#3A3847" d="M507.963,335.988c-0.648,0-1.297-0.156-1.898-0.484L338.09,244.771
					c-1.945-1.051-2.672-3.477-1.617-5.421c1.047-1.949,3.492-2.66,5.414-1.617l167.975,90.74c1.945,1.047,2.672,3.477,1.617,5.413
					C510.76,335.23,509.385,335.988,507.963,335.988z"/>
			</g>
		</g>
		<g>
			<g>
				<path fill="#3A3847" d="M4.037,335.988c-1.421,0-2.796-0.758-3.515-2.102c-1.055-1.937-0.328-4.366,1.617-5.413l167.975-90.74
					c1.922-1.043,4.367-0.332,5.414,1.617c1.055,1.944,0.328,4.37-1.617,5.421L5.935,335.504
					C5.333,335.832,4.685,335.988,4.037,335.988z"/>
			</g>
		</g>
		<g>
			<g>
				<path fill="#3A3847" d="M507.963,319.99c-0.648,0-1.297-0.156-1.898-0.484L338.09,228.773c-1.945-1.051-2.672-3.476-1.617-5.421
					c1.047-1.941,3.492-2.66,5.414-1.617l167.975,90.741c1.945,1.047,2.672,3.476,1.617,5.413
					C510.76,319.232,509.385,319.99,507.963,319.99z"/>
			</g>
		</g>
		<g>
			<g>
				<path fill="#3A3847" d="M4.037,319.99c-1.421,0-2.796-0.758-3.515-2.101c-1.055-1.938-0.328-4.366,1.617-5.413l167.975-90.741
					c1.922-1.043,4.367-0.336,5.414,1.617c1.055,1.945,0.328,4.37-1.617,5.421L5.935,319.506
					C5.333,319.834,4.685,319.99,4.037,319.99z"/>
			</g>
		</g>
		<g>
			<g>
				<path fill="#3A3847" d="M36.032,479.967c-2.21,0-4-1.788-4-3.999v-161.25c0-2.21,1.789-3.999,4-3.999s4,1.789,4,3.999v161.25
					C40.032,478.179,38.243,479.967,36.032,479.967z"/>
			</g>
		</g>
		<g>
			<g>
				<path fill="#3A3847" d="M475.967,479.967c-2.209,0-3.998-1.788-3.998-3.999V314.726c0-2.21,1.789-3.999,3.998-3.999
					c2.211,0,4,1.789,4,3.999v161.242C479.967,478.179,478.178,479.967,475.967,479.967z"/>
			</g>
		</g>
		<g>
			<g>
				<path fill="#3A3847" d="M4.037,335.988c-2.21,0-3.999-1.789-3.999-4v-15.997c0-2.211,1.789-3.999,3.999-3.999
					c2.211,0,4,1.788,4,3.999v15.997C8.036,334.199,6.248,335.988,4.037,335.988z"/>
			</g>
		</g>
		<g>
			<g>
				<path fill="#3A3847" d="M507.963,335.988c-2.211,0-4-1.789-4-4v-15.997c0-2.211,1.789-3.999,4-3.999s4,1.788,4,3.999v15.997
					C511.963,334.199,510.174,335.988,507.963,335.988z"/>
			</g>
		</g>
		<g>
			<g>
				<path fill="#3A3847" d="M172.012,487.966c-2.21,0-3.999-1.788-3.999-3.999v-271.96c0-2.21,1.789-4,3.999-4c2.211,0,4,1.789,4,4
					v271.96C176.012,486.178,174.223,487.966,172.012,487.966z"/>
			</g>
		</g>
		<g>
			<g>
				<path fill="#3A3847" d="M339.988,487.966c-2.211,0-4-1.788-4-3.999v-271.96c0-2.21,1.789-4,4-4c2.209,0,3.998,1.789,3.998,4
					v271.96C343.986,486.178,342.197,487.966,339.988,487.966z"/>
			</g>
		</g>
		<g>
			<g>
				<path fill="#3A3847" d="M355.984,208.007c-1.326,0-2.631-0.664-3.389-1.878L256,51.577l-96.595,154.552
					c-1.164,1.882-3.648,2.441-5.507,1.269c-1.875-1.167-2.445-3.636-1.273-5.511L252.609,41.91c1.453-2.336,5.328-2.336,6.781,0
					l99.984,159.977c1.172,1.875,0.602,4.343-1.273,5.511C357.445,207.812,356.711,208.007,355.984,208.007z"/>
			</g>
		</g>
		<g>
			<g>
				<path fill="#3A3847" d="M435.973,431.975h-55.99c-2.211,0-4-1.789-4-4v-67.99c0-17.646,14.35-31.995,31.996-31.995
					c17.645,0,31.994,14.35,31.994,31.995v67.99C439.973,430.186,438.184,431.975,435.973,431.975z M383.98,423.976h47.994v-63.991
					c0-13.232-10.764-23.996-23.996-23.996s-23.998,10.764-23.998,23.996V423.976z"/>
			</g>
		</g>
		<g>
			<g>
				<path fill="#3A3847" d="M407.979,423.976c-2.211,0-4-1.789-4-3.999v-79.988c0-2.211,1.789-4,4-4c2.209,0,3.998,1.789,3.998,4
					v79.988C411.977,422.187,410.188,423.976,407.979,423.976z"/>
			</g>
		</g>
		<g>
			<g>
				<path fill="#3A3847" d="M427.975,367.983H387.98c-2.211,0-4-1.788-4-3.999s1.789-4,4-4h39.994c2.211,0,4,1.789,4,4
					S430.186,367.983,427.975,367.983z"/>
			</g>
		</g>
		<g>
			<g>
				<path fill="#3A3847" d="M427.975,399.979H387.98c-2.211,0-4-1.788-4-3.999c0-2.21,1.789-3.999,4-3.999h39.994
					c2.211,0,4,1.789,4,3.999C431.975,398.19,430.186,399.979,427.975,399.979z"/>
			</g>
		</g>
		<g>
			<g>
				<path fill="#3A3847" d="M283.996,343.987h-55.992c-2.211,0-4-1.789-4-3.999v-67.99c0-17.643,14.35-31.995,31.996-31.995
					s31.996,14.353,31.996,31.995v67.99C287.996,342.198,286.207,343.987,283.996,343.987z M232.004,335.988h47.992v-63.99
					c0-13.232-10.764-23.997-23.996-23.997s-23.996,10.765-23.996,23.997V335.988z"/>
			</g>
		</g>
		<g>
			<g>
				<path fill="#3A3847" d="M256,335.988c-2.211,0-4-1.789-4-4v-79.987c0-2.211,1.789-4,4-4s4,1.789,4,4v79.987
					C260,334.199,258.211,335.988,256,335.988z"/>
			</g>
		</g>
		<g>
			<g>
				<path fill="#3A3847" d="M275.996,279.996h-39.993c-2.21,0-3.999-1.788-3.999-3.999s1.789-3.999,3.999-3.999h39.993
					c2.211,0,4,1.788,4,3.999S278.207,279.996,275.996,279.996z"/>
			</g>
		</g>
		<g>
			<g>
				<path fill="#3A3847" d="M275.996,311.992h-39.993c-2.21,0-3.999-1.789-3.999-4s1.789-3.999,3.999-3.999h39.993
					c2.211,0,4,1.788,4,3.999S278.207,311.992,275.996,311.992z"/>
			</g>
		</g>
		<g>
			<g>
				<path fill="#3A3847" d="M132.018,431.975H76.026c-2.21,0-4-1.789-4-4v-67.99c0-17.646,14.35-31.995,31.995-31.995
					c17.646,0,31.996,14.35,31.996,31.995v67.99C136.018,430.186,134.229,431.975,132.018,431.975z M80.026,423.976h47.993v-63.991
					c0-13.232-10.764-23.996-23.997-23.996s-23.996,10.764-23.996,23.996V423.976z"/>
			</g>
		</g>
		<g>
			<g>
				<path fill="#3A3847" d="M104.022,423.976c-2.21,0-3.999-1.789-3.999-3.999v-79.988c0-2.211,1.789-4,3.999-4c2.211,0,4,1.789,4,4
					v79.988C108.021,422.187,106.233,423.976,104.022,423.976z"/>
			</g>
		</g>
		<g>
			<g>
				<path fill="#3A3847" d="M124.019,367.983H84.025c-2.21,0-3.999-1.788-3.999-3.999s1.789-4,3.999-4h39.994c2.211,0,4,1.789,4,4
					S126.23,367.983,124.019,367.983z"/>
			</g>
		</g>
		<g>
			<g>
				<path fill="#3A3847" d="M124.019,399.979H84.025c-2.21,0-3.999-1.788-3.999-3.999c0-2.21,1.789-3.999,3.999-3.999h39.994
					c2.211,0,4,1.789,4,3.999C128.019,398.19,126.23,399.979,124.019,399.979z"/>
			</g>
		</g>
		<g>
			<g>
				<path fill="#3A3847" d="M291.994,487.966c-2.211,0-3.998-1.788-3.998-3.999v-75.989c0-17.646-14.35-31.995-31.996-31.995
					s-31.996,14.35-31.996,31.995v75.989c0,2.211-1.788,3.999-3.998,3.999c-2.211,0-4-1.788-4-3.999v-75.989
					c0-22.052,17.943-39.994,39.994-39.994s39.994,17.942,39.994,39.994v75.989C295.994,486.178,294.205,487.966,291.994,487.966z"
					/>
			</g>
		</g>
		<g>
			<g>
				<path fill="#3A3847" d="M291.775,407.978h-71.551c-2.211,0-4-1.788-4-3.999s1.789-4,4-4h71.551c2.211,0,4,1.789,4,4
					S293.986,407.978,291.775,407.978z"/>
			</g>
		</g>
		<g>
			<g>
				<path fill="#3A3847" d="M256,487.966c-2.211,0-4-1.788-4-3.999v-75.989c0-2.21,1.789-3.999,4-3.999s4,1.789,4,3.999v75.989
					C260,486.178,258.211,487.966,256,487.966z"/>
			</g>
		</g>
		<g>
			<g>
				<path fill="#3A3847" d="M355.984,208.007h-199.97c-2.21,0-4-1.789-4-3.999c0-2.211,1.789-4,4-4h199.97c2.211,0,4,1.789,4,4
					C359.984,206.218,358.195,208.007,355.984,208.007z"/>
			</g>
		</g>
		<g>
			<g>
				<path fill="#3A3847" d="M232.145,120.02c-6.617,0-11.998-5.382-11.998-11.998c0-2.21,1.788-3.999,3.998-3.999
					c2.211,0,4,1.789,4,3.999c0,2.207,1.797,4,4,4s3.999-1.792,3.999-4c0-2.21,1.788-3.999,3.999-3.999s4,1.789,4,3.999
					C244.143,114.638,238.76,120.02,232.145,120.02z"/>
			</g>
		</g>
		<g>
			<g>
				<path fill="#3A3847" d="M248.143,120.02c-6.617,0-11.999-5.382-11.999-11.998c0-2.21,1.788-3.999,3.999-3.999s4,1.789,4,3.999
					c0,2.207,1.797,4,4,4c2.201,0,3.998-1.792,3.998-4c0-2.21,1.789-3.999,4-3.999s4,1.789,4,3.999
					C260.141,114.638,254.758,120.02,248.143,120.02z"/>
			</g>
		</g>
		<g>
			<g>
				<path fill="#3A3847" d="M264.139,120.02c-6.615,0-11.998-5.382-11.998-11.998c0-2.21,1.789-3.999,4-3.999s4,1.789,4,3.999
					c0,2.207,1.795,4,3.998,4s4-1.792,4-4c0-2.21,1.789-3.999,4-3.999s3.998,1.789,3.998,3.999
					C276.137,114.638,270.756,120.02,264.139,120.02z"/>
			</g>
		</g>
		<g>
			<g>
				<path fill="#3A3847" d="M248.143,96.023c-6.617,0-11.999-5.382-11.999-11.998c0-2.211,1.788-4,3.999-4s4,1.789,4,4
					c0,2.206,1.797,3.999,4,3.999c2.201,0,3.998-1.793,3.998-3.999c0-2.211,1.789-4,4-4s4,1.789,4,4
					C260.141,90.642,254.758,96.023,248.143,96.023z"/>
			</g>
		</g>
		<g>
			<g>
				<path fill="#3A3847" d="M264.139,96.023c-6.615,0-11.998-5.382-11.998-11.998c0-2.211,1.789-4,4-4s4,1.789,4,4
					c0,2.206,1.795,3.999,3.998,3.999s4-1.793,4-3.999c0-2.211,1.789-4,4-4s3.998,1.789,3.998,4
					C276.137,90.642,270.756,96.023,264.139,96.023z"/>
			</g>
		</g>
		<g>
			<g>
				<path fill="#3A3847" d="M256,72.027c-6.616,0-11.998-5.382-11.998-11.999c0-2.21,1.789-3.999,4-3.999
					c2.209,0,3.998,1.789,3.998,3.999c0,2.207,1.797,4,4,4s4-1.793,4-4c0-2.21,1.787-3.999,3.998-3.999s4,1.789,4,3.999
					C267.998,66.645,262.615,72.027,256,72.027z"/>
			</g>
		</g>
		<g>
			<g>
				<path fill="#3A3847" d="M280.137,120.02c-6.615,0-11.998-5.382-11.998-11.998c0-2.21,1.789-3.999,4-3.999
					s3.998,1.789,3.998,3.999c0,2.207,1.797,4,4,4s4-1.792,4-4c0-2.21,1.789-3.999,4-3.999c2.209,0,3.998,1.789,3.998,3.999
					C292.135,114.638,286.754,120.02,280.137,120.02z"/>
			</g>
		</g>
		<g>
			<g>
				<path fill="#3A3847" d="M232.145,144.017c-6.617,0-11.998-5.382-11.998-11.999c0-2.21,1.788-4,3.998-4c2.211,0,4,1.789,4,4
					c0,2.207,1.797,4,4,4s3.999-1.793,3.999-4c0-2.21,1.788-4,3.999-4s4,1.789,4,4C244.143,138.634,238.76,144.017,232.145,144.017z
					"/>
			</g>
		</g>
		<g>
			<g>
				<path fill="#3A3847" d="M216.131,144.017c-6.616,0-11.998-5.382-11.998-11.999c0-2.21,1.789-4,4-4c2.209,0,3.998,1.789,3.998,4
					c0,2.207,1.797,4,4,4s4-1.793,4-4c0-2.21,1.788-4,3.998-4c2.211,0,4,1.789,4,4C228.129,138.634,222.747,144.017,216.131,144.017
					z"/>
			</g>
		</g>
		<g>
			<g>
				<path fill="#3A3847" d="M248.143,144.017c-6.617,0-11.999-5.382-11.999-11.999c0-2.21,1.788-4,3.999-4s4,1.789,4,4
					c0,2.207,1.797,4,4,4c2.201,0,3.998-1.793,3.998-4c0-2.21,1.789-4,4-4s4,1.789,4,4
					C260.141,138.634,254.758,144.017,248.143,144.017z"/>
			</g>
		</g>
		<g>
			<g>
				<path fill="#3A3847" d="M264.139,144.017c-6.615,0-11.998-5.382-11.998-11.999c0-2.21,1.789-4,4-4s4,1.789,4,4
					c0,2.207,1.795,4,3.998,4s4-1.793,4-4c0-2.21,1.789-4,4-4s3.998,1.789,3.998,4C276.137,138.634,270.756,144.017,264.139,144.017
					z"/>
			</g>
		</g>
		<g>
			<g>
				<path fill="#3A3847" d="M280.137,144.017c-6.615,0-11.998-5.382-11.998-11.999c0-2.21,1.789-4,4-4s3.998,1.789,3.998,4
					c0,2.207,1.797,4,4,4s4-1.793,4-4c0-2.21,1.789-4,4-4c2.209,0,3.998,1.789,3.998,4
					C292.135,138.634,286.754,144.017,280.137,144.017z"/>
			</g>
		</g>
		<g>
			<g>
				<path fill="#3A3847" d="M296.135,144.017c-6.617,0-11.998-5.382-11.998-11.999c0-2.21,1.789-4,4-4c2.209,0,3.998,1.789,3.998,4
					c0,2.207,1.797,4,4,4s4-1.793,4-4c0-2.21,1.787-4,3.998-4s4,1.789,4,4C308.133,138.634,302.75,144.017,296.135,144.017z"/>
			</g>
		</g>
		<g>
			<g>
				<path fill="#3A3847" d="M232.145,168.013c-6.617,0-11.998-5.382-11.998-11.998c0-2.211,1.788-4,3.998-4c2.211,0,4,1.789,4,4
					c0,2.207,1.797,3.999,4,3.999s3.999-1.792,3.999-3.999c0-2.211,1.788-4,3.999-4s4,1.789,4,4
					C244.143,162.631,238.76,168.013,232.145,168.013z"/>
			</g>
		</g>
		<g>
			<g>
				<path fill="#3A3847" d="M216.139,168.013c-6.616,0-11.998-5.382-11.998-11.998c0-2.211,1.789-4,4-4c2.209,0,3.998,1.789,3.998,4
					c0,2.207,1.797,3.999,4,3.999s4-1.792,4-3.999c0-2.211,1.788-4,3.998-4c2.211,0,4,1.789,4,4
					C228.137,162.631,222.755,168.013,216.139,168.013z"/>
			</g>
		</g>
		<g>
			<g>
				<path fill="#3A3847" d="M200.133,168.013c-6.615,0-11.998-5.382-11.998-11.998c0-2.211,1.789-4,4-4s3.999,1.789,3.999,4
					c0,2.207,1.796,3.999,3.999,3.999s4-1.792,4-3.999c0-2.211,1.789-4,4-4c2.209,0,3.998,1.789,3.998,4
					C212.131,162.631,206.75,168.013,200.133,168.013z"/>
			</g>
		</g>
		<g>
			<g>
				<path fill="#3A3847" d="M248.143,168.013c-6.617,0-11.999-5.382-11.999-11.998c0-2.211,1.788-4,3.999-4s4,1.789,4,4
					c0,2.207,1.797,3.999,4,3.999c2.201,0,3.998-1.792,3.998-3.999c0-2.211,1.789-4,4-4s4,1.789,4,4
					C260.141,162.631,254.758,168.013,248.143,168.013z"/>
			</g>
		</g>
		<g>
			<g>
				<path fill="#3A3847" d="M264.139,168.013c-6.615,0-11.998-5.382-11.998-11.998c0-2.211,1.789-4,4-4s4,1.789,4,4
					c0,2.207,1.795,3.999,3.998,3.999s4-1.792,4-3.999c0-2.211,1.789-4,4-4s3.998,1.789,3.998,4
					C276.137,162.631,270.756,168.013,264.139,168.013z"/>
			</g>
		</g>
		<g>
			<g>
				<path fill="#3A3847" d="M280.137,168.013c-6.615,0-11.998-5.382-11.998-11.998c0-2.211,1.789-4,4-4s3.998,1.789,3.998,4
					c0,2.207,1.797,3.999,4,3.999s4-1.792,4-3.999c0-2.211,1.789-4,4-4c2.209,0,3.998,1.789,3.998,4
					C292.135,162.631,286.754,168.013,280.137,168.013z"/>
			</g>
		</g>
		<g>
			<g>
				<path fill="#3A3847" d="M296.135,168.013c-6.617,0-11.998-5.382-11.998-11.998c0-2.211,1.789-4,4-4c2.209,0,3.998,1.789,3.998,4
					c0,2.207,1.797,3.999,4,3.999s4-1.792,4-3.999c0-2.211,1.787-4,3.998-4s4,1.789,4,4
					C308.133,162.631,302.75,168.013,296.135,168.013z"/>
			</g>
		</g>
		<g>
			<g>
				<path fill="#3A3847" d="M312.133,168.013c-6.617,0-11.998-5.382-11.998-11.998c0-2.211,1.787-4,3.998-4s4,1.789,4,4
					c0,2.207,1.797,3.999,4,3.999s3.998-1.792,3.998-3.999c0-2.211,1.789-4,4-4s4,1.789,4,4
					C324.131,162.631,318.748,168.013,312.133,168.013z"/>
			</g>
		</g>
		<g>
			<g>
				<path fill="#3A3847" d="M232.145,192.009c-6.617,0-11.998-5.382-11.998-11.999c0-2.21,1.788-3.999,3.998-3.999
					c2.211,0,4,1.789,4,3.999c0,2.207,1.797,4,4,4s3.999-1.793,3.999-4c0-2.21,1.788-3.999,3.999-3.999s4,1.789,4,3.999
					C244.143,186.627,238.76,192.009,232.145,192.009z"/>
			</g>
		</g>
		<g>
			<g>
				<path fill="#3A3847" d="M216.146,192.009c-6.616,0-11.998-5.382-11.998-11.999c0-2.21,1.789-3.999,4-3.999
					c2.209,0,3.998,1.789,3.998,3.999c0,2.207,1.797,4,4,4s4-1.793,4-4c0-2.21,1.788-3.999,3.998-3.999c2.211,0,4,1.789,4,3.999
					C228.145,186.627,222.763,192.009,216.146,192.009z"/>
			</g>
		</g>
		<g>
			<g>
				<path fill="#3A3847" d="M200.141,192.009c-6.615,0-11.998-5.382-11.998-11.999c0-2.21,1.789-3.999,4-3.999
					s3.999,1.789,3.999,3.999c0,2.207,1.796,4,3.999,4s4-1.793,4-4c0-2.21,1.789-3.999,4-3.999c2.209,0,3.998,1.789,3.998,3.999
					C212.139,186.627,206.758,192.009,200.141,192.009z"/>
			</g>
		</g>
		<g>
			<g>
				<path fill="#3A3847" d="M184.135,192.009c-6.615,0-11.998-5.382-11.998-11.999c0-2.21,1.789-3.999,4-3.999s4,1.789,4,3.999
					c0,2.207,1.796,4,3.998,4c2.203,0,4-1.793,4-4c0-2.21,1.789-3.999,4-3.999s3.999,1.789,3.999,3.999
					C196.134,186.627,190.752,192.009,184.135,192.009z"/>
			</g>
		</g>
		<g>
			<g>
				<path fill="#3A3847" d="M248.143,192.009c-6.617,0-11.999-5.382-11.999-11.999c0-2.21,1.788-3.999,3.999-3.999s4,1.789,4,3.999
					c0,2.207,1.797,4,4,4c2.201,0,3.998-1.793,3.998-4c0-2.21,1.789-3.999,4-3.999s4,1.789,4,3.999
					C260.141,186.627,254.758,192.009,248.143,192.009z"/>
			</g>
		</g>
		<g>
			<g>
				<path fill="#3A3847" d="M264.139,192.009c-6.615,0-11.998-5.382-11.998-11.999c0-2.21,1.789-3.999,4-3.999s4,1.789,4,3.999
					c0,2.207,1.795,4,3.998,4s4-1.793,4-4c0-2.21,1.789-3.999,4-3.999s3.998,1.789,3.998,3.999
					C276.137,186.627,270.756,192.009,264.139,192.009z"/>
			</g>
		</g>
		<g>
			<g>
				<path fill="#3A3847" d="M280.137,192.009c-6.615,0-11.998-5.382-11.998-11.999c0-2.21,1.789-3.999,4-3.999
					s3.998,1.789,3.998,3.999c0,2.207,1.797,4,4,4s4-1.793,4-4c0-2.21,1.789-3.999,4-3.999c2.209,0,3.998,1.789,3.998,3.999
					C292.135,186.627,286.754,192.009,280.137,192.009z"/>
			</g>
		</g>
		<g>
			<g>
				<path fill="#3A3847" d="M296.135,192.009c-6.617,0-11.998-5.382-11.998-11.999c0-2.21,1.789-3.999,4-3.999
					c2.209,0,3.998,1.789,3.998,3.999c0,2.207,1.797,4,4,4s4-1.793,4-4c0-2.21,1.787-3.999,3.998-3.999s4,1.789,4,3.999
					C308.133,186.627,302.75,192.009,296.135,192.009z"/>
			</g>
		</g>
		<g>
			<g>
				<path fill="#3A3847" d="M312.133,192.009c-6.617,0-11.998-5.382-11.998-11.999c0-2.21,1.787-3.999,3.998-3.999s4,1.789,4,3.999
					c0,2.207,1.797,4,4,4s3.998-1.793,3.998-4c0-2.21,1.789-3.999,4-3.999s4,1.789,4,3.999
					C324.131,186.627,318.748,192.009,312.133,192.009z"/>
			</g>
		</g>
		<g>
			<g>
				<path fill="#3A3847" d="M328.131,192.009c-6.617,0-12-5.382-12-11.999c0-2.21,1.789-3.999,4-3.999s4,1.789,4,3.999
					c0,2.207,1.797,4,4,4c2.201,0,3.998-1.793,3.998-4c0-2.21,1.789-3.999,4-3.999s4,1.789,4,3.999
					C340.129,186.627,334.746,192.009,328.131,192.009z"/>
			</g>
		</g>
		<g>
			<g>
				<path fill="#3A3847" d="M299.994,495.965h-87.988c-2.21,0-3.998-1.789-3.998-3.999c0-2.211,1.788-4,3.998-4h87.988
					c2.209,0,3.998,1.789,3.998,4C303.992,494.176,302.203,495.965,299.994,495.965z"/>
			</g>
		</g>
		<g>
			<g>
				<path fill="#3A3847" d="M315.99,511.963H196.009c-2.21,0-3.999-1.789-3.999-4c0-2.21,1.789-3.999,3.999-3.999H315.99
					c2.211,0,4,1.789,4,3.999C319.99,510.174,318.201,511.963,315.99,511.963z"/>
			</g>
		</g>
		<g>
			<g>
				<path fill="#3A3847" d="M475.967,479.967h-23.996c-2.211,0-3.998-1.788-3.998-3.999c0-2.21,1.787-3.999,3.998-3.999h23.996
					c2.211,0,4,1.789,4,3.999C479.967,478.179,478.178,479.967,475.967,479.967z"/>
			</g>
		</g>
		<g>
			<g>
				<path fill="#3A3847" d="M483.967,479.967h-6.328c-2.209,0-3.998-1.788-3.998-3.999c0-2.21,1.789-3.999,3.998-3.999h6.328
					c2.211,0,4,1.789,4,3.999C487.967,478.179,486.178,479.967,483.967,479.967z"/>
			</g>
		</g>
		<g>
			<g>
				<path fill="#3A3847" d="M483.967,495.965c-2.211,0-4-1.789-4-3.999v-15.998c0-2.21,1.789-3.999,4-3.999s4,1.789,4,3.999v15.998
					C487.967,494.176,486.178,495.965,483.967,495.965z"/>
			</g>
		</g>
		<g>
			<g>
				<path fill="#3A3847" d="M483.967,495.965H315.99c-2.209,0-3.998-1.789-3.998-3.999c0-2.211,1.789-4,3.998-4h167.977
					c2.211,0,4,1.789,4,4C487.967,494.176,486.178,495.965,483.967,495.965z"/>
			</g>
		</g>
		<g>
			<g>
				<path fill="#3A3847" d="M60.029,479.967H28.033c-2.21,0-4-1.788-4-3.999c0-2.21,1.789-3.999,4-3.999h31.996
					c2.21,0,3.999,1.789,3.999,3.999C64.028,478.179,62.239,479.967,60.029,479.967z"/>
			</g>
		</g>
		<g>
			<g>
				<path fill="#3A3847" d="M28.033,495.965c-2.21,0-4-1.789-4-3.999v-15.998c0-2.21,1.789-3.999,4-3.999s4,1.789,4,3.999v15.998
					C32.033,494.176,30.244,495.965,28.033,495.965z"/>
			</g>
		</g>
		<g>
			<g>
				<path fill="#3A3847" d="M196.009,495.965H28.033c-2.21,0-4-1.789-4-3.999c0-2.211,1.789-4,4-4h167.976
					c2.21,0,3.999,1.789,3.999,4C200.008,494.176,198.219,495.965,196.009,495.965z"/>
			</g>
		</g>
		<g>
			<g>
				<path fill="#3A3847" d="M256,48.03c-2.211,0-4-1.789-4-3.999V4.037c0-2.211,1.789-4,4-4s4,1.789,4,4v39.994
					C260,46.241,258.211,48.03,256,48.03z"/>
			</g>
		</g>
		<g>
			<g>
				<path fill="#3A3847" d="M267.998,24.034h-23.996c-2.211,0-4-1.789-4-4c0-2.21,1.789-3.999,4-3.999h23.996
					c2.211,0,4,1.789,4,3.999C271.998,22.245,270.209,24.034,267.998,24.034z"/>
			</g>
		</g>
		<g>
			<g>
				<path fill="#3A3847" d="M244.002,455.971c-2.211,0-4-1.789-4-3.999v-7.999c0-2.211,1.789-4,4-4s4,1.789,4,4v7.999
					C248.002,454.182,246.213,455.971,244.002,455.971z"/>
			</g>
		</g>
		<g>
			<g>
				<path fill="#3A3847" d="M267.998,455.971c-2.211,0-4-1.789-4-3.999v-7.999c0-2.211,1.789-4,4-4s4,1.789,4,4v7.999
					C271.998,454.182,270.209,455.971,267.998,455.971z"/>
			</g>
		</g>
	</g>
</g>
</svg>
