<?xml version="1.0" encoding="utf-8"?>
<!-- Generator: Adobe Illustrator 21.1.0, SVG Export Plug-In . SVG Version: 6.00 Build 0)  -->
<svg version="1.1" id="Icon_Set" xmlns="http://www.w3.org/2000/svg" xmlns:xlink="http://www.w3.org/1999/xlink" x="0px" y="0px"
	 viewBox="0 0 512 512" style="enable-background:new 0 0 512 512;" xml:space="preserve">
<style type="text/css">
	.st0{fill:#FFFFFF;}
	.st1{fill:#5B7C31;}
	.st2{fill:#E56823;}
	.st3{fill:#FE8E46;}
	.st4{fill:#7DAC51;}
	.st5{fill:#463218;}
	.st6{fill:#FEFE71;}
	.st7{fill:#D6CD1E;}
	.st8{fill:none;stroke:#FFFFFF;stroke-width:14;stroke-miterlimit:10;}
	.st9{fill:none;stroke:#463218;stroke-width:14;stroke-linecap:round;stroke-linejoin:round;stroke-miterlimit:10;}
</style>
<g id="Cocktail">
	<g>
		<g>
			<g>
				<circle class="st3" cx="283.8" cy="148.5" r="27.8"/>
			</g>
		</g>
	</g>
	<g>
		<g>
			<g>
				<path class="st2" d="M297,157.7c-12.9,0-23.4-10.5-23.4-23.4c0-4.8,1.5-9.3,3.9-13c-12.4,2.8-21.6,13.9-21.6,27.1
					c0,15.4,12.5,27.8,27.8,27.8c13.9,0,25.5-10.2,27.5-23.6C307.4,155.8,302.4,157.7,297,157.7z"/>
			</g>
		</g>
	</g>
	<g>
		<g>
			<g>
				<polygon class="st1" points="256,378.1 201.8,408.3 310.2,408.3 				"/>
			</g>
		</g>
	</g>
	<g>
		<g>
			<g>
				<polygon class="st6" points="147.6,176.3 256,284.8 364.4,176.3 				"/>
			</g>
		</g>
	</g>
	<g>
		<g>
			<g>
				<polygon class="st7" points="198.8,176.3 147.6,176.3 256,284.8 281.6,259.2 				"/>
			</g>
		</g>
	</g>
	<g>
		<g>
			<g>
				<path class="st5" d="M256,291.8c-1.9,0-3.6-0.7-4.9-2L142.6,181.3c-2-2-2.6-5-1.5-7.6c1.1-2.6,3.6-4.3,6.5-4.3h216.9
					c2.8,0,5.4,1.7,6.5,4.3c1.1,2.6,0.5,5.6-1.5,7.6L261,289.7C259.6,291,257.9,291.8,256,291.8z M164.5,183.3l91.5,91.5l91.5-91.5
					H164.5z"/>
			</g>
		</g>
	</g>
	<g>
		<g>
			<g>
				<path class="st5" d="M283.8,183.3c-19.2,0-34.8-15.6-34.8-34.8s15.6-34.8,34.8-34.8s34.8,15.6,34.8,34.8
					S303.1,183.3,283.8,183.3z M283.8,127.6c-11.5,0-20.8,9.4-20.8,20.8s9.4,20.8,20.8,20.8s20.8-9.4,20.8-20.8
					S295.3,127.6,283.8,127.6z"/>
			</g>
		</g>
	</g>
	<g>
		<g>
			<g>
				<path class="st5" d="M283.9,127.6c-0.2,0-0.4,0-0.6,0c-3.9-0.3-6.7-3.7-6.4-7.6c0.1-1.2,3-30.2,31.5-38.1c3.7-1,7.6,1.1,8.6,4.9
					c1,3.7-1.1,7.6-4.9,8.6c-19.3,5.4-21.3,25.7-21.3,25.9C290.5,124.9,287.4,127.6,283.9,127.6z"/>
			</g>
		</g>
	</g>
	<g>
		<g>
			<g>
				<path class="st5" d="M256,385.1c-3.9,0-7-3.1-7-7v-93.3c0-3.9,3.1-7,7-7s7,3.1,7,7v93.3C263,382,259.9,385.1,256,385.1z"/>
			</g>
		</g>
	</g>
	<g>
		<g>
			<g>
				<path class="st5" d="M310.2,415.3H201.8c-3.2,0-6-2.2-6.8-5.2c-0.8-3.1,0.6-6.3,3.4-7.9l54.2-30.2c2.1-1.2,4.7-1.2,6.8,0
					l54.2,30.2c2.8,1.6,4.2,4.8,3.4,7.9C316.2,413.1,313.4,415.3,310.2,415.3z M228.7,401.3h54.5L256,386.1L228.7,401.3z"/>
			</g>
		</g>
	</g>
	<g>
		<g>
			<g>
				<polygon class="st3" points="178.7,207.5 256,284.8 333.3,207.5 				"/>
			</g>
		</g>
	</g>
	<g>
		<g>
			<g>
				<polygon class="st2" points="229.9,207.5 178.7,207.5 256,284.8 281.6,259.2 				"/>
			</g>
		</g>
	</g>
	<g>
		<g>
			<g>
				<path class="st5" d="M256,291.8c-1.9,0-3.6-0.7-5-2l-77.3-77.3c-2-2-2.6-5-1.5-7.6c1.1-2.6,3.6-4.3,6.5-4.3h154.6
					c2.8,0,5.4,1.7,6.5,4.3c1.1,2.6,0.5,5.6-1.5,7.6L261,289.7C259.6,291,257.9,291.8,256,291.8z M195.6,214.5l60.4,60.4l60.4-60.4
					H195.6z"/>
			</g>
		</g>
	</g>
	<g>
		<g>
			<g>
				
					<rect x="234.7" y="220.2" transform="matrix(0.7165 -0.6975 0.6975 0.7165 -96.6819 235.7426)" class="st0" width="14" height="33.2"/>
			</g>
		</g>
	</g>
</g>
</svg>
