<?xml version="1.0" encoding="utf-8"?>
<!-- Generator: Adobe Illustrator 21.1.0, SVG Export Plug-In . SVG Version: 6.00 Build 0)  -->
<svg version="1.1" id="Icon_Set" xmlns="http://www.w3.org/2000/svg" xmlns:xlink="http://www.w3.org/1999/xlink" x="0px" y="0px"
	 viewBox="0 0 512 512" style="enable-background:new 0 0 512 512;" xml:space="preserve">
<style type="text/css">
	.st0{fill:#FFFFFF;}
	.st1{fill:#5B7C31;}
	.st2{fill:#E56823;}
	.st3{fill:#FE8E46;}
	.st4{fill:#7DAC51;}
	.st5{fill:#463218;}
	.st6{fill:#FEFE71;}
	.st7{fill:#D6CD1E;}
	.st8{fill:none;stroke:#FFFFFF;stroke-width:14;stroke-miterlimit:10;}
	.st9{fill:none;stroke:#463218;stroke-width:14;stroke-linecap:round;stroke-linejoin:round;stroke-miterlimit:10;}
</style>
<g id="Coconut_Water">
	<g>
		<g>
			<g>
				<polygon class="st2" points="287.4,192.2 261,192.2 283.5,100.7 309.9,100.7 				"/>
			</g>
		</g>
	</g>
	<g>
		<g>
			<g>
				<path class="st4" d="M337.1,192.2H174.9c-26.6,22.8-43.5,56.7-43.5,94.6c0,68.8,55.8,124.6,124.6,124.6s124.6-55.8,124.6-124.6
					C380.6,248.9,363.7,215,337.1,192.2z"/>
			</g>
		</g>
	</g>
	<g>
		<g>
			<g>
				<path class="st1" d="M223.7,280.4c0-34.5,14-65.7,36.6-88.2h-85.4c-26.6,22.8-43.5,56.7-43.5,94.6
					c0,68.8,55.8,124.6,124.6,124.6c19.4,0,37.7-4.4,54.1-12.3C260,382.9,223.7,335.9,223.7,280.4z"/>
			</g>
		</g>
	</g>
	<g>
		<g>
			<g>
				<path class="st6" d="M366.7,229.5c-7.4-14.3-17.5-27-29.6-37.4H174.9c-12.1,10.4-22.2,23.1-29.6,37.4l0,0l20.9,35l38.6-17.5
					l51.2,17.5l51.2-17.5l38.6,17.5L366.7,229.5z"/>
			</g>
		</g>
	</g>
	<g>
		<g>
			<g>
				<path class="st5" d="M256,418.3c-72.5,0-131.6-59-131.6-131.6c0-38.4,16.7-74.8,45.9-99.9c1.3-1.1,2.9-1.7,4.6-1.7h162.1
					c1.7,0,3.3,0.6,4.6,1.7c29.2,25.1,45.9,61.5,45.9,99.9C387.6,359.3,328.5,418.3,256,418.3z M177.6,199.2
					c-24.9,22.3-39.1,54.1-39.1,87.6c0,64.8,52.7,117.6,117.6,117.6s117.6-52.7,117.6-117.6c0-33.5-14.2-65.3-39.1-87.6H177.6z"/>
			</g>
		</g>
	</g>
	<g>
		<g>
			<g>
				<path class="st7" d="M171.8,195c-0.5,0.5-1,0.9-1.5,1.4c-0.3,0.3-0.7,0.6-1,1c-0.4,0.4-0.8,0.8-1.2,1.2
					c-0.4,0.4-0.7,0.7-1.1,1.1c-0.4,0.4-0.7,0.7-1.1,1.1c-0.4,0.4-0.8,0.8-1.1,1.2c-0.3,0.3-0.6,0.7-1,1c-0.4,0.4-0.8,0.9-1.2,1.3
					c-0.3,0.3-0.5,0.6-0.8,0.9c-0.4,0.5-0.9,1-1.3,1.5c-0.2,0.3-0.4,0.5-0.6,0.8c-0.5,0.6-0.9,1.1-1.4,1.7c-0.1,0.2-0.3,0.4-0.4,0.5
					c-0.5,0.7-1,1.3-1.5,2c0,0,0,0,0,0c-4.2,5.6-8,11.5-11.2,17.8l20.9,35l38.6-17.5l21.6,7.4c5.1-24.1,17.1-45.5,33.9-62.3h-85.4
					c-0.8,0.7-1.6,1.4-2.4,2.1C172.3,194.5,172,194.7,171.8,195z"/>
			</g>
		</g>
	</g>
	<g>
		<g>
			<g>
				<path class="st5" d="M345.8,271.6c-1,0-2-0.2-2.9-0.6l-36.1-16.4l-48.6,16.6c-1.5,0.5-3.1,0.5-4.5,0l-48.6-16.6L169.1,271
					c-3.2,1.5-7.1,0.3-8.9-2.8l-20.9-35c-1.2-2.1-1.3-4.7-0.2-6.8c7.8-15.1,18.3-28.4,31.3-39.5c1.3-1.1,2.9-1.7,4.6-1.7h162.1
					c1.7,0,3.3,0.6,4.6,1.7c12.9,11.1,23.4,24.4,31.3,39.5c1.1,2.2,1,4.7-0.2,6.8l-20.9,35C350.5,270.3,348.2,271.6,345.8,271.6z
					 M204.8,240.1c0.8,0,1.5,0.1,2.3,0.4l48.9,16.7l48.9-16.7c1.7-0.6,3.5-0.5,5.2,0.2l32.9,14.9l15.6-26.2
					c-6.4-11.4-14.5-21.5-24.2-30.2H177.6c-9.7,8.7-17.8,18.8-24.2,30.2l15.6,26.2l32.9-14.9C202.8,240.3,203.8,240.1,204.8,240.1z"
					/>
			</g>
		</g>
	</g>
	<g>
		<g>
			<g>
				<path class="st5" d="M204.8,254.1c-0.6,0-1.3-0.1-1.9-0.3c-3.7-1-5.9-4.9-4.9-8.6l7.9-28.5c1-3.7,4.9-5.9,8.6-4.9
					c3.7,1,5.9,4.9,4.9,8.6l-7.9,28.5C210.7,252,207.9,254.1,204.8,254.1z"/>
			</g>
		</g>
	</g>
	<g>
		<g>
			<g>
				<path class="st5" d="M306.6,254.1c-3.1,0-5.9-2-6.7-5.1l-7.9-28.5c-1-3.7,1.1-7.6,4.9-8.6c3.7-1,7.6,1.1,8.6,4.9l7.9,28.5
					c1,3.7-1.1,7.6-4.9,8.6C307.8,254,307.2,254.1,306.6,254.1z"/>
			</g>
		</g>
	</g>
	<g>
		<g>
			<g>
				<path class="st5" d="M287.4,199.2H261c-2.2,0-4.2-1-5.5-2.7c-1.3-1.7-1.8-3.9-1.3-6L276.7,99c0.8-3.1,3.6-5.3,6.8-5.3h26.4
					c2.2,0,4.2,1,5.5,2.7c1.3,1.7,1.8,3.9,1.3,6l-22.5,91.5C293.4,197,290.6,199.2,287.4,199.2z M269.9,185.2h11.9l19.1-77.5H289
					L269.9,185.2z"/>
			</g>
		</g>
	</g>
	<g>
		<g>
			<g>
				<path class="st0" d="M316.8,353.9l-7-12.1c26.2-15.1,27.8-47.9,27.8-48.2l14,0.5C351.6,295.8,349.8,334.9,316.8,353.9z"/>
			</g>
		</g>
	</g>
</g>
</svg>
