<?xml version="1.0" encoding="utf-8"?>
<!-- Generator: Adobe Illustrator 21.1.0, SVG Export Plug-In . SVG Version: 6.00 Build 0)  -->
<svg version="1.1" id="Icon_Set" xmlns="http://www.w3.org/2000/svg" xmlns:xlink="http://www.w3.org/1999/xlink" x="0px" y="0px"
	 viewBox="0 0 512 512" style="enable-background:new 0 0 512 512;" xml:space="preserve">
<style type="text/css">
	.st0{fill:#FFFFFF;}
	.st1{fill:#5B7C31;}
	.st2{fill:#E56823;}
	.st3{fill:#FE8E46;}
	.st4{fill:#7DAC51;}
	.st5{fill:#463218;}
	.st6{fill:#FEFE71;}
	.st7{fill:#D6CD1E;}
	.st8{fill:none;stroke:#FFFFFF;stroke-width:14;stroke-miterlimit:10;}
	.st9{fill:none;stroke:#463218;stroke-width:14;stroke-linecap:round;stroke-linejoin:round;stroke-miterlimit:10;}
</style>
<g id="Coffee">
	<g>
		<g>
			<g>
				<g>
					<path class="st6" d="M295.1,395.3H175.6c-19.2,0-34.8-15.6-34.8-34.8v0h189v0C329.8,379.7,314.3,395.3,295.1,395.3z"/>
				</g>
			</g>
		</g>
		<g>
			<g>
				<g>
					<path class="st7" d="M208.9,360.5L208.9,360.5h-68.1l0,0c0,19.2,15.6,34.8,34.8,34.8h68.1C224.5,395.3,208.9,379.7,208.9,360.5
						z"/>
				</g>
			</g>
		</g>
		<g>
			<g>
				<g>
					<path class="st3" d="M235.3,360.5L235.3,360.5c-52.2,0-94.5-42.3-94.5-94.5v-41.6h189V266C329.8,318.2,287.5,360.5,235.3,360.5
						z"/>
				</g>
			</g>
		</g>
		<g>
			<g>
				<g>
					<path class="st2" d="M209.1,266v-41.6h-68.4V266c0,52.2,42.3,94.5,94.5,94.5h0c12.1,0,23.6-2.3,34.2-6.4
						C234.2,340.4,209.1,306.2,209.1,266z"/>
				</g>
			</g>
		</g>
		<g>
			<g>
				<g>
					<path class="st5" d="M235.3,367.5c-56,0-101.5-45.5-101.5-101.5v-41.6c0-3.9,3.1-7,7-7h189c3.9,0,7,3.1,7,7V266
						C336.8,322,291.3,367.5,235.3,367.5z M147.8,231.4V266c0,48.3,39.3,87.5,87.5,87.5s87.5-39.3,87.5-87.5v-34.6H147.8z"/>
				</g>
			</g>
		</g>
		<g>
			<g>
				<g>
					<path class="st5" d="M295.1,402.3H175.6c-23,0-41.8-18.7-41.8-41.8c0-3.9,3.1-7,7-7h189c3.9,0,7,3.1,7,7
						C336.8,383.6,318.1,402.3,295.1,402.3z M148.7,367.5c3.1,11.9,14,20.8,26.9,20.8h119.5c12.9,0,23.8-8.8,26.9-20.8H148.7z"/>
				</g>
			</g>
		</g>
		<g>
			<g>
				<g>
					<path class="st5" d="M332,330.5h-21.7c-3.9,0-7-3.1-7-7s3.1-7,7-7H332c6.2,0,12.2-1.8,17.5-5.1c9.2-6,14.8-16.1,14.8-27.1V252
						h-34.1c-3.9,0-7-3.1-7-7s3.1-7,7-7h41.1c3.9,0,7,3.1,7,7v39.3c0,15.8-7.9,30.3-21.2,38.8C349.6,327.9,340.9,330.5,332,330.5z"
						/>
				</g>
			</g>
		</g>
		<g>
			<g>
				<g>
					<rect x="284.7" y="252" class="st0" width="14" height="32.2"/>
				</g>
			</g>
		</g>
	</g>
	<g>
		<g>
			<g>
				<g>
					<path class="st5" d="M235.3,188.3c-1.8,0-3.6-0.7-4.9-2.1c-5.6-5.6-8.7-13.1-8.7-21c0-7.3,2.6-14.2,7.4-19.6
						c0.3-0.7,0.8-1.3,1.3-1.8c3-3,4.6-6.9,4.6-11.1s-1.6-8.1-4.6-11.1c-2.7-2.7-2.7-7.2,0-9.9c2.7-2.7,7.2-2.7,9.9,0
						c5.6,5.6,8.7,13.1,8.7,21c0,7.3-2.6,14.2-7.4,19.6c-0.3,0.7-0.8,1.3-1.3,1.8c-3,3-4.6,6.9-4.6,11.1s1.6,8.1,4.6,11.1
						c2.7,2.7,2.7,7.2,0,9.9C238.9,187.6,237.1,188.3,235.3,188.3z M235.3,149.2L235.3,149.2L235.3,149.2z"/>
				</g>
			</g>
		</g>
		<g>
			<g>
				<g>
					<path class="st5" d="M188.4,197c-1.8,0-3.6-0.7-4.9-2c-8-8-8.4-20.7-1.1-29.1c0.3-0.5,0.7-1,1.1-1.5c2.9-2.9,2.9-7.6,0-10.6
						c-2.7-2.7-2.7-7.2,0-9.9c2.7-2.7,7.2-2.7,9.9,0c8,8,8.4,20.7,1.1,29.1c-0.3,0.5-0.7,1-1.1,1.5c-2.9,2.9-2.9,7.6,0,10.6
						c2.7,2.7,2.7,7.2,0,9.9C192,196.3,190.2,197,188.4,197z M188.4,169.6L188.4,169.6L188.4,169.6z"/>
				</g>
			</g>
		</g>
		<g>
			<g>
				<g>
					<path class="st5" d="M282.2,197c-1.8,0-3.6-0.7-5-2c-8-8-8.4-20.7-1.1-29.1c0.3-0.5,0.7-1,1.1-1.5c2.9-2.9,2.9-7.6,0-10.6
						c-2.7-2.7-2.7-7.2,0-9.9c2.7-2.7,7.2-2.7,9.9,0c8,8,8.4,20.7,1.1,29.1c-0.3,0.5-0.7,1-1.1,1.5c-2.9,2.9-2.9,7.6,0,10.6
						c2.7,2.7,2.7,7.2,0,9.9C285.8,196.3,284,197,282.2,197z M282.2,169.6L282.2,169.6L282.2,169.6z"/>
				</g>
			</g>
		</g>
	</g>
</g>
</svg>
