<?xml version="1.0" encoding="utf-8"?>
<!-- Generator: Adobe Illustrator 21.1.0, SVG Export Plug-In . SVG Version: 6.00 Build 0)  -->
<svg version="1.1" id="Icon_Set" xmlns="http://www.w3.org/2000/svg" xmlns:xlink="http://www.w3.org/1999/xlink" x="0px" y="0px"
	 viewBox="0 0 512 512" style="enable-background:new 0 0 512 512;" xml:space="preserve">
<style type="text/css">
	.st0{fill:#FFFFFF;}
	.st1{fill:#5B7C31;}
	.st2{fill:#E56823;}
	.st3{fill:#FE8E46;}
	.st4{fill:#7DAC51;}
	.st5{fill:#463218;}
	.st6{fill:#FEFE71;}
	.st7{fill:#D6CD1E;}
	.st8{fill:none;stroke:#FFFFFF;stroke-width:14;stroke-miterlimit:10;}
	.st9{fill:none;stroke:#463218;stroke-width:14;stroke-linecap:round;stroke-linejoin:round;stroke-miterlimit:10;}
</style>
<g id="Cookies">
	<g>
		<g>
			<g>
				<path class="st3" d="M370.3,225.6c-1.2-6.7-5.4-12-11-14.9c2.4-5.8,2.2-12.6-1.2-18.5c-3.4-5.9-9.2-9.5-15.4-10.3
					c0.3-6.3-2.2-12.6-7.4-17s-11.9-5.7-18-4.3c-1.9-6-6.4-11.1-12.8-13.4c-6.4-2.3-13.1-1.3-18.4,2.1c-3.8-5-9.8-8.3-16.6-8.3
					v102.4h95.6C369.4,238.8,371.5,232.3,370.3,225.6z"/>
			</g>
		</g>
	</g>
	<g>
		<g>
			<g>
				<path class="st2" d="M269.5,183.2v60.2h60.2C329.7,210.1,302.7,183.2,269.5,183.2z"/>
			</g>
		</g>
	</g>
	<g>
		<g>
			<g>
				<path class="st3" d="M242.5,166.2L242.5,166.2c-6.8,0-12.8,3.2-16.6,8.3c-5.3-3.4-12.1-4.4-18.4-2.1
					c-6.4,2.3-10.9,7.4-12.8,13.4c-6.1-1.4-12.8,0-18,4.3s-7.7,10.7-7.4,17c-6.2,0.8-12.1,4.4-15.4,10.3c-3.4,5.9-3.6,12.7-1.2,18.5
					c-5.6,2.9-9.8,8.2-11,14.9c-1.2,6.7,1,13.2,5.2,17.8c-4.3,4.6-6.4,11.1-5.2,17.8s5.4,12,11,14.9c-2.4,5.8-2.2,12.6,1.2,18.5
					c3.4,5.9,9.2,9.5,15.4,10.3c-0.3,6.3,2.2,12.6,7.4,17c5.2,4.4,11.9,5.7,18,4.4c1.9,6,6.4,11.1,12.8,13.4
					c6.4,2.3,13.1,1.3,18.4-2.1c3.8,5,9.8,8.3,16.6,8.3s12.8-3.2,16.6-8.3c5.3,3.4,12.1,4.4,18.4,2.1c6.4-2.3,10.9-7.4,12.8-13.4
					c6.1,1.4,12.8,0,18-4.4c5.2-4.4,7.7-10.7,7.4-17c6.2-0.8,12.1-4.4,15.4-10.3c3.4-5.9,3.6-12.7,1.2-18.5c5.6-2.9,9.8-8.2,11-14.9
					s-1-13.2-5.2-17.8h-95.6V166.2z"/>
			</g>
		</g>
	</g>
	<g>
		<g>
			<g>
				<path class="st2" d="M175.3,268.6c0,37.1,30.1,67.2,67.2,67.2s67.2-30.1,67.2-67.2h-67.2v-67.2
					C205.4,201.5,175.3,231.5,175.3,268.6z"/>
			</g>
		</g>
	</g>
	<g>
		<g>
			<g>
				<path class="st5" d="M242.5,378c-6.8,0-13.1-2.4-18.1-6.7c-6.2,2.3-12.9,2.4-19.3,0.1s-11.5-6.7-14.7-12.5
					c-6.6,0.1-13-2.2-18.2-6.5c-5.2-4.3-8.5-10.3-9.6-16.8c-6.2-2.2-11.5-6.5-14.8-12.3c-3.4-5.9-4.5-12.6-3.3-19
					c-5.1-4.2-8.6-10-9.7-16.7c-1.2-6.7,0.1-13.3,3.4-19c-3.4-5.7-4.6-12.3-3.4-19c1.2-6.7,4.6-12.5,9.7-16.7
					c-1.2-6.5-0.1-13.2,3.3-19c3.4-5.9,8.6-10.2,14.8-12.3c1.1-6.5,4.4-12.4,9.6-16.8s11.6-6.6,18.2-6.5c3.2-5.7,8.4-10.2,14.7-12.5
					c6.4-2.3,13.1-2.2,19.3,0.1c5-4.3,11.3-6.7,18.1-6.7c3.9,0,7,3.1,7,7v95.4h88.6c1.9,0,3.8,0.8,5.1,2.2c6,6.5,8.5,15.1,7,23.8
					c-1.2,6.7-4.6,12.5-9.7,16.7c1.2,6.5,0.1,13.2-3.3,19c-3.4,5.9-8.6,10.2-14.8,12.3c-1.1,6.5-4.4,12.4-9.6,16.8
					c-5.2,4.4-11.6,6.6-18.2,6.5c-3.2,5.7-8.4,10.2-14.7,12.5c-6.4,2.3-13.1,2.2-19.3-0.1C255.6,375.6,249.3,378,242.5,378z
					 M225.9,355.8c2.1,0,4.2,1,5.6,2.8c2.6,3.5,6.7,5.5,11,5.5c4.4,0,8.4-2,11-5.5c2.2-2.9,6.3-3.6,9.4-1.7
					c3.7,2.4,8.1,2.9,12.2,1.4c4.1-1.5,7.2-4.7,8.5-8.9c1.1-3.5,4.7-5.6,8.2-4.8c4.3,1,8.6-0.1,12-2.9c3.3-2.8,5.1-6.9,4.9-11.3
					c-0.2-3.7,2.5-6.8,6.1-7.3c4.3-0.5,8.1-3,10.3-6.8c2.2-3.8,2.5-8.3,0.8-12.3c-1.4-3.4,0-7.3,3.3-8.9c3.9-2,6.6-5.6,7.3-9.9
					c0.6-3.4-0.1-6.7-1.8-9.6h-92.2c-3.9,0-7-3.1-7-7v-93.5c-1.5,0.9-2.9,2.1-4,3.6c-2.2,2.9-6.3,3.6-9.4,1.7
					c-3.7-2.4-8.1-2.9-12.2-1.4c-4.1,1.5-7.2,4.7-8.5,8.9c-1.1,3.5-4.7,5.6-8.2,4.8c-4.3-1-8.6,0.1-12,2.9
					c-3.3,2.8-5.1,6.9-4.9,11.3c0.2,3.7-2.5,6.8-6.1,7.3c-4.3,0.5-8.1,3-10.3,6.8s-2.5,8.3-0.8,12.3c1.4,3.4,0,7.3-3.3,8.9
					c-3.9,2-6.6,5.6-7.3,9.9c-0.8,4.3,0.5,8.6,3.5,11.8c2.5,2.7,2.5,6.8,0,9.5c-3,3.2-4.2,7.5-3.5,11.8c0.8,4.3,3.4,7.9,7.3,9.9
					c3.3,1.7,4.7,5.6,3.3,8.9c-1.7,4-1.4,8.5,0.8,12.3s5.9,6.3,10.3,6.8c3.6,0.5,6.3,3.6,6.1,7.3c-0.2,4.4,1.6,8.5,4.9,11.3
					c3.3,2.8,7.7,3.9,12,2.9c3.6-0.8,7.2,1.3,8.2,4.8c1.3,4.2,4.4,7.4,8.5,8.9c4.1,1.5,8.6,1,12.2-1.4
					C223.3,356.1,224.6,355.8,225.9,355.8z"/>
			</g>
		</g>
	</g>
	<g>
		<g>
			<g>
				<path class="st5" d="M365.1,250.4h-95.6c-3.9,0-7-3.1-7-7V141c0-3.9,3.1-7,7-7c6.8,0,13.1,2.4,18.1,6.7
					c6.2-2.3,12.9-2.4,19.3-0.1c6.4,2.3,11.5,6.7,14.7,12.5c6.6-0.1,13,2.2,18.2,6.5c5.2,4.3,8.5,10.3,9.6,16.8
					c6.2,2.2,11.5,6.5,14.8,12.3c3.4,5.9,4.5,12.6,3.3,19c5.1,4.2,8.6,10,9.7,16.7c1.5,8.6-1,17.3-7,23.8
					C368.9,249.6,367,250.4,365.1,250.4z M276.5,236.4h85.2c1.7-2.8,2.4-6.2,1.8-9.6c-0.8-4.3-3.4-7.9-7.3-9.9
					c-3.3-1.7-4.7-5.6-3.3-8.9c1.7-4,1.4-8.5-0.8-12.3s-5.9-6.3-10.3-6.8c-3.6-0.5-6.3-3.6-6.1-7.3c0.2-4.4-1.6-8.5-4.9-11.3
					c-3.3-2.8-7.7-3.9-12-2.9c-3.6,0.8-7.2-1.3-8.2-4.8c-1.3-4.2-4.4-7.4-8.5-8.9c-4.1-1.5-8.6-1-12.2,1.4c-3.1,2-7.2,1.3-9.4-1.7
					c-1.1-1.5-2.5-2.7-4-3.6V236.4z"/>
			</g>
		</g>
	</g>
	<g>
		<g>
			<g>
				<circle class="st3" cx="218" cy="232.5" r="6.9"/>
			</g>
		</g>
	</g>
	<g>
		<g>
			<g>
				<circle class="st3" cx="293.7" cy="206.4" r="6.9"/>
			</g>
		</g>
	</g>
	<g>
		<g>
			<g>
				<circle class="st3" cx="224.9" cy="297.6" r="6.9"/>
			</g>
		</g>
	</g>
	<g>
		<g>
			<g>
				<circle class="st3" cx="198.8" cy="267.2" r="10.8"/>
			</g>
		</g>
	</g>
	<g>
		<g>
			<g>
				<circle class="st3" cx="280.3" cy="295" r="10.8"/>
			</g>
		</g>
	</g>
	<g>
		<g>
			<g>
				<circle class="st3" cx="323.6" cy="213.3" r="10.8"/>
			</g>
		</g>
	</g>
	<g>
		<g>
			<g>
				<path class="st0" d="M183.8,255.6l-13.7-2.7c6.5-32.9,35.1-48.3,36.3-49l6.5,12.4l-3.3-6.2l3.3,6.2
					C212.6,216.4,188.9,229.3,183.8,255.6z"/>
			</g>
		</g>
	</g>
</g>
</svg>
