<?xml version="1.0" encoding="utf-8"?>
<!-- Generator: Adobe Illustrator 21.1.0, SVG Export Plug-In . SVG Version: 6.00 Build 0)  -->
<svg version="1.1" id="Icon_Set" xmlns="http://www.w3.org/2000/svg" xmlns:xlink="http://www.w3.org/1999/xlink" x="0px" y="0px"
	 viewBox="0 0 512 512" style="enable-background:new 0 0 512 512;" xml:space="preserve">
<style type="text/css">
	.st0{fill:#FFFFFF;}
	.st1{fill:#5B7C31;}
	.st2{fill:#E56823;}
	.st3{fill:#FE8E46;}
	.st4{fill:#7DAC51;}
	.st5{fill:#463218;}
	.st6{fill:#FEFE71;}
	.st7{fill:#D6CD1E;}
	.st8{fill:none;stroke:#FFFFFF;stroke-width:14;stroke-miterlimit:10;}
	.st9{fill:none;stroke:#463218;stroke-width:14;stroke-linecap:round;stroke-linejoin:round;stroke-miterlimit:10;}
</style>
<g id="Corn_Dog">
	<g>
		<g>
			<g>
				<path class="st6" d="M189.3,322.7L189.3,322.7c-24.1-24.1-24.1-63.2,0-87.3l56.7-56.7c24.1-24.1,63.2-24.1,87.3,0l0,0
					c24.1,24.1,24.1,63.2,0,87.3l-56.7,56.7C252.5,346.8,213.4,346.8,189.3,322.7z"/>
			</g>
		</g>
	</g>
	<g>
		<g>
			<g>
				<path class="st7" d="M222.8,268.8l56.7-56.7c18.2-18.2,44.9-22.6,67.2-13.4c-3-7.3-7.5-14.1-13.4-20l0,0
					c-24.1-24.1-63.2-24.1-87.3,0l-56.7,56.7c-24.1,24.1-24.1,63.2,0,87.3l0,0c5.9,5.9,12.8,10.4,20,13.4
					C200.1,313.7,204.6,287,222.8,268.8z"/>
			</g>
		</g>
	</g>
	<g>
		<g>
			<g>
				<path class="st5" d="M233,347.7c-18.3,0-35.6-7.1-48.6-20.1v0v0c-13-13-20.1-30.2-20.1-48.6c0-18.3,7.1-35.6,20.1-48.6
					l56.7-56.7c13-13,30.2-20.1,48.6-20.1s35.6,7.1,48.6,20.1c13,13,20.1,30.2,20.1,48.6c0,18.3-7.1,35.6-20.1,48.6l-56.7,56.7
					C268.6,340.6,251.3,347.7,233,347.7z M289.7,167.6c-14.6,0-28.3,5.7-38.7,16l-56.7,56.7c-10.3,10.3-16,24.1-16,38.7
					c0,14.6,5.7,28.3,16,38.7v0c10.3,10.3,24.1,16,38.7,16c14.6,0,28.3-5.7,38.7-16l56.7-56.7c10.3-10.3,16-24.1,16-38.7
					s-5.7-28.3-16-38.7C318.1,173.3,304.3,167.6,289.7,167.6z"/>
			</g>
		</g>
	</g>
	<g>
		<g>
			<g>
				<path class="st3" d="M372.4,139.6c-11.2-11.2-29.4-11.2-40.6,0l-36.6,36.6l0.1,0.1C279.8,191.8,300,212,300,212
					s20.2,20.2,35.7,4.7l0.1,0.1l36.6-36.6C383.6,169,383.6,150.8,372.4,139.6z"/>
			</g>
		</g>
	</g>
	<g>
		<g>
			<g>
				<path class="st2" d="M315.6,196.5L315.6,196.5l36.5-36.6c7.5-7.5,18.1-10,27.7-7.4c-1.3-4.7-3.7-9.2-7.4-12.9
					c-11.2-11.2-29.4-11.2-40.6,0l-36.6,36.6l0.1,0.1C279.8,191.8,300,212,300,212s5.1,5.1,12.1,8.2
					C309,213.2,307.9,204.3,315.6,196.5z"/>
			</g>
		</g>
	</g>
	<g>
		<g>
			<g>
				<path class="st5" d="M322.3,229.5c-4.2,0-8.6-1-13.1-3c-8.1-3.6-13.9-9.4-14.1-9.6c-0.2-0.2-6-6.1-9.6-14.1
					c-5.1-11.4-3.7-22.1,4-30.5c0.3-0.4,0.5-0.7,0.9-1.1l36.6-36.6c13.9-13.9,36.5-13.9,50.5,0c13.9,13.9,13.9,36.5,0,50.5
					l-36.6,36.6c-0.3,0.3-0.7,0.6-1.1,0.9C334.6,227.2,328.7,229.5,322.3,229.5z M301.1,180.3c-0.2,0.3-0.5,0.6-0.8,0.9
					c-2.7,2.7-5.8,7.2-2.1,15.6c2.5,5.8,6.8,10.2,6.9,10.2c0,0,4.4,4.3,10.2,6.8c8.4,3.6,12.9,0.5,15.6-2.1c0.3-0.3,0.6-0.6,0.9-0.8
					l35.7-35.7c8.5-8.5,8.5-22.2,0-30.7c-8.5-8.5-22.2-8.5-30.7,0L301.1,180.3z"/>
			</g>
		</g>
	</g>
	<g>
		<g>
			<g>
				<path class="st5" d="M131.2,387.8c-1.8,0-3.6-0.7-4.9-2c-2.7-2.7-2.7-7.2,0-9.9l58.1-58.1c2.7-2.7,7.2-2.7,9.9,0
					c2.7,2.7,2.7,7.2,0,9.9l-58.1,58.1C134.8,387.1,133,387.8,131.2,387.8z"/>
			</g>
		</g>
	</g>
	<g>
		<g>
			<g>
				
					<rect x="214.8" y="217.8" transform="matrix(0.7071 -0.7071 0.7071 0.7071 -89.0549 234.5987)" class="st0" width="47.7" height="14"/>
			</g>
		</g>
	</g>
</g>
</svg>
