<?xml version="1.0" encoding="utf-8"?>
<!-- Generator: Adobe Illustrator 21.1.0, SVG Export Plug-In . SVG Version: 6.00 Build 0)  -->
<svg version="1.1" id="Icon_Set" xmlns="http://www.w3.org/2000/svg" xmlns:xlink="http://www.w3.org/1999/xlink" x="0px" y="0px"
	 viewBox="0 0 512 512" style="enable-background:new 0 0 512 512;" xml:space="preserve">
<style type="text/css">
	.st0{fill:#FFFFFF;}
	.st1{fill:#5B7C31;}
	.st2{fill:#E56823;}
	.st3{fill:#FE8E46;}
	.st4{fill:#7DAC51;}
	.st5{fill:#463218;}
	.st6{fill:#FEFE71;}
	.st7{fill:#D6CD1E;}
	.st8{fill:none;stroke:#FFFFFF;stroke-width:14;stroke-miterlimit:10;}
	.st9{fill:none;stroke:#463218;stroke-width:14;stroke-linecap:round;stroke-linejoin:round;stroke-miterlimit:10;}
</style>
<g id="Crab">
	<g>
		<g>
			<g>
				<path class="st5" d="M327.2,280.3c-3.2,0-6-2.2-6.8-5.4c-0.9-3.8,1.4-7.5,5.2-8.5c22.5-5.4,23.1-18.5,23.1-18.6c0-3.9,3.1-7,7-7
					c0,0,0,0,0,0c3.9,0,7,3.1,7,7c0,1-0.4,24.1-33.8,32.2C328.3,280.2,327.7,280.3,327.2,280.3z"/>
			</g>
		</g>
	</g>
	<g>
		<g>
			<g>
				<path class="st3" d="M356,140.3l27.2,45.5c8.4,14,8.9,31.6,0.6,45.8c-5.2,8.9-13.7,16.3-27.8,16.3c-35.9,0-35.9-48.6-35.9-71.7
					l33.2,23.6L356,140.3z"/>
			</g>
		</g>
	</g>
	<g>
		<g>
			<g>
				<g>
					<path class="st2" d="M363,203.6l-9.2-15.4l2.1-48l27.2,45.5c8.4,14,8.9,31.6,0.6,45.8c-4,6.8-9.9,12.7-18.7,15.1
						C371.8,233,370.9,216.7,363,203.6z"/>
				</g>
			</g>
		</g>
	</g>
	<g>
		<g>
			<g>
				<path class="st5" d="M356,254.8c-13,0-30.2-5.6-38.1-32.2c-4.8-16-4.8-34.4-4.8-46.5c0-2.6,1.5-5,3.8-6.2c2.3-1.2,5.1-1,7.3,0.5
					l22.7,16.1l2.1-46.6c0.1-3.1,2.3-5.7,5.3-6.5c3-0.8,6.1,0.5,7.7,3.2l27.2,45.5c9.8,16.4,10.1,36.7,0.7,52.9
					C382.3,248,370.6,254.8,356,254.8z M327.4,189.8c1.1,27.9,6.8,51,28.6,51c9.6,0,16.8-4.2,21.8-12.8c6.9-11.8,6.6-26.6-0.6-38.7
					l-15.2-25.5l-1.6,36.1c-0.1,2.6-1.6,4.9-3.9,6c-2.3,1.1-5,0.9-7.1-0.6L327.4,189.8z"/>
			</g>
		</g>
	</g>
	<g>
		<g>
			<g>
				<path class="st5" d="M397.7,303.3c-1.8,0-3.7-0.7-5-2.1l-4.7-4.8c-7.5-7.8-18.9-10.3-29-6.3l-15.1,5.9c-3.6,1.4-7.7-0.4-9.1-4
					c-1.4-3.6,0.4-7.7,4-9.1L354,277c15.4-6,32.7-2.2,44.1,9.7l4.7,4.8c2.7,2.8,2.6,7.2-0.2,9.9
					C401.2,302.7,399.5,303.3,397.7,303.3z"/>
			</g>
		</g>
	</g>
	<g>
		<g>
			<g>
				<path class="st5" d="M385,332c-2.3,0-4.6-1.1-5.9-3.2c-5.9-9.2-17.1-13.9-27.8-11.7l-4.6,0.9c-3.8,0.8-7.5-1.7-8.3-5.5
					c-0.8-3.8,1.7-7.5,5.5-8.3l4.6-0.9c16.4-3.3,33.4,3.8,42.4,17.9c2.1,3.3,1.1,7.6-2.1,9.7C387.6,331.7,386.3,332,385,332z"/>
			</g>
		</g>
	</g>
	<g>
		<g>
			<g>
				<path class="st5" d="M369.6,368.7c-2.4,0-4.8-1.3-6.1-3.6l-2-3.6c-4.7-8.4-13.7-13.6-23.3-13.6h-5.8c-3.9,0-7-3.1-7-7s3.1-7,7-7
					h5.8c14.7,0,28.3,8,35.5,20.8l2,3.6c1.9,3.4,0.7,7.6-2.7,9.5C371.9,368.4,370.7,368.7,369.6,368.7z"/>
			</g>
		</g>
	</g>
	<g>
		<g>
			<g>
				<path class="st3" d="M337.6,282.7l-14.4-15.1c-13.7-14.4-32.6-22.5-52.4-22.5H265h-16.8h-5.9c-19.8,0-38.8,8.1-52.4,22.5
					l-14.4,15.1c-8.3,8.7-10.9,21.4-6.8,32.7c8.1,22.3,23.9,56.3,45.1,56.3c3.7,0,7.5,0,11.5,0c29.6,0,62.6,0,62.6,0
					c3.9,0,7.8,0,11.5,0c21.3,0,37.1-34,45.1-56.3C348.5,304.1,345.9,291.5,337.6,282.7z"/>
			</g>
		</g>
	</g>
	<g>
		<g>
			<g>
				<path class="st2" d="M299.3,340.9c-3.7,0-7.5,0-11.5,0c0,0-33.1,0-62.6,0c-3.9,0-7.8,0-11.5,0c-19.7,0-34.7-29.2-43.2-51.3
					c-4.2,7.8-5,17.2-1.9,25.8c8.1,22.3,23.9,56.3,45.1,56.3c3.7,0,7.5,0,11.5,0c29.6,0,62.6,0,62.6,0c3.9,0,7.8,0,11.5,0
					c21.3,0,37.1-34,45.1-56.3c3.1-8.6,2.3-18-1.9-25.8C334,311.7,319,340.9,299.3,340.9z"/>
			</g>
		</g>
	</g>
	<g>
		<g>
			<g>
				<path class="st3" d="M156,140.3l-27.2,45.5c-8.4,14-8.9,31.6-0.6,45.8c5.2,8.9,13.7,16.3,27.8,16.3c35.9,0,35.9-48.6,35.9-71.7
					l-33.2,23.6L156,140.3z"/>
			</g>
		</g>
	</g>
	<g>
		<g>
			<g>
				<g>
					<path class="st2" d="M149,203.6l9.2-15.4l-2.1-48l-27.2,45.5c-8.4,14-8.9,31.6-0.6,45.8c4,6.8,9.9,12.7,18.7,15.1
						C140.2,233,141.1,216.7,149,203.6z"/>
				</g>
			</g>
		</g>
	</g>
	<g>
		<g>
			<g>
				<path class="st5" d="M299.3,378.7h-85.6c-24.5,0-41.7-33.2-51.7-61c-5-13.9-1.8-29.2,8.3-39.9l14.4-15.1
					c14.9-15.7,35.9-24.7,57.5-24.7h28.6c21.6,0,42.6,9,57.5,24.7l14.4,15.1v0c10.2,10.7,13.4,26,8.3,39.9
					C341,345.6,323.8,378.7,299.3,378.7z M242.3,252.1c-17.8,0-35.1,7.4-47.3,20.3l-14.4,15.1c-6.5,6.8-8.5,16.6-5.3,25.5
					c11.7,32.4,26.1,51.7,38.6,51.7h85.6c12.4,0,26.9-19.3,38.6-51.7c3.2-8.9,1.2-18.6-5.3-25.5l-14.4-15.1
					c-12.3-12.9-29.5-20.3-47.3-20.3H242.3z"/>
			</g>
		</g>
	</g>
	<g>
		<g>
			<g>
				<path class="st5" d="M156,254.8c-14.6,0-26.4-6.8-33.9-19.7c-9.4-16.2-9.2-36.4,0.7-52.9l27.2-45.5c1.6-2.7,4.7-4,7.7-3.2
					c3,0.8,5.1,3.4,5.3,6.5l2.1,46.6l22.7-16.1c2.1-1.5,4.9-1.7,7.3-0.5c2.3,1.2,3.8,3.6,3.8,6.2c0,12.1,0,30.5-4.8,46.5
					C186.2,249.2,169,254.8,156,254.8z M150.1,163.9l-15.2,25.5c-7.2,12.1-7.4,26.9-0.6,38.7c5,8.6,12.1,12.8,21.8,12.8
					c21.8,0,27.5-23.1,28.6-51l-21.9,15.6c-2.1,1.5-4.8,1.7-7.1,0.6c-2.3-1.1-3.8-3.4-3.9-6L150.1,163.9z"/>
			</g>
		</g>
	</g>
	<g>
		<g>
			<g>
				<path class="st5" d="M184.5,280.3c-0.5,0-1.1-0.1-1.7-0.2c-33.4-8.1-33.8-31.2-33.8-32.2l14,0l0-0.1c0,0.5,0.9,13.4,23.1,18.8
					c3.8,0.9,6.1,4.7,5.2,8.5C190.5,278.1,187.6,280.3,184.5,280.3z"/>
			</g>
		</g>
	</g>
	<g>
		<g>
			<g>
				<path class="st5" d="M114.3,303.3c-1.7,0-3.5-0.7-4.9-2c-2.8-2.7-2.9-7.1-0.2-9.9l4.7-4.8c11.5-11.9,28.8-15.7,44.1-9.7
					l15.1,5.9c3.6,1.4,5.4,5.5,4,9.1c-1.4,3.6-5.5,5.4-9.1,4l-15.1-5.9c-10.1-3.9-21.5-1.5-29,6.3l-4.7,4.8
					C117.9,302.6,116.1,303.3,114.3,303.3z"/>
			</g>
		</g>
	</g>
	<g>
		<g>
			<g>
				<path class="st5" d="M127,332c-1.3,0-2.6-0.4-3.8-1.1c-3.3-2.1-4.2-6.4-2.1-9.7c9-14,26.1-21.2,42.4-17.9l4.6,0.9
					c3.8,0.8,6.2,4.5,5.5,8.3s-4.5,6.2-8.3,5.5l-4.6-0.9c-10.7-2.2-21.9,2.5-27.8,11.7C131.6,330.9,129.3,332,127,332z"/>
			</g>
		</g>
	</g>
	<g>
		<g>
			<g>
				<path class="st5" d="M142.4,368.7c-1.2,0-2.3-0.3-3.4-0.9c-3.4-1.9-4.6-6.2-2.7-9.5l2-3.6c7.2-12.8,20.8-20.8,35.5-20.8h5.8
					c3.9,0,7,3.1,7,7s-3.1,7-7,7h-5.8c-9.6,0-18.6,5.2-23.3,13.6l-2,3.6C147.3,367.4,144.9,368.7,142.4,368.7z"/>
			</g>
		</g>
	</g>
	<g>
		<g>
			<g>
				<g>
					<circle class="st5" cx="229.9" cy="229.9" r="15.2"/>
				</g>
			</g>
		</g>
	</g>
	<g>
		<g>
			<g>
				<circle class="st5" cx="283.1" cy="229.9" r="15.2"/>
			</g>
		</g>
	</g>
	<g>
		<g>
			<g>
				<path class="st0" d="M310.9,319.6l-13.2-4.7l2.7-7.7c2.2-6.1,0-13.1-5.3-16.9l-12.1-8.9l8.2-11.3l12.1,8.9
					c10.2,7.5,14.4,21,10.2,32.9L310.9,319.6z"/>
			</g>
		</g>
	</g>
</g>
</svg>
