<?xml version="1.0" encoding="utf-8"?>
<!-- Generator: Adobe Illustrator 21.1.0, SVG Export Plug-In . SVG Version: 6.00 Build 0)  -->
<svg version="1.1" id="Icon_Set" xmlns="http://www.w3.org/2000/svg" xmlns:xlink="http://www.w3.org/1999/xlink" x="0px" y="0px"
	 viewBox="0 0 512 512" style="enable-background:new 0 0 512 512;" xml:space="preserve">
<style type="text/css">
	.st0{fill:#FFFFFF;}
	.st1{fill:#5B7C31;}
	.st2{fill:#E56823;}
	.st3{fill:#FE8E46;}
	.st4{fill:#7DAC51;}
	.st5{fill:#463218;}
	.st6{fill:#FEFE71;}
	.st7{fill:#D6CD1E;}
	.st8{fill:none;stroke:#FFFFFF;stroke-width:14;stroke-miterlimit:10;}
	.st9{fill:none;stroke:#463218;stroke-width:14;stroke-linecap:round;stroke-linejoin:round;stroke-miterlimit:10;}
</style>
<g id="Crepes">
	<g>
		<g>
			<g>
				<path class="st7" d="M256,355.5l174.3-96.4c-18.6-33.6-46.5-61.2-80.4-79.3c-96.4-51.5-218-14.6-269.5,81.8L256,355.5z"/>
			</g>
		</g>
	</g>
	<g>
		<g>
			<g>
				<circle class="st6" cx="209.4" cy="283.8" r="36.6"/>
			</g>
		</g>
	</g>
	<g>
		<g>
			<g>
				<circle class="st6" cx="224.1" cy="204.2" r="18.3"/>
			</g>
		</g>
	</g>
	<g>
		<g>
			<g>
				<circle class="st6" cx="322.5" cy="242.4" r="46.6"/>
			</g>
		</g>
	</g>
	<g>
		<g>
			<g>
				<path class="st5" d="M209.4,327.4c-24,0-43.6-19.5-43.6-43.6s19.5-43.6,43.6-43.6s43.6,19.5,43.6,43.6S233.5,327.4,209.4,327.4z
					 M209.4,254.2c-16.3,0-29.6,13.3-29.6,29.6s13.3,29.6,29.6,29.6s29.6-13.3,29.6-29.6S225.8,254.2,209.4,254.2z"/>
			</g>
		</g>
	</g>
	<g>
		<g>
			<g>
				<path class="st5" d="M224.1,229.5c-13.9,0-25.3-11.3-25.3-25.3c0-13.9,11.3-25.3,25.3-25.3s25.3,11.3,25.3,25.3
					C249.4,218.2,238.1,229.5,224.1,229.5z M224.1,192.9c-6.2,0-11.3,5.1-11.3,11.3s5.1,11.3,11.3,11.3s11.3-5.1,11.3-11.3
					S230.4,192.9,224.1,192.9z"/>
			</g>
		</g>
	</g>
	<g>
		<g>
			<g>
				<path class="st5" d="M322.5,296c-29.5,0-53.6-24-53.6-53.6s24-53.6,53.6-53.6s53.6,24,53.6,53.6S352,296,322.5,296z
					 M322.5,202.9c-21.8,0-39.6,17.7-39.6,39.6c0,21.8,17.7,39.6,39.6,39.6c21.8,0,39.6-17.7,39.6-39.6
					C362,220.6,344.3,202.9,322.5,202.9z"/>
			</g>
		</g>
	</g>
	<g>
		<g>
			<g>
				<path class="st5" d="M256,362.5c-1.1,0-2.3-0.3-3.3-0.8L77,267.8c-1.6-0.9-2.9-2.4-3.4-4.1c-0.5-1.8-0.4-3.7,0.5-5.3
					c25.8-48.3,69.1-83.7,122.1-99.7c52.9-16.1,108.7-10.7,156.9,15.1c35.2,18.8,64,47.2,83.3,82.1c1.9,3.4,0.6,7.6-2.7,9.5
					l-174.3,96.4C258.3,362.2,257.2,362.5,256,362.5z M89.9,258.8l166,88.7l164.7-91.1c-17.9-29.8-43.4-54-74.1-70.4
					c-45-24-96.9-29-146.3-14C153.2,186.2,114.3,216.9,89.9,258.8z"/>
			</g>
		</g>
	</g>
	<g>
		<g>
			<g>
				<path class="st3" d="M80.3,261.6L256,355.5L148.1,188.4C120.4,206.1,96.8,230.8,80.3,261.6z"/>
			</g>
		</g>
	</g>
	<g>
		<g>
			<g>
				<path class="st3" d="M431.7,261.6L256,355.5l107.9-167.1C391.6,206.1,415.2,230.8,431.7,261.6z"/>
			</g>
		</g>
	</g>
	<g>
		<g>
			<g>
				<path class="st2" d="M407.3,226L256,355.5l175.7-93.9C424.7,248.6,416.5,236.7,407.3,226z"/>
			</g>
		</g>
	</g>
	<g>
		<g>
			<g>
				<path class="st2" d="M104.7,226L256,355.5L80.3,261.6C87.3,248.6,95.5,236.7,104.7,226z"/>
			</g>
		</g>
	</g>
	<g>
		<g>
			<g>
				<path class="st5" d="M256,362.5c-1.1,0-2.3-0.3-3.3-0.8L77,267.8c-3.4-1.8-4.7-6.1-2.9-9.5c16.4-30.7,40.7-56.9,70.1-75.8
					c3.2-2.1,7.6-1.1,9.7,2.1l107.9,167.1c1.7,2.7,1.4,6.2-0.7,8.5C259.8,361.7,257.9,362.5,256,362.5z M89.9,258.8l145.5,77.8
					L146,198.2C123.1,214,103.9,234.8,89.9,258.8z"/>
			</g>
		</g>
	</g>
	<g>
		<g>
			<g>
				<path class="st5" d="M256,362.5c-1.9,0-3.8-0.8-5.2-2.3c-2.2-2.3-2.5-5.9-0.7-8.5l107.9-167.1c2.1-3.2,6.4-4.2,9.7-2.1
					c29.5,18.9,53.7,45.1,70.1,75.8c1.8,3.4,0.5,7.7-2.9,9.5l-175.7,93.9C258.3,362.2,257.1,362.5,256,362.5z M366,198.2
					l-89.4,138.4l145.5-77.8C408.1,234.8,388.9,214,366,198.2z"/>
			</g>
		</g>
	</g>
	<g>
		<g>
			<g>
				
					<rect x="348.2" y="250.2" transform="matrix(0.7597 -0.6502 0.6502 0.7597 -78.1279 302.9236)" class="st0" width="45.4" height="14"/>
			</g>
		</g>
	</g>
</g>
</svg>
