<?xml version="1.0" encoding="utf-8"?>
<!-- Generator: Adobe Illustrator 21.1.0, SVG Export Plug-In . SVG Version: 6.00 Build 0)  -->
<svg version="1.1" id="Icon_Set" xmlns="http://www.w3.org/2000/svg" xmlns:xlink="http://www.w3.org/1999/xlink" x="0px" y="0px"
	 viewBox="0 0 512 512" style="enable-background:new 0 0 512 512;" xml:space="preserve">
<style type="text/css">
	.st0{fill:#FFFFFF;}
	.st1{fill:#5B7C31;}
	.st2{fill:#E56823;}
	.st3{fill:#FE8E46;}
	.st4{fill:#7DAC51;}
	.st5{fill:#463218;}
	.st6{fill:#FEFE71;}
	.st7{fill:#D6CD1E;}
	.st8{fill:none;stroke:#FFFFFF;stroke-width:14;stroke-miterlimit:10;}
	.st9{fill:none;stroke:#463218;stroke-width:14;stroke-linecap:round;stroke-linejoin:round;stroke-miterlimit:10;}
</style>
<g id="Croissant">
	<g>
		<g>
			<g>
				<path class="st2" d="M403.7,274.8c0,0,31.9,32.3,14.3,57.9c-18.7,27.3-63-10.7-63-10.7L403.7,274.8z"/>
			</g>
		</g>
	</g>
	<g>
		<g>
			<g>
				<path class="st3" d="M403.7,274.8l-16.5,16c3.3,3.5,25.9,28.7,17.2,51.2c5.2-1.1,9.9-3.9,13.6-9.3
					C435.6,307,403.7,274.8,403.7,274.8z"/>
			</g>
		</g>
	</g>
	<g>
		<g>
			<g>
				<path class="st2" d="M108.3,274.8c0,0-31.9,32.3-14.3,57.9c18.7,27.3,63-10.7,63-10.7L108.3,274.8z"/>
			</g>
		</g>
	</g>
	<g>
		<g>
			<g>
				<path class="st3" d="M126.7,298.8l26.8,25.9c2.2-1.7,3.5-2.8,3.5-2.8l-48.7-47.1c0,0-31.9,32.3-14.3,57.9
					c3.6,5.3,8.2,8.1,13.2,9.2C105.6,320.1,126.7,298.8,126.7,298.8z"/>
			</g>
		</g>
	</g>
	<g>
		<g>
			<g>
				<path class="st7" d="M326,212.2l-2.7-1.3l-2.2,13l-16.3,95.4l39.2,13.3l67.9-65.8l0,0C402.2,228.8,364.5,204.9,326,212.2z"/>
			</g>
		</g>
	</g>
	<g>
		<g>
			<g>
				<path class="st6" d="M389.8,288.2l22.1-21.4c-9.7-38-47.3-62-85.9-54.6l-2.7-1.3l-2.2,13l-3.7,21.6
					C348.1,243.4,376.9,260.6,389.8,288.2z"/>
			</g>
		</g>
	</g>
	<g>
		<g>
			<g>
				<path class="st7" d="M187.3,210.1L187.3,210.1l3.6,13.9l16.3,95.4l-39.2,13.3l-67.9-65.8l0,0
					C109.8,228.8,148.8,202.7,187.3,210.1z"/>
			</g>
		</g>
	</g>
	<g>
		<g>
			<g>
				<path class="st6" d="M194.8,246.8l-3.9-22.8l-3.6-13.9c-38.6-7.4-77.5,18.8-87.2,56.8l26.9,26
					C138.9,266.1,165.8,247.6,194.8,246.8z"/>
			</g>
		</g>
	</g>
	<g>
		<g>
			<g>
				<path class="st2" d="M301.6,337.8h-92.4l-24-140.5l0,0c39.5-37.1,101-37.1,140.5,0l0,0L301.6,337.8z"/>
			</g>
		</g>
	</g>
	<g>
		<g>
			<g>
				<path class="st3" d="M317.4,245.4l8.2-48h0c-39.5-37.1-101-37.1-140.5,0h0l8.2,48C229.9,217.5,280.8,217.5,317.4,245.4z"/>
			</g>
		</g>
	</g>
	<g>
		<g>
			<g>
				<path class="st5" d="M301.6,344.8h-92.4c-3.4,0-6.3-2.5-6.9-5.8l-24-140.5c-0.4-2.3,0.4-4.7,2.1-6.3c42.1-39.6,108-39.6,150.1,0
					c1.7,1.6,2.5,4,2.1,6.3l-24,140.5C307.9,342.3,305,344.8,301.6,344.8z M215.1,330.8h80.6l22.4-130.9
					c-35.8-31.2-89.5-31.2-125.4,0L215.1,330.8z"/>
			</g>
		</g>
	</g>
	<g>
		<g>
			<g>
				<path class="st5" d="M343.9,339.7c-0.8,0-1.5-0.1-2.3-0.4L302.5,326c-3.3-1.1-5.2-4.4-4.6-7.8l18.5-108.4
					c0.4-2.2,1.8-4.1,3.7-5.1s4.3-1,6.3,0l0.6,0.3c41.3-6.6,81.2,19.4,91.6,60.2c0.6,2.4-0.1,5-1.9,6.8l-67.9,65.8
					C347.4,339,345.7,339.7,343.9,339.7z M312.7,314.6l29.4,10l61.9-59.9c-10.1-31.6-42-51.3-74.9-45.9L312.7,314.6z"/>
			</g>
		</g>
	</g>
	<g>
		<g>
			<g>
				<path class="st5" d="M399.1,349.5c-22,0-45.9-19.9-48.7-22.3c-1.5-1.3-2.4-3.1-2.4-5.1s0.7-3.9,2.1-5.2l48.7-47.1
					c2.8-2.7,7.2-2.6,9.8,0.1c0.4,0.4,8.8,9,15,21.1c8.8,17.2,8.8,33,0.1,45.7c-4.9,7.2-11.9,11.5-20.2,12.6
					C402.1,349.4,400.6,349.5,399.1,349.5z M365.7,321.3c9.4,6.7,24.7,15.5,36.1,14c4.5-0.6,7.8-2.7,10.5-6.6
					c10.4-15.2-1.8-34.6-9-43.7L365.7,321.3z"/>
			</g>
		</g>
	</g>
	<g>
		<g>
			<g>
				<path class="st5" d="M168.1,339.7c-1.8,0-3.5-0.7-4.9-2l-67.9-65.8c-1.8-1.7-2.5-4.3-1.9-6.8c10.7-42.1,53.5-69.9,95.3-61.9
					c2.7,0.5,4.8,2.5,5.5,5.1l3.6,13.9c0,0.2,0.1,0.4,0.1,0.6l16.3,95.4c0.6,3.4-1.4,6.7-4.6,7.8l-39.2,13.3
					C169.6,339.5,168.8,339.7,168.1,339.7z M108,264.7l61.9,59.9l29.4-10l-15.3-89.2l-2.4-9.1c-15.4-1.9-31.2,2-44.9,11
					C123,236.4,112.9,249.6,108,264.7z"/>
			</g>
		</g>
	</g>
	<g>
		<g>
			<g>
				<path class="st5" d="M112.9,349.5c-1.5,0-3-0.1-4.4-0.3c-8.3-1.1-15.3-5.5-20.2-12.6c-8.7-12.7-8.7-28.5,0.1-45.7
					c6.2-12.1,14.6-20.7,15-21.1c2.7-2.7,7.1-2.8,9.8-0.1l48.7,47.1c1.4,1.4,2.2,3.3,2.1,5.2s-0.9,3.8-2.4,5.1
					C158.8,329.6,134.9,349.5,112.9,349.5z M108.8,285c-7.2,9.2-19.4,28.6-9,43.7c2.7,3.9,6,6.1,10.5,6.6c11.4,1.5,26.7-7.3,36.1-14
					L108.8,285z"/>
			</g>
		</g>
	</g>
	<g>
		<g>
			<g>
				<path class="st0" d="M293,218.7c-20.5-13.9-35.9-11.9-36.5-11.9l-2.1-13.8c0.9-0.1,21.1-3.1,46.5,14.1L293,218.7z"/>
			</g>
		</g>
	</g>
</g>
</svg>
