<?xml version="1.0" encoding="utf-8"?>
<!-- Generator: Adobe Illustrator 21.1.0, SVG Export Plug-In . SVG Version: 6.00 Build 0)  -->
<svg version="1.1" id="Icon_Set" xmlns="http://www.w3.org/2000/svg" xmlns:xlink="http://www.w3.org/1999/xlink" x="0px" y="0px"
	 viewBox="0 0 512 512" style="enable-background:new 0 0 512 512;" xml:space="preserve">
<style type="text/css">
	.st0{fill:#FFFFFF;}
	.st1{fill:#5B7C31;}
	.st2{fill:#E56823;}
	.st3{fill:#FE8E46;}
	.st4{fill:#7DAC51;}
	.st5{fill:#463218;}
	.st6{fill:#FEFE71;}
	.st7{fill:#D6CD1E;}
	.st8{fill:none;stroke:#FFFFFF;stroke-width:14;stroke-miterlimit:10;}
	.st9{fill:none;stroke:#463218;stroke-width:14;stroke-linecap:round;stroke-linejoin:round;stroke-miterlimit:10;}
</style>
<g id="Cupcake">
	<g>
		<g>
			<g>
				<polygon class="st3" points="324.2,397.4 187.8,397.4 160.8,264.1 351.2,264.1 				"/>
			</g>
		</g>
	</g>
	<g>
		<g>
			<g>
				<polygon class="st2" points="160.8,264.1 187.8,397.4 251.2,397.4 224.3,264.1 				"/>
			</g>
		</g>
	</g>
	<g>
		<g>
			<g>
				<path class="st6" d="M337.4,264.1c0.4-3.1,0.6-6.3,0.6-9.5c0-45.3-36.7-82-82-82s-82,36.7-82,82c0,3.2,0.2,6.4,0.6,9.5H337.4z"
					/>
			</g>
		</g>
	</g>
	<g>
		<g>
			<g>
				<path class="st7" d="M285.1,177.9c-9-3.4-18.8-5.3-29.1-5.3c-45.3,0-82,36.7-82,82c0,3.2,0.2,6.4,0.6,9.5h58.1
					c-0.4-3.1-0.6-6.3-0.6-9.5C232.1,219.6,254.1,189.7,285.1,177.9z"/>
			</g>
		</g>
	</g>
	<g>
		<g>
			<g>
				<path class="st5" d="M324.2,404.4H187.8c-3.3,0-6.2-2.3-6.9-5.6l-27-133.2c-0.4-2.1,0.1-4.2,1.4-5.8s3.3-2.6,5.4-2.6h190.4
					c2.1,0,4.1,0.9,5.4,2.6s1.9,3.8,1.4,5.8l-27,133.2C330.4,402,327.6,404.4,324.2,404.4z M193.5,390.4h125l24.1-119.2H169.4
					L193.5,390.4z"/>
			</g>
		</g>
	</g>
	<g>
		<g>
			<g>
				<polygon class="st4" points="333.7,350.7 342.9,305.3 169.1,305.3 178.3,350.7 				"/>
			</g>
		</g>
	</g>
	<g>
		<g>
			<g>
				<polygon class="st1" points="169.1,305.3 178.3,350.7 241.8,350.7 232.6,305.3 				"/>
			</g>
		</g>
	</g>
	<g>
		<g>
			<g>
				<path class="st5" d="M333.7,357.7H178.3c-3.3,0-6.2-2.3-6.9-5.6l-9.2-45.4c-0.4-2.1,0.1-4.2,1.4-5.8s3.3-2.6,5.4-2.6h173.7
					c2.1,0,4.1,0.9,5.4,2.6s1.9,3.8,1.4,5.8l-9.2,45.4C339.9,355.3,337,357.7,333.7,357.7z M184,343.7H328l6.3-31.4H177.7L184,343.7
					z"/>
			</g>
		</g>
	</g>
	<g>
		<g>
			<g>
				<path class="st5" d="M337.4,271.1H174.6c-3.6,0-6.5-2.7-7-6.2c-0.4-3.5-0.6-7-0.6-10.3c0-49.1,39.9-89,89-89s89,39.9,89,89
					c0,3.3-0.2,6.8-0.6,10.3C344,268.4,341,271.1,337.4,271.1z M181.1,257.1h149.9c0-0.9,0-1.7,0-2.5c0-41.3-33.6-75-75-75
					s-75,33.6-75,75C181,255.4,181,256.3,181.1,257.1z"/>
			</g>
		</g>
	</g>
	<g>
		<g>
			<g>
				<path class="st4" d="M192.5,232.4c-17.5,0-31.7,14.2-31.7,31.7h63.5C224.3,246.6,210.1,232.4,192.5,232.4z"/>
			</g>
		</g>
	</g>
	<g>
		<g>
			<g>
				<path class="st1" d="M256,232.4c-17.5,0-31.7,14.2-31.7,31.7h63.5C287.7,246.6,273.5,232.4,256,232.4z"/>
			</g>
		</g>
	</g>
	<g>
		<g>
			<g>
				<path class="st4" d="M319.5,232.4c-17.5,0-31.7,14.2-31.7,31.7h63.5C351.2,246.6,337,232.4,319.5,232.4z"/>
			</g>
		</g>
	</g>
	<g>
		<g>
			<g>
				<path class="st5" d="M224.3,271.1h-63.5c-3.9,0-7-3.1-7-7c0-21.4,17.4-38.7,38.7-38.7s38.7,17.4,38.7,38.7
					C231.3,268,228.1,271.1,224.3,271.1z M168.8,257.1h47.4c-3-10.2-12.5-17.7-23.7-17.7S171.8,246.9,168.8,257.1z"/>
			</g>
		</g>
	</g>
	<g>
		<g>
			<g>
				<path class="st5" d="M287.7,271.1h-63.5c-3.9,0-7-3.1-7-7c0-21.4,17.4-38.7,38.7-38.7s38.7,17.4,38.7,38.7
					C294.7,268,291.6,271.1,287.7,271.1z M232.3,257.1h47.4c-3-10.2-12.5-17.7-23.7-17.7S235.3,246.9,232.3,257.1z"/>
			</g>
		</g>
	</g>
	<g>
		<g>
			<g>
				<path class="st5" d="M351.2,271.1h-63.5c-3.9,0-7-3.1-7-7c0-21.4,17.4-38.7,38.7-38.7s38.7,17.4,38.7,38.7
					C358.2,268,355.1,271.1,351.2,271.1z M295.7,257.1h47.4c-3-10.2-12.5-17.7-23.7-17.7S298.8,246.9,295.7,257.1z"/>
			</g>
		</g>
	</g>
	<g>
		<g>
			<g>
				
					<ellipse transform="matrix(6.722421e-02 -0.9977 0.9977 6.722421e-02 77.8615 405.8727)" class="st3" cx="256" cy="161.3" rx="24.7" ry="24.7"/>
			</g>
		</g>
	</g>
	<g>
		<g>
			<g>
				<path class="st5" d="M256,193c-0.7,0-1.4,0-2.2-0.1c-17.4-1.2-30.7-16.3-29.5-33.8c1.2-17.4,16.3-30.7,33.8-29.5
					c17.4,1.2,30.7,16.3,29.5,33.8v0c-0.6,8.4-4.4,16.2-10.8,21.7C271,190.3,263.7,193,256,193z M256,143.6c-9.2,0-17,7.2-17.6,16.5
					c-0.7,9.7,6.7,18.2,16.5,18.8c4.7,0.3,9.3-1.2,12.8-4.3c3.6-3.1,5.7-7.4,6-12.1c0,0,0,0,0,0c0.3-4.7-1.2-9.3-4.3-12.8
					c-3.1-3.6-7.4-5.7-12.1-6C256.8,143.6,256.4,143.6,256,143.6z"/>
			</g>
		</g>
	</g>
	<g>
		<g>
			<g>
				<path class="st5" d="M256,154.6C256,154.6,256,154.6,256,154.6c-3.9,0-7-3.2-7-7.1c0-0.3,0.1-8.2,1.9-16.6
					c2.9-13.1,8.5-20.9,16.7-23.1c3.7-1,7.6,1.2,8.6,5c1,3.7-1.2,7.6-5,8.6c-4.7,1.3-8.1,14.9-8.2,26.3
					C263,151.5,259.8,154.6,256,154.6z"/>
			</g>
		</g>
	</g>
	<g>
		<g>
			<g>
				<rect x="280.6" y="278.6" class="st0" width="38.9" height="14"/>
			</g>
		</g>
	</g>
</g>
</svg>
