<?xml version="1.0" encoding="utf-8"?>
<!-- Generator: Adobe Illustrator 21.1.0, SVG Export Plug-In . SVG Version: 6.00 Build 0)  -->
<svg version="1.1" id="Icon_Set" xmlns="http://www.w3.org/2000/svg" xmlns:xlink="http://www.w3.org/1999/xlink" x="0px" y="0px"
	 viewBox="0 0 512 512" style="enable-background:new 0 0 512 512;" xml:space="preserve">
<style type="text/css">
	.st0{fill:#FFFFFF;}
	.st1{fill:#5B7C31;}
	.st2{fill:#E56823;}
	.st3{fill:#FE8E46;}
	.st4{fill:#7DAC51;}
	.st5{fill:#463218;}
	.st6{fill:#FEFE71;}
	.st7{fill:#D6CD1E;}
	.st8{fill:none;stroke:#FFFFFF;stroke-width:14;stroke-miterlimit:10;}
	.st9{fill:none;stroke:#463218;stroke-width:14;stroke-linecap:round;stroke-linejoin:round;stroke-miterlimit:10;}
</style>
<g id="Curry_Rice">
	<g>
		<g>
			<g>
				<rect x="144.9" y="312.8" class="st1" width="222.2" height="26"/>
			</g>
		</g>
	</g>
	<g>
		<g>
			<g>
				<path class="st4" d="M387.6,312.8H124.4c-19.3,0-35-15.7-35-35v0h333.3v0C422.7,297.1,407,312.8,387.6,312.8z"/>
			</g>
		</g>
	</g>
	<g>
		<g>
			<g>
				<path class="st1" d="M200.4,277.8L200.4,277.8H89.3l0,0c0,19.3,15.7,35,35,35h111.1C216.1,312.8,200.4,297.1,200.4,277.8z"/>
			</g>
		</g>
	</g>
	<g>
		<g>
			<g>
				<path class="st6" d="M112.9,277.7c0,0,17.3-104.5,142.4-104.5s143.8,104.5,143.8,104.5H112.9z"/>
			</g>
		</g>
	</g>
	<g>
		<g>
			<g>
				<path class="st7" d="M361.2,256l-15-1.6c-3.3-0.3-5.7-3.3-5.3-6.6v0c0.3-3.3,3.3-5.7,6.6-5.3l15,1.6c3.3,0.3,5.7,3.3,5.3,6.6v0
					C367.4,254,364.5,256.4,361.2,256z"/>
			</g>
		</g>
	</g>
	<g>
		<g>
			<g>
				<path class="st7" d="M289.8,251.7l-8.1,12.8c-1.8,2.8-5.5,3.6-8.3,1.8l0,0c-2.8-1.8-3.6-5.5-1.8-8.3l8.1-12.8
					c1.8-2.8,5.5-3.6,8.3-1.8l0,0C290.7,245.2,291.6,248.9,289.8,251.7z"/>
			</g>
		</g>
	</g>
	<g>
		<g>
			<g>
				<path class="st7" d="M324.5,258.9l-8.9-12.2c-1.9-2.7-1.4-6.4,1.3-8.4l0,0c2.7-1.9,6.4-1.4,8.4,1.3l8.9,12.2
					c1.9,2.7,1.4,6.4-1.3,8.4h0C330.2,262.2,326.5,261.6,324.5,258.9z"/>
			</g>
		</g>
	</g>
	<g>
		<g>
			<g>
				<path class="st7" d="M230.7,263.6l-13.6-6.5c-3-1.4-4.2-5-2.8-8l0,0c1.4-3,5-4.2,8-2.8l13.6,6.5c3,1.4,4.2,5,2.8,8l0,0
					C237.2,263.7,233.7,265,230.7,263.6z"/>
			</g>
		</g>
	</g>
	<g>
		<g>
			<g>
				<path class="st7" d="M296.6,177.6c-12.3-2.8-26-4.3-41.3-4.3c-125,0-142.4,104.5-142.4,104.5h82.6
					C195.5,277.7,208.9,197.3,296.6,177.6z"/>
			</g>
		</g>
	</g>
	<g>
		<g>
			<g>
				<path class="st5" d="M387.6,319.8H124.4c-23.2,0-42-18.9-42-42c0-3.9,3.1-7,7-7h333.3c3.9,0,7,3.1,7,7
					C429.7,300.9,410.8,319.8,387.6,319.8z M97.2,284.8c3.1,12.1,14.1,21,27.1,21h263.3c13,0,24-8.9,27.1-21H97.2z"/>
			</g>
		</g>
	</g>
	<g>
		<g>
			<g>
				<path class="st5" d="M367.1,345.7H144.9c-3.9,0-7-3.1-7-7v-26c0-3.9,3.1-7,7-7h222.2c3.9,0,7,3.1,7,7v26
					C374.1,342.6,371,345.7,367.1,345.7z M151.9,331.7h208.2v-12H151.9V331.7z"/>
			</g>
		</g>
	</g>
	<g>
		<g>
			<g>
				<path class="st5" d="M399.1,284.7H112.9c-2.1,0-4-0.9-5.3-2.5s-1.9-3.6-1.6-5.7c0.2-1.1,4.9-28.1,25.6-55.3
					c19.2-25.1,56.2-55,123.6-55c67.4,0,104.8,29.9,124.3,54.9c21.1,27.2,26.2,54.2,26.4,55.3c0.4,2-0.2,4.1-1.5,5.7
					S401.2,284.7,399.1,284.7z M121.8,270.7H390c-2.9-9.4-9.3-25.5-21.8-41.4c-25.6-32.5-63.6-49-112.9-49
					c-49.6,0-87.4,16.6-112.5,49.5C130.6,245.6,124.6,261.5,121.8,270.7z"/>
			</g>
		</g>
	</g>
	<g>
		<g>
			<g>
				<path class="st3" d="M256,245.9c43.5,0,81.9-13.8,104.9-34.9c-21.6-20.5-54.9-37.8-105.7-37.8c-50.5,0-83.4,17-104.7,37.3
					C173.6,231.9,212.2,245.9,256,245.9z"/>
			</g>
		</g>
	</g>
	<g>
		<g>
			<g>
				<path class="st2" d="M198.5,233.2c21.3-20.3,54.2-37.3,104.7-37.3c17.5,0,33,2.1,46.6,5.6c-21.4-16.1-51.7-28.3-94.5-28.3
					c-50.5,0-83.4,17-104.7,37.3c13.7,12.7,32.8,22.8,55.3,28.9C203.3,237.4,200.8,235.4,198.5,233.2z"/>
			</g>
		</g>
	</g>
	<g>
		<g>
			<g>
				<path class="st5" d="M256,252.9c-43.9,0-85.1-13.9-110.2-37.3c-1.4-1.3-2.2-3.2-2.2-5.1c0-1.9,0.8-3.8,2.2-5.1
					c27.4-26,64.2-39.2,109.5-39.2c45.6,0,82.8,13.4,110.5,39.7c1.4,1.3,2.2,3.2,2.2,5.1c0,1.9-0.8,3.8-2.3,5.1
					C340.6,239.2,299.6,252.9,256,252.9z M161.2,210.4c22.9,18,57.7,28.5,94.8,28.5c36.8,0,71.3-10.4,94.2-28.1
					c-24.4-20.3-56.3-30.6-95-30.6C216.9,180.3,185.3,190.4,161.2,210.4z"/>
			</g>
		</g>
	</g>
	<g>
		<g>
			<g>
				<path class="st0" d="M195.2,219.2l-9.6-10.2c0.6-0.6,14.5-13.6,42-18l2.2,13.8C206.9,208.6,195.3,219.1,195.2,219.2z"/>
			</g>
		</g>
	</g>
</g>
</svg>
