<?xml version="1.0" encoding="utf-8"?>
<!-- Generator: Adobe Illustrator 21.1.0, SVG Export Plug-In . SVG Version: 6.00 Build 0)  -->
<svg version="1.1" id="Icon_Set" xmlns="http://www.w3.org/2000/svg" xmlns:xlink="http://www.w3.org/1999/xlink" x="0px" y="0px"
	 viewBox="0 0 512 512" style="enable-background:new 0 0 512 512;" xml:space="preserve">
<style type="text/css">
	.st0{fill:#FFFFFF;}
	.st1{fill:#5B7C31;}
	.st2{fill:#E56823;}
	.st3{fill:#FE8E46;}
	.st4{fill:#7DAC51;}
	.st5{fill:#463218;}
	.st6{fill:#FEFE71;}
	.st7{fill:#D6CD1E;}
	.st8{fill:none;stroke:#FFFFFF;stroke-width:14;stroke-miterlimit:10;}
	.st9{fill:none;stroke:#463218;stroke-width:14;stroke-linecap:round;stroke-linejoin:round;stroke-miterlimit:10;}
</style>
<g id="Dairy_Free">
	<g>
		<g>
			<g>
				<g>
					<rect x="265.8" y="194.4" class="st6" width="64" height="185.4"/>
				</g>
			</g>
		</g>
		<g>
			<g>
				<g>
					<rect x="147.8" y="194.4" class="st7" width="118" height="185.4"/>
				</g>
			</g>
		</g>
		<g>
			<g>
				<g>
					<polygon class="st6" points="147.8,379.7 206.8,328.5 265.8,379.7 					"/>
				</g>
			</g>
		</g>
		<g>
			<g>
				<g>
					<polygon class="st7" points="206.8,147.3 147.8,194.4 265.8,194.4 					"/>
				</g>
			</g>
		</g>
		<g>
			<g>
				<g>
					<rect x="206.8" y="114.6" class="st3" width="61.5" height="32.7"/>
				</g>
			</g>
		</g>
		<g>
			<g>
				<g>
					<polygon class="st6" points="270.8,147.3 206.8,147.3 265.8,194.4 329.8,194.4 					"/>
				</g>
			</g>
		</g>
		<g>
			<g>
				<g>
					<path class="st5" d="M265.8,386.7h-118c-3.9,0-7-3.1-7-7V194.4c0-3.9,3.1-7,7-7h118c3.9,0,7,3.1,7,7v185.4
						C272.8,383.6,269.7,386.7,265.8,386.7z M154.8,372.7h104V201.4h-104V372.7z"/>
				</g>
			</g>
		</g>
		<g>
			<g>
				<g>
					<path class="st5" d="M329.8,386.7h-64c-3.9,0-7-3.1-7-7V194.4c0-3.9,3.1-7,7-7h64c3.9,0,7,3.1,7,7v185.4
						C336.8,383.6,333.6,386.7,329.8,386.7z M272.8,372.7h50V201.4h-50V372.7z"/>
				</g>
			</g>
		</g>
		<g>
			<g>
				<g>
					<path class="st5" d="M265.8,201.4h-118c-3,0-5.6-1.9-6.6-4.7c-1-2.8-0.1-5.9,2.2-7.8l59-47c2.6-2,6.2-2,8.7,0l59,47
						c2.3,1.9,3.2,5,2.2,7.8C271.4,199.5,268.8,201.4,265.8,201.4z M167.8,187.4h78l-39-31.1L167.8,187.4z"/>
				</g>
			</g>
		</g>
		<g>
			<g>
				<g>
					<path class="st5" d="M329.8,201.4h-64c-1.6,0-3.1-0.5-4.4-1.5l-59-47c-2.3-1.9-3.2-5-2.2-7.8c1-2.8,3.6-4.7,6.6-4.7h64
						c1.6,0,3.1,0.5,4.4,1.5l59,47c2.3,1.9,3.2,5,2.2,7.8C335.4,199.5,332.7,201.4,329.8,201.4z M268.2,187.4h41.5l-41.4-33h-41.5
						L268.2,187.4z"/>
				</g>
			</g>
		</g>
		<g>
			<g>
				<g>
					<path class="st5" d="M268.3,154.3h-61.5c-3.9,0-7-3.1-7-7v-32.7c0-3.9,3.1-7,7-7h61.5c3.9,0,7,3.1,7,7v32.7
						C275.3,151.2,272.2,154.3,268.3,154.3z M213.8,140.3h47.5v-18.7h-47.5V140.3z"/>
				</g>
			</g>
		</g>
		<g>
			<g>
				<g>
					<rect x="167" y="215" class="st0" width="14" height="57.7"/>
				</g>
			</g>
		</g>
		<g>
			<g>
				<g>
					<path class="st5" d="M147.8,386.7c-2,0-3.9-0.8-5.3-2.4c-2.5-2.9-2.2-7.3,0.7-9.9l56.6-49.1v-52.6c0-3.9,3.1-7,7-7s7,3.1,7,7
						v55.8c0,2-0.9,4-2.4,5.3l-59,51.2C151.1,386.2,149.4,386.7,147.8,386.7z"/>
				</g>
			</g>
		</g>
		<g>
			<g>
				<g>
					<path class="st5" d="M265.8,386.7c-1.6,0-3.3-0.6-4.6-1.7l-59-51.2c-2.9-2.5-3.2-7-0.7-9.9s7-3.2,9.9-0.7l59,51.2
						c2.9,2.5,3.2,7,0.7,9.9C269.7,385.9,267.8,386.7,265.8,386.7z"/>
				</g>
			</g>
		</g>
	</g>
	<g>
		<g>
			<g>
				<g>
					<circle class="st2" cx="305.6" cy="338.8" r="58.6"/>
				</g>
			</g>
		</g>
		<g>
			<g>
				<g>
					<g>
						<path class="st5" d="M329.4,370c-1.8,0-3.6-0.7-5-2.1c-17.9-18-45.1-45.3-47.6-47.6c-1.5-1.3-2.4-3.2-2.4-5.3c0-3.9,3.1-7,7-7
							c2.9,0,4.1,1.2,7,4.1c1.3,1.3,3.2,3.2,5.5,5.5c4.5,4.5,10.5,10.5,16.5,16.5c12,12,23.9,24,23.9,24c2.7,2.7,2.7,7.2,0,9.9
							C332.9,369.4,331.2,370,329.4,370z M281.4,322.1C281.4,322.1,281.4,322.1,281.4,322.1C281.4,322.1,281.4,322.1,281.4,322.1z
							 M281.4,322.1C281.4,322.1,281.4,322.1,281.4,322.1C281.4,322.1,281.4,322.1,281.4,322.1z M281.3,322.1
							C281.4,322.1,281.4,322.1,281.3,322.1C281.4,322.1,281.4,322.1,281.3,322.1z M281.3,322.1
							C281.3,322.1,281.3,322.1,281.3,322.1C281.3,322.1,281.3,322.1,281.3,322.1z M281.3,322.1
							C281.3,322.1,281.3,322.1,281.3,322.1C281.3,322.1,281.3,322.1,281.3,322.1z M281.3,322.1
							C281.3,322.1,281.3,322.1,281.3,322.1C281.3,322.1,281.3,322.1,281.3,322.1z M281.3,322.1
							C281.3,322.1,281.3,322.1,281.3,322.1C281.3,322.1,281.3,322.1,281.3,322.1z M281.3,322.1
							C281.3,322.1,281.3,322.1,281.3,322.1C281.3,322.1,281.3,322.1,281.3,322.1z M281.3,322C281.3,322,281.3,322,281.3,322
							C281.3,322,281.3,322,281.3,322z"/>
					</g>
				</g>
			</g>
			<g>
				<g>
					<g>
						<path class="st5" d="M281.4,370c-1.8,0-3.6-0.7-4.9-2c-2.7-2.7-2.8-7.2,0-9.9c0,0,11.9-12,23.9-24c6-6,12-12,16.5-16.5
							c2.3-2.3,4.2-4.1,5.5-5.5c2.9-2.9,4.1-4.1,7-4.1c3.9,0,7,3.1,7,7c0,2.1-0.9,4-2.4,5.3c-2.5,2.3-29.7,29.6-47.6,47.6
							C285,369.3,283.2,370,281.4,370z M329.4,322.1C329.4,322.1,329.4,322.1,329.4,322.1C329.4,322.1,329.4,322.1,329.4,322.1z
							 M329.4,322.1C329.4,322.1,329.4,322.1,329.4,322.1C329.4,322.1,329.4,322.1,329.4,322.1z M329.4,322.1
							C329.4,322.1,329.4,322.1,329.4,322.1C329.4,322.1,329.4,322.1,329.4,322.1z M329.4,322.1
							C329.4,322.1,329.4,322.1,329.4,322.1C329.4,322.1,329.4,322.1,329.4,322.1z M329.4,322.1
							C329.4,322.1,329.4,322.1,329.4,322.1C329.4,322.1,329.4,322.1,329.4,322.1z M329.4,322.1
							C329.4,322.1,329.4,322.1,329.4,322.1C329.4,322.1,329.4,322.1,329.4,322.1z M329.4,322.1
							C329.4,322.1,329.4,322.1,329.4,322.1C329.4,322.1,329.4,322.1,329.4,322.1z M329.5,322.1
							C329.5,322.1,329.4,322.1,329.5,322.1C329.4,322.1,329.5,322.1,329.5,322.1z M329.5,322C329.5,322,329.5,322,329.5,322
							C329.5,322,329.5,322,329.5,322z"/>
					</g>
				</g>
			</g>
		</g>
		<g>
			<g>
				<g>
					<path class="st5" d="M305.6,404.4c-36.2,0-65.6-29.4-65.6-65.6s29.4-65.6,65.6-65.6s65.6,29.4,65.6,65.6
						S341.8,404.4,305.6,404.4z M305.6,287.1c-28.5,0-51.6,23.2-51.6,51.6s23.2,51.6,51.6,51.6c28.5,0,51.6-23.2,51.6-51.6
						S334,287.1,305.6,287.1z"/>
				</g>
			</g>
		</g>
	</g>
</g>
</svg>
