<?xml version="1.0" encoding="utf-8"?>
<!-- Generator: Adobe Illustrator 21.1.0, SVG Export Plug-In . SVG Version: 6.00 Build 0)  -->
<svg version="1.1" id="Icon_Set" xmlns="http://www.w3.org/2000/svg" xmlns:xlink="http://www.w3.org/1999/xlink" x="0px" y="0px"
	 viewBox="0 0 512 512" style="enable-background:new 0 0 512 512;" xml:space="preserve">
<style type="text/css">
	.st0{fill:#FFFFFF;}
	.st1{fill:#5B7C31;}
	.st2{fill:#E56823;}
	.st3{fill:#FE8E46;}
	.st4{fill:#7DAC51;}
	.st5{fill:#463218;}
	.st6{fill:#FEFE71;}
	.st7{fill:#D6CD1E;}
	.st8{fill:none;stroke:#FFFFFF;stroke-width:14;stroke-miterlimit:10;}
	.st9{fill:none;stroke:#463218;stroke-width:14;stroke-linecap:round;stroke-linejoin:round;stroke-miterlimit:10;}
</style>
<g id="Dimsum">
	<g>
		<g>
			<g>
				<g>
					<path class="st4" d="M377.1,356.7H134.9c-22.4,0-40.5-18.2-40.5-40.5v0h323.4v0C417.7,338.6,399.5,356.7,377.1,356.7z"/>
				</g>
			</g>
		</g>
		<g>
			<g>
				<g>
					<path class="st1" d="M200.1,316.2L200.1,316.2H94.3l0,0c0,22.4,18.2,40.5,40.5,40.5h105.8C218.2,356.7,200.1,338.6,200.1,316.2
						z"/>
				</g>
			</g>
		</g>
		<g>
			<g>
				<g>
					<path class="st5" d="M377.1,363.7H134.9c-26.2,0-47.5-21.3-47.5-47.5c0-3.9,3.1-7,7-7h323.4c3.9,0,7,3.1,7,7
						C424.7,342.4,403.4,363.7,377.1,363.7z M102.1,323.2c3.2,15.1,16.7,26.5,32.8,26.5h242.3c16.1,0,29.6-11.4,32.8-26.5H102.1z"/>
				</g>
			</g>
		</g>
	</g>
	<g>
		<g>
			<g>
				<g>
					<g>
						<path class="st6" d="M242.9,316.2H129.4v-90.9c0-12.5,10.1-22.6,22.6-22.6h68.3c12.5,0,22.6,10.1,22.6,22.6V316.2z"/>
					</g>
				</g>
			</g>
			<g>
				<g>
					<g>
						<path class="st7" d="M200.1,202.6H152c-12.5,0-22.6,10.1-22.6,22.6v90.9h48.1v-90.9C177.5,212.7,187.6,202.6,200.1,202.6z"/>
					</g>
				</g>
			</g>
			<g>
				<g>
					<g>
						<path class="st5" d="M242.9,323.2H129.4c-3.9,0-7-3.1-7-7v-90.9c0-16.3,13.3-29.6,29.6-29.6h68.3c16.3,0,29.6,13.3,29.6,29.6
							v90.9C249.9,320,246.8,323.2,242.9,323.2z M136.4,309.2h99.6v-83.9c0-8.6-7-15.6-15.6-15.6H152c-8.6,0-15.6,7-15.6,15.6V309.2
							z"/>
					</g>
				</g>
			</g>
			<g>
				<g>
					<g>
						<rect x="129.4" y="247.9" class="st4" width="113.6" height="30.3"/>
					</g>
				</g>
			</g>
			<g>
				<g>
					<g>
						<rect x="129.4" y="247.9" class="st1" width="48.1" height="30.3"/>
					</g>
				</g>
			</g>
			<g>
				<g>
					<g>
						<path class="st5" d="M242.9,285.3H129.4c-3.9,0-7-3.1-7-7v-30.3c0-3.9,3.1-7,7-7h113.6c3.9,0,7,3.1,7,7v30.3
							C249.9,282.1,246.8,285.3,242.9,285.3z M136.4,271.3h99.6v-16.3h-99.6V271.3z"/>
					</g>
				</g>
			</g>
		</g>
		<g>
			<g>
				<g>
					<g>
						<path class="st3" d="M293.8,155.3c0,0-15,32.7-47.8,55.1c-47.6,32.5-68.1,105.7,18.6,105.7H323c86.6,0,66.1-73.2,18.6-105.7
							C308.8,188,293.8,155.3,293.8,155.3z"/>
					</g>
				</g>
			</g>
			<g>
				<g>
					<g>
						<path class="st2" d="M290.9,215.6c11.3-7.7,20.5-16.7,27.7-25.1c-16.9-18-24.8-35.2-24.8-35.2s-15,32.7-47.8,55.1
							c-47.6,32.5-68.1,105.7,18.6,105.7h11.2C230.1,298.9,250.9,242.9,290.9,215.6z"/>
					</g>
				</g>
			</g>
			<g>
				<g>
					<g>
						<path class="st5" d="M323,323.2h-58.5c-17.9,0-32.6-3-43.6-9c-10.5-5.7-17.8-14.2-21-24.7c-8.2-26.3,10-62.8,42.1-84.8
							c30.8-21.1,45.2-52,45.4-52.3c1.1-2.5,3.6-4.1,6.4-4.1c2.7,0,5.2,1.6,6.4,4.1l0,0c0.1,0.3,14.7,31.3,45.4,52.3
							c32.2,22,50.3,58.5,42.1,84.8c-3.2,10.5-10.5,19-21,24.7C355.6,320.1,341,323.2,323,323.2z M293.8,169.7
							c-7.5,12.1-21.8,31.4-43.8,46.5c-26.4,18.1-42.9,49.1-36.7,69.1c3.4,10.9,15,23.8,51.3,23.8H323c36.3,0,47.9-13,51.3-23.8
							c6.2-20-10.2-51.1-36.7-69.1C315.6,201.1,301.3,181.8,293.8,169.7z"/>
					</g>
				</g>
			</g>
			<g>
				<g>
					<g>
						<path class="st5" d="M269.9,238.2c-1.8,0-3.6-0.7-5-2.1c-2.7-2.8-2.6-7.2,0.1-9.9c11.6-11.3,16.9-29.8,19.3-43.3
							c2.7-15.1,2.5-27.3,2.5-27.5c-0.1-3.9,3-7.1,6.8-7.1c3.9-0.1,7.1,3,7.1,6.8c0,2.2,0.9,54.9-26,81.1
							C273.5,237.6,271.7,238.2,269.9,238.2z"/>
					</g>
				</g>
			</g>
			<g>
				<g>
					<g>
						<path class="st5" d="M317.6,238.2c-1.8,0-3.5-0.7-4.9-2c-26.8-26.2-26-78.9-26-81.1c0.1-3.9,3.3-6.9,7.1-6.8
							c3.9,0.1,6.9,3.3,6.8,7.1l0,0c0,0.5-0.7,48.9,21.7,70.8c2.8,2.7,2.8,7.1,0.1,9.9C321.3,237.5,319.5,238.2,317.6,238.2z"/>
					</g>
				</g>
			</g>
			<g>
				<g>
					<g>
						<path class="st0" d="M318.1,285.3h-7.6v-14h7.6c9.9,0,18-8.1,18-18h14C350.1,270.9,335.8,285.3,318.1,285.3z"/>
					</g>
				</g>
			</g>
		</g>
	</g>
</g>
</svg>
