<?xml version="1.0" encoding="utf-8"?>
<!-- Generator: Adobe Illustrator 21.1.0, SVG Export Plug-In . SVG Version: 6.00 Build 0)  -->
<svg version="1.1" id="Icon_Set" xmlns="http://www.w3.org/2000/svg" xmlns:xlink="http://www.w3.org/1999/xlink" x="0px" y="0px"
	 viewBox="0 0 512 512" style="enable-background:new 0 0 512 512;" xml:space="preserve">
<style type="text/css">
	.st0{fill:#FFFFFF;}
	.st1{fill:#5B7C31;}
	.st2{fill:#E56823;}
	.st3{fill:#FE8E46;}
	.st4{fill:#7DAC51;}
	.st5{fill:#463218;}
	.st6{fill:#FEFE71;}
	.st7{fill:#D6CD1E;}
	.st8{fill:none;stroke:#FFFFFF;stroke-width:14;stroke-miterlimit:10;}
	.st9{fill:none;stroke:#463218;stroke-width:14;stroke-linecap:round;stroke-linejoin:round;stroke-miterlimit:10;}
</style>
<g id="Donut">
	<g>
		<g>
			<g>
				<path class="st3" d="M256,114.4c-78.2,0-141.6,63.4-141.6,141.6S177.8,397.6,256,397.6S397.6,334.2,397.6,256
					S334.2,114.4,256,114.4z M256,307.2c-28.3,0-51.2-22.9-51.2-51.2s22.9-51.2,51.2-51.2s51.2,22.9,51.2,51.2
					S284.3,307.2,256,307.2z"/>
			</g>
		</g>
	</g>
	<g>
		<g>
			<g>
				<path class="st2" d="M256,137.6c-65.4,0-118.4,53-118.4,118.4s53,118.4,118.4,118.4s118.4-53,118.4-118.4S321.4,137.6,256,137.6
					z M256,307.2c-28.3,0-51.2-22.9-51.2-51.2s22.9-51.2,51.2-51.2s51.2,22.9,51.2,51.2S284.3,307.2,256,307.2z"/>
			</g>
		</g>
	</g>
	<g>
		<g>
			<g>
				<path class="st6" d="M256,164.6c-50.5,0-91.4,40.9-91.4,91.4s40.9,91.4,91.4,91.4s91.4-40.9,91.4-91.4S306.5,164.6,256,164.6z
					 M256,307.2c-28.3,0-51.2-22.9-51.2-51.2s22.9-51.2,51.2-51.2s51.2,22.9,51.2,51.2S284.3,307.2,256,307.2z"/>
			</g>
		</g>
	</g>
	<g>
		<g>
			<g>
				<path class="st0" d="M256,314.2c-32.1,0-58.2-26.1-58.2-58.2c0-32.1,26.1-58.2,58.2-58.2s58.2,26.1,58.2,58.2
					C314.2,288.1,288.1,314.2,256,314.2z M256,211.8c-24.4,0-44.2,19.8-44.2,44.2c0,24.4,19.8,44.2,44.2,44.2s44.2-19.8,44.2-44.2
					C300.2,231.6,280.4,211.8,256,211.8z M356.5,207.9c-8.4-17.4-21.2-32.5-37.2-43.5l8-11.5c17.9,12.4,32.4,29.4,41.8,49
					L356.5,207.9z"/>
			</g>
		</g>
	</g>
	<g>
		<g>
			<g>
				<path class="st5" d="M256,404.6c-82,0-148.6-66.7-148.6-148.6S174,107.4,256,107.4S404.6,174,404.6,256S338,404.6,256,404.6z
					 M256,121.4c-74.2,0-134.6,60.4-134.6,134.6S181.8,390.6,256,390.6S390.6,330.2,390.6,256S330.2,121.4,256,121.4z M256,321.7
					c-36.2,0-65.7-29.5-65.7-65.7s29.5-65.7,65.7-65.7s65.7,29.5,65.7,65.7S292.2,321.7,256,321.7z M256,204.3
					c-28.5,0-51.7,23.2-51.7,51.7s23.2,51.7,51.7,51.7s51.7-23.2,51.7-51.7S284.5,204.3,256,204.3z"/>
			</g>
		</g>
	</g>
	<g>
		<g>
			<g>
				<path class="st5" d="M228,180.1c-2.3,0-4.5-1.1-5.8-3.1l-11.4-17.2c-2.1-3.2-1.3-7.6,1.9-9.7c3.2-2.1,7.6-1.3,9.7,1.9l11.4,17.2
					c2.1,3.2,1.3,7.6-1.9,9.7C230.6,179.7,229.3,180.1,228,180.1z"/>
			</g>
		</g>
	</g>
	<g>
		<g>
			<g>
				<path class="st5" d="M147.1,244.8c-2.9,0-5.6-1.8-6.6-4.7c-1.3-3.6,0.6-7.6,4.3-8.9l22.4-7.9c3.6-1.3,7.6,0.6,8.9,4.3
					c1.3,3.6-0.6,7.6-4.3,8.9l-22.4,7.9C148.6,244.7,147.8,244.8,147.1,244.8z"/>
			</g>
		</g>
	</g>
	<g>
		<g>
			<g>
				<path class="st5" d="M182.8,332.6c-1.3,0-2.6-0.3-3.7-1.1c-3.3-2-4.3-6.4-2.2-9.6l9.2-14.6c2-3.3,6.4-4.3,9.6-2.2
					c3.3,2,4.3,6.4,2.2,9.6l-9.2,14.6C187.4,331.4,185.1,332.6,182.8,332.6z"/>
			</g>
		</g>
	</g>
	<g>
		<g>
			<g>
				<path class="st5" d="M347.4,263c-2.2,0-4.3-1-5.7-2.9c-2.3-3.1-1.6-7.5,1.6-9.8l18.7-13.5c3.1-2.3,7.5-1.6,9.8,1.6
					c2.3,3.1,1.6,7.5-1.6,9.8l-18.7,13.5C350.3,262.6,348.9,263,347.4,263z"/>
			</g>
		</g>
	</g>
	<g>
		<g>
			<g>
				<path class="st5" d="M311.3,349.6c-2.2,0-4.4-1.1-5.8-3.1l-10.4-15.3c-2.2-3.2-1.3-7.6,1.9-9.7c3.2-2.2,7.6-1.3,9.7,1.9
					l10.4,15.3c2.2,3.2,1.3,7.6-1.9,9.7C314,349.2,312.7,349.6,311.3,349.6z"/>
			</g>
		</g>
	</g>
	<g>
		<g>
			<g>
				<path class="st5" d="M296.6,186.7c-1.3,0-2.6-0.4-3.8-1.1c-3.2-2.1-4.2-6.4-2-9.7l8.7-13.3c2.1-3.2,6.4-4.2,9.7-2
					c3.2,2.1,4.2,6.4,2,9.7l-8.7,13.3C301.1,185.6,298.9,186.7,296.6,186.7z"/>
			</g>
		</g>
	</g>
</g>
</svg>
