<?xml version="1.0" encoding="utf-8"?>
<!-- Generator: Adobe Illustrator 22.1.0, SVG Export Plug-In . SVG Version: 6.00 Build 0)  -->
<svg version="1.1" id="Layer_1" xmlns="http://www.w3.org/2000/svg" xmlns:xlink="http://www.w3.org/1999/xlink" x="0px" y="0px"
	 viewBox="0 0 256 256" style="enable-background:new 0 0 256 256;" xml:space="preserve">
<style type="text/css">
	.st0{fill:#F5B31F;}
	.st1{fill:none;stroke:#464646;stroke-width:8;stroke-linecap:round;stroke-linejoin:round;stroke-miterlimit:10;}
	.st2{opacity:0.15;fill:#464646;}
	.st3{fill:#AC6535;}
	.st4{fill:#EB573B;}
	.st5{fill:#90C056;}
	.st6{opacity:0.35;fill:#FFFFFF;}
	.st7{opacity:0.2;fill:#FFFFFF;}
	.st8{fill:#F6D67A;}
	.st9{opacity:0.15;fill:#FFFFFF;}
	.st10{opacity:0.3;fill:#FFFFFF;}
	.st11{fill:#AC6535;stroke:#464646;stroke-width:8;stroke-linecap:round;stroke-linejoin:round;stroke-miterlimit:10;}
	.st12{fill:#EB573B;stroke:#464646;stroke-width:8;stroke-miterlimit:10;}
	.st13{opacity:0.15;}
	.st14{fill:#464646;}
	.st15{fill:#FFA755;}
	.st16{fill:#8FAE3C;}
	.st17{fill:#BE6BB2;}
	.st18{fill:#B7C536;}
	.st19{opacity:0.1;}
	.st20{fill:#9D5A96;}
	.st21{fill:#EA615D;}
	.st22{opacity:0.4;fill:#FFFFFF;}
	.st23{opacity:7.000000e-02;}
	.st24{fill:#F79932;}
	.st25{fill:#FFEC97;}
	.st26{fill:#FFD11D;}
	.st27{opacity:0.2;}
	.st28{fill:#FFFFFF;}
	.st29{fill:#F7F2D5;}
	.st30{fill:#F6AF72;}
	.st31{fill:#BA6C45;}
	.st32{opacity:0.5;fill:#FFFFFF;}
	.st33{fill:#E4C074;}
	.st34{fill:none;stroke:#656566;stroke-width:8;stroke-linecap:round;stroke-linejoin:round;stroke-miterlimit:10;}
	.st35{fill:#FFA755;stroke:#464646;stroke-width:8;stroke-linecap:round;stroke-linejoin:round;stroke-miterlimit:10;}
	.st36{fill:#FFD11D;stroke:#464646;stroke-width:8;stroke-linecap:round;stroke-linejoin:round;stroke-miterlimit:10;}
	.st37{fill:#FACD1F;}
	.st38{fill:#FFDF66;}
	.st39{fill:#FFEC97;stroke:#464646;stroke-width:8;stroke-linecap:round;stroke-linejoin:round;stroke-miterlimit:10;}
	.st40{fill:#FFDF66;stroke:#464646;stroke-width:8;stroke-linecap:round;stroke-linejoin:round;stroke-miterlimit:10;}
	.st41{opacity:0.2;fill:#464646;}
	.st42{fill:#FFFFFF;stroke:#464646;stroke-width:8;stroke-linecap:round;stroke-linejoin:round;stroke-miterlimit:10;}
	.st43{fill:#6D6E71;stroke:#464646;stroke-width:8;stroke-linecap:round;stroke-linejoin:round;stroke-miterlimit:10;}
	.st44{opacity:0.1;fill:#464646;}
	.st45{fill:#E77CAE;}
	.st46{fill:#FFE5C4;}
	.st47{fill:#F68455;stroke:#464646;stroke-width:8;stroke-linecap:round;stroke-linejoin:round;stroke-miterlimit:10;}
	.st48{opacity:0.7;}
	.st49{fill:#ADEDFF;}
	.st50{fill:#EC754B;}
	.st51{fill:#4AA5BA;}
	.st52{opacity:0.5;}
	.st53{opacity:0.8;}
	.st54{fill:#F68455;}
	.st55{fill:#92A5AC;}
	.st56{fill:#6D6E71;}
	.st57{fill:#D06E3C;}
	.st58{fill:#DA4F4B;}
	.st59{fill:#BDF3FF;}
	.st60{fill:#F18BB4;}
	.st61{fill:#F9D97A;}
	.st62{fill:none;}
	.st63{fill:#AF6535;}
	.st64{fill:#B93226;}
	.st65{fill:#FF6050;}
	.st66{fill:#D06E3C;stroke:#464646;stroke-miterlimit:10;}
	.st67{fill:#EA7CB1;}
	.st68{fill:none;stroke:#6D6E71;stroke-width:10;stroke-linecap:round;stroke-linejoin:round;stroke-miterlimit:10;}
	.st69{fill:#00B0E0;}
	.st70{fill:#EA7DAE;}
	.st71{opacity:0.1;fill:#FFFFFF;}
	.st72{fill:#BC7532;}
	.st73{fill:#876C6C;}
	.st74{fill:#F9F6CD;}
	.st75{fill:#FFE37B;}
	.st76{fill:#1DDCFF;}
	.st77{fill:#60ACF7;}
	.st78{fill:#C3755A;}
	.st79{fill:#96557A;}
	.st80{fill:#66625D;}
	.st81{fill:#D68032;}
	.st82{opacity:0.8;fill:#FFFFFF;}
	.st83{fill:#F2A355;}
	.st84{fill:#7E9E6A;}
	.st85{opacity:0.3;}
	.st86{fill:#965A85;}
	.st87{opacity:0.7;fill:#FFFFFF;}
	.st88{fill:#90CAD3;}
	.st89{fill:#94B57F;}
	.st90{fill:#B2E2E7;}
	.st91{fill:#FFDF8F;}
	.st92{fill:#FFFAEB;}
	.st93{fill:#F88916;}
	.st94{fill:#FFC86E;}
	.st95{fill:#AFA51D;}
	.st96{fill:#968A1C;}
	.st97{fill:#C3556D;}
</style>
<g>
	<path class="st46" d="M227.3,49.1l-45.4,45.3c-0.5-5.4-2.4-10.7-6.2-14.6c-3.7-3.6-8.5-5.5-13.6-6.1L208,27.8
		c-10.8-20.6,14.4-33.8,25.2-13.2l-7.7,2.4C256,8.5,264.5,52.2,227.3,49.1z"/>
	<path class="st57" d="M178,115.6c-4.2,7.1-21,33.1-23.5,41.1c-2.5,8-15.7,50.9-38.2,73.3c-22.5,22.4-63.8,32.7-93.8,2.7
		c-30-30-19.7-71.2,2.7-93.7c22.5-22.4,65.5-35.6,73.4-38.1c8-2.5,34-19.3,41.1-23.5c4.5-2.6,13.6-5,22.3-3.8
		c5.1,0.7,10,2.5,13.6,6.1c3.9,3.9,5.7,9.2,6.2,14.6C182.8,102.7,180.5,111.3,178,115.6z"/>
	<path class="st19" d="M166.5,72.5l5.5-6.2c7.3,3.8,13.6,10.2,19.2,18.9l-9.6,6.7L166.5,72.5z"/>
	<path class="st9" d="M98.7,101c-8,2.5-51,15.7-73.4,38.1c-22.5,22.4-32.7,63.7-2.7,93.7c0,0-11.5-23.7-0.1-62.3S98.7,101,98.7,101z
		"/>
	<path class="st19" d="M162.1,73.7c5.1,0.7,10,2.5,13.6,6.1c3.9,3.9,5.7,9.2,6.2,14.6c0.8,8.3-1.4,17-4,21.3
		c-4.2,7.1-21,33.1-23.5,41.1c0,0,16.8-43.1,16.5-57.6C170.6,84.6,162.1,73.7,162.1,73.7"/>
	<path class="st1" d="M178,115.6c-4.2,7.1-21,33.1-23.5,41.1c-2.5,8-15.7,50.9-38.2,73.3c-22.5,22.4-63.8,32.7-93.8,2.7
		c-30-30-19.7-71.2,2.7-93.7c22.5-22.4,65.5-35.6,73.4-38.1c8-2.5,34-19.3,41.1-23.5c4.5-2.6,13.6-5,22.3-3.8
		c5.1,0.7,10,2.5,13.6,6.1c3.9,3.9,5.7,9.2,6.2,14.6C182.8,102.7,180.5,111.3,178,115.6z"/>
	<path class="st1" d="M227.3,49.1l-45.4,45.3c-0.5-5.4-2.4-10.7-6.2-14.6c-3.7-3.6-8.5-5.5-13.6-6.1L208,27.8
		c-10.8-20.6,14.4-33.8,25.2-13.2l-7.7,2.4C256,8.5,264.5,52.2,227.3,49.1z"/>
	<path class="st1" d="M27.6,164.4c-11.4,17.2-10.7,34.4,2.2,51.6"/>
	<line class="st1" x1="189.4" y1="71.5" x2="200.2" y2="60.7"/>
</g>
</svg>
