<?xml version="1.0" encoding="utf-8"?>
<!-- Generator: Adobe Illustrator 22.1.0, SVG Export Plug-In . SVG Version: 6.00 Build 0)  -->
<svg version="1.1" id="Layer_1" xmlns="http://www.w3.org/2000/svg" xmlns:xlink="http://www.w3.org/1999/xlink" x="0px" y="0px"
	 viewBox="0 0 256 256" style="enable-background:new 0 0 256 256;" xml:space="preserve">
<style type="text/css">
	.st0{fill:#F5B31F;}
	.st1{fill:none;stroke:#464646;stroke-width:8;stroke-linecap:round;stroke-linejoin:round;stroke-miterlimit:10;}
	.st2{opacity:0.15;fill:#464646;}
	.st3{fill:#AC6535;}
	.st4{fill:#EB573B;}
	.st5{fill:#90C056;}
	.st6{opacity:0.35;fill:#FFFFFF;}
	.st7{opacity:0.2;fill:#FFFFFF;}
	.st8{fill:#F6D67A;}
	.st9{opacity:0.15;fill:#FFFFFF;}
	.st10{opacity:0.3;fill:#FFFFFF;}
	.st11{fill:#AC6535;stroke:#464646;stroke-width:8;stroke-linecap:round;stroke-linejoin:round;stroke-miterlimit:10;}
	.st12{fill:#EB573B;stroke:#464646;stroke-width:8;stroke-miterlimit:10;}
	.st13{opacity:0.15;}
	.st14{fill:#464646;}
	.st15{fill:#FFA755;}
	.st16{fill:#8FAE3C;}
	.st17{fill:#BE6BB2;}
	.st18{fill:#B7C536;}
	.st19{opacity:0.1;}
	.st20{fill:#9D5A96;}
	.st21{fill:#EA615D;}
	.st22{opacity:0.4;fill:#FFFFFF;}
	.st23{opacity:7.000000e-02;}
	.st24{fill:#F79932;}
	.st25{fill:#FFEC97;}
	.st26{fill:#FFD11D;}
	.st27{opacity:0.2;}
	.st28{fill:#FFFFFF;}
	.st29{fill:#F7F2D5;}
	.st30{fill:#F6AF72;}
	.st31{fill:#BA6C45;}
	.st32{opacity:0.5;fill:#FFFFFF;}
	.st33{fill:#E4C074;}
	.st34{fill:none;stroke:#656566;stroke-width:8;stroke-linecap:round;stroke-linejoin:round;stroke-miterlimit:10;}
	.st35{fill:#FFA755;stroke:#464646;stroke-width:8;stroke-linecap:round;stroke-linejoin:round;stroke-miterlimit:10;}
	.st36{fill:#FFD11D;stroke:#464646;stroke-width:8;stroke-linecap:round;stroke-linejoin:round;stroke-miterlimit:10;}
	.st37{fill:#FACD1F;}
	.st38{fill:#FFDF66;}
	.st39{fill:#FFEC97;stroke:#464646;stroke-width:8;stroke-linecap:round;stroke-linejoin:round;stroke-miterlimit:10;}
	.st40{fill:#FFDF66;stroke:#464646;stroke-width:8;stroke-linecap:round;stroke-linejoin:round;stroke-miterlimit:10;}
	.st41{opacity:0.2;fill:#464646;}
	.st42{fill:#FFFFFF;stroke:#464646;stroke-width:8;stroke-linecap:round;stroke-linejoin:round;stroke-miterlimit:10;}
	.st43{fill:#6D6E71;stroke:#464646;stroke-width:8;stroke-linecap:round;stroke-linejoin:round;stroke-miterlimit:10;}
	.st44{opacity:0.1;fill:#464646;}
	.st45{fill:#E77CAE;}
	.st46{fill:#FFE5C4;}
	.st47{fill:#F68455;stroke:#464646;stroke-width:8;stroke-linecap:round;stroke-linejoin:round;stroke-miterlimit:10;}
	.st48{opacity:0.7;}
	.st49{fill:#ADEDFF;}
	.st50{fill:#EC754B;}
	.st51{fill:#4AA5BA;}
	.st52{opacity:0.5;}
	.st53{opacity:0.8;}
	.st54{fill:#F68455;}
	.st55{fill:#92A5AC;}
	.st56{fill:#6D6E71;}
	.st57{fill:#D06E3C;}
	.st58{fill:#DA4F4B;}
	.st59{fill:#BDF3FF;}
	.st60{fill:#F18BB4;}
	.st61{fill:#F9D97A;}
	.st62{fill:none;}
	.st63{fill:#AF6535;}
	.st64{fill:#B93226;}
	.st65{fill:#FF6050;}
	.st66{fill:#D06E3C;stroke:#464646;stroke-miterlimit:10;}
	.st67{fill:#EA7CB1;}
	.st68{fill:none;stroke:#6D6E71;stroke-width:10;stroke-linecap:round;stroke-linejoin:round;stroke-miterlimit:10;}
	.st69{fill:#00B0E0;}
	.st70{fill:#EA7DAE;}
	.st71{opacity:0.1;fill:#FFFFFF;}
	.st72{fill:#BC7532;}
	.st73{fill:#876C6C;}
	.st74{fill:#F9F6CD;}
	.st75{fill:#FFE37B;}
	.st76{fill:#1DDCFF;}
	.st77{fill:#60ACF7;}
	.st78{fill:#C3755A;}
	.st79{fill:#96557A;}
	.st80{fill:#66625D;}
	.st81{fill:#D68032;}
	.st82{opacity:0.8;fill:#FFFFFF;}
	.st83{fill:#F2A355;}
	.st84{fill:#7E9E6A;}
	.st85{opacity:0.3;}
	.st86{fill:#965A85;}
	.st87{opacity:0.7;fill:#FFFFFF;}
	.st88{fill:#90CAD3;}
	.st89{fill:#94B57F;}
	.st90{fill:#B2E2E7;}
	.st91{fill:#FFDF8F;}
	.st92{fill:#FFFAEB;}
	.st93{fill:#F88916;}
	.st94{fill:#FFC86E;}
	.st95{fill:#AFA51D;}
	.st96{fill:#968A1C;}
	.st97{fill:#C3556D;}
</style>
<g>
	<path class="st16" d="M201.5,113.4c0,0-0.5-4.3-1.3-9c-1-6-2.5-12.7-4.2-12.7c-3.1,0-23.1,19.2-25.7,16.6
		c-2.6-2.6,3.5-33.5,1.7-35.3c-0.5-0.5-1.8-0.5-3.6-0.3c-5.3,0.6-14.3,3.3-14.3,3.3c9.9-10.8,21.6-15.3,35.5-12.7
		c22.9-20.6,36.5-39.2,30.9-53.7l5.7-5.7c13.9,17.9-5.3,41.8-21,67C210.1,88,210.1,101.3,201.5,113.4z"/>
	<path class="st17" d="M33.5,240.6C5.8,212.9,51,163.9,103.1,133.3c24.9-14.5,46.3-50,65.4-60.6c1.8-0.2,3.2-0.2,3.6,0.3
		c1.8,1.8-4.3,32.7-1.7,35.3c2.6,2.6,22.6-16.6,25.7-16.6c1.7,0,3.2,6.7,4.2,12.7C196.5,170.7,81.6,288.8,33.5,240.6z"/>
	<path class="st10" d="M172.1,72.9c-0.5-0.5-1.8-0.5-3.6-0.3c-19.1,10.7-40.5,46.2-65.4,60.6c-52,30.7-97.3,79.6-69.6,107.3
		c0,0-8.1-21.4,27.3-58.2s44.5-34.3,60.7-48.2S172.1,72.9,172.1,72.9z"/>
	<path class="st19" d="M137.2,189.6c80.5-87.4,32.8-78.1,32.8-78.1c2.6,2.6,22.9-19.8,26-19.8c1.7,0,3.2,6.7,4.2,12.7
		c-3.7,66.3-118.6,184.5-166.8,136.3C33.5,240.6,56.7,277,137.2,189.6z"/>
	<path class="st1" d="M33.5,240.6C5.8,212.9,51,163.9,103.1,133.3c24.9-14.5,46.3-50,65.4-60.6c1.8-0.2,3.2-0.2,3.6,0.3
		c1.8,1.8-4.3,32.7-1.7,35.3c2.6,2.6,22.6-16.6,25.7-16.6c1.7,0,3.2,6.7,4.2,12.7C196.5,170.7,81.6,288.8,33.5,240.6z"/>
	<path class="st1" d="M201.5,113.4c0,0-0.5-4.3-1.3-9c-1-6-2.5-12.7-4.2-12.7c-3.1,0-23.1,19.2-25.7,16.6
		c-2.6-2.6,3.5-33.5,1.7-35.3c-0.5-0.5-1.8-0.5-3.6-0.3c-5.3,0.6-14.3,3.3-14.3,3.3c9.9-10.8,21.6-15.3,35.5-12.7
		c22.9-20.6,36.5-39.2,30.9-53.7l5.7-5.7c13.9,17.9-5.3,41.8-21,67C210.1,88,210.1,101.3,201.5,113.4z"/>
	<path class="st1" d="M46,232.8c20.2,13.7,52.3-1.8,80.6-29.3"/>
</g>
</svg>
