<?xml version="1.0" encoding="utf-8"?>
<!-- Generator: Adobe Illustrator 22.1.0, SVG Export Plug-In . SVG Version: 6.00 Build 0)  -->
<svg version="1.1" id="Layer_1" xmlns="http://www.w3.org/2000/svg" xmlns:xlink="http://www.w3.org/1999/xlink" x="0px" y="0px"
	 viewBox="0 0 256 256" style="enable-background:new 0 0 256 256;" xml:space="preserve">
<style type="text/css">
	.st0{fill:#F5B31F;}
	.st1{fill:none;stroke:#464646;stroke-width:8;stroke-linecap:round;stroke-linejoin:round;stroke-miterlimit:10;}
	.st2{opacity:0.15;fill:#464646;}
	.st3{fill:#AC6535;}
	.st4{fill:#EB573B;}
	.st5{fill:#90C056;}
	.st6{opacity:0.35;fill:#FFFFFF;}
	.st7{opacity:0.2;fill:#FFFFFF;}
	.st8{fill:#F6D67A;}
	.st9{opacity:0.15;fill:#FFFFFF;}
	.st10{opacity:0.3;fill:#FFFFFF;}
	.st11{fill:#AC6535;stroke:#464646;stroke-width:8;stroke-linecap:round;stroke-linejoin:round;stroke-miterlimit:10;}
	.st12{fill:#EB573B;stroke:#464646;stroke-width:8;stroke-miterlimit:10;}
	.st13{opacity:0.15;}
	.st14{fill:#464646;}
	.st15{fill:#FFA755;}
	.st16{fill:#8FAE3C;}
	.st17{fill:#BE6BB2;}
	.st18{fill:#B7C536;}
	.st19{opacity:0.1;}
	.st20{fill:#9D5A96;}
	.st21{fill:#EA615D;}
	.st22{opacity:0.4;fill:#FFFFFF;}
	.st23{opacity:7.000000e-02;}
	.st24{fill:#F79932;}
	.st25{fill:#FFEC97;}
	.st26{fill:#FFD11D;}
	.st27{opacity:0.2;}
	.st28{fill:#FFFFFF;}
	.st29{fill:#F7F2D5;}
	.st30{fill:#F6AF72;}
	.st31{fill:#BA6C45;}
	.st32{opacity:0.5;fill:#FFFFFF;}
	.st33{fill:#E4C074;}
	.st34{fill:none;stroke:#656566;stroke-width:8;stroke-linecap:round;stroke-linejoin:round;stroke-miterlimit:10;}
	.st35{fill:#FFA755;stroke:#464646;stroke-width:8;stroke-linecap:round;stroke-linejoin:round;stroke-miterlimit:10;}
	.st36{fill:#FFD11D;stroke:#464646;stroke-width:8;stroke-linecap:round;stroke-linejoin:round;stroke-miterlimit:10;}
	.st37{fill:#FACD1F;}
	.st38{fill:#FFDF66;}
	.st39{fill:#FFEC97;stroke:#464646;stroke-width:8;stroke-linecap:round;stroke-linejoin:round;stroke-miterlimit:10;}
	.st40{fill:#FFDF66;stroke:#464646;stroke-width:8;stroke-linecap:round;stroke-linejoin:round;stroke-miterlimit:10;}
	.st41{opacity:0.2;fill:#464646;}
	.st42{fill:#FFFFFF;stroke:#464646;stroke-width:8;stroke-linecap:round;stroke-linejoin:round;stroke-miterlimit:10;}
	.st43{fill:#6D6E71;stroke:#464646;stroke-width:8;stroke-linecap:round;stroke-linejoin:round;stroke-miterlimit:10;}
	.st44{opacity:0.1;fill:#464646;}
	.st45{fill:#E77CAE;}
	.st46{fill:#FFE5C4;}
	.st47{fill:#F68455;stroke:#464646;stroke-width:8;stroke-linecap:round;stroke-linejoin:round;stroke-miterlimit:10;}
	.st48{opacity:0.7;}
	.st49{fill:#ADEDFF;}
	.st50{fill:#EC754B;}
	.st51{fill:#4AA5BA;}
	.st52{opacity:0.5;}
	.st53{opacity:0.8;}
	.st54{fill:#F68455;}
	.st55{fill:#92A5AC;}
	.st56{fill:#6D6E71;}
	.st57{fill:#D06E3C;}
	.st58{fill:#DA4F4B;}
	.st59{fill:#BDF3FF;}
	.st60{fill:#F18BB4;}
	.st61{fill:#F9D97A;}
	.st62{fill:none;}
	.st63{fill:#AF6535;}
	.st64{fill:#B93226;}
	.st65{fill:#FF6050;}
	.st66{fill:#D06E3C;stroke:#464646;stroke-miterlimit:10;}
	.st67{fill:#EA7CB1;}
	.st68{fill:none;stroke:#6D6E71;stroke-width:10;stroke-linecap:round;stroke-linejoin:round;stroke-miterlimit:10;}
	.st69{fill:#00B0E0;}
	.st70{fill:#EA7DAE;}
	.st71{opacity:0.1;fill:#FFFFFF;}
	.st72{fill:#BC7532;}
	.st73{fill:#876C6C;}
	.st74{fill:#F9F6CD;}
	.st75{fill:#FFE37B;}
	.st76{fill:#1DDCFF;}
	.st77{fill:#60ACF7;}
	.st78{fill:#C3755A;}
	.st79{fill:#96557A;}
	.st80{fill:#66625D;}
	.st81{fill:#D68032;}
	.st82{opacity:0.8;fill:#FFFFFF;}
	.st83{fill:#F2A355;}
	.st84{fill:#7E9E6A;}
	.st85{opacity:0.3;}
	.st86{fill:#965A85;}
	.st87{opacity:0.7;fill:#FFFFFF;}
	.st88{fill:#90CAD3;}
	.st89{fill:#94B57F;}
	.st90{fill:#B2E2E7;}
	.st91{fill:#FFDF8F;}
	.st92{fill:#FFFAEB;}
	.st93{fill:#F88916;}
	.st94{fill:#FFC86E;}
	.st95{fill:#AFA51D;}
	.st96{fill:#968A1C;}
	.st97{fill:#C3556D;}
</style>
<g>
	<path class="st4" d="M208.9,52.3c-12.1,14-10,15-14.8,28.8c-1.5,4.2-1.8,8.1-1.7,12c0.2,9.3,2.6,18.8-2.3,32.6
		c-6.9,19.6-18.6,18.8-24.6,33.5c-6,14.6,4.2,24.5-1.6,39c-5.8,14.5-11.4,10.8-14.1,19.8c-1.3,4.2-1,9.1-0.4,13
		c0.7,4.3,1.8,7.5,1.9,7.7c-3.3-1.1-6.1-1.7-8-1.3c0,0-0.1-0.1-0.2-0.4c-1.1-2.4-6.9-15.2-5.1-23.3c2-9,11.6-16.4,12.7-22.5
		c1.1-6.1,0-24.1,1.8-33.4c1.7-9.3,22.1-31.6,25.1-38c3-6.3-2.6-47.2,2.5-58.7c0-0.1,0.1-0.2,0.1-0.3c5.4-11.1,11.5-6.1,14.5-16.9
		c3-10.8,1.2-19.3,1.2-19.3s7.5-2.3,16.2-0.6C212.3,24.1,221,38.3,208.9,52.3z"/>
	<path class="st4" d="M228.5,97.9c-1.2,9,0.6,18.5,0.5,28c0,4.9-0.5,9.7-2.2,14.5c-4.8,13.8-3.4,21.8-12.6,28.1
		c-9.2,6.3-20.8,8.3-19.7,20l0.2,2.2c1,11,1.6,22-4.6,33.8c-6.7,12.6-7.7,5.6-10.2,13.9c-2.5,8.3-1.9,13.8-1.9,13.8s-6.6-4.1-14.2-8
		c0.7-15.2,5.1-22,11.2-30.4c4.1-5.7,4.8-10.2,4.6-16.7c-0.1-3.2-0.4-6.8-0.7-11.3c-0.9-13.9,2.3-16.6,10.1-29.7
		c7.9-13,24-7.2,23.1-33.6c-0.1-3.8-0.2-7.4-0.1-10.8c0.4-20.4,4.3-34.4,12-45.5c9-12.9,4.9-34.8,4.9-34.8c7.8,4.3,14.2,8.5,16.3,12
		c2.9,4.8,4.3,15.7-0.3,23.5C240.1,74.8,230.3,84.3,228.5,97.9z"/>
	<path class="st46" d="M212,111.6c-0.1,3.4,0,7,0.1,10.8C213,148.8,196.8,143,189,156c-7.8,13-11.1,15.8-10.1,29.7
		c0.3,4.5,0.6,8.2,0.7,11.3c0.2,6.5-0.5,11-4.6,16.7c-6,8.5-10.5,15.2-11.2,30.4c-4.1-2.1-8.6-4.1-12.4-5.4
		c-0.1-0.3-1.2-3.5-1.9-7.7c-0.6-3.9-0.9-8.8,0.4-13c2.7-9,8.3-5.3,14.1-19.8c5.8-14.5-4.3-24.4,1.6-39
		c5.9-14.6,17.7-13.9,24.6-33.5c4.8-13.7,2.4-23.3,2.3-32.6c-0.1-4,0.2-7.9,1.7-12c4.8-13.8,2.7-14.8,14.8-28.8
		c12.1-14,3.4-28.2,3.4-28.2v0c2.5,0.5,5.2,1.3,7.8,2.6c3,1.5,6,3.1,8.8,4.6c0,0,4.1,21.9-4.9,34.8C216.3,77.2,212.3,91.2,212,111.6
		z"/>
	<path class="st28" d="M180.3,61.2C174.6,35.9,169.7,9,139,4.5C99.4-1.2,85.1,61.7,63.7,72.5C42.3,83.2,5.2,98.4,8.4,125.2
		c3.2,26.8,35,35.2,44.9,67.4c9.9,32.1,29.6,53.6,64.2,53.6c11.2,0,19.2-3.6,25.7-9c-1.1-2.4-6.9-15.2-5.1-23.3
		c2-9,11.6-16.4,12.7-22.5c1.1-6.1,0-24.1,1.8-33.4c1.7-9.3,22.1-31.6,25.1-38C180.8,113.6,175.2,72.8,180.3,61.2z M92.7,174.2
		c-22.1,0-40-17.9-40-40.1c0-22.1,17.9-40.1,40-40.1c22.1,0,40,17.9,40,40.1C132.7,156.3,114.8,174.2,92.7,174.2z"/>
	<ellipse class="st26" cx="92.7" cy="134.2" rx="40" ry="40.1"/>
	<path class="st2" d="M112.9,99.6c11.8,7,19.8,19.8,19.8,34.6c0,22.1-17.9,40.1-40,40.1c-15,0-28.2-8.3-35-20.6
		c0,0,29.5,20.5,52.4,2.5S112.9,99.6,112.9,99.6z"/>
	<path class="st28" d="M246.1,160.4c-3.3,27.3-28.9,24.4-51.2,30.3l-0.2-2.2c-1.1-11.7,10.5-13.6,19.7-20
		c9.2-6.3,7.7-14.3,12.6-28.1c1.7-4.7,2.2-9.6,2.2-14.5C239.8,135.8,247.7,146.6,246.1,160.4z"/>
	<path class="st2" d="M226.1,171.5c-6.3,6.6-14.7,13.1-31.3,19.2l-0.2-2.2c-1.1-11.7,10.5-13.6,19.7-20c9.2-6.3,7.7-14.3,12.6-28.1
		c1.7-4.7,2.2-9.6,2.2-14.5C239.8,135.8,232.4,164.9,226.1,171.5z"/>
	<path class="st1" d="M208.9,52.3c-12.1,14-10,15-14.8,28.8c-1.5,4.2-1.8,8.1-1.7,12c0.2,9.3,2.6,18.8-2.3,32.6
		c-6.9,19.6-18.6,18.8-24.6,33.5c-6,14.6,4.2,24.5-1.6,39c-5.8,14.5-11.4,10.8-14.1,19.8c-1.3,4.2-1,9.1-0.4,13
		c0.7,4.3,1.8,7.5,1.9,7.7c-3.3-1.1-6.1-1.7-8-1.3c0,0-0.1-0.1-0.2-0.4c-1.1-2.4-6.9-15.2-5.1-23.3c2-9,11.6-16.4,12.7-22.5
		c1.1-6.1,0-24.1,1.8-33.4c1.7-9.3,22.1-31.6,25.1-38c3-6.3-2.6-47.2,2.5-58.7c0-0.1,0.1-0.2,0.1-0.3c5.4-11.1,11.5-6.1,14.5-16.9
		c3-10.8,1.2-19.3,1.2-19.3s7.5-2.3,16.2-0.6C212.3,24.1,221,38.3,208.9,52.3z"/>
	<path class="st1" d="M228.5,97.9c-1.2,9,0.6,18.5,0.5,28c0,4.9-0.5,9.7-2.2,14.5c-4.8,13.8-3.4,21.8-12.6,28.1
		c-9.2,6.3-20.8,8.3-19.7,20l0.2,2.2c1,11,1.6,22-4.6,33.8c-6.7,12.6-7.7,5.6-10.2,13.9c-2.5,8.3-1.9,13.8-1.9,13.8s-6.6-4.1-14.2-8
		c0.7-15.2,5.1-22,11.2-30.4c4.1-5.7,4.8-10.2,4.6-16.7c-0.1-3.2-0.4-6.8-0.7-11.3c-0.9-13.9,2.3-16.6,10.1-29.7
		c7.9-13,24-7.2,23.1-33.6c-0.1-3.8-0.2-7.4-0.1-10.8c0.4-20.4,4.3-34.4,12-45.5c9-12.9,4.9-34.8,4.9-34.8c7.8,4.3,14.2,8.5,16.3,12
		c2.9,4.8,4.3,15.7-0.3,23.5C240.1,74.8,230.3,84.3,228.5,97.9z"/>
	<path class="st1" d="M212,111.6c-0.1,3.4,0,7,0.1,10.8C213,148.8,196.8,143,189,156c-7.8,13-11.1,15.8-10.1,29.7
		c0.3,4.5,0.6,8.2,0.7,11.3c0.2,6.5-0.5,11-4.6,16.7c-6,8.5-10.5,15.2-11.2,30.4c-4.1-2.1-8.6-4.1-12.4-5.4
		c-0.1-0.3-1.2-3.5-1.9-7.7c-0.6-3.9-0.9-8.8,0.4-13c2.7-9,8.3-5.3,14.1-19.8c5.8-14.5-4.3-24.4,1.6-39
		c5.9-14.6,17.7-13.9,24.6-33.5c4.8-13.7,2.4-23.3,2.3-32.6c-0.1-4,0.2-7.9,1.7-12c4.8-13.8,2.7-14.8,14.8-28.8
		c12.1-14,3.4-28.2,3.4-28.2v0c2.5,0.5,5.2,1.3,7.8,2.6c3,1.5,6,3.1,8.8,4.6c0,0,4.1,21.9-4.9,34.8C216.3,77.2,212.3,91.2,212,111.6
		z"/>
	<path class="st1" d="M180.3,61.2C174.6,35.9,169.7,9,139,4.5C99.4-1.2,85.1,61.7,63.7,72.5C42.3,83.2,5.2,98.4,8.4,125.2
		c3.2,26.8,35,35.2,44.9,67.4c9.9,32.1,29.6,53.6,64.2,53.6c11.2,0,19.2-3.6,25.7-9c-1.1-2.4-6.9-15.2-5.1-23.3
		c2-9,11.6-16.4,12.7-22.5c1.1-6.1,0-24.1,1.8-33.4c1.7-9.3,22.1-31.6,25.1-38C180.8,113.6,175.2,72.8,180.3,61.2z M92.7,174.2
		c-22.1,0-40-17.9-40-40.1c0-22.1,17.9-40.1,40-40.1c22.1,0,40,17.9,40,40.1C132.7,156.3,114.8,174.2,92.7,174.2z"/>
	<ellipse class="st1" cx="92.7" cy="134.2" rx="40" ry="40.1"/>
	<path class="st1" d="M246.1,160.4c-3.3,27.3-28.9,24.4-51.2,30.3l-0.2-2.2c-1.1-11.7,10.5-13.6,19.7-20c9.2-6.3,7.7-14.3,12.6-28.1
		c1.7-4.7,2.2-9.6,2.2-14.5C239.8,135.8,247.7,146.6,246.1,160.4z"/>
</g>
</svg>
