<?xml version="1.0" encoding="utf-8"?>
<!-- Generator: Adobe Illustrator 21.1.0, SVG Export Plug-In . SVG Version: 6.00 Build 0)  -->
<svg version="1.1" id="Icon_Set" xmlns="http://www.w3.org/2000/svg" xmlns:xlink="http://www.w3.org/1999/xlink" x="0px" y="0px"
	 viewBox="0 0 512 512" style="enable-background:new 0 0 512 512;" xml:space="preserve">
<style type="text/css">
	.st0{fill:#FFFFFF;}
	.st1{fill:#5B7C31;}
	.st2{fill:#E56823;}
	.st3{fill:#FE8E46;}
	.st4{fill:#7DAC51;}
	.st5{fill:#463218;}
	.st6{fill:#FEFE71;}
	.st7{fill:#D6CD1E;}
	.st8{fill:none;stroke:#FFFFFF;stroke-width:14;stroke-miterlimit:10;}
	.st9{fill:none;stroke:#463218;stroke-width:14;stroke-linecap:round;stroke-linejoin:round;stroke-miterlimit:10;}
</style>
<g id="Egg_Free">
	<g>
		<g>
			<g>
				<g>
					<path class="st6" d="M309.9,284.4c0-45.3-36.7-143.3-81.9-143.3S146,239.1,146,284.4s36.7,81.9,81.9,81.9
						S309.9,329.7,309.9,284.4z"/>
				</g>
			</g>
		</g>
		<g>
			<g>
				<g>
					<path class="st7" d="M197.2,280.2c0-35.3,22.4-102.9,53.7-130.8c-7.3-5.3-15-8.3-23-8.3c-45.3,0-81.9,98.1-81.9,143.3
						s36.7,81.9,81.9,81.9c11.4,0,22.2-2.3,32-6.5C224,351.2,197.2,318.8,197.2,280.2z"/>
				</g>
			</g>
		</g>
		<g>
			<g>
				<g>
					<path class="st5" d="M228,373.4c-49,0-88.9-39.9-88.9-88.9c0-24.8,9.9-61.6,24.7-91.7c10.8-21.9,33.4-58.6,64.2-58.6
						s53.5,36.7,64.2,58.6c14.8,30.1,24.7,66.9,24.7,91.7C316.9,333.5,277,373.4,228,373.4z M228,148.1c-17,0-35.8,18.5-51.7,50.8
						c-13.7,27.9-23.3,63.1-23.3,85.6c0,41.3,33.6,74.9,74.9,74.9s74.9-33.6,74.9-74.9c0-22.5-9.6-57.7-23.3-85.6
						C263.8,166.6,245,148.1,228,148.1z"/>
				</g>
			</g>
		</g>
		<g>
			<g>
				<g>
					<path class="st0" d="M189.7,237.8l-13.9-1.7c2.4-19,22.7-53.1,25-57l12,7.2C207,196.1,191.4,224.2,189.7,237.8z"/>
				</g>
			</g>
		</g>
		<g>
			<g>
				<g>
					<path class="st5" d="M271.2,244.1c-1.9,0-3.6-0.7-4.9-2.1l-22.1-22.1l-22,22c-2.7,2.7-7.2,2.7-9.9,0c-2.7-2.7-2.7-7.2,0-9.9
						l26.9-26.9c1.3-1.3,3.1-2.1,4.9-2.1s3.6,0.7,4.9,2.1l22.1,22.1l17.1-17.1c2.7-2.7,7.2-2.7,9.9,0c2.7,2.7,2.7,7.2,0,9.9
						l-22.1,22.1C274.9,243.4,273.1,244.1,271.2,244.1z"/>
				</g>
			</g>
		</g>
	</g>
	<g>
		<g>
			<g>
				<g>
					<circle class="st2" cx="307.4" cy="312.3" r="58.6"/>
				</g>
			</g>
		</g>
		<g>
			<g>
				<g>
					<g>
						<path class="st5" d="M331.1,343.6c-1.8,0-3.6-0.7-5-2.1c-17.9-18-45.1-45.3-47.6-47.6c-1.5-1.3-2.4-3.2-2.4-5.3
							c0-3.9,3.1-7,7-7c2.9,0,4.1,1.2,7,4.1c1.3,1.3,3.2,3.2,5.5,5.5c4.5,4.5,10.5,10.5,16.5,16.5c12,12,23.9,24,23.9,24
							c2.7,2.7,2.7,7.2,0,9.9C334.7,342.9,332.9,343.6,331.1,343.6z M283.1,295.6C283.1,295.6,283.2,295.6,283.1,295.6
							C283.2,295.6,283.1,295.6,283.1,295.6z M283.1,295.6C283.1,295.6,283.1,295.6,283.1,295.6
							C283.1,295.6,283.1,295.6,283.1,295.6z M283.1,295.6C283.1,295.6,283.1,295.6,283.1,295.6
							C283.1,295.6,283.1,295.6,283.1,295.6z M283.1,295.6C283.1,295.6,283.1,295.6,283.1,295.6
							C283.1,295.6,283.1,295.6,283.1,295.6z M283.1,295.6C283.1,295.6,283.1,295.6,283.1,295.6
							C283.1,295.6,283.1,295.6,283.1,295.6z M283.1,295.6C283.1,295.6,283.1,295.6,283.1,295.6
							C283.1,295.6,283.1,295.6,283.1,295.6z M283.1,295.6C283.1,295.6,283.1,295.6,283.1,295.6
							C283.1,295.6,283.1,295.6,283.1,295.6z M283.1,295.6C283.1,295.6,283.1,295.6,283.1,295.6
							C283.1,295.6,283.1,295.6,283.1,295.6z M283.1,295.6C283.1,295.6,283.1,295.6,283.1,295.6
							C283.1,295.6,283.1,295.6,283.1,295.6z"/>
					</g>
				</g>
			</g>
			<g>
				<g>
					<g>
						<path class="st5" d="M283.2,343.6c-1.8,0-3.6-0.7-4.9-2c-2.7-2.7-2.8-7.2,0-9.9c0,0,11.9-12,23.9-24c6-6,12-12,16.5-16.5
							c2.3-2.3,4.2-4.1,5.5-5.5c2.9-2.9,4.1-4.1,7-4.1c3.9,0,7,3.1,7,7c0,2.1-0.9,4-2.4,5.3c-2.5,2.3-29.7,29.6-47.6,47.6
							C286.7,342.9,285,343.6,283.2,343.6z M331.1,295.6C331.1,295.6,331.1,295.6,331.1,295.6C331.1,295.6,331.1,295.6,331.1,295.6z
							 M331.2,295.6C331.2,295.6,331.2,295.6,331.2,295.6C331.2,295.6,331.2,295.6,331.2,295.6z M331.2,295.6
							C331.2,295.6,331.2,295.6,331.2,295.6C331.2,295.6,331.2,295.6,331.2,295.6z M331.2,295.6
							C331.2,295.6,331.2,295.6,331.2,295.6C331.2,295.6,331.2,295.6,331.2,295.6z M331.2,295.6
							C331.2,295.6,331.2,295.6,331.2,295.6C331.2,295.6,331.2,295.6,331.2,295.6z M331.2,295.6
							C331.2,295.6,331.2,295.6,331.2,295.6C331.2,295.6,331.2,295.6,331.2,295.6z M331.2,295.6
							C331.2,295.6,331.2,295.6,331.2,295.6C331.2,295.6,331.2,295.6,331.2,295.6z M331.2,295.6
							C331.2,295.6,331.2,295.6,331.2,295.6C331.2,295.6,331.2,295.6,331.2,295.6z M331.2,295.6
							C331.2,295.6,331.2,295.6,331.2,295.6C331.2,295.6,331.2,295.6,331.2,295.6z"/>
					</g>
				</g>
			</g>
		</g>
		<g>
			<g>
				<g>
					<path class="st5" d="M307.4,377.9c-36.2,0-65.6-29.4-65.6-65.6c0-36.2,29.4-65.6,65.6-65.6s65.6,29.4,65.6,65.6
						C373,348.5,343.5,377.9,307.4,377.9z M307.4,260.7c-28.5,0-51.6,23.2-51.6,51.6s23.2,51.6,51.6,51.6s51.6-23.2,51.6-51.6
						S335.8,260.7,307.4,260.7z"/>
				</g>
			</g>
		</g>
	</g>
</g>
</svg>
