<?xml version="1.0" encoding="utf-8"?>
<!-- Generator: Adobe Illustrator 22.1.0, SVG Export Plug-In . SVG Version: 6.00 Build 0)  -->
<svg version="1.1" id="Layer_1" xmlns="http://www.w3.org/2000/svg" xmlns:xlink="http://www.w3.org/1999/xlink" x="0px" y="0px"
	 viewBox="0 0 256 256" style="enable-background:new 0 0 256 256;" xml:space="preserve">
<style type="text/css">
	.st0{fill:#F5B31F;}
	.st1{fill:none;stroke:#464646;stroke-width:8;stroke-linecap:round;stroke-linejoin:round;stroke-miterlimit:10;}
	.st2{opacity:0.15;fill:#464646;}
	.st3{fill:#AC6535;}
	.st4{fill:#EB573B;}
	.st5{fill:#90C056;}
	.st6{opacity:0.35;fill:#FFFFFF;}
	.st7{opacity:0.2;fill:#FFFFFF;}
	.st8{fill:#F6D67A;}
	.st9{opacity:0.15;fill:#FFFFFF;}
	.st10{opacity:0.3;fill:#FFFFFF;}
	.st11{fill:#AC6535;stroke:#464646;stroke-width:8;stroke-linecap:round;stroke-linejoin:round;stroke-miterlimit:10;}
	.st12{fill:#EB573B;stroke:#464646;stroke-width:8;stroke-miterlimit:10;}
	.st13{opacity:0.15;}
	.st14{fill:#464646;}
	.st15{fill:#FFA755;}
	.st16{fill:#8FAE3C;}
	.st17{fill:#BE6BB2;}
	.st18{fill:#B7C536;}
	.st19{opacity:0.1;}
	.st20{fill:#9D5A96;}
	.st21{fill:#EA615D;}
	.st22{opacity:0.4;fill:#FFFFFF;}
	.st23{opacity:7.000000e-02;}
	.st24{fill:#F79932;}
	.st25{fill:#FFEC97;}
	.st26{fill:#FFD11D;}
	.st27{opacity:0.2;}
	.st28{fill:#FFFFFF;}
	.st29{fill:#F7F2D5;}
	.st30{fill:#F6AF72;}
	.st31{fill:#BA6C45;}
	.st32{opacity:0.5;fill:#FFFFFF;}
	.st33{fill:#E4C074;}
	.st34{fill:none;stroke:#656566;stroke-width:8;stroke-linecap:round;stroke-linejoin:round;stroke-miterlimit:10;}
	.st35{fill:#FFA755;stroke:#464646;stroke-width:8;stroke-linecap:round;stroke-linejoin:round;stroke-miterlimit:10;}
	.st36{fill:#FFD11D;stroke:#464646;stroke-width:8;stroke-linecap:round;stroke-linejoin:round;stroke-miterlimit:10;}
	.st37{fill:#FACD1F;}
	.st38{fill:#FFDF66;}
	.st39{fill:#FFEC97;stroke:#464646;stroke-width:8;stroke-linecap:round;stroke-linejoin:round;stroke-miterlimit:10;}
	.st40{fill:#FFDF66;stroke:#464646;stroke-width:8;stroke-linecap:round;stroke-linejoin:round;stroke-miterlimit:10;}
	.st41{opacity:0.2;fill:#464646;}
	.st42{fill:#FFFFFF;stroke:#464646;stroke-width:8;stroke-linecap:round;stroke-linejoin:round;stroke-miterlimit:10;}
	.st43{fill:#6D6E71;stroke:#464646;stroke-width:8;stroke-linecap:round;stroke-linejoin:round;stroke-miterlimit:10;}
	.st44{opacity:0.1;fill:#464646;}
	.st45{fill:#E77CAE;}
	.st46{fill:#FFE5C4;}
	.st47{fill:#F68455;stroke:#464646;stroke-width:8;stroke-linecap:round;stroke-linejoin:round;stroke-miterlimit:10;}
	.st48{opacity:0.7;}
	.st49{fill:#ADEDFF;}
	.st50{fill:#EC754B;}
	.st51{fill:#4AA5BA;}
	.st52{opacity:0.5;}
	.st53{opacity:0.8;}
	.st54{fill:#F68455;}
	.st55{fill:#92A5AC;}
	.st56{fill:#6D6E71;}
	.st57{fill:#D06E3C;}
	.st58{fill:#DA4F4B;}
	.st59{fill:#BDF3FF;}
	.st60{fill:#F18BB4;}
	.st61{fill:#F9D97A;}
	.st62{fill:none;}
	.st63{fill:#AF6535;}
	.st64{fill:#B93226;}
	.st65{fill:#FF6050;}
	.st66{fill:#D06E3C;stroke:#464646;stroke-miterlimit:10;}
	.st67{fill:#EA7CB1;}
	.st68{fill:none;stroke:#6D6E71;stroke-width:10;stroke-linecap:round;stroke-linejoin:round;stroke-miterlimit:10;}
	.st69{fill:#00B0E0;}
	.st70{fill:#EA7DAE;}
	.st71{opacity:0.1;fill:#FFFFFF;}
	.st72{fill:#BC7532;}
	.st73{fill:#876C6C;}
	.st74{fill:#F9F6CD;}
	.st75{fill:#FFE37B;}
	.st76{fill:#1DDCFF;}
	.st77{fill:#60ACF7;}
	.st78{fill:#C3755A;}
	.st79{fill:#96557A;}
	.st80{fill:#66625D;}
	.st81{fill:#D68032;}
	.st82{opacity:0.8;fill:#FFFFFF;}
	.st83{fill:#F2A355;}
	.st84{fill:#7E9E6A;}
	.st85{opacity:0.3;}
	.st86{fill:#965A85;}
	.st87{opacity:0.7;fill:#FFFFFF;}
	.st88{fill:#90CAD3;}
	.st89{fill:#94B57F;}
	.st90{fill:#B2E2E7;}
	.st91{fill:#FFDF8F;}
	.st92{fill:#FFFAEB;}
	.st93{fill:#F88916;}
	.st94{fill:#FFC86E;}
	.st95{fill:#AFA51D;}
	.st96{fill:#968A1C;}
	.st97{fill:#C3556D;}
</style>
<g>
	<path class="st74" d="M140.4,208.9c-3.2,1.9-6.5,3.5-10,4.9c-23.3,9-52.2,4.9-78.4-18.6c-37.4-33.5-63.3-98-37.4-126.8
		c20.3-22.6,65.8-16,102.5,4c3.9,2.1,7.7,4.4,11.4,6.9c-9.7,20.2-15.5,44.3-15.5,66.1C113,174.4,124,195.9,140.4,208.9z"/>
	<path class="st32" d="M117.1,72.4c-36.7-20-82.2-26.6-102.5-4c-25.9,28.8,0,93.3,37.4,126.8c0,0-53.4-67.2-25.5-108.3
		S117.1,72.4,117.1,72.4z"/>
	<path class="st1" d="M140.4,208.9c-3.2,1.9-6.5,3.5-10,4.9c-23.3,9-52.2,4.9-78.4-18.6c-37.4-33.5-63.3-98-37.4-126.8
		c20.3-22.6,65.8-16,102.5,4c3.9,2.1,7.7,4.4,11.4,6.9c-9.7,20.2-15.5,44.3-15.5,66.1C113,174.4,124,195.9,140.4,208.9z"/>
	<path class="st74" d="M252.1,145.4c0,50.2-32.9,78-69.6,78c-1.1,0-2.2,0-3.3-0.1c-14.2-0.7-27.8-5.6-38.9-14.4
		c-16.4-13-27.4-34.6-27.4-63.6c0-21.8,5.8-45.8,15.5-66.1c10.7-22.3,26.2-40.1,44-45c3.3-0.9,6.6-1.4,10-1.4
		C221.4,32.9,252.1,95.2,252.1,145.4z"/>
	<path class="st32" d="M233.1,72.4c-12.6-23-30.5-39.6-50.5-39.6c-3.4,0-6.7,0.5-10,1.4c-17.8,4.9-33.3,22.7-44,45
		c-9.7,20.2-15.5,44.3-15.5,66.1c0,6.8,0.6,13.2,1.7,19.2c0,0,9.5-87.8,50.5-110.3S233.1,72.4,233.1,72.4z"/>
	<path class="st44" d="M243.1,94.9c5.8,16.4,9,34.1,9,50.4c0,50.2-32.9,78-69.6,78c-1.1,0-2.2,0-3.3-0.1
		c-14.2-0.7-27.8-5.6-38.9-14.4c0,0,54.9,20.9,80.8-15.6S243.1,94.9,243.1,94.9z"/>
	<path class="st44" d="M140.4,208.9c-3.2,1.9-6.5,3.5-10,4.9c-1.9-1.2-3.7-2.5-5.5-3.9c-16.4-13-27.4-34.6-27.4-63.6
		c0-21.8,5.8-45.8,15.5-66.1c1.3-2.7,2.6-5.3,4.1-7.8c3.9,2.1,7.7,4.4,11.4,6.9c-9.7,20.2-15.5,44.3-15.5,66.1
		C113,174.4,124,195.9,140.4,208.9z"/>
	<path class="st1" d="M252.1,145.4c0,50.2-32.9,78-69.6,78c-1.1,0-2.2,0-3.3-0.1c-14.2-0.7-27.8-5.6-38.9-14.4
		c-16.4-13-27.4-34.6-27.4-63.6c0-21.8,5.8-45.8,15.5-66.1c10.7-22.3,26.2-40.1,44-45c3.3-0.9,6.6-1.4,10-1.4
		C221.4,32.9,252.1,95.2,252.1,145.4z"/>
	<path class="st1" d="M134.5,161.2c5.8,21.5,20.6,35.5,44.5,42.1"/>
</g>
</svg>
