<?xml version="1.0" encoding="utf-8"?>
<!-- Generator: Adobe Illustrator 21.1.0, SVG Export Plug-In . SVG Version: 6.00 Build 0)  -->
<svg version="1.1" id="Icon_Set" xmlns="http://www.w3.org/2000/svg" xmlns:xlink="http://www.w3.org/1999/xlink" x="0px" y="0px"
	 viewBox="0 0 512 512" style="enable-background:new 0 0 512 512;" xml:space="preserve">
<style type="text/css">
	.st0{fill:#FFFFFF;}
	.st1{fill:#5B7C31;}
	.st2{fill:#E56823;}
	.st3{fill:#FE8E46;}
	.st4{fill:#7DAC51;}
	.st5{fill:#463218;}
	.st6{fill:#FEFE71;}
	.st7{fill:#D6CD1E;}
	.st8{fill:none;stroke:#FFFFFF;stroke-width:14;stroke-miterlimit:10;}
	.st9{fill:none;stroke:#463218;stroke-width:14;stroke-linecap:round;stroke-linejoin:round;stroke-miterlimit:10;}
</style>
<g id="Energy_Drink">
	<g>
		<g>
			<g>
				<path class="st3" d="M306.6,199.8c-16-16-25-37.7-25-60.3v-15.9h-51.2v15.9c0,22.6-9,44.3-25,60.3l0,0
					c-16.8,16.8-26.2,39.6-26.2,63.3v125.2c0,17.1,13.8,30.9,30.9,30.9h91.8c17.1,0,30.9-13.8,30.9-30.9V277.2v-14.1
					C332.8,239.3,323.4,216.6,306.6,199.8L306.6,199.8z"/>
			</g>
		</g>
	</g>
	<g>
		<g>
			<g>
				<path class="st2" d="M230.4,388.3V263.1c0-23.8,9.4-46.5,26.2-63.3l0,0c16-16,25-37.7,25-60.3c0,0,0,0,0,0v-15.9h-51.2v15.9
					c0,22.6-9,44.3-25,60.3c-16.8,16.8-26.2,39.6-26.2,63.3v125.2c0,17.1,13.8,30.9,30.9,30.9h51.2
					C244.2,419.2,230.4,405.4,230.4,388.3z"/>
			</g>
		</g>
	</g>
	<g>
		<g>
			<g>
				<path class="st5" d="M301.9,426.2h-91.8c-20.9,0-37.9-17-37.9-37.9V263.1c0-25.8,10-50,28.3-68.3c14.8-14.8,22.9-34.4,22.9-55.3
					v-15.9c0-3.9,3.1-7,7-7h51.2c3.9,0,7,3.1,7,7v15.9c0,20.9,8.1,40.6,22.9,55.3c18.2,18.2,28.3,42.5,28.3,68.3v125.2
					C339.8,409.2,322.8,426.2,301.9,426.2z M237.4,130.6v8.9c0,24.6-9.6,47.8-27,65.2c-15.6,15.6-24.2,36.3-24.2,58.4v125.2
					c0,13.2,10.7,23.9,23.9,23.9h91.8c13.2,0,23.9-10.7,23.9-23.9V263.1c0-22-8.6-42.8-24.2-58.4v0c-17.4-17.4-27-40.6-27-65.2v-8.9
					H237.4z"/>
			</g>
		</g>
	</g>
	<g>
		<g>
			<g>
				<rect x="215.9" y="92.8" class="st6" width="80.2" height="59.9"/>
			</g>
		</g>
	</g>
	<g>
		<g>
			<g>
				<rect x="215.9" y="92.8" class="st7" width="30.1" height="59.9"/>
			</g>
		</g>
	</g>
	<g>
		<g>
			<g>
				<path class="st5" d="M296.1,159.6h-80.2c-3.9,0-7-3.1-7-7V92.8c0-3.9,3.1-7,7-7h80.2c3.9,0,7,3.1,7,7v59.9
					C303.1,156.5,299.9,159.6,296.1,159.6z M222.9,145.6h66.2V99.8h-66.2V145.6z"/>
			</g>
		</g>
	</g>
	<g>
		<g>
			<g>
				<path class="st6" d="M324.7,226h-24.2L226,312.1h73.7l-49.3,77.5l82.4-72.9v-39.5h-26.7l24.4-34
					C329.2,237.2,327.2,231.5,324.7,226z"/>
			</g>
		</g>
	</g>
	<g>
		<g>
			<g>
				<path class="st5" d="M250.4,396.6c-1.6,0-3.2-0.6-4.5-1.7c-2.7-2.3-3.2-6.1-1.4-9.1l42.5-66.8h-61c-2.7,0-5.2-1.6-6.4-4.1
					c-1.1-2.5-0.7-5.4,1.1-7.5l74.6-86.1c1.3-1.5,3.3-2.4,5.3-2.4h24.2c2.7,0,5.2,1.6,6.4,4.1c2.7,5.9,4.8,12.1,6.2,18.5
					c0.4,2,0,4-1.1,5.6l-16.5,23h13.1c3.9,0,7,3.1,7,7v39.5c0,2-0.9,3.9-2.4,5.2L255,394.8C253.7,396,252,396.6,250.4,396.6z
					 M241.3,305.1h58.4c2.6,0,4.9,1.4,6.1,3.6c1.2,2.2,1.1,5-0.2,7.1l-22.6,35.6l42.9-37.9v-29.3h-19.7c-2.6,0-5-1.5-6.2-3.8
					c-1.2-2.3-1-5.1,0.5-7.3l22.5-31.4c-0.8-3-1.7-5.9-2.9-8.7h-16.3L241.3,305.1z"/>
			</g>
		</g>
	</g>
	<g>
		<g>
			<g>
				<path class="st0" d="M218.8,249.6h-14c0-23.9,25.4-48.2,26.5-49.3l9.6,10.2C234.8,216.4,218.8,234.8,218.8,249.6z M240.9,210.5
					l-4.8-5.1L240.9,210.5C240.9,210.5,240.9,210.5,240.9,210.5L240.9,210.5z"/>
			</g>
		</g>
	</g>
</g>
</svg>
