<?xml version="1.0" encoding="utf-8"?>
<!-- Generator: Adobe Illustrator 22.1.0, SVG Export Plug-In . SVG Version: 6.00 Build 0)  -->
<svg version="1.1" id="Layer_1" xmlns="http://www.w3.org/2000/svg" xmlns:xlink="http://www.w3.org/1999/xlink" x="0px" y="0px"
	 viewBox="0 0 256 256" style="enable-background:new 0 0 256 256;" xml:space="preserve">
<style type="text/css">
	.st0{fill:#F5B31F;}
	.st1{fill:none;stroke:#464646;stroke-width:8;stroke-linecap:round;stroke-linejoin:round;stroke-miterlimit:10;}
	.st2{opacity:0.15;fill:#464646;}
	.st3{fill:#AC6535;}
	.st4{fill:#EB573B;}
	.st5{fill:#90C056;}
	.st6{opacity:0.35;fill:#FFFFFF;}
	.st7{opacity:0.2;fill:#FFFFFF;}
	.st8{fill:#F6D67A;}
	.st9{opacity:0.15;fill:#FFFFFF;}
	.st10{opacity:0.3;fill:#FFFFFF;}
	.st11{fill:#AC6535;stroke:#464646;stroke-width:8;stroke-linecap:round;stroke-linejoin:round;stroke-miterlimit:10;}
	.st12{fill:#EB573B;stroke:#464646;stroke-width:8;stroke-miterlimit:10;}
	.st13{opacity:0.15;}
	.st14{fill:#464646;}
	.st15{fill:#FFA755;}
	.st16{fill:#8FAE3C;}
	.st17{fill:#BE6BB2;}
	.st18{fill:#B7C536;}
	.st19{opacity:0.1;}
	.st20{fill:#9D5A96;}
	.st21{fill:#EA615D;}
	.st22{opacity:0.4;fill:#FFFFFF;}
	.st23{opacity:7.000000e-02;}
	.st24{fill:#F79932;}
	.st25{fill:#FFEC97;}
	.st26{fill:#FFD11D;}
	.st27{opacity:0.2;}
	.st28{fill:#FFFFFF;}
	.st29{fill:#F7F2D5;}
	.st30{fill:#F6AF72;}
	.st31{fill:#BA6C45;}
	.st32{opacity:0.5;fill:#FFFFFF;}
	.st33{fill:#E4C074;}
	.st34{fill:none;stroke:#656566;stroke-width:8;stroke-linecap:round;stroke-linejoin:round;stroke-miterlimit:10;}
	.st35{fill:#FFA755;stroke:#464646;stroke-width:8;stroke-linecap:round;stroke-linejoin:round;stroke-miterlimit:10;}
	.st36{fill:#FFD11D;stroke:#464646;stroke-width:8;stroke-linecap:round;stroke-linejoin:round;stroke-miterlimit:10;}
	.st37{fill:#FACD1F;}
	.st38{fill:#FFDF66;}
	.st39{fill:#FFEC97;stroke:#464646;stroke-width:8;stroke-linecap:round;stroke-linejoin:round;stroke-miterlimit:10;}
	.st40{fill:#FFDF66;stroke:#464646;stroke-width:8;stroke-linecap:round;stroke-linejoin:round;stroke-miterlimit:10;}
	.st41{opacity:0.2;fill:#464646;}
	.st42{fill:#FFFFFF;stroke:#464646;stroke-width:8;stroke-linecap:round;stroke-linejoin:round;stroke-miterlimit:10;}
	.st43{fill:#6D6E71;stroke:#464646;stroke-width:8;stroke-linecap:round;stroke-linejoin:round;stroke-miterlimit:10;}
	.st44{opacity:0.1;fill:#464646;}
	.st45{fill:#E77CAE;}
	.st46{fill:#FFE5C4;}
	.st47{fill:#F68455;stroke:#464646;stroke-width:8;stroke-linecap:round;stroke-linejoin:round;stroke-miterlimit:10;}
	.st48{opacity:0.7;}
	.st49{fill:#ADEDFF;}
	.st50{fill:#EC754B;}
	.st51{fill:#4AA5BA;}
	.st52{opacity:0.5;}
	.st53{opacity:0.8;}
	.st54{fill:#F68455;}
	.st55{fill:#92A5AC;}
	.st56{fill:#6D6E71;}
	.st57{fill:#D06E3C;}
	.st58{fill:#DA4F4B;}
	.st59{fill:#BDF3FF;}
	.st60{fill:#F18BB4;}
	.st61{fill:#F9D97A;}
	.st62{fill:none;}
	.st63{fill:#AF6535;}
	.st64{fill:#B93226;}
	.st65{fill:#FF6050;}
	.st66{fill:#D06E3C;stroke:#464646;stroke-miterlimit:10;}
	.st67{fill:#EA7CB1;}
	.st68{fill:none;stroke:#6D6E71;stroke-width:10;stroke-linecap:round;stroke-linejoin:round;stroke-miterlimit:10;}
	.st69{fill:#00B0E0;}
	.st70{fill:#EA7DAE;}
	.st71{opacity:0.1;fill:#FFFFFF;}
	.st72{fill:#BC7532;}
	.st73{fill:#876C6C;}
	.st74{fill:#F9F6CD;}
	.st75{fill:#FFE37B;}
	.st76{fill:#1DDCFF;}
	.st77{fill:#60ACF7;}
	.st78{fill:#C3755A;}
	.st79{fill:#96557A;}
	.st80{fill:#66625D;}
	.st81{fill:#D68032;}
	.st82{opacity:0.8;fill:#FFFFFF;}
	.st83{fill:#F2A355;}
	.st84{fill:#7E9E6A;}
	.st85{opacity:0.3;}
	.st86{fill:#965A85;}
	.st87{opacity:0.7;fill:#FFFFFF;}
	.st88{fill:#90CAD3;}
	.st89{fill:#94B57F;}
	.st90{fill:#B2E2E7;}
	.st91{fill:#FFDF8F;}
	.st92{fill:#FFFAEB;}
	.st93{fill:#F88916;}
	.st94{fill:#FFC86E;}
	.st95{fill:#AFA51D;}
	.st96{fill:#968A1C;}
	.st97{fill:#C3556D;}
</style>
<g>
	<path class="st8" d="M70.3,149.1C66.8,169.1,54.1,179,41.4,179c-13.6,0-27.2-11.5-29.4-34.3c2.4-1.6,5.1-2.9,7.4-2.9
		c5.8,0,9.8,8.7,14.8,8.7c5,0,12.2-8.3,16.6-8.3c4.4,0,11.6,8.3,15.7,8.3C67.5,150.5,68.8,149.9,70.3,149.1z"/>
	<path class="st0" d="M241.5,144.5c-2.2,23-15.8,34.5-29.4,34.5l-170.7,0c12.7,0,25.4-10,28.8-29.9c4.2-2.3,9.5-6.9,12.1-6.9
		c3.5,0,11,8.3,15.9,8.3c4.9,0,9.7-7.9,14.6-7.9c4.9,0,9.3,7.9,14.2,7.9c4.9,0,9.8-7.9,14.6-7.9c4.8,0,11.9,7.9,17.7,7.9
		s8.4-7.4,13.3-7.4c4.9,0,13.2,7.4,17.7,7.4c4.5,0,9.1-8.7,13.9-8.7c4.8,0,11.5,8.7,16.3,8.7s10-8.7,14.8-8.7
		C236.9,141.8,239.2,143,241.5,144.5z"/>
	<path class="st11" d="M51.9,124c0,3.5-2.8,6.6-7.3,8.9c-4.3,2.2-10.2,3.5-16.7,3.5c-13.2,0-24-5.5-24-12.3c0-3.6,3-6.8,7.8-9.1
		c0,0.9-0.1,1.9-0.1,2.9l37,0C50.8,119.6,51.9,121.7,51.9,124z"/>
	<path class="st12" d="M85.3,124c0,3.5-2.8,6.6-7.3,8.9c-4.3,2.2-10.2,3.5-16.7,3.5c-6.5,0-12.4-1.3-16.7-3.5
		c4.5-2.2,7.3-5.4,7.3-8.9c0-2.3-1.2-4.4-3.2-6.2l33.3,0C84.1,119.6,85.3,121.7,85.3,124z"/>
	<path class="st11" d="M118.6,124c0,3.5-2.8,6.6-7.3,8.9c-4.3,2.2-10.2,3.5-16.7,3.5c-6.5,0-12.4-1.3-16.7-3.5
		c4.5-2.2,7.3-5.4,7.3-8.9c0-2.3-1.2-4.4-3.2-6.2l33.3,0C117.5,119.6,118.6,121.7,118.6,124z"/>
	<path class="st12" d="M152,124c0,3.5-2.8,6.6-7.3,8.9c-4.3,2.2-10.2,3.5-16.7,3.5c-6.5,0-12.4-1.3-16.7-3.5
		c4.5-2.2,7.3-5.4,7.3-8.9c0-2.3-1.2-4.4-3.2-6.2l33.3,0C150.8,119.6,152,121.7,152,124z"/>
	<path class="st11" d="M185.3,124c0,3.5-2.8,6.6-7.3,8.9c-4.3,2.2-10.2,3.5-16.7,3.5c-6.5,0-12.4-1.3-16.7-3.5
		c4.5-2.2,7.3-5.4,7.3-8.9c0-2.3-1.2-4.4-3.2-6.2l33.3,0C184.1,119.6,185.3,121.7,185.3,124z"/>
	<path class="st12" d="M218.7,124c0,3.5-2.8,6.6-7.3,8.9c-4.3,2.2-10.2,3.5-16.7,3.5s-12.4-1.3-16.7-3.5c4.5-2.2,7.3-5.4,7.3-8.9
		c0-2.3-1.2-4.4-3.3-6.2l33.3,0C217.5,119.6,218.7,121.8,218.7,124z"/>
	<path class="st11" d="M252,124c0,6.8-10.7,12.3-24,12.3c-6.5,0-12.4-1.3-16.7-3.5c4.5-2.2,7.3-5.4,7.3-8.9c0-2.3-1.2-4.4-3.2-6.2
		l26.4,0c0-1.3,0-2.6-0.1-3.9C247.9,116.1,252,119.8,252,124z"/>
	<path class="st2" d="M252,132.9c0,2.2-1.1,4.3-3.1,6L252,132.9z"/>
	<path class="st2" d="M240.1,143.6c3.7-1.1,6.7-2.7,8.8-4.6l-7.4,14.5c-0.4-0.3-0.9-0.6-1.3-0.8c-4.2,17.6-16.2,26.4-28.1,26.4
		l-170.7,0c0,0,166.9-8.6,177.2-12.6c5.1-2,9.3-8.1,12.2-13.8c-3.5,2.5-7,6.7-10.3,6.7c-4.7,0-11.5-8.7-16.3-8.7
		c-4.8,0-9.4,8.7-13.9,8.7s-12.9-7.5-17.7-7.5c-4.9,0-7.5,7.4-13.3,7.4c-5.8,0-12.9-7.9-17.7-7.9c-4.8,0-9.7,7.9-14.6,7.9
		c-4.9,0-9.3-7.9-14.2-7.9c-4.9,0-9.7,7.9-14.6,7.9c-4.9,0-12.4-8.3-15.9-8.3c-2.6,0-7.9,4.6-12.1,6.9c-1.5,0.8-2.8,1.4-3.8,1.4
		c-4.1,0-11.3-8.3-15.7-8.3c-4.4,0-11.6,8.3-16.6,8.3c-5,0-9-8.7-14.8-8.7c-2.2,0-4.9,1.3-7.4,2.9l-6.2-16
		c3.6,4.5,12.2,7.6,22.1,7.6c6.5,0,12.4-1.3,16.7-3.5c4.3,2.2,10.2,3.5,16.7,3.5s12.4-1.3,16.7-3.5c4.3,2.2,10.2,3.5,16.7,3.5
		c6.5,0,12.4-1.3,16.7-3.5c4.3,2.2,10.2,3.5,16.7,3.5c6.5,0,12.4-1.3,16.7-3.5c4.3,2.2,10.2,3.5,16.7,3.5c6.5,0,12.4-1.3,16.7-3.5
		c4.3,2.2,10.2,3.5,16.7,3.5c6.5,0,12.4-1.3,16.7-3.5c4.3,2.2,10.2,3.5,16.7,3.5c2.1,0,4.2-0.1,6.2-0.4c0.7-1.9,1.1-3.1,1.1-3.1
		C236.6,141.8,238.3,142.5,240.1,143.6z"/>
	<path class="st2" d="M4,132.9l1.8,4.7C4.6,136.2,4,134.6,4,132.9z"/>
	<path class="st5" d="M252,124l-1.3,28.1c0,0-4.6-4.5-9.2-7.6c-2.3-1.6-4.6-2.7-6.2-2.7c-4.8,0-10.1,8.7-14.8,8.7
		s-11.5-8.7-16.3-8.7c-4.8,0-9.4,8.7-13.9,8.7c-4.5,0-12.9-7.4-17.7-7.4c-4.9,0-7.5,7.4-13.3,7.4s-12.9-7.9-17.7-7.9
		c-4.8,0-9.7,7.9-14.6,7.9c-4.9,0-9.3-7.9-14.2-7.9c-4.9,0-9.7,7.9-14.6,7.9c-4.9,0-12.4-8.3-15.9-8.3c-2.6,0-7.9,4.6-12.1,6.9
		c-1.5,0.8-2.8,1.4-3.8,1.4c-4.1,0-11.3-8.3-15.7-8.3c-4.4,0-11.6,8.3-16.6,8.3c-5,0-9-8.7-14.8-8.7c-2.2,0-4.9,1.3-7.4,2.9
		c-3.9,2.5-7.1,5.8-7.1,5.8L4,124c0,6.8,10.7,12.3,24,12.3c6.5,0,12.4-1.3,16.7-3.5c4.3,2.2,10.2,3.5,16.7,3.5
		c6.5,0,12.4-1.3,16.7-3.5c4.3,2.2,10.2,3.5,16.7,3.5c6.5,0,12.4-1.3,16.7-3.5c4.3,2.2,10.2,3.5,16.7,3.5c6.5,0,12.4-1.3,16.7-3.5
		c4.3,2.2,10.2,3.5,16.7,3.5c6.5,0,12.4-1.3,16.7-3.5c4.3,2.2,10.2,3.5,16.7,3.5s12.4-1.3,16.7-3.5c4.3,2.2,10.2,3.5,16.7,3.5
		C241.3,136.4,252,130.8,252,124z"/>
	<path class="st1" d="M70.3,149.1C66.8,169.1,54.1,179,41.4,179c-13.6,0-27.2-11.5-29.4-34.3c2.4-1.6,5.1-2.9,7.4-2.9
		c5.8,0,9.8,8.7,14.8,8.7c5,0,12.2-8.3,16.6-8.3c4.4,0,11.6,8.3,15.7,8.3C67.5,150.5,68.8,149.9,70.3,149.1z"/>
	<path class="st1" d="M241.5,144.5c-2.2,23-15.8,34.5-29.4,34.5l-170.7,0c12.7,0,25.4-10,28.8-29.9c4.2-2.3,9.5-6.9,12.1-6.9
		c3.5,0,11,8.3,15.9,8.3c4.9,0,9.7-7.9,14.6-7.9c4.9,0,9.3,7.9,14.2,7.9c4.9,0,9.8-7.9,14.6-7.9c4.8,0,11.9,7.9,17.7,7.9
		s8.4-7.4,13.3-7.4c4.9,0,13.2,7.4,17.7,7.4c4.5,0,9.1-8.7,13.9-8.7c4.8,0,11.5,8.7,16.3,8.7s10-8.7,14.8-8.7
		C236.9,141.8,239.2,143,241.5,144.5z"/>
	<path class="st1" d="M51.9,124c0,3.5-2.8,6.6-7.3,8.9c-4.3,2.2-10.2,3.5-16.7,3.5c-13.2,0-24-5.5-24-12.3c0-3.6,3-6.8,7.8-9.1
		c0,0.9-0.1,1.9-0.1,2.9l37,0C50.8,119.6,51.9,121.7,51.9,124z"/>
	<path class="st1" d="M85.3,124c0,3.5-2.8,6.6-7.3,8.9c-4.3,2.2-10.2,3.5-16.7,3.5c-6.5,0-12.4-1.3-16.7-3.5
		c4.5-2.2,7.3-5.4,7.3-8.9c0-2.3-1.2-4.4-3.2-6.2l33.3,0C84.1,119.6,85.3,121.7,85.3,124z"/>
	<path class="st1" d="M118.6,124c0,3.5-2.8,6.6-7.3,8.9c-4.3,2.2-10.2,3.5-16.7,3.5c-6.5,0-12.4-1.3-16.7-3.5
		c4.5-2.2,7.3-5.4,7.3-8.9c0-2.3-1.2-4.4-3.2-6.2l33.3,0C117.5,119.6,118.6,121.7,118.6,124z"/>
	<path class="st1" d="M152,124c0,3.5-2.8,6.6-7.3,8.9c-4.3,2.2-10.2,3.5-16.7,3.5c-6.5,0-12.4-1.3-16.7-3.5c4.5-2.2,7.3-5.4,7.3-8.9
		c0-2.3-1.2-4.4-3.2-6.2l33.3,0C150.8,119.6,152,121.7,152,124z"/>
	<path class="st1" d="M185.3,124c0,3.5-2.8,6.6-7.3,8.9c-4.3,2.2-10.2,3.5-16.7,3.5c-6.5,0-12.4-1.3-16.7-3.5
		c4.5-2.2,7.3-5.4,7.3-8.9c0-2.3-1.2-4.4-3.2-6.2l33.3,0C184.1,119.6,185.3,121.7,185.3,124z"/>
	<path class="st1" d="M218.7,124c0,3.5-2.8,6.6-7.3,8.9c-4.3,2.2-10.2,3.5-16.7,3.5s-12.4-1.3-16.7-3.5c4.5-2.2,7.3-5.4,7.3-8.9
		c0-2.3-1.2-4.4-3.3-6.2l33.3,0C217.5,119.6,218.7,121.8,218.7,124z"/>
	<path class="st1" d="M252,124c0,6.8-10.7,12.3-24,12.3c-6.5,0-12.4-1.3-16.7-3.5c4.5-2.2,7.3-5.4,7.3-8.9c0-2.3-1.2-4.4-3.2-6.2
		l26.4,0c0-1.3,0-2.6-0.1-3.9C247.9,116.1,252,119.8,252,124z"/>
	<path class="st1" d="M252,124l-1.3,28.1c0,0-4.6-4.5-9.2-7.6c-2.3-1.6-4.6-2.7-6.2-2.7c-4.8,0-10.1,8.7-14.8,8.7
		s-11.5-8.7-16.3-8.7c-4.8,0-9.4,8.7-13.9,8.7c-4.5,0-12.9-7.4-17.7-7.4c-4.9,0-7.5,7.4-13.3,7.4s-12.9-7.9-17.7-7.9
		c-4.8,0-9.7,7.9-14.6,7.9c-4.9,0-9.3-7.9-14.2-7.9c-4.9,0-9.7,7.9-14.6,7.9c-4.9,0-12.4-8.3-15.9-8.3c-2.6,0-7.9,4.6-12.1,6.9
		c-1.5,0.8-2.8,1.4-3.8,1.4c-4.1,0-11.3-8.3-15.7-8.3c-4.4,0-11.6,8.3-16.6,8.3c-5,0-9-8.7-14.8-8.7c-2.2,0-4.9,1.3-7.4,2.9
		c-3.9,2.5-7.1,5.8-7.1,5.8L4,124c0,6.8,10.7,12.3,24,12.3c6.5,0,12.4-1.3,16.7-3.5c4.3,2.2,10.2,3.5,16.7,3.5
		c6.5,0,12.4-1.3,16.7-3.5c4.3,2.2,10.2,3.5,16.7,3.5c6.5,0,12.4-1.3,16.7-3.5c4.3,2.2,10.2,3.5,16.7,3.5c6.5,0,12.4-1.3,16.7-3.5
		c4.3,2.2,10.2,3.5,16.7,3.5c6.5,0,12.4-1.3,16.7-3.5c4.3,2.2,10.2,3.5,16.7,3.5s12.4-1.3,16.7-3.5c4.3,2.2,10.2,3.5,16.7,3.5
		C241.3,136.4,252,130.8,252,124z"/>
	<path class="st2" d="M13.1,126c2.1,0,225.6,0,228.7,0s3.9-3.9,3.8-5.2C244.3,96.2,226.2,85,212.1,85L41.4,85
		C27.1,85,10.3,97.6,9.3,123C9.3,123,11,126,13.1,126z"/>
	<path class="st8" d="M71.2,117.8l-59.4,0c0-1,0-1.9,0.1-2.9l0,0c1-25.4,15.3-38.1,29.7-38.1c13.9,0,27.8,12,29.5,35.9
		C71.1,114.3,71.2,116,71.2,117.8z"/>
	<path class="st0" d="M241.8,117.8l-170.7,0c0-1.8-0.1-3.5-0.2-5.1c-1.7-23.9-15.6-35.9-29.5-35.9l170.7,0c14.1,0,28.3,12.4,29.6,37
		C241.8,115.2,241.8,116.5,241.8,117.8z"/>
	<path class="st2" d="M212.1,76.8c14.1,0,28.3,12.4,29.6,37c0.1,1.3,0.1,2.6,0.1,3.9l-170.7,0c0-1.8-0.1-3.5-0.2-5.1
		c0,0,144.7-2,152.9-5.2C232,104.2,212.1,76.8,212.1,76.8z"/>
	<path class="st1" d="M71.2,117.8l-59.4,0c0-1,0-1.9,0.1-2.9l0,0c1-25.4,15.3-38.1,29.7-38.1c13.9,0,27.8,12,29.5,35.9
		C71.1,114.3,71.2,116,71.2,117.8z"/>
	<path class="st1" d="M241.8,117.8l-170.7,0c0-1.8-0.1-3.5-0.2-5.1c-1.7-23.9-15.6-35.9-29.5-35.9l170.7,0c14.1,0,28.3,12.4,29.6,37
		C241.8,115.2,241.8,116.5,241.8,117.8z"/>
	<path class="st1" d="M85.3,76.8c18.2,3.4,28.7,11,31.5,22.8"/>
	<path class="st1" d="M131.7,76.8c18.2,3.4,28.7,11,31.5,22.8"/>
	<path class="st1" d="M174.6,76.8c18.2,3.4,28.7,11,31.5,22.8"/>
</g>
</svg>
