<?xml version="1.0" encoding="utf-8"?>
<!-- Generator: Adobe Illustrator 21.1.0, SVG Export Plug-In . SVG Version: 6.00 Build 0)  -->
<svg version="1.1" id="Icon_Set" xmlns="http://www.w3.org/2000/svg" xmlns:xlink="http://www.w3.org/1999/xlink" x="0px" y="0px"
	 viewBox="0 0 512 512" style="enable-background:new 0 0 512 512;" xml:space="preserve">
<style type="text/css">
	.st0{fill:#FFFFFF;}
	.st1{fill:#5B7C31;}
	.st2{fill:#E56823;}
	.st3{fill:#FE8E46;}
	.st4{fill:#7DAC51;}
	.st5{fill:#463218;}
	.st6{fill:#FEFE71;}
	.st7{fill:#D6CD1E;}
	.st8{fill:none;stroke:#FFFFFF;stroke-width:14;stroke-miterlimit:10;}
	.st9{fill:none;stroke:#463218;stroke-width:14;stroke-linecap:round;stroke-linejoin:round;stroke-miterlimit:10;}
</style>
<g id="French_Fries">
	<g>
		<g>
			<g>
				<path class="st6" d="M230.2,255.3v-86.2l-25.4-17.6v91.9C212.5,248.5,221.1,252.6,230.2,255.3z"/>
			</g>
		</g>
	</g>
	<g>
		<g>
			<g>
				<path class="st6" d="M281.4,255.4v-87.8H256V259C264.8,259,273.4,257.7,281.4,255.4z"/>
			</g>
		</g>
	</g>
	<g>
		<g>
			<g>
				<path class="st6" d="M331.7,218.8h0.6v-49.8l-25.4-17.6v92.1C316.6,237,325.1,228.6,331.7,218.8z"/>
			</g>
		</g>
	</g>
	<g>
		<g>
			<g>
				<path class="st7" d="M306.9,243.5V130.2l-25.4,23.9v101.3C290.6,252.8,299.1,248.7,306.9,243.5z"/>
			</g>
		</g>
	</g>
	<g>
		<g>
			<g>
				<path class="st7" d="M230.2,255.3c2,0.6,4,1.1,6.1,1.6c0.1,0,0.2,0,0.3,0.1c0.9,0.2,1.8,0.4,2.7,0.5c0.2,0,0.4,0.1,0.6,0.1
					c0.8,0.1,1.6,0.3,2.4,0.4c0.3,0,0.5,0.1,0.8,0.1c0.8,0.1,1.6,0.2,2.4,0.3c0.3,0,0.5,0.1,0.8,0.1c0.8,0.1,1.6,0.2,2.4,0.2
					c0.2,0,0.5,0,0.7,0.1c0.9,0.1,1.7,0.1,2.6,0.1c0.2,0,0.4,0,0.5,0c1,0,2.1,0.1,3.2,0.1V116.4l-25.4,23.9L230.2,255.3
					C230.2,255.3,230.2,255.3,230.2,255.3z"/>
			</g>
		</g>
	</g>
	<g>
		<g>
			<g>
				<path class="st7" d="M180.3,218.8c6.5,9.6,14.8,17.9,24.5,24.5V129.1l-25.4-17.6v107.4H180.3z"/>
			</g>
		</g>
	</g>
	<g>
		<g>
			<g>
				<path class="st3" d="M331.7,218.8C315.2,243.1,287.5,259,256,259s-59.2-15.9-75.7-40.2h-26.7l35.8,181.7h133.2l35.8-181.7H331.7
					z"/>
			</g>
		</g>
	</g>
	<g>
		<g>
			<g>
				<path class="st2" d="M256,259L256,259c-31.5,0-59.3-15.9-75.7-40.2h-26.7l35.8,181.7H256V259z"/>
			</g>
		</g>
	</g>
	<g>
		<g>
			<g>
				<path class="st5" d="M322.6,407.5H189.4c-3.3,0-6.2-2.4-6.9-5.6l-35.8-181.7c-0.4-2.1,0.1-4.2,1.5-5.8c1.3-1.6,3.3-2.6,5.4-2.6
					h26.7c2.3,0,4.5,1.2,5.8,3.1C201.9,238.1,228,252,256,252s54.1-13.9,69.9-37.1c1.3-1.9,3.5-3.1,5.8-3.1h26.7
					c2.1,0,4.1,0.9,5.4,2.6c1.3,1.6,1.9,3.7,1.5,5.8l-35.8,181.7C328.8,405.2,326,407.5,322.6,407.5z M195.1,393.5h121.7l33-167.7
					h-14.6C316.8,251,287.4,266,256,266c-31.4,0-60.8-14.9-79.3-40.2h-14.6L195.1,393.5z"/>
			</g>
		</g>
	</g>
	<g>
		<g>
			<g>
				<path class="st5" d="M230.2,262.3c-0.7,0-1.3-0.1-2-0.3c-9.7-2.9-18.9-7.2-27.4-12.9c-1.9-1.3-3.1-3.5-3.1-5.8v-91.9
					c0-2.6,1.4-5,3.8-6.2c2.3-1.2,5.1-1,7.2,0.4l25.4,17.6c1.9,1.3,3,3.5,3,5.8v86.2c0,2.2-1,4.3-2.8,5.6
					C233.2,261.8,231.7,262.3,230.2,262.3z M211.8,239.5c3.7,2.3,7.5,4.2,11.4,5.9v-72.7l-11.4-7.9V239.5z"/>
			</g>
		</g>
	</g>
	<g>
		<g>
			<g>
				<path class="st5" d="M256,266c-3.9,0-7-3.1-7-7v-91.4c0-3.9,3.1-7,7-7h25.4c3.9,0,7,3.1,7,7v87.8c0,3.1-2.1,5.9-5.1,6.7
					C274.5,264.7,265.3,266,256,266z M281.4,255.4L281.4,255.4L281.4,255.4z M263,174.6v77.1c3.9-0.3,7.7-0.9,11.4-1.7v-75.3H263z"
					/>
			</g>
		</g>
	</g>
	<g>
		<g>
			<g>
				<path class="st5" d="M306.9,250.5c-1.1,0-2.3-0.3-3.3-0.8c-2.3-1.2-3.7-3.6-3.7-6.2v-92.1c0-2.6,1.4-5,3.8-6.2
					c2.3-1.2,5.1-1,7.2,0.4l25.4,17.6c1.9,1.3,3,3.5,3,5.8v49.8c0,2.4-1.3,4.6-3.2,5.9c-6.9,9.7-15.4,18-25.4,24.7
					C309.6,250.1,308.2,250.5,306.9,250.5z M313.9,164.8V229c4.2-4,8.1-8.4,11.4-13.3v-43L313.9,164.8z"/>
			</g>
		</g>
	</g>
	<g>
		<g>
			<g>
				<path class="st5" d="M281.4,262.4c-1.5,0-3-0.5-4.2-1.4c-1.8-1.3-2.8-3.4-2.8-5.6V154.1c0-1.9,0.8-3.8,2.2-5.1l25.4-23.9
					c2-1.9,5-2.4,7.6-1.3c2.6,1.1,4.2,3.6,4.2,6.4v113.4c0,2.3-1.2,4.5-3.1,5.8c-8.4,5.7-17.7,10-27.4,12.8
					C282.7,262.3,282.1,262.4,281.4,262.4z M288.4,157.1v88.4c3.9-1.6,7.8-3.6,11.4-5.8v-93.3L288.4,157.1z M306.9,243.5
					L306.9,243.5L306.9,243.5z"/>
			</g>
		</g>
	</g>
	<g>
		<g>
			<g>
				<path class="st5" d="M255.7,266C255.7,266,255.6,266,255.7,266c-1.2,0-2.3,0-3.4-0.1l-0.6,0c-0.9,0-1.9-0.1-2.8-0.2l-0.8-0.1
					c-0.9-0.1-1.7-0.1-2.6-0.2l-0.8-0.1c-0.8-0.1-1.7-0.2-2.5-0.3l-0.8-0.1c-0.9-0.1-1.7-0.3-2.6-0.4l-0.7-0.1
					c-1-0.2-1.9-0.4-2.9-0.6l-0.4-0.1c-2.2-0.5-4.4-1-6.5-1.7c-3-0.9-5.1-3.6-5.1-6.7v-115c0-1.9,0.8-3.8,2.2-5.1l25.4-23.9
					c2-1.9,5-2.4,7.6-1.3c2.6,1.1,4.2,3.6,4.2,6.4V259c0,1.9-0.7,3.6-2.1,5C259.3,265.2,257.5,266,255.7,266z M237.2,249.9
					c0.2,0,0.4,0.1,0.6,0.1l0.3,0.1c0.8,0.2,1.6,0.3,2.5,0.5l0.6,0.1c0.7,0.1,1.5,0.3,2.2,0.4l0.7,0.1c0.7,0.1,1.4,0.2,2.2,0.3
					l0.7,0.1c0.6,0.1,1.1,0.1,1.7,0.2v-119l-11.4,10.8V249.9z"/>
			</g>
		</g>
	</g>
	<g>
		<g>
			<g>
				<path class="st5" d="M204.8,250.3c-1.4,0-2.7-0.4-3.9-1.2c-9.7-6.6-18-14.6-24.8-24.1c-2.2-1.2-3.7-3.5-3.7-6.2V111.5
					c0-2.6,1.4-5,3.8-6.2c2.3-1.2,5.1-1,7.2,0.4l25.4,17.6c1.9,1.3,3,3.5,3,5.8v114.2c0,2.6-1.4,5-3.7,6.2
					C207,250,205.9,250.3,204.8,250.3z M186.4,215.3c3.4,4.9,7.2,9.4,11.4,13.4v-95.9l-11.4-7.9V215.3z"/>
			</g>
		</g>
	</g>
	<g>
		<g>
			<g>
				
					<rect x="290" y="330.7" transform="matrix(0.2153 -0.9765 0.9765 0.2153 -89.013 564.6829)" class="st0" width="33.8" height="14"/>
			</g>
		</g>
	</g>
	<g>
		<g>
			<g>
				
					<rect x="302" y="278.9" transform="matrix(0.2154 -0.9765 0.9765 0.2154 -29.4335 535.1603)" class="st0" width="32.7" height="14"/>
			</g>
		</g>
	</g>
	<g>
		<g>
			<g>
				<path class="st4" d="M191,400.5h130.1c-15.5-18.6-38.9-30.5-65-30.5S206.5,381.9,191,400.5z"/>
			</g>
		</g>
	</g>
	<g>
		<g>
			<g>
				<path class="st5" d="M321.1,407.5H191c-2.7,0-5.2-1.6-6.3-4c-1.2-2.5-0.8-5.4,1-7.4c17.5-21,43.1-33,70.4-33
					c27.3,0,52.9,12,70.4,33c1.7,2.1,2.1,5,1,7.4S323.8,407.5,321.1,407.5z M208.1,393.5h95.7C290.3,382.9,273.6,377,256,377
					C238.5,377,221.7,382.9,208.1,393.5z"/>
			</g>
		</g>
	</g>
</g>
</svg>
