<?xml version="1.0" encoding="utf-8"?>
<!-- Generator: Adobe Illustrator 21.1.0, SVG Export Plug-In . SVG Version: 6.00 Build 0)  -->
<svg version="1.1" id="Icon_Set" xmlns="http://www.w3.org/2000/svg" xmlns:xlink="http://www.w3.org/1999/xlink" x="0px" y="0px"
	 viewBox="0 0 512 512" style="enable-background:new 0 0 512 512;" xml:space="preserve">
<style type="text/css">
	.st0{fill:#FFFFFF;}
	.st1{fill:#5B7C31;}
	.st2{fill:#E56823;}
	.st3{fill:#FE8E46;}
	.st4{fill:#7DAC51;}
	.st5{fill:#463218;}
	.st6{fill:#FEFE71;}
	.st7{fill:#D6CD1E;}
	.st8{fill:none;stroke:#FFFFFF;stroke-width:14;stroke-miterlimit:10;}
	.st9{fill:none;stroke:#463218;stroke-width:14;stroke-linecap:round;stroke-linejoin:round;stroke-miterlimit:10;}
</style>
<g id="Fried_Rice">
	<g>
		<g>
			<g>
				<path class="st4" d="M387,275c0.1-0.9,0.1-1.8,0.1-2.6c0-17.5-14.2-31.7-31.7-31.7c-17.5,0-31.7,14.2-31.7,31.7
					c0,0.9,0,1.8,0.1,2.6H387z"/>
			</g>
		</g>
	</g>
	<g>
		<g>
			<g>
				<path class="st6" d="M201.8,275c1.8-4.9,2.9-10.2,2.9-15.8c0-24.8-20.1-44.8-44.8-44.8c-24.8,0-44.8,20.1-44.8,44.8
					c0,5.6,1,10.9,2.9,15.8H201.8z"/>
			</g>
		</g>
	</g>
	<g>
		<g>
			<g>
				<path class="st6" d="M336.4,333.1H175.6c-34.9,0-66.5-20.5-80.7-52.3l-2.6-5.8h327.5l-2.6,5.8
					C402.9,312.6,371.3,333.1,336.4,333.1z"/>
			</g>
		</g>
	</g>
	<g>
		<g>
			<g>
				<path class="st7" d="M207.3,280.8l-2.6-5.8H92.3l2.6,5.8c14.2,31.8,45.9,52.3,80.7,52.3H288
					C253.1,333.1,221.5,312.6,207.3,280.8z"/>
			</g>
		</g>
	</g>
	<g>
		<g>
			<g>
				<path class="st5" d="M387,282h-63.2c-3.6,0-6.7-2.8-7-6.4c-0.1-1.2-0.1-2.2-0.1-3.2c0-21.3,17.4-38.7,38.7-38.7
					c21.3,0,38.7,17.4,38.7,38.7c0,1,0,2-0.1,3.2C393.7,279.2,390.6,282,387,282z M331.1,268h48.6c-2.1-11.5-12.2-20.3-24.3-20.3
					S333.2,256.5,331.1,268z"/>
			</g>
		</g>
	</g>
	<g>
		<g>
			<g>
				<path class="st5" d="M201.8,282h-83.9c-2.9,0-5.5-1.8-6.6-4.5c-2.2-5.8-3.3-12-3.3-18.2c0-28.6,23.2-51.8,51.8-51.8
					c28.6,0,51.8,23.2,51.8,51.8c0,6.3-1.1,12.4-3.3,18.2C207.4,280.2,204.7,282,201.8,282z M123.1,268h73.6c0.7-2.9,1-5.8,1-8.8
					c0-20.9-17-37.8-37.8-37.8c-20.9,0-37.8,17-37.8,37.8C122,262.2,122.4,265.2,123.1,268z"/>
			</g>
		</g>
	</g>
	<g>
		<g>
			<g>
				<path class="st3" d="M159.9,275c0-53.1,43-96.1,96.1-96.1s96.1,43,96.1,96.1H159.9z"/>
			</g>
		</g>
	</g>
	<g>
		<g>
			<g>
				<path class="st2" d="M281.5,182.3c-8.1-2.2-16.7-3.4-25.5-3.4c-53.1,0-96.1,43-96.1,96.1h51
					C210.9,230.7,240.8,193.5,281.5,182.3z"/>
			</g>
		</g>
	</g>
	<g>
		<g>
			<g>
				<path class="st2" d="M254,206.7l-13.4,3.9c-2.9,0.9-6-0.8-6.8-3.7v0c-0.9-2.9,0.8-6,3.7-6.8l13.4-3.9c2.9-0.9,6,0.8,6.8,3.7v0
					C258.6,202.8,256.9,205.9,254,206.7z"/>
			</g>
		</g>
	</g>
	<g>
		<g>
			<g>
				<path class="st2" d="M256.9,234.2l-9.6-10.1c-2.1-2.2-2-5.7,0.2-7.8l0,0c2.2-2.1,5.7-2,7.8,0.2l9.6,10.1c2.1,2.2,2,5.7-0.2,7.8
					h0C262.4,236.5,259,236.4,256.9,234.2z"/>
			</g>
		</g>
	</g>
	<g>
		<g>
			<g>
				<path class="st2" d="M266.4,269.8l6.3-12.4c1.4-2.7,4.7-3.8,7.4-2.4l0,0c2.7,1.4,3.8,4.7,2.4,7.4l-6.3,12.4
					c-1.4,2.7-4.7,3.8-7.4,2.4h0C266.1,275.9,265,272.5,266.4,269.8z"/>
			</g>
		</g>
	</g>
	<g>
		<g>
			<g>
				<path class="st2" d="M295.1,239.2l-13.9,0.5c-3,0.1-5.6-2.3-5.7-5.3v0c-0.1-3,2.3-5.6,5.3-5.7l13.9-0.5c3-0.1,5.6,2.3,5.7,5.3
					l0,0C300.5,236.5,298.1,239,295.1,239.2z"/>
			</g>
		</g>
	</g>
	<g>
		<g>
			<g>
				<path class="st2" d="M250.5,254.6l-13.6,2.8c-3,0.6-5.9-1.3-6.5-4.3v0c-0.6-3,1.3-5.9,4.3-6.5l13.6-2.8c3-0.6,5.9,1.3,6.5,4.3
					l0,0C255.4,251.1,253.5,254,250.5,254.6z"/>
			</g>
		</g>
	</g>
	<g>
		<g>
			<g>
				<path class="st2" d="M313.8,259.9l-13.4-3.6c-2.9-0.8-4.7-3.8-3.9-6.7v0c0.8-2.9,3.8-4.7,6.7-3.9l13.4,3.6
					c2.9,0.8,4.7,3.8,3.9,6.7v0C319.7,259,316.7,260.7,313.8,259.9z"/>
			</g>
		</g>
	</g>
	<g>
		<g>
			<g>
				<path class="st2" d="M221.4,265.4l-10.2,9.5c-2.2,2.1-5.7,1.9-7.8-0.3l0,0c-2.1-2.2-1.9-5.7,0.3-7.8l10.2-9.5
					c2.2-2.1,5.7-1.9,7.8,0.3h0C223.8,259.8,223.7,263.3,221.4,265.4z"/>
			</g>
		</g>
	</g>
	<g>
		<g>
			<g>
				<path class="st2" d="M203.1,252.8l-13.8-1.5c-3-0.3-5.2-3-4.9-6.1l0,0c0.3-3,3-5.2,6.1-4.9l13.8,1.5c3,0.3,5.2,3,4.9,6.1v0
					C208.9,250.9,206.2,253.1,203.1,252.8z"/>
			</g>
		</g>
	</g>
	<g>
		<g>
			<g>
				<path class="st2" d="M284,216.6l-13.8-1.5c-3-0.3-5.2-3-4.9-6.1v0c0.3-3,3-5.2,6.1-4.9l13.8,1.5c3,0.3,5.2,3,4.9,6.1v0
					C289.7,214.7,287,216.9,284,216.6z"/>
			</g>
		</g>
	</g>
	<g>
		<g>
			<g>
				<path class="st2" d="M341.4,243.3l-13.9,0.4c-3,0.1-5.6-2.3-5.7-5.4v0c-0.1-3,2.3-5.6,5.4-5.7l13.9-0.4c3-0.1,5.6,2.3,5.7,5.4v0
					C346.8,240.7,344.4,243.2,341.4,243.3z"/>
			</g>
		</g>
	</g>
	<g>
		<g>
			<g>
				<path class="st2" d="M216.5,230.2l8.6-11c1.9-2.4,5.3-2.8,7.7-1l0,0c2.4,1.9,2.8,5.3,1,7.7l-8.6,11c-1.9,2.4-5.3,2.8-7.7,1l0,0
					C215,236.1,214.6,232.6,216.5,230.2z"/>
			</g>
		</g>
	</g>
	<g>
		<g>
			<g>
				<path class="st2" d="M193.6,210.6l13.3,4c2.9,0.9,4.6,3.9,3.7,6.9l0,0c-0.9,2.9-3.9,4.6-6.9,3.7l-13.3-4
					c-2.9-0.9-4.6-3.9-3.7-6.9v0C187.6,211.4,190.7,209.7,193.6,210.6z"/>
			</g>
		</g>
	</g>
	<g>
		<g>
			<g>
				<path class="st2" d="M307.2,215.1l13.1-4.8c2.9-1.1,6,0.4,7.1,3.2l0,0c1.1,2.9-0.4,6-3.2,7.1l-13.1,4.8c-2.9,1.1-6-0.4-7.1-3.2
					v0C302.9,219.3,304.3,216.2,307.2,215.1z"/>
			</g>
		</g>
	</g>
	<g>
		<g>
			<g>
				<path class="st5" d="M336.4,340.1H175.6c-37.6,0-71.8-22.2-87.1-56.5l-2.6-5.8c-1-2.2-0.8-4.7,0.5-6.7c1.3-2,3.5-3.2,5.9-3.2
					h327.5c2.4,0,4.6,1.2,5.9,3.2c1.3,2,1.5,4.5,0.5,6.7l-2.6,5.8C408.2,318,374,340.1,336.4,340.1z M103.2,282
					c13.9,26.9,41.8,44.1,72.4,44.1h160.8c30.6,0,58.5-17.2,72.4-44.1H103.2z"/>
			</g>
		</g>
	</g>
	<g>
		<g>
			<g>
				<path class="st5" d="M352.1,282H159.9c-3.9,0-7-3.1-7-7c0-56.9,46.3-103.1,103.1-103.1S359.1,218.1,359.1,275
					C359.1,278.9,356,282,352.1,282z M167.1,268h177.7c-3.6-45.9-42.1-82.1-88.9-82.1S170.7,222.1,167.1,268z"/>
			</g>
		</g>
	</g>
	<g>
		<g>
			<g>
				<rect x="154.7" y="292.4" class="st0" width="35.5" height="14"/>
			</g>
		</g>
	</g>
</g>
</svg>
