<?xml version="1.0" encoding="utf-8"?>
<!-- Generator: Adobe Illustrator 21.1.0, SVG Export Plug-In . SVG Version: 6.00 Build 0)  -->
<svg version="1.1" id="Icon_Set" xmlns="http://www.w3.org/2000/svg" xmlns:xlink="http://www.w3.org/1999/xlink" x="0px" y="0px"
	 viewBox="0 0 512 512" style="enable-background:new 0 0 512 512;" xml:space="preserve">
<style type="text/css">
	.st0{fill:#FFFFFF;}
	.st1{fill:#5B7C31;}
	.st2{fill:#E56823;}
	.st3{fill:#FE8E46;}
	.st4{fill:#7DAC51;}
	.st5{fill:#463218;}
	.st6{fill:#FEFE71;}
	.st7{fill:#D6CD1E;}
	.st8{fill:none;stroke:#FFFFFF;stroke-width:14;stroke-miterlimit:10;}
	.st9{fill:none;stroke:#463218;stroke-width:14;stroke-linecap:round;stroke-linejoin:round;stroke-miterlimit:10;}
</style>
<g id="Fusilli">
	<g>
		<g>
			<g>
				<polygon class="st7" points="174.3,208.8 191.8,156.8 181.1,106 165.3,162.7 134.9,169.5 				"/>
			</g>
		</g>
	</g>
	<g>
		<g>
			<g>
				<polygon class="st7" points="367.3,306.9 350.4,357 360.7,406 375.9,351.4 405.2,344.8 				"/>
			</g>
		</g>
	</g>
	<g>
		<g>
			<g>
				<path class="st6" d="M253,205.3c6.6-17.5,2.4-37.3-10.9-50.6l-7.5-7.5c-12.6-12.6-33.9-8-40.2,8.7L179,196.8
					c-6.6,17.5-2.4,37.3,10.9,50.6l7.5,7.5c12.6,12.6,33.9,8,40.2-8.7L253,205.3z"/>
			</g>
		</g>
	</g>
	<g>
		<g>
			<g>
				<path class="st6" d="M309,261.3c6.6-17.5,2.4-37.3-10.9-50.6l-7.5-7.5c-12.6-12.6-33.9-8-40.2,8.7L235,252.8
					c-6.6,17.5-2.4,37.3,10.9,50.6l7.5,7.5c12.6,12.6,33.9,8,40.2-8.7L309,261.3z"/>
			</g>
		</g>
	</g>
	<g>
		<g>
			<g>
				<path class="st6" d="M365,317.3c6.6-17.5,2.4-37.3-10.9-50.6l-7.5-7.5c-12.6-12.6-33.9-8-40.2,8.7L291,308.8
					c-6.6,17.5-2.4,37.3,10.9,50.6l7.5,7.5c12.6,12.6,33.9,8,40.2-8.7L365,317.3z"/>
			</g>
		</g>
	</g>
	<g>
		<g>
			<g>
				<path class="st7" d="M240.2,239.1c-7,0.8-14.5-1.3-20.1-7l-7.5-7.5c-13.2-13.2-17.5-33-10.9-50.6l12.8-33.8
					c-8.6,1-16.6,6.5-20,15.6L179,196.8c-6.6,17.5-2.4,37.3,10.9,50.6l7.5,7.5c12.6,12.6,33.9,8,40.2-8.7L240.2,239.1z"/>
			</g>
		</g>
	</g>
	<g>
		<g>
			<g>
				<path class="st7" d="M296.2,295.1c-7,0.8-14.5-1.3-20.1-7l-7.5-7.5c-13.2-13.2-17.5-33-10.9-50.6l12.8-33.8
					c-8.6,1-16.6,6.5-20,15.6L235,252.8c-6.6,17.5-2.4,37.3,10.9,50.6l7.5,7.5c12.6,12.6,33.9,8,40.2-8.7L296.2,295.1z"/>
			</g>
		</g>
	</g>
	<g>
		<g>
			<g>
				<path class="st7" d="M352.2,351.1c-7,0.8-14.5-1.3-20.1-7l-7.5-7.5c-13.2-13.2-17.5-33-10.9-50.6l12.8-33.8
					c-8.6,1-16.6,6.5-20,15.6L291,308.8c-6.6,17.5-2.4,37.3,10.9,50.6l7.5,7.5c12.6,12.6,33.9,8,40.2-8.7L352.2,351.1z"/>
			</g>
		</g>
	</g>
	<g>
		<g>
			<g>
				<path class="st5" d="M214.6,269c-8.2,0-16.2-3.2-22.2-9.2l-7.5-7.5c-15.2-15.2-20.1-37.9-12.5-58l15.4-40.9
					c3.8-10,12.3-17.4,22.8-19.6c10.5-2.3,21.3,0.9,28.9,8.5l7.5,7.5c15.2,15.2,20.1,37.9,12.5,58l-15.4,40.9
					c-3.8,10-12.3,17.4-22.8,19.6C219.1,268.8,216.8,269,214.6,269z M217.4,147.1c-1.3,0-2.5,0.1-3.8,0.4
					c-5.9,1.3-10.5,5.2-12.7,10.9l-15.4,40.9c-5.6,14.9-2,31.9,9.3,43.1l7.5,7.5c4.3,4.3,10.1,6,16,4.7c5.9-1.3,10.5-5.2,12.7-10.9
					l15.4-40.9l0,0c5.6-14.9,2-31.9-9.3-43.1l-7.5-7.5C226.3,148.9,222,147.1,217.4,147.1z"/>
			</g>
		</g>
	</g>
	<g>
		<g>
			<g>
				<path class="st5" d="M270.6,325c-8.2,0-16.2-3.2-22.2-9.2l-7.5-7.5c-15.2-15.2-20.1-37.9-12.5-58l15.4-40.9
					c3.8-10,12.3-17.4,22.8-19.6c10.5-2.3,21.3,0.9,28.9,8.5l7.5,7.5c15.2,15.2,20.1,37.9,12.5,58l-15.4,40.9
					c-3.8,10-12.3,17.4-22.8,19.6C275.1,324.8,272.8,325,270.6,325z M273.4,203.1c-1.3,0-2.5,0.1-3.8,0.4
					c-5.9,1.3-10.5,5.2-12.7,10.9l-15.4,40.9c-5.6,14.9-2,31.9,9.3,43.1l7.5,7.5c4.3,4.3,10.1,6,16,4.7c5.9-1.3,10.5-5.2,12.7-10.9
					l15.4-40.9l0,0c5.6-14.9,2-31.9-9.3-43.1l-7.5-7.5C282.3,204.9,278,203.1,273.4,203.1z"/>
			</g>
		</g>
	</g>
	<g>
		<g>
			<g>
				<path class="st5" d="M326.6,381c-8.2,0-16.2-3.2-22.2-9.2l-7.5-7.5c-15.2-15.2-20.1-37.9-12.5-58l15.4-40.9
					c3.8-10,12.3-17.4,22.8-19.6c10.5-2.3,21.3,0.9,28.9,8.5l7.5,7.5c15.2,15.2,20.1,37.9,12.5,58l-15.4,40.9
					c-3.8,10-12.3,17.4-22.8,19.6C331,380.8,328.8,381,326.6,381z M329.4,259.1c-1.3,0-2.5,0.1-3.8,0.4c-5.9,1.3-10.5,5.2-12.7,10.9
					l-15.4,40.9c-5.6,14.9-2,31.9,9.3,43.1l7.5,7.5c4.3,4.3,10.1,6,16,4.7c5.9-1.3,10.5-5.2,12.7-10.9l15.4-40.9l0,0
					c5.6-14.9,2-31.9-9.3-43.1l-7.5-7.5C338.3,260.8,334,259.1,329.4,259.1z"/>
			</g>
		</g>
	</g>
	<g>
		<g>
			<g>
				<path class="st5" d="M174.3,215.8c-1.8,0-3.6-0.7-4.9-2L130,174.4c-1.8-1.8-2.5-4.5-1.8-6.9c0.7-2.5,2.7-4.3,5.2-4.9l26.3-5.8
					l14.6-52.7c0.8-3,3.6-5.1,6.7-5.1c0.1,0,0.1,0,0.2,0c3.2,0.1,6,2.4,6.6,5.6l10.7,50.9c0.3,1.2,0.2,2.5-0.2,3.7l-17.6,52
					c-0.8,2.3-2.7,4-5,4.6C175.3,215.8,174.8,215.8,174.3,215.8z M148.9,173.6l22.4,22.4l13.3-39.5l-4.4-20.9l-8.1,29.1
					c-0.7,2.5-2.7,4.4-5.2,5L148.9,173.6z"/>
			</g>
		</g>
	</g>
	<g>
		<g>
			<g>
				<path class="st5" d="M360.7,413c-0.1,0-0.1,0-0.2,0c-3.2-0.1-6-2.4-6.6-5.6l-10.3-49c-0.3-1.2-0.2-2.5,0.2-3.7l16.9-50.1
					c0.8-2.3,2.7-4,5-4.6c2.4-0.6,4.8,0.2,6.5,1.9l37.9,37.9c1.8,1.8,2.5,4.5,1.8,6.9c-0.7,2.5-2.7,4.3-5.2,4.9l-25.2,5.6
					l-14.1,50.6C366.6,411,363.9,413,360.7,413z M357.6,357.5l4,19.1l7.5-27.1c0.7-2.5,2.7-4.4,5.2-5l16.9-3.7l-20.9-20.9
					L357.6,357.5z"/>
			</g>
		</g>
	</g>
	<g>
		<g>
			<g>
				
					<rect x="321.4" y="302.5" transform="matrix(0.2937 -0.9559 0.9559 0.2937 -56.4389 542.588)" class="st0" width="35.1" height="14"/>
			</g>
		</g>
	</g>
</g>
</svg>
