<?xml version="1.0" encoding="utf-8"?>
<!-- Generator: Adobe Illustrator 22.1.0, SVG Export Plug-In . SVG Version: 6.00 Build 0)  -->
<svg version="1.1" id="Layer_1" xmlns="http://www.w3.org/2000/svg" xmlns:xlink="http://www.w3.org/1999/xlink" x="0px" y="0px"
	 viewBox="0 0 256 256" style="enable-background:new 0 0 256 256;" xml:space="preserve">
<style type="text/css">
	.st0{fill:#F5B31F;}
	.st1{fill:none;stroke:#464646;stroke-width:8;stroke-linecap:round;stroke-linejoin:round;stroke-miterlimit:10;}
	.st2{opacity:0.15;fill:#464646;}
	.st3{fill:#AC6535;}
	.st4{fill:#EB573B;}
	.st5{fill:#90C056;}
	.st6{opacity:0.35;fill:#FFFFFF;}
	.st7{opacity:0.2;fill:#FFFFFF;}
	.st8{fill:#F6D67A;}
	.st9{opacity:0.15;fill:#FFFFFF;}
	.st10{opacity:0.3;fill:#FFFFFF;}
	.st11{fill:#AC6535;stroke:#464646;stroke-width:8;stroke-linecap:round;stroke-linejoin:round;stroke-miterlimit:10;}
	.st12{fill:#EB573B;stroke:#464646;stroke-width:8;stroke-miterlimit:10;}
	.st13{opacity:0.15;}
	.st14{fill:#464646;}
	.st15{fill:#FFA755;}
	.st16{fill:#8FAE3C;}
	.st17{fill:#BE6BB2;}
	.st18{fill:#B7C536;}
	.st19{opacity:0.1;}
	.st20{fill:#9D5A96;}
	.st21{fill:#EA615D;}
	.st22{opacity:0.4;fill:#FFFFFF;}
	.st23{opacity:7.000000e-02;}
	.st24{fill:#F79932;}
	.st25{fill:#FFEC97;}
	.st26{fill:#FFD11D;}
	.st27{opacity:0.2;}
	.st28{fill:#FFFFFF;}
	.st29{fill:#F7F2D5;}
	.st30{fill:#F6AF72;}
	.st31{fill:#BA6C45;}
	.st32{opacity:0.5;fill:#FFFFFF;}
	.st33{fill:#E4C074;}
	.st34{fill:none;stroke:#656566;stroke-width:8;stroke-linecap:round;stroke-linejoin:round;stroke-miterlimit:10;}
	.st35{fill:#FFA755;stroke:#464646;stroke-width:8;stroke-linecap:round;stroke-linejoin:round;stroke-miterlimit:10;}
	.st36{fill:#FFD11D;stroke:#464646;stroke-width:8;stroke-linecap:round;stroke-linejoin:round;stroke-miterlimit:10;}
	.st37{fill:#FACD1F;}
	.st38{fill:#FFDF66;}
	.st39{fill:#FFEC97;stroke:#464646;stroke-width:8;stroke-linecap:round;stroke-linejoin:round;stroke-miterlimit:10;}
	.st40{fill:#FFDF66;stroke:#464646;stroke-width:8;stroke-linecap:round;stroke-linejoin:round;stroke-miterlimit:10;}
	.st41{opacity:0.2;fill:#464646;}
	.st42{fill:#FFFFFF;stroke:#464646;stroke-width:8;stroke-linecap:round;stroke-linejoin:round;stroke-miterlimit:10;}
	.st43{fill:#6D6E71;stroke:#464646;stroke-width:8;stroke-linecap:round;stroke-linejoin:round;stroke-miterlimit:10;}
	.st44{opacity:0.1;fill:#464646;}
	.st45{fill:#E77CAE;}
	.st46{fill:#FFE5C4;}
	.st47{fill:#F68455;stroke:#464646;stroke-width:8;stroke-linecap:round;stroke-linejoin:round;stroke-miterlimit:10;}
	.st48{opacity:0.7;}
	.st49{fill:#ADEDFF;}
	.st50{fill:#EC754B;}
	.st51{fill:#4AA5BA;}
	.st52{opacity:0.5;}
	.st53{opacity:0.8;}
	.st54{fill:#F68455;}
	.st55{fill:#92A5AC;}
	.st56{fill:#6D6E71;}
	.st57{fill:#D06E3C;}
	.st58{fill:#DA4F4B;}
	.st59{fill:#BDF3FF;}
	.st60{fill:#F18BB4;}
	.st61{fill:#F9D97A;}
	.st62{fill:none;}
	.st63{fill:#AF6535;}
	.st64{fill:#B93226;}
	.st65{fill:#FF6050;}
	.st66{fill:#D06E3C;stroke:#464646;stroke-miterlimit:10;}
	.st67{fill:#EA7CB1;}
	.st68{fill:none;stroke:#6D6E71;stroke-width:10;stroke-linecap:round;stroke-linejoin:round;stroke-miterlimit:10;}
	.st69{fill:#00B0E0;}
	.st70{fill:#EA7DAE;}
	.st71{opacity:0.1;fill:#FFFFFF;}
	.st72{fill:#BC7532;}
	.st73{fill:#876C6C;}
	.st74{fill:#F9F6CD;}
	.st75{fill:#FFE37B;}
	.st76{fill:#1DDCFF;}
	.st77{fill:#60ACF7;}
	.st78{fill:#C3755A;}
	.st79{fill:#96557A;}
	.st80{fill:#66625D;}
	.st81{fill:#D68032;}
	.st82{opacity:0.8;fill:#FFFFFF;}
	.st83{fill:#F2A355;}
	.st84{fill:#7E9E6A;}
	.st85{opacity:0.3;}
	.st86{fill:#965A85;}
	.st87{opacity:0.7;fill:#FFFFFF;}
	.st88{fill:#90CAD3;}
	.st89{fill:#94B57F;}
	.st90{fill:#B2E2E7;}
	.st91{fill:#FFDF8F;}
	.st92{fill:#FFFAEB;}
	.st93{fill:#F88916;}
	.st94{fill:#FFC86E;}
	.st95{fill:#AFA51D;}
	.st96{fill:#968A1C;}
	.st97{fill:#C3556D;}
</style>
<g>
	<path class="st33" d="M154,92.3c-1.5-2.3-2.9-4.6-4.1-6.8c-0.2-0.4-0.4-0.8-0.6-1.2c-0.3-0.5-0.6-1.1-0.9-1.6
		c-0.4-0.7-0.8-1.5-1.1-2.2c-0.2-0.4-0.4-0.7-0.5-1.1c-2-4.3-3.6-8.2-4.7-11.6c-0.2-0.5-0.3-1-0.5-1.4c-0.4-1.2-0.7-2.2-1-3.3
		c-0.1-0.2-0.1-0.4-0.2-0.6c-0.1-0.4-0.2-0.8-0.3-1.2c-0.1-0.4-0.2-0.8-0.3-1.2c-0.1-0.3-0.1-0.6-0.2-0.9c-0.1-0.3-0.1-0.6-0.2-0.9
		c1.4,10.7,1.2,23,0.1,36.7c-3.8-12.1-7.8-23.9-11.7-34.8c-4.1,11.7-8.4,24.4-12.4,37.3c-1.2-14.7-1.6-27.9-0.1-39.2
		c-1.3,6.2-4.6,17.8-12.8,31.2c-5.5-3.2-7.4-9.3-5.5-18.3C107.6,52.4,113,33,115.6,19.9l22.4-16c0,0,2.3,31.7,18.8,63.1
		C157.8,78.6,156.8,87,154,92.3z"/>
	<path class="st32" d="M107.4,56.9c8.3-18.3,18.7-32.2,32.6-39.2l-3.4-11.3L116,18.5L107.4,56.9z"/>
	<path class="st29" d="M161.7,204c0,28.3-8.9,47.8-33.7,47.9l-0.2,0c-0.4,0-0.7,0-1.1,0c-49.9-1.3-33.6-83-11.3-154.3
		c4.1-13,8.3-25.6,12.4-37.3c3.8,11,7.8,22.7,11.7,34.8C151.4,132.7,161.7,173.4,161.7,204z"/>
	<path class="st19" d="M139.5,95.1c11.9,37.6,22.3,78.4,22.2,108.9c0,28.3-8.9,47.8-33.7,47.9l-0.2,0c-0.4,0-0.7,0-1.1,0
		c-17.2-0.4-26.5-10.4-30.5-26.2c0,0,26.6,27.4,46,1S139.5,95.1,139.5,95.1z"/>
	<path class="st29" d="M130.7,251.9c-0.9,0-1.8,0-2.7,0c24.8-0.1,33.7-19.6,33.7-47.9c0-30.6-10.4-71.3-22.2-108.9
		c1.1-13.7,1.3-26-0.1-36.7c0.1,0.3,0.1,0.6,0.2,0.9c0.1,0.3,0.1,0.6,0.2,0.9c0.1,0.4,0.2,0.8,0.3,1.2c0.1,0.4,0.2,0.8,0.3,1.2
		c0.1,0.2,0.1,0.4,0.2,0.6c0.3,1,0.6,2.1,1,3.3c0.1,0.5,0.3,0.9,0.5,1.4c1.1,3.4,2.7,7.4,4.7,11.6c0.2,0.4,0.4,0.7,0.5,1.1
		c0.4,0.7,0.7,1.4,1.1,2.2c0.3,0.5,0.6,1.1,0.9,1.6c0.2,0.4,0.4,0.8,0.6,1.2c1.2,2.2,2.6,4.5,4.1,6.8c0.4,0.7,0.9,1.3,1.4,2
		c0.2,0.3,0.5,0.7,0.7,1c0.7,1,1.4,2,2.2,3c0.2,0.2,0.3,0.4,0.5,0.7c0.2,0.3,0.4,0.6,0.7,0.9c0.3,0.3,0.5,0.7,0.8,1
		c0.7,0.9,1.5,1.9,2.3,2.8c0.4,0.4,0.7,0.9,1.1,1.3c2.3,2.6,4.7,5.2,7.4,7.7C214,149.4,239.1,250.2,130.7,251.9z"/>
	<path class="st19" d="M130.7,251.9c-0.9,0-1.8,0-2.7,0c24.8-0.1,65.9-30.4,65.9-58.7c0-30.6-27.2-71.9-37-83.8s-16-40.4-17.4-51.1
		c0.1,0.3,0.1,0.6,0.2,0.9c0.1,0.3,0.1,0.6,0.2,0.9c0.1,0.4,0.2,0.8,0.3,1.2c0.1,0.4,0.2,0.8,0.3,1.2c0.1,0.2,0.1,0.4,0.2,0.6
		c0.3,1,0.6,2.1,1,3.3c0.1,0.5,0.3,0.9,0.5,1.4c1.1,3.4,2.7,7.4,4.7,11.6c0.2,0.4,0.4,0.7,0.5,1.1c0.4,0.7,0.7,1.4,1.1,2.2
		c0.3,0.5,0.6,1.1,0.9,1.6c0.2,0.4,0.4,0.8,0.6,1.2c1.2,2.2,2.6,4.5,4.1,6.8c0.4,0.7,0.9,1.3,1.4,2c0.2,0.3,0.5,0.7,0.7,1
		c0.7,1,1.4,2,2.2,3c0.2,0.2,0.3,0.4,0.5,0.7c0.2,0.3,0.4,0.6,0.7,0.9c0.3,0.3,0.5,0.7,0.8,1c0.7,0.9,1.5,1.9,2.3,2.8
		c0.4,0.4,0.7,0.9,1.1,1.3c2.3,2.6,4.7,5.2,7.4,7.7C214,149.4,239.1,250.2,130.7,251.9z"/>
	<path class="st29" d="M126.6,251.9L126.6,251.9c-1.3,0-2.6,0-3.9,0c-107-2.4-82-102.7-39.2-139.1c8.2-7.9,14.3-15.8,18.9-23.2
		c8.3-13.3,11.6-25,12.8-31.2c-1.5,11.4-1.2,24.5,0.1,39.2C93,168.9,76.8,250.6,126.6,251.9z"/>
	<path class="st19" d="M100,249.6c6.8,1.3,14.4,2.1,22.7,2.3c1.3,0,2.6,0,3.9,0v0c-49.9-1.3-33.6-83-11.3-154.3
		c-0.3-3.8-0.6-7.5-0.8-11.1C83.7,158,70,218.1,100,249.6z"/>
	<path class="st29" d="M122.7,251.9c-142.2-2.5-124.9-105.5-68-137.4c19.3-10.8,32.7-26.8,42.1-43.2c-1.9,9,0,15.1,5.5,18.3
		c-4.6,7.4-10.7,15.4-18.9,23.2C40.8,149.2,15.7,249.5,122.7,251.9z"/>
	<path class="st19" d="M84.5,248.2c11.2,2.1,23.9,3.4,38.3,3.6c-107-2.4-82-102.7-39.2-139.1c8.2-7.9,14.3-15.8,18.9-23.2
		c-2.8-1.6-4.6-3.9-4.6-3.9S90.1,96,85.4,101.3C21.8,159.5,13.2,221.9,84.5,248.2z"/>
	<path class="st29" d="M130.7,251.9c108.4-1.7,83.3-102.5,40.4-139.1c-2.7-2.6-5.1-5.2-7.4-7.7c-0.4-0.4-0.7-0.9-1.1-1.3
		c-0.8-0.9-1.6-1.9-2.3-2.8c-0.3-0.3-0.5-0.7-0.8-1c-0.2-0.3-0.4-0.6-0.7-0.9c-0.2-0.2-0.4-0.5-0.5-0.7c-0.8-1-1.5-2-2.2-3
		c-0.2-0.3-0.5-0.7-0.7-1c-0.5-0.7-0.9-1.3-1.4-2c2.8-5.3,3.8-13.8,2.8-25.3c9.4,17.9,23.5,35.7,44.4,47.4
		C258.5,146.5,275.6,250.6,130.7,251.9z"/>
	<path class="st19" d="M188.9,113.1c26.7,21,41.8,46.7,42.4,68.4c0,51.6-100.6,70.4-100.6,70.4c144.9-1.3,127.8-105.4,70.5-137.5
		l-23.4-18C177.9,96.4,162.2,92.1,188.9,113.1z"/>
	<path class="st34" d="M161.7,204c0,28.3-8.9,47.8-33.7,47.9l-0.2,0c-0.4,0-0.7,0-1.1,0c-49.9-1.3-33.6-83-11.3-154.3
		c4.1-13,8.3-25.6,12.4-37.3c3.8,11,7.8,22.7,11.7,34.8C151.4,132.7,161.7,173.4,161.7,204z"/>
	<path class="st1" d="M130.7,251.9c-0.9,0-1.8,0-2.7,0c24.8-0.1,33.7-19.6,33.7-47.9c0-30.6-10.4-71.3-22.2-108.9
		c1.1-13.7,1.3-26-0.1-36.7c0.1,0.3,0.1,0.6,0.2,0.9c0.1,0.3,0.1,0.6,0.2,0.9c0.1,0.4,0.2,0.8,0.3,1.2c0.1,0.4,0.2,0.8,0.3,1.2
		c0.1,0.2,0.1,0.4,0.2,0.6c0.3,1,0.6,2.1,1,3.3c0.1,0.5,0.3,0.9,0.5,1.4c1.1,3.4,2.7,7.4,4.7,11.6c0.2,0.4,0.4,0.7,0.5,1.1
		c0.4,0.7,0.7,1.4,1.1,2.2c0.3,0.5,0.6,1.1,0.9,1.6c0.2,0.4,0.4,0.8,0.6,1.2c1.2,2.2,2.6,4.5,4.1,6.8c0.4,0.7,0.9,1.3,1.4,2
		c0.2,0.3,0.5,0.7,0.7,1c0.7,1,1.4,2,2.2,3c0.2,0.2,0.3,0.4,0.5,0.7c0.2,0.3,0.4,0.6,0.7,0.9c0.3,0.3,0.5,0.7,0.8,1
		c0.7,0.9,1.5,1.9,2.3,2.8c0.4,0.4,0.7,0.9,1.1,1.3c2.3,2.6,4.7,5.2,7.4,7.7C214,149.4,239.1,250.2,130.7,251.9z"/>
	<path class="st1" d="M126.6,251.9L126.6,251.9c-1.3,0-2.6,0-3.9,0c-107-2.4-82-102.7-39.2-139.1c8.2-7.9,14.3-15.8,18.9-23.2
		c8.3-13.3,11.6-25,12.8-31.2c-1.5,11.4-1.2,24.5,0.1,39.2C93,168.9,76.8,250.6,126.6,251.9z"/>
	<path class="st1" d="M122.7,251.9c-142.2-2.5-124.9-105.5-68-137.4c19.3-10.8,32.7-26.8,42.1-43.2c-1.9,9,0,15.1,5.5,18.3
		c-4.6,7.4-10.7,15.4-18.9,23.2C40.8,149.2,15.7,249.5,122.7,251.9z"/>
	<path class="st1" d="M130.7,251.9c108.4-1.7,83.3-102.5,40.4-139.1c-2.7-2.6-5.1-5.2-7.4-7.7c-0.4-0.4-0.7-0.9-1.1-1.3
		c-0.8-0.9-1.6-1.9-2.3-2.8c-0.3-0.3-0.5-0.7-0.8-1c-0.2-0.3-0.4-0.6-0.7-0.9c-0.2-0.2-0.4-0.5-0.5-0.7c-0.8-1-1.5-2-2.2-3
		c-0.2-0.3-0.5-0.7-0.7-1c-0.5-0.7-0.9-1.3-1.4-2c2.8-5.3,3.8-13.8,2.8-25.3c9.4,17.9,23.5,35.7,44.4,47.4
		C258.5,146.5,275.6,250.6,130.7,251.9z"/>
	<path class="st1" d="M154,92.3c-1.5-2.3-2.9-4.6-4.1-6.8c-0.2-0.4-0.4-0.8-0.6-1.2c-0.3-0.5-0.6-1.1-0.9-1.6
		c-0.4-0.7-0.8-1.5-1.1-2.2c-0.2-0.4-0.4-0.7-0.5-1.1c-2-4.3-3.6-8.2-4.7-11.6c-0.2-0.5-0.3-1-0.5-1.4c-0.4-1.2-0.7-2.2-1-3.3
		c-0.1-0.2-0.1-0.4-0.2-0.6c-0.1-0.4-0.2-0.8-0.3-1.2c-0.1-0.4-0.2-0.8-0.3-1.2c-0.1-0.3-0.1-0.6-0.2-0.9c-0.1-0.3-0.1-0.6-0.2-0.9
		c1.4,10.7,1.2,23,0.1,36.7c-3.8-12.1-7.8-23.9-11.7-34.8c-4.1,11.7-8.4,24.4-12.4,37.3c-1.2-14.7-1.6-27.9-0.1-39.2
		c-1.3,6.2-4.6,17.8-12.8,31.2c-5.5-3.2-7.4-9.3-5.5-18.3C107.6,52.4,113,33,115.6,19.9l22.4-16c0,0,2.3,31.7,18.8,63.1
		C157.8,78.6,156.8,87,154,92.3z"/>
</g>
</svg>
