<?xml version="1.0" encoding="utf-8"?>
<!-- Generator: Adobe Illustrator 22.1.0, SVG Export Plug-In . SVG Version: 6.00 Build 0)  -->
<svg version="1.1" id="Layer_1" xmlns="http://www.w3.org/2000/svg" xmlns:xlink="http://www.w3.org/1999/xlink" x="0px" y="0px"
	 viewBox="0 0 256 256" style="enable-background:new 0 0 256 256;" xml:space="preserve">
<style type="text/css">
	.st0{fill:#F5B31F;}
	.st1{fill:none;stroke:#464646;stroke-width:8;stroke-linecap:round;stroke-linejoin:round;stroke-miterlimit:10;}
	.st2{opacity:0.15;fill:#464646;}
	.st3{fill:#AC6535;}
	.st4{fill:#EB573B;}
	.st5{fill:#90C056;}
	.st6{opacity:0.35;fill:#FFFFFF;}
	.st7{opacity:0.2;fill:#FFFFFF;}
	.st8{fill:#F6D67A;}
	.st9{opacity:0.15;fill:#FFFFFF;}
	.st10{opacity:0.3;fill:#FFFFFF;}
	.st11{fill:#AC6535;stroke:#464646;stroke-width:8;stroke-linecap:round;stroke-linejoin:round;stroke-miterlimit:10;}
	.st12{fill:#EB573B;stroke:#464646;stroke-width:8;stroke-miterlimit:10;}
	.st13{opacity:0.15;}
	.st14{fill:#464646;}
	.st15{fill:#FFA755;}
	.st16{fill:#8FAE3C;}
	.st17{fill:#BE6BB2;}
	.st18{fill:#B7C536;}
	.st19{opacity:0.1;}
	.st20{fill:#9D5A96;}
	.st21{fill:#EA615D;}
	.st22{opacity:0.4;fill:#FFFFFF;}
	.st23{opacity:7.000000e-02;}
	.st24{fill:#F79932;}
	.st25{fill:#FFEC97;}
	.st26{fill:#FFD11D;}
	.st27{opacity:0.2;}
	.st28{fill:#FFFFFF;}
	.st29{fill:#F7F2D5;}
	.st30{fill:#F6AF72;}
	.st31{fill:#BA6C45;}
	.st32{opacity:0.5;fill:#FFFFFF;}
	.st33{fill:#E4C074;}
	.st34{fill:none;stroke:#656566;stroke-width:8;stroke-linecap:round;stroke-linejoin:round;stroke-miterlimit:10;}
	.st35{fill:#FFA755;stroke:#464646;stroke-width:8;stroke-linecap:round;stroke-linejoin:round;stroke-miterlimit:10;}
	.st36{fill:#FFD11D;stroke:#464646;stroke-width:8;stroke-linecap:round;stroke-linejoin:round;stroke-miterlimit:10;}
	.st37{fill:#FACD1F;}
	.st38{fill:#FFDF66;}
	.st39{fill:#FFEC97;stroke:#464646;stroke-width:8;stroke-linecap:round;stroke-linejoin:round;stroke-miterlimit:10;}
	.st40{fill:#FFDF66;stroke:#464646;stroke-width:8;stroke-linecap:round;stroke-linejoin:round;stroke-miterlimit:10;}
	.st41{opacity:0.2;fill:#464646;}
	.st42{fill:#FFFFFF;stroke:#464646;stroke-width:8;stroke-linecap:round;stroke-linejoin:round;stroke-miterlimit:10;}
	.st43{fill:#6D6E71;stroke:#464646;stroke-width:8;stroke-linecap:round;stroke-linejoin:round;stroke-miterlimit:10;}
	.st44{opacity:0.1;fill:#464646;}
	.st45{fill:#E77CAE;}
	.st46{fill:#FFE5C4;}
	.st47{fill:#F68455;stroke:#464646;stroke-width:8;stroke-linecap:round;stroke-linejoin:round;stroke-miterlimit:10;}
	.st48{opacity:0.7;}
	.st49{fill:#ADEDFF;}
	.st50{fill:#EC754B;}
	.st51{fill:#4AA5BA;}
	.st52{opacity:0.5;}
	.st53{opacity:0.8;}
	.st54{fill:#F68455;}
	.st55{fill:#92A5AC;}
	.st56{fill:#6D6E71;}
	.st57{fill:#D06E3C;}
	.st58{fill:#DA4F4B;}
	.st59{fill:#BDF3FF;}
	.st60{fill:#F18BB4;}
	.st61{fill:#F9D97A;}
	.st62{fill:none;}
	.st63{fill:#AF6535;}
	.st64{fill:#B93226;}
	.st65{fill:#FF6050;}
	.st66{fill:#D06E3C;stroke:#464646;stroke-miterlimit:10;}
	.st67{fill:#EA7CB1;}
	.st68{fill:none;stroke:#6D6E71;stroke-width:10;stroke-linecap:round;stroke-linejoin:round;stroke-miterlimit:10;}
	.st69{fill:#00B0E0;}
	.st70{fill:#EA7DAE;}
	.st71{opacity:0.1;fill:#FFFFFF;}
	.st72{fill:#BC7532;}
	.st73{fill:#876C6C;}
	.st74{fill:#F9F6CD;}
	.st75{fill:#FFE37B;}
	.st76{fill:#1DDCFF;}
	.st77{fill:#60ACF7;}
	.st78{fill:#C3755A;}
	.st79{fill:#96557A;}
	.st80{fill:#66625D;}
	.st81{fill:#D68032;}
	.st82{opacity:0.8;fill:#FFFFFF;}
	.st83{fill:#F2A355;}
	.st84{fill:#7E9E6A;}
	.st85{opacity:0.3;}
	.st86{fill:#965A85;}
	.st87{opacity:0.7;fill:#FFFFFF;}
	.st88{fill:#90CAD3;}
	.st89{fill:#94B57F;}
	.st90{fill:#B2E2E7;}
	.st91{fill:#FFDF8F;}
	.st92{fill:#FFFAEB;}
	.st93{fill:#F88916;}
	.st94{fill:#FFC86E;}
	.st95{fill:#AFA51D;}
	.st96{fill:#968A1C;}
	.st97{fill:#C3556D;}
</style>
<g>
	<path class="st26" d="M172.2,252.1l-88.2,0c-61.2,0-68-82.5-61.5-138.8c0.5-4.4,1.1-8.6,1.7-12.6c1.1,0.1,2.2,0.2,3.4,0.2
		c13.5,0,22.7-14.6,36.7-14.6s17.8,14.6,31.3,14.6c13.5,0,19.6-14,32.2-14c12.6,0,18.9,14,30.9,14c12,0,18.5-13,29.7-13
		c11.1,0,24.5,13,38.3,13c1.7,0,3.4-0.2,5.1-0.5c0.6,4,1.2,8.2,1.7,12.5C240.2,169.2,233.5,252.1,172.2,252.1z"/>
	<path class="st32" d="M44.7,94.2c-5.4,3.4-10.8,6.6-17.1,6.6c-1.1,0-2.3-0.1-3.4-0.2c-0.6,4-1.2,8.3-1.7,12.6
		c-6.5,56.3,0.3,138.8,61.5,138.8l59.6,0c0,0-77.3-2.6-91-42.8S44.7,94.2,44.7,94.2z"/>
	<g>
		<path class="st2" d="M231.9,100.3c0,0.1,0,0.2,0,0.3h0c0.1,0.9,0.3,1.8,0.4,2.7c0.2,1,0.3,2.1,0.4,3.1c0.1,1,0.3,2.1,0.4,3.2
			c0.1,1.1,0.3,2.1,0.4,3.2c0,0.2,0,0.3,0.1,0.5c6.5,56.3-0.3,138.8-61.5,138.8l-59.6,0c0,0,77.3-2.6,91-42.8
			c9.8-28.7,9.7-75.2,8.8-99.4c-8.6-3.8-16.6-9.2-23.8-9.2c-11.2,0-17.6,13-29.7,13c-12.1,0-18.3-14.1-30.9-14.1
			c-12.6,0-18.7,14.1-32.2,14.1c-13.5,0-17.3-14.6-31.3-14.6c-14,0-23.2,14.6-36.7,14.6c-1.1,0-2.3-0.1-3.4-0.2
			c-0.6-0.1-1.2-0.2-1.7-0.3c0.5-4.4,1.1-8.6,1.7-12.6C16.3,99.7,9.7,95.3,7.1,88c2.7,0.9,15.3,4.6,23.9-2.9
			c2.6-2.3,4.9-5.6,6.3-10.2c0.1,0,0.2,0,0.3,0l180.7,0c1.6,2.2,3.5,5.5,6.2,8.4c4.5,4.8,11.4,8.6,23.7,4.5c0.2,0.3,0.3,0.6,0.5,1
			C245.7,94.6,239,98.9,231.9,100.3z"/>
	</g>
	<path class="st74" d="M248.7,88.8c-3,5.8-9.7,10.1-16.8,11.5c-1.7,0.3-3.4,0.5-5.1,0.5c-13.9,0-27.2-13-38.3-13
		c-11.2,0-17.6,13-29.7,13c-12.1,0-18.3-14-30.9-14c-12.6,0-18.7,14-32.2,14c-13.5,0-17.3-14.6-31.3-14.6s-23.2,14.6-36.7,14.6
		c-1.1,0-2.3-0.1-3.4-0.2C16.3,99.7,9.7,95.3,7.1,88c-1.3-3.7-1.6-8-0.5-13.1c0,0,14.7,5.7,24.4-2.7c0.5-0.4,1-0.9,1.5-1.5
		c2-2.2,3.6-5,4.8-8.8c0.1,0,0.2,0,0.3,0l180.7,0c1.6,2.2,3.5,5.5,6.2,8.4c0,0,0.1,0.1,0.1,0.1c4.5,4.8,11.4,8.5,23.6,4.5
		C251,79.9,250.8,84.7,248.7,88.8z"/>
	<path class="st26" d="M37.3,61.9C37.3,61.9,37.3,61.9,37.3,61.9"/>
	<path class="st2" d="M221.1,61.9l-2.8,0c1.6,2.2,3.5,5.5,6.2,8.4c0,0,0.1,0.1,0.1,0.1c-1.1,0.4-2.3,0.7-3.5,0.7l-186,0
		c-0.9,0-1.8-0.1-2.6-0.4c2-2.2,3.6-5,4.8-8.8c0.1,0,0.2,0,0.3,0l-2.5,0c-2.5,0-4.8-1-6.5-2.7c-0.6-0.6-1.1-1.2-1.5-1.9
		c1.6-2.8,4.6-4.6,7.9-4.6l186,0c2.5,0,4.8,1,6.5,2.7c0.6,0.6,1.1,1.2,1.5,1.9C227.5,60.1,224.5,61.9,221.1,61.9z"/>
	<path class="st8" d="M230.3,52.8c0,1.7-0.5,3.2-1.2,4.6c-1.6,2.7-4.5,4.6-7.9,4.6l-186,0c-2.5,0-4.8-1-6.5-2.7
		c-0.6-0.6-1.1-1.2-1.5-1.9c-0.8-1.4-1.2-2.9-1.2-4.6c0-5.1,4.1-9.2,9.2-9.2l186,0c2.5,0,4.8,1,6.5,2.7
		C229.3,47.9,230.3,50.2,230.3,52.8z"/>
	<path class="st74" d="M221.1,26.3c0,13.2,0,17.3,0,17.3l-186,0c0,0,0-4.1,0-17.3S44,4.1,57.2,4.1c13.2,0,70.9,0,70.9,0
		s57.7,0,70.9,0C212.2,4.1,221.1,13,221.1,26.3z"/>
	<path class="st1" d="M172.2,252.1l-88.2,0c-61.2,0-68-82.5-61.5-138.8c0.5-4.4,1.1-8.6,1.7-12.6c1.1,0.1,2.2,0.2,3.4,0.2
		c13.5,0,22.7-14.6,36.7-14.6s17.8,14.6,31.3,14.6c13.5,0,19.6-14,32.2-14c12.6,0,18.9,14,30.9,14c12,0,18.5-13,29.7-13
		c11.1,0,24.5,13,38.3,13c1.7,0,3.4-0.2,5.1-0.5c0.6,4,1.2,8.2,1.7,12.5C240.2,169.2,233.5,252.1,172.2,252.1z"/>
	<path class="st1" d="M248.7,88.8c-3,5.8-9.7,10.1-16.8,11.5c-1.7,0.3-3.4,0.5-5.1,0.5c-13.9,0-27.2-13-38.3-13
		c-11.2,0-17.6,13-29.7,13c-12.1,0-18.3-14-30.9-14c-12.6,0-18.7,14-32.2,14c-13.5,0-17.3-14.6-31.3-14.6s-23.2,14.6-36.7,14.6
		c-1.1,0-2.3-0.1-3.4-0.2C16.3,99.7,9.7,95.3,7.1,88c-1.3-3.7-1.6-8-0.5-13.1c0,0,14.7,5.7,24.4-2.7c0.5-0.4,1-0.9,1.5-1.5
		c2-2.2,3.6-5,4.8-8.8c0.1,0,0.2,0,0.3,0l180.7,0c1.6,2.2,3.5,5.5,6.2,8.4c0,0,0.1,0.1,0.1,0.1c4.5,4.8,11.4,8.5,23.6,4.5
		C251,79.9,250.8,84.7,248.7,88.8z"/>
	<path class="st1" d="M37.3,61.9C37.3,61.9,37.3,61.9,37.3,61.9"/>
	<path class="st1" d="M230.3,52.8c0,1.7-0.5,3.2-1.2,4.6c-1.6,2.7-4.5,4.6-7.9,4.6l-186,0c-2.5,0-4.8-1-6.5-2.7
		c-0.6-0.6-1.1-1.2-1.5-1.9c-0.8-1.4-1.2-2.9-1.2-4.6c0-5.1,4.1-9.2,9.2-9.2l186,0c2.5,0,4.8,1,6.5,2.7
		C229.3,47.9,230.3,50.2,230.3,52.8z"/>
	<path class="st1" d="M221.1,26.3c0,13.2,0,17.3,0,17.3l-186,0c0,0,0-4.1,0-17.3S44,4.1,57.2,4.1c13.2,0,70.9,0,70.9,0
		s57.7,0,70.9,0C212.2,4.1,221.1,13,221.1,26.3z"/>
</g>
</svg>
