<?xml version="1.0" encoding="utf-8"?>
<!-- Generator: Adobe Illustrator 21.1.0, SVG Export Plug-In . SVG Version: 6.00 Build 0)  -->
<svg version="1.1" id="Icon_Set" xmlns="http://www.w3.org/2000/svg" xmlns:xlink="http://www.w3.org/1999/xlink" x="0px" y="0px"
	 viewBox="0 0 512 512" style="enable-background:new 0 0 512 512;" xml:space="preserve">
<style type="text/css">
	.st0{fill:#FFFFFF;}
	.st1{fill:#5B7C31;}
	.st2{fill:#E56823;}
	.st3{fill:#FE8E46;}
	.st4{fill:#7DAC51;}
	.st5{fill:#463218;}
	.st6{fill:#FEFE71;}
	.st7{fill:#D6CD1E;}
	.st8{fill:none;stroke:#FFFFFF;stroke-width:14;stroke-miterlimit:10;}
	.st9{fill:none;stroke:#463218;stroke-width:14;stroke-linecap:round;stroke-linejoin:round;stroke-miterlimit:10;}
</style>
<g id="Gluten_Free">
	<g>
		<g>
			<g>
				<g>
					<path class="st6" d="M188,258.5c19-1,35.1-11.7,44-26.9c-10.5-14.2-27.7-23.1-46.7-22c-19,1-35.1,11.7-44,26.9
						C151.8,250.7,169.1,259.5,188,258.5z"/>
				</g>
			</g>
		</g>
		<g>
			<g>
				<g>
					<path class="st7" d="M188,258.5c19-1,44-26.9,44-26.9l-90.7,4.9C141.3,236.5,169.1,259.5,188,258.5z"/>
				</g>
			</g>
		</g>
		<g>
			<g>
				<g>
					<path class="st6" d="M239.8,313.4c16.2-9.9,25.4-26.9,26-44.6c-16-7.6-35.3-7.2-51.6,2.7c-16.2,9.9-25.4,26.9-26,44.6
						C204.2,323.7,223.6,323.3,239.8,313.4z"/>
				</g>
			</g>
		</g>
		<g>
			<g>
				<g>
					<path class="st7" d="M239.8,313.4c16.2-9.9,26-44.6,26-44.6l-77.6,47.3C188.2,316.1,223.6,323.3,239.8,313.4z"/>
				</g>
			</g>
		</g>
		<g>
			<g>
				<g>
					<path class="st6" d="M142.8,176.1c13.4,13.4,32.1,18.4,49.5,14.8c3.6-17.3-1.3-36-14.8-49.5C164,128,145.3,123.1,128,126.6
						C124.4,143.9,129.3,162.7,142.8,176.1z"/>
				</g>
			</g>
		</g>
		<g>
			<g>
				<g>
					<path class="st7" d="M142.8,176.1c13.4,13.4,49.5,14.8,49.5,14.8L128,126.6C128,126.6,129.3,162.7,142.8,176.1z"/>
				</g>
			</g>
		</g>
		<g>
			<g>
				<g>
					<path class="st6" d="M259.9,186.7c-1,19-11.7,35.1-26.9,44c-14.2-10.5-23.1-27.7-22-46.7c1-19,11.7-35.1,26.9-44
						C252,150.5,260.9,167.7,259.9,186.7z"/>
				</g>
			</g>
		</g>
		<g>
			<g>
				<g>
					<path class="st7" d="M259.9,186.7c-1,19-26.9,44-26.9,44l4.9-90.7C237.8,140,260.9,167.7,259.9,186.7z"/>
				</g>
			</g>
		</g>
		<g>
			<g>
				<g>
					<path class="st6" d="M314.8,238.4c-9.9,16.2-26.9,25.4-44.6,26c-7.6-16-7.2-35.3,2.7-51.6c9.9-16.2,26.9-25.4,44.6-26
						C325,202.9,324.6,222.2,314.8,238.4z"/>
				</g>
			</g>
		</g>
		<g>
			<g>
				<g>
					<path class="st7" d="M314.8,238.4c-9.9,16.2-44.6,26-44.6,26l47.3-77.6C317.5,186.9,324.6,222.2,314.8,238.4z"/>
				</g>
			</g>
		</g>
		<g>
			<g>
				<g>
					<path class="st5" d="M181.1,199c-16.1,0-31.7-6.3-43.3-18c-14.6-14.6-20.9-35.5-16.7-55.8c0.6-2.7,2.7-4.9,5.4-5.4
						c20.3-4.2,41.2,2,55.8,16.7c14.6,14.6,20.9,35.5,16.7,55.8c-0.6,2.7-2.7,4.9-5.4,5.4C189.5,198.6,185.3,199,181.1,199z
						 M134.1,132.8c-1.5,14.1,3.4,28.2,13.6,38.4c10.2,10.2,24.2,15.1,38.4,13.6c1.5-14.1-3.4-28.2-13.6-38.4
						C162.3,136.2,148.2,131.3,134.1,132.8z"/>
				</g>
			</g>
		</g>
		<g>
			<g>
				<g>
					<path class="st5" d="M185.1,265.6c-19.4,0-37.7-9.2-49.4-25c-1.7-2.2-1.8-5.3-0.4-7.7c10.5-17.9,29-29.3,49.7-30.4
						c20.7-1.1,40.4,8.2,52.7,24.9c1.7,2.2,1.8,5.3,0.4,7.7c-10.5,17.9-29,29.3-49.7,30.4C187.3,265.6,186.2,265.6,185.1,265.6z
						 M150,236c9.5,10.6,23.3,16.3,37.7,15.5c14.4-0.8,27.4-8,35.8-19.5c-9.5-10.6-23.3-16.3-37.7-15.5
						C171.4,217.3,158.4,224.5,150,236z"/>
				</g>
			</g>
		</g>
		<g>
			<g>
				<g>
					<path class="st5" d="M211.5,328.4c-8.9,0-17.9-2-26.3-5.9c-2.5-1.2-4.1-3.8-4-6.6c0.7-20.7,11.7-39.5,29.4-50.3
						c17.7-10.8,39.4-11.9,58.2-3.1c2.5,1.2,4.1,3.8,4,6.6c-0.7,20.7-11.7,39.5-29.4,50.3v0C233.6,325.4,222.6,328.4,211.5,328.4z
						 M195.6,311.6c13.4,4.8,28.2,3.3,40.5-4.2l0,0c12.3-7.5,20.4-20,22.3-34.1c-13.4-4.8-28.2-3.3-40.5,4.2
						C205.6,285,197.5,297.5,195.6,311.6z"/>
				</g>
			</g>
		</g>
		<g>
			<g>
				<g>
					<path class="st5" d="M232.9,237.7c-1.5,0-2.9-0.5-4.2-1.4c-16.7-12.3-26-32-24.9-52.7c1.1-20.7,12.5-39.3,30.4-49.7
						c2.4-1.4,5.4-1.2,7.7,0.4c16.7,12.3,26,32,24.9,52.7v0c-1.1,20.7-12.5,39.3-30.4,49.7C235.4,237.4,234.1,237.7,232.9,237.7z
						 M237.3,148.7c-11.5,8.4-18.7,21.4-19.5,35.8c-0.8,14.4,5,28.1,15.5,37.7c11.5-8.4,18.7-21.4,19.5-35.8
						C253.6,171.9,247.9,158.2,237.3,148.7z M259.9,186.7L259.9,186.7L259.9,186.7z"/>
				</g>
			</g>
		</g>
		<g>
			<g>
				<g>
					<path class="st5" d="M270.2,271.5c-2.7,0-5.2-1.6-6.3-4c-8.9-18.8-7.7-40.5,3.1-58.2c10.8-17.7,29.6-28.7,50.3-29.4
						c2.8-0.1,5.4,1.5,6.6,4c8.9,18.8,7.7,40.5-3.1,58.2s-29.6,28.7-50.3,29.4C270.3,271.5,270.3,271.5,270.2,271.5z M313,194.3
						c-14.1,1.9-26.6,10-34.1,22.3c-7.5,12.3-8.9,27.1-4.2,40.5c14.1-1.9,26.6-10,34.1-22.3C316.3,222.5,317.7,207.7,313,194.3z"/>
				</g>
			</g>
		</g>
		<g>
			<g>
				<g>
					<path class="st5" d="M309,314.7c-1.8,0-3.6-0.7-4.9-2.1L187.3,195.8c-2.7-2.7-2.7-7.2,0-9.9c2.7-2.7,7.2-2.7,9.9,0l116.8,116.8
						c2.7,2.7,2.7,7.2,0,9.9C312.6,314,310.8,314.7,309,314.7z"/>
				</g>
			</g>
		</g>
	</g>
	<g>
		<g>
			<g>
				<g>
					<circle class="st4" cx="326.5" cy="327.9" r="58.6"/>
				</g>
			</g>
		</g>
		<g>
			<g>
				<g>
					<g>
						<path class="st5" d="M350.3,359.2c-1.8,0-3.6-0.7-5-2.1c-17.9-18-45.1-45.3-47.6-47.6c-1.5-1.3-2.4-3.2-2.4-5.3
							c0-3.9,3.1-7,7-7c2.9,0,4.1,1.2,7,4.1c1.3,1.3,3.2,3.2,5.5,5.5c4.5,4.5,10.5,10.5,16.5,16.5c12,12,23.9,24,23.9,24
							c2.7,2.7,2.7,7.2,0,9.9C353.9,358.5,352.1,359.2,350.3,359.2z M302.3,311.2C302.3,311.2,302.3,311.2,302.3,311.2
							C302.3,311.2,302.3,311.2,302.3,311.2z M302.3,311.2C302.3,311.2,302.3,311.2,302.3,311.2
							C302.3,311.2,302.3,311.2,302.3,311.2z M302.3,311.2C302.3,311.2,302.3,311.2,302.3,311.2
							C302.3,311.2,302.3,311.2,302.3,311.2z M302.3,311.2C302.3,311.2,302.3,311.2,302.3,311.2
							C302.3,311.2,302.3,311.2,302.3,311.2z M302.3,311.2C302.3,311.2,302.3,311.2,302.3,311.2
							C302.3,311.2,302.3,311.2,302.3,311.2z M302.3,311.2C302.3,311.2,302.3,311.2,302.3,311.2
							C302.3,311.2,302.3,311.2,302.3,311.2z M302.3,311.2C302.3,311.2,302.3,311.2,302.3,311.2
							C302.3,311.2,302.3,311.2,302.3,311.2z M302.3,311.2C302.3,311.2,302.3,311.2,302.3,311.2
							C302.3,311.2,302.3,311.2,302.3,311.2z M302.3,311.2C302.3,311.2,302.3,311.2,302.3,311.2
							C302.3,311.2,302.3,311.2,302.3,311.2z"/>
					</g>
				</g>
			</g>
			<g>
				<g>
					<g>
						<path class="st5" d="M302.3,359.2c-1.8,0-3.6-0.7-4.9-2c-2.7-2.7-2.8-7.2,0-9.9c0,0,11.9-12,23.9-24c6-6,12-12,16.5-16.5
							c2.3-2.3,4.2-4.1,5.5-5.5c2.9-2.9,4.1-4.1,7-4.1c3.9,0,7,3.1,7,7c0,2.1-0.9,4-2.4,5.3c-2.5,2.3-29.7,29.6-47.6,47.6
							C305.9,358.5,304.1,359.2,302.3,359.2z M350.3,311.2C350.3,311.2,350.3,311.2,350.3,311.2
							C350.3,311.2,350.3,311.2,350.3,311.2z M350.4,311.2C350.4,311.2,350.3,311.2,350.4,311.2
							C350.3,311.2,350.4,311.2,350.4,311.2z M350.4,311.2C350.4,311.2,350.4,311.2,350.4,311.2
							C350.4,311.2,350.4,311.2,350.4,311.2z M350.4,311.2C350.4,311.2,350.4,311.2,350.4,311.2
							C350.4,311.2,350.4,311.2,350.4,311.2z M350.4,311.2C350.4,311.2,350.4,311.2,350.4,311.2
							C350.4,311.2,350.4,311.2,350.4,311.2z M350.4,311.2C350.4,311.2,350.4,311.2,350.4,311.2
							C350.4,311.2,350.4,311.2,350.4,311.2z M350.4,311.2C350.4,311.2,350.4,311.2,350.4,311.2
							C350.4,311.2,350.4,311.2,350.4,311.2z M350.4,311.2C350.4,311.2,350.4,311.2,350.4,311.2
							C350.4,311.2,350.4,311.2,350.4,311.2z M350.4,311.2C350.4,311.2,350.4,311.2,350.4,311.2
							C350.4,311.2,350.4,311.2,350.4,311.2z"/>
					</g>
				</g>
			</g>
		</g>
		<g>
			<g>
				<g>
					<path class="st5" d="M326.5,393.5c-36.2,0-65.6-29.4-65.6-65.6s29.4-65.6,65.6-65.6s65.6,29.4,65.6,65.6
						S362.7,393.5,326.5,393.5z M326.5,276.3c-28.5,0-51.6,23.2-51.6,51.6s23.2,51.6,51.6,51.6s51.6-23.2,51.6-51.6
						S355,276.3,326.5,276.3z"/>
				</g>
			</g>
		</g>
	</g>
	<g>
		<g>
			<g>
				
					<rect x="219.4" y="176.3" transform="matrix(5.371208e-02 -0.9986 0.9986 5.371208e-02 39.8314 408.5717)" class="st0" width="32.3" height="14"/>
			</g>
		</g>
	</g>
</g>
</svg>
