<?xml version="1.0" encoding="utf-8"?>
<!-- Generator: Adobe Illustrator 21.1.0, SVG Export Plug-In . SVG Version: 6.00 Build 0)  -->
<svg version="1.1" id="Icon_Set" xmlns="http://www.w3.org/2000/svg" xmlns:xlink="http://www.w3.org/1999/xlink" x="0px" y="0px"
	 viewBox="0 0 512 512" style="enable-background:new 0 0 512 512;" xml:space="preserve">
<style type="text/css">
	.st0{fill:#FFFFFF;}
	.st1{fill:#5B7C31;}
	.st2{fill:#E56823;}
	.st3{fill:#FE8E46;}
	.st4{fill:#7DAC51;}
	.st5{fill:#463218;}
	.st6{fill:#FEFE71;}
	.st7{fill:#D6CD1E;}
	.st8{fill:none;stroke:#FFFFFF;stroke-width:14;stroke-miterlimit:10;}
	.st9{fill:none;stroke:#463218;stroke-width:14;stroke-linecap:round;stroke-linejoin:round;stroke-miterlimit:10;}
</style>
<g id="Green_Tea">
	<g>
		<g>
			<g>
				<path class="st4" d="M357,397.2H118.3l0,0c17.5-23,44.7-36.5,73.6-36.5h91.6C312.3,360.7,339.5,374.2,357,397.2L357,397.2z"/>
			</g>
		</g>
	</g>
	<g>
		<g>
			<g>
				<path class="st1" d="M268.7,360.7h-76.9c-28.9,0-56.1,13.5-73.6,36.5h76.9C212.6,374.2,239.8,360.7,268.7,360.7z"/>
			</g>
		</g>
	</g>
	<g>
		<g>
			<g>
				<polygon class="st3" points="280.1,360.7 195.1,360.7 160.8,207 314.5,207 				"/>
			</g>
		</g>
	</g>
	<g>
		<g>
			<g>
				<polygon class="st2" points="160.8,207 195.1,360.7 247,360.7 212.6,207 				"/>
			</g>
		</g>
	</g>
	<g>
		<g>
			<g>
				<path class="st5" d="M280.1,367.7h-85c-3.3,0-6.1-2.3-6.8-5.5l-34.3-153.7c-0.5-2.1,0-4.2,1.4-5.9c1.3-1.7,3.3-2.6,5.5-2.6
					h153.7c2.1,0,4.1,1,5.5,2.6c1.3,1.7,1.8,3.8,1.4,5.9L287,362.3C286.3,365.5,283.4,367.7,280.1,367.7z M200.7,353.7h73.8
					L305.7,214H169.5L200.7,353.7z"/>
			</g>
		</g>
	</g>
	<g>
		<g>
			<g>
				<path class="st5" d="M357,404.2H118.3c-2.7,0-5.1-1.5-6.3-3.9s-0.9-5.2,0.7-7.3c18.7-24.6,48.3-39.2,79.2-39.2h91.6
					c30.9,0,60.5,14.7,79.2,39.2c1.6,2.1,1.9,5,0.7,7.3S359.7,404.2,357,404.2z M134.1,390.2h207c-15.6-14.3-36.3-22.5-57.7-22.5
					h-91.6C170.4,367.7,149.7,375.9,134.1,390.2z"/>
			</g>
		</g>
	</g>
	<g>
		<g>
			<g>
				<polygon class="st4" points="297.3,283.9 303.9,254.6 171.4,254.6 177.9,283.9 				"/>
			</g>
		</g>
	</g>
	<g>
		<g>
			<g>
				<polygon class="st1" points="177.9,283.9 229.8,283.9 223.3,254.6 171.4,254.6 				"/>
			</g>
		</g>
	</g>
	<g>
		<g>
			<g>
				<path class="st5" d="M297.3,290.9H177.9c-3.3,0-6.1-2.3-6.8-5.5l-6.5-29.3c-0.5-2.1,0-4.2,1.4-5.9c1.3-1.7,3.3-2.6,5.5-2.6
					h132.5c2.1,0,4.1,1,5.5,2.6c1.3,1.7,1.8,3.8,1.4,5.9l-6.5,29.3C303.4,288.6,300.6,290.9,297.3,290.9z M183.6,276.9h108.2
					l3.4-15.3h-115L183.6,276.9z"/>
			</g>
		</g>
	</g>
	<g>
		<g>
			<g>
				<g>
					<path class="st4" d="M390.9,116.8c-23.6-5.7-49.6,1-67.6,19.8c-18,18.9-23.4,45.1-16.6,68.5c23.6,5.7,49.6-1,67.6-19.8
						C392.3,166.3,397.7,140.1,390.9,116.8z"/>
				</g>
			</g>
		</g>
		<g>
			<g>
				<g>
					<path class="st1" d="M390.9,116.8L390.9,116.8c-23.6-5.7-49.6,1-67.6,19.8c-18,18.9-23.4,45.1-16.6,68.5l0,0L390.9,116.8z"/>
				</g>
			</g>
		</g>
		<g>
			<g>
				<g>
					<path class="st5" d="M323.2,214c-6,0-12.1-0.7-18.1-2.2c-2.4-0.6-4.4-2.4-5.1-4.8c-7.7-26.5-0.8-55.3,18.3-75.3
						c19-19.9,47.5-28.3,74.3-21.8c2.4,0.6,4.4,2.4,5.1,4.8c7.7,26.5,0.7,55.3-18.3,75.3C364.6,205.5,344.2,214,323.2,214z
						 M312.4,199.1c20.8,3.6,42.2-3.4,56.8-18.7c14.6-15.3,20.6-37.1,16-57.7c-20.8-3.6-42.2,3.4-56.8,18.7
						C313.8,156.8,307.8,178.5,312.4,199.1z"/>
				</g>
			</g>
		</g>
		<g>
			<g>
				<g>
					<path class="st5" d="M306.7,212.1c-1.7,0-3.5-0.6-4.8-1.9c-2.8-2.7-2.9-7.1-0.2-9.9l40.7-42.7c2.7-2.8,7.1-2.9,9.9-0.2
						c2.8,2.7,2.9,7.1,0.2,9.9l-40.7,42.7C310.4,211.3,308.5,212.1,306.7,212.1z"/>
				</g>
			</g>
		</g>
	</g>
	<g>
		<g>
			<g>
				<g>
					<path class="st4" d="M252.5,130c-7.5,16.8-6.2,37.1,5.4,53.2c11.6,16,30.4,23.7,48.8,21.9c7.5-16.8,6.2-37.1-5.4-53.2
						S270.9,128.1,252.5,130z"/>
				</g>
			</g>
		</g>
		<g>
			<g>
				<g>
					<path class="st1" d="M252.5,130L252.5,130c-7.5,16.8-6.2,37.1,5.4,53.2c11.6,16,30.4,23.7,48.8,21.9l0,0L252.5,130z"/>
				</g>
			</g>
		</g>
		<g>
			<g>
				<g>
					<path class="st5" d="M301.4,212.3c-19.3,0-37.7-9.3-49.1-25.1c-12.6-17.4-14.9-40.5-6.1-60.1c1-2.3,3.2-3.9,5.7-4.1
						c21.4-2.2,42.6,7.3,55.1,24.8c12.6,17.4,14.9,40.5,6.1,60.1c-1,2.3-3.2,3.9-5.7,4.1C305.4,212.2,303.4,212.3,301.4,212.3z
						 M257.4,136.7c-4.9,14.2-2.6,30.1,6.2,42.3c8.8,12.1,22.9,19.3,37.7,19.3c0.2,0,0.3,0,0.5,0c4.9-14.2,2.6-30.1-6.2-42.3
						c-8.8-12.1-22.9-19.3-37.7-19.3C257.7,136.7,257.6,136.7,257.4,136.7z"/>
				</g>
			</g>
		</g>
	</g>
	<g>
		<g>
			<g>
				
					<rect x="210.7" y="307.4" transform="matrix(0.9623 -0.2719 0.2719 0.9623 -79.1727 71.301)" class="st0" width="14" height="27.8"/>
			</g>
		</g>
	</g>
</g>
</svg>
