<?xml version="1.0" encoding="utf-8"?>
<!-- Generator: Adobe Illustrator 16.0.0, SVG Export Plug-In . SVG Version: 6.00 Build 0)  -->
<!DOCTYPE svg PUBLIC "-//W3C//DTD SVG 1.1//EN" "http://www.w3.org/Graphics/SVG/1.1/DTD/svg11.dtd">
<svg version="1.1" xmlns="http://www.w3.org/2000/svg" xmlns:xlink="http://www.w3.org/1999/xlink" x="0px" y="0px" width="64px"
	 height="64px" viewBox="0 0 64 64" enable-background="new 0 0 64 64" xml:space="preserve">
<g id="_x32_5._ham_x2C__food_x2C__supermarket_x2C__shop_x2C__cooking_x2C__meat">
	<g>
		<path fill="#EFACA0" d="M13.5,32c0,10.82-2.66,21.5-6.02,22.43C7.32,54.48,7.16,54.5,7,54.5c-3.59,0-6.5-11.18-6.5-22.5
			S3.41,9.5,7,9.5c0.16,0,0.32,0.02,0.48,0.07C10.84,10.5,13.5,21.18,13.5,32z"/>
		<path fill="#E2958A" d="M10.5,32c0,8.559-1.57,17.5-3.5,17.5S3.5,40.559,3.5,32c0-8.561,1.57-17.5,3.5-17.5S10.5,23.439,10.5,32z"
			/>
		<path fill="#E6E9ED" d="M59.5,28.499c0-1.1,0.9-2,2-2s2,0.9,2,2v7.002c0,1.1-0.9,2-2,2s-2-0.9-2-2H44.018
			c1.011-1.531,1.48-4.502,1.48-4.502s-0.47-0.971-1.48-2.5H59.5z"/>
		<path fill="#E6E9ED" d="M7,28.5c0.554,0,1,1.57,1,3.5s-0.446,3.5-1,3.5S6,33.93,6,32S6.446,28.5,7,28.5z"/>
		<path fill="#E5675A" d="M49.022,29.5c1.011,1.529,1.48,2.5,1.48,2.5s-0.47,0.969-1.48,2.5c-3.859,5.859-18.532,20-41.522,20
			l-0.02-0.07C10.84,53.5,13.5,42.82,13.5,32S10.84,10.5,7.48,9.57L7.5,9.5C30.49,9.5,45.163,23.639,49.022,29.5z"/>
	</g>
</g>
<g id="_x32_4._cheese_x2C__food_x2C__supermarket_x2C__shop_x2C__cooking">
</g>
<g id="_x32_3._onion_x2C__food_x2C__supermarket_x2C__shop_x2C__cooking_x2C__vegetable">
</g>
<g id="_x32_2._pumpkin_x2C__food_x2C__supermarket_x2C__shop_x2C__cooking_x2C__vegetable">
</g>
<g id="_x32_1._pepper_x2C__food_x2C__supermarket_x2C__shop_x2C__cooking_x2C__vegetable">
</g>
<g id="_x32_0._bread_x2C__toast_x2C__food_x2C__supermarket_x2C__shop_x2C__cooking">
</g>
<g id="_x31_9._sausage_x2C__food_x2C__supermarket_x2C__shop_x2C__cooking_x2C__meat">
</g>
<g id="_x31_8._sausage_x2C__food_x2C__supermarket_x2C__shop_x2C__cooking_x2C__meat">
</g>
<g id="_x31_7._fish_x2C__steak_x2C__food_x2C__supermarket_x2C__shop_x2C__cooking">
</g>
<g id="_x31_6._meat_x2C__steak_x2C__food_x2C__supermarket_x2C__shop_x2C__cooking">
</g>
<g id="_x31_5._cherry_x2C__food_x2C__supermarket_x2C__shop_x2C__cooking_x2C__fruit">
</g>
<g id="_x31_4._pear_x2C__food_x2C__supermarket_x2C__shop_x2C__cooking_x2C__fruit">
</g>
<g id="_x31_3._pineapple_x2C__food_x2C__supermarket_x2C__shop_x2C__cooking_x2C__fruit">
</g>
<g id="_x31_2._cabbage_x2C__food_x2C__supermarket_x2C__shop_x2C__cooking_x2C__vegetable">
</g>
<g id="_x31_1._hot_x2C__pepper_x2C__food_x2C__supermarket_x2C__shop_x2C__cooking_x2C__vegetable">
</g>
<g id="_x31_0._corn_x2C__food_x2C__supermarket_x2C__shop_x2C__cooking_x2C__vegetable">
</g>
<g id="_x39_._carrot_x2C__food_x2C__supermarket_x2C__shop_x2C__cooking_x2C__vegetable">
</g>
<g id="_x38_._orange_x2C__food_x2C__supermarket_x2C__shop_x2C__cooking_x2C__fruit">
</g>
<g id="_x37_._apple_x2C__food_x2C__supermarket_x2C__shop_x2C__cooking_x2C__fruit">
</g>
<g id="_x36_._grape_x2C__food_x2C__supermarket_x2C__shop_x2C__cooking_x2C__fruit">
</g>
<g id="_x35_._banana_x2C__food_x2C__supermarket_x2C__shop_x2C__cooking_x2C__fruit">
</g>
<g id="_x34_._peach_x2C__food_x2C__supermarket_x2C__shop_x2C__cooking_x2C__fruit">
</g>
<g id="_x33_._kiwi_x2C__food_x2C__supermarket_x2C__shop_x2C__cooking_x2C__fruit">
</g>
<g id="_x32_._lemon_x2C__food_x2C__supermarket_x2C__shop_x2C__cooking_x2C__fruit">
</g>
<g id="_x31_._watermelon_x2C__food_x2C__supermarket_x2C__shop_x2C__cooking_x2C__fruit">
</g>
</svg>
