<?xml version="1.0" encoding="utf-8"?>
<!-- Generator: Adobe Illustrator 21.1.0, SVG Export Plug-In . SVG Version: 6.00 Build 0)  -->
<svg version="1.1" id="Icon_Set" xmlns="http://www.w3.org/2000/svg" xmlns:xlink="http://www.w3.org/1999/xlink" x="0px" y="0px"
	 viewBox="0 0 512 512" style="enable-background:new 0 0 512 512;" xml:space="preserve">
<style type="text/css">
	.st0{fill:#FFFFFF;}
	.st1{fill:#5B7C31;}
	.st2{fill:#E56823;}
	.st3{fill:#FE8E46;}
	.st4{fill:#7DAC51;}
	.st5{fill:#463218;}
	.st6{fill:#FEFE71;}
	.st7{fill:#D6CD1E;}
	.st8{fill:none;stroke:#FFFFFF;stroke-width:14;stroke-miterlimit:10;}
	.st9{fill:none;stroke:#463218;stroke-width:14;stroke-linecap:round;stroke-linejoin:round;stroke-miterlimit:10;}
</style>
<g id="Hotdog">
	<g>
		<g>
			<g>
				<path class="st7" d="M392.1,250.1c-90.1,15.5-182.2,15.5-272.3,0c-22.1-3.8-36.2-23.6-31.7-42.9l0,0c5.4-23,28.5-37.3,51.7-33.5
					c76.9,12.4,155.3,12.4,232.2,0c23.3-3.7,46.3,10.5,51.7,33.5l0,0C428.3,226.5,414.2,246.3,392.1,250.1z"/>
			</g>
		</g>
	</g>
	<g>
		<g>
			<g>
				<path class="st5" d="M256,268.7c-45.9,0-91.8-3.9-137.3-11.7c-13-2.2-24.4-9.5-31.4-20c-6.3-9.5-8.4-20.7-5.9-31.4
					c6.1-26.2,32.3-43.2,59.6-38.8c76.3,12.4,153.7,12.4,230,0c27.3-4.4,53.5,12.7,59.6,38.8c2.5,10.7,0.4,21.9-5.9,31.4
					c-7,10.5-18.4,17.8-31.4,20l0,0C347.8,264.8,301.9,268.7,256,268.7z M132.4,180c-17.6,0-33.4,11.7-37.4,28.7
					c-1.6,6.9-0.2,14.2,3.9,20.5c4.8,7.3,12.9,12.4,22.1,13.9c89.6,15.4,180.4,15.4,269.9,0c0,0,0,0,0,0c9.2-1.6,17.3-6.7,22.1-13.9
					c4.2-6.3,5.6-13.5,3.9-20.5c-4.5-19-23.7-31.4-43.8-28.2c-77.8,12.6-156.7,12.6-234.5,0C136.6,180.2,134.5,180,132.4,180z"/>
			</g>
		</g>
	</g>
	<g>
		<g>
			<g>
				<g>
					<path class="st3" d="M413.1,235.9c-0.2-20.5-17-36.9-37.5-36.7c-5.6,0.1-11,1.4-15.7,3.7l-32.2,10.8
						c-46.5,15.6-96.7,16.2-143.6,2l-27.3-8.3c-5.8-3.6-12.6-5.6-19.9-5.6c-20.5,0.2-36.9,17-36.7,37.5c0.2,17,11.7,31.1,27.3,35.4
						l40.3,14.3c57.7,17.6,119.4,16.7,176.6-2.4l39.6-13.2l-0.2-0.7C400.7,268.9,413.3,253.8,413.1,235.9z"/>
				</g>
			</g>
		</g>
		<g>
			<g>
				<g>
					<path class="st2" d="M383.5,244.2l0.2,0.7l-39.6,13.2c-57.2,19.1-118.9,20-176.6,2.4l-40.3-14.3c-11-3-20-10.9-24.4-21.2
						c-1.8,4.4-2.7,9.2-2.7,14.2c0.2,17,11.7,31.1,27.3,35.4l40.3,14.3c57.7,17.6,119.4,16.7,176.6-2.4l39.6-13.2l-0.2-0.7
						c16.9-3.6,29.5-18.7,29.3-36.7c-0.1-5-1.1-9.8-3-14.1C405.6,233,395.7,241.6,383.5,244.2z"/>
				</g>
			</g>
		</g>
		<g>
			<g>
				<g>
					<path class="st5" d="M252.4,308.6c-29.1,0-58.2-4.3-86.6-13c-0.1,0-0.2-0.1-0.3-0.1l-40-14.3c-18.8-5.2-32-22.5-32.2-42
						c-0.1-11.8,4.3-22.9,12.6-31.3c8.2-8.4,19.3-13.1,31-13.2c8.1-0.1,15.9,2,22.9,6.1l26.5,8.1c45.8,13.9,93.9,13.3,139.3-1.9
						l31.8-10.6c5.7-2.7,11.9-4.1,18.3-4.2c11.8-0.2,22.9,4.3,31.3,12.6c8.4,8.2,13.1,19.3,13.2,31v0c0.2,19.7-12.8,37.2-31.4,42.7
						c-0.7,0.6-1.5,1.1-2.4,1.4l-39.6,13.2C315.9,303.4,284.2,308.6,252.4,308.6z M170.1,282.3c56.6,17.2,116.1,16.4,172.2-2.4
						l36.5-12.2c1-1,2.2-1.7,3.6-2c13.9-3,23.9-15.5,23.8-29.7l0,0c-0.1-8-3.3-15.6-9-21.2c-5.7-5.5-13.1-8.6-21-8.6
						c-0.1,0-0.2,0-0.3,0c-4.5,0-8.8,1.1-12.7,3c-0.3,0.1-0.5,0.2-0.8,0.3L330,220.3c-48.1,16.1-99.3,16.8-147.8,2l-27.3-8.3
						c-0.6-0.2-1.1-0.4-1.6-0.7c-4.8-3-10.4-4.6-16.1-4.5c-8,0.1-15.6,3.3-21.2,9s-8.7,13.3-8.6,21.4c0.1,13.4,9.3,25.2,22.2,28.7
						c0.2,0,0.3,0.1,0.5,0.2L170.1,282.3z"/>
				</g>
			</g>
		</g>
	</g>
	<g>
		<g>
			<g>
				<path class="st6" d="M392.1,327.4c-90.1,15.5-182.2,15.5-272.3,0c-22.1-3.8-36.2-23.6-31.7-42.9l0,0c5.4-23,28.5-37.3,51.7-33.5
					c76.9,12.4,155.3,12.4,232.2,0c23.3-3.7,46.3,10.5,51.7,33.5l0,0C428.3,303.8,414.2,323.6,392.1,327.4z"/>
			</g>
		</g>
	</g>
	<g>
		<g>
			<g>
				<path class="st7" d="M420.4,275c-5.4,9.7-15.5,17.2-28.2,19.4c-90.1,15.5-182.2,15.5-272.3,0c-12.8-2.2-22.8-9.7-28.2-19.4
					c-1.5,3-2.7,6.1-3.5,9.5c-4.5,19.3,9.6,39.1,31.7,42.9c90.1,15.5,182.2,15.5,272.3,0c22.1-3.8,36.2-23.6,31.7-42.9
					C423,281.1,421.9,277.9,420.4,275z"/>
			</g>
		</g>
	</g>
	<g>
		<g>
			<g>
				<path class="st5" d="M256,346c-45.9,0-91.8-3.9-137.3-11.7c-13-2.2-24.4-9.5-31.4-20c-6.3-9.5-8.4-20.7-5.9-31.4
					c6.1-26.2,32.3-43.2,59.6-38.8c76.3,12.4,153.7,12.4,230,0c27.3-4.4,53.5,12.7,59.6,38.8c2.5,10.7,0.4,21.9-5.9,31.4
					c-7,10.5-18.4,17.8-31.4,20l0,0C347.8,342.1,301.9,346,256,346z M132.4,257.3c-17.6,0-33.4,11.7-37.4,28.7
					c-1.6,6.9-0.2,14.2,3.9,20.5c4.8,7.3,12.9,12.4,22.1,13.9c89.6,15.4,180.4,15.4,269.9,0c0,0,0,0,0,0c9.2-1.6,17.3-6.7,22.1-13.9
					c4.2-6.3,5.6-13.5,3.9-20.5c-4.5-19-23.7-31.4-43.8-28.2c-77.8,12.6-156.7,12.6-234.5,0C136.6,257.5,134.5,257.3,132.4,257.3z"
					/>
			</g>
		</g>
	</g>
	<g>
		<g>
			<g>
				<path class="st0" d="M359.5,239.5l-3.2-13.6c10.3-2.4,13.7-7.6,13.8-7.8l-0.1,0.1l12.2,7C381.6,226.3,375.8,235.7,359.5,239.5z"
					/>
			</g>
		</g>
	</g>
	<g>
		<g>
			<g>
				<path class="st5" d="M154.1,259.9c-2.1,0-4.1-0.9-5.5-2.7c-2.4-3.1-1.8-7.4,1.2-9.8l28.9-22.5c5.3-4.1,11.9-5.9,18.5-5.1
					c6.7,0.9,12.6,4.3,16.6,9.6l6.1,7.9c2,2.6,5.1,4.2,8.4,4.3c3.3,0.1,6.5-1.3,8.6-3.8c4.8-5.6,11.7-8.8,19-8.8c0,0,0,0,0,0
					c7.3,0,14.2,3.2,18.9,8.7c2.2,2.5,5.3,3.9,8.6,3.8c3.3-0.1,6.4-1.7,8.4-4.3l6.1-8c4.1-5.3,10-8.8,16.6-9.6
					c6.7-0.9,13.2,0.9,18.5,5.1l28.9,22.5c3,2.4,3.6,6.8,1.2,9.8c-2.4,3-6.8,3.6-9.8,1.2l-28.9-22.5c-2.3-1.8-5.2-2.6-8.1-2.2
					c-2.9,0.4-5.5,1.9-7.3,4.2l-6.1,8c-4.6,6-11.6,9.6-19.1,9.8c-7.6,0.2-14.7-3-19.7-8.7c-2.1-2.4-5.1-3.8-8.3-3.8
					c-3.2,0-6.2,1.4-8.3,3.8c-5,5.8-12.1,9-19.7,8.8c-7.6-0.2-14.6-3.8-19.2-9.8l-6.1-7.9c-1.8-2.3-4.4-3.8-7.3-4.2
					c-2.9-0.4-5.8,0.4-8.1,2.2l-28.9,22.5C157.1,259.4,155.6,259.9,154.1,259.9z"/>
			</g>
		</g>
	</g>
</g>
</svg>
