<?xml version="1.0" encoding="utf-8"?>
<!-- Generator: Adobe Illustrator 22.1.0, SVG Export Plug-In . SVG Version: 6.00 Build 0)  -->
<svg version="1.1" id="Layer_1" xmlns="http://www.w3.org/2000/svg" xmlns:xlink="http://www.w3.org/1999/xlink" x="0px" y="0px"
	 viewBox="0 0 256 256" style="enable-background:new 0 0 256 256;" xml:space="preserve">
<style type="text/css">
	.st0{fill:#F5B31F;}
	.st1{fill:none;stroke:#464646;stroke-width:8;stroke-linecap:round;stroke-linejoin:round;stroke-miterlimit:10;}
	.st2{opacity:0.15;fill:#464646;}
	.st3{fill:#AC6535;}
	.st4{fill:#EB573B;}
	.st5{fill:#90C056;}
	.st6{opacity:0.35;fill:#FFFFFF;}
	.st7{opacity:0.2;fill:#FFFFFF;}
	.st8{fill:#F6D67A;}
	.st9{opacity:0.15;fill:#FFFFFF;}
	.st10{opacity:0.3;fill:#FFFFFF;}
	.st11{fill:#AC6535;stroke:#464646;stroke-width:8;stroke-linecap:round;stroke-linejoin:round;stroke-miterlimit:10;}
	.st12{fill:#EB573B;stroke:#464646;stroke-width:8;stroke-miterlimit:10;}
	.st13{opacity:0.15;}
	.st14{fill:#464646;}
	.st15{fill:#FFA755;}
	.st16{fill:#8FAE3C;}
	.st17{fill:#BE6BB2;}
	.st18{fill:#B7C536;}
	.st19{opacity:0.1;}
	.st20{fill:#9D5A96;}
	.st21{fill:#EA615D;}
	.st22{opacity:0.4;fill:#FFFFFF;}
	.st23{opacity:7.000000e-02;}
	.st24{fill:#F79932;}
	.st25{fill:#FFEC97;}
	.st26{fill:#FFD11D;}
	.st27{opacity:0.2;}
	.st28{fill:#FFFFFF;}
	.st29{fill:#F7F2D5;}
	.st30{fill:#F6AF72;}
	.st31{fill:#BA6C45;}
	.st32{opacity:0.5;fill:#FFFFFF;}
	.st33{fill:#E4C074;}
	.st34{fill:none;stroke:#656566;stroke-width:8;stroke-linecap:round;stroke-linejoin:round;stroke-miterlimit:10;}
	.st35{fill:#FFA755;stroke:#464646;stroke-width:8;stroke-linecap:round;stroke-linejoin:round;stroke-miterlimit:10;}
	.st36{fill:#FFD11D;stroke:#464646;stroke-width:8;stroke-linecap:round;stroke-linejoin:round;stroke-miterlimit:10;}
	.st37{fill:#FACD1F;}
	.st38{fill:#FFDF66;}
	.st39{fill:#FFEC97;stroke:#464646;stroke-width:8;stroke-linecap:round;stroke-linejoin:round;stroke-miterlimit:10;}
	.st40{fill:#FFDF66;stroke:#464646;stroke-width:8;stroke-linecap:round;stroke-linejoin:round;stroke-miterlimit:10;}
	.st41{opacity:0.2;fill:#464646;}
	.st42{fill:#FFFFFF;stroke:#464646;stroke-width:8;stroke-linecap:round;stroke-linejoin:round;stroke-miterlimit:10;}
	.st43{fill:#6D6E71;stroke:#464646;stroke-width:8;stroke-linecap:round;stroke-linejoin:round;stroke-miterlimit:10;}
	.st44{opacity:0.1;fill:#464646;}
	.st45{fill:#E77CAE;}
	.st46{fill:#FFE5C4;}
	.st47{fill:#F68455;stroke:#464646;stroke-width:8;stroke-linecap:round;stroke-linejoin:round;stroke-miterlimit:10;}
	.st48{opacity:0.7;}
	.st49{fill:#ADEDFF;}
	.st50{fill:#EC754B;}
	.st51{fill:#4AA5BA;}
	.st52{opacity:0.5;}
	.st53{opacity:0.8;}
	.st54{fill:#F68455;}
	.st55{fill:#92A5AC;}
	.st56{fill:#6D6E71;}
	.st57{fill:#D06E3C;}
	.st58{fill:#DA4F4B;}
	.st59{fill:#BDF3FF;}
	.st60{fill:#F18BB4;}
	.st61{fill:#F9D97A;}
	.st62{fill:none;}
	.st63{fill:#AF6535;}
	.st64{fill:#B93226;}
	.st65{fill:#FF6050;}
	.st66{fill:#D06E3C;stroke:#464646;stroke-miterlimit:10;}
	.st67{fill:#EA7CB1;}
	.st68{fill:none;stroke:#6D6E71;stroke-width:10;stroke-linecap:round;stroke-linejoin:round;stroke-miterlimit:10;}
	.st69{fill:#00B0E0;}
	.st70{fill:#EA7DAE;}
	.st71{opacity:0.1;fill:#FFFFFF;}
	.st72{fill:#BC7532;}
	.st73{fill:#876C6C;}
	.st74{fill:#F9F6CD;}
	.st75{fill:#FFE37B;}
	.st76{fill:#1DDCFF;}
	.st77{fill:#60ACF7;}
	.st78{fill:#C3755A;}
	.st79{fill:#96557A;}
	.st80{fill:#66625D;}
	.st81{fill:#D68032;}
	.st82{opacity:0.8;fill:#FFFFFF;}
	.st83{fill:#F2A355;}
	.st84{fill:#7E9E6A;}
	.st85{opacity:0.3;}
	.st86{fill:#965A85;}
	.st87{opacity:0.7;fill:#FFFFFF;}
	.st88{fill:#90CAD3;}
	.st89{fill:#94B57F;}
	.st90{fill:#B2E2E7;}
	.st91{fill:#FFDF8F;}
	.st92{fill:#FFFAEB;}
	.st93{fill:#F88916;}
	.st94{fill:#FFC86E;}
	.st95{fill:#AFA51D;}
	.st96{fill:#968A1C;}
	.st97{fill:#C3556D;}
</style>
<g>
	<path class="st0" d="M153.8,9.7c29.4-29.4,121.8,63.2,92.4,92.5l-142,142.1C70.5,278.1-22,185.5,11.8,151.8L153.8,9.7z"/>
	<polygon class="st2" points="54.2,235.6 237.5,52.2 239.6,64.4 62.5,241.6 	"/>
	<path class="st2" d="M246,66.2c7,14.3,8.5,27.6,0.2,36l-142,142.1c-8.2,8.2-19.8,9-32.3,4.9C100.1,241.6,221.7,113.7,246,66.2z"/>
	<path class="st6" d="M183.6,7.2c-11.9-4.6-22.7-4.6-29.8,2.5l-142,142.1c-12.1,12.1-8,31.8,3.9,50.5C38.1,140.5,106,74.3,183.6,7.2
		z"/>
	<path class="st1" d="M153.8,9.7c29.4-29.4,121.8,63.2,92.4,92.5l-142,142.1C70.5,278.1-22,185.5,11.8,151.8L153.8,9.7z"/>
	<path class="st3" d="M211.4,10.8c18.1-18.1,51.8,15.7,33.7,33.8L42.6,247.2c-17.1,17.1-50.9-16.7-33.7-33.8L211.4,10.8z"/>
	<path class="st2" d="M211.4,10.8c18.1-18.1,51.8,15.7,33.7,33.8L42.6,247.2c0,0,182.1-194.8,186.6-212
		C233.7,18,211.4,10.8,211.4,10.8z"/>
	<path class="st7" d="M42.6,247.2c-17.1,17.1-50.9-16.7-33.7-33.8l33.9-33.9c0,0-19.3,23.6-19.3,46.8
		C23.4,249.5,42.6,247.2,42.6,247.2z"/>
	<path class="st1" d="M211.4,10.8c18.1-18.1,51.8,15.7,33.7,33.8L42.6,247.2c-17.1,17.1-50.9-16.7-33.7-33.8L211.4,10.8z"/>
	<path class="st1" d="M198.2,60.2c6.1,6.1-5.8,18.1-11.9,11.9c-7.6-7.6-19,3.8-11.4,11.4c7.1,7.1-4.6,18.9-11.7,11.8
		c-7.6-7.6-19,3.8-11.4,11.4c6.1,6.1-5.8,18.1-11.9,11.9c-7.6-7.6-19,3.8-11.4,11.4c7.1,7.1-4.6,18.9-11.7,11.8
		c-7.6-7.6-19,3.8-11.4,11.4c6.1,6.1-5.8,18.1-11.9,11.9c-7.6-7.6-19,3.8-11.4,11.4c7.1,7.1-4.6,18.9-11.7,11.8
		c-7.6-7.6-19,3.8-11.4,11.4"/>
</g>
</svg>
