<?xml version="1.0" encoding="utf-8"?>
<!-- Generator: Adobe Illustrator 21.1.0, SVG Export Plug-In . SVG Version: 6.00 Build 0)  -->
<svg version="1.1" id="Icon_Set" xmlns="http://www.w3.org/2000/svg" xmlns:xlink="http://www.w3.org/1999/xlink" x="0px" y="0px"
	 viewBox="0 0 512 512" style="enable-background:new 0 0 512 512;" xml:space="preserve">
<style type="text/css">
	.st0{fill:#FFFFFF;}
	.st1{fill:#5B7C31;}
	.st2{fill:#E56823;}
	.st3{fill:#FE8E46;}
	.st4{fill:#7DAC51;}
	.st5{fill:#463218;}
	.st6{fill:#FEFE71;}
	.st7{fill:#D6CD1E;}
	.st8{fill:none;stroke:#FFFFFF;stroke-width:14;stroke-miterlimit:10;}
	.st9{fill:none;stroke:#463218;stroke-width:14;stroke-linecap:round;stroke-linejoin:round;stroke-miterlimit:10;}
</style>
<g id="Ice_Cream">
	<g>
		<g>
			<g>
				<polygon class="st6" points="177.1,211.1 330.7,211.1 253.9,428.4 				"/>
			</g>
		</g>
	</g>
	<g>
		<g>
			<g>
				<polygon class="st7" points="177.1,211.1 253.9,211.1 253.9,428.4 				"/>
			</g>
		</g>
	</g>
	<g>
		<g>
			<g>
				<path class="st5" d="M253.9,435.4c-3,0-5.6-1.9-6.6-4.7l-76.8-217.2c-0.8-2.1-0.4-4.5,0.9-6.4c1.3-1.9,3.4-3,5.7-3h153.6
					c2.3,0,4.4,1.1,5.7,3c1.3,1.9,1.6,4.2,0.9,6.4l-76.8,217.2C259.5,433.5,256.9,435.4,253.9,435.4z M187,218.1l66.9,189.2
					l66.9-189.2H187z"/>
			</g>
		</g>
	</g>
	<g>
		<g>
			<g>
				<path class="st3" d="M354.1,208.5c-1.2-10.7-9.7-19.3-20.4-20.7c-0.9-0.1-1.7-0.2-2.6-0.2c2.2-7.4,3.4-15.2,3.4-23.4
					c0-44.5-36.1-80.6-80.6-80.6s-80.6,36.1-80.6,80.6c0,8.3,1.3,16.3,3.6,23.8c-10.3,2-18.4,10.9-19.1,21.6
					c-0.9,13.7,10,25,23.5,25c2.1,0,4.1-0.3,6-0.8c8.2-2.2,16.7-2.3,25-0.6c12.2,7.4,26.4,11.6,41.7,11.6
					c14.7,0,43.7-10.3,45.5-10.3c1.7,0,3.4-0.2,5-0.5c7-1.5,14.3-1.5,21.3,0c1.6,0.4,3.3,0.5,5,0.5
					C344.6,234.6,355.7,222.6,354.1,208.5z"/>
			</g>
		</g>
	</g>
	<g>
		<g>
			<g>
				<g>
					<path class="st2" d="M211.5,217.7c0.7-10.7,8.7-19.6,19.1-21.6c-2.3-7.5-3.6-15.5-3.6-23.8c0-39.2,28-71.9,65.1-79.1
						c-11.4-6.1-24.4-9.6-38.2-9.6c-44.5,0-80.6,36.1-80.6,80.6c0,8.3,1.3,16.3,3.6,23.8c-10.3,2-18.4,10.9-19.1,21.6
						c-0.9,13.7,10,25,23.5,25c2.1,0,4.1-0.3,6-0.8c8.2-2.2,16.7-2.3,25-0.6c2.6,1.6,5.3,3,8.1,4.3C214.6,233,211,225.8,211.5,217.7
						z"/>
				</g>
			</g>
		</g>
		<g>
			<g>
				<g>
					<path class="st2" d="M265.9,241.4c-8.3-1.8-16.8-1.6-25,0.6c-1.9,0.5-3.8,0.7-5.8,0.8c6,1.4,12.3,2.2,18.8,2.2
						c4.1,0,9.3-0.8,14.7-2C267.8,242.5,266.8,241.9,265.9,241.4z"/>
				</g>
			</g>
		</g>
	</g>
	<g>
		<g>
			<g>
				<path class="st5" d="M253.9,251.9c-15.6,0-30.9-4.1-44.3-12c-6.9-1.3-13.9-1.1-20.7,0.7c-2.5,0.7-5.1,1-7.7,1
					c-8.4,0-16.5-3.5-22.2-9.6c-5.8-6.2-8.7-14.3-8.2-22.8c0.7-11.3,7.6-21.1,17.6-25.7c-1.4-6.3-2.1-12.7-2.1-19.2
					c0-48.3,39.3-87.6,87.7-87.6c48.3,0,87.6,39.3,87.6,87.6c0,6-0.6,11.9-1.8,17.7c11.3,3.5,19.9,13.7,21.3,25.7c0,0,0,0,0,0
					c1,8.7-1.8,17.3-7.6,23.8c-5.8,6.5-14.1,10.2-22.7,10.2c-2.2,0-4.4-0.2-6.5-0.7c-6.1-1.3-12.2-1.3-18.3,0
					c-1.9,0.4-3.8,0.6-5.8,0.7c-0.9,0.2-2.9,0.8-4.7,1.4C285.1,246.1,265.9,251.9,253.9,251.9z M200.9,225.1c4.3,0,8.6,0.5,12.8,1.4
					c0.8,0.2,1.5,0.5,2.2,0.9c11.5,6.9,24.6,10.6,38.1,10.6c9.9,0,28.5-5.6,37.4-8.3c5.4-1.6,6.6-2,8-2c1.2,0,2.4-0.1,3.5-0.4
					c8.1-1.7,16.2-1.7,24.3,0c1.1,0.2,2.3,0.4,3.5,0.4c4.7,0,9.2-2,12.3-5.5c3.2-3.5,4.6-8.1,4.1-12.9c-0.8-7.5-6.8-13.6-14.3-14.5
					c-0.6-0.1-1.2-0.1-1.9-0.1c-2.2,0-4.2-1.1-5.5-2.9c-1.3-1.8-1.7-4-1-6.2c2.1-6.9,3.1-14.1,3.1-21.3c0-40.6-33-73.6-73.6-73.6
					c-40.6,0-73.7,33-73.7,73.6c0,7.4,1.1,14.7,3.3,21.7c0.6,1.9,0.3,4-0.7,5.7s-2.7,2.9-4.7,3.3c-7.3,1.4-12.9,7.8-13.4,15.1
					c-0.3,4.6,1.3,9,4.4,12.4c3.2,3.4,7.4,5.2,12,5.2c1.4,0,2.8-0.2,4.2-0.5C190.5,225.8,195.7,225.1,200.9,225.1z"/>
			</g>
		</g>
	</g>
	<g>
		<g>
			<g>
				<path class="st5" d="M253.9,435.4c-3,0-5.6-1.9-6.6-4.7l-55.8-157.8c-1-2.8-0.1-5.9,2.2-7.8c2.3-1.9,5.5-2.1,8-0.6l92,55.4
					c2.8,1.7,4.1,5.2,3,8.3l-36.2,102.4C259.5,433.5,256.9,435.4,253.9,435.4z M211.3,286.7l42.7,120.7l27.7-78.3L211.3,286.7z"/>
			</g>
		</g>
	</g>
	<g>
		<g>
			<g>
				<polygon class="st7" points="253.9,304.2 309.7,270.6 290.1,326 				"/>
			</g>
		</g>
	</g>
	<g>
		<g>
			<g>
				<path class="st5" d="M290.1,333c-1.3,0-2.5-0.3-3.6-1l-36.2-21.8c-2.1-1.3-3.4-3.5-3.4-6s1.3-4.7,3.4-6l55.8-33.6
					c2.5-1.5,5.7-1.3,8,0.6c2.3,1.9,3.2,5,2.2,7.8l-19.6,55.4c-0.7,2-2.3,3.5-4.2,4.3C291.7,332.8,290.9,333,290.1,333z
					 M267.5,304.2l18.9,11.4l10.2-28.9L267.5,304.2z"/>
			</g>
		</g>
	</g>
	<g>
		<g>
			<g>
				<path class="st0" d="M307.5,164.7l-14-0.8c1.6-28.3-18.8-34.3-19.6-34.5l3.6-13.5C288.7,118.7,309.3,132.7,307.5,164.7z"/>
			</g>
		</g>
	</g>
	<g>
		<g>
			<g>
				<path class="st5" d="M277.7,368.1c-1.2,0-2.4-0.3-3.4-0.9l-56.3-31.9c-3.4-1.9-4.5-6.2-2.6-9.5c1.9-3.4,6.2-4.6,9.5-2.6
					l56.3,31.9c3.4,1.9,4.5,6.2,2.6,9.5C282.5,366.8,280.1,368.1,277.7,368.1z"/>
			</g>
		</g>
	</g>
</g>
</svg>
