<?xml version="1.0" encoding="utf-8"?>
<!-- Generator: Adobe Illustrator 22.1.0, SVG Export Plug-In . SVG Version: 6.00 Build 0)  -->
<svg version="1.1" id="Layer_1" xmlns="http://www.w3.org/2000/svg" xmlns:xlink="http://www.w3.org/1999/xlink" x="0px" y="0px"
	 viewBox="0 0 256 256" style="enable-background:new 0 0 256 256;" xml:space="preserve">
<style type="text/css">
	.st0{fill:#F5B31F;}
	.st1{fill:none;stroke:#464646;stroke-width:8;stroke-linecap:round;stroke-linejoin:round;stroke-miterlimit:10;}
	.st2{opacity:0.15;fill:#464646;}
	.st3{fill:#AC6535;}
	.st4{fill:#EB573B;}
	.st5{fill:#90C056;}
	.st6{opacity:0.35;fill:#FFFFFF;}
	.st7{opacity:0.2;fill:#FFFFFF;}
	.st8{fill:#F6D67A;}
	.st9{opacity:0.15;fill:#FFFFFF;}
	.st10{opacity:0.3;fill:#FFFFFF;}
	.st11{fill:#AC6535;stroke:#464646;stroke-width:8;stroke-linecap:round;stroke-linejoin:round;stroke-miterlimit:10;}
	.st12{fill:#EB573B;stroke:#464646;stroke-width:8;stroke-miterlimit:10;}
	.st13{opacity:0.15;}
	.st14{fill:#464646;}
	.st15{fill:#FFA755;}
	.st16{fill:#8FAE3C;}
	.st17{fill:#BE6BB2;}
	.st18{fill:#B7C536;}
	.st19{opacity:0.1;}
	.st20{fill:#9D5A96;}
	.st21{fill:#EA615D;}
	.st22{opacity:0.4;fill:#FFFFFF;}
	.st23{opacity:7.000000e-02;}
	.st24{fill:#F79932;}
	.st25{fill:#FFEC97;}
	.st26{fill:#FFD11D;}
	.st27{opacity:0.2;}
	.st28{fill:#FFFFFF;}
	.st29{fill:#F7F2D5;}
	.st30{fill:#F6AF72;}
	.st31{fill:#BA6C45;}
	.st32{opacity:0.5;fill:#FFFFFF;}
	.st33{fill:#E4C074;}
	.st34{fill:none;stroke:#656566;stroke-width:8;stroke-linecap:round;stroke-linejoin:round;stroke-miterlimit:10;}
	.st35{fill:#FFA755;stroke:#464646;stroke-width:8;stroke-linecap:round;stroke-linejoin:round;stroke-miterlimit:10;}
	.st36{fill:#FFD11D;stroke:#464646;stroke-width:8;stroke-linecap:round;stroke-linejoin:round;stroke-miterlimit:10;}
	.st37{fill:#FACD1F;}
	.st38{fill:#FFDF66;}
	.st39{fill:#FFEC97;stroke:#464646;stroke-width:8;stroke-linecap:round;stroke-linejoin:round;stroke-miterlimit:10;}
	.st40{fill:#FFDF66;stroke:#464646;stroke-width:8;stroke-linecap:round;stroke-linejoin:round;stroke-miterlimit:10;}
	.st41{opacity:0.2;fill:#464646;}
	.st42{fill:#FFFFFF;stroke:#464646;stroke-width:8;stroke-linecap:round;stroke-linejoin:round;stroke-miterlimit:10;}
	.st43{fill:#6D6E71;stroke:#464646;stroke-width:8;stroke-linecap:round;stroke-linejoin:round;stroke-miterlimit:10;}
	.st44{opacity:0.1;fill:#464646;}
	.st45{fill:#E77CAE;}
	.st46{fill:#FFE5C4;}
	.st47{fill:#F68455;stroke:#464646;stroke-width:8;stroke-linecap:round;stroke-linejoin:round;stroke-miterlimit:10;}
	.st48{opacity:0.7;}
	.st49{fill:#ADEDFF;}
	.st50{fill:#EC754B;}
	.st51{fill:#4AA5BA;}
	.st52{opacity:0.5;}
	.st53{opacity:0.8;}
	.st54{fill:#F68455;}
	.st55{fill:#92A5AC;}
	.st56{fill:#6D6E71;}
	.st57{fill:#D06E3C;}
	.st58{fill:#DA4F4B;}
	.st59{fill:#BDF3FF;}
	.st60{fill:#F18BB4;}
	.st61{fill:#F9D97A;}
	.st62{fill:none;}
	.st63{fill:#AF6535;}
	.st64{fill:#B93226;}
	.st65{fill:#FF6050;}
	.st66{fill:#D06E3C;stroke:#464646;stroke-miterlimit:10;}
	.st67{fill:#EA7CB1;}
	.st68{fill:none;stroke:#6D6E71;stroke-width:10;stroke-linecap:round;stroke-linejoin:round;stroke-miterlimit:10;}
	.st69{fill:#00B0E0;}
	.st70{fill:#EA7DAE;}
	.st71{opacity:0.1;fill:#FFFFFF;}
	.st72{fill:#BC7532;}
	.st73{fill:#876C6C;}
	.st74{fill:#F9F6CD;}
	.st75{fill:#FFE37B;}
	.st76{fill:#1DDCFF;}
	.st77{fill:#60ACF7;}
	.st78{fill:#C3755A;}
	.st79{fill:#96557A;}
	.st80{fill:#66625D;}
	.st81{fill:#D68032;}
	.st82{opacity:0.8;fill:#FFFFFF;}
	.st83{fill:#F2A355;}
	.st84{fill:#7E9E6A;}
	.st85{opacity:0.3;}
	.st86{fill:#965A85;}
	.st87{opacity:0.7;fill:#FFFFFF;}
	.st88{fill:#90CAD3;}
	.st89{fill:#94B57F;}
	.st90{fill:#B2E2E7;}
	.st91{fill:#FFDF8F;}
	.st92{fill:#FFFAEB;}
	.st93{fill:#F88916;}
	.st94{fill:#FFC86E;}
	.st95{fill:#AFA51D;}
	.st96{fill:#968A1C;}
	.st97{fill:#C3556D;}
</style>
<g>
	<path class="st59" d="M74.7,252l102.5,0c0-6.4-3.9-12-9.9-12.3c-5.6-0.2-13.4,1.4-17.3-2.5c-3.9-3.9-3.1-14.2,0-18.5
		c3.1-4.3,34.3-40.1,35.8-74.8l-119.8,0c1.5,34.7,32.7,70.5,35.8,74.8c3.1,4.3,3.9,14.7,0,18.5c-3.9,3.9-11.7,2.3-17.3,2.5
		C78.5,240,74.7,245.7,74.7,252z"/>
	<rect x="58.8" y="124.3" class="st59" width="134.2" height="19.6"/>
	<rect x="171.2" y="124.3" class="st2" width="21.9" height="19.6"/>
	<path class="st2" d="M150,218.8c-3.1,4.3-3.9,14.7,0,18.5c3.9,3.9,11.7,2.3,17.3,2.5c6,0.2,9.9,5.9,9.9,12.3l-17,0
		c0,0-16.3-4.1-21-10.2c-4.6-6-2.5-19.7,0-27.1c2.3-6.6,24.6-34.6,30.4-61l-103.7,0l0-9.8l105,0v0c0,1,14.8,0,14.8,0
		c-0.1,3.3-0.5,6.5-1.2,9.8C178.7,185.1,152.8,214.8,150,218.8z"/>
	<path class="st60" d="M58.8,131.8l0-7.5l134.2,0l0,3.5c4.9-5.2,8-12.3,8-20c0-14.6-10.8-26.7-24.8-28.8c1.3-3.3,2-6.8,2-10.5
		c0-14.8-11-27-25.3-28.8c0.1-1,0.2-2,0.2-3c0-11.2-7-20.7-16.8-24.5c-0.1-0.1-0.3-0.1-0.5-0.2c-14.6-5.8-30.3-8.7-47.5-7.8
		c9.2,10.8,12,25.7,12.3,42.3c-14.5,0-26.2,11.8-26.2,26.3c0,7.3,3,13.9,7.7,18.6c-0.4,0-0.8,0-1.3,0c-14.5,0-26.2,11.8-26.2,26.3
		C54.7,122.9,56.2,127.7,58.8,131.8z"/>
	<path class="st7" d="M70.6,124.3l-11.8,0l0,7.5c-2.6-4.1-4.1-8.9-4.1-14.2c0-14.5,11.7-26.3,26.2-26.3c0.4,0,0.9,0,1.3,0
		c-4.8-4.8-7.7-11.4-7.7-18.6c0-14.5,11.8-26.3,26.2-26.3C100.4,29.9,97.6,15,88.4,4.2c0,0,28.2,30.8,22.8,45.6S91.3,61.2,88.4,68
		c-3,6.8,6.5,18.9,3.2,26.4c-3.2,7.4-19,9.7-22.3,16.8C66,118.3,70.6,124.3,70.6,124.3z"/>
	<path class="st2" d="M100.7,124.3l92.4,0l0,3.5c4.9-5.2,8-12.3,8-20c0-14.6-10.8-26.7-24.8-28.8c1.3-3.3,2-6.8,2-10.5
		c0-14.8-11-27-25.3-28.8c0.1-1,0.2-2,0.2-3c0-11.2-7-20.7-16.8-24.5c-0.1-0.1-0.3-0.1-0.5-0.2c-14.6-5.8-30.3-8.7-47.5-7.8
		c0,0,38.5,13.3,43.1,19.8c4.6,6.5,3.8,16.8,9.2,24.2s10.9,6.4,16.5,13.8s6.1,18,8.3,23.5c2.3,5.5,14.2,12.1,16.4,18.9
		C185.8,124.8,100.7,124.3,100.7,124.3z"/>
	<path class="st1" d="M74.7,252l102.5,0c0-6.4-3.9-12-9.9-12.3c-5.6-0.2-13.4,1.4-17.3-2.5c-3.9-3.9-3.1-14.2,0-18.5
		c3.1-4.3,34.3-40.1,35.8-74.8l-119.8,0c1.5,34.7,32.7,70.5,35.8,74.8c3.1,4.3,3.9,14.7,0,18.5c-3.9,3.9-11.7,2.3-17.3,2.5
		C78.5,240,74.7,245.7,74.7,252z"/>
	<rect x="58.8" y="124.3" class="st1" width="134.2" height="19.6"/>
	<g>
		<path class="st1" d="M160.2,164.7c0.2,11.9-4.5,21.4-14.2,28.7"/>
		<path class="st1" d="M91.6,164.7c-0.2,11.9,4.5,21.4,14.2,28.8"/>
		<line class="st1" x1="125.9" y1="164.7" x2="125.9" y2="194.6"/>
	</g>
	<path class="st1" d="M58.8,131.8l0-7.5l134.2,0l0,3.5c4.9-5.2,8-12.3,8-20c0-14.6-10.8-26.7-24.8-28.8c1.3-3.3,2-6.8,2-10.5
		c0-14.8-11-27-25.3-28.8c0.1-1,0.2-2,0.2-3c0-11.2-7-20.7-16.8-24.5c-0.1-0.1-0.3-0.1-0.5-0.2c-14.6-5.8-30.3-8.7-47.5-7.8
		c9.2,10.8,12,25.7,12.3,42.3c-14.5,0-26.2,11.8-26.2,26.3c0,7.3,3,13.9,7.7,18.6c-0.4,0-0.8,0-1.3,0c-14.5,0-26.2,11.8-26.2,26.3
		C54.7,122.9,56.2,127.7,58.8,131.8z"/>
</g>
</svg>
