<?xml version="1.0" encoding="utf-8"?>
<!-- Generator: Adobe Illustrator 21.1.0, SVG Export Plug-In . SVG Version: 6.00 Build 0)  -->
<svg version="1.1" id="Icon_Set" xmlns="http://www.w3.org/2000/svg" xmlns:xlink="http://www.w3.org/1999/xlink" x="0px" y="0px"
	 viewBox="0 0 512 512" style="enable-background:new 0 0 512 512;" xml:space="preserve">
<style type="text/css">
	.st0{fill:#FFFFFF;}
	.st1{fill:#5B7C31;}
	.st2{fill:#E56823;}
	.st3{fill:#FE8E46;}
	.st4{fill:#7DAC51;}
	.st5{fill:#463218;}
	.st6{fill:#FEFE71;}
	.st7{fill:#D6CD1E;}
	.st8{fill:none;stroke:#FFFFFF;stroke-width:14;stroke-miterlimit:10;}
	.st9{fill:none;stroke:#463218;stroke-width:14;stroke-linecap:round;stroke-linejoin:round;stroke-miterlimit:10;}
</style>
<g id="Infuse_Water">
	<g>
		<g>
			<g>
				<polygon class="st3" points="179.5,119.4 179.5,213 204.8,392.6 307.2,392.6 332.5,213 332.5,119.4 				"/>
			</g>
		</g>
	</g>
	<g>
		<g>
			<g>
				<polygon class="st2" points="226.7,119.4 179.5,119.4 179.5,213 204.8,392.6 252,392.6 226.7,213 				"/>
			</g>
		</g>
	</g>
	<g>
		<g>
			<g>
				<polygon class="st6" points="179.5,153.5 179.5,213 204.8,392.6 307.2,392.6 332.5,213 332.5,153.5 				"/>
			</g>
		</g>
	</g>
	<g>
		<g>
			<g>
				<polygon class="st7" points="226.7,153.5 179.5,153.5 179.5,213 204.8,392.6 252,392.6 226.7,213 				"/>
			</g>
		</g>
	</g>
	<g>
		<g>
			<g>
				<path class="st4" d="M303.2,185.2c-30.5,0-55.2,24.7-55.2,55.2s24.7,55.2,55.2,55.2c6.3,0,12.4-1.1,18.1-3l11.2-79.6v-19.4
					C324,188.3,314,185.2,303.2,185.2z"/>
			</g>
		</g>
	</g>
	<g>
		<g>
			<g>
				<path class="st5" d="M307.2,399.6H204.8c-3.5,0-6.4-2.6-6.9-6l-25.3-179.6c0-0.3-0.1-0.6-0.1-1v-93.5c0-3.9,3.1-7,7-7h153
					c3.9,0,7,3.1,7,7V213c0,0.3,0,0.7-0.1,1l-25.3,179.6C313.6,397,310.7,399.6,307.2,399.6z M210.9,385.6h90.2l24.4-173.1v-86h-139
					v86L210.9,385.6z"/>
			</g>
		</g>
	</g>
	<g>
		<g>
			<g>
				<path class="st4" d="M191.3,263.2c-1.6,0-3.1,0.1-4.7,0.2l18,127.8C234,385.1,256,359,256,327.9
					C256,292.2,227,263.2,191.3,263.2z"/>
			</g>
		</g>
	</g>
	<g>
		<g>
			<g>
				<path class="st5" d="M204.6,398.2c-1.4,0-2.8-0.4-4-1.3c-1.6-1.1-2.6-2.8-2.9-4.8l-18-127.8c-0.3-1.9,0.3-3.9,1.5-5.4
					c1.2-1.5,3-2.4,4.9-2.6c2-0.1,3.6-0.2,5.2-0.2c39.5,0,71.7,32.2,71.7,71.7c0,33.8-24,63.3-57,70.2
					C205.6,398.1,205.1,398.2,204.6,398.2z M194.7,270.3l15.8,112c22.7-8,38.6-29.8,38.6-54.4C249,297.2,224.9,272,194.7,270.3z"/>
			</g>
		</g>
	</g>
	<g>
		<g>
			<g>
				<path class="st6" d="M219.1,298.6l-24,25.3l0.6,4h36c0-5.5-1.1-10.9-3.3-15.9C226.3,306.9,223.1,302.4,219.1,298.6z"/>
			</g>
		</g>
	</g>
	<g>
		<g>
			<g>
				<path class="st6" d="M303.2,240.4l-16.7-25.9c-5.6,3.6-9.9,8.9-12.2,15.1c-2.3,6.2-2.6,13-0.7,19.4L303.2,240.4z"/>
			</g>
		</g>
	</g>
	<g>
		<g>
			<g>
				<path class="st5" d="M231.7,334.9h-36c-3.5,0-6.4-2.6-6.9-6l-0.6-4c-0.3-2.1,0.4-4.2,1.9-5.8l24-25.3c2.7-2.8,7.1-2.9,9.9-0.3
					c4.7,4.5,8.4,9.7,10.9,15.7c2.6,5.9,3.8,12.2,3.8,18.7C238.7,331.7,235.6,334.9,231.7,334.9z M207.6,320.9H224
					c-0.5-2.1-1.1-4.2-2-6.2s-1.9-3.9-3.1-5.7L207.6,320.9z"/>
			</g>
		</g>
	</g>
	<g>
		<g>
			<g>
				<path class="st5" d="M303.2,302.6c-34.3,0-62.2-27.9-62.2-62.2s27.9-62.2,62.2-62.2c11.7,0,23.1,3.3,33,9.5
					c2,1.3,3.3,3.5,3.3,5.9V213c0,0.3,0,0.7-0.1,1l-11.2,79.6c-0.4,2.6-2.2,4.8-4.6,5.6C317,301.4,310.1,302.6,303.2,302.6z
					 M303.2,192.2c-26.6,0-48.2,21.6-48.2,48.2s21.6,48.2,48.2,48.2c4,0,7.9-0.5,11.8-1.5l10.5-74.6v-14.8
					C318.6,194,311,192.2,303.2,192.2z"/>
			</g>
		</g>
	</g>
	<g>
		<g>
			<g>
				<path class="st5" d="M273.6,256c-1.2,0-2.3-0.3-3.4-0.9c-1.6-0.9-2.8-2.4-3.4-4.2c-2.3-7.8-2-16.2,0.9-23.8
					c2.8-7.6,8.2-14.2,15-18.6c3.3-2.1,7.6-1.1,9.7,2.1l16.7,25.9c1.2,1.9,1.4,4.2,0.7,6.2c-0.8,2.1-2.5,3.6-4.6,4.3l-29.6,8.6
					C274.9,255.9,274.3,256,273.6,256z M285,225c-1.8,2.1-3.2,4.5-4.1,7c-1,2.6-1.5,5.3-1.5,8l12.8-3.7L285,225z"/>
			</g>
		</g>
	</g>
	<g>
		<g>
			<g>
				<path class="st5" d="M307.2,399.6H204.8c-3.5,0-6.4-2.6-6.9-6l-25.3-179.6c0-0.3-0.1-0.6-0.1-1v-59.5c0-3.9,3.1-7,7-7h153
					c3.9,0,7,3.1,7,7V213c0,0.3,0,0.7-0.1,1l-25.3,179.6C313.6,397,310.7,399.6,307.2,399.6z M210.9,385.6h90.2l24.4-173.1v-52h-139
					v52L210.9,385.6z"/>
			</g>
		</g>
	</g>
	<g>
		<g>
			<g>
				<rect x="200.6" y="171.4" class="st0" width="14" height="31.5"/>
			</g>
		</g>
	</g>
</g>
</svg>
