<?xml version="1.0" encoding="utf-8"?>
<!-- Generator: Adobe Illustrator 22.1.0, SVG Export Plug-In . SVG Version: 6.00 Build 0)  -->
<svg version="1.1" id="Layer_1" xmlns="http://www.w3.org/2000/svg" xmlns:xlink="http://www.w3.org/1999/xlink" x="0px" y="0px"
	 viewBox="0 0 256 256" style="enable-background:new 0 0 256 256;" xml:space="preserve">
<style type="text/css">
	.st0{fill:#F5B31F;}
	.st1{fill:none;stroke:#464646;stroke-width:8;stroke-linecap:round;stroke-linejoin:round;stroke-miterlimit:10;}
	.st2{opacity:0.15;fill:#464646;}
	.st3{fill:#AC6535;}
	.st4{fill:#EB573B;}
	.st5{fill:#90C056;}
	.st6{opacity:0.35;fill:#FFFFFF;}
	.st7{opacity:0.2;fill:#FFFFFF;}
	.st8{fill:#F6D67A;}
	.st9{opacity:0.15;fill:#FFFFFF;}
	.st10{opacity:0.3;fill:#FFFFFF;}
	.st11{fill:#AC6535;stroke:#464646;stroke-width:8;stroke-linecap:round;stroke-linejoin:round;stroke-miterlimit:10;}
	.st12{fill:#EB573B;stroke:#464646;stroke-width:8;stroke-miterlimit:10;}
	.st13{opacity:0.15;}
	.st14{fill:#464646;}
	.st15{fill:#FFA755;}
	.st16{fill:#8FAE3C;}
	.st17{fill:#BE6BB2;}
	.st18{fill:#B7C536;}
	.st19{opacity:0.1;}
	.st20{fill:#9D5A96;}
	.st21{fill:#EA615D;}
	.st22{opacity:0.4;fill:#FFFFFF;}
	.st23{opacity:7.000000e-02;}
	.st24{fill:#F79932;}
	.st25{fill:#FFEC97;}
	.st26{fill:#FFD11D;}
	.st27{opacity:0.2;}
	.st28{fill:#FFFFFF;}
	.st29{fill:#F7F2D5;}
	.st30{fill:#F6AF72;}
	.st31{fill:#BA6C45;}
	.st32{opacity:0.5;fill:#FFFFFF;}
	.st33{fill:#E4C074;}
	.st34{fill:none;stroke:#656566;stroke-width:8;stroke-linecap:round;stroke-linejoin:round;stroke-miterlimit:10;}
	.st35{fill:#FFA755;stroke:#464646;stroke-width:8;stroke-linecap:round;stroke-linejoin:round;stroke-miterlimit:10;}
	.st36{fill:#FFD11D;stroke:#464646;stroke-width:8;stroke-linecap:round;stroke-linejoin:round;stroke-miterlimit:10;}
	.st37{fill:#FACD1F;}
	.st38{fill:#FFDF66;}
	.st39{fill:#FFEC97;stroke:#464646;stroke-width:8;stroke-linecap:round;stroke-linejoin:round;stroke-miterlimit:10;}
	.st40{fill:#FFDF66;stroke:#464646;stroke-width:8;stroke-linecap:round;stroke-linejoin:round;stroke-miterlimit:10;}
	.st41{opacity:0.2;fill:#464646;}
	.st42{fill:#FFFFFF;stroke:#464646;stroke-width:8;stroke-linecap:round;stroke-linejoin:round;stroke-miterlimit:10;}
	.st43{fill:#6D6E71;stroke:#464646;stroke-width:8;stroke-linecap:round;stroke-linejoin:round;stroke-miterlimit:10;}
	.st44{opacity:0.1;fill:#464646;}
	.st45{fill:#E77CAE;}
	.st46{fill:#FFE5C4;}
	.st47{fill:#F68455;stroke:#464646;stroke-width:8;stroke-linecap:round;stroke-linejoin:round;stroke-miterlimit:10;}
	.st48{opacity:0.7;}
	.st49{fill:#ADEDFF;}
	.st50{fill:#EC754B;}
	.st51{fill:#4AA5BA;}
	.st52{opacity:0.5;}
	.st53{opacity:0.8;}
	.st54{fill:#F68455;}
	.st55{fill:#92A5AC;}
	.st56{fill:#6D6E71;}
	.st57{fill:#D06E3C;}
	.st58{fill:#DA4F4B;}
	.st59{fill:#BDF3FF;}
	.st60{fill:#F18BB4;}
	.st61{fill:#F9D97A;}
	.st62{fill:none;}
	.st63{fill:#AF6535;}
	.st64{fill:#B93226;}
	.st65{fill:#FF6050;}
	.st66{fill:#D06E3C;stroke:#464646;stroke-miterlimit:10;}
	.st67{fill:#EA7CB1;}
	.st68{fill:none;stroke:#6D6E71;stroke-width:10;stroke-linecap:round;stroke-linejoin:round;stroke-miterlimit:10;}
	.st69{fill:#00B0E0;}
	.st70{fill:#EA7DAE;}
	.st71{opacity:0.1;fill:#FFFFFF;}
	.st72{fill:#BC7532;}
	.st73{fill:#876C6C;}
	.st74{fill:#F9F6CD;}
	.st75{fill:#FFE37B;}
	.st76{fill:#1DDCFF;}
	.st77{fill:#60ACF7;}
	.st78{fill:#C3755A;}
	.st79{fill:#96557A;}
	.st80{fill:#66625D;}
	.st81{fill:#D68032;}
	.st82{opacity:0.8;fill:#FFFFFF;}
	.st83{fill:#F2A355;}
	.st84{fill:#7E9E6A;}
	.st85{opacity:0.3;}
	.st86{fill:#965A85;}
	.st87{opacity:0.7;fill:#FFFFFF;}
	.st88{fill:#90CAD3;}
	.st89{fill:#94B57F;}
	.st90{fill:#B2E2E7;}
	.st91{fill:#FFDF8F;}
	.st92{fill:#FFFAEB;}
	.st93{fill:#F88916;}
	.st94{fill:#FFC86E;}
	.st95{fill:#AFA51D;}
	.st96{fill:#968A1C;}
	.st97{fill:#C3556D;}
</style>
<g>
	<path class="st4" d="M228.5,215.1l0,6c0,15-7.5,30.4-30.5,30.4c-23,0-70,0-70,0s-47,0-70,0c-23,0-30.5-15.5-30.5-30.4l0-6
		L228.5,215.1z"/>
	<rect x="27.6" y="113.9" class="st74" width="200.9" height="101.2"/>
	<path class="st4" d="M228.5,85.5l0,28.4l-200.9,0l0-27.2c10.3,0,20-16.2,33.3-16.1s18.6,16.2,33.3,16.2c14.7,0,26.6-16.2,38.1-16.1
		c11.6,0,19.1,16.2,33.6,16.2c14.5,0,23-16.2,35.2-16.1C211.2,70.6,220.7,81.7,228.5,85.5z"/>
	<path class="st9" d="M43.5,215.1l0-137.2l-15.8,0l0,137.2l0,6c0,15,7.5,30.4,30.5,30.4c8.2,0,19.4,0,30.4,0c20,0,39.5,0,39.5,0
		C53.6,251.6,43.5,247.6,43.5,215.1z"/>
	<path class="st1" d="M228.5,215.1l0,6c0,15-7.5,30.4-30.5,30.4c-23,0-70,0-70,0s-47,0-70,0c-23,0-30.5-15.5-30.5-30.4l0-6
		L228.5,215.1z"/>
	<rect x="27.6" y="113.9" class="st1" width="200.9" height="101.2"/>
	<path class="st1" d="M228.5,85.5l0,28.4l-200.9,0l0-27.2c10.3,0,20-16.2,33.3-16.1s18.6,16.2,33.3,16.2c14.7,0,26.6-16.2,38.1-16.1
		c11.6,0,19.1,16.2,33.6,16.2c14.5,0,23-16.2,35.2-16.1C211.2,70.6,220.7,81.7,228.5,85.5z"/>
	<g>
		<path class="st4" d="M101.6,191.8c-6.7-6.7-2.6-36.3,8.2-45c5.2-4.2,10.7-4.9,16-3.7c1.8,4.4,7.5,7.3,15.2,9.4
			c3,6.6,6,13.8,9.5,15.8c1,5.1,0.2,10.4-3.8,15.4C137.9,194.4,108.3,198.6,101.6,191.8z"/>
	</g>
	<g>
		<path class="st1" d="M101.6,191.8c-6.7-6.7-2.6-36.3,8.2-45c5.2-4.2,10.7-4.9,16-3.7c1.8,4.4,7.5,7.3,15.2,9.4
			c3,6.6,6,13.8,9.5,15.8c1,5.1,0.2,10.4-3.8,15.4C137.9,194.4,108.3,198.6,101.6,191.8z"/>
		<path class="st1" d="M150.4,168.3C150.4,168.3,150.4,168.3,150.4,168.3c-3.5-2-6.5-9.2-9.5-15.8c-7.7-2.1-13.4-5-15.2-9.4
			c-0.2-0.5-0.4-1-0.5-1.6c3.9-1.4,8.4,0.9,13.1,4.9c-1.2-3.7-0.1-7.6,2.4-11.7c5.4,4.9,5.1,9.7,3.4,14.5c0,0,14.7-0.7,13.6,4.4
			c-2.9,2-10.7,0.8-10.7,0.8C150.7,160.7,151.7,165.2,150.4,168.3z"/>
		<path class="st1" d="M142.9,150.5c4.5-4.2,9-6.5,13.4-5.2"/>
	</g>
	<path class="st74" d="M252.1,70.6c-0.6,4.9-2.6,8.6-5.5,11.2c-3.6,3.3-8.5,4.9-13.3,4.9c-1.4,0-2.9-0.5-4.5-1.2
		c-7.8-3.8-17.3-14.9-27.4-14.9c-12.2,0-20.6,16.2-35.2,16.1c-14.5,0-22-16.2-33.6-16.2c-11.6,0-23.4,16.2-38.1,16.1
		c-14.7,0-20-16.2-33.3-16.2c-13.3,0-23,16.2-33.3,16.1c-4.7,0-10-2.9-14.4-6c-5.4-3.8-9.5-8-9.5-8C16,68.1,23,62.3,22.2,54.4
		l211.1,0C233.4,63,239.9,68.3,252.1,70.6z"/>
	<path class="st2" d="M228.5,85.3l0,135.8c0,15-7.5,30.4-30.5,30.4l-30.4,0c-20,0-39.5,0-39.5,0c74.4,0,84.6-3.9,84.6-36.4l0-128.2
		c-3.6-2.2-7.4-3.8-11.2-3.8c-12.2,0-20.6,16.2-35.2,16.1c-14.5,0-22-16.2-33.6-16.2c-11.6,0-23.4,16.2-38.1,16.1
		c-14.7,0-20-16.2-33.3-16.2c-13.3,0-23,16.2-33.3,16.1l0-12.6c10.3,0,20-16.2,33.3-16.1c13.3,0,18.6,16.2,33.3,16.2
		c14.7,0,26.6-16.2,38.1-16.1c11.6,0,19.1,16.2,33.6,16.2c14.5,0,23-16.2,35.2-16.1c5.8,0,11.3,3.6,16.5,7.4
		C221.7,80.8,225.2,83.7,228.5,85.3z"/>
	<path class="st1" d="M252.1,70.6c-1.3,11.1-10.3,16.2-18.8,16.2c-1.4,0-2.9-0.5-4.5-1.2c-7.8-3.8-17.3-14.9-27.4-14.9
		c-12.2,0-20.6,16.2-35.2,16.1c-14.5,0-22-16.2-33.6-16.2s-23.4,16.2-38.1,16.1s-20-16.2-33.3-16.2c-13.3,0-23,16.2-33.3,16.1
		c-10.3,0-23.9-14.1-23.9-14.1C16,68.1,23,62.3,22.2,54.4l211.1,0C233.4,63,239.9,68.3,252.1,70.6z"/>
	<path class="st74" d="M233.6,41.7l0-1.2l-211.1,0l0,1.2C9.4,30.3,14.5,4.4,38,4.4l180.2,0C241.6,4.4,246.7,30.3,233.6,41.7z"/>
	<rect x="22.5" y="40.5" class="st8" width="211.1" height="13.9"/>
	<rect x="23.5" y="54.4" class="st2" width="209.2" height="8.7"/>
	<path class="st1" d="M233.6,41.7l0-1.2l-211.1,0l0,1.2C9.4,30.3,14.5,4.4,38,4.4l180.2,0C241.6,4.4,246.7,30.3,233.6,41.7z"/>
	<rect x="22.5" y="40.5" class="st1" width="211.1" height="13.9"/>
</g>
</svg>
