<?xml version="1.0" encoding="utf-8"?>
<!-- Generator: Adobe Illustrator 21.1.0, SVG Export Plug-In . SVG Version: 6.00 Build 0)  -->
<svg version="1.1" id="Icon_Set" xmlns="http://www.w3.org/2000/svg" xmlns:xlink="http://www.w3.org/1999/xlink" x="0px" y="0px"
	 viewBox="0 0 512 512" style="enable-background:new 0 0 512 512;" xml:space="preserve">
<style type="text/css">
	.st0{fill:#FFFFFF;}
	.st1{fill:#5B7C31;}
	.st2{fill:#E56823;}
	.st3{fill:#FE8E46;}
	.st4{fill:#7DAC51;}
	.st5{fill:#463218;}
	.st6{fill:#FEFE71;}
	.st7{fill:#D6CD1E;}
	.st8{fill:none;stroke:#FFFFFF;stroke-width:14;stroke-miterlimit:10;}
	.st9{fill:none;stroke:#463218;stroke-width:14;stroke-linecap:round;stroke-linejoin:round;stroke-miterlimit:10;}
</style>
<g id="Jelly">
	<g>
		<g>
			<g>
				<rect x="144.6" y="330.9" class="st1" width="222.1" height="21.8"/>
			</g>
		</g>
	</g>
	<g>
		<g>
			<g>
				<polygon class="st4" points="367.4,330.9 144.6,330.9 102.4,274.9 409.6,274.9 				"/>
			</g>
		</g>
	</g>
	<g>
		<g>
			<g>
				<polygon class="st1" points="218.6,330.9 176.4,274.9 102.4,274.9 144.6,330.9 367.4,330.9 367.4,330.9 				"/>
			</g>
		</g>
	</g>
	<g>
		<g>
			<g>
				<path class="st3" d="M219.1,274.9h-73.8l30.7-97.6c2.8-10.3,16.1-18.1,29.9-18.1h0c13.8,0,24.4,7.8,23.4,18.1L219.1,274.9z"/>
			</g>
		</g>
	</g>
	<g>
		<g>
			<g>
				<path class="st2" d="M218.7,161.8c-3.7-1.7-8.1-2.6-12.8-2.6l0,0c-13.8,0-27.2,7.8-29.9,18.1l-30.7,97.6h26.6l30.7-97.6
					C204.4,170.6,210.7,164.9,218.7,161.8z"/>
			</g>
		</g>
	</g>
	<g>
		<g>
			<g>
				<path class="st3" d="M366.7,274.9h-73.8l-10.2-97.6c-0.9-10.3,9.6-18.1,23.4-18.1h0c13.8,0,27.2,7.8,29.9,18.1L366.7,274.9z"/>
			</g>
		</g>
	</g>
	<g>
		<g>
			<g>
				<path class="st2" d="M336,177.3c-2.8-10.3-16.1-18.1-29.9-18.1l0,0c-4.8,0-9.2,0.9-12.8,2.6c8,3.1,14.3,8.8,16.1,15.5l30.7,97.6
					h26.6L336,177.3z"/>
			</g>
		</g>
	</g>
	<g>
		<g>
			<g>
				<path class="st6" d="M292.9,274.9h-73.8l10.2-97.6c0.9-10.3,12.8-18.1,26.7-18.1h0c13.8,0,25.8,7.8,26.7,18.1L292.9,274.9z"/>
			</g>
		</g>
	</g>
	<g>
		<g>
			<g>
				<path class="st7" d="M269.3,161.8c-4-1.7-8.5-2.6-13.3-2.6c-13.8,0-25.8,7.8-26.7,18.1l-10.2,97.6h26.6l10.2-97.6
					C256.5,170.6,261.8,164.9,269.3,161.8z"/>
			</g>
		</g>
	</g>
	<g>
		<g>
			<g>
				<path class="st5" d="M367.4,337.9H144.6c-2.2,0-4.3-1-5.6-2.8l-42.2-56c-1.6-2.1-1.9-5-0.7-7.3c1.2-2.4,3.6-3.9,6.3-3.9h307.2
					c2.7,0,5.1,1.5,6.3,3.9c1.2,2.4,0.9,5.2-0.7,7.3l-42.2,56C371.7,336.9,369.6,337.9,367.4,337.9z M148.1,323.9h215.9l31.6-42
					H116.4L148.1,323.9z"/>
			</g>
		</g>
	</g>
	<g>
		<g>
			<g>
				<path class="st5" d="M219.1,281.9h-73.8c-2.2,0-4.3-1.1-5.6-2.9c-1.3-1.8-1.7-4.1-1-6.2l30.6-97.5c3.6-13.2,19.4-23.1,36.6-23.1
					c10.2,0,19.2,3.5,24.8,9.7c4.1,4.5,6.1,10.2,5.6,16.1c0,0,0,0.1,0,0.1l-10.2,97.6C225.7,279.2,222.7,281.9,219.1,281.9z
					 M154.8,267.9h58l9.6-91.3c0.2-2-0.5-3.7-2-5.3c-2.9-3.2-8.4-5.1-14.5-5.1c-10.7,0-21.3,5.9-23.2,12.9c0,0.1-0.1,0.2-0.1,0.3
					L154.8,267.9z"/>
			</g>
		</g>
	</g>
	<g>
		<g>
			<g>
				<path class="st5" d="M292.9,281.9h-73.8c-2,0-3.9-0.8-5.2-2.3c-1.3-1.5-2-3.4-1.8-5.4l10.2-97.6c1.3-13.9,15.7-24.4,33.6-24.4
					s32.4,10.5,33.6,24.4l10.2,97.6c0.2,2-0.4,3.9-1.8,5.4C296.8,281.1,294.9,281.9,292.9,281.9z M226.9,267.9h58.3l-9.4-89.9
					c0,0,0-0.1,0-0.1c-0.6-6.4-9.6-11.7-19.7-11.7s-19.1,5.4-19.7,11.7c0,0,0,0.1,0,0.1L226.9,267.9z"/>
			</g>
		</g>
	</g>
	<g>
		<g>
			<g>
				<path class="st5" d="M366.7,281.9h-73.8c-3.6,0-6.6-2.7-7-6.3l-10.2-97.6c0,0,0-0.1,0-0.1c-0.5-5.9,1.5-11.6,5.6-16.1
					c5.6-6.1,14.7-9.7,24.8-9.7c17.3,0,33,9.9,36.6,23.1l30.6,97.5c0.7,2.1,0.3,4.4-1,6.2C371,280.9,368.9,281.9,366.7,281.9z
					 M299.2,267.9h58l-27.8-88.5c0-0.1-0.1-0.2-0.1-0.3c-1.9-7-12.5-12.9-23.2-12.9c-6.1,0-11.6,1.9-14.5,5.1
					c-1.5,1.6-2.1,3.4-2,5.3L299.2,267.9z"/>
			</g>
		</g>
	</g>
	<g>
		<g>
			<g>
				<path class="st5" d="M366.7,359.8H144.6c-3.9,0-7-3.1-7-7v-21.8c0-3.9,3.1-7,7-7h222.1c3.9,0,7,3.1,7,7v21.8
					C373.7,356.6,370.6,359.8,366.7,359.8z M151.6,345.8h208.1v-7.8H151.6V345.8z"/>
			</g>
		</g>
	</g>
	<g>
		<g>
			<g>
				
					<rect x="312.1" y="189.8" transform="matrix(0.954 -0.2998 0.2998 0.954 -47.7577 105.2499)" class="st0" width="14" height="36.9"/>
			</g>
		</g>
	</g>
</g>
</svg>
