<?xml version="1.0" encoding="utf-8"?>
<!-- Generator: Adobe Illustrator 21.1.0, SVG Export Plug-In . SVG Version: 6.00 Build 0)  -->
<svg version="1.1" id="Icon_Set" xmlns="http://www.w3.org/2000/svg" xmlns:xlink="http://www.w3.org/1999/xlink" x="0px" y="0px"
	 viewBox="0 0 512 512" style="enable-background:new 0 0 512 512;" xml:space="preserve">
<style type="text/css">
	.st0{fill:#FFFFFF;}
	.st1{fill:#5B7C31;}
	.st2{fill:#E56823;}
	.st3{fill:#FE8E46;}
	.st4{fill:#7DAC51;}
	.st5{fill:#463218;}
	.st6{fill:#FEFE71;}
	.st7{fill:#D6CD1E;}
	.st8{fill:none;stroke:#FFFFFF;stroke-width:14;stroke-miterlimit:10;}
	.st9{fill:none;stroke:#463218;stroke-width:14;stroke-linecap:round;stroke-linejoin:round;stroke-miterlimit:10;}
</style>
<g id="Juice">
	<g>
		<g>
			<g>
				<rect x="223.9" y="80.1" class="st1" width="64.6" height="51.9"/>
			</g>
		</g>
	</g>
	<g>
		<g>
			<g>
				<rect x="258.9" y="80.1" class="st4" width="29.7" height="51.9"/>
			</g>
		</g>
	</g>
	<g>
		<g>
			<g>
				<path class="st3" d="M321.4,271.5c-21-29.7-30-66.7-22.5-102.3c1.8-8.5-1.1-17.3-7.7-22.9L274.8,132h-14.3h-9.4h-14.3
					l-16.4,14.3c-6.4,5.6-9.4,14.2-7.7,22.6c7.1,35.3-0.7,72.1-21.5,101.5l0,0c-2.7,3.9-4.2,8.5-4.2,13.3v148.3h138.3V282.3
					C325.1,278.4,323.8,274.6,321.4,271.5L321.4,271.5z"/>
			</g>
		</g>
	</g>
	<g>
		<g>
			<g>
				<path class="st2" d="M228.9,270.3L228.9,270.3c20.8-29.4,28.6-66.1,21.5-101.5c-1.7-8.4,1.3-17,7.7-22.6l16.4-14.3h-14.1h-9.4
					h-14.3l-16.4,14.3c-6.4,5.6-9.4,14.2-7.7,22.6c7.1,35.3-0.7,72.1-21.5,101.5c-2.7,3.9-4.2,8.5-4.2,13.3v148.3h37.9V283.5
					C224.7,278.8,226.2,274.2,228.9,270.3z"/>
			</g>
		</g>
	</g>
	<g>
		<g>
			<g>
				<path class="st5" d="M325.1,438.9H186.9c-3.9,0-7-3.1-7-7V283.5c0-6.2,1.9-12.2,5.5-17.3c19.6-27.7,27.1-62.7,20.4-96.1
					c-2.2-10.8,1.7-22,10-29.2l16.4-14.3c1.3-1.1,2.9-1.7,4.6-1.7h38.1c1.7,0,3.3,0.6,4.6,1.7l16.4,14.3c8.5,7.4,12.3,18.7,9.9,29.7
					c-6.9,32.5,0.8,67.7,21.2,96.7c3.3,4.3,5.1,9.6,5.1,15v149.6C332.1,435.7,329,438.9,325.1,438.9z M193.9,424.9h124.3V282.3
					c0-2.3-0.8-4.6-2.3-6.5c-0.1-0.1-0.2-0.2-0.2-0.3c-22.7-32.1-31.3-71.4-23.6-107.8c1.3-6-0.8-12.2-5.4-16.2L272.2,139h-32.9
					l-14.4,12.5c-4.6,4-6.7,10.1-5.5,15.9c7.4,37.1-0.8,76-22.7,106.9c-1.9,2.7-2.9,5.9-2.9,9.2V424.9z"/>
			</g>
		</g>
	</g>
	<g>
		<g>
			<g>
				<path class="st5" d="M288.6,139h-64.6c-3.9,0-7-3.1-7-7V80.1c0-3.9,3.1-7,7-7h64.6c3.9,0,7,3.1,7,7V132
					C295.6,135.9,292.4,139,288.6,139z M230.9,125h50.6V87.1h-50.6V125z"/>
			</g>
		</g>
	</g>
	<g>
		<g>
			<g>
				<rect x="221" y="285.4" class="st1" width="104.1" height="118.9"/>
			</g>
		</g>
	</g>
	<g>
		<g>
			<g>
				<path class="st5" d="M325.1,411.3H221c-3.9,0-7-3.1-7-7V285.4c0-3.9,3.1-7,7-7h104.1c3.9,0,7,3.1,7,7v118.9
					C332.1,408.2,329,411.3,325.1,411.3z M228,397.3h90.1V292.4H228V397.3z"/>
			</g>
		</g>
	</g>
	<g>
		<g>
			<g>
				<path class="st6" d="M262.6,383.3c0,7.4,1.3,14.4,3.6,21h58.9v-83.6C290.6,320.7,262.6,348.8,262.6,383.3z"/>
			</g>
		</g>
	</g>
	<g>
		<g>
			<g>
				<path class="st7" d="M262.6,383.3c0,5.5,0.7,10.9,2.1,16c7.1-26.8,31.5-46.6,60.5-46.6v-32C290.6,320.7,262.6,348.8,262.6,383.3
					z"/>
			</g>
		</g>
	</g>
	<g>
		<g>
			<g>
				<path class="st5" d="M325.1,411.3h-58.9c-3,0-5.6-1.9-6.6-4.6c-2.7-7.5-4-15.4-4-23.4c0-38.4,31.2-69.6,69.6-69.6
					c3.9,0,7,3.1,7,7v83.6C332.1,408.2,329,411.3,325.1,411.3z M271.4,397.3h46.8v-69.2c-27.4,3.5-48.6,26.9-48.6,55.1
					C269.6,388.1,270.2,392.8,271.4,397.3z"/>
			</g>
		</g>
	</g>
	<g>
		<g>
			<g>
				<path class="st4" d="M241.7,308.5c-2.8,9.5-0.6,20.3,6.7,28c7.3,7.7,17.9,10.5,27.6,8.2c2.8-9.5,0.6-20.3-6.7-28
					C261.9,308.9,251.3,306.1,241.7,308.5z"/>
			</g>
		</g>
	</g>
	<g>
		<g>
			<g>
				<path class="st5" d="M269.3,352.4c-9.7,0-19.2-3.9-26-11.1c-8.8-9.2-12-22.5-8.4-34.8c0.7-2.4,2.6-4.2,5.1-4.8
					c12.4-3,25.5,0.9,34.3,10.1c8.8,9.2,12,22.5,8.4,34.8c-0.7,2.4-2.6,4.2-5.1,4.8C274.9,352,272.1,352.4,269.3,352.4z
					 M247.6,314.7c-0.5,6.2,1.6,12.4,5.9,16.9c4.3,4.6,10.4,7,16.6,6.8c0.5-6.2-1.6-12.4-5.9-16.9
					C259.9,316.9,253.8,314.5,247.6,314.7z"/>
			</g>
		</g>
	</g>
	<g>
		<g>
			<g>
				<path class="st0" d="M271.7,231.2c-15.7-20-5.8-57.1-5.3-58.7l13.5,3.7c0,0,0,0,0,0l0,0c-2.4,8.8-6.6,34.3,2.9,46.3L271.7,231.2
					z"/>
			</g>
		</g>
	</g>
</g>
</svg>
