<?xml version="1.0" encoding="utf-8"?>
<!-- Generator: Adobe Illustrator 21.1.0, SVG Export Plug-In . SVG Version: 6.00 Build 0)  -->
<svg version="1.1" id="Icon_Set" xmlns="http://www.w3.org/2000/svg" xmlns:xlink="http://www.w3.org/1999/xlink" x="0px" y="0px"
	 viewBox="0 0 512 512" style="enable-background:new 0 0 512 512;" xml:space="preserve">
<style type="text/css">
	.st0{fill:#FFFFFF;}
	.st1{fill:#5B7C31;}
	.st2{fill:#E56823;}
	.st3{fill:#FE8E46;}
	.st4{fill:#7DAC51;}
	.st5{fill:#463218;}
	.st6{fill:#FEFE71;}
	.st7{fill:#D6CD1E;}
	.st8{fill:none;stroke:#FFFFFF;stroke-width:14;stroke-miterlimit:10;}
	.st9{fill:none;stroke:#463218;stroke-width:14;stroke-linecap:round;stroke-linejoin:round;stroke-miterlimit:10;}
</style>
<g id="Kebab">
	<g>
		<g>
			<g>
				<circle class="st6" cx="260.7" cy="131.8" r="38.5"/>
			</g>
		</g>
	</g>
	<g>
		<g>
			<g>
				<path class="st5" d="M260.7,177.4c-25.1,0-45.5-20.4-45.5-45.5s20.4-45.5,45.5-45.5s45.5,20.4,45.5,45.5
					S285.8,177.4,260.7,177.4z M260.7,100.3c-17.4,0-31.5,14.1-31.5,31.5s14.1,31.5,31.5,31.5c17.4,0,31.5-14.1,31.5-31.5
					S278,100.3,260.7,100.3z"/>
			</g>
		</g>
	</g>
	<g>
		<g>
			<g>
				<path class="st4" d="M325.7,173c0,22.7-34.2,82-56.9,82s-25.4-59.2-25.4-82s18.4-41.2,41.2-41.2S325.7,150.3,325.7,173z"/>
			</g>
		</g>
	</g>
	<g>
		<g>
			<g>
				<path class="st1" d="M268.8,162.7c-9.6,0-18.4,3.3-25.3,8.7c0,0.5,0,1.1,0,1.6c0,22.7,2.6,82,25.4,82
					c11.3,0,25.4-14.6,36.8-32.1c2.8-7.4,4.4-14.1,4.4-19C310,181.1,291.5,162.7,268.8,162.7z"/>
			</g>
		</g>
	</g>
	<g>
		<g>
			<g>
				<path class="st5" d="M268.8,262c-28.2,0-32.4-55.7-32.4-89c0-26.6,21.6-48.2,48.2-48.2s48.2,21.6,48.2,48.2
					c0,14.3-10.6,37.1-21.1,53.3C303.1,239.6,286.1,262,268.8,262z M284.6,138.8c-18.8,0-34.2,15.3-34.2,34.2c0,42.7,7.9,75,18.4,75
					c6.1,0,18.1-9,31.1-29.3c10.9-16.9,18.8-36.1,18.8-45.7C318.7,154.2,303.4,138.8,284.6,138.8z"/>
			</g>
		</g>
	</g>
	<g>
		<g>
			<g>
				<g>
					<path class="st3" d="M255.9,226.5c8.2-12.9,12.9-28.1,12.9-44.5c0-45.9-37.2-83.1-83.1-83.1V165L255.9,226.5z"/>
				</g>
			</g>
		</g>
	</g>
	<g>
		<g>
			<g>
				<path class="st2" d="M185.7,118.3V165l57.1,50.1c1.2-5.6,1.8-11.3,1.8-17.2C244.6,160.3,219.8,128.7,185.7,118.3z"/>
			</g>
		</g>
	</g>
	<g>
		<g>
			<g>
				<polygon class="st6" points="183,162.7 318.4,281.2 306.1,418.7 205.9,418.7 				"/>
			</g>
		</g>
	</g>
	<g>
		<g>
			<g>
				<polygon class="st7" points="225,199.5 183,162.7 205.9,418.7 244.6,418.7 				"/>
			</g>
		</g>
	</g>
	<g>
		<g>
			<g>
				<path class="st5" d="M306.1,425.7H205.9c-3.6,0-6.6-2.8-7-6.4l-22.9-256c-0.3-2.8,1.3-5.6,3.8-6.9c2.5-1.3,5.6-0.9,7.8,1
					L323,276c1.7,1.5,2.6,3.7,2.4,5.9L313,419.3C312.7,422.9,309.7,425.7,306.1,425.7z M212.3,411.7h87.3l11.4-127.5L191.6,179.5
					L212.3,411.7z"/>
			</g>
		</g>
	</g>
	<g>
		<g>
			<g>
				<polygon class="st7" points="268.8,237.8 329,162.7 318.4,281.2 				"/>
			</g>
		</g>
	</g>
	<g>
		<g>
			<g>
				<path class="st5" d="M318.4,288.2c-1.7,0-3.3-0.6-4.6-1.7l-49.6-43.4c-2.8-2.5-3.2-6.7-0.9-9.6l60.2-75.1
					c1.9-2.4,5.2-3.3,8.1-2.1c2.9,1.2,4.6,4,4.4,7.1l-10.6,118.5c-0.2,2.6-1.9,4.9-4.4,5.9C320.1,288.1,319.2,288.2,318.4,288.2z
					 M278.5,237l34.2,29.9l7.3-81.7L278.5,237z"/>
			</g>
		</g>
	</g>
	<g>
		<g>
			<g>
				<polygon class="st3" points="313.1,340 315.2,316.3 196.8,316.3 198.9,340 				"/>
			</g>
		</g>
	</g>
	<g>
		<g>
			<g>
				<path class="st5" d="M313.1,347H198.9c-3.6,0-6.6-2.8-7-6.4l-2.1-23.7c-0.2-2,0.5-3.9,1.8-5.3c1.3-1.5,3.2-2.3,5.2-2.3h118.5
					c2,0,3.8,0.8,5.2,2.3c1.3,1.4,2,3.4,1.8,5.3l-2.1,23.7C319.8,344.2,316.7,347,313.1,347z M205.3,333h101.4l0.9-9.7H204.4
					L205.3,333z"/>
			</g>
		</g>
	</g>
	<g>
		<g>
			<g>
				<g>
					<path class="st5" d="M255.9,233.5c-1.7,0-3.3-0.6-4.6-1.7l-70.2-61.5c-1.5-1.3-2.4-3.2-2.4-5.3V98.8c0-3.9,3.1-7,7-7
						c49.7,0,90.1,40.4,90.1,90.1c0,17.1-4.9,33.8-14,48.3c-1.1,1.7-2.9,2.9-4.9,3.2C256.5,233.5,256.2,233.5,255.9,233.5z
						 M192.7,161.8l61.3,53.7c5.1-10.4,7.8-21.9,7.8-33.6c0-39.6-30.4-72.3-69.1-75.8V161.8z"/>
				</g>
			</g>
		</g>
	</g>
	<g>
		<g>
			<g>
				
					<rect x="205.9" y="221.9" transform="matrix(0.9969 -7.804482e-02 7.804482e-02 0.9969 -18.8535 17.3816)" class="st0" width="14" height="56"/>
			</g>
		</g>
	</g>
</g>
</svg>
