<?xml version="1.0" encoding="utf-8"?>
<!-- Generator: Adobe Illustrator 21.1.0, SVG Export Plug-In . SVG Version: 6.00 Build 0)  -->
<svg version="1.1" id="Icon_Set" xmlns="http://www.w3.org/2000/svg" xmlns:xlink="http://www.w3.org/1999/xlink" x="0px" y="0px"
	 viewBox="0 0 512 512" style="enable-background:new 0 0 512 512;" xml:space="preserve">
<style type="text/css">
	.st0{fill:#FFFFFF;}
	.st1{fill:#5B7C31;}
	.st2{fill:#E56823;}
	.st3{fill:#FE8E46;}
	.st4{fill:#7DAC51;}
	.st5{fill:#463218;}
	.st6{fill:#FEFE71;}
	.st7{fill:#D6CD1E;}
	.st8{fill:none;stroke:#FFFFFF;stroke-width:14;stroke-miterlimit:10;}
	.st9{fill:none;stroke:#463218;stroke-width:14;stroke-linecap:round;stroke-linejoin:round;stroke-miterlimit:10;}
</style>
<g id="Keto">
	<g>
		<g>
			<g>
				<g>
					<path class="st3" d="M94.2,171.1c27-3.9,52,14.9,55.8,41.8s28.9,45.7,55.8,41.8s52,14.9,55.8,41.8l42.4-56.6
						c-3.9-27-28.9-45.7-55.8-41.8c-27,3.9-52-14.9-55.8-41.8s-28.9-45.7-55.8-41.8L94.2,171.1z"/>
				</g>
			</g>
		</g>
		<g>
			<g>
				<g>
					<path class="st6" d="M229,223.9c-27,3.9-52-14.9-55.8-41.8c-3.9-27-28.9-45.7-55.8-41.8l-23.2,30.9c27-3.9,52,14.9,55.8,41.8
						c3.9,27,28.9,45.7,55.8,41.8c27-3.9,52,14.9,55.8,41.8l23.2-30.9C281,238.8,256,220.1,229,223.9z"/>
				</g>
			</g>
		</g>
		<g>
			<g>
				<g>
					<path class="st7" d="M229,223.9c-27,3.9-52-14.9-55.8-41.8c-3.9-27-28.9-45.7-55.8-41.8l-6.6,8.8c25.8-2.1,49.1,16.2,52.8,42.2
						c3.9,27,28.9,45.7,55.8,41.8c27-3.9,52,14.9,55.8,41.8l-14.1,18.8c0.2,1,0.4,2,0.5,3l23.2-30.9C281,238.8,256,220.1,229,223.9z
						"/>
				</g>
			</g>
		</g>
		<g>
			<g>
				<g>
					<path class="st5" d="M261.7,303.7c-0.6,0-1.2-0.1-1.7-0.2c-2.7-0.7-4.8-3-5.2-5.8c-1.6-11.2-7.5-21.1-16.5-27.9
						c-9.1-6.8-20.2-9.6-31.4-8c-14.9,2.1-29.7-1.7-41.8-10.7c-12-9-19.9-22.2-22-37.1c-3.3-23.1-24.8-39.2-47.9-35.9
						c-2.8,0.4-5.6-0.9-7-3.4c-1.4-2.4-1.3-5.5,0.4-7.8l42.4-56.6c1.1-1.5,2.8-2.5,4.6-2.7c30.8-4.4,59.4,17,63.8,47.8
						c1.6,11.2,7.5,21.1,16.5,27.9c9.1,6.8,20.2,9.6,31.4,8c14.9-2.1,29.7,1.7,41.8,10.7c12,9,19.9,22.2,22,37.1
						c0.3,1.8-0.2,3.7-1.3,5.2l-42.4,56.6C266,302.7,263.9,303.7,261.7,303.7z M213,247.3c12.1,0,23.8,3.9,33.7,11.3
						c8,6,14.1,13.7,17.9,22.6l32.1-42.9c-2.1-10.1-7.7-18.9-16-25.1c-9.1-6.8-20.2-9.6-31.4-8c-14.9,2.1-29.7-1.7-41.8-10.7
						c-12-9-19.9-22.2-22-37.1c-3.2-22.2-23.1-37.9-45.1-36.2l-32.1,42.9c24.6,3.1,45.1,22.3,48.7,47.9c1.6,11.2,7.5,21.1,16.5,27.9
						c9.1,6.8,20.2,9.6,31.4,8C207.6,247.5,210.3,247.3,213,247.3z"/>
				</g>
			</g>
		</g>
	</g>
	<g>
		<g>
			<g>
				<g>
					<path class="st3" d="M381.6,166c49.5,51.2,48.2,132.8-3,182.3S221.4,420,171.9,368.8s-5.5-137.4,45.7-186.9
						S332,114.8,381.6,166z"/>
				</g>
			</g>
		</g>
		<g>
			<g>
				<g>
					<path class="st2" d="M200.3,369.7c-49.5-51.2-5.5-137.4,45.7-186.9c26.2-25.4,55.6-42.3,84.7-46
						c-37.9-7.5-78.3,11.4-113.1,45.1c-51.2,49.5-95.2,135.7-45.7,186.9c21.8,22.5,54.5,30.8,88.7,28.8
						C237.2,394.7,216,385.8,200.3,369.7z"/>
				</g>
			</g>
		</g>
		<g>
			<g>
				<g>
					<path class="st5" d="M250.6,405c-34.7,0-63.8-10.8-83.7-31.3c-24.3-25.1-30-60.1-16.5-101.1c10.8-32.9,33.5-67.8,62.4-95.7
						c27.8-26.9,57.7-43.4,86.5-47.6c32.4-4.8,62.6,6.2,87.4,31.9c52.1,53.9,50.7,140.1-3.2,192.2c-26.5,25.7-66.8,44.3-107.9,49.9
						C266.9,404.4,258.6,405,250.6,405z M314,142.2c-4.2,0-8.5,0.3-12.8,1c-25.8,3.8-53.1,19-78.8,43.8c-26.9,26-48.8,59.6-58.8,90
						c-14.9,45.2-1,72.3,13.3,87c21.3,22,55.6,31,96.7,25.4c38.2-5.2,75.6-22.5,100-46.1c48.3-46.7,49.6-124.1,2.9-172.4
						C358.1,151.8,337.1,142.2,314,142.2z"/>
				</g>
			</g>
		</g>
		<g>
			<g>
				<g>
					
						<ellipse transform="matrix(0.7187 -0.6953 0.6953 0.7187 -91.062 282.8876)" class="st7" cx="304.1" cy="254" rx="62.1" ry="62.1"/>
				</g>
			</g>
		</g>
		<g>
			<g>
				<g>
					<path class="st6" d="M343.3,205.8c-22.1-18-53.9-18.6-76.7-1.3c-14.7,18.6-13.7,45.7,3.3,63.2c18.5,19.1,49,19.6,68.1,1.1
						C355.4,251.9,357.3,224.9,343.3,205.8z"/>
				</g>
			</g>
		</g>
		<g>
			<g>
				<g>
					<path class="st0" d="M323.6,235.2c-10.4-10.7-27.6-11-38.3-0.6l-9.7-10.1c16.3-15.8,42.4-15.3,58.1,1L323.6,235.2z"/>
				</g>
			</g>
		</g>
		<g>
			<g>
				<g>
					<path class="st5" d="M304.1,323c-18.1,0-36.1-7-49.7-21c-12.8-13.3-19.7-30.7-19.4-49.2s7.8-35.7,21-48.5
						c27.4-26.5,71.2-25.8,97.7,1.6c26.5,27.4,25.8,71.2-1.6,97.7C338.7,316.6,321.4,323,304.1,323z M304.1,198.9
						c-13.8,0-27.6,5.1-38.3,15.5c-10.6,10.2-16.5,24-16.8,38.7c-0.2,14.7,5.3,28.6,15.5,39.2c21.1,21.8,56.1,22.4,77.9,1.3
						c21.8-21.1,22.4-56.1,1.3-77.9C332.9,204.5,318.5,198.9,304.1,198.9z"/>
				</g>
			</g>
		</g>
	</g>
</g>
</svg>
