<?xml version="1.0" encoding="utf-8"?>
<!-- Generator: Adobe Illustrator 21.1.0, SVG Export Plug-In . SVG Version: 6.00 Build 0)  -->
<svg version="1.1" id="Icon_Set" xmlns="http://www.w3.org/2000/svg" xmlns:xlink="http://www.w3.org/1999/xlink" x="0px" y="0px"
	 viewBox="0 0 512 512" style="enable-background:new 0 0 512 512;" xml:space="preserve">
<style type="text/css">
	.st0{fill:#FFFFFF;}
	.st1{fill:#5B7C31;}
	.st2{fill:#E56823;}
	.st3{fill:#FE8E46;}
	.st4{fill:#7DAC51;}
	.st5{fill:#463218;}
	.st6{fill:#FEFE71;}
	.st7{fill:#D6CD1E;}
	.st8{fill:none;stroke:#FFFFFF;stroke-width:14;stroke-miterlimit:10;}
	.st9{fill:none;stroke:#463218;stroke-width:14;stroke-linecap:round;stroke-linejoin:round;stroke-miterlimit:10;}
</style>
<g id="Lamb">
	<g>
		<g>
			<g>
				<path class="st6" d="M327.7,156l58.5-27.1l-16-19.3l-55.8,27.9l0,0C321.8,140.3,327.5,147.2,327.7,156z"/>
			</g>
		</g>
	</g>
	<g>
		<g>
			<g>
				<path class="st3" d="M327.7,156c-0.4-13.8-14.4-23.1-27.5-18.7c-42.8,14.4-152.1,61-172.4,165.7
					c-25.4,130.7,195.5,126.8,202.5,22.3c7.1-104.5-59.4-87.2-43-119.3C299.8,181.4,328.2,175.9,327.7,156z"/>
			</g>
		</g>
	</g>
	<g>
		<g>
			<g>
				<path class="st2" d="M167.3,281c11.7-60.4,53-101.4,94.1-128.1c-50.1,23.6-118,69.8-133.6,150
					c-20.6,105.8,120.1,123.4,178.3,70.9C240.6,394.8,150.5,367.1,167.3,281z"/>
			</g>
		</g>
	</g>
	<g>
		<g>
			<g>
				<path class="st5" d="M223.3,409.5c-28.3,0-55.7-8-75-23.4c-17.3-13.8-36.1-39.7-27.4-84.5c9.1-46.9,36.2-87.6,80.4-120.9
					c36.5-27.5,76.2-43.2,96.6-50.1c8.4-2.8,17.8-1.5,25.1,3.6c7.2,5,11.5,12.9,11.7,21.6l0,0c0.4,14.3-10.1,22.6-20.2,30.7
					c-7.9,6.3-16,12.7-21,22.6c-3.6,7.1-2.5,8.5,7.5,16.6c15.2,12.2,40.8,32.7,36.2,100c-2.1,31.5-21.9,57-55.6,71.8
					C263.4,405.6,243.1,409.5,223.3,409.5z M307,143.1c-1.5,0-3,0.2-4.5,0.8c-131.9,44.5-161.3,127-167.8,160.4
					c-5.8,30,1.9,54.5,22.4,70.9c28.5,22.8,79.7,26.9,119,9.6c16.6-7.3,44.9-24.8,47.3-60c4.1-60.1-17-77-31-88.2
					c-9.5-7.6-20.2-16.2-11.3-33.9c6.4-12.6,16.1-20.3,24.7-27.2c9.6-7.7,15.1-12.4,14.9-19.4l0,0c-0.1-4.2-2.2-8-5.7-10.5
					C312.6,144,309.8,143.1,307,143.1z"/>
			</g>
		</g>
	</g>
	<g>
		<g>
			<g>
				<path class="st6" d="M303.4,293.3c13.4,21.3-3.4,56.1-24.7,69.5s-49.5,7.1-62.9-14.2c-13.4-21.3-7.1-49.5,14.2-62.9
					C251.4,272.2,290,272,303.4,293.3z"/>
			</g>
		</g>
	</g>
	<g>
		<g>
			<g>
				<circle class="st6" cx="250.2" cy="235" r="17.5"/>
			</g>
		</g>
	</g>
	<g>
		<g>
			<g>
				<path class="st6" d="M211.2,264.7l-4.5-27c-1.5-8.9-12.5-12.2-18.6-5.6c-18.7,20.1-27.6,39-31.7,53.2
					c-2.8,9.6,7.9,17.5,16.3,12.1l33.8-21.9C210,273.3,211.9,269,211.2,264.7z"/>
			</g>
		</g>
	</g>
	<g>
		<g>
			<g>
				<path class="st5" d="M254.5,376.8c-17.5,0-34.6-8.7-44.6-24.5c-7.5-11.9-9.9-26-6.8-39.7c3.1-13.7,11.4-25.4,23.2-32.9
					c11.8-7.5,28.2-11.3,43.8-10.3c17.8,1.2,31.8,8.3,39.2,20.1l0,0c15.5,24.6-2,63.4-26.9,79.1
					C273.8,374.2,264.1,376.8,254.5,376.8z M265.2,283.3c-11.4,0-23.1,3-31.4,8.3c-8.7,5.5-14.8,14.1-17.1,24.1s-0.5,20.4,5,29.1
					c11.4,18,35.2,23.4,53.2,12.1c22.8-14.4,31.6-45.4,22.5-59.8c-4.9-7.8-15.2-12.7-28.3-13.6C267.9,283.3,266.5,283.3,265.2,283.3
					z"/>
			</g>
		</g>
	</g>
	<g>
		<g>
			<g>
				<path class="st5" d="M250.2,259.6c-13.5,0-24.5-11-24.5-24.5c0-13.5,11-24.5,24.5-24.5s24.5,11,24.5,24.5
					C274.8,248.6,263.7,259.6,250.2,259.6z M250.2,224.5c-5.8,0-10.5,4.7-10.5,10.5c0,5.8,4.7,10.5,10.5,10.5s10.5-4.7,10.5-10.5
					C260.8,229.2,256,224.5,250.2,224.5z"/>
			</g>
		</g>
	</g>
	<g>
		<g>
			<g>
				<path class="st5" d="M166.7,306.3c-3.8,0-7.5-1.2-10.7-3.6c-6-4.5-8.5-12.1-6.4-19.2c5.8-19.5,17-38.4,33.3-56
					c4.7-5,11.6-6.9,18.2-5c6.6,2,11.3,7.4,12.5,14.2l4.5,27v0c1.2,7-1.9,14-7.9,17.9l-33.8,21.9
					C173.4,305.3,170.1,306.3,166.7,306.3z M195.9,235.7c-0.8,0-1.8,0.3-2.8,1.2c-14.9,16-25,33-30.2,50.4c-0.7,2.2,0.7,3.6,1.4,4.1
					c0.7,0.5,2.4,1.5,4.4,0.2l33.8-21.9c1.3-0.8,2-2.3,1.7-3.9l-4.5-27c-0.4-2.1-2-2.8-2.7-3C196.8,235.8,196.4,235.7,195.9,235.7z"
					/>
			</g>
		</g>
	</g>
	<g>
		<g>
			<g>
				<path class="st5" d="M327.7,163c-1.3,0-2.6-0.4-3.7-1.1c-2-1.2-3.2-3.4-3.3-5.8c-0.1-5.4-3.6-10.1-8.8-12.1
					c-2.6-1-4.4-3.4-4.5-6.2c-0.1-2.8,1.4-5.4,3.9-6.6l55.8-27.9c2.9-1.5,6.4-0.7,8.5,1.8l16,19.3c1.4,1.7,1.9,3.9,1.4,6
					c-0.5,2.1-1.9,3.9-3.9,4.8l-58.5,27.1C329.7,162.7,328.7,163,327.7,163z M327.9,138.6c2,2.2,3.5,4.7,4.7,7.4l42.4-19.6l-6.7-8
					L327.9,138.6z"/>
			</g>
		</g>
	</g>
	<g>
		<g>
			<g>
				<path class="st0" d="M194,384.9c-25.2-8.1-37.4-24.3-43.2-36.5c-6.3-13.2-6.6-24.7-6.6-25.2l14-0.3l-7,0.2l7-0.2
					c0,1.5,1.6,36.4,40.1,48.7L194,384.9z"/>
			</g>
		</g>
	</g>
</g>
</svg>
