<?xml version="1.0" encoding="utf-8"?>
<!-- Generator: Adobe Illustrator 21.1.0, SVG Export Plug-In . SVG Version: 6.00 Build 0)  -->
<svg version="1.1" id="Icon_Set" xmlns="http://www.w3.org/2000/svg" xmlns:xlink="http://www.w3.org/1999/xlink" x="0px" y="0px"
	 viewBox="0 0 512 512" style="enable-background:new 0 0 512 512;" xml:space="preserve">
<style type="text/css">
	.st0{fill:#FFFFFF;}
	.st1{fill:#5B7C31;}
	.st2{fill:#E56823;}
	.st3{fill:#FE8E46;}
	.st4{fill:#7DAC51;}
	.st5{fill:#463218;}
	.st6{fill:#FEFE71;}
	.st7{fill:#D6CD1E;}
	.st8{fill:none;stroke:#FFFFFF;stroke-width:14;stroke-miterlimit:10;}
	.st9{fill:none;stroke:#463218;stroke-width:14;stroke-linecap:round;stroke-linejoin:round;stroke-miterlimit:10;}
</style>
<g id="Lasagna">
	<g>
		<g>
			<g>
				<path class="st4" d="M286.6,158.3c-3.9,0-7.5,1.2-10.5,3.3c-3.5-9.3-12.5-15.9-23.1-15.9c-9.9,0-18.4,5.8-22.4,14.2
					c-2.3-1-4.9-1.6-7.5-1.6c-10.2,0-18.4,8.2-18.4,18.4s8.2,18.4,18.4,18.4c5.4,0,10.3-2.4,13.7-6.1c4.3,3.8,10,6.1,16.3,6.1
					c7.3,0,13.8-3.1,18.3-8.1c3.3,4.9,8.9,8.1,15.3,8.1c10.2,0,18.4-8.2,18.4-18.4S296.7,158.3,286.6,158.3z"/>
			</g>
		</g>
	</g>
	<g>
		<g>
			<g>
				<path class="st5" d="M286.6,202.1c-5.8,0-11.3-2-15.8-5.5c-5.2,3.5-11.4,5.5-17.8,5.5c-5.6,0-11.1-1.5-15.9-4.3
					c-4.1,2.8-9,4.3-14.1,4.3c-14,0-25.4-11.4-25.4-25.4s11.4-25.4,25.4-25.4c1.5,0,2.9,0.1,4.4,0.4c5.9-8,15.4-13,25.6-13
					c10.5,0,20.3,5.3,26.1,13.7c2.4-0.7,4.9-1.1,7.5-1.1c14,0,25.4,11.4,25.4,25.4S300.6,202.1,286.6,202.1z M271.3,180
					c0.2,0,0.3,0,0.5,0c2.1,0.2,4.1,1.3,5.3,3.1c2.1,3.2,5.7,5.1,9.5,5.1c6.3,0,11.4-5.1,11.4-11.4s-5.1-11.4-11.4-11.4
					c-2.3,0-4.6,0.7-6.5,2.1c-1.8,1.2-4,1.6-6.1,0.9c-2.1-0.6-3.7-2.2-4.5-4.2c-2.6-6.8-9.3-11.4-16.6-11.4c-6.8,0-13.1,4-16,10.2
					c-1.6,3.5-5.7,5-9.2,3.4c-1.5-0.7-3.1-1-4.7-1c-6.3,0-11.4,5.1-11.4,11.4s5.1,11.4,11.4,11.4c3.3,0,6.3-1.3,8.5-3.8
					c2.6-2.8,6.9-3.1,9.8-0.6c3.2,2.8,7.4,4.4,11.7,4.4c5,0,9.8-2.1,13.1-5.8C267.4,180.8,269.3,180,271.3,180z"/>
			</g>
		</g>
	</g>
	<g>
		<g>
			<g>
				<path class="st6" d="M339.1,183.4H170.5c-15.7,0-28.5,12.8-28.5,28.5v57.9h225.6v-57.9C367.6,196.2,354.8,183.4,339.1,183.4z"/>
			</g>
		</g>
	</g>
	<g>
		<g>
			<g>
				<path class="st7" d="M239,183.4h-68.4c-15.8,0-28.5,12.8-28.5,28.5v57.9h68.4v-57.9C210.5,196.2,223.2,183.4,239,183.4z"/>
			</g>
		</g>
	</g>
	<g>
		<g>
			<g>
				<path class="st3" d="M113.6,271.4l16.1,48.7c9.1,27.6,34.9,46.2,64,46.2H316c29.1,0,54.8-18.6,64-46.2l16.1-48.7H113.6z"/>
			</g>
		</g>
	</g>
	<g>
		<g>
			<g>
				<path class="st2" d="M226.5,320.1l-16.1-48.7h-96.9l16.1,48.7c9.1,27.6,34.9,46.2,64,46.2h96.9
					C261.4,366.3,235.6,347.7,226.5,320.1z"/>
			</g>
		</g>
	</g>
	<g>
		<g>
			<g>
				<path class="st7" d="M316,366.3c29.1,0,54.8-18.6,64-46.2l2.3-6.8c-5.9,0.7-11.9,0.3-17.6-1.6c-3.3-1.1-6.8-1.6-10.4-1.6
					c-3.6,0-7.2,0.6-10.5,1.6c-8.2,2.6-17,2.6-25.2,0c-3.3-1.1-6.8-1.6-10.5-1.6c-3.6,0-7.2,0.6-10.5,1.6c-8.2,2.6-17,2.6-25.2,0
					c-3.3-1.1-6.8-1.6-10.5-1.6s-7.2,0.6-10.5,1.6c-8.2,2.6-17,2.6-25.2,0c-3.3-1.1-6.8-1.6-10.5-1.6c-3.6,0-7.2,0.6-10.5,1.6
					c-8.2,2.6-17,2.6-25.2,0c-3.3-1.1-6.8-1.6-10.5-1.6c-3.6,0-7.2,0.6-10.4,1.6c-8.4,2.7-17.3,2.4-25.7-0.2
					c-2.3-0.7-4.8-1.2-7.3-1.4l3.3,9.9c9.1,27.6,34.9,46.2,64,46.2H316z"/>
			</g>
		</g>
	</g>
	<g>
		<g>
			<g>
				<path class="st6" d="M379.9,320.1l2.2-6.7c-2.6,0.3-5.2,0.3-7.8,0.1c-3.3-0.2-6.6-0.8-9.8-1.8c-3.2-1-6.6-1.6-10.1-1.6
					c-3.5,0-6.9,0.6-10.1,1.6c-4.2,1.4-8.6,2-13,2c-4.4,0-8.8-0.6-13-2c-3.2-1-6.6-1.6-10.1-1.6c-3.5,0-6.9,0.6-10.1,1.6
					c-4.2,1.4-8.6,2-13,2c-4.4,0-8.8-0.6-13-2c-3.2-1-6.6-1.6-10.1-1.6c-3.5,0-6.9,0.6-10.1,1.6c-3.2,1-6.6,1.6-9.9,1.8
					c-5.4,0.5-10.8-0.1-16-1.8c-2.2-0.7-4.6-1.2-7-1.4l3.2,9.8c9.1,27.6,34.9,46.2,64,46.2H316C345,366.3,370.8,347.7,379.9,320.1z"
					/>
			</g>
		</g>
	</g>
	<g>
		<g>
			<g>
				<path class="st5" d="M316,373.3H193.6c-32.2,0-60.5-20.5-70.6-51L107,273.6c-0.7-2.1-0.3-4.5,1-6.3c1.3-1.8,3.4-2.9,5.7-2.9H396
					c2.2,0,4.4,1.1,5.7,2.9c1.3,1.8,1.7,4.2,1,6.3l-16.1,48.7C376.5,352.8,348.1,373.3,316,373.3z M123.3,278.4l13,39.5
					c8.2,24.8,31.2,41.4,57.3,41.4H316c26.1,0,49.1-16.7,57.3-41.4l13-39.5H123.3z"/>
			</g>
		</g>
	</g>
	<g>
		<g>
			<g>
				<path class="st5" d="M124.1,310.2H96c-3.9,0-7-3.1-7-7s3.1-7,7-7h28.1c3.9,0,7,3.1,7,7S128,310.2,124.1,310.2z"/>
			</g>
		</g>
	</g>
	<g>
		<g>
			<g>
				<path class="st5" d="M416,310.2h-28.1c-3.9,0-7-3.1-7-7s3.1-7,7-7H416c3.9,0,7,3.1,7,7S419.9,310.2,416,310.2z"/>
			</g>
		</g>
	</g>
	<g>
		<g>
			<g>
				<path class="st5" d="M367.6,276.8H142c-3.9,0-7-3.1-7-7v-57.9c0-19.6,15.9-35.5,35.5-35.5h168.5c19.6,0,35.5,15.9,35.5,35.5
					v57.9C374.6,273.6,371.4,276.8,367.6,276.8z M149,262.8h211.6v-50.9c0-11.9-9.7-21.5-21.5-21.5H170.5
					c-11.9,0-21.5,9.7-21.5,21.5V262.8z"/>
			</g>
		</g>
	</g>
	<g>
		<g>
			<g>
				<rect x="127.4" y="216.8" class="st2" width="254.8" height="53.9"/>
			</g>
		</g>
	</g>
	<g>
		<g>
			<g>
				<rect x="210.5" y="216.8" class="st3" width="171.7" height="53.9"/>
			</g>
		</g>
	</g>
	<g>
		<g>
			<g>
				<path class="st5" d="M382.2,277.8H127.4c-3.9,0-7-3.1-7-7v-53.9c0-3.9,3.1-7,7-7h254.8c3.9,0,7,3.1,7,7v53.9
					C389.2,274.6,386,277.8,382.2,277.8z M134.4,263.8h240.8v-39.9H134.4V263.8z"/>
			</g>
		</g>
	</g>
	<g>
		<g>
			<g>
				<path class="st5" d="M316,373.3H193.6c-32.2,0-60.5-20.5-70.6-51l-3.3-9.9c-0.7-2.2-0.3-4.7,1.1-6.5c1.4-1.8,3.7-2.8,6-2.7
					c3,0.2,6,0.8,8.8,1.6c7.4,2.3,14.9,2.3,21.5,0.2c8.1-2.6,17.1-2.6,25.2,0c6.8,2.2,14,2.2,20.9,0c8.1-2.6,17.1-2.6,25.2,0
					c6.8,2.2,14,2.2,20.9,0c8.1-2.6,17.1-2.6,25.2,0c6.8,2.2,14,2.2,20.9,0c8.1-2.6,17.1-2.6,25.2,0c6.8,2.2,14,2.2,20.9,0
					c8.1-2.6,17.1-2.6,25.2,0c4.6,1.5,9.5,1.9,14.6,1.3c2.4-0.3,4.7,0.7,6.3,2.5s2,4.4,1.2,6.6l-2.3,6.8
					C376.5,352.8,348.1,373.3,316,373.3z M136.9,319.6c8.6,23.9,31.2,39.8,56.7,39.8H316c25.2,0,47.6-15.5,56.4-38.9
					c-3.4-0.3-6.8-1-10-2c-5.3-1.7-11.3-1.7-16.6,0c-9.6,3.1-19.8,3.1-29.5,0c-5.3-1.7-11.3-1.7-16.6,0c-9.6,3.1-19.8,3.1-29.5,0
					c-5.3-1.7-11.3-1.7-16.6,0c-9.6,3.1-19.8,3.1-29.5,0c-5.3-1.7-11.3-1.7-16.6,0c-9.6,3.1-19.8,3.1-29.5,0
					c-5.3-1.7-11.3-1.7-16.6,0C153.7,320.9,145.3,321.3,136.9,319.6z"/>
			</g>
		</g>
	</g>
	<g>
		<g>
			<g>
				<rect x="284.7" y="236.8" class="st0" width="48.5" height="14"/>
			</g>
		</g>
	</g>
	<g>
		<g>
			<g>
				<rect x="343.3" y="235.9" class="st0" width="24.3" height="14"/>
			</g>
		</g>
	</g>
</g>
</svg>
