<?xml version="1.0" encoding="utf-8"?>
<!-- Generator: Adobe Illustrator 21.1.0, SVG Export Plug-In . SVG Version: 6.00 Build 0)  -->
<svg version="1.1" id="Icon_Set" xmlns="http://www.w3.org/2000/svg" xmlns:xlink="http://www.w3.org/1999/xlink" x="0px" y="0px"
	 viewBox="0 0 512 512" style="enable-background:new 0 0 512 512;" xml:space="preserve">
<style type="text/css">
	.st0{fill:#FFFFFF;}
	.st1{fill:#5B7C31;}
	.st2{fill:#E56823;}
	.st3{fill:#FE8E46;}
	.st4{fill:#7DAC51;}
	.st5{fill:#463218;}
	.st6{fill:#FEFE71;}
	.st7{fill:#D6CD1E;}
	.st8{fill:none;stroke:#FFFFFF;stroke-width:14;stroke-miterlimit:10;}
	.st9{fill:none;stroke:#463218;stroke-width:14;stroke-linecap:round;stroke-linejoin:round;stroke-miterlimit:10;}
</style>
<g id="Lemon_Tea">
	<g>
		<g>
			<g>
				<polygon class="st4" points="222.6,277.4 250.2,277.4 304.1,97 276.5,97 				"/>
			</g>
		</g>
	</g>
	<g>
		<g>
			<g>
				<path class="st5" d="M250.2,284.4h-27.6c-2.2,0-4.3-1-5.6-2.8c-1.3-1.8-1.7-4.1-1.1-6.2L269.8,95c0.9-3,3.6-5,6.7-5h27.6
					c2.2,0,4.3,1,5.6,2.8c1.3,1.8,1.7,4.1,1.1,6.2l-53.9,180.4C256,282.4,253.3,284.4,250.2,284.4z M232,270.4h13L294.7,104h-13
					L232,270.4z"/>
			</g>
		</g>
	</g>
	<g>
		<g>
			<g>
				<rect x="196.9" y="159" class="st3" width="118.2" height="256"/>
			</g>
		</g>
	</g>
	<g>
		<g>
			<g>
				<rect x="196.9" y="159" class="st2" width="44.3" height="256"/>
			</g>
		</g>
	</g>
	<g>
		<g>
			<g>
				<path class="st5" d="M315.1,422H196.9c-3.9,0-7-3.1-7-7V159c0-3.9,3.1-7,7-7h118.2c3.9,0,7,3.1,7,7v256
					C322.1,418.8,319,422,315.1,422z M203.9,408h104.2V166H203.9V408z"/>
			</g>
		</g>
	</g>
	<g>
		<g>
			<g>
				<rect x="196.9" y="378.3" class="st3" width="118.2" height="36.7"/>
			</g>
		</g>
	</g>
	<g>
		<g>
			<g>
				<rect x="196.9" y="378.3" class="st2" width="44.3" height="36.7"/>
			</g>
		</g>
	</g>
	<g>
		<g>
			<g>
				<path class="st5" d="M315.1,422H196.9c-3.9,0-7-3.1-7-7v-36.7c0-3.9,3.1-7,7-7h118.2c3.9,0,7,3.1,7,7V415
					C322.1,418.8,319,422,315.1,422z M203.9,408h104.2v-22.7H203.9V408z"/>
			</g>
		</g>
	</g>
	<g>
		<g>
			<g>
				<path class="st6" d="M196.9,375.1c24.1,6.7,51,1.2,70.8-16.9l-70.8-77.4V375.1z"/>
			</g>
		</g>
	</g>
	<g>
		<g>
			<g>
				<path class="st4" d="M315.1,238.2L252.2,307c17.7,16.2,41,22.3,62.9,18.7V238.2z"/>
			</g>
		</g>
	</g>
	<g>
		<g>
			<g>
				<path class="st5" d="M217.2,384.9c-7.4,0-14.8-1-22.2-3c-3-0.8-5.1-3.6-5.1-6.7v-94.4c0-2.9,1.8-5.5,4.5-6.5
					c2.7-1,5.8-0.3,7.7,1.8l70.8,77.4c2.6,2.9,2.4,7.3-0.4,9.9C257.1,377.4,237.4,384.9,217.2,384.9z M203.9,369.6
					c18.9,3.7,38.3-0.7,53.7-12.1l-53.7-58.7V369.6z"/>
			</g>
		</g>
	</g>
	<g>
		<g>
			<g>
				<path class="st5" d="M302.7,333.6c-20.4,0-39.9-7.5-55.3-21.5c-1.4-1.3-2.2-3-2.3-4.9c-0.1-1.9,0.6-3.7,1.8-5l62.9-68.8
					c1.9-2.1,5-2.9,7.7-1.8c2.7,1,4.5,3.6,4.5,6.5v87.5c0,3.4-2.5,6.4-5.9,6.9C311.7,333.3,307.2,333.6,302.7,333.6z M262.3,306.3
					c13.2,9.8,29.3,14.5,45.8,13.2v-63.3L262.3,306.3z"/>
			</g>
		</g>
	</g>
	<g>
		<g>
			<g>
				<rect x="279.3" y="179" class="st0" width="14" height="33"/>
			</g>
		</g>
	</g>
	<g>
		<g>
			<g>
				<rect x="279.3" y="224.1" class="st0" width="14" height="17.2"/>
			</g>
		</g>
	</g>
	<g>
		<g>
			<g>
				<path class="st5" d="M252.2,314c-3,0-5.7-1.9-6.7-4.9c-1.2-3.7,0.9-7.6,4.5-8.8l62.9-20c3.7-1.2,7.6,0.9,8.8,4.5
					s-0.9,7.6-4.5,8.8l-62.9,20C253.6,313.9,252.9,314,252.2,314z"/>
			</g>
		</g>
	</g>
	<g>
		<g>
			<g>
				<path class="st5" d="M267.7,365.2c-0.6,0-1.3-0.1-1.9-0.3L195,345c-3.7-1-5.9-4.9-4.9-8.6c1-3.7,4.9-5.9,8.6-4.9l70.8,19.9
					c3.7,1,5.9,4.9,4.9,8.6C273.6,363.1,270.8,365.2,267.7,365.2z"/>
			</g>
		</g>
	</g>
</g>
</svg>
