<?xml version="1.0" encoding="utf-8"?>
<!-- Generator: Adobe Illustrator 21.1.0, SVG Export Plug-In . SVG Version: 6.00 Build 0)  -->
<svg version="1.1" id="Icon_Set" xmlns="http://www.w3.org/2000/svg" xmlns:xlink="http://www.w3.org/1999/xlink" x="0px" y="0px"
	 viewBox="0 0 512 512" style="enable-background:new 0 0 512 512;" xml:space="preserve">
<style type="text/css">
	.st0{fill:#FFFFFF;}
	.st1{fill:#5B7C31;}
	.st2{fill:#E56823;}
	.st3{fill:#FE8E46;}
	.st4{fill:#7DAC51;}
	.st5{fill:#463218;}
	.st6{fill:#FEFE71;}
	.st7{fill:#D6CD1E;}
	.st8{fill:none;stroke:#FFFFFF;stroke-width:14;stroke-miterlimit:10;}
	.st9{fill:none;stroke:#463218;stroke-width:14;stroke-linecap:round;stroke-linejoin:round;stroke-miterlimit:10;}
</style>
<g id="Lobster">
	<g>
		<g>
			<g>
				<rect x="219" y="307.2" class="st3" width="73.9" height="46.3"/>
			</g>
		</g>
	</g>
	<g>
		<g>
			<g>
				<path class="st3" d="M324,409.6L293,353.5H219L188,409.6l17.1,5.9c33,11.5,69,11.5,102,0L324,409.6z"/>
			</g>
		</g>
	</g>
	<g>
		<g>
			<g>
				<path class="st2" d="M307,388.4c-33,11.5-69,11.5-102,0l-4.5-1.6L188,409.6l17.1,5.9c33,11.5,69,11.5,102,0l17.1-5.9l-12.6-22.7
					L307,388.4z"/>
			</g>
		</g>
	</g>
	<g>
		<g>
			<g>
				<rect x="210" y="250" class="st3" width="92" height="57.2"/>
			</g>
		</g>
	</g>
	<g>
		<g>
			<g>
				<rect x="210" y="283" class="st2" width="92" height="24.2"/>
			</g>
		</g>
	</g>
	<g>
		<g>
			<g>
				<path class="st3" d="M290.7,250h-69.5c-11.6,0-20.3-10.7-17.9-22l19.3-92.5h66.6l19.3,92.5C311,239.4,302.3,250,290.7,250z"/>
			</g>
		</g>
	</g>
	<g>
		<g>
			<g>
				<path class="st2" d="M304.9,210.2c-3.3,4.1-8.4,6.7-14.2,6.7h-69.5c-5.8,0-10.9-2.7-14.2-6.7l-3.7,17.8
					c-2.4,11.4,6.3,22,17.9,22h69.5c11.6,0,20.3-10.7,17.9-22L304.9,210.2z"/>
			</g>
		</g>
	</g>
	<g>
		<g>
			<g>
				<path class="st2" d="M134.2,148.4c0,0,25-15,23.8-37c0,0,46.2,31.7,4.1,80L134.2,148.4z"/>
			</g>
		</g>
	</g>
	<g>
		<g>
			<g>
				<path class="st3" d="M100,95.9l62.1,95.5c0,0-45.7,15.5-67.1-17.4S100,95.9,100,95.9z"/>
			</g>
		</g>
	</g>
	<g>
		<g>
			<g>
				<path class="st5" d="M290.7,257h-69.5c-7.7,0-14.8-3.4-19.6-9.3c-4.8-5.9-6.7-13.6-5.1-21.1l19.3-92.5c0.7-3.2,3.5-5.6,6.9-5.6
					h66.6c3.3,0,6.2,2.3,6.9,5.6l19.3,92.5c1.6,7.5-0.3,15.2-5.1,21.1C305.5,253.6,298.4,257,290.7,257z M228.4,142.5l-18.2,86.9
					c-0.7,3.3,0.1,6.8,2.3,9.4s5.4,4.2,8.8,4.2h69.5c3.4,0,6.6-1.5,8.8-4.2s3-6.1,2.3-9.4l-18.2-86.9H228.4z"/>
			</g>
		</g>
	</g>
	<g>
		<g>
			<g>
				<path class="st5" d="M290.7,257h-69.5c-7.7,0-14.8-3.4-19.6-9.3c-4.8-5.9-6.7-13.6-5.1-21.1l19.3-92.5c0.7-3.2,3.5-5.6,6.9-5.6
					h66.6c3.3,0,6.2,2.3,6.9,5.6l19.3,92.5c1.6,7.5-0.3,15.2-5.1,21.1C305.5,253.6,298.4,257,290.7,257z M228.4,142.5l-18.2,86.9
					c-0.7,3.3,0.1,6.8,2.3,9.4s5.4,4.2,8.8,4.2h69.5c3.4,0,6.6-1.5,8.8-4.2s3-6.1,2.3-9.4l-18.2-86.9H228.4z"/>
			</g>
		</g>
	</g>
	<g>
		<g>
			<g>
				<path class="st5" d="M302,314.2h-92c-3.9,0-7-3.1-7-7V250c0-3.9,3.1-7,7-7h92c3.9,0,7,3.1,7,7v57.2
					C309,311.1,305.8,314.2,302,314.2z M217,300.2h78V257h-78V300.2z"/>
			</g>
		</g>
	</g>
	<g>
		<g>
			<g>
				<rect x="219" y="333.1" class="st2" width="73.9" height="19.8"/>
			</g>
		</g>
	</g>
	<g>
		<g>
			<g>
				<path class="st5" d="M293,359.8H219c-3.9,0-7-3.1-7-7v-46.3c0-3.9,3.1-7,7-7H293c3.9,0,7,3.1,7,7v46.3
					C300,356.7,296.8,359.8,293,359.8z M226,345.8H286v-32.3H226V345.8z"/>
			</g>
		</g>
	</g>
	<g>
		<g>
			<g>
				<path class="st5" d="M256,431.1c-18.1,0-36.1-3-53.3-9l-17.1-5.9c-1.9-0.7-3.5-2.2-4.2-4.1c-0.7-1.9-0.6-4.1,0.4-5.9l31.1-56.1
					c1.2-2.2,3.6-3.6,6.1-3.6H293c2.5,0,4.9,1.4,6.1,3.6l31.1,56.1c1,1.8,1.2,4,0.4,5.9c-0.7,1.9-2.3,3.4-4.2,4.1l-17.1,5.9
					C292.1,428.1,274.1,431.1,256,431.1z M198.1,405.7l9.2,3.2c31.4,10.9,66,10.9,97.4,0l9.2-3.2l-25.1-45.3h-65.7L198.1,405.7z"/>
			</g>
		</g>
	</g>
	<g>
		<g>
			<g>
				<path class="st5" d="M239.5,160.6c-1.3,0-2.7-0.4-3.9-1.2c-1.3-0.9-32.5-22.3-37.8-62.6c-0.5-3.8,2.2-7.3,6-7.8
					c3.8-0.5,7.3,2.2,7.8,6c4.4,33.9,31.4,52.7,31.7,52.8c3.2,2.2,4,6.5,1.9,9.7C244,159.5,241.8,160.6,239.5,160.6z"/>
			</g>
		</g>
	</g>
	<g>
		<g>
			<g>
				<path class="st5" d="M275.6,160.6c-2.2,0-4.5-1.1-5.8-3.1c-2.2-3.2-1.3-7.5,1.9-9.7c0.3-0.2,27.3-19,31.7-52.8
					c0.5-3.8,4-6.5,7.8-6c3.8,0.5,6.5,4,6,7.8c-5.3,40.3-36.4,61.7-37.8,62.6C278.3,160.2,277,160.6,275.6,160.6z"/>
			</g>
		</g>
	</g>
	<g>
		<g>
			<g>
				<path class="st5" d="M210,280.1h-5.1c-12.8,0-24.8-4.9-34-13.8l-5.4-5.2c-2.8-2.7-2.8-7.1-0.1-9.9c2.7-2.8,7.1-2.8,9.9-0.1
					l5.4,5.2c6.5,6.4,15.1,9.9,24.2,9.9h5.1c3.9,0,7,3.1,7,7S213.9,280.1,210,280.1z"/>
			</g>
		</g>
	</g>
	<g>
		<g>
			<g>
				<path class="st5" d="M170.4,317.3c-1.8,0-3.6-0.7-5-2.1c-2.7-2.8-2.6-7.2,0.1-9.9l5.4-5.2c9.1-8.9,21.2-13.8,34-13.8h5.1
					c3.9,0,7,3.1,7,7s-3.1,7-7,7h-5.1c-9.1,0-17.7,3.5-24.2,9.9l-5.4,5.2C174,316.6,172.2,317.3,170.4,317.3z"/>
			</g>
		</g>
	</g>
	<g>
		<g>
			<g>
				<path class="st5" d="M341.6,317.3c-1.8,0-3.5-0.7-4.9-2l-5.4-5.2c-6.5-6.4-15.1-9.9-24.2-9.9H302c-3.9,0-7-3.1-7-7s3.1-7,7-7
					h5.1c12.8,0,24.8,4.9,34,13.8l5.4,5.2c2.8,2.7,2.8,7.1,0.1,9.9C345.2,316.6,343.4,317.3,341.6,317.3z"/>
			</g>
		</g>
	</g>
	<g>
		<g>
			<g>
				<path class="st5" d="M307.1,280.1H302c-3.9,0-7-3.1-7-7s3.1-7,7-7h5.1c9.1,0,17.7-3.5,24.2-9.9l5.4-5.2c2.8-2.7,7.2-2.6,9.9,0.1
					c2.7,2.8,2.6,7.2-0.1,9.9l-5.4,5.2C331.9,275.2,319.9,280.1,307.1,280.1z"/>
			</g>
		</g>
	</g>
	<g>
		<g>
			<g>
				<path class="st5" d="M137.8,202c-0.5,0-0.9,0-1.4,0c-20.9-0.4-37.3-8.7-47.3-24.2c-23.5-36.1,3.7-83.4,4.9-85.4
					c1.2-2.1,3.5-3.4,5.9-3.5c2.4-0.1,4.7,1.1,6,3.2l62.1,95.5c1.2,1.8,1.5,4.1,0.7,6.1s-2.3,3.6-4.4,4.3
					C163.8,198.1,152.3,202,137.8,202z M101,110.2c-5.8,14.3-13,40.1-0.1,59.9c12.9,19.8,36.9,19,50,16.7L101,110.2z"/>
			</g>
		</g>
	</g>
	<g>
		<g>
			<g>
				<path class="st5" d="M162.1,198.3c-0.2,0-0.3,0-0.5,0c-2.2-0.2-4.2-1.3-5.4-3.2l-27.9-42.9c-1-1.6-1.4-3.5-1-5.4
					c0.4-1.8,1.6-3.4,3.2-4.4c0.4-0.3,21.4-13.2,20.4-30.7c-0.1-2.7,1.2-5.2,3.6-6.5c2.3-1.3,5.2-1.2,7.4,0.3
					c0.9,0.6,21.3,14.9,24.4,39.5c2.1,16.8-4.3,33.9-19,50.8C166,197.5,164.1,198.3,162.1,198.3z M143.7,150.2l18.9,29.1
					c7.9-11.2,11.2-22.1,9.9-32.5c-1.1-9-5.5-16.3-9.7-21.4C158.6,136.9,149.7,145.5,143.7,150.2z"/>
			</g>
		</g>
	</g>
	<g>
		<g>
			<g>
				<path class="st5" d="M198.7,213.6c-7.2,0-15.1-2.1-23.8-6.2c-9.7-4.6-16.9-10.3-17.2-10.5c-3-2.4-3.5-6.8-1.1-9.8
					c2.4-3,6.8-3.5,9.8-1.1c6.6,5.2,26.4,17.6,39.1,12.5c3.6-1.5,7.7,0.3,9.1,3.8c1.5,3.6-0.3,7.7-3.8,9.1
					C207.1,212.8,203.1,213.6,198.7,213.6z"/>
			</g>
		</g>
	</g>
	<g>
		<g>
			<g>
				<path class="st2" d="M381.2,148.4c0,0-25-15-23.8-37c0,0-46.2,31.7-4.1,80L381.2,148.4z"/>
			</g>
		</g>
	</g>
	<g>
		<g>
			<g>
				<path class="st3" d="M415.4,95.9l-62.1,95.5c0,0,45.7,15.5,67.1-17.4S415.4,95.9,415.4,95.9z"/>
			</g>
		</g>
	</g>
	<g>
		<g>
			<g>
				<path class="st5" d="M377.6,202c-14.5,0-26-3.8-26.5-4c-2-0.7-3.7-2.3-4.4-4.3s-0.4-4.3,0.7-6.1l62.1-95.5c1.3-2,3.6-3.2,6-3.2
					c2.4,0.1,4.6,1.4,5.9,3.5c1.2,2,28.3,49.3,4.9,85.4c-10.1,15.5-26.4,23.9-47.3,24.2C378.5,202,378,202,377.6,202z M364.6,186.8
					c4,0.7,9.1,1.3,14.5,1.1c16.1-0.4,28-6.4,35.5-17.9c12.9-19.9,5.7-45.7-0.1-60L364.6,186.8z"/>
			</g>
		</g>
	</g>
	<g>
		<g>
			<g>
				<path class="st5" d="M353.3,198.3c-2,0-3.9-0.9-5.3-2.4c-14.7-16.9-21.1-34-19-50.8c3.1-24.6,23.6-38.9,24.4-39.5
					c2.2-1.5,5.1-1.6,7.4-0.3c2.3,1.3,3.7,3.8,3.6,6.5c-0.9,17.4,20.2,30.5,20.4,30.7c1.6,1,2.8,2.6,3.2,4.4s0.1,3.8-1,5.4
					l-27.9,42.9c-1.2,1.8-3.2,3-5.4,3.2C353.6,198.3,353.5,198.3,353.3,198.3z M352.6,125.6c-4.2,5.1-8.7,12.5-9.8,21.4
					c-1.3,10.4,2,21.2,9.9,32.3l18.9-29.1C365.7,145.5,356.8,137,352.6,125.6z"/>
			</g>
		</g>
	</g>
	<g>
		<g>
			<g>
				<path class="st5" d="M316.7,213.6c-4.3,0-8.4-0.8-12.1-2.3c-3.6-1.5-5.3-5.5-3.8-9.1c1.5-3.6,5.5-5.3,9.1-3.8
					c12.7,5.2,32.5-7.2,39.1-12.4c3-2.4,7.4-1.9,9.8,1.1c2.4,3,1.9,7.4-1.1,9.8c-0.3,0.2-7.4,5.9-17.2,10.5
					C331.8,211.5,323.9,213.6,316.7,213.6z"/>
			</g>
		</g>
	</g>
	<g>
		<g>
			<g>
				
					<rect x="266.7" y="174.1" transform="matrix(0.9797 -0.2007 0.2007 0.9797 -33.1166 58.8543)" class="st0" width="14" height="37.3"/>
			</g>
		</g>
	</g>
</g>
</svg>
