<?xml version="1.0" encoding="utf-8"?>
<!-- Generator: Adobe Illustrator 21.1.0, SVG Export Plug-In . SVG Version: 6.00 Build 0)  -->
<svg version="1.1" id="Icon_Set" xmlns="http://www.w3.org/2000/svg" xmlns:xlink="http://www.w3.org/1999/xlink" x="0px" y="0px"
	 viewBox="0 0 512 512" style="enable-background:new 0 0 512 512;" xml:space="preserve">
<style type="text/css">
	.st0{fill:#FFFFFF;}
	.st1{fill:#5B7C31;}
	.st2{fill:#E56823;}
	.st3{fill:#FE8E46;}
	.st4{fill:#7DAC51;}
	.st5{fill:#463218;}
	.st6{fill:#FEFE71;}
	.st7{fill:#D6CD1E;}
	.st8{fill:none;stroke:#FFFFFF;stroke-width:14;stroke-miterlimit:10;}
	.st9{fill:none;stroke:#463218;stroke-width:14;stroke-linecap:round;stroke-linejoin:round;stroke-miterlimit:10;}
</style>
<g id="Lollipop">
	<g>
		<g>
			<g>
				
					<rect x="134.4" y="306" transform="matrix(0.7071 -0.7071 0.7071 0.7071 -165.3035 237.6304)" class="st4" width="139.6" height="24.6"/>
			</g>
		</g>
	</g>
	<g>
		<g>
			<g>
				<path class="st5" d="M163.6,383.4c-1.8,0-3.6-0.7-4.9-2l-17.4-17.4c-2.7-2.7-2.7-7.2,0-9.9l98.7-98.7c1.3-1.3,3.1-2,4.9-2
					s3.6,0.7,4.9,2.1l17.4,17.4c2.7,2.7,2.7,7.2,0,9.9l-98.7,98.7C167.1,382.7,165.4,383.4,163.6,383.4z M156,359l7.5,7.5l88.8-88.8
					l-7.5-7.5L156,359z"/>
			</g>
		</g>
	</g>
	<g>
		<g>
			<g>
				
					<ellipse transform="matrix(0.7071 -0.7071 0.7071 0.7071 -69.8347 277.1746)" class="st3" cx="299.7" cy="222.9" rx="81.3" ry="81.3"/>
			</g>
		</g>
	</g>
	<g>
		<g>
			<g>
				<path class="st0" d="M364.9,230.2l-13.9-1.6c1.8-15.7-3.6-31.1-14.8-42.3l9.9-9.9C360.2,190.7,367.1,210.3,364.9,230.2z"/>
			</g>
		</g>
	</g>
	<g>
		<g>
			<g>
				<path class="st2" d="M295.3,296.1c-31.8-31.8-31.8-83.2,0-115c14.7-14.7,33.5-22.5,52.7-23.7c-31.8-23.6-77-21-105.8,7.9
					c-31.8,31.8-31.8,83.2,0,115c17.1,17.1,39.9,25,62.3,23.7C301.3,301.7,298.2,299,295.3,296.1z"/>
			</g>
		</g>
	</g>
	<g>
		<g>
			<g>
				<path class="st5" d="M299.7,311.2c-23.6,0-45.8-9.2-62.4-25.9s-25.9-38.9-25.9-62.4c0-23.6,9.2-45.8,25.9-62.4
					s38.9-25.9,62.4-25.9s45.8,9.2,62.4,25.9s25.9,38.9,25.9,62.4c0,23.6-9.2,45.8-25.9,62.4l0,0l0,0
					C345.4,302,323.2,311.2,299.7,311.2z M299.7,148.6c-19.8,0-38.5,7.7-52.5,21.8s-21.8,32.7-21.8,52.5c0,19.8,7.7,38.5,21.8,52.5
					c14,14,32.7,21.8,52.5,21.8s38.5-7.7,52.5-21.8l0,0c14-14,21.8-32.7,21.8-52.5c0-19.8-7.7-38.5-21.8-52.5
					C338.2,156.3,319.5,148.6,299.7,148.6z"/>
			</g>
		</g>
	</g>
	<g>
		<g>
			<g>
				
					<rect x="202.8" y="207.9" transform="matrix(0.7071 0.7071 -0.7071 0.7071 245.8113 -145.5531)" class="st6" width="191.5" height="32.1"/>
			</g>
		</g>
	</g>
	<g>
		<g>
			<g>
				
					<rect x="220.9" y="164.2" transform="matrix(0.7071 0.7071 -0.7071 0.7071 202.1669 -127.475)" class="st7" width="68.1" height="32.1"/>
			</g>
		</g>
	</g>
	<g>
		<g>
			<g>
				<path class="st5" d="M355,310c-1.8,0-3.6-0.7-4.9-2L214.6,172.5c-1.3-1.3-2.1-3.1-2.1-5s0.7-3.6,2.1-5l22.7-22.7
					c1.3-1.3,3.1-2,4.9-2s3.6,0.7,4.9,2l135.4,135.4c1.3,1.3,2.1,3.1,2.1,5s-0.7,3.6-2.1,5L359.9,308C358.5,309.3,356.8,310,355,310
					z M229.4,167.6L355,293.1l12.8-12.8L242.2,154.8L229.4,167.6z"/>
			</g>
		</g>
	</g>
</g>
</svg>
