<?xml version="1.0" encoding="utf-8"?>
<!-- Generator: Adobe Illustrator 21.1.0, SVG Export Plug-In . SVG Version: 6.00 Build 0)  -->
<svg version="1.1" id="Icon_Set" xmlns="http://www.w3.org/2000/svg" xmlns:xlink="http://www.w3.org/1999/xlink" x="0px" y="0px"
	 viewBox="0 0 512 512" style="enable-background:new 0 0 512 512;" xml:space="preserve">
<style type="text/css">
	.st0{fill:#FFFFFF;}
	.st1{fill:#5B7C31;}
	.st2{fill:#E56823;}
	.st3{fill:#FE8E46;}
	.st4{fill:#7DAC51;}
	.st5{fill:#463218;}
	.st6{fill:#FEFE71;}
	.st7{fill:#D6CD1E;}
	.st8{fill:none;stroke:#FFFFFF;stroke-width:14;stroke-miterlimit:10;}
	.st9{fill:none;stroke:#463218;stroke-width:14;stroke-linecap:round;stroke-linejoin:round;stroke-miterlimit:10;}
</style>
<g id="Low_Carb">
	<g>
		<g>
			<g>
				<g>
					<path class="st3" d="M418.8,295.8l-5.1-10.2c-20.7-41.4-63-67.6-109.3-67.6h-96.8c-46.3,0-88.6,26.2-109.3,67.6l-5.1,10.2
						c-10.6,21.2,4.8,46,28.5,46h268.6C413.9,341.9,429.3,317,418.8,295.8z"/>
				</g>
			</g>
		</g>
		<g>
			<g>
				<g>
					<path class="st2" d="M417.1,292.5c-5.5,8.6-15.2,14.7-26.8,14.7H121.7c-11.6,0-21.3-6-26.8-14.7l-1.7,3.4
						c-10.6,21.2,4.8,46,28.5,46h268.6c23.6,0,39-24.9,28.5-46L417.1,292.5z"/>
				</g>
			</g>
		</g>
		<g>
			<g>
				<g>
					<path class="st5" d="M390.3,348.9H121.7c-13.5,0-25.9-6.9-33-18.4c-7.1-11.5-7.8-25.6-1.7-37.8l5.1-10.2
						c10.7-21.5,27.2-39.5,47.6-52.2c20.4-12.6,43.9-19.3,67.9-19.3h96.8c24,0,47.5,6.7,67.9,19.3c20.4,12.6,36.9,30.7,47.6,52.2
						l5.1,10.2v0c6,12.1,5.4,26.2-1.7,37.8C416.2,342,403.8,348.9,390.3,348.9z M207.6,225c-21.4,0-42.4,6-60.6,17.2
						s-32.9,27.3-42.4,46.5L99.5,299c-3.9,7.8-3.5,16.8,1.1,24.1c4.6,7.4,12.4,11.8,21.1,11.8h268.6c8.7,0,16.6-4.4,21.1-11.8
						c4.6-7.4,5-16.4,1.1-24.1v0l-5.1-10.2c-9.6-19.2-24.2-35.2-42.4-46.5S325.8,225,304.4,225H207.6z"/>
				</g>
			</g>
		</g>
		<g>
			<g>
				<g>
					<path class="st6" d="M256,290c11.4,0,20.6-28.3,20.6-63.3c0-3-0.1-5.9-0.2-8.7h-40.9c-0.1,2.9-0.2,5.8-0.2,8.7
						C235.4,261.7,244.6,290,256,290z"/>
				</g>
			</g>
		</g>
		<g>
			<g>
				<g>
					<path class="st6" d="M193.8,218.8c-14,1.6-27.4,5.5-39.7,11.6c2.9,24.1,10.5,41.2,19.4,41.2
						C183.7,271.6,192.2,248.8,193.8,218.8z"/>
				</g>
			</g>
		</g>
		<g>
			<g>
				<g>
					<path class="st6" d="M318.2,218.8c1.6,30,10.1,52.8,20.4,52.8c8.9,0,16.4-17.2,19.4-41.2C345.6,224.4,332.1,220.4,318.2,218.8z
						"/>
				</g>
			</g>
		</g>
		<g>
			<g>
				<g>
					<path class="st5" d="M256,297c-19,0-27.6-36.4-27.6-70.3c0-2.9,0.1-6,0.2-9c0.2-3.7,3.2-6.7,7-6.7h40.9c3.7,0,6.8,2.9,7,6.7
						c0.1,3.1,0.2,6.1,0.2,9C283.6,260.6,275,297,256,297z M256,283L256,283L256,283z M242.4,225c0,0.6,0,1.1,0,1.7
						c0,15.7,1.9,30.5,5.4,41.7c3.6,11.5,7.4,14.5,8.2,14.6c0.8-0.1,4.6-3.1,8.2-14.6c3.5-11.2,5.4-26,5.4-41.7c0-0.6,0-1.1,0-1.7
						H242.4z"/>
				</g>
			</g>
		</g>
		<g>
			<g>
				<g>
					<path class="st5" d="M173.4,278.6c-18.6,0-24.6-33.1-26.3-47.4c-0.4-3,1.2-5.8,3.9-7.1c13.2-6.4,27.4-10.6,42-12.2
						c2-0.2,4.1,0.4,5.6,1.9c1.5,1.4,2.3,3.4,2.2,5.5C199.3,246.6,191.3,278.6,173.4,278.6z M161.7,234.6
						c3.2,20.6,9.5,29.7,11.7,30.1c0.6-0.1,3.8-2.3,7.2-11.5c2.6-7,4.5-16.1,5.5-26.1C177.7,228.7,169.6,231.2,161.7,234.6z"/>
				</g>
			</g>
		</g>
		<g>
			<g>
				<g>
					<path class="st5" d="M338.6,278.6c-17.8,0-25.9-32-27.3-59.4c-0.1-2.1,0.7-4.1,2.2-5.5c1.5-1.4,3.5-2.1,5.6-1.9
						c14.6,1.7,28.8,5.8,42,12.2c2.7,1.3,4.2,4.2,3.9,7.1C363.1,245.5,357.1,278.6,338.6,278.6z M325.9,227.1
						c1.1,10,3,19.1,5.5,26.1c3.3,9.2,6.5,11.4,7.2,11.5c2.2-0.3,8.5-9.5,11.7-30.1C342.4,231.2,334.3,228.7,325.9,227.1z"/>
				</g>
			</g>
		</g>
		<g>
			<g>
				<g>
					<rect x="130.4" y="300.1" class="st0" width="60.7" height="14"/>
				</g>
			</g>
		</g>
		<g>
			<g>
				<g>
					<rect x="200" y="300.1" class="st0" width="30.4" height="14"/>
				</g>
			</g>
		</g>
	</g>
	<g>
		<g>
			<g>
				<g>
					<circle class="st4" cx="358.4" cy="228.8" r="58.6"/>
				</g>
			</g>
		</g>
		<g>
			<g>
				<g>
					<g>
						<path class="st5" d="M382.2,260c-1.8,0-3.6-0.7-5-2.1c-17.9-18-45.1-45.3-47.6-47.6c-1.5-1.3-2.4-3.2-2.4-5.3c0-3.9,3.1-7,7-7
							c2.9,0,4.1,1.2,7,4.1c1.3,1.3,3.2,3.2,5.5,5.5c4.5,4.5,10.5,10.5,16.5,16.5c12,12,23.9,24,23.9,24c2.7,2.7,2.7,7.2,0,9.9
							C385.8,259.4,384,260,382.2,260z M334.2,212C334.2,212,334.2,212,334.2,212C334.2,212,334.2,212,334.2,212z M334.2,212
							C334.2,212,334.2,212,334.2,212C334.2,212,334.2,212,334.2,212z M334.2,212C334.2,212,334.2,212,334.2,212
							C334.2,212,334.2,212,334.2,212z M334.2,212C334.2,212,334.2,212,334.2,212C334.2,212,334.2,212,334.2,212z M334.1,212
							C334.2,212,334.2,212,334.1,212C334.2,212,334.2,212,334.1,212z M334.1,212C334.1,212,334.1,212,334.1,212
							C334.1,212,334.1,212,334.1,212z M334.1,212C334.1,212,334.1,212,334.1,212C334.1,212,334.1,212,334.1,212z M334.1,212
							C334.1,212,334.1,212,334.1,212C334.1,212,334.1,212,334.1,212z M334.1,212C334.1,212,334.1,212,334.1,212
							C334.1,212,334.1,212,334.1,212z"/>
					</g>
				</g>
			</g>
			<g>
				<g>
					<g>
						<path class="st5" d="M334.2,260c-1.8,0-3.6-0.7-4.9-2c-2.7-2.7-2.8-7.2,0-9.9c0,0,11.9-12,23.9-24c6-6,12-12,16.5-16.5
							c2.3-2.3,4.2-4.1,5.5-5.5c2.9-2.9,4.1-4.1,7-4.1c3.9,0,7,3.1,7,7c0,2.1-0.9,4-2.4,5.3c-2.5,2.3-29.7,29.6-47.6,47.6
							C337.8,259.3,336,260,334.2,260z M382.2,212C382.2,212,382.2,212,382.2,212C382.2,212,382.2,212,382.2,212z M382.2,212
							C382.2,212,382.2,212,382.2,212C382.2,212,382.2,212,382.2,212z M382.2,212C382.2,212,382.2,212,382.2,212
							C382.2,212,382.2,212,382.2,212z M382.2,212C382.2,212,382.2,212,382.2,212C382.2,212,382.2,212,382.2,212z M382.2,212
							C382.2,212,382.2,212,382.2,212C382.2,212,382.2,212,382.2,212z M382.3,212C382.3,212,382.2,212,382.3,212
							C382.2,212,382.3,212,382.3,212z M382.3,212C382.3,212,382.3,212,382.3,212C382.3,212,382.3,212,382.3,212z M382.3,212
							C382.3,212,382.3,212,382.3,212C382.3,212,382.3,212,382.3,212z M382.3,212C382.3,212,382.3,212,382.3,212
							C382.3,212,382.3,212,382.3,212z"/>
					</g>
				</g>
			</g>
		</g>
		<g>
			<g>
				<g>
					<path class="st5" d="M358.4,294.4c-36.2,0-65.6-29.4-65.6-65.6s29.4-65.6,65.6-65.6s65.6,29.4,65.6,65.6
						S394.6,294.4,358.4,294.4z M358.4,177.1c-28.5,0-51.6,23.2-51.6,51.6s23.2,51.6,51.6,51.6s51.6-23.2,51.6-51.6
						S386.9,177.1,358.4,177.1z"/>
				</g>
			</g>
		</g>
	</g>
</g>
</svg>
