<?xml version="1.0" encoding="utf-8"?>
<!-- Generator: Adobe Illustrator 21.1.0, SVG Export Plug-In . SVG Version: 6.00 Build 0)  -->
<svg version="1.1" id="Icon_Set" xmlns="http://www.w3.org/2000/svg" xmlns:xlink="http://www.w3.org/1999/xlink" x="0px" y="0px"
	 viewBox="0 0 512 512" style="enable-background:new 0 0 512 512;" xml:space="preserve">
<style type="text/css">
	.st0{fill:#FFFFFF;}
	.st1{fill:#5B7C31;}
	.st2{fill:#E56823;}
	.st3{fill:#FE8E46;}
	.st4{fill:#7DAC51;}
	.st5{fill:#463218;}
	.st6{fill:#FEFE71;}
	.st7{fill:#D6CD1E;}
	.st8{fill:none;stroke:#FFFFFF;stroke-width:14;stroke-miterlimit:10;}
	.st9{fill:none;stroke:#463218;stroke-width:14;stroke-linecap:round;stroke-linejoin:round;stroke-miterlimit:10;}
</style>
<g id="Macaroni">
	<g>
		<g>
			<g>
				<g>
					<path class="st3" d="M325.2,187.1c7.3,36.8-13,74.5-49.4,87.9c-36.4,13.4-76.3-2.1-94.6-34.9l-77.7,28.6
						c34.4,75.4,121.7,112.6,200.8,83.5s121.3-114.1,98.7-193.8L325.2,187.1z"/>
				</g>
			</g>
		</g>
		<g>
			<g>
				<g>
					<path class="st2" d="M402.9,158.5l-4.2,1.5c7.4,71-33.8,140.8-103.9,166.6c-4.8,1.8-9.7,3.3-14.6,4.6
						c-10.4,2.8-21.3-3.4-23.9-13.9c0-0.1,0-0.1-0.1-0.2c-6.9-27.5,19.6-42.1,19.6-42.1c-36.4,13.4-76.3-2.1-94.6-34.9l-77.7,28.6
						l0,0l0,0c1.1,2.4,2.2,4.7,3.4,7c1.2,2.3,2.4,4.5,3.7,6.7c1.9,3.3,3.9,6.5,6.1,9.7c0.7,1,1.4,2.1,2.2,3.1c2.2,3.1,4.5,6,6.9,8.9
						c1.6,1.9,3.2,3.8,4.9,5.6c2.5,2.8,5.1,5.4,7.8,8c0.9,0.9,1.8,1.7,2.7,2.5c22,20.1,49.2,33.6,78.4,39.2c2,0.4,4,0.7,6,1
						c0.4,0.1,0.7,0.1,1.1,0.2c25.4,3.6,52.1,1.2,77.8-8.3C383.3,323.2,425.6,238.2,402.9,158.5z"/>
				</g>
			</g>
		</g>
		<g>
			<g>
				<g>
					<path class="st5" d="M249,369.2c-21.9,0-43.8-4.3-64.5-13c-38.9-16.3-69.9-46.3-87.3-84.5c-0.8-1.8-0.8-3.8-0.1-5.6
						c0.7-1.8,2.2-3.2,4-3.9l77.7-28.6c3.2-1.2,6.8,0.1,8.5,3.2c8.1,14.5,21.2,25.8,36.9,31.6c15.8,5.9,33.3,6,49.2,0.1
						c15.9-5.8,29.2-17.2,37.4-32c8.1-14.6,10.8-31.7,7.6-48c-0.7-3.4,1.2-6.7,4.4-7.9l77.7-28.6c1.8-0.7,3.9-0.6,5.6,0.3
						c1.7,0.9,3,2.5,3.6,4.3c11.5,40.4,7.4,83.3-11.7,120.9c-19.1,37.8-51.5,66.7-91.3,81.3C288,365.7,268.5,369.2,249,369.2z
						 M113.2,272.6c16.4,31.7,43.4,56.7,76.7,70.6c35.8,15,75.6,15.9,112,2.5c36.4-13.4,66.1-39.9,83.7-74.5
						c16.3-32.2,20.7-68.6,12.6-103.5l-65.1,24c2.2,17.7-1.3,35.8-10,51.6c-9.8,17.7-25.7,31.3-44.8,38.3c-19,7-40,7-58.9-0.2
						c-16.9-6.3-31.3-17.8-41.1-32.8L113.2,272.6z"/>
				</g>
			</g>
		</g>
		<g>
			<g>
				<g>
					
						<ellipse transform="matrix(0.9384 -0.3455 0.3455 0.9384 -79.1436 64.8639)" class="st7" cx="142.4" cy="254.4" rx="41.4" ry="19.2"/>
				</g>
			</g>
		</g>
		<g>
			<g>
				<g>
					
						<ellipse transform="matrix(0.9384 -0.3455 0.3455 0.9384 -37.2875 136.4371)" class="st7" cx="364.1" cy="172.8" rx="41.4" ry="19.2"/>
				</g>
			</g>
		</g>
		<g>
			<g>
				<g>
					<path class="st5" d="M123.7,284.4c-13.4,0-23.6-4.6-26.8-13.3c-5.2-14,10.5-31.8,36.4-41.3c11.3-4.2,22.8-6,32.4-5.3
						c11.5,0.9,19.3,5.6,22.1,13.1c5.2,14-10.5,31.8-36.4,41.3C141.5,282.7,132,284.4,123.7,284.4z M161.4,238.4
						c-6.9,0-15.2,1.6-23.2,4.6c-20,7.4-29.6,19.3-28.1,23.3c1.5,4,16.5,6.9,36.5-0.5c20-7.4,29.6-19.3,28.1-23.3l0,0
						c-0.6-1.6-3.9-3.5-10.1-4C163.6,238.5,162.5,238.4,161.4,238.4z"/>
				</g>
			</g>
		</g>
		<g>
			<g>
				<g>
					<path class="st5" d="M345.1,202.8c-1.5,0-3-0.1-4.4-0.2c-11.5-0.9-19.3-5.6-22.1-13.1c-5.2-14,10.5-31.8,36.4-41.3
						c25.9-9.5,49.3-6.2,54.5,7.8c0,0,0,0,0,0c5.2,14-10.5,31.8-36.4,41.3C363.5,200.9,353.7,202.8,345.1,202.8z M383,156.8
						c-6.2,0-14.2,1.2-23.2,4.6c-20,7.4-29.6,19.3-28.1,23.3c0.6,1.6,3.9,3.5,10.1,4c7.5,0.6,17.1-1,26.4-4.4
						c20-7.4,29.6-19.3,28.1-23.3C395.6,158.7,390.6,156.8,383,156.8z"/>
				</g>
			</g>
		</g>
		<g>
			<g>
				<g>
					<path class="st5" d="M354.6,262c-1.1,0-2.1-0.2-3.1-0.7c-3.5-1.7-4.9-5.9-3.1-9.4c9.2-18.3,13.1-38.7,11.4-59
						c-0.3-3.9,2.5-7.2,6.4-7.6c3.8-0.3,7.2,2.5,7.6,6.4c1.9,22.9-2.5,45.8-12.8,66.5C359.7,260.6,357.2,262,354.6,262z"/>
				</g>
			</g>
		</g>
		<g>
			<g>
				<g>
					<path class="st0" d="M201.5,319.8c-22-5.4-39.4-25.9-40.2-26.8l10.7-9c0.2,0.2,15.2,17.9,32.8,22.2L201.5,319.8z"/>
				</g>
			</g>
		</g>
		<g>
			<g>
				<g>
					<path class="st0" d="M230.6,326.5c-3.6,0-13.3-1.9-16.2-2.5l2.7-13.7c5.2,1,11.9,2.2,13.4,2.2L230.6,326.5z"/>
				</g>
			</g>
		</g>
	</g>
</g>
</svg>
