<?xml version="1.0" encoding="utf-8"?>
<!-- Generator: Adobe Illustrator 21.1.0, SVG Export Plug-In . SVG Version: 6.00 Build 0)  -->
<svg version="1.1" id="Icon_Set" xmlns="http://www.w3.org/2000/svg" xmlns:xlink="http://www.w3.org/1999/xlink" x="0px" y="0px"
	 viewBox="0 0 512 512" style="enable-background:new 0 0 512 512;" xml:space="preserve">
<style type="text/css">
	.st0{fill:#FFFFFF;}
	.st1{fill:#5B7C31;}
	.st2{fill:#E56823;}
	.st3{fill:#FE8E46;}
	.st4{fill:#7DAC51;}
	.st5{fill:#463218;}
	.st6{fill:#FEFE71;}
	.st7{fill:#D6CD1E;}
	.st8{fill:none;stroke:#FFFFFF;stroke-width:14;stroke-miterlimit:10;}
	.st9{fill:none;stroke:#463218;stroke-width:14;stroke-linecap:round;stroke-linejoin:round;stroke-miterlimit:10;}
</style>
<g id="Macaroon">
	<g>
		<g>
			<g>
				<g>
					<path class="st4" d="M395.2,303.9H248.9c-13.5,0-24.4-10.9-24.4-24.4v0c0-13.5,10.9-24.4,24.4-24.4h146.2
						c13.5,0,24.4,10.9,24.4,24.4v0C419.5,293,408.6,303.9,395.2,303.9z"/>
				</g>
			</g>
		</g>
		<g>
			<g>
				<g>
					<path class="st4" d="M395.2,196.1H248.9c-13.5,0-24.4-10.9-24.4-24.4v0c0-13.5,10.9-24.4,24.4-24.4h146.2
						c13.5,0,24.4,10.9,24.4,24.4v0C419.5,185.2,408.6,196.1,395.2,196.1z"/>
				</g>
			</g>
		</g>
		<g>
			<g>
				<g>
					<path class="st1" d="M291.4,171.8L291.4,171.8c0-13.5,10.9-24.4,24.4-24.4h-66.8c-13.5,0-24.4,10.9-24.4,24.4l0,0
						c0,13.5,10.9,24.4,24.4,24.4h66.8C302.3,196.1,291.4,185.2,291.4,171.8z"/>
				</g>
			</g>
		</g>
		<g>
			<g>
				<g>
					<path class="st1" d="M291.4,279.5L291.4,279.5c0-13.5,10.9-24.4,24.4-24.4h-66.8c-13.5,0-24.4,10.9-24.4,24.4l0,0
						c0,13.5,10.9,24.4,24.4,24.4h66.8C302.3,303.9,291.4,293,291.4,279.5z"/>
				</g>
			</g>
		</g>
		<g>
			<g>
				<g>
					<path class="st1" d="M392,225.4H252.1c-8.2,0-14.9-6.7-14.9-14.9v0c0-8.2,6.7-14.9,14.9-14.9H392c8.2,0,14.9,6.7,14.9,14.9v0
						C406.8,218.8,400.2,225.4,392,225.4z"/>
				</g>
			</g>
		</g>
		<g>
			<g>
				<g>
					<path class="st1" d="M392,255.1H252.1c-8.2,0-14.9-6.7-14.9-14.9v0c0-8.2,6.7-14.9,14.9-14.9H392c8.2,0,14.9,6.7,14.9,14.9v0
						C406.8,248.5,400.2,255.1,392,255.1z"/>
				</g>
			</g>
		</g>
		<g>
			<g>
				<g>
					<path class="st5" d="M395.2,203.1H248.9c-17.3,0-31.4-14.1-31.4-31.4c0-17.3,14.1-31.4,31.4-31.4h146.2
						c17.3,0,31.4,14.1,31.4,31.4C426.5,189.1,412.5,203.1,395.2,203.1z M248.9,154.4c-9.6,0-17.4,7.8-17.4,17.4
						c0,9.6,7.8,17.4,17.4,17.4h146.2c9.6,0,17.4-7.8,17.4-17.4c0-9.6-7.8-17.4-17.4-17.4H248.9z"/>
				</g>
			</g>
		</g>
		<g>
			<g>
				<g>
					<path class="st5" d="M395.2,310.9H248.9c-17.3,0-31.4-14.1-31.4-31.4c0-17.3,14.1-31.4,31.4-31.4h146.2
						c17.3,0,31.4,14.1,31.4,31.4C426.5,296.8,412.5,310.9,395.2,310.9z M248.9,262.1c-9.6,0-17.4,7.8-17.4,17.4
						c0,9.6,7.8,17.4,17.4,17.4h146.2c9.6,0,17.4-7.8,17.4-17.4c0-9.6-7.8-17.4-17.4-17.4H248.9z"/>
				</g>
			</g>
		</g>
		<g>
			<g>
				<g>
					<path class="st5" d="M392,232.4H252.1c-12.1,0-21.9-9.8-21.9-21.9c0-12.1,9.8-21.9,21.9-21.9H392c12.1,0,21.9,9.8,21.9,21.9
						C413.8,222.6,404,232.4,392,232.4z M252.1,202.7c-4.3,0-7.9,3.5-7.9,7.9s3.5,7.9,7.9,7.9H392c4.3,0,7.9-3.5,7.9-7.9
						s-3.5-7.9-7.9-7.9H252.1z"/>
				</g>
			</g>
		</g>
		<g>
			<g>
				<g>
					<path class="st5" d="M392,262.1H252.1c-12.1,0-21.9-9.8-21.9-21.9c0-12.1,9.8-21.9,21.9-21.9H392c12.1,0,21.9,9.8,21.9,21.9
						C413.8,252.3,404,262.1,392,262.1z M252.1,232.4c-4.3,0-7.9,3.5-7.9,7.9s3.5,7.9,7.9,7.9H392c4.3,0,7.9-3.5,7.9-7.9
						s-3.5-7.9-7.9-7.9H252.1z"/>
				</g>
			</g>
		</g>
	</g>
	<g>
		<g>
			<g>
				<g>
					<path class="st3" d="M263.1,364.6H116.8c-13.5,0-24.4-10.9-24.4-24.4v0c0-13.5,10.9-24.4,24.4-24.4h146.2
						c13.5,0,24.4,10.9,24.4,24.4v0C287.5,353.7,276.5,364.6,263.1,364.6z"/>
				</g>
			</g>
		</g>
		<g>
			<g>
				<g>
					<path class="st3" d="M263.1,256.9H116.8c-13.5,0-24.4-10.9-24.4-24.4v0c0-13.5,10.9-24.4,24.4-24.4h146.2
						c13.5,0,24.4,10.9,24.4,24.4v0C287.5,245.9,276.5,256.9,263.1,256.9z"/>
				</g>
			</g>
		</g>
		<g>
			<g>
				<g>
					<path class="st2" d="M159.3,232.5L159.3,232.5c0-13.5,10.9-24.4,24.4-24.4h-66.8c-13.5,0-24.4,10.9-24.4,24.4l0,0
						c0,13.5,10.9,24.4,24.4,24.4h66.8C170.2,256.9,159.3,245.9,159.3,232.5z"/>
				</g>
			</g>
		</g>
		<g>
			<g>
				<g>
					<path class="st2" d="M159.3,340.2L159.3,340.2c0-13.5,10.9-24.4,24.4-24.4h-66.8c-13.5,0-24.4,10.9-24.4,24.4l0,0
						c0,13.5,10.9,24.4,24.4,24.4h66.8C170.2,364.6,159.3,353.7,159.3,340.2z"/>
				</g>
			</g>
		</g>
		<g>
			<g>
				<g>
					<path class="st2" d="M259.9,286.1H120c-8.2,0-14.9-6.7-14.9-14.9v0c0-8.2,6.7-14.9,14.9-14.9h139.8c8.2,0,14.9,6.7,14.9,14.9v0
						C274.7,279.5,268.1,286.1,259.9,286.1z"/>
				</g>
			</g>
		</g>
		<g>
			<g>
				<g>
					<path class="st2" d="M259.9,315.9H120c-8.2,0-14.9-6.7-14.9-14.9v0c0-8.2,6.7-14.9,14.9-14.9h139.8c8.2,0,14.9,6.7,14.9,14.9v0
						C274.7,309.2,268.1,315.9,259.9,315.9z"/>
				</g>
			</g>
		</g>
		<g>
			<g>
				<g>
					<path class="st5" d="M263.1,263.9H116.8c-17.3,0-31.4-14.1-31.4-31.4c0-17.3,14.1-31.4,31.4-31.4h146.2
						c17.3,0,31.4,14.1,31.4,31.4C294.5,249.8,280.4,263.9,263.1,263.9z M116.8,215.1c-9.6,0-17.4,7.8-17.4,17.4
						c0,9.6,7.8,17.4,17.4,17.4h146.2c9.6,0,17.4-7.8,17.4-17.4c0-9.6-7.8-17.4-17.4-17.4H116.8z"/>
				</g>
			</g>
		</g>
		<g>
			<g>
				<g>
					<path class="st5" d="M263.1,371.6H116.8c-17.3,0-31.4-14.1-31.4-31.4c0-17.3,14.1-31.4,31.4-31.4h146.2
						c17.3,0,31.4,14.1,31.4,31.4C294.5,357.5,280.4,371.6,263.1,371.6z M116.8,322.9c-9.6,0-17.4,7.8-17.4,17.4
						c0,9.6,7.8,17.4,17.4,17.4h146.2c9.6,0,17.4-7.8,17.4-17.4c0-9.6-7.8-17.4-17.4-17.4H116.8z"/>
				</g>
			</g>
		</g>
		<g>
			<g>
				<g>
					<path class="st5" d="M259.9,293.1H120c-12.1,0-21.9-9.8-21.9-21.9c0-12.1,9.8-21.9,21.9-21.9h139.8c12.1,0,21.9,9.8,21.9,21.9
						C281.7,283.3,271.9,293.1,259.9,293.1z M120,263.4c-4.3,0-7.9,3.5-7.9,7.9s3.5,7.9,7.9,7.9h139.8c4.3,0,7.9-3.5,7.9-7.9
						s-3.5-7.9-7.9-7.9H120z"/>
				</g>
			</g>
		</g>
		<g>
			<g>
				<g>
					<path class="st5" d="M259.9,322.9H120c-12.1,0-21.9-9.8-21.9-21.9c0-12.1,9.8-21.9,21.9-21.9h139.8c12.1,0,21.9,9.8,21.9,21.9
						C281.7,313.1,271.9,322.9,259.9,322.9z M120,293.1c-4.3,0-7.9,3.5-7.9,7.9s3.5,7.9,7.9,7.9h139.8c4.3,0,7.9-3.5,7.9-7.9
						s-3.5-7.9-7.9-7.9H120z"/>
				</g>
			</g>
		</g>
		<g>
			<g>
				<g>
					<rect x="220.1" y="225.5" class="st0" width="34" height="14"/>
				</g>
			</g>
		</g>
	</g>
</g>
</svg>
