<?xml version="1.0" encoding="utf-8"?>
<!-- Generator: Adobe Illustrator 21.1.0, SVG Export Plug-In . SVG Version: 6.00 Build 0)  -->
<svg version="1.1" id="Icon_Set" xmlns="http://www.w3.org/2000/svg" xmlns:xlink="http://www.w3.org/1999/xlink" x="0px" y="0px"
	 viewBox="0 0 512 512" style="enable-background:new 0 0 512 512;" xml:space="preserve">
<style type="text/css">
	.st0{fill:#FFFFFF;}
	.st1{fill:#5B7C31;}
	.st2{fill:#E56823;}
	.st3{fill:#FE8E46;}
	.st4{fill:#7DAC51;}
	.st5{fill:#463218;}
	.st6{fill:#FEFE71;}
	.st7{fill:#D6CD1E;}
	.st8{fill:none;stroke:#FFFFFF;stroke-width:14;stroke-miterlimit:10;}
	.st9{fill:none;stroke:#463218;stroke-width:14;stroke-linecap:round;stroke-linejoin:round;stroke-miterlimit:10;}
</style>
<g id="Margarita">
	<g>
		<g>
			<g>
				<polygon class="st2" points="227.3,393.1 176.2,426.1 278.5,426.1 				"/>
			</g>
		</g>
	</g>
	<g>
		<g>
			<g>
				<polygon class="st6" points="200.1,189.1 215,189.1 165.3,85.9 137,85.9 186.7,189.1 				"/>
			</g>
		</g>
	</g>
	<g>
		<g>
			<g>
				<circle class="st4" cx="325.4" cy="189.1" r="61.7"/>
			</g>
		</g>
	</g>
	<g>
		<g>
			<g>
				<path class="st5" d="M325.4,257.8c-37.9,0-68.7-30.8-68.7-68.7s30.8-68.7,68.7-68.7s68.7,30.8,68.7,68.7
					S363.3,257.8,325.4,257.8z M325.4,134.4c-30.2,0-54.7,24.5-54.7,54.7s24.5,54.7,54.7,54.7s54.7-24.5,54.7-54.7
					S355.6,134.4,325.4,134.4z"/>
			</g>
		</g>
	</g>
	<g>
		<g>
			<g>
				<path class="st6" d="M325.4,189.1l40.4,0.1c0,0,0,0,0-0.1c0-22.2-18.2-40.4-40.4-40.4V189.1z"/>
			</g>
		</g>
	</g>
	<g>
		<g>
			<g>
				<path class="st5" d="M365.8,196.1C365.8,196.1,365.8,196.1,365.8,196.1l-40.4-0.1c-3.9,0-7-3.1-7-7v-40.4c0-3.9,3.1-7,7-7
					c26.1,0,47.4,21.3,47.4,47.4c0,1.9-0.7,3.7-2.1,5C369.5,195.4,367.7,196.1,365.8,196.1z M332.4,182.1l25.7,0
					c-2.7-12.8-12.9-23-25.7-25.7V182.1z"/>
			</g>
		</g>
	</g>
	<g>
		<g>
			<g>
				<path class="st3" d="M329.7,189.1H227.3h-27.3h-75.1c0,0-3.6,50.4,37.9,50.4c0,0,13.3,102.4,64.5,102.4c0,0,17.8,0,0,0
					c0,0,0,0,0,0v0c51.2,0,64.5-102.4,64.5-102.4C333.3,239.5,329.7,189.1,329.7,189.1z"/>
			</g>
		</g>
	</g>
	<g>
		<g>
			<g>
				<g>
					<path class="st2" d="M227.3,341.9L227.3,341.9C227.3,341.9,227.3,341.9,227.3,341.9C227.3,341.9,227.3,341.9,227.3,341.9z"/>
				</g>
			</g>
		</g>
		<g>
			<g>
				<g>
					<path class="st2" d="M225.7,239.5c-41.5,0-37.9-50.4-37.9-50.4h-62.9c0,0-3.6,50.4,37.9,50.4c0,0,13.3,102.4,64.5,102.4
						c12.7,0,23-6.3,31.4-15.7C233.2,297.5,225.7,239.5,225.7,239.5z"/>
				</g>
			</g>
		</g>
	</g>
	<g>
		<g>
			<g>
				<g>
					<path class="st6" d="M227.3,341.9L227.3,341.9C227.3,341.9,227.3,341.9,227.3,341.9C227.3,341.9,227.3,341.9,227.3,341.9z"/>
				</g>
			</g>
		</g>
		<g>
			<g>
				<g>
					<path class="st6" d="M168,265.5c7.7,30.3,25,76.4,59.3,76.4c34.3,0,51.6-46.1,59.3-76.4H168z"/>
				</g>
			</g>
		</g>
	</g>
	<g>
		<g>
			<g>
				<path class="st6" d="M227.3,341.9L227.3,341.9C227.3,341.9,227.3,341.9,227.3,341.9C227.3,341.9,227.3,341.9,227.3,341.9z"/>
			</g>
		</g>
	</g>
	<g>
		<g>
			<g>
				<path class="st4" d="M177.9,295.6c9.9,23.9,25.5,46.3,49.5,46.3c24,0,39.6-22.4,49.5-46.3H177.9z"/>
			</g>
		</g>
	</g>
	<g>
		<g>
			<g>
				<path class="st7" d="M227.3,265.5H168c7.7,30.3,25,76.4,59.3,76.4c0,0,0,0,0,0L227.3,265.5z"/>
			</g>
		</g>
	</g>
	<g>
		<g>
			<g>
				<path class="st1" d="M227.3,295.6h-49.5c0,0,0,0,0,0c0.9,2.2,1.9,4.4,2.9,6.5c0,0.1,0.1,0.1,0.1,0.2c0.7,1.4,1.4,2.8,2.1,4.2
					c0,0.1,0.1,0.1,0.1,0.2c0.3,0.6,0.7,1.3,1,1.9c0,0.1,0.1,0.1,0.1,0.2c0.7,1.3,1.5,2.7,2.2,4c0.1,0.1,0.1,0.2,0.2,0.3
					c0.8,1.3,1.5,2.5,2.4,3.8c0.1,0.1,0.1,0.2,0.2,0.3c0.4,0.5,0.7,1.1,1.1,1.6c0.1,0.1,0.1,0.2,0.2,0.3c0.4,0.6,0.8,1.2,1.3,1.8
					c0,0,0,0,0,0c0.4,0.6,0.8,1.1,1.2,1.6c0.1,0.1,0.2,0.2,0.3,0.3c0.4,0.5,0.8,1,1.2,1.5c0,0,0.1,0.1,0.1,0.1
					c0.4,0.5,0.9,1.1,1.4,1.6c0.1,0.1,0.2,0.2,0.3,0.3c0.4,0.4,0.8,0.8,1.1,1.3c0.1,0.1,0.2,0.2,0.3,0.3c0.5,0.5,0.9,1,1.4,1.4
					c0,0,0.1,0,0.1,0.1c0.4,0.4,0.9,0.9,1.4,1.3c0.1,0.1,0.2,0.2,0.4,0.3c0.4,0.4,0.8,0.7,1.3,1.1c0.1,0.1,0.2,0.1,0.2,0.2
					c0.5,0.4,1,0.8,1.5,1.2c0.1,0.1,0.2,0.2,0.3,0.3c0.4,0.3,0.8,0.6,1.2,0.9c0.1,0.1,0.3,0.2,0.4,0.3c0.5,0.4,1.1,0.7,1.6,1.1
					c0,0,0.1,0,0.1,0.1c0.5,0.3,1,0.6,1.5,0.9c0.1,0.1,0.3,0.2,0.5,0.3c0.5,0.2,0.9,0.5,1.4,0.7c0.1,0.1,0.2,0.1,0.3,0.2
					c0.6,0.3,1.1,0.5,1.7,0.8c0.1,0.1,0.3,0.1,0.4,0.2c0.5,0.2,0.9,0.4,1.4,0.5c0.2,0.1,0.3,0.1,0.5,0.2c0.6,0.2,1.2,0.4,1.8,0.6
					c0,0,0.1,0,0.1,0c0.6,0.2,1.2,0.3,1.7,0.5c0.2,0,0.3,0.1,0.5,0.1c0.5,0.1,1,0.2,1.5,0.3c0.1,0,0.3,0.1,0.4,0.1
					c0.6,0.1,1.3,0.2,1.9,0.3c0.1,0,0.3,0,0.4,0c0.5,0.1,1,0.1,1.5,0.1c0.2,0,0.4,0,0.6,0c0.7,0,1.3,0.1,2,0.1c0,0,0,0,0,0
					L227.3,295.6z"/>
			</g>
		</g>
	</g>
	<g>
		<g>
			<g>
				<path class="st5" d="M227.3,348.9C227.3,348.9,227.3,348.9,227.3,348.9c-49.7-0.1-66.7-80.1-70.6-102.7
					c-10.1-1.1-18.5-5.2-25-12.2c-15.6-16.8-13.9-44.2-13.8-45.4c0.3-3.7,3.3-6.5,7-6.5h204.8c3.7,0,6.7,2.8,7,6.5
					c0.1,1.2,1.8,28.6-13.8,45.4c-6.5,7-14.9,11.1-25,12.2C294.4,266.8,280,335,240,347.1c-1.2,1.1-2.9,1.8-4.7,1.8H227.3
					C227.4,348.9,227.4,348.9,227.3,348.9z M132,196.1c0.5,7.6,2.4,20.2,10.1,28.4c5.1,5.4,11.9,8,20.8,8c3.5,0,6.5,2.6,6.9,6.1
					c0,0.2,3.4,25.3,12.7,49.8c8.1,21.2,22.4,46.5,44.8,46.5h0.2c12.4-0.1,30.1-8.3,44.6-46.7c9.3-24.5,12.6-49.4,12.6-49.6
					c0.5-3.5,3.4-6.1,6.9-6.1c8.9,0,15.8-2.6,20.8-8.1c7.5-8.1,9.5-20.7,10-28.3H132z"/>
			</g>
		</g>
	</g>
	<g>
		<g>
			<g>
				<g>
					<path class="st5" d="M227.3,348.9c-3.9,0-7-3.1-7-7c0-1.9,0.7-3.6,2.1-5c1.3-1.3,3.1-2,5-2c3.9,0,7,3.1,7,7
						C234.3,345.8,231.2,348.9,227.3,348.9z"/>
				</g>
			</g>
		</g>
		<g>
			<g>
				<g>
					<path class="st5" d="M227.3,348.9c-17.7,0-33.1-10.1-45.6-30.1c-8.3-13.3-15.2-30.6-20.5-51.6c-0.5-2.1-0.1-4.3,1.3-6
						c1.3-1.7,3.4-2.7,5.5-2.7h118.6c2.2,0,4.2,1,5.5,2.7c1.3,1.7,1.8,3.9,1.3,6c-5.3,20.9-12.2,38.3-20.5,51.6
						C260.4,338.8,245.1,348.9,227.3,348.9z M177.2,272.5c15.6,54.1,37.9,62.4,50.1,62.4c12.3,0,34.6-8.4,50.1-62.4H177.2z"/>
				</g>
			</g>
		</g>
	</g>
	<g>
		<g>
			<g>
				<path class="st5" d="M215,196.1h-28.3c-2.7,0-5.1-1.5-6.3-4L130.7,88.9c-1-2.2-0.9-4.7,0.4-6.8c1.3-2,3.5-3.3,5.9-3.3h28.3
					c2.7,0,5.1,1.5,6.3,4L221.3,186c1,2.2,0.9,4.7-0.4,6.8C219.6,194.8,217.4,196.1,215,196.1z M191.1,182.1h12.7l-42.9-89.2h-12.7
					L191.1,182.1z"/>
			</g>
		</g>
	</g>
	<g>
		<g>
			<g>
				<path class="st5" d="M227.3,400.1c-3.9,0-7-3.1-7-7v-51.2c0-3.9,3.1-7,7-7s7,3.1,7,7v51.2C234.3,397,231.2,400.1,227.3,400.1z"
					/>
			</g>
		</g>
	</g>
	<g>
		<g>
			<g>
				<path class="st5" d="M278.5,433.1H176.2c-3.1,0-5.8-2-6.7-5s0.3-6.2,2.9-7.9l51.2-33c2.3-1.5,5.3-1.5,7.6,0l51.2,33
					c2.6,1.7,3.8,4.9,2.9,7.9S281.6,433.1,278.5,433.1z M199.9,419.1h54.8l-27.4-17.7L199.9,419.1z"/>
			</g>
		</g>
	</g>
	<g>
		<g>
			<g>
				<rect x="239.3" y="207" class="st0" width="34.4" height="14"/>
			</g>
		</g>
	</g>
</g>
</svg>
