<?xml version="1.0" encoding="utf-8"?>
<!-- Generator: Adobe Illustrator 21.1.0, SVG Export Plug-In . SVG Version: 6.00 Build 0)  -->
<svg version="1.1" id="Icon_Set" xmlns="http://www.w3.org/2000/svg" xmlns:xlink="http://www.w3.org/1999/xlink" x="0px" y="0px"
	 viewBox="0 0 512 512" style="enable-background:new 0 0 512 512;" xml:space="preserve">
<style type="text/css">
	.st0{fill:#FFFFFF;}
	.st1{fill:#5B7C31;}
	.st2{fill:#E56823;}
	.st3{fill:#FE8E46;}
	.st4{fill:#7DAC51;}
	.st5{fill:#463218;}
	.st6{fill:#FEFE71;}
	.st7{fill:#D6CD1E;}
	.st8{fill:none;stroke:#FFFFFF;stroke-width:14;stroke-miterlimit:10;}
	.st9{fill:none;stroke:#463218;stroke-width:14;stroke-linecap:round;stroke-linejoin:round;stroke-miterlimit:10;}
</style>
<g id="Marshmallow">
	<g>
		<g>
			<g>
				<path class="st6" d="M304.3,207.7c-27.6-27.6-39.6-60.5-26.7-73.3L221,191c-12.9,12.9-0.9,45.7,26.7,73.3s60.5,39.6,73.3,26.7
					l56.5-56.5C364.7,247.3,331.9,235.4,304.3,207.7z"/>
			</g>
		</g>
	</g>
	<g>
		<g>
			<g>
				<path class="st6" d="M203.3,308.7c-19.5-19.5-28-42.7-18.9-51.8l-40,40c-9.1,9.1-0.6,32.3,18.9,51.8s42.7,28,51.8,18.9l40-40
					C246.1,336.7,222.9,328.2,203.3,308.7z"/>
			</g>
		</g>
	</g>
	<g>
		<g>
			<g>
				<path class="st7" d="M190.3,292.8c-9.8-14.9-12.6-29.3-5.9-36l-40,40c-6.7,6.7-3.9,21.1,5.9,36L190.3,292.8z"/>
			</g>
		</g>
	</g>
	<g>
		<g>
			<g>
				<path class="st7" d="M290.8,192.3c-17.7-23.5-23.8-47.4-13.3-57.9L221,191c-10.5,10.5-4.4,34.4,13.3,57.9L290.8,192.3z"/>
			</g>
		</g>
	</g>
	<g>
		<g>
			<g>
				
					<ellipse transform="matrix(0.7071 -0.7071 0.7071 0.7071 -34.4738 285.6432)" class="st3" cx="327.6" cy="184.4" rx="33" ry="70.7"/>
			</g>
		</g>
	</g>
	<g>
		<g>
			<g>
				
					<ellipse transform="matrix(0.7071 -0.7071 0.7071 0.7071 -142.2293 241.0095)" class="st3" cx="219.8" cy="292.2" rx="23.3" ry="50"/>
			</g>
		</g>
	</g>
	<g>
		<g>
			<g>
				<path class="st5" d="M363.1,246.6c-5.7,0-12.1-1.3-19.1-3.8c-14.8-5.4-30.7-16.1-44.7-30.2c-14.1-14.1-24.8-30-30.2-44.7
					c-6-16.6-4.8-30.2,3.5-38.5c8.3-8.3,21.9-9.5,38.5-3.5c14.8,5.4,30.7,16.1,44.7,30.2c14.1,14.1,24.8,30,30.2,44.7
					c6,16.6,4.8,30.2-3.5,38.5C377.7,244.2,371.1,246.6,363.1,246.6z M292.1,136.3c-4.2,0-7.5,1-9.6,3.1c-4.1,4.1-4.1,13-0.2,23.8
					c4.7,12.9,14.3,27,26.9,39.6c12.7,12.7,26.7,22.2,39.6,26.9c10.8,3.9,19.7,3.9,23.8-0.2c4.1-4.1,4.1-13,0.2-23.8
					c-4.7-12.9-14.3-27-26.9-39.6s-26.7-22.2-39.6-26.9C301,137.2,296.1,136.3,292.1,136.3z"/>
			</g>
		</g>
	</g>
	<g>
		<g>
			<g>
				<path class="st5" d="M306.6,303.2c-5.7,0-12.1-1.3-19.1-3.8c-14.8-5.4-30.7-16.1-44.7-30.2s-24.8-30-30.2-44.7
					c-6-16.6-4.8-30.2,3.5-38.5l56.5-56.5c0,0,0,0,0,0c2.7-2.7,7.2-2.7,9.9,0c2.7,2.7,2.7,7.2,0,9.9h0c-4.1,4.1-4.1,13-0.2,23.8
					c4.7,12.9,14.3,27,26.9,39.6s26.7,22.2,39.6,26.9c10.8,3.9,19.7,3.9,23.8-0.2c2.7-2.7,7.2-2.7,9.9,0c2.7,2.7,2.7,7.2,0,9.9
					L326,295.9C321.2,300.7,314.5,303.2,306.6,303.2z M265.9,155.9l-40,40c-4.1,4.1-4.1,13-0.2,23.8c4.7,12.9,14.3,27,26.9,39.6
					c12.7,12.7,26.7,22.2,39.6,26.9c10.8,3.9,19.7,3.9,23.8-0.2l40-40c-3.8-0.6-7.8-1.7-12-3.2c-14.8-5.4-30.7-16.1-44.7-30.2
					c0,0,0,0,0,0c-14.1-14.1-24.8-30-30.2-44.7C267.6,163.7,266.5,159.7,265.9,155.9z"/>
			</g>
		</g>
	</g>
	<g>
		<g>
			<g>
				<path class="st5" d="M244.9,338.2c-13.3,0-30.8-8.8-46.6-24.5c-23-23-31.1-49.5-18.9-61.7c12.2-12.2,38.8-4.1,61.7,18.9
					c23,23,31.1,49.5,18.9,61.7l0,0C256.3,336.3,251,338.2,244.9,338.2z M255.2,327.6L255.2,327.6L255.2,327.6z M194.7,260.1
					c-2.4,0-4.2,0.6-5.3,1.7c-2.3,2.3-2.1,7.9,0.3,14.7c3.2,8.7,9.9,18.7,18.5,27.3c8.6,8.6,18.6,15.4,27.3,18.5
					c6.8,2.5,12.4,2.6,14.7,0.3l0,0c4.7-4.7-0.3-23.4-18.9-41.9C217.1,266.4,202.7,260.1,194.7,260.1z"/>
			</g>
		</g>
	</g>
	<g>
		<g>
			<g>
				<path class="st5" d="M205,378.1c-13.3,0-30.8-8.8-46.6-24.5c-23-23-31.1-49.5-18.9-61.7l40-40c2.7-2.7,7.2-2.7,9.9,0
					c1.4,1.4,2.1,3.2,2.1,4.9s-0.7,3.6-2.1,4.9c-4.7,4.7,0.3,23.4,18.9,41.9c8.6,8.6,18.6,15.4,27.3,18.5c6.8,2.5,12.4,2.6,14.7,0.3
					l0,0c2.7-2.7,7.2-2.7,9.9,0c2.7,2.7,2.7,7.2,0,9.9l-40,40C216.3,376.3,211.1,378.1,205,378.1z M175,276.1l-25.6,25.6
					c-4.7,4.7,0.3,23.4,18.9,41.9c18.6,18.6,37.2,23.6,41.9,18.9l25.6-25.6c-1.6-0.4-3.3-0.9-5.1-1.6c-10.7-3.9-22.2-11.7-32.4-21.8
					C186,301.2,177.9,287.8,175,276.1z"/>
			</g>
		</g>
	</g>
	<g>
		<g>
			<g>
				<path class="st5" d="M331.5,187.5c-1.8,0-3.6-0.7-4.9-2.1c-2.7-2.7-2.7-7.2,0-9.9l43.3-43.3c2.7-2.7,7.2-2.7,9.9,0
					c2.7,2.7,2.7,7.2,0,9.9l-43.3,43.3C335.1,186.8,333.3,187.5,331.5,187.5z"/>
			</g>
		</g>
	</g>
	<g>
		<g>
			<g>
				<path class="st5" d="M219.8,299.2c-1.8,0-3.6-0.7-4.9-2.1c-2.7-2.7-2.7-7.2,0-9.9l27.9-27.9c2.7-2.7,7.2-2.7,9.9,0
					c2.7,2.7,2.7,7.2,0,9.9l-27.9,27.9C223.4,298.5,221.6,299.2,219.8,299.2z"/>
			</g>
		</g>
	</g>
	<g>
		<g>
			<g>
				<path class="st5" d="M129.2,389.8c-1.8,0-3.6-0.7-4.9-2.1c-2.7-2.7-2.7-7.2,0-9.9l34.1-34.1c2.7-2.7,7.2-2.7,9.9,0
					c2.7,2.7,2.7,7.2,0,9.9l-34.1,34.1C132.8,389.1,131,389.8,129.2,389.8z"/>
			</g>
		</g>
	</g>
	<g>
		<g>
			<g>
				
					<rect x="236.1" y="192.1" transform="matrix(0.7071 -0.7071 0.7071 0.7071 -66.7104 237.2038)" class="st0" width="33.8" height="14"/>
			</g>
		</g>
	</g>
</g>
</svg>
