<?xml version="1.0" encoding="utf-8"?>
<!-- Generator: Adobe Illustrator 22.1.0, SVG Export Plug-In . SVG Version: 6.00 Build 0)  -->
<svg version="1.1" id="Layer_1" xmlns="http://www.w3.org/2000/svg" xmlns:xlink="http://www.w3.org/1999/xlink" x="0px" y="0px"
	 viewBox="0 0 256 256" style="enable-background:new 0 0 256 256;" xml:space="preserve">
<style type="text/css">
	.st0{fill:#F5B31F;}
	.st1{fill:none;stroke:#464646;stroke-width:8;stroke-linecap:round;stroke-linejoin:round;stroke-miterlimit:10;}
	.st2{opacity:0.15;fill:#464646;}
	.st3{fill:#AC6535;}
	.st4{fill:#EB573B;}
	.st5{fill:#90C056;}
	.st6{opacity:0.35;fill:#FFFFFF;}
	.st7{opacity:0.2;fill:#FFFFFF;}
	.st8{fill:#F6D67A;}
	.st9{opacity:0.15;fill:#FFFFFF;}
	.st10{opacity:0.3;fill:#FFFFFF;}
	.st11{fill:#AC6535;stroke:#464646;stroke-width:8;stroke-linecap:round;stroke-linejoin:round;stroke-miterlimit:10;}
	.st12{fill:#EB573B;stroke:#464646;stroke-width:8;stroke-miterlimit:10;}
	.st13{opacity:0.15;}
	.st14{fill:#464646;}
	.st15{fill:#FFA755;}
	.st16{fill:#8FAE3C;}
	.st17{fill:#BE6BB2;}
	.st18{fill:#B7C536;}
	.st19{opacity:0.1;}
	.st20{fill:#9D5A96;}
	.st21{fill:#EA615D;}
	.st22{opacity:0.4;fill:#FFFFFF;}
	.st23{opacity:7.000000e-02;}
	.st24{fill:#F79932;}
	.st25{fill:#FFEC97;}
	.st26{fill:#FFD11D;}
	.st27{opacity:0.2;}
	.st28{fill:#FFFFFF;}
	.st29{fill:#F7F2D5;}
	.st30{fill:#F6AF72;}
	.st31{fill:#BA6C45;}
	.st32{opacity:0.5;fill:#FFFFFF;}
	.st33{fill:#E4C074;}
	.st34{fill:none;stroke:#656566;stroke-width:8;stroke-linecap:round;stroke-linejoin:round;stroke-miterlimit:10;}
	.st35{fill:#FFA755;stroke:#464646;stroke-width:8;stroke-linecap:round;stroke-linejoin:round;stroke-miterlimit:10;}
	.st36{fill:#FFD11D;stroke:#464646;stroke-width:8;stroke-linecap:round;stroke-linejoin:round;stroke-miterlimit:10;}
	.st37{fill:#FACD1F;}
	.st38{fill:#FFDF66;}
	.st39{fill:#FFEC97;stroke:#464646;stroke-width:8;stroke-linecap:round;stroke-linejoin:round;stroke-miterlimit:10;}
	.st40{fill:#FFDF66;stroke:#464646;stroke-width:8;stroke-linecap:round;stroke-linejoin:round;stroke-miterlimit:10;}
	.st41{opacity:0.2;fill:#464646;}
	.st42{fill:#FFFFFF;stroke:#464646;stroke-width:8;stroke-linecap:round;stroke-linejoin:round;stroke-miterlimit:10;}
	.st43{fill:#6D6E71;stroke:#464646;stroke-width:8;stroke-linecap:round;stroke-linejoin:round;stroke-miterlimit:10;}
	.st44{opacity:0.1;fill:#464646;}
	.st45{fill:#E77CAE;}
	.st46{fill:#FFE5C4;}
	.st47{fill:#F68455;stroke:#464646;stroke-width:8;stroke-linecap:round;stroke-linejoin:round;stroke-miterlimit:10;}
	.st48{opacity:0.7;}
	.st49{fill:#ADEDFF;}
	.st50{fill:#EC754B;}
	.st51{fill:#4AA5BA;}
	.st52{opacity:0.5;}
	.st53{opacity:0.8;}
	.st54{fill:#F68455;}
	.st55{fill:#92A5AC;}
	.st56{fill:#6D6E71;}
	.st57{fill:#D06E3C;}
	.st58{fill:#DA4F4B;}
	.st59{fill:#BDF3FF;}
	.st60{fill:#F18BB4;}
	.st61{fill:#F9D97A;}
	.st62{fill:none;}
	.st63{fill:#AF6535;}
	.st64{fill:#B93226;}
	.st65{fill:#FF6050;}
	.st66{fill:#D06E3C;stroke:#464646;stroke-miterlimit:10;}
	.st67{fill:#EA7CB1;}
	.st68{fill:none;stroke:#6D6E71;stroke-width:10;stroke-linecap:round;stroke-linejoin:round;stroke-miterlimit:10;}
	.st69{fill:#00B0E0;}
	.st70{fill:#EA7DAE;}
	.st71{opacity:0.1;fill:#FFFFFF;}
	.st72{fill:#BC7532;}
	.st73{fill:#876C6C;}
	.st74{fill:#F9F6CD;}
	.st75{fill:#FFE37B;}
	.st76{fill:#1DDCFF;}
	.st77{fill:#60ACF7;}
	.st78{fill:#C3755A;}
	.st79{fill:#96557A;}
	.st80{fill:#66625D;}
	.st81{fill:#D68032;}
	.st82{opacity:0.8;fill:#FFFFFF;}
	.st83{fill:#F2A355;}
	.st84{fill:#7E9E6A;}
	.st85{opacity:0.3;}
	.st86{fill:#965A85;}
	.st87{opacity:0.7;fill:#FFFFFF;}
	.st88{fill:#90CAD3;}
	.st89{fill:#94B57F;}
	.st90{fill:#B2E2E7;}
	.st91{fill:#FFDF8F;}
	.st92{fill:#FFFAEB;}
	.st93{fill:#F88916;}
	.st94{fill:#FFC86E;}
	.st95{fill:#AFA51D;}
	.st96{fill:#968A1C;}
	.st97{fill:#C3556D;}
</style>
<g>
	<path class="st0" d="M187.3,9.5L186.9,59l-0.3,29.2c-1,2.7-2.4,5.5-4.2,8.4c-0.7,1.2-1.5,2.3-2.4,3.5c-3.5,4.9-8.1,9.8-13.4,14.2
		c-0.6,0.5-1.1,0.9-1.7,1.4c-0.7,0.6-1.5,1.1-2.2,1.7l-1.6,0l0.4-42.4l0.2-19.4l0.2-15.8l0.3-30.6C162.2,2.1,187.4,2.4,187.3,9.5z"
		/>
	<path class="st6" d="M187.3,9.5c0.1-7.1-25.1-7.3-25.2-0.2l-0.3,30.6l-0.2,15.8L161.6,75l-0.4,42.4
		C163.3,65.9,164.2,11.7,187.3,9.5z"/>
	<path class="st1" d="M187.3,9.5L186.9,59l-0.3,29.2c-1,2.7-2.4,5.5-4.2,8.4c-0.7,1.2-1.5,2.3-2.4,3.5c-3.5,4.9-8.1,9.8-13.4,14.2
		c-0.6,0.5-1.1,0.9-1.7,1.4c-0.7,0.6-1.5,1.1-2.2,1.7l-1.6,0l0.4-42.4l0.2-19.4l0.2-15.8l0.3-30.6C162.2,2.1,187.4,2.4,187.3,9.5z"
		/>
	<path class="st0" d="M216.7,33.1l-7.8,47.1c-7.5,0-20.7,0-20.7,0c0,2.4-0.6,5.1-1.6,8c-1,2.7-2.4,5.5-4.2,8.4
		c-0.7,1.2-1.5,2.3-2.4,3.5l2.4-14.9l4.3-26.2l5-30C193,22,217.9,26.1,216.7,33.1z"/>
	<path class="st6" d="M216.7,33.1c1.2-7-23.7-11.1-24.9-4.1l-5,30l-4.3,26.2l-2.4,14.9C190.2,60.2,201.4,29.6,216.7,33.1z"/>
	<path class="st1" d="M216.7,33.1l-7.8,47.1c-7.5,0-20.7,0-20.7,0c0,2.4-0.6,5.1-1.6,8c-1,2.7-2.4,5.5-4.2,8.4
		c-0.7,1.2-1.5,2.3-2.4,3.5l2.4-14.9l4.3-26.2l5-30C193,22,217.9,26.1,216.7,33.1z"/>
	<path class="st0" d="M167.4,44.4l-0.1,10.2l-0.5,59.8c-0.6,0.5-1.1,0.9-1.7,1.4c-0.7,0.6-1.5,1.1-2.2,1.7c-1.8,1.3-3.8,2.6-5.7,3.8
		c-4.9,2.9-10.1,5.2-15.6,6.7l0-3.2l0.5-48.9l0.3-31.7c0-2.3,2.7-3.9,6.3-4.6c4.1-0.9,9.4-0.8,13.4,0.3
		C165.1,40.7,167.4,42.3,167.4,44.4z"/>
	<path class="st1" d="M167.4,44.4l-0.1,10.2l-0.5,59.8c-0.6,0.5-1.1,0.9-1.7,1.4c-0.7,0.6-1.5,1.1-2.2,1.7c-1.8,1.3-3.8,2.6-5.7,3.8
		c-4.9,2.9-10.1,5.2-15.6,6.7l0-3.2l0.5-48.9l0.3-31.7c0-2.3,2.7-3.9,6.3-4.6c4.1-0.9,9.4-0.8,13.4,0.3
		C165.1,40.7,167.4,42.3,167.4,44.4z"/>
	<path class="st0" d="M148.7,16.7c0.1-7.1-25.1-7.3-25.2-0.2l-1,108.2l25.2,0.2L148.7,16.7z"/>
	<path class="st6" d="M148.7,16.7c0.1-7.1-25.1-7.3-25.2-0.2l-1,108.2C125.2,54.3,133.2,13.9,148.7,16.7z"/>
	<path class="st1" d="M148.7,16.7c0.1-7.1-25.1-7.3-25.2-0.2l-1,108.2l25.2,0.2L148.7,16.7z"/>
	<path class="st2" d="M143,36.9l0,90.7c-2.5,0.4-5.1,0.6-7.6,0.6c-6,0-12-1.2-17.6-3.2l0-88.1c0-3.3,6.5-4.9,12.9-4.9
		C137,32.2,143,33.8,143,36.9z"/>
	<path class="st0" d="M135.6,38.5l0,90.7c-2.5,0.4-5.1,0.6-7.6,0.6c-6,0-12-1.2-17.6-3.2l0-88.1c0-3.3,6.5-4.9,12.9-4.9
		C129.6,33.7,135.6,35.3,135.6,38.5z"/>
	<path class="st6" d="M135.6,38.5c0-3.2-6.1-4.8-12.3-4.9c-6.4-0.1-12.9,1.6-12.9,4.9l0,88.1C112,81.4,115.4,40.2,135.6,38.5z"/>
	<path class="st1" d="M135.6,38.5l0,90.7c-2.5,0.4-5.1,0.6-7.6,0.6c-6,0-12-1.2-17.6-3.2l0-88.1c0-3.3,6.5-4.9,12.9-4.9
		C129.6,33.7,135.6,35.3,135.6,38.5z"/>
	<path class="st0" d="M110.4,22.2l0,104.5c-2.8-1-5.6-2.2-8.2-3.6c-6.3-3.3-12-7.5-17-12.2l0-88.6C85.3,15.1,110.4,15.1,110.4,22.2z
		"/>
	<path class="st6" d="M110.4,22.2c0-7.1-25.2-7.1-25.2,0l0,88.6C87,65.3,91.2,25.9,110.4,22.2z"/>
	<path class="st1" d="M110.4,22.2l0,104.5c-2.8-1-5.6-2.2-8.2-3.6c-6.3-3.3-12-7.5-17-12.2l0-88.6C85.3,15.1,110.4,15.1,110.4,22.2z
		"/>
	<path class="st2" d="M110.9,126.7c-6.3-3.3-12-7.5-17-12.2c-1.2-1.1-2.3-2.2-3.4-3.4c-3-3.2-5.7-6.6-7.8-10L78,57.3
		c-0.3-2.4,2.4-4.3,6.1-5.5c3-1,6.6-1.4,9.9-1.4c4.7,0.1,8.7,1.3,9,4.1L110.9,126.7z"/>
	<path class="st0" d="M102.2,123c-6.3-3.3-12-7.5-17-12.2c-1.2-1.1-2.3-2.2-3.4-3.4c-3-3.2-5.7-6.6-7.8-10l-4.8-43.8
		c-0.3-2.4,2.4-4.3,6.1-5.5c3-1,6.6-1.4,9.9-1.4c4.7,0.1,8.7,1.3,9,4.1L102.2,123z"/>
	<path class="st6" d="M94.3,50.9c-0.3-2.8-4.3-4-9-4.1c-3.3-0.1-6.9,0.4-9.9,1.4c-3.7,1.2-6.4,3.1-6.1,5.5l4.8,43.8
		C76.7,71.1,82.5,53.2,94.3,50.9z"/>
	<path class="st1" d="M102.2,123c-6.3-3.3-12-7.5-17-12.2c-1.2-1.1-2.3-2.2-3.4-3.4c-3-3.2-5.7-6.6-7.8-10l-4.8-43.8
		c-0.3-2.4,2.4-4.3,6.1-5.5c3-1,6.6-1.4,9.9-1.4c4.7,0.1,8.7,1.3,9,4.1L102.2,123z"/>
	<path class="st2" d="M94.4,143.3c-3-3.2-5.7-6.6-7.8-10c-0.5-0.8-0.9-1.5-1.4-2.3c-3.1-5.4-4.9-10.7-4.9-15c0,0-7.4,0-14.2,0
		l-5-45.8L59.3,54c-0.8-7.1,24.3-9.8,25.1-2.8L87.9,84L94.4,143.3z"/>
	<path class="st0" d="M81.9,107.4c-3-3.2-5.7-6.6-7.8-10c-0.5-0.8-0.9-1.5-1.4-2.3c-3.1-5.4-4.9-10.7-4.9-15c0,0-7.4,0-14.2,0
		l-5-45.8l-1.8-16.4C45.9,11,71,8.2,71.8,15.3l3.6,32.8L81.9,107.4z"/>
	<path class="st6" d="M71.8,15.3C71,8.2,45.9,11,46.7,18.1l1.8,16.4l5,45.8C51.5,42.4,53.1,16.4,71.8,15.3z"/>
	<path class="st1" d="M81.9,107.4c-3-3.2-5.7-6.6-7.8-10c-0.5-0.8-0.9-1.5-1.4-2.3c-3.1-5.4-4.9-10.7-4.9-15c0,0-7.4,0-14.2,0
		l-5-45.8l-1.8-16.4C45.9,11,71,8.2,71.8,15.3l3.6,32.8L81.9,107.4z"/>
	<path class="st2" d="M80.7,94.4c-3.1-5.4-4.9-10.7-4.9-15c0,0-7.4,0-14.2,0l-10.1,0l-8.5-37.3c-0.9-3.9,6.7-7.5,13.6-8.5
		c5.3-0.8,10.2-0.1,10.9,2.9L80.7,94.4z"/>
	<path class="st0" d="M72.7,95.2c-3.1-5.4-4.9-10.7-4.9-15c0,0-7.4,0-14.2,0l-10.1,0L34.9,43c-0.9-3.9,6.7-7.5,13.6-8.5
		c5.3-0.8,10.2-0.1,10.9,2.9L72.7,95.2z"/>
	<path class="st6" d="M59.4,37.3c-0.7-3-5.6-3.6-10.9-2.9c-7,1-14.5,4.6-13.6,8.5l8.5,37.3C42.3,54.1,46.9,38.6,59.4,37.3z"/>
	<path class="st1" d="M72.7,95.2c-3.1-5.4-4.9-10.7-4.9-15c0,0-7.4,0-14.2,0l-10.1,0L34.9,43c-0.9-3.9,6.7-7.5,13.6-8.5
		c5.3-0.8,10.2-0.1,10.9,2.9L72.7,95.2z"/>
	<path class="st0" d="M182.8,59.9l-0.2,25.4l-0.1,11.4c-0.7,1.2-1.5,2.3-2.4,3.5c-3.5,4.9-8.1,9.8-13.4,14.2
		c-0.6,0.5-1.1,0.9-1.7,1.4c-0.7,0.6-1.5,1.1-2.2,1.7c-1.8,1.3-3.8,2.6-5.7,3.8l0.4-47.3l0.1-14.2c0-1.8,1.7-3.2,4.1-4
		c1.6-0.6,3.5-0.9,5.6-1.1C174.4,54,182.8,55.8,182.8,59.9z"/>
	<path class="st6" d="M182.8,59.9c0-4.1-8.4-5.9-15.5-5.4c-2,0.2-4,0.5-5.6,1.1c-2.5,0.9-4.1,2.2-4.1,4l-0.1,14.2l-0.4,47.3
		C160.5,87.1,167.7,62.8,182.8,59.9z"/>
	<path class="st1" d="M182.8,59.9l-0.2,25.4l-0.1,11.4c-0.7,1.2-1.5,2.3-2.4,3.5c-3.5,4.9-8.1,9.8-13.4,14.2
		c-0.6,0.5-1.1,0.9-1.7,1.4c-0.7,0.6-1.5,1.1-2.2,1.7c-1.8,1.3-3.8,2.6-5.7,3.8l0.4-47.3l0.1-14.2c0-1.8,1.7-3.2,4.1-4
		c1.6-0.6,3.5-0.9,5.6-1.1C174.4,54,182.8,55.8,182.8,59.9z"/>
	<path class="st2" d="M174,78.2l-0.3,36.7c-0.7,0.6-1.5,1.1-2.2,1.7c-1.8,1.3-3.8,2.6-5.7,3.8c-4.9,2.9-10.1,5.2-15.6,6.7
		c-0.6,0.2-1.1,0.3-1.7,0.5l0-3.6l0.4-46c0-1.2,0.7-2.1,1.8-2.9c1.5-1,3.7-1.7,6.3-2.1c3-0.4,6.3-0.4,9.3,0.1
		c1.5,0.2,2.9,0.6,4.1,1.1C172.5,75.1,174,76.5,174,78.2z"/>
	<path class="st0" d="M165.4,79l-0.3,36.7c-0.7,0.6-1.5,1.1-2.2,1.7c-1.8,1.3-3.8,2.6-5.7,3.8c-4.9,2.9-10.1,5.2-15.6,6.7
		c-0.6,0.2-1.1,0.3-1.7,0.5l0-3.6l0.4-46c0-1.2,0.7-2.1,1.8-2.9c1.5-1,3.7-1.7,6.3-2.1c3-0.4,6.3-0.4,9.3,0.1
		c1.5,0.2,2.9,0.6,4.1,1.1C163.9,75.9,165.4,77.3,165.4,79z"/>
	<path class="st6" d="M165.4,79c0-1.7-1.5-3.1-3.8-4c-1.2-0.5-2.6-0.8-4.1-1.1c-2.9-0.5-6.3-0.5-9.3-0.1c-2.6,0.4-4.8,1-6.3,2.1
		c-1.1,0.8-1.8,1.7-1.8,2.9l-0.4,46l0,3.6C142.4,97.5,150,78.7,165.4,79z"/>
	<path class="st1" d="M165.4,79l-0.3,36.7c-0.7,0.6-1.5,1.1-2.2,1.7c-1.8,1.3-3.8,2.6-5.7,3.8c-4.9,2.9-10.1,5.2-15.6,6.7
		c-0.6,0.2-1.1,0.3-1.7,0.5l0-3.6l0.4-46c0-1.2,0.7-2.1,1.8-2.9c1.5-1,3.7-1.7,6.3-2.1c3-0.4,6.3-0.4,9.3,0.1
		c1.5,0.2,2.9,0.6,4.1,1.1C163.9,75.9,165.4,77.3,165.4,79z"/>
	<path class="st2" d="M211.4,81.8c-0.4,3.1-12.3,149.2-13.3,153.4c-1,4.2-5.9,9.8-12.1,8.6c-6.1-1.2-36.1-11.2-58.5-11.2
		c-22.5,0-52.4,10-58.5,11.2c-6.1,1.2-11.1-4.4-12.1-8.6c-1-4.2-17.1-155.4-17.1-155.4s-1.2-7.6,2.1-7.6l11.2,0c6.9,0,14.2,0,14.2,0
		c0,4.3,1.8,9.5,4.9,15c0.4,0.8,0.9,1.5,1.4,2.3c2.1,3.3,4.8,6.7,7.8,10c1.1,1.2,2.2,2.3,3.4,3.4c4.9,4.7,10.7,8.9,17,12.2
		c2.6,1.4,5.4,2.6,8.2,3.6c5.6,2,11.5,3.2,17.6,3.2c2.6,0,5.1-0.2,7.6-0.6c1.4-0.2,2.7-0.5,4.1-0.8c0.6-0.1,1.1-0.3,1.7-0.5
		c5.5-1.5,10.7-3.8,15.6-6.7c2-1.2,3.9-2.4,5.7-3.8c0.8-0.5,1.5-1.1,2.2-1.7c0.6-0.5,1.2-0.9,1.7-1.4c5.3-4.4,9.8-9.3,13.4-14.2
		c0.8-1.2,1.6-2.3,2.4-3.5c1.8-2.9,3.2-5.7,4.2-8.4c1-2.9,1.6-5.6,1.6-8c0,0,13.2,0,20.7,0l4.7,0C216.4,72.1,211.8,78.7,211.4,81.8z
		"/>
	<path class="st4" d="M221.2,87.8c-0.4,3.1-21.6,151.3-22.6,155.5c-1,4.2-5.9,9.8-12.1,8.6c-6.1-1.2-36.1-11.2-58.5-11.2
		c-22.5,0-52.4,10-58.5,11.2c-6.1,1.2-11.1-4.4-12.1-8.6c-1-4.2-22.1-152.4-22.6-155.5c-0.5-3.1,4.3-7.5,7.5-7.5l11.2,0
		c6.9,0,14.2,0,14.2,0c0,4.3,1.8,9.5,4.9,15c0.4,0.8,0.9,1.5,1.4,2.3c2.1,3.3,4.8,6.7,7.8,10c1.1,1.2,2.2,2.3,3.4,3.4
		c4.9,4.7,10.7,8.9,17,12.2c2.6,1.4,5.4,2.6,8.2,3.6c5.6,2,11.5,3.2,17.6,3.2c2.6,0,5.1-0.2,7.6-0.6c1.4-0.2,2.7-0.5,4.1-0.8
		c0.6-0.1,1.1-0.3,1.7-0.5c5.5-1.5,10.7-3.8,15.6-6.7c2-1.2,3.9-2.4,5.7-3.8c0.8-0.5,1.5-1.1,2.2-1.7c0.6-0.5,1.2-0.9,1.7-1.4
		c5.3-4.4,9.8-9.3,13.4-14.2c0.8-1.2,1.6-2.3,2.4-3.5c1.8-2.9,3.2-5.7,4.2-8.4c1-2.9,1.6-5.6,1.6-8c0,0,13.2,0,20.7,0l4.7,0
		C216.9,80.3,221.6,84.7,221.2,87.8z"/>
	<path class="st2" d="M220.7,91c-4.5,31.2-21.8,150.5-22.2,152.3c-1,4.2-5.9,9.8-12.1,8.6c-6.1-1.2-36.1-11.2-58.5-11.2
		c0,0,32.6-4.5,54.8-22.7S220.7,91,220.7,91z"/>
	<path class="st9" d="M69.5,251.9c-6.1,1.2-11.1-4.4-12.1-8.6c-1-4.2-22.1-152.4-22.6-155.5c-0.5-3.1,4.3-7.5,7.5-7.5l11.2,0
		c6.9,0,4.2,0,4.2,0s-9.8,15,0,83.7s22.9,85,22.9,85L69.5,251.9z"/>
	<path class="st1" d="M221.2,87.8c-0.4,3.1-21.6,151.3-22.6,155.5c-1,4.2-5.9,9.8-12.1,8.6c-6.1-1.2-36.1-11.2-58.5-11.2
		c-22.5,0-52.4,10-58.5,11.2c-6.1,1.2-11.1-4.4-12.1-8.6c-1-4.2-22.1-152.4-22.6-155.5c-0.5-3.1,4.3-7.5,7.5-7.5l11.2,0
		c6.9,0,14.2,0,14.2,0c0,4.3,1.8,9.5,4.9,15c0.4,0.8,0.9,1.5,1.4,2.3c2.1,3.3,4.8,6.7,7.8,10c1.1,1.2,2.2,2.3,3.4,3.4
		c4.9,4.7,10.7,8.9,17,12.2c2.6,1.4,5.4,2.6,8.2,3.6c5.6,2,11.5,3.2,17.6,3.2c2.6,0,5.1-0.2,7.6-0.6c1.4-0.2,2.7-0.5,4.1-0.8
		c0.6-0.1,1.1-0.3,1.7-0.5c5.5-1.5,10.7-3.8,15.6-6.7c2-1.2,3.9-2.4,5.7-3.8c0.8-0.5,1.5-1.1,2.2-1.7c0.6-0.5,1.2-0.9,1.7-1.4
		c5.3-4.4,9.8-9.3,13.4-14.2c0.8-1.2,1.6-2.3,2.4-3.5c1.8-2.9,3.2-5.7,4.2-8.4c1-2.9,1.6-5.6,1.6-8c0,0,13.2,0,20.7,0l4.7,0
		C216.9,80.3,221.6,84.7,221.2,87.8z"/>
</g>
</svg>
