<?xml version="1.0" encoding="utf-8"?>
<!-- Generator: Adobe Illustrator 21.1.0, SVG Export Plug-In . SVG Version: 6.00 Build 0)  -->
<svg version="1.1" id="Icon_Set" xmlns="http://www.w3.org/2000/svg" xmlns:xlink="http://www.w3.org/1999/xlink" x="0px" y="0px"
	 viewBox="0 0 512 512" style="enable-background:new 0 0 512 512;" xml:space="preserve">
<style type="text/css">
	.st0{fill:#FFFFFF;}
	.st1{fill:#5B7C31;}
	.st2{fill:#E56823;}
	.st3{fill:#FE8E46;}
	.st4{fill:#7DAC51;}
	.st5{fill:#463218;}
	.st6{fill:#FEFE71;}
	.st7{fill:#D6CD1E;}
	.st8{fill:none;stroke:#FFFFFF;stroke-width:14;stroke-miterlimit:10;}
	.st9{fill:none;stroke:#463218;stroke-width:14;stroke-linecap:round;stroke-linejoin:round;stroke-miterlimit:10;}
</style>
<g id="Meatballs">
	<g>
		<g>
			<g>
				<circle class="st7" cx="195.3" cy="270.9" r="39.9"/>
			</g>
		</g>
	</g>
	<g>
		<g>
			<g>
				<circle class="st7" cx="259.3" cy="267.5" r="24"/>
			</g>
		</g>
	</g>
	<g>
		<g>
			<g>
				<circle class="st6" cx="331.4" cy="195.4" r="48.1"/>
			</g>
		</g>
	</g>
	<g>
		<g>
			<g>
				<path class="st7" d="M346.8,212.7c-18.1,0-32.7-14.6-32.7-32.7c0-15.7,11-28.8,25.7-31.9c-2.7-0.5-5.6-0.8-8.4-0.8
					c-26.6,0-48.1,21.5-48.1,48.1s21.5,48.1,48.1,48.1s48.1-21.5,48.1-48.1c0-2.9-0.3-5.7-0.8-8.4
					C375.5,201.7,362.5,212.7,346.8,212.7z"/>
			</g>
		</g>
	</g>
	<g>
		<g>
			<g>
				<path class="st5" d="M195.3,317.8c-25.9,0-46.9-21-46.9-46.9s21-46.9,46.9-46.9s46.9,21,46.9,46.9S221.2,317.8,195.3,317.8z
					 M195.3,238c-18.1,0-32.9,14.8-32.9,32.9s14.8,32.9,32.9,32.9s32.9-14.8,32.9-32.9S213.5,238,195.3,238z"/>
			</g>
		</g>
	</g>
	<g>
		<g>
			<g>
				<path class="st5" d="M331.4,250.5c-30.4,0-55.1-24.7-55.1-55.1s24.7-55.1,55.1-55.1s55.1,24.7,55.1,55.1
					S361.8,250.5,331.4,250.5z M331.4,154.3c-22.7,0-41.1,18.4-41.1,41.1s18.4,41.1,41.1,41.1s41.1-18.4,41.1-41.1
					S354.1,154.3,331.4,154.3z"/>
			</g>
		</g>
	</g>
	<g>
		<g>
			<g>
				<path class="st5" d="M259.3,298.5c-17.1,0-31-13.9-31-31s13.9-31,31-31s31,13.9,31,31S276.4,298.5,259.3,298.5z M259.3,250.5
					c-9.4,0-17,7.6-17,17s7.6,17,17,17s17-7.6,17-17S268.7,250.5,259.3,250.5z"/>
			</g>
		</g>
	</g>
	<g>
		<g>
			<g>
				<g>
					<g>
						<path class="st3" d="M253.3,401.6L253.3,401.6c-66.7,0-120.8-54.1-120.8-120.8v-1.4h241.7v1.4
							C374.2,347.5,320.1,401.6,253.3,401.6z"/>
					</g>
				</g>
			</g>
			<g>
				<g>
					<g>
						<path class="st2" d="M207,280.8v-1.4h-74.5v1.4c0,66.7,54.1,120.8,120.8,120.8l0,0c13,0,25.5-2.1,37.2-5.9
							C242.1,380.1,207,334.5,207,280.8z"/>
					</g>
				</g>
			</g>
			<g>
				<g>
					<g>
						<path class="st5" d="M253.3,408.6c-70.5,0-127.8-57.3-127.8-127.8v-1.4c0-3.9,3.1-7,7-7h241.7c3.9,0,7,3.1,7,7v1.4
							C381.2,351.3,323.8,408.6,253.3,408.6z M139.6,286.4c2.9,60.2,52.8,108.3,113.7,108.3S364.1,346.6,367,286.4H139.6z"/>
					</g>
				</g>
			</g>
			<g>
				<g>
					<g>
						<rect x="203.2" y="390.8" class="st4" width="96.5" height="27.3"/>
					</g>
				</g>
			</g>
			<g>
				<g>
					<g>
						<path class="st5" d="M299.7,425.1h-96.5c-3.9,0-7-3.1-7-7v-27.3c0-3.9,3.1-7,7-7h96.5c3.9,0,7,3.1,7,7v27.3
							C306.7,421.9,303.6,425.1,299.7,425.1z M210.2,411.1h82.5v-13.3h-82.5V411.1z"/>
					</g>
				</g>
			</g>
			<g>
				<g>
					<g>
						<path class="st6" d="M364.1,329.2c3.4-7.8,6-16,7.7-24.5H134.9c1.7,8.5,4.3,16.7,7.7,24.5H364.1z"/>
					</g>
				</g>
			</g>
			<g>
				<g>
					<g>
						<path class="st7" d="M217.1,329.2c-3.4-7.8-6-16-7.7-24.5h-74.5c1.5,7.5,3.7,14.7,6.5,21.6c0,0,0,0,0,0c0.4,1,0.8,2,1.2,2.9
							c0,0,0,0,0,0H217.1z"/>
					</g>
				</g>
			</g>
			<g>
				<g>
					<g>
						<path class="st5" d="M364.1,336.2H142.6c-2.8,0-5.3-1.6-6.4-4.2c-3.6-8.3-6.4-17-8.2-25.9c-0.4-2.1,0.1-4.2,1.5-5.8
							c1.3-1.6,3.3-2.6,5.4-2.6h236.9c2.1,0,4.1,0.9,5.4,2.6c1.3,1.6,1.9,3.8,1.4,5.8c-1.8,8.9-4.5,17.6-8.2,25.9
							C369.4,334.5,366.9,336.2,364.1,336.2z M147.3,322.2h212.2c1.3-3.4,2.5-6.9,3.5-10.5H143.7
							C144.7,315.2,145.9,318.7,147.3,322.2z"/>
					</g>
				</g>
			</g>
			<g>
				<g>
					<g>
						<rect x="264" y="343.7" class="st0" width="31.8" height="14"/>
					</g>
				</g>
			</g>
			<g>
				<g>
					<g>
						<rect x="312" y="343.7" class="st0" width="12.7" height="14"/>
					</g>
				</g>
			</g>
		</g>
	</g>
	<g>
		<g>
			<g>
				<path class="st5" d="M189.1,200c-1.8,0-3.6-0.7-5-2.1c-10.5-10.5-11-27.4-1.3-38.5c0.3-0.6,0.8-1.2,1.3-1.7
					c5.5-5.5,5.5-14.5,0-20c-2.7-2.7-2.7-7.2,0-9.9c2.7-2.7,7.2-2.7,9.9,0c10.5,10.5,11,27.4,1.3,38.5c-0.3,0.6-0.8,1.2-1.3,1.7
					c-5.5,5.5-5.5,14.5,0,20c2.7,2.7,2.7,7.2,0,9.9C192.7,199.3,190.9,200,189.1,200z M189.1,163.1L189.1,163.1L189.1,163.1z"/>
			</g>
		</g>
	</g>
	<g>
		<g>
			<g>
				<path class="st5" d="M253.3,161.2c-1.8,0-3.6-0.7-4.9-2c-5.3-5.3-8.3-12.4-8.3-19.9c0-6.9,2.5-13.4,7-18.6
					c0.3-0.6,0.8-1.2,1.3-1.7c5.5-5.5,5.5-14.5,0-20c-2.7-2.7-2.7-7.2,0-9.9c2.7-2.7,7.2-2.7,9.9,0c10.5,10.5,11,27.4,1.3,38.5
					c-0.3,0.6-0.8,1.2-1.3,1.7c-2.7,2.7-4.1,6.2-4.1,10c0,3.8,1.5,7.3,4.1,10c2.7,2.7,2.7,7.2,0,9.9
					C256.9,160.5,255.1,161.2,253.3,161.2z M253.3,124.2L253.3,124.2L253.3,124.2z"/>
			</g>
		</g>
	</g>
</g>
</svg>
