<?xml version="1.0" encoding="utf-8"?>
<!-- Generator: Adobe Illustrator 21.1.0, SVG Export Plug-In . SVG Version: 6.00 Build 0)  -->
<svg version="1.1" id="Icon_Set" xmlns="http://www.w3.org/2000/svg" xmlns:xlink="http://www.w3.org/1999/xlink" x="0px" y="0px"
	 viewBox="0 0 512 512" style="enable-background:new 0 0 512 512;" xml:space="preserve">
<style type="text/css">
	.st0{fill:#FFFFFF;}
	.st1{fill:#5B7C31;}
	.st2{fill:#E56823;}
	.st3{fill:#FE8E46;}
	.st4{fill:#7DAC51;}
	.st5{fill:#463218;}
	.st6{fill:#FEFE71;}
	.st7{fill:#D6CD1E;}
	.st8{fill:none;stroke:#FFFFFF;stroke-width:14;stroke-miterlimit:10;}
	.st9{fill:none;stroke:#463218;stroke-width:14;stroke-linecap:round;stroke-linejoin:round;stroke-miterlimit:10;}
</style>
<g id="Mediterranean">
	<g>
		<g>
			<g>
				<path class="st5" d="M198.7,294.1c-0.7,0-1.4-0.1-2.1-0.3c-3.7-1.2-5.7-5.1-4.5-8.8c1-3.1,25.2-76.2,89.3-104.9
					c2.2-1,4.7-0.8,6.7,0.5c2,1.3,3.2,3.6,3.1,6c-0.5,31.6,5.9,85.1,25.1,94.2c3.5,1.7,5,5.8,3.3,9.3c-1.6,3.5-5.8,5-9.3,3.3
					c-14.9-7-25-27.6-29.9-61c-2-13.3-2.7-26-3-34.7c-51.3,29-71.8,90.8-72,91.5C204.4,292.2,201.7,294.1,198.7,294.1z"/>
			</g>
		</g>
	</g>
	<g>
		<g>
			<g>
				<g>
					<path class="st4" d="M194.3,155.3c0.9,15.8,31.7,39.1,47.7,44.1c16,5,32.7-0.8,42.4-13.2c-0.9-15.8-11.3-30.1-27.2-35.1
						C241.2,146.1,204,142.8,194.3,155.3z"/>
				</g>
			</g>
		</g>
		<g>
			<g>
				<g>
					<path class="st5" d="M253.5,208.2c-4.6,0-9.2-0.7-13.6-2.1c-17.3-5.4-51.4-30.5-52.5-50.4c-0.1-1.7,0.4-3.4,1.5-4.7
						c5.8-7.3,17.4-11.2,34.5-11.3c12.2-0.1,26.3,1.8,35.9,4.8c18.2,5.7,31.1,22.3,32.1,41.4c0.1,1.7-0.4,3.4-1.5,4.7
						C281,201.8,267.4,208.2,253.5,208.2z M202,157.7c4.1,10.5,25.4,29.8,42.1,35c11.8,3.7,24.7,0.2,33.1-8.8
						c-1.7-12.1-10.3-22.4-22.1-26.1C240.1,153.1,211.6,151.6,202,157.7z"/>
				</g>
			</g>
		</g>
		<g>
			<g>
				<g>
					<path class="st1" d="M335.2,155c-8.8-5.9-33.6,1.2-42.7,7.7c-9.1,6.5-12.7,17.8-10,28c8.8,5.9,20.6,6.1,29.7-0.4
						C321.3,183.7,338,165.2,335.2,155z"/>
				</g>
			</g>
		</g>
		<g>
			<g>
				<g>
					<path class="st5" d="M297,202c-6.4,0-12.9-1.9-18.5-5.6c-1.4-0.9-2.4-2.4-2.9-4c-3.5-13.3,1.6-27.5,12.7-35.5
						c5.4-3.8,14.8-7.6,24.1-9.6c8.2-1.8,19.5-2.9,26.6,1.8c1.4,0.9,2.4,2.4,2.9,4c1.8,6.7-1,15.1-8.2,25
						c-5,6.8-11.9,13.7-17.5,17.8C310.5,200,303.8,202,297,202z M288.7,186.1c6.2,3,13.7,2.4,19.4-1.6c8.6-6.2,18.1-18.1,20.1-24.7
						c-7.7-0.9-24.2,3.2-31.6,8.5C290.9,172.4,287.9,179.3,288.7,186.1z"/>
				</g>
			</g>
		</g>
	</g>
	<g>
		<g>
			<g>
				<circle class="st3" cx="313.3" cy="308.1" r="57.3"/>
			</g>
		</g>
	</g>
	<g>
		<g>
			<g>
				<path class="st2" d="M339.8,257.3c5.6,8.8,8.8,19.3,8.8,30.5c0,31.6-25.7,57.3-57.3,57.3c-9.6,0-18.6-2.4-26.5-6.5
					c10.1,16.1,28.1,26.8,48.5,26.8c31.6,0,57.3-25.7,57.3-57.3C370.6,286,358.1,266.8,339.8,257.3z"/>
			</g>
		</g>
	</g>
	<g>
		<g>
			<g>
				<circle class="st3" cx="198.7" cy="308.1" r="57.3"/>
			</g>
		</g>
	</g>
	<g>
		<g>
			<g>
				<path class="st0" d="M237.2,308.1h-14c0-13.5-11-24.5-24.5-24.5v-14C219.9,269.6,237.2,286.8,237.2,308.1z"/>
			</g>
		</g>
	</g>
	<g>
		<g>
			<g>
				<path class="st2" d="M223.6,339.1c-26.7,0-48.3-21.6-48.3-48.3c0-16.6,8.4-31.3,21.2-40c-30.6,1.1-55.1,26.3-55.1,57.2
					c0,31.6,25.7,57.3,57.3,57.3c23.8,0,44.2-14.5,52.9-35.2C243.7,335.8,234,339.1,223.6,339.1z"/>
			</g>
		</g>
	</g>
	<g>
		<g>
			<g>
				<path class="st5" d="M198.7,372.4c-35.5,0-64.3-28.8-64.3-64.3s28.8-64.3,64.3-64.3c35.5,0,64.3,28.8,64.3,64.3
					S234.2,372.4,198.7,372.4z M198.7,257.8c-27.7,0-50.3,22.6-50.3,50.3s22.6,50.3,50.3,50.3c27.7,0,50.3-22.6,50.3-50.3
					S226.4,257.8,198.7,257.8z"/>
			</g>
		</g>
	</g>
	<g>
		<g>
			<g>
				<circle class="st5" cx="175.4" cy="326.2" r="9.1"/>
			</g>
		</g>
	</g>
	<g>
		<g>
			<g>
				<circle class="st5" cx="313.3" cy="326.2" r="9.1"/>
			</g>
		</g>
	</g>
	<g>
		<g>
			<g>
				<path class="st5" d="M313.3,372.4c-35.5,0-64.3-28.8-64.3-64.3s28.8-64.3,64.3-64.3c35.5,0,64.3,28.8,64.3,64.3
					S348.8,372.4,313.3,372.4z M313.3,257.8c-27.7,0-50.3,22.6-50.3,50.3s22.6,50.3,50.3,50.3c27.7,0,50.3-22.6,50.3-50.3
					S341,257.8,313.3,257.8z"/>
			</g>
		</g>
	</g>
</g>
</svg>
