<?xml version="1.0" encoding="utf-8"?>
<!-- Generator: Adobe Illustrator 21.1.0, SVG Export Plug-In . SVG Version: 6.00 Build 0)  -->
<svg version="1.1" id="Icon_Set" xmlns="http://www.w3.org/2000/svg" xmlns:xlink="http://www.w3.org/1999/xlink" x="0px" y="0px"
	 viewBox="0 0 512 512" style="enable-background:new 0 0 512 512;" xml:space="preserve">
<style type="text/css">
	.st0{fill:#FFFFFF;}
	.st1{fill:#5B7C31;}
	.st2{fill:#E56823;}
	.st3{fill:#FE8E46;}
	.st4{fill:#7DAC51;}
	.st5{fill:#463218;}
	.st6{fill:#FEFE71;}
	.st7{fill:#D6CD1E;}
	.st8{fill:none;stroke:#FFFFFF;stroke-width:14;stroke-miterlimit:10;}
	.st9{fill:none;stroke:#463218;stroke-width:14;stroke-linecap:round;stroke-linejoin:round;stroke-miterlimit:10;}
</style>
<g id="Milk">
	<g>
		<g>
			<g>
				
					<rect x="265.2" y="211.9" transform="matrix(-1 -1.224647e-16 1.224647e-16 -1 615.3807 610.0057)" class="st3" width="85" height="186.3"/>
			</g>
		</g>
	</g>
	<g>
		<g>
			<g>
				<rect x="196.7" y="113.8" class="st4" width="119.6" height="29.4"/>
			</g>
		</g>
	</g>
	<g>
		<g>
			<g>
				<rect x="307.4" y="263.1" class="st4" width="42.7" height="96.8"/>
			</g>
		</g>
	</g>
	<g>
		<g>
			<g>
				<rect x="161.8" y="211.9" class="st2" width="103.4" height="186.3"/>
			</g>
		</g>
	</g>
	<g>
		<g>
			<g>
				<path class="st7" d="M191.5,309.1c-17.5-8.3-29.7-20.1-29.4-27.9l-0.3,1.1v83l9.5,4.5c8.8,4.1,19.3,1.5,25.1-6.2l35.2-49.6
					C225.9,319.3,209,317.4,191.5,309.1z"/>
			</g>
		</g>
	</g>
	<g>
		<g>
			<g>
				<polygon class="st7" points="196.1,143.3 161.8,211.9 264.7,211.9 299,143.3 				"/>
			</g>
		</g>
	</g>
	<g>
		<g>
			<g>
				<polygon class="st6" points="315.9,143.3 299,143.3 264.7,211.9 350.2,211.9 				"/>
			</g>
		</g>
	</g>
	<g>
		<g>
			<g>
				<path class="st5" d="M264.7,218.8H161.8c-2.4,0-4.7-1.3-6-3.3c-1.3-2.1-1.4-4.6-0.3-6.8l34.3-68.6c1.2-2.4,3.6-3.9,6.3-3.9H299
					c2.4,0,4.7,1.3,6,3.3c1.3,2.1,1.4,4.6,0.3,6.8L270.9,215C269.8,217.4,267.3,218.8,264.7,218.8z M173.2,204.8h87.2l27.3-54.6
					h-87.2L173.2,204.8z"/>
			</g>
		</g>
	</g>
	<g>
		<g>
			<g>
				<path class="st5" d="M265.2,405.2H161.8c-3.9,0-7-3.1-7-7V211.8c0-3.9,3.1-7,7-7h103.4c3.9,0,7,3.1,7,7v186.3
					C272.2,402,269.1,405.2,265.2,405.2z M168.8,391.2h89.4V218.8h-89.4V391.2z"/>
			</g>
		</g>
	</g>
	<g>
		<g>
			<g>
				<path class="st5" d="M350.2,405.2h-85c-3.9,0-7-3.1-7-7V211.8c0-3.9,3.1-7,7-7h85c3.9,0,7,3.1,7,7v186.3
					C357.2,402,354,405.2,350.2,405.2z M272.2,391.2h71V218.8h-71V391.2z"/>
			</g>
		</g>
	</g>
	<g>
		<g>
			<g>
				<path class="st5" d="M350.2,218.8h-85.5c-2.4,0-4.7-1.3-6-3.3c-1.3-2.1-1.4-4.6-0.3-6.8l34.3-68.6c1.2-2.4,3.6-3.9,6.3-3.9h16.9
					c2.7,0,5.1,1.5,6.3,3.9l34.3,68.6c1.1,2.2,1,4.7-0.3,6.8C354.8,217.6,352.6,218.8,350.2,218.8z M276,204.8h62.8l-27.3-54.6h-8.3
					L276,204.8z"/>
			</g>
		</g>
	</g>
	<g>
		<g>
			<g>
				<path class="st5" d="M316.3,150.3H196.7c-3.9,0-7-3.1-7-7v-29.4c0-3.9,3.1-7,7-7h119.6c3.9,0,7,3.1,7,7v29.4
					C323.3,147.1,320.1,150.3,316.3,150.3z M203.7,136.3h105.6v-15.4H203.7V136.3z"/>
			</g>
		</g>
	</g>
	<g>
		<g>
			<g>
				
					<ellipse transform="matrix(0.4261 -0.9047 0.9047 0.4261 -153.7272 348.6178)" class="st6" cx="197.9" cy="295.5" rx="15.1" ry="39"/>
			</g>
		</g>
	</g>
	<g>
		<g>
			<g>
				<path class="st5" d="M221,324c-1,0-2.1,0-3.2-0.1c-8.7-0.6-19.1-3.6-29.3-8.4c-10.2-4.8-19.1-10.9-25.1-17.2
					c-10.2-10.7-8.8-18.6-7-22.3c1.8-3.7,6.9-9.8,21.7-8.8c8.7,0.6,19.1,3.6,29.3,8.4l0,0c10.2,4.8,19.1,10.9,25.1,17.2
					c10.2,10.7,8.8,18.6,7,22.3C237.9,318.5,233.4,324,221,324z M169.1,281.9c0.4,3,7.8,12.6,25.4,20.9c17.6,8.3,29.7,7.9,32.3,6.3
					c-0.4-3-7.8-12.6-25.4-20.9l0,0C183.8,279.9,171.6,280.3,169.1,281.9z"/>
			</g>
		</g>
	</g>
	<g>
		<g>
			<g>
				<path class="st5" d="M180,378.8c-3.9,0-7.9-0.8-11.6-2.6l-9.5-4.5c-2.5-1.2-4-3.6-4-6.3v-83c0-0.6,0.1-1.2,0.2-1.8l0.3-1.1
					c0.9-3.5,4.3-5.6,7.8-5.1c3.5,0.6,6.1,3.7,5.9,7.2c-0.1,2.6,7.2,12.7,25.4,21.2c18.1,8.5,30.6,7.8,32.5,6.1
					c2.6-2.4,6.7-2.4,9.4-0.1c2.7,2.4,3.1,6.4,1.1,9.3l-35.2,49.6c0,0.1-0.1,0.1-0.1,0.2C196.7,374.9,188.5,378.8,180,378.8z
					 M168.8,360.9l5.5,2.6c5.7,2.7,12.6,1,16.5-4l25.4-35.8c-7.5-0.7-16.7-3.1-27.7-8.3c-8.3-3.9-14.7-8-19.7-12.1V360.9z"/>
			</g>
		</g>
	</g>
	<g>
		<g>
			<g>
				<path class="st5" d="M350.2,366.9h-42.7c-3.9,0-7-3.1-7-7V263c0-3.9,3.1-7,7-7h42.7c3.9,0,7,3.1,7,7v96.8
					C357.2,363.7,354,366.9,350.2,366.9z M314.4,352.9h28.7V270h-28.7V352.9z"/>
			</g>
		</g>
	</g>
	<g>
		<g>
			<g>
				<rect x="182" y="231.4" class="st0" width="48.4" height="14"/>
			</g>
		</g>
	</g>
</g>
</svg>
