<?xml version="1.0" encoding="utf-8"?>
<!-- Generator: Adobe Illustrator 21.1.0, SVG Export Plug-In . SVG Version: 6.00 Build 0)  -->
<svg version="1.1" id="Icon_Set" xmlns="http://www.w3.org/2000/svg" xmlns:xlink="http://www.w3.org/1999/xlink" x="0px" y="0px"
	 viewBox="0 0 512 512" style="enable-background:new 0 0 512 512;" xml:space="preserve">
<style type="text/css">
	.st0{fill:#FFFFFF;}
	.st1{fill:#5B7C31;}
	.st2{fill:#E56823;}
	.st3{fill:#FE8E46;}
	.st4{fill:#7DAC51;}
	.st5{fill:#463218;}
	.st6{fill:#FEFE71;}
	.st7{fill:#D6CD1E;}
	.st8{fill:none;stroke:#FFFFFF;stroke-width:14;stroke-miterlimit:10;}
	.st9{fill:none;stroke:#463218;stroke-width:14;stroke-linecap:round;stroke-linejoin:round;stroke-miterlimit:10;}
</style>
<g id="Mineral_Water">
	<g>
		<g>
			<g>
				<path class="st4" d="M267.8,132.3h-23.6c-9,0-16.3-7.3-16.3-16.3V99.9h56.1v16.2C284.1,125.1,276.8,132.3,267.8,132.3z"/>
			</g>
		</g>
	</g>
	<g>
		<g>
			<g>
				<path class="st1" d="M253.6,116.1V99.9h-25.7v16.2c0,9,7.3,16.3,16.3,16.3h23.6c0.4,0,0.7,0,1-0.1
					C260.4,131.8,253.6,124.7,253.6,116.1z"/>
			</g>
		</g>
	</g>
	<g>
		<g>
			<g>
				<rect x="204.9" y="199.2" class="st3" width="102.2" height="67.5"/>
			</g>
		</g>
	</g>
	<g>
		<g>
			<g>
				<rect x="204.9" y="199.2" class="st2" width="29.3" height="67.5"/>
			</g>
		</g>
	</g>
	<g>
		<g>
			<g>
				<path class="st6" d="M204.9,266.7l7.1,47.1c2.2,14.5,1.4,43.4-2.2,57.6l0,0c-3.2,12.4-1.9,25.5,3.7,37l0,0
					c1.1,2.3,3.4,3.7,6,3.7H256h36.5c2.5,0,4.8-1.4,6-3.7l0,0c5.6-11.5,6.9-24.6,3.7-37v0c-3.6-14.2-4.4-43.1-2.2-57.6l7.1-47.1
					H204.9z"/>
			</g>
		</g>
	</g>
	<g>
		<g>
			<g>
				<path class="st7" d="M241.6,408.4c-5.6-11.5-6.9-24.6-3.7-37c3.6-14.2,4.4-43.1,2.2-57.6l-7.1-47.1h-28.1l7.1,47.1
					c2.2,14.5,1.4,43.4-2.2,57.6c-3.2,12.4-1.9,25.5,3.7,37c1.1,2.3,3.4,3.7,6,3.7h28.1C245,412.1,242.7,410.7,241.6,408.4z"/>
			</g>
		</g>
	</g>
	<g>
		<g>
			<g>
				<path class="st6" d="M307,199.2c0.1-1.3,0.2-2.6,0.2-3.8c0-21-12.6-39-30.6-46.9v-19.6h-41.2v19.6c-18,7.9-30.6,25.9-30.6,46.9
					c0,1.3,0.1,2.6,0.2,3.8H307z"/>
			</g>
		</g>
	</g>
	<g>
		<g>
			<g>
				<path class="st7" d="M263.5,148.5v-19.6h-28.1v19.6c-18,7.9-30.6,25.9-30.6,46.9c0,1.3,0.1,2.6,0.2,3.8H233
					c-0.1-1.3-0.2-2.6-0.2-3.8C232.9,174.4,245.5,156.4,263.5,148.5z"/>
			</g>
		</g>
	</g>
	<g>
		<g>
			<g>
				<path class="st5" d="M307,206.2H205c-3.7,0-6.7-2.8-7-6.5c-0.1-1.6-0.2-3-0.2-4.4c0-21.5,11.9-41.2,30.6-51.2v-15.2
					c0-3.9,3.1-7,7-7h41.2c3.9,0,7,3.1,7,7v15.2c18.7,10.1,30.6,29.7,30.6,51.2c0,1.3-0.1,2.7-0.2,4.4
					C313.7,203.4,310.7,206.2,307,206.2z M211.9,192.2h88.2c-1.2-16.3-11.2-30.7-26.3-37.3c-2.5-1.1-4.2-3.6-4.2-6.4v-12.6h-27.2
					v12.6c0,2.8-1.6,5.3-4.2,6.4C223.1,161.5,213.1,176,211.9,192.2z"/>
			</g>
		</g>
	</g>
	<g>
		<g>
			<g>
				<path class="st5" d="M307.1,273.7H204.9c-3.9,0-7-3.1-7-7v-67.5c0-3.9,3.1-7,7-7h102.2c3.9,0,7,3.1,7,7v67.5
					C314.1,270.5,311,273.7,307.1,273.7z M211.9,259.7h88.2v-53.5h-88.2V259.7z"/>
			</g>
		</g>
	</g>
	<g>
		<g>
			<g>
				<path class="st5" d="M267.8,139.3h-23.6c-12.8,0-23.3-10.4-23.3-23.3V99.9c0-3.9,3.1-7,7-7h56.1c3.9,0,7,3.1,7,7v16.2
					C291.1,128.9,280.6,139.3,267.8,139.3z M234.9,106.9v9.2c0,5.1,4.2,9.3,9.3,9.3h23.6c5.1,0,9.3-4.2,9.3-9.3v-9.2H234.9z"/>
			</g>
		</g>
	</g>
	<g>
		<g>
			<g>
				<path class="st5" d="M292.5,419.1h-73c-5.2,0-10-3-12.3-7.7c-6.3-13-7.8-27.9-4.2-41.8c3.5-13.7,4.1-41.5,2.1-54.8l-7.1-47.1
					c-0.3-2,0.3-4.1,1.6-5.6c1.3-1.5,3.3-2.4,5.3-2.4h102.2c2,0,4,0.9,5.3,2.4c1.3,1.5,1.9,3.6,1.6,5.6l-7.1,47.1
					c-2,13.2-1.5,41.1,2.1,54.8c3.6,14,2.1,28.8-4.2,41.8C302.5,416.1,297.7,419.1,292.5,419.1z M219.7,405.1h72.6
					c4.8-10,5.9-21.3,3.1-32c-4-15.6-4.6-45.7-2.3-60.4l5.9-39h-86l5.9,39c2.2,14.6,1.7,44.8-2.3,60.4
					C213.8,383.8,215,395.2,219.7,405.1z"/>
			</g>
		</g>
	</g>
	<g>
		<g>
			<g>
				<rect x="256" y="216.5" class="st0" width="32.5" height="14"/>
			</g>
		</g>
	</g>
</g>
</svg>
