<?xml version="1.0" encoding="utf-8"?>
<!-- Generator: Adobe Illustrator 21.1.0, SVG Export Plug-In . SVG Version: 6.00 Build 0)  -->
<svg version="1.1" id="Icon_Set" xmlns="http://www.w3.org/2000/svg" xmlns:xlink="http://www.w3.org/1999/xlink" x="0px" y="0px"
	 viewBox="0 0 512 512" style="enable-background:new 0 0 512 512;" xml:space="preserve">
<style type="text/css">
	.st0{fill:#FFFFFF;}
	.st1{fill:#5B7C31;}
	.st2{fill:#E56823;}
	.st3{fill:#FE8E46;}
	.st4{fill:#7DAC51;}
	.st5{fill:#463218;}
	.st6{fill:#FEFE71;}
	.st7{fill:#D6CD1E;}
	.st8{fill:none;stroke:#FFFFFF;stroke-width:14;stroke-miterlimit:10;}
	.st9{fill:none;stroke:#463218;stroke-width:14;stroke-linecap:round;stroke-linejoin:round;stroke-miterlimit:10;}
</style>
<g id="Mojito">
	<g>
		<g>
			<g>
				<rect x="210.4" y="118.4" class="st6" width="24.6" height="97"/>
			</g>
		</g>
	</g>
	<g>
		<g>
			<g>
				<path class="st5" d="M235,222.5h-24.6c-3.9,0-7-3.1-7-7v-97c0-3.9,3.1-7,7-7H235c3.9,0,7,3.1,7,7v97
					C242,219.3,238.8,222.5,235,222.5z M217.4,208.5H228v-83h-10.6V208.5z"/>
			</g>
		</g>
	</g>
	<g>
		<g>
			<g>
				<path class="st4" d="M167.4,208.7c11.7,9.2,26.7,11.5,40,7.4c0.8-13.8-4.9-27.9-16.7-37.1c-11.7-9.2-26.7-11.5-40-7.4
					C149.9,185.5,155.6,199.5,167.4,208.7z"/>
			</g>
		</g>
	</g>
	<g>
		<g>
			<g>
				<path class="st3" d="M318.3,375l-6.4-24.9c-6.2-24.1-7.3-74.4-3-98.9l6.3-36.4H208l6.3,36.4c4.2,24.5,3.2,74.8-3,98.9l-6.4,24.9
					c-2.4,9.4,4.7,18.5,14.4,18.5H304C313.7,393.6,320.7,384.4,318.3,375z"/>
			</g>
		</g>
	</g>
	<g>
		<g>
			<g>
				<path class="st2" d="M247.1,375l6.4-24.9c6.2-24.1,7.3-74.4,3-98.9l-6.3-36.4H208l6.3,36.4c4.2,24.5,3.2,74.8-3,98.9l-6.4,24.9
					c-2.4,9.4,4.7,18.5,14.4,18.5h42.2C251.7,393.6,244.6,384.4,247.1,375z"/>
			</g>
		</g>
	</g>
	<g>
		<g>
			<g>
				<path class="st6" d="M211.3,350.1l-6.4,24.9c-2.4,9.4,4.7,18.5,14.4,18.5H304c9.7,0,16.8-9.2,14.4-18.5l-6.4-24.9
					c-2.7-10.3-4.4-25.5-5.1-41.3h-90.3C215.6,324.6,213.9,339.8,211.3,350.1z"/>
			</g>
		</g>
	</g>
	<g>
		<g>
			<g>
				<path class="st5" d="M304,400.6h-84.8c-6.8,0-13.1-3.1-17.3-8.5s-5.6-12.2-3.9-18.8l6.4-24.9c2.4-9.2,4.1-23.4,4.9-39.9
					c0.2-3.7,3.3-6.7,7-6.7h90.3c3.7,0,6.8,2.9,7,6.7c0.8,16.5,2.5,30.7,4.9,39.9l6.4,24.9c1.7,6.6,0.3,13.4-3.9,18.8
					S310.8,400.6,304,400.6z M223,315.8c-1,14.6-2.7,27.3-5,36.1l0,0l-6.4,24.9c-0.6,2.4-0.1,4.8,1.4,6.8c1.5,1.9,3.7,3,6.2,3H304
					c2.4,0,4.7-1.1,6.2-3c1.5-1.9,2-4.4,1.4-6.8l-6.4-24.9c-2.3-8.8-4-21.5-5-36.1H223z M211.3,350.1L211.3,350.1L211.3,350.1z"/>
			</g>
		</g>
	</g>
	<g>
		<g>
			<g>
				<path class="st7" d="M211.3,350.1l-6.4,24.9c-2.4,9.4,4.7,18.5,14.4,18.5H304c9.7,0,16.8-9.2,14.4-18.5l-6.4-24.9
					c-0.8-3.3-1.6-7-2.2-11.1h-96.1C212.9,343.1,212.1,346.8,211.3,350.1z"/>
			</g>
		</g>
	</g>
	<g>
		<g>
			<g>
				
					<ellipse transform="matrix(0.9884 -0.1516 0.1516 0.9884 -28.9271 50.2589)" class="st6" cx="315.1" cy="214.8" rx="46.2" ry="46.2"/>
			</g>
		</g>
	</g>
	<g>
		<g>
			<g>
				<path class="st1" d="M307.6,260.5c0.3-3.4,0.8-6.5,1.2-9.2l6.3-36.4h-46.2C268.9,237.8,285.7,256.9,307.6,260.5z"/>
			</g>
		</g>
	</g>
	<g>
		<g>
			<g>
				<path class="st5" d="M304,400.6h-84.8c-6.8,0-13.1-3.1-17.3-8.5s-5.6-12.2-3.9-18.8l6.4-24.9c5.7-21.9,7.2-71.3,2.9-95.9
					l-6.3-36.4c-0.4-2,0.2-4.1,1.5-5.7c1.3-1.6,3.3-2.5,5.4-2.5h107.1c2.1,0,4,0.9,5.4,2.5c1.3,1.6,1.9,3.7,1.5,5.7l-6.3,36.4
					c-4.3,24.7-2.8,74,2.9,95.9l6.4,24.9c1.7,6.6,0.3,13.4-3.9,18.8S310.8,400.6,304,400.6z M216.3,221.8l4.9,28.2
					c4.2,24.2,3.5,75.9-3.1,101.8l-6.4,24.9c-0.6,2.4-0.1,4.8,1.4,6.8c1.5,1.9,3.7,3,6.2,3H304c2.4,0,4.7-1.1,6.2-3
					c1.5-1.9,2-4.4,1.4-6.8l0,0l-6.4-24.9c-6.7-25.9-7.3-77.6-3.1-101.8l4.9-28.2H216.3z"/>
			</g>
		</g>
	</g>
	<g>
		<g>
			<g>
				<path class="st5" d="M315.1,268.1c-29.4,0-53.2-23.9-53.2-53.2s23.9-53.2,53.2-53.2s53.2,23.9,53.2,53.2
					S344.5,268.1,315.1,268.1z M315.1,175.6c-21.6,0-39.2,17.6-39.2,39.2s17.6,39.2,39.2,39.2s39.2-17.6,39.2-39.2
					S336.8,175.6,315.1,175.6z"/>
			</g>
		</g>
	</g>
	<g>
		<g>
			<g>
				<path class="st4" d="M222.7,273.4c-2.1,0-4.2,0.2-6.2,0.5c1.2,25.3-0.5,57.5-5.1,75.6c3.6,1.1,7.3,1.7,11.3,1.7
					c21.5,0,38.9-17.4,38.9-38.9C261.6,290.8,244.2,273.4,222.7,273.4z"/>
			</g>
		</g>
	</g>
	<g>
		<g>
			<g>
				<path class="st5" d="M222.7,358.2c-4.5,0-9-0.7-13.3-2c-3.6-1.1-5.7-4.8-4.8-8.4c4.1-16.1,6.1-47.1,4.9-73.6
					c-0.2-3.6,2.4-6.7,5.9-7.2c2.4-0.4,4.9-0.6,7.3-0.6c25.3,0,45.9,20.6,45.9,45.9C268.6,337.6,248,358.2,222.7,358.2z M219.7,344
					c1,0.1,1.9,0.1,2.9,0.1c17.6,0,31.9-14.3,31.9-31.9c0-17.2-13.7-31.3-30.8-31.9C224.2,300.2,223.2,325.6,219.7,344z"/>
			</g>
		</g>
	</g>
	<g>
		<g>
			<g>
				<path class="st5" d="M194.5,225.1c-11.3,0-22.4-3.7-31.4-10.9l0,0c-13.1-10.3-20.3-26.3-19.3-43c0.2-2.9,2.1-5.4,4.9-6.3
					c15.9-4.9,33.3-1.7,46.3,8.6c13.1,10.3,20.3,26.3,19.3,43c-0.2,2.9-2.1,5.4-4.9,6.3C204.5,224.4,199.5,225.1,194.5,225.1z
					 M171.7,203.2c8.1,6.4,18.5,9,28.6,7.4c-0.8-10.2-5.8-19.6-14-26c-8.1-6.4-18.5-9-28.6-7.4C158.6,187.4,163.6,196.8,171.7,203.2
					L171.7,203.2z"/>
			</g>
		</g>
	</g>
	<g>
		<g>
			<g>
				
					<rect x="230.6" y="230.8" transform="matrix(0.994 -0.1095 0.1095 0.994 -24.9777 27.4729)" class="st0" width="14" height="20.6"/>
			</g>
		</g>
	</g>
</g>
</svg>
