<?xml version="1.0" encoding="utf-8"?>
<!-- Generator: Adobe Illustrator 22.1.0, SVG Export Plug-In . SVG Version: 6.00 Build 0)  -->
<svg version="1.1" id="Layer_1" xmlns="http://www.w3.org/2000/svg" xmlns:xlink="http://www.w3.org/1999/xlink" x="0px" y="0px"
	 viewBox="0 0 256 256" style="enable-background:new 0 0 256 256;" xml:space="preserve">
<style type="text/css">
	.st0{fill:#F5B31F;}
	.st1{fill:none;stroke:#464646;stroke-width:8;stroke-linecap:round;stroke-linejoin:round;stroke-miterlimit:10;}
	.st2{opacity:0.15;fill:#464646;}
	.st3{fill:#AC6535;}
	.st4{fill:#EB573B;}
	.st5{fill:#90C056;}
	.st6{opacity:0.35;fill:#FFFFFF;}
	.st7{opacity:0.2;fill:#FFFFFF;}
	.st8{fill:#F6D67A;}
	.st9{opacity:0.15;fill:#FFFFFF;}
	.st10{opacity:0.3;fill:#FFFFFF;}
	.st11{fill:#AC6535;stroke:#464646;stroke-width:8;stroke-linecap:round;stroke-linejoin:round;stroke-miterlimit:10;}
	.st12{fill:#EB573B;stroke:#464646;stroke-width:8;stroke-miterlimit:10;}
	.st13{opacity:0.15;}
	.st14{fill:#464646;}
	.st15{fill:#FFA755;}
	.st16{fill:#8FAE3C;}
	.st17{fill:#BE6BB2;}
	.st18{fill:#B7C536;}
	.st19{opacity:0.1;}
	.st20{fill:#9D5A96;}
	.st21{fill:#EA615D;}
	.st22{opacity:0.4;fill:#FFFFFF;}
	.st23{opacity:7.000000e-02;}
	.st24{fill:#F79932;}
	.st25{fill:#FFEC97;}
	.st26{fill:#FFD11D;}
	.st27{opacity:0.2;}
	.st28{fill:#FFFFFF;}
	.st29{fill:#F7F2D5;}
	.st30{fill:#F6AF72;}
	.st31{fill:#BA6C45;}
	.st32{opacity:0.5;fill:#FFFFFF;}
	.st33{fill:#E4C074;}
	.st34{fill:none;stroke:#656566;stroke-width:8;stroke-linecap:round;stroke-linejoin:round;stroke-miterlimit:10;}
	.st35{fill:#FFA755;stroke:#464646;stroke-width:8;stroke-linecap:round;stroke-linejoin:round;stroke-miterlimit:10;}
	.st36{fill:#FFD11D;stroke:#464646;stroke-width:8;stroke-linecap:round;stroke-linejoin:round;stroke-miterlimit:10;}
	.st37{fill:#FACD1F;}
	.st38{fill:#FFDF66;}
	.st39{fill:#FFEC97;stroke:#464646;stroke-width:8;stroke-linecap:round;stroke-linejoin:round;stroke-miterlimit:10;}
	.st40{fill:#FFDF66;stroke:#464646;stroke-width:8;stroke-linecap:round;stroke-linejoin:round;stroke-miterlimit:10;}
	.st41{opacity:0.2;fill:#464646;}
	.st42{fill:#FFFFFF;stroke:#464646;stroke-width:8;stroke-linecap:round;stroke-linejoin:round;stroke-miterlimit:10;}
	.st43{fill:#6D6E71;stroke:#464646;stroke-width:8;stroke-linecap:round;stroke-linejoin:round;stroke-miterlimit:10;}
	.st44{opacity:0.1;fill:#464646;}
	.st45{fill:#E77CAE;}
	.st46{fill:#FFE5C4;}
	.st47{fill:#F68455;stroke:#464646;stroke-width:8;stroke-linecap:round;stroke-linejoin:round;stroke-miterlimit:10;}
	.st48{opacity:0.7;}
	.st49{fill:#ADEDFF;}
	.st50{fill:#EC754B;}
	.st51{fill:#4AA5BA;}
	.st52{opacity:0.5;}
	.st53{opacity:0.8;}
	.st54{fill:#F68455;}
	.st55{fill:#92A5AC;}
	.st56{fill:#6D6E71;}
	.st57{fill:#D06E3C;}
	.st58{fill:#DA4F4B;}
	.st59{fill:#BDF3FF;}
	.st60{fill:#F18BB4;}
	.st61{fill:#F9D97A;}
	.st62{fill:none;}
	.st63{fill:#AF6535;}
	.st64{fill:#B93226;}
	.st65{fill:#FF6050;}
	.st66{fill:#D06E3C;stroke:#464646;stroke-miterlimit:10;}
	.st67{fill:#EA7CB1;}
	.st68{fill:none;stroke:#6D6E71;stroke-width:10;stroke-linecap:round;stroke-linejoin:round;stroke-miterlimit:10;}
	.st69{fill:#00B0E0;}
	.st70{fill:#EA7DAE;}
	.st71{opacity:0.1;fill:#FFFFFF;}
	.st72{fill:#BC7532;}
	.st73{fill:#876C6C;}
	.st74{fill:#F9F6CD;}
	.st75{fill:#FFE37B;}
	.st76{fill:#1DDCFF;}
	.st77{fill:#60ACF7;}
	.st78{fill:#C3755A;}
	.st79{fill:#96557A;}
	.st80{fill:#66625D;}
	.st81{fill:#D68032;}
	.st82{opacity:0.8;fill:#FFFFFF;}
	.st83{fill:#F2A355;}
	.st84{fill:#7E9E6A;}
	.st85{opacity:0.3;}
	.st86{fill:#965A85;}
	.st87{opacity:0.7;fill:#FFFFFF;}
	.st88{fill:#90CAD3;}
	.st89{fill:#94B57F;}
	.st90{fill:#B2E2E7;}
	.st91{fill:#FFDF8F;}
	.st92{fill:#FFFAEB;}
	.st93{fill:#F88916;}
	.st94{fill:#FFC86E;}
	.st95{fill:#AFA51D;}
	.st96{fill:#968A1C;}
	.st97{fill:#C3556D;}
</style>
<g>
	<polygon class="st0" points="114.8,251.9 88.4,251.9 80.8,166.7 113.3,166.7 113.6,179.2 	"/>
	<polygon class="st0" points="88.4,251.9 61.3,251.9 46.9,166.7 80.8,166.7 	"/>
	<polygon class="st0" points="144.3,166.7 144.1,178.8 142.9,251.9 114.8,251.9 113.6,179.2 113.3,166.7 	"/>
	<polygon class="st0" points="175.1,166.7 170.3,251.9 142.9,251.9 144.1,178.8 144.3,166.7 	"/>
	<polygon class="st0" points="208.9,166.7 195.3,251.9 170.3,251.9 175.1,166.7 	"/>
	<path class="st44" d="M208.9,166.7l-13.7,85.2l-129.9,0l-2.7-10.6c0,0,94.7,1.1,112.4-10.2c14.6-9.3,24.1-64.4,24.1-64.4
		L208.9,166.7z"/>
	<path class="st45" d="M208.9,166.7l-162,0c-35.6-11.7-40.9-62.2,11.9-84c0-30.8,21.9-49.3,48.2-55.5C108.2,37.7,117.1,46,128,46
		c10.7,0,19.6-8,20.8-18.4c25.7,6.5,46.8,24.8,46.8,55.1C249.9,104.4,245.3,155.1,208.9,166.7z"/>
	<path class="st10" d="M107.1,27.2c-26.3,6.1-48.2,24.6-48.2,55.5C6.1,104.5,11.4,155,47,166.7c0,0-14.5-18.7-11.6-41.8
		s32.3-38.4,32.3-38.4s-1.7-15,7.6-30.7S107.8,25.9,107.1,27.2z"/>
	<path class="st41" d="M195.6,82.7c54.3,21.7,49.6,72.5,13.3,84l-162,0c0,0,151.6,6.6,164.7-28.9C224.8,102.2,195.6,82.7,195.6,82.7
		z"/>
	<polygon class="st41" points="47,166.7 50.3,179.6 205.2,179.6 208.9,166.7 	"/>
	<path class="st1" d="M208.9,166.7l-162,0c-35.6-11.7-40.9-62.2,11.9-84c0-30.8,21.9-49.3,48.2-55.5C108.2,37.7,117.1,46,128,46
		c10.7,0,19.6-8,20.8-18.4c25.7,6.5,46.8,24.8,46.8,55.1C249.9,104.4,245.3,155.1,208.9,166.7z"/>
	<polygon class="st1" points="114.8,251.9 88.4,251.9 80.8,166.7 113.3,166.7 113.6,179.2 	"/>
	<polygon class="st1" points="88.4,251.9 61.3,251.9 46.9,166.7 80.8,166.7 	"/>
	<polygon class="st1" points="144.3,166.7 144.1,178.8 142.9,251.9 114.8,251.9 113.6,179.2 113.3,166.7 	"/>
	<polygon class="st1" points="175.1,166.7 170.3,251.9 142.9,251.9 144.1,178.8 144.3,166.7 	"/>
	<polygon class="st1" points="208.9,166.7 195.3,251.9 170.3,251.9 175.1,166.7 	"/>
	<line class="st42" x1="50.3" y1="121" x2="68.8" y2="137.8"/>
	<line class="st42" x1="108" y1="67.2" x2="92.7" y2="88.9"/>
	<line class="st42" x1="155.7" y1="84.3" x2="176.7" y2="95.3"/>
	<line class="st42" x1="138.6" y1="121" x2="119.4" y2="137.8"/>
	<line class="st42" x1="200.6" y1="126.7" x2="184.6" y2="139.6"/>
	<path class="st4" d="M149,24.9c0,0.9-0.1,1.8-0.2,2.6C147.5,37.9,138.7,46,128,46c-10.8,0-19.7-8.2-20.9-18.7
		c-0.1-0.7-0.1-1.5-0.1-2.3c0-11.6,9.4-21,21-21C139.6,3.9,149,13.3,149,24.9z"/>
	<path class="st41" d="M142.8,10c3.8,3.8,6.2,9.1,6.2,14.9c0,0.9-0.1,1.8-0.2,2.6C147.5,37.9,138.7,46,128,46
		c-5.2,0-10-1.9-13.7-5.1c0,0,14-2.1,21.2-9.3C142.6,24.5,142.8,10,142.8,10z"/>
	<path class="st1" d="M149,24.9c0,0.9-0.1,1.8-0.2,2.6C147.5,37.9,138.7,46,128,46c-10.8,0-19.7-8.2-20.9-18.7
		c-0.1-0.7-0.1-1.5-0.1-2.3c0-11.6,9.4-21,21-21C139.6,3.9,149,13.3,149,24.9z"/>
	<path class="st41" d="M51.2,117.2c0,0,21,10.8,23.8,16.8c2.8,6-1.1,7.5-3.9,7.9c-2.8,0.4-4.7-0.7-4.7-0.7L51.2,117.2z"/>
	<path class="st41" d="M116.9,141.4c0.4,0,7.2,4.8,10.5,2.9c3.3-1.9,18.9-16.7,18.9-19.4c0-2.7-4.6-6.8-4.6-6.8"/>
	<path class="st41" d="M91.4,92.5c0,0,6.3,3.9,11.2-0.7s15.5-19.1,13-23.3c-2.5-4.1-5.5-4.5-5.5-4.5"/>
	<path class="st41" d="M156.4,80.3c0,0,8.3,1.4,12.8,3.3c4.5,1.9,13.6,4.1,14.6,9.1c1,5-4.3,7.6-7.6,6.7S156.4,80.3,156.4,80.3z"/>
	<path class="st41" d="M182.1,142.5c0,0,4.4,4.1,8.9,2.8c4.5-1.3,16.1-10.1,16.7-13.9c0.6-3.8-4.3-7.3-4.3-7.3L182.1,142.5z"/>
</g>
</svg>
