<?xml version="1.0" encoding="utf-8"?>
<!-- Generator: Adobe Illustrator 22.1.0, SVG Export Plug-In . SVG Version: 6.00 Build 0)  -->
<svg version="1.1" id="Layer_1" xmlns="http://www.w3.org/2000/svg" xmlns:xlink="http://www.w3.org/1999/xlink" x="0px" y="0px"
	 viewBox="0 0 256 256" style="enable-background:new 0 0 256 256;" xml:space="preserve">
<style type="text/css">
	.st0{fill:#F5B31F;}
	.st1{fill:none;stroke:#464646;stroke-width:8;stroke-linecap:round;stroke-linejoin:round;stroke-miterlimit:10;}
	.st2{opacity:0.15;fill:#464646;}
	.st3{fill:#AC6535;}
	.st4{fill:#EB573B;}
	.st5{fill:#90C056;}
	.st6{opacity:0.35;fill:#FFFFFF;}
	.st7{opacity:0.2;fill:#FFFFFF;}
	.st8{fill:#F6D67A;}
	.st9{opacity:0.15;fill:#FFFFFF;}
	.st10{opacity:0.3;fill:#FFFFFF;}
	.st11{fill:#AC6535;stroke:#464646;stroke-width:8;stroke-linecap:round;stroke-linejoin:round;stroke-miterlimit:10;}
	.st12{fill:#EB573B;stroke:#464646;stroke-width:8;stroke-miterlimit:10;}
	.st13{opacity:0.15;}
	.st14{fill:#464646;}
	.st15{fill:#FFA755;}
	.st16{fill:#8FAE3C;}
	.st17{fill:#BE6BB2;}
	.st18{fill:#B7C536;}
	.st19{opacity:0.1;}
	.st20{fill:#9D5A96;}
	.st21{fill:#EA615D;}
	.st22{opacity:0.4;fill:#FFFFFF;}
	.st23{opacity:7.000000e-02;}
	.st24{fill:#F79932;}
	.st25{fill:#FFEC97;}
	.st26{fill:#FFD11D;}
	.st27{opacity:0.2;}
	.st28{fill:#FFFFFF;}
	.st29{fill:#F7F2D5;}
	.st30{fill:#F6AF72;}
	.st31{fill:#BA6C45;}
	.st32{opacity:0.5;fill:#FFFFFF;}
	.st33{fill:#E4C074;}
	.st34{fill:none;stroke:#656566;stroke-width:8;stroke-linecap:round;stroke-linejoin:round;stroke-miterlimit:10;}
	.st35{fill:#FFA755;stroke:#464646;stroke-width:8;stroke-linecap:round;stroke-linejoin:round;stroke-miterlimit:10;}
	.st36{fill:#FFD11D;stroke:#464646;stroke-width:8;stroke-linecap:round;stroke-linejoin:round;stroke-miterlimit:10;}
	.st37{fill:#FACD1F;}
	.st38{fill:#FFDF66;}
	.st39{fill:#FFEC97;stroke:#464646;stroke-width:8;stroke-linecap:round;stroke-linejoin:round;stroke-miterlimit:10;}
	.st40{fill:#FFDF66;stroke:#464646;stroke-width:8;stroke-linecap:round;stroke-linejoin:round;stroke-miterlimit:10;}
	.st41{opacity:0.2;fill:#464646;}
	.st42{fill:#FFFFFF;stroke:#464646;stroke-width:8;stroke-linecap:round;stroke-linejoin:round;stroke-miterlimit:10;}
	.st43{fill:#6D6E71;stroke:#464646;stroke-width:8;stroke-linecap:round;stroke-linejoin:round;stroke-miterlimit:10;}
	.st44{opacity:0.1;fill:#464646;}
	.st45{fill:#E77CAE;}
	.st46{fill:#FFE5C4;}
	.st47{fill:#F68455;stroke:#464646;stroke-width:8;stroke-linecap:round;stroke-linejoin:round;stroke-miterlimit:10;}
	.st48{opacity:0.7;}
	.st49{fill:#ADEDFF;}
	.st50{fill:#EC754B;}
	.st51{fill:#4AA5BA;}
	.st52{opacity:0.5;}
	.st53{opacity:0.8;}
	.st54{fill:#F68455;}
	.st55{fill:#92A5AC;}
	.st56{fill:#6D6E71;}
	.st57{fill:#D06E3C;}
	.st58{fill:#DA4F4B;}
	.st59{fill:#BDF3FF;}
	.st60{fill:#F18BB4;}
	.st61{fill:#F9D97A;}
	.st62{fill:none;}
	.st63{fill:#AF6535;}
	.st64{fill:#B93226;}
	.st65{fill:#FF6050;}
	.st66{fill:#D06E3C;stroke:#464646;stroke-miterlimit:10;}
	.st67{fill:#EA7CB1;}
	.st68{fill:none;stroke:#6D6E71;stroke-width:10;stroke-linecap:round;stroke-linejoin:round;stroke-miterlimit:10;}
	.st69{fill:#00B0E0;}
	.st70{fill:#EA7DAE;}
	.st71{opacity:0.1;fill:#FFFFFF;}
	.st72{fill:#BC7532;}
	.st73{fill:#876C6C;}
	.st74{fill:#F9F6CD;}
	.st75{fill:#FFE37B;}
	.st76{fill:#1DDCFF;}
	.st77{fill:#60ACF7;}
	.st78{fill:#C3755A;}
	.st79{fill:#96557A;}
	.st80{fill:#66625D;}
	.st81{fill:#D68032;}
	.st82{opacity:0.8;fill:#FFFFFF;}
	.st83{fill:#F2A355;}
	.st84{fill:#7E9E6A;}
	.st85{opacity:0.3;}
	.st86{fill:#965A85;}
	.st87{opacity:0.7;fill:#FFFFFF;}
	.st88{fill:#90CAD3;}
	.st89{fill:#94B57F;}
	.st90{fill:#B2E2E7;}
	.st91{fill:#FFDF8F;}
	.st92{fill:#FFFAEB;}
	.st93{fill:#F88916;}
	.st94{fill:#FFC86E;}
	.st95{fill:#AFA51D;}
	.st96{fill:#968A1C;}
	.st97{fill:#C3556D;}
</style>
<g>
	<g>
		<polygon class="st8" points="241.8,113.9 239.2,125.7 211.2,252.1 185.5,252.1 199.5,141.4 200.7,132 		"/>
		<path class="st0" d="M200.7,132l-1.2,9.5l-14,110.7l-28.9,0l4.9-104.6l1.5-31.8c1-0.1,2-0.3,2.9-0.4L200.7,132z"/>
		<path class="st8" d="M163,115.7l-1.5,31.8l-4.9,104.6l-30.4,0l1.5-103l0.2-16.3l30.7-16.5l0,0C160.1,116.1,161.6,115.9,163,115.7z
			"/>
		<path class="st0" d="M127.9,132.8l-0.2,16.3l-1.5,103l-32.1,0l-4.2-105l-1.3-32c1.2,0.2,2.3,0.4,3.5,0.5L127.9,132.8z"/>
		<path class="st8" d="M94.1,252.1l-25.2,0L52.1,140.4l-1.3-8.4l35.9-17.2c0.6,0.1,1.2,0.2,1.8,0.3l1.3,32L94.1,252.1z"/>
		<polygon class="st0" points="68.9,252.1 42.8,252.1 16.4,125.6 14,113.9 50.9,132 52.1,140.4 		"/>
		<polygon class="st1" points="241.8,113.9 239.2,125.7 211.2,252.1 185.5,252.1 199.5,141.4 200.7,132 		"/>
		<path class="st1" d="M200.7,132l-1.2,9.5l-14,110.7l-28.9,0l4.9-104.6l1.5-31.8c1-0.1,2-0.3,2.9-0.4L200.7,132z"/>
		<path class="st1" d="M163,115.7l-1.5,31.8l-4.9,104.6l-30.4,0l1.5-103l0.2-16.3l30.7-16.5l0,0C160.1,116.1,161.6,115.9,163,115.7z
			"/>
		<path class="st1" d="M127.9,132.8l-0.2,16.3l-1.5,103l-32.1,0l-4.2-105l-1.3-32c1.2,0.2,2.3,0.4,3.5,0.5L127.9,132.8z"/>
		<path class="st1" d="M94.1,252.1l-25.2,0L52.1,140.4l-1.3-8.4l35.9-17.2c0.6,0.1,1.2,0.2,1.8,0.3l1.3,32L94.1,252.1z"/>
		<polygon class="st1" points="68.9,252.1 42.8,252.1 16.4,125.6 14,113.9 50.9,132 52.1,140.4 		"/>
	</g>
	<path class="st3" d="M251.3,107.9c0,6.4-4.4,12.4-12.1,17.8l2.6-11.8L200.7,132l-34.8-16.7l-2.8-1.4l-4.4,2.4l0,0l-30.7,16.5
		l-35.8-17.2l-3.5-1.7l-1.8,0.9L50.9,132L14,113.9l2.4,11.7c-7.7-5.4-11.9-11.4-11.9-17.7c0-8.6,7.9-16.6,21.5-23.2
		c10.1-4.9,23.3-9.1,38.8-12.2c0,0,0,0,0,0c18.5-3.7,40.1-5.8,63.2-5.8s44.7,2.1,63.2,5.8c0,0,0,0,0,0c15.4,3.1,28.7,7.2,38.8,12.2
		C243.4,91.3,251.3,99.3,251.3,107.9z"/>
	<path class="st9" d="M191.1,72.5c0,0-40.1-5.8-63.2-5.8s-44.7,2.1-63.2,5.8c0,0,0,0,0,0C49.3,75.6,36.1,79.7,26,84.7
		C12.4,91.3,4.5,99.3,4.5,107.9c0,6.3,4.3,12.3,11.9,17.7c0,0-1.6-18,20.7-29.4S191.1,72.5,191.1,72.5z"/>
	<path class="st4" d="M231.7,77c0,2.6-0.6,5.2-1.8,7.7c-10.1-4.9-23.3-9.1-38.8-12.2c0,0,0,0,0,0c-18.5-3.7-40.1-5.8-63.2-5.8
		s-44.7,2.1-63.2,5.8c0,0,0,0,0,0C49.3,75.6,36.1,79.7,26,84.7c-1.2-2.5-1.8-5.1-1.8-7.7c0-9.3,7.8-17.9,20.8-24.8
		c18.9-10,49.1-16.4,83-16.4c33.9,0,64,6.5,83,16.4C223.9,59.1,231.7,67.7,231.7,77z"/>
	<path class="st10" d="M210.9,52.2c-18.9-10-49.1-16.4-83-16.4c-33.9,0-64,6.4-83,16.4c-13.1,6.9-20.8,15.5-20.8,24.8
		c0,2.6,0.6,5.2,1.8,7.7c0,0-2-13.5,46.6-29.9S210.9,52.2,210.9,52.2z"/>
	<path class="st45" d="M212.1,45.3c0,2.3-0.4,4.6-1.2,6.9c-18.9-10-49.1-16.4-83-16.4c-33.9,0-64,6.4-83,16.4
		c-0.8-2.2-1.2-4.5-1.2-6.9c0-22.7,37.7-41.2,84.1-41.2C174.4,4.1,212.1,22.6,212.1,45.3z"/>
	<path class="st10" d="M182.7,14.1c-14.7-6.2-33.9-9.9-54.8-9.9c-46.5,0-84.1,18.4-84.1,41.2c0,2.3,0.4,4.6,1.2,6.9
		c0,0,10.3-17.1,35.8-28.7S182.7,14.1,182.7,14.1z"/>
	<path class="st1" d="M165.9,115.3c-1,0.1-1.9,0.3-2.9,0.4l0.1-1.8L165.9,115.3z"/>
	<path class="st1" d="M163.1,113.9l-0.1,1.8c-1.4,0.2-2.9,0.4-4.4,0.6L163.1,113.9z"/>
	<path class="st1" d="M92.1,115.6c-1.2-0.2-2.3-0.3-3.5-0.5l0-1.2L92.1,115.6z"/>
	<path class="st1" d="M88.6,115.1c-0.6-0.1-1.2-0.2-1.8-0.3l1.8-0.9L88.6,115.1z"/>
	<path class="st1" d="M92.1,115.6c-1.2-0.2-2.3-0.3-3.5-0.5c-0.6-0.1-1.2-0.2-1.8-0.3l1.8-0.9L92.1,115.6z"/>
	<path class="st1" d="M251.3,107.9c0,6.4-4.4,12.4-12.1,17.8l2.6-11.8L200.7,132l-34.8-16.7l-2.8-1.4l-4.4,2.4l0,0l-30.7,16.5
		l-35.8-17.2l-3.5-1.7l-1.8,0.9L50.9,132L14,113.9l2.4,11.7c-7.7-5.4-11.9-11.4-11.9-17.7c0-8.6,7.9-16.6,21.5-23.2
		c10.1-4.9,23.3-9.1,38.8-12.2c0,0,0,0,0,0c18.5-3.7,40.1-5.8,63.2-5.8s44.7,2.1,63.2,5.8c0,0,0,0,0,0c15.4,3.1,28.7,7.2,38.8,12.2
		C243.4,91.3,251.3,99.3,251.3,107.9z"/>
	<path class="st1" d="M165.9,115.3c-1,0.1-1.9,0.3-2.9,0.4c-1.4,0.2-2.9,0.4-4.4,0.6l4.4-2.4L165.9,115.3z"/>
	<path class="st1" d="M92.1,115.6c-1.2-0.2-2.3-0.3-3.5-0.5c-0.6-0.1-1.2-0.2-1.8-0.3l1.8-0.9L92.1,115.6z"/>
	<path class="st1" d="M165.9,115.3c-1,0.1-1.9,0.3-2.9,0.4c-1.4,0.2-2.9,0.4-4.4,0.6l4.4-2.4L165.9,115.3z"/>
	<path class="st1" d="M231.7,77c0,2.6-0.6,5.2-1.8,7.7c-10.1-4.9-23.3-9.1-38.8-12.2c0,0,0,0,0,0c-18.5-3.7-40.1-5.8-63.2-5.8
		s-44.7,2.1-63.2,5.8c0,0,0,0,0,0C49.3,75.6,36.1,79.7,26,84.7c-1.2-2.5-1.8-5.1-1.8-7.7c0-9.3,7.8-17.9,20.8-24.8
		c18.9-10,49.1-16.4,83-16.4c33.9,0,64,6.5,83,16.4C223.9,59.1,231.7,67.7,231.7,77z"/>
	<path class="st1" d="M212.1,45.3c0,2.3-0.4,4.6-1.2,6.9c-18.9-10-49.1-16.4-83-16.4c-33.9,0-64,6.4-83,16.4
		c-0.8-2.2-1.2-4.5-1.2-6.9c0-22.7,37.7-41.2,84.1-41.2C174.4,4.1,212.1,22.6,212.1,45.3z"/>
</g>
</svg>
