<?xml version="1.0" encoding="utf-8"?>
<!-- Generator: Adobe Illustrator 21.1.0, SVG Export Plug-In . SVG Version: 6.00 Build 0)  -->
<svg version="1.1" id="Icon_Set" xmlns="http://www.w3.org/2000/svg" xmlns:xlink="http://www.w3.org/1999/xlink" x="0px" y="0px"
	 viewBox="0 0 512 512" style="enable-background:new 0 0 512 512;" xml:space="preserve">
<style type="text/css">
	.st0{fill:#FFFFFF;}
	.st1{fill:#5B7C31;}
	.st2{fill:#E56823;}
	.st3{fill:#FE8E46;}
	.st4{fill:#7DAC51;}
	.st5{fill:#463218;}
	.st6{fill:#FEFE71;}
	.st7{fill:#D6CD1E;}
	.st8{fill:none;stroke:#FFFFFF;stroke-width:14;stroke-miterlimit:10;}
	.st9{fill:none;stroke:#463218;stroke-width:14;stroke-linecap:round;stroke-linejoin:round;stroke-miterlimit:10;}
</style>
<g id="Mushroom">
	<g>
		<g>
			<g>
				<path class="st6" d="M256,368.2L256,368.2c-22.2,0-36.9-19.7-33.5-52.1L235,198.4h42L289.5,316
					C292.9,348.5,278.2,368.2,256,368.2z"/>
			</g>
		</g>
	</g>
	<g>
		<g>
			<g>
				<path class="st7" d="M284.7,270.9L284.7,270.9l-7.7-72.5h-42L222.5,316c-2.7,25.2,5.5,42.6,19.7,49.2l6.6-62.1
					C250.8,284.8,266.2,270.9,284.7,270.9z"/>
			</g>
		</g>
	</g>
	<g>
		<g>
			<g>
				<path class="st5" d="M256,375.2c-11.4,0-21.3-4.3-28.6-12.4c-9.7-10.8-13.9-27.6-11.8-47.4L228,197.7c0.4-3.6,3.4-6.3,7-6.3h42
					c3.6,0,6.6,2.7,7,6.3l12.5,117.6c2.1,19.8-2.1,36.7-11.8,47.4C277.3,370.9,267.4,375.2,256,375.2z M241.3,205.4l-11.8,111.3
					c-1.7,15.8,1.3,28.8,8.3,36.6c4.6,5.2,10.8,7.8,18.2,7.8s13.6-2.6,18.2-7.8c7-7.8,10-20.8,8.3-36.6l-11.8-111.3H241.3z"/>
			</g>
		</g>
	</g>
	<g>
		<g>
			<g>
				<path class="st3" d="M333,170L333,170c-16.5-16.7-39.1-26.2-62.6-26.2h-28.9c-23.5,0-46.1,9.4-62.6,26.2h0
					c-16.3,16.5-25.4,38.7-25.4,61.8v14.4h204.8v-14.4C358.4,208.6,349.3,186.4,333,170z"/>
			</g>
		</g>
	</g>
	<g>
		<g>
			<g>
				<path class="st2" d="M256.9,170L256.9,170c10.6-10.8,23.8-18.5,38-22.6c-7.9-2.3-16.2-3.5-24.5-3.5h-28.9
					c-23.5,0-46.1,9.4-62.6,26.2h0c-16.3,16.5-25.4,38.7-25.4,61.8v14.4h78v-14.4C231.6,208.6,240.7,186.4,256.9,170z"/>
			</g>
		</g>
	</g>
	<g>
		<g>
			<g>
				<path class="st5" d="M358.4,253.2H153.6c-3.9,0-7-3.1-7-7v-14.4c0-25.1,9.7-48.8,27.4-66.7c17.7-17.9,42.3-28.2,67.6-28.2h28.9
					c25.2,0,49.8,10.3,67.6,28.2l-5,4.9l5-4.9c17.7,17.9,27.4,41.6,27.4,66.7v14.4C365.4,250.1,362.3,253.2,358.4,253.2z
					 M160.6,239.2h190.8v-7.4c0-21.4-8.3-41.6-23.4-56.9v0c-15.1-15.3-36.1-24.1-57.6-24.1h-28.9c-21.5,0-42.5,8.8-57.6,24.1
					c-15.1,15.3-23.4,35.5-23.4,56.9V239.2z"/>
			</g>
		</g>
	</g>
	<g>
		<g>
			<g>
				<path class="st6" d="M181.9,225.1c19.9,0,36-16.1,36-36c0-14.7-8.8-27.3-21.4-32.9c-6.3,3.8-12.2,8.4-17.5,13.7h0
					c-11.9,12.1-20,27.3-23.5,43.6C162.1,220.7,171.5,225.1,181.9,225.1z"/>
			</g>
		</g>
	</g>
	<g>
		<g>
			<g>
				<path class="st6" d="M333,170L333,170c-16.5-16.7-39.1-26.2-62.6-26.2h-4.4c0,25,20.3,45.3,45.3,45.3c11.1,0,21.2-4,29-10.5
					C338.2,175.6,335.7,172.7,333,170z"/>
			</g>
		</g>
	</g>
	<g>
		<g>
			<g>
				<path class="st6" d="M303.9,244.9c0-14.8-12-26.9-26.9-26.9c-14.8,0-26.9,12-26.9,26.9c0,0.4,0,0.9,0,1.3h53.7
					C303.8,245.8,303.9,245.4,303.9,244.9z"/>
			</g>
		</g>
	</g>
	<g>
		<g>
			<g>
				<path class="st5" d="M181.9,232.1c-11.9,0-23.4-5-31.5-13.7c-1.6-1.7-2.2-4-1.7-6.2c3.8-17.9,12.5-34.1,25.3-47.1
					c5.6-5.7,12-10.7,18.9-14.8c2-1.2,4.4-1.3,6.4-0.4c15.5,6.9,25.5,22.3,25.5,39.3C224.8,212.8,205.6,232.1,181.9,232.1z
					 M163.2,211.3c5.2,4.4,11.7,6.8,18.6,6.8c16,0,29-13,29-29c0-10.2-5.4-19.6-14-24.8c-4.6,3.1-9,6.6-12.9,10.6
					C173.9,185,166.8,197.6,163.2,211.3z"/>
			</g>
		</g>
	</g>
	<g>
		<g>
			<g>
				<path class="st5" d="M311.4,196.1c-28.8,0-52.3-23.5-52.3-52.3c0-1.9,0.7-3.6,2-5c1.3-1.3,3.1-2.1,5-2.1h4.4
					c25.2,0,49.8,10.3,67.6,28.2h0c2.8,2.8,5.5,6,8,9.3c2.3,3,1.8,7.2-1.1,9.6C335.6,191.8,323.7,196.1,311.4,196.1z M273.7,150.9
					c3.3,17.8,19,31.2,37.7,31.2c6.6,0,13.1-1.7,18.8-4.9c-0.7-0.8-1.4-1.6-2.2-2.3C313.7,160.4,294.1,151.7,273.7,150.9z"/>
			</g>
		</g>
	</g>
	<g>
		<g>
			<g>
				<path class="st5" d="M303.8,253.2h-53.7c-3.7,0-6.8-2.9-7-6.7c0-0.5,0-1.1,0-1.6c0-18.7,15.2-33.9,33.9-33.9
					s33.9,15.2,33.9,33.9c0,0.5,0,1.1,0,1.6C310.6,250.3,307.6,253.2,303.8,253.2z M258,239.2h38c-2.5-8.2-10.1-14.1-19-14.1
					S260.4,231.1,258,239.2z"/>
			</g>
		</g>
	</g>
	<g>
		<g>
			<g>
				<path class="st0" d="M337.6,225.1h-14c0-5.8-4.5-15.7-6.1-18.7l12.4-6.5C330.7,201.4,337.6,214.9,337.6,225.1z"/>
			</g>
		</g>
	</g>
</g>
</svg>
