<?xml version="1.0" encoding="utf-8"?>
<!-- Generator: Adobe Illustrator 21.1.0, SVG Export Plug-In . SVG Version: 6.00 Build 0)  -->
<svg version="1.1" id="Icon_Set" xmlns="http://www.w3.org/2000/svg" xmlns:xlink="http://www.w3.org/1999/xlink" x="0px" y="0px"
	 viewBox="0 0 512 512" style="enable-background:new 0 0 512 512;" xml:space="preserve">
<style type="text/css">
	.st0{fill:#FFFFFF;}
	.st1{fill:#5B7C31;}
	.st2{fill:#E56823;}
	.st3{fill:#FE8E46;}
	.st4{fill:#7DAC51;}
	.st5{fill:#463218;}
	.st6{fill:#FEFE71;}
	.st7{fill:#D6CD1E;}
	.st8{fill:none;stroke:#FFFFFF;stroke-width:14;stroke-miterlimit:10;}
	.st9{fill:none;stroke:#463218;stroke-width:14;stroke-linecap:round;stroke-linejoin:round;stroke-miterlimit:10;}
</style>
<g id="Nachos">
	<g>
		<g>
			<g>
				<g>
					<path class="st6" d="M135.2,203.2c0,0-30.4,99.9,32.7,173.9l24.6-4.4c47.5-8.6,84.9-40.4,100.9-86l8.3-23.5
						C301.6,263.2,242.9,187.7,135.2,203.2z"/>
				</g>
			</g>
		</g>
		<g>
			<g>
				<g>
					<path class="st7" d="M205.7,331.9l-24.6,4.4c-37.8-44.4-42-98.1-39.3-134c-2.2,0.2-4.4,0.5-6.6,0.8c0,0-30.4,99.9,32.7,173.9
						l24.6-4.4c47.5-8.6,84.9-40.4,100.9-86l8.3-23.5c0,0-0.5-0.7-1.5-1.8C281.7,298.6,247.6,324.4,205.7,331.9z"/>
				</g>
			</g>
		</g>
		<g>
			<g>
				<g>
					<path class="st5" d="M167.8,384.1c-2,0-4-0.9-5.3-2.5c-26.9-31.5-41.3-72.8-41.7-119.2c-0.3-34.9,7.3-60.2,7.6-61.3
						c0.8-2.6,3-4.5,5.7-4.9c57.7-8.3,101.6,9.1,128.2,25.1c28.9,17.4,44.1,36.7,44.8,37.5c1.5,1.9,1.9,4.4,1.1,6.6L300,289
						c-16.8,47.7-56.5,81.6-106.3,90.6l-24.6,4.4C168.7,384.1,168.2,384.1,167.8,384.1z M140.7,209.5c-2,8.4-6.1,28.4-5.9,53.3
						c0.4,42,12.5,77.9,35.8,106.7l20.6-3.7c22.1-4,42.5-13.5,59-27.6c16.5-14,29.1-32.7,36.6-53.9l6.9-19.7
						c-5.1-5.7-18.4-19.3-39-31.6C220.1,212.5,181.8,204.5,140.7,209.5z M141.9,205.2L141.9,205.2L141.9,205.2z"/>
				</g>
			</g>
		</g>
		<g>
			<g>
				<g>
					
						<ellipse transform="matrix(0.7613 -0.6484 0.6484 0.7613 -113.6305 168.7751)" class="st7" cx="172.4" cy="238.7" rx="5.3" ry="5.3"/>
				</g>
			</g>
		</g>
		<g>
			<g>
				<g>
					
						<ellipse transform="matrix(0.7613 -0.6484 0.6484 0.7613 -134.3953 223.1277)" class="st7" cx="235.8" cy="294.1" rx="5.3" ry="5.3"/>
				</g>
			</g>
		</g>
		<g>
			<g>
				<g>
					
						<ellipse transform="matrix(0.7613 -0.6484 0.6484 0.7613 -115.6192 217.6006)" class="st7" cx="237.7" cy="265.8" rx="6.3" ry="6.3"/>
				</g>
			</g>
		</g>
		<g>
			<g>
				<g>
					
						<ellipse transform="matrix(0.7613 -0.6484 0.6484 0.7613 -137.5815 173.1297)" class="st7" cx="166.3" cy="273.4" rx="6.3" ry="6.3"/>
				</g>
			</g>
		</g>
		<g>
			<g>
				<g>
					
						<ellipse transform="matrix(0.7613 -0.6484 0.6484 0.7613 -139.3335 199.2323)" class="st7" cx="200.9" cy="288.9" rx="10" ry="10"/>
				</g>
			</g>
		</g>
		<g>
			<g>
				<g>
					
						<ellipse transform="matrix(0.7613 -0.6484 0.6484 0.7613 -101.7588 198.3115)" class="st7" cx="218.5" cy="237.4" rx="10" ry="10"/>
				</g>
			</g>
		</g>
	</g>
	<g>
		<g>
			<g>
				<g>
					<path class="st3" d="M296.3,134.9c0,0-87.9,56.3-87.9,153.6l21.6,12.6c41.7,24.3,90.9,24.3,132.6,0l21.5-12.6
						C384.1,288.5,388.3,193,296.3,134.9z"/>
				</g>
			</g>
		</g>
		<g>
			<g>
				<g>
					<path class="st2" d="M266.5,278.6L244.9,266c0-58.3,31.6-101.9,56.9-127.5c-1.8-1.2-3.6-2.4-5.5-3.6c0,0-87.9,56.3-87.9,153.6
						l21.6,12.6c41.7,24.3,90.9,24.3,132.6,0l21.5-12.6c0,0,0-0.8,0-2.4C346,302.6,303.3,300.1,266.5,278.6z"/>
				</g>
			</g>
		</g>
		<g>
			<g>
				<g>
					<path class="st5" d="M296.3,326.2c-24,0-47.9-6.4-69.8-19.1l-21.6-12.6c-2.2-1.3-3.5-3.6-3.5-6c0-41.4,15.8-82.1,45.6-117.8
						c22.4-26.8,44.6-41.1,45.5-41.7c2.3-1.5,5.2-1.5,7.5,0c49.3,31.1,71.4,72.8,81.3,102.3c10.7,32,9.8,56.5,9.8,57.6
						c-0.1,2.4-1.4,4.5-3.5,5.7l-21.5,12.6C344.3,319.8,320.3,326.2,296.3,326.2z M215.4,284.5l18.1,10.5
						c19.4,11.3,41.1,17.3,62.8,17.3c0,0,0,0,0,0c21.7,0,43.4-6,62.8-17.3l18.1-10.5c-0.2-7.7-1.5-26.6-9.2-49.3
						c-12.9-38.1-37-69-71.5-91.8c-7,5.1-23.1,17.7-39,36.7C230.5,212.3,216.4,247.5,215.4,284.5z M300.1,140.8L300.1,140.8
						L300.1,140.8z"/>
				</g>
			</g>
		</g>
		<g>
			<g>
				<g>
					<circle class="st2" cx="290.8" cy="203.8" r="5.3"/>
				</g>
			</g>
		</g>
		<g>
			<g>
				<g>
					<circle class="st2" cx="314" cy="269.4" r="5.3"/>
				</g>
			</g>
		</g>
		<g>
			<g>
				<g>
					<circle class="st2" cx="333.8" cy="249.1" r="6.3"/>
				</g>
			</g>
		</g>
		<g>
			<g>
				<g>
					<circle class="st2" cx="271.2" cy="223.6" r="6.3"/>
				</g>
			</g>
		</g>
		<g>
			<g>
				<g>
					<circle class="st2" cx="290.8" cy="242.7" r="10"/>
				</g>
			</g>
		</g>
		<g>
			<g>
				<g>
					<circle class="st2" cx="337.6" cy="214.9" r="10"/>
				</g>
			</g>
		</g>
	</g>
	<g>
		<g>
			<g>
				<path class="st0" d="M317.5,201c-5.9-15.2-23.7-28.1-23.9-28.2l8.1-11.4c0.9,0.6,21.5,15.4,28.9,34.6L317.5,201z"/>
			</g>
		</g>
	</g>
</g>
</svg>
