<?xml version="1.0" encoding="utf-8"?>
<!-- Generator: Adobe Illustrator 21.1.0, SVG Export Plug-In . SVG Version: 6.00 Build 0)  -->
<svg version="1.1" id="Icon_Set" xmlns="http://www.w3.org/2000/svg" xmlns:xlink="http://www.w3.org/1999/xlink" x="0px" y="0px"
	 viewBox="0 0 512 512" style="enable-background:new 0 0 512 512;" xml:space="preserve">
<style type="text/css">
	.st0{fill:#FFFFFF;}
	.st1{fill:#5B7C31;}
	.st2{fill:#E56823;}
	.st3{fill:#FE8E46;}
	.st4{fill:#7DAC51;}
	.st5{fill:#463218;}
	.st6{fill:#FEFE71;}
	.st7{fill:#D6CD1E;}
	.st8{fill:none;stroke:#FFFFFF;stroke-width:14;stroke-miterlimit:10;}
	.st9{fill:none;stroke:#463218;stroke-width:14;stroke-linecap:round;stroke-linejoin:round;stroke-miterlimit:10;}
</style>
<g id="No_Sugra">
	<g>
		<g>
			<g>
				<g>
					<polygon class="st7" points="141.8,238.4 96.4,205.9 120.7,143.3 166.1,175.8 					"/>
				</g>
			</g>
		</g>
		<g>
			<g>
				<g>
					<polygon class="st6" points="120.7,143.3 176.5,148.9 222.1,182.6 166.1,175.8 					"/>
				</g>
			</g>
		</g>
		<g>
			<g>
				<g>
					<polygon class="st6" points="141.8,238.4 197.9,245.2 222.1,182.6 166.1,175.8 					"/>
				</g>
			</g>
		</g>
		<g>
			<g>
				<g>
					<path class="st5" d="M141.8,245.4c-1.4,0-2.9-0.4-4.1-1.3l-45.4-32.5c-2.6-1.9-3.6-5.2-2.5-8.2l24.3-62.6
						c0.8-2,2.5-3.6,4.5-4.2c2.1-0.6,4.3-0.2,6.1,1l45.4,32.5c2.6,1.9,3.6,5.2,2.4,8.2l-24.3,62.5c-0.8,2-2.5,3.6-4.5,4.2
						C143.2,245.3,142.5,245.4,141.8,245.4z M104.9,203.4l33.6,24l19-49.1L124,154.2L104.9,203.4z"/>
				</g>
			</g>
		</g>
		<g>
			<g>
				<g>
					<path class="st5" d="M197.9,252.2c-0.3,0-0.6,0-0.9-0.1l-56-6.9c-2.1-0.3-4-1.5-5.2-3.4s-1.3-4.1-0.5-6.1l24.3-62.5
						c1.2-3,4.2-4.8,7.4-4.4l56.1,6.8c2.1,0.3,4.1,1.5,5.2,3.3c1.1,1.9,1.3,4.1,0.5,6.1l-24.3,62.6
						C203.3,250.5,200.7,252.2,197.9,252.2z M151.6,232.5l41.7,5.1l19.1-49.2l-41.7-5L151.6,232.5z"/>
				</g>
			</g>
		</g>
		<g>
			<g>
				<g>
					<path class="st5" d="M222.1,189.6c-0.3,0-0.6,0-0.8-0.1l-56.1-6.8c-1.2-0.1-2.3-0.6-3.2-1.3L116.7,149
						c-2.6-1.8-3.6-5.2-2.5-8.2c1.1-3,4.1-4.8,7.2-4.5l55.8,5.6c1.3,0.1,2.4,0.6,3.5,1.3l45.6,33.7c2.6,1.9,3.5,5.3,2.3,8.2
						C227.6,187.9,225,189.6,222.1,189.6z M168.7,169.1l27.9,3.4l-22.7-16.8l-27.8-2.8L168.7,169.1z"/>
				</g>
			</g>
		</g>
	</g>
	<g>
		<g>
			<g>
				<g>
					<polygon class="st7" points="261.7,344.2 179.3,323.1 179.3,220.7 261.7,241.9 					"/>
				</g>
			</g>
		</g>
		<g>
			<g>
				<g>
					<polygon class="st6" points="179.3,220.7 261.7,197.9 345.1,220.7 261.7,241.9 					"/>
				</g>
			</g>
		</g>
		<g>
			<g>
				<g>
					<polygon class="st6" points="261.7,344.2 345.1,323.1 345.1,220.7 261.7,241.9 					"/>
				</g>
			</g>
		</g>
		<g>
			<g>
				<g>
					<path class="st5" d="M261.7,351.2c-0.6,0-1.2-0.1-1.7-0.2l-82.4-21.1c-3.1-0.8-5.3-3.6-5.3-6.8V220.7c0-2.2,1-4.2,2.7-5.5
						c1.7-1.3,3.9-1.8,6-1.2l82.4,21.3c3.1,0.8,5.3,3.6,5.3,6.8v102.2c0,2.2-1,4.2-2.7,5.5C264.7,350.7,263.2,351.2,261.7,351.2z
						 M186.3,317.6l68.4,17.5v-87.8l-68.4-17.6V317.6z"/>
				</g>
			</g>
		</g>
		<g>
			<g>
				<g>
					<path class="st5" d="M261.7,351.2c-1.5,0-3.1-0.5-4.3-1.5c-1.7-1.3-2.7-3.4-2.7-5.5V241.9c0-3.2,2.2-6,5.3-6.8l83.4-21.3
						c2.1-0.5,4.3-0.1,6,1.3c1.7,1.3,2.7,3.4,2.7,5.5v102.4c0,3.2-2.2,6-5.3,6.8L263.4,351C262.8,351.1,262.3,351.2,261.7,351.2z
						 M268.7,247.4v87.8l69.4-17.6v-87.9L268.7,247.4z"/>
				</g>
			</g>
		</g>
		<g>
			<g>
				<g>
					<path class="st5" d="M261.7,248.9c-0.6,0-1.2-0.1-1.7-0.2l-82.4-21.3c-3.1-0.8-5.2-3.5-5.3-6.7c0-3.2,2.1-6,5.1-6.8l82.4-22.8
						c1.2-0.3,2.5-0.3,3.7,0l83.4,22.8c3.1,0.8,5.2,3.6,5.2,6.8s-2.2,5.9-5.3,6.7l-83.4,21.3C262.9,248.8,262.3,248.9,261.7,248.9z
						 M206.4,220.4l55.3,14.3l56-14.3l-56-15.3L206.4,220.4z"/>
				</g>
			</g>
		</g>
	</g>
	<g>
		<g>
			<g>
				<rect x="192.8" y="251.2" class="st0" width="14" height="39.3"/>
			</g>
		</g>
	</g>
	<g>
		<g>
			<g>
				<g>
					<circle class="st2" cx="356.9" cy="310.1" r="58.6"/>
				</g>
			</g>
		</g>
		<g>
			<g>
				<g>
					<g>
						<path class="st5" d="M380.7,341.4c-1.8,0-3.6-0.7-5-2.1c-17.9-18-45.1-45.3-47.6-47.6c-1.5-1.3-2.4-3.2-2.4-5.3
							c0-3.9,3.1-7,7-7c2.9,0,4.1,1.2,7,4.1c1.3,1.3,3.2,3.2,5.5,5.5c4.5,4.5,10.5,10.5,16.5,16.5c12,12,23.9,24,23.9,24
							c2.7,2.7,2.7,7.2,0,9.9C384.3,340.7,382.5,341.4,380.7,341.4z M332.7,293.4C332.7,293.4,332.7,293.4,332.7,293.4
							C332.7,293.4,332.7,293.4,332.7,293.4z M332.7,293.4C332.7,293.4,332.7,293.4,332.7,293.4
							C332.7,293.4,332.7,293.4,332.7,293.4z M332.7,293.4C332.7,293.4,332.7,293.4,332.7,293.4
							C332.7,293.4,332.7,293.4,332.7,293.4z M332.7,293.4C332.7,293.4,332.7,293.4,332.7,293.4
							C332.7,293.4,332.7,293.4,332.7,293.4z M332.7,293.4C332.7,293.4,332.7,293.4,332.7,293.4
							C332.7,293.4,332.7,293.4,332.7,293.4z M332.7,293.4C332.7,293.4,332.7,293.4,332.7,293.4
							C332.7,293.4,332.7,293.4,332.7,293.4z M332.7,293.4C332.7,293.4,332.7,293.4,332.7,293.4
							C332.7,293.4,332.7,293.4,332.7,293.4z M332.7,293.4C332.7,293.4,332.7,293.4,332.7,293.4
							C332.7,293.4,332.7,293.4,332.7,293.4z M332.7,293.4C332.7,293.4,332.7,293.4,332.7,293.4
							C332.7,293.4,332.7,293.4,332.7,293.4z"/>
					</g>
				</g>
			</g>
			<g>
				<g>
					<g>
						<path class="st5" d="M332.8,341.4c-1.8,0-3.6-0.7-4.9-2c-2.7-2.7-2.8-7.2,0-9.9c0,0,11.9-12,23.9-24c6-6,12-12,16.5-16.5
							c2.3-2.3,4.2-4.1,5.5-5.5c2.9-2.9,4.1-4.1,7-4.1c3.9,0,7,3.1,7,7c0,2.1-0.9,4-2.4,5.3c-2.5,2.3-29.7,29.6-47.6,47.6
							C336.3,340.7,334.5,341.4,332.8,341.4z M380.7,293.4C380.7,293.4,380.7,293.4,380.7,293.4
							C380.7,293.4,380.7,293.4,380.7,293.4z M380.8,293.4C380.8,293.4,380.8,293.4,380.8,293.4
							C380.8,293.4,380.8,293.4,380.8,293.4z M380.8,293.4C380.8,293.4,380.8,293.4,380.8,293.4
							C380.8,293.4,380.8,293.4,380.8,293.4z M380.8,293.4C380.8,293.4,380.8,293.4,380.8,293.4
							C380.8,293.4,380.8,293.4,380.8,293.4z M380.8,293.4C380.8,293.4,380.8,293.4,380.8,293.4
							C380.8,293.4,380.8,293.4,380.8,293.4z M380.8,293.4C380.8,293.4,380.8,293.4,380.8,293.4
							C380.8,293.4,380.8,293.4,380.8,293.4z M380.8,293.4C380.8,293.4,380.8,293.4,380.8,293.4
							C380.8,293.4,380.8,293.4,380.8,293.4z M380.8,293.4C380.8,293.4,380.8,293.4,380.8,293.4
							C380.8,293.4,380.8,293.4,380.8,293.4z M380.8,293.4C380.8,293.4,380.8,293.4,380.8,293.4
							C380.8,293.4,380.8,293.4,380.8,293.4z"/>
					</g>
				</g>
			</g>
		</g>
		<g>
			<g>
				<g>
					<path class="st5" d="M356.9,375.7c-36.2,0-65.6-29.4-65.6-65.6s29.4-65.6,65.6-65.6s65.6,29.4,65.6,65.6
						S393.1,375.7,356.9,375.7z M356.9,258.5c-28.5,0-51.6,23.2-51.6,51.6s23.2,51.6,51.6,51.6s51.6-23.2,51.6-51.6
						S385.4,258.5,356.9,258.5z"/>
				</g>
			</g>
		</g>
	</g>
</g>
</svg>
