<?xml version="1.0" encoding="utf-8"?>
<!-- Generator: Adobe Illustrator 21.1.0, SVG Export Plug-In . SVG Version: 6.00 Build 0)  -->
<svg version="1.1" id="Icon_Set" xmlns="http://www.w3.org/2000/svg" xmlns:xlink="http://www.w3.org/1999/xlink" x="0px" y="0px"
	 viewBox="0 0 512 512" style="enable-background:new 0 0 512 512;" xml:space="preserve">
<style type="text/css">
	.st0{fill:#FFFFFF;}
	.st1{fill:#5B7C31;}
	.st2{fill:#E56823;}
	.st3{fill:#FE8E46;}
	.st4{fill:#7DAC51;}
	.st5{fill:#463218;}
	.st6{fill:#FEFE71;}
	.st7{fill:#D6CD1E;}
	.st8{fill:none;stroke:#FFFFFF;stroke-width:14;stroke-miterlimit:10;}
	.st9{fill:none;stroke:#463218;stroke-width:14;stroke-linecap:round;stroke-linejoin:round;stroke-miterlimit:10;}
</style>
<g id="Noodle">
	<g>
		<g>
			<g>
				<polygon class="st2" points="273.8,265.6 343.4,107.7 376.4,107.7 296.2,265.6 				"/>
			</g>
		</g>
	</g>
	<g>
		<g>
			<g>
				<circle class="st6" cx="210.5" cy="255.8" r="64.1"/>
			</g>
		</g>
	</g>
	<g>
		<g>
			<g>
				<path class="st5" d="M210.5,326.9c-39.2,0-71.1-31.9-71.1-71.1s31.9-71.1,71.1-71.1s71.1,31.9,71.1,71.1
					S249.7,326.9,210.5,326.9z M210.5,198.7c-31.5,0-57.1,25.6-57.1,57.1s25.6,57.1,57.1,57.1s57.1-25.6,57.1-57.1
					S242,198.7,210.5,198.7z"/>
			</g>
		</g>
	</g>
	<g>
		<g>
			<g>
				<circle class="st7" cx="210.5" cy="255.8" r="41.9"/>
			</g>
		</g>
	</g>
	<g>
		<g>
			<g>
				<path class="st5" d="M210.5,304.7c-26.9,0-48.9-21.9-48.9-48.9s21.9-48.9,48.9-48.9s48.9,21.9,48.9,48.9
					S237.4,304.7,210.5,304.7z M210.5,220.9c-19.2,0-34.9,15.6-34.9,34.9s15.6,34.9,34.9,34.9s34.9-15.6,34.9-34.9
					S229.7,220.9,210.5,220.9z"/>
			</g>
		</g>
	</g>
	<g>
		<g>
			<g>
				<circle class="st6" cx="210.5" cy="255.8" r="17.7"/>
			</g>
		</g>
	</g>
	<g>
		<g>
			<g>
				<path class="st5" d="M210.5,280.5c-13.6,0-24.7-11.1-24.7-24.7s11.1-24.7,24.7-24.7s24.7,11.1,24.7,24.7
					S224.1,280.5,210.5,280.5z M210.5,245c-5.9,0-10.7,4.8-10.7,10.7s4.8,10.7,10.7,10.7s10.7-4.8,10.7-10.7S216.4,245,210.5,245z"
					/>
			</g>
		</g>
	</g>
	<g>
		<g>
			<g>
				<path class="st3" d="M239.1,387.9L239.1,387.9c-66.7,0-120.8-54.1-120.8-120.8v-1.4h241.7v1.4
					C359.9,333.8,305.8,387.9,239.1,387.9z"/>
			</g>
		</g>
	</g>
	<g>
		<g>
			<g>
				<path class="st2" d="M192.7,267.1v-1.4h-74.5v1.4c0,66.7,54.1,120.8,120.8,120.8l0,0c13,0,25.5-2.1,37.2-5.9
					C227.8,366.3,192.7,320.8,192.7,267.1z"/>
			</g>
		</g>
	</g>
	<g>
		<g>
			<g>
				<path class="st5" d="M239.1,394.9c-70.5,0-127.8-57.3-127.8-127.8v-1.4c0-3.9,3.1-7,7-7h241.7c3.9,0,7,3.1,7,7v1.4
					C366.9,337.5,309.6,394.9,239.1,394.9z M125.4,272.6c2.9,60.2,52.8,108.3,113.7,108.3s110.8-48.1,113.7-108.3H125.4z"/>
			</g>
		</g>
	</g>
	<g>
		<g>
			<g>
				<rect x="188.9" y="377" class="st4" width="96.5" height="27.3"/>
			</g>
		</g>
	</g>
	<g>
		<g>
			<g>
				<path class="st5" d="M285.4,411.3h-96.5c-3.9,0-7-3.1-7-7V377c0-3.9,3.1-7,7-7h96.5c3.9,0,7,3.1,7,7v27.3
					C292.4,408.2,289.3,411.3,285.4,411.3z M195.9,397.3h82.5V384h-82.5V397.3z"/>
			</g>
		</g>
	</g>
	<g>
		<g>
			<g>
				<path class="st6" d="M349.8,315.4c3.4-7.8,6-16,7.7-24.5H120.6c1.7,8.5,4.3,16.7,7.7,24.5H349.8z"/>
			</g>
		</g>
	</g>
	<g>
		<g>
			<g>
				<path class="st7" d="M202.8,315.4c-3.4-7.8-6-16-7.7-24.5h-74.5c1.5,7.5,3.7,14.7,6.5,21.6c0,0,0,0,0,0c0.4,1,0.8,2,1.2,2.9
					c0,0,0,0,0,0H202.8z"/>
			</g>
		</g>
	</g>
	<g>
		<g>
			<g>
				<path class="st5" d="M349.8,322.4H128.3c-2.8,0-5.3-1.6-6.4-4.2c-3.6-8.3-6.4-17-8.2-25.9c-0.4-2.1,0.1-4.2,1.4-5.8
					c1.3-1.6,3.3-2.6,5.4-2.6h236.9c2.1,0,4.1,0.9,5.4,2.6c1.3,1.6,1.9,3.8,1.4,5.8c-1.8,8.9-4.5,17.6-8.2,25.9
					C355.1,320.8,352.6,322.4,349.8,322.4z M133,308.4h212.2c1.3-3.4,2.5-6.9,3.5-10.5H129.5C130.5,301.5,131.7,305,133,308.4z"/>
			</g>
		</g>
	</g>
	<g>
		<g>
			<g>
				<path class="st5" d="M322.7,253.2c-2.8,0-5.7-0.4-8.5-1.2c-9.2-2.7-16.3-9.4-19.6-18.4l-6.4-17.3c-1.6-4.4-5.1-7.9-9.5-9.5
					c-4.4-1.6-9.3-1.2-13.4,1.2l-9.5,5.5c-3.4,1.9-7.6,0.8-9.6-2.6c-1.9-3.4-0.8-7.6,2.6-9.6l9.5-5.5c7.7-4.4,16.8-5.2,25.1-2.2
					c8.3,3,14.8,9.5,17.9,17.8l6.4,17.3c1.8,4.8,5.6,8.4,10.5,9.8c4.9,1.4,10,0.5,14.1-2.6c7.4-5.6,17.3-7.5,26.2-4.9l27.4,7.8
					c3.7,1.1,5.9,4.9,4.8,8.6c-1.1,3.7-4.9,5.9-8.6,4.8l-27.4-7.8c-4.8-1.4-10-0.4-14,2.6C335.4,251.1,329.1,253.2,322.7,253.2z"/>
			</g>
		</g>
	</g>
	<g>
		<g>
			<g>
				<path class="st5" d="M296.2,272.6L296.2,272.6l-22.4,0c-2.4,0-4.6-1.2-5.9-3.2c-1.3-2-1.5-4.5-0.5-6.6l69.6-158
					c1.1-2.5,3.6-4.2,6.4-4.2h33.1c2.4,0,4.7,1.3,6,3.3c1.3,2.1,1.4,4.7,0.3,6.8l-80.3,158C301.2,271.1,298.8,272.6,296.2,272.6z
					 M284.6,258.6h7.3l73.1-144h-17.1L284.6,258.6z"/>
			</g>
		</g>
	</g>
	<g>
		<g>
			<g>
				<path class="st5" d="M273.8,205.8c-1.4,0-2.7-0.4-4-1.2c-3.2-2.2-4-6.5-1.8-9.7c12.1-17.6,32.1-28.2,53.5-28.2h25.9
					c16.2,0,30.7-9,37.9-23.6l2.1-4.2c1.7-3.5,5.9-4.9,9.4-3.2c3.5,1.7,4.9,5.9,3.2,9.4l-2.1,4.2c-9.6,19.3-28.9,31.3-50.5,31.3
					h-25.9c-16.8,0-32.5,8.3-42,22.1C278.2,204.7,276,205.8,273.8,205.8z"/>
			</g>
		</g>
	</g>
	<g>
		<g>
			<g>
				<rect x="249.7" y="327" class="st0" width="31.8" height="14"/>
			</g>
		</g>
	</g>
	<g>
		<g>
			<g>
				<rect x="297.8" y="327" class="st0" width="12.7" height="14"/>
			</g>
		</g>
	</g>
</g>
</svg>
