<?xml version="1.0" encoding="utf-8"?>
<!-- Generator: Adobe Illustrator 21.1.0, SVG Export Plug-In . SVG Version: 6.00 Build 0)  -->
<svg version="1.1" id="Icon_Set" xmlns="http://www.w3.org/2000/svg" xmlns:xlink="http://www.w3.org/1999/xlink" x="0px" y="0px"
	 viewBox="0 0 512 512" style="enable-background:new 0 0 512 512;" xml:space="preserve">
<style type="text/css">
	.st0{fill:#FFFFFF;}
	.st1{fill:#5B7C31;}
	.st2{fill:#E56823;}
	.st3{fill:#FE8E46;}
	.st4{fill:#7DAC51;}
	.st5{fill:#463218;}
	.st6{fill:#FEFE71;}
	.st7{fill:#D6CD1E;}
	.st8{fill:none;stroke:#FFFFFF;stroke-width:14;stroke-miterlimit:10;}
	.st9{fill:none;stroke:#463218;stroke-width:14;stroke-linecap:round;stroke-linejoin:round;stroke-miterlimit:10;}
</style>
<g id="Nutfree">
	<g>
		<g>
			<g>
				<g>
					<path class="st3" d="M396.3,289.5c-1-27.1-23-49.2-50.1-50.5c-9-0.4-17.6,1.5-25.1,5.1c-13.3,6.4-28.7,6.8-41.8,0.3
						c-7-3.5-14.9-5.4-23.3-5.4c-8.4,0-16.2,1.9-23.3,5.4c-13.2,6.5-28.6,6.1-41.8-0.3c-7.6-3.6-16.1-5.5-25.1-5.1
						c-27.1,1.2-49.1,23.4-50.1,50.5c-1.2,30,22.8,54.7,52.6,54.7c7.9,0,15.3-1.7,22-4.8c13.9-6.4,29.8-6.4,43.8,0
						c6.7,3.1,14.1,4.8,22,4.8c7.9,0,15.3-1.7,22-4.8c13.9-6.4,29.8-6.4,43.8,0c6.7,3.1,14.1,4.8,22,4.8
						C373.5,344.1,397.5,319.5,396.3,289.5z"/>
				</g>
			</g>
		</g>
		<g>
			<g>
				<g>
					<path class="st2" d="M396.3,289.5c-0.6-16.6-9.1-31.3-21.8-40.5c0.6,2.9,1,5.9,1.1,8.9c1.2,30-22.8,54.7-52.6,54.7
						c-7.9,0-15.3-1.7-22-4.8c-13.9-6.4-29.8-6.4-43.8,0c-6.7,3.1-14.1,4.8-22,4.8c-7.9,0-15.3-1.7-22-4.8
						c-13.9-6.4-29.8-6.4-43.8,0c-6.7,3.1-14.1,4.8-22,4.8c-11.5,0-22.1-3.7-30.8-10c5.1,23.7,26.2,41.5,51.4,41.5
						c7.9,0,15.3-1.7,22-4.8c13.9-6.4,29.8-6.4,43.8,0c6.7,3.1,14.1,4.8,22,4.8c7.9,0,15.3-1.7,22-4.8c13.9-6.4,29.8-6.4,43.8,0
						c6.7,3.1,14.1,4.8,22,4.8C373.5,344.1,397.5,319.5,396.3,289.5z"/>
				</g>
			</g>
		</g>
		<g>
			<g>
				<g>
					<path class="st0" d="M323.2,319.6v-14c15.6,0,29.9-7.8,38.4-21l11.8,7.6C362.3,309.3,343.5,319.6,323.2,319.6z"/>
				</g>
			</g>
		</g>
		<g>
			<g>
				<g>
					<path class="st5" d="M343.8,351.1c-8.7,0-17.1-1.8-24.9-5.5c-12-5.6-25.9-5.6-37.9,0c-7.8,3.6-16.2,5.5-24.9,5.5
						c-8.7,0-17.1-1.8-24.9-5.5c-12-5.6-25.9-5.6-37.9,0c-7.8,3.6-16.2,5.5-24.9,5.5c-16.4,0-31.6-6.5-42.9-18.3
						c-11.3-11.8-17.2-27.3-16.6-43.7c1.2-30.7,26.1-55.8,56.8-57.2c9.8-0.4,19.7,1.5,28.5,5.8c11.7,5.6,24.8,5.7,35.7,0.3
						c8.2-4.1,17.1-6.1,26.4-6.1c9.2,0,18.1,2.1,26.4,6.1c11,5.4,24,5.3,35.7-0.3c8.8-4.2,18.6-6.2,28.5-5.8
						c30.7,1.4,55.6,26.5,56.8,57.2l0,0c0.6,16.4-5.3,31.9-16.6,43.7C375.4,344.6,360.1,351.1,343.8,351.1z M299.9,327.5
						c8.5,0,16.9,1.8,24.8,5.5c6,2.8,12.4,4.2,19.1,4.2c12.5,0,24.2-5,32.9-14c8.7-9,13.2-20.9,12.7-33.4l0,0
						c-0.9-23.5-20-42.7-43.4-43.7c-7.6-0.3-15,1.1-21.8,4.4c-15.6,7.5-33.1,7.6-48,0.2c-6.3-3.1-13.1-4.7-20.2-4.7
						s-13.9,1.6-20.2,4.7c-14.8,7.3-32.3,7.2-48-0.2c-6.8-3.3-14.2-4.7-21.8-4.4c-23.4,1.1-42.5,20.3-43.4,43.7
						c-0.5,12.5,4,24.4,12.7,33.4c8.7,9,20.3,14,32.9,14c6.7,0,13.1-1.4,19.1-4.2c15.8-7.3,33.9-7.3,49.6,0c6,2.8,12.4,4.2,19.1,4.2
						c6.7,0,13.1-1.4,19.1-4.2C283,329.3,291.4,327.5,299.9,327.5z"/>
				</g>
			</g>
		</g>
		<g>
			<g>
				<g>
					<circle class="st5" cx="158.5" cy="267.8" r="6.4"/>
				</g>
			</g>
		</g>
		<g>
			<g>
				<g>
					<circle class="st5" cx="138.6" cy="285.1" r="6.4"/>
				</g>
			</g>
		</g>
		<g>
			<g>
				<g>
					
						<ellipse transform="matrix(0.9959 -9.034275e-02 9.034275e-02 0.9959 -26.0184 15.1834)" class="st5" cx="154.7" cy="295" rx="6.4" ry="6.4"/>
				</g>
			</g>
		</g>
		<g>
			<g>
				<g>
					<circle class="st5" cx="148.8" cy="314.3" r="6.4"/>
				</g>
			</g>
		</g>
		<g>
			<g>
				<g>
					<circle class="st5" cx="174.5" cy="285.1" r="6.4"/>
				</g>
			</g>
		</g>
		<g>
			<g>
				<g>
					<circle class="st5" cx="174.5" cy="319" r="6.4"/>
				</g>
			</g>
		</g>
	</g>
	<g>
		<g>
			<g>
				<g>
					<circle class="st6" cx="256" cy="226.5" r="58.6"/>
				</g>
			</g>
		</g>
		<g>
			<g>
				<g>
					<g>
						<path class="st5" d="M279.8,257.8c-1.8,0-3.6-0.7-5-2.1c-17.9-18-45.1-45.3-47.6-47.6c-1.5-1.3-2.4-3.2-2.4-5.3
							c0-3.9,3.1-7,7-7c2.9,0,4.1,1.2,7,4.1c1.3,1.3,3.2,3.2,5.5,5.5c4.5,4.5,10.5,10.5,16.5,16.5c12,12,23.9,24,23.9,24
							c2.7,2.7,2.7,7.2,0,9.9C283.4,257.1,281.6,257.8,279.8,257.8z M231.8,209.8C231.8,209.8,231.8,209.8,231.8,209.8
							C231.8,209.8,231.8,209.8,231.8,209.8z M231.8,209.8C231.8,209.8,231.8,209.8,231.8,209.8
							C231.8,209.8,231.8,209.8,231.8,209.8z M231.8,209.8C231.8,209.8,231.8,209.8,231.8,209.8
							C231.8,209.8,231.8,209.8,231.8,209.8z M231.8,209.8C231.8,209.8,231.8,209.8,231.8,209.8
							C231.8,209.8,231.8,209.8,231.8,209.8z M231.7,209.8C231.8,209.8,231.8,209.8,231.7,209.8
							C231.8,209.8,231.8,209.8,231.7,209.8z M231.7,209.8C231.7,209.8,231.7,209.8,231.7,209.8
							C231.7,209.8,231.7,209.8,231.7,209.8z M231.7,209.8C231.7,209.8,231.7,209.8,231.7,209.8
							C231.7,209.8,231.7,209.8,231.7,209.8z M231.7,209.8C231.7,209.8,231.7,209.8,231.7,209.8
							C231.7,209.8,231.7,209.8,231.7,209.8z M231.7,209.8C231.7,209.8,231.7,209.8,231.7,209.8
							C231.7,209.8,231.7,209.8,231.7,209.8z"/>
					</g>
				</g>
			</g>
			<g>
				<g>
					<g>
						<path class="st5" d="M231.8,257.8c-1.8,0-3.6-0.7-4.9-2c-2.7-2.7-2.8-7.2,0-9.9c0,0,11.9-12,23.9-24c6-6,12-12,16.5-16.5
							c2.3-2.3,4.2-4.1,5.5-5.5c2.9-2.9,4.1-4.1,7-4.1c3.9,0,7,3.1,7,7c0,2.1-0.9,4-2.4,5.3c-2.5,2.3-29.7,29.6-47.6,47.6
							C235.4,257.1,233.6,257.8,231.8,257.8z M279.8,209.8C279.8,209.8,279.8,209.8,279.8,209.8
							C279.8,209.8,279.8,209.8,279.8,209.8z M279.8,209.8C279.8,209.8,279.8,209.8,279.8,209.8
							C279.8,209.8,279.8,209.8,279.8,209.8z M279.8,209.8C279.8,209.8,279.8,209.8,279.8,209.8
							C279.8,209.8,279.8,209.8,279.8,209.8z M279.8,209.8C279.8,209.8,279.8,209.8,279.8,209.8
							C279.8,209.8,279.8,209.8,279.8,209.8z M279.8,209.8C279.8,209.8,279.8,209.8,279.8,209.8
							C279.8,209.8,279.8,209.8,279.8,209.8z M279.9,209.8C279.9,209.8,279.8,209.8,279.9,209.8
							C279.8,209.8,279.9,209.8,279.9,209.8z M279.9,209.8C279.9,209.8,279.9,209.8,279.9,209.8
							C279.9,209.8,279.9,209.8,279.9,209.8z M279.9,209.8C279.9,209.8,279.9,209.8,279.9,209.8
							C279.9,209.8,279.9,209.8,279.9,209.8z M279.9,209.8C279.9,209.8,279.9,209.8,279.9,209.8
							C279.9,209.8,279.9,209.8,279.9,209.8z"/>
					</g>
				</g>
			</g>
		</g>
		<g>
			<g>
				<g>
					<path class="st5" d="M256,292.1c-36.2,0-65.6-29.4-65.6-65.6s29.4-65.6,65.6-65.6s65.6,29.4,65.6,65.6S292.2,292.1,256,292.1z
						 M256,174.9c-28.5,0-51.6,23.2-51.6,51.6s23.2,51.6,51.6,51.6c28.5,0,51.6-23.2,51.6-51.6S284.5,174.9,256,174.9z"/>
				</g>
			</g>
		</g>
	</g>
</g>
</svg>
