<?xml version="1.0" encoding="utf-8"?>
<!-- Generator: Adobe Illustrator 22.1.0, SVG Export Plug-In . SVG Version: 6.00 Build 0)  -->
<svg version="1.1" id="Layer_1" xmlns="http://www.w3.org/2000/svg" xmlns:xlink="http://www.w3.org/1999/xlink" x="0px" y="0px"
	 viewBox="0 0 256 256" style="enable-background:new 0 0 256 256;" xml:space="preserve">
<style type="text/css">
	.st0{fill:#F5B31F;}
	.st1{fill:none;stroke:#464646;stroke-width:8;stroke-linecap:round;stroke-linejoin:round;stroke-miterlimit:10;}
	.st2{opacity:0.15;fill:#464646;}
	.st3{fill:#AC6535;}
	.st4{fill:#EB573B;}
	.st5{fill:#90C056;}
	.st6{opacity:0.35;fill:#FFFFFF;}
	.st7{opacity:0.2;fill:#FFFFFF;}
	.st8{fill:#F6D67A;}
	.st9{opacity:0.15;fill:#FFFFFF;}
	.st10{opacity:0.3;fill:#FFFFFF;}
	.st11{fill:#AC6535;stroke:#464646;stroke-width:8;stroke-linecap:round;stroke-linejoin:round;stroke-miterlimit:10;}
	.st12{fill:#EB573B;stroke:#464646;stroke-width:8;stroke-miterlimit:10;}
	.st13{opacity:0.15;}
	.st14{fill:#464646;}
	.st15{fill:#FFA755;}
	.st16{fill:#8FAE3C;}
	.st17{fill:#BE6BB2;}
	.st18{fill:#B7C536;}
	.st19{opacity:0.1;}
	.st20{fill:#9D5A96;}
	.st21{fill:#EA615D;}
	.st22{opacity:0.4;fill:#FFFFFF;}
	.st23{opacity:7.000000e-02;}
	.st24{fill:#F79932;}
	.st25{fill:#FFEC97;}
	.st26{fill:#FFD11D;}
	.st27{opacity:0.2;}
	.st28{fill:#FFFFFF;}
	.st29{fill:#F7F2D5;}
	.st30{fill:#F6AF72;}
	.st31{fill:#BA6C45;}
	.st32{opacity:0.5;fill:#FFFFFF;}
	.st33{fill:#E4C074;}
	.st34{fill:none;stroke:#656566;stroke-width:8;stroke-linecap:round;stroke-linejoin:round;stroke-miterlimit:10;}
	.st35{fill:#FFA755;stroke:#464646;stroke-width:8;stroke-linecap:round;stroke-linejoin:round;stroke-miterlimit:10;}
	.st36{fill:#FFD11D;stroke:#464646;stroke-width:8;stroke-linecap:round;stroke-linejoin:round;stroke-miterlimit:10;}
	.st37{fill:#FACD1F;}
	.st38{fill:#FFDF66;}
	.st39{fill:#FFEC97;stroke:#464646;stroke-width:8;stroke-linecap:round;stroke-linejoin:round;stroke-miterlimit:10;}
	.st40{fill:#FFDF66;stroke:#464646;stroke-width:8;stroke-linecap:round;stroke-linejoin:round;stroke-miterlimit:10;}
	.st41{opacity:0.2;fill:#464646;}
	.st42{fill:#FFFFFF;stroke:#464646;stroke-width:8;stroke-linecap:round;stroke-linejoin:round;stroke-miterlimit:10;}
	.st43{fill:#6D6E71;stroke:#464646;stroke-width:8;stroke-linecap:round;stroke-linejoin:round;stroke-miterlimit:10;}
	.st44{opacity:0.1;fill:#464646;}
	.st45{fill:#E77CAE;}
	.st46{fill:#FFE5C4;}
	.st47{fill:#F68455;stroke:#464646;stroke-width:8;stroke-linecap:round;stroke-linejoin:round;stroke-miterlimit:10;}
	.st48{opacity:0.7;}
	.st49{fill:#ADEDFF;}
	.st50{fill:#EC754B;}
	.st51{fill:#4AA5BA;}
	.st52{opacity:0.5;}
	.st53{opacity:0.8;}
	.st54{fill:#F68455;}
	.st55{fill:#92A5AC;}
	.st56{fill:#6D6E71;}
	.st57{fill:#D06E3C;}
	.st58{fill:#DA4F4B;}
	.st59{fill:#BDF3FF;}
	.st60{fill:#F18BB4;}
	.st61{fill:#F9D97A;}
	.st62{fill:none;}
	.st63{fill:#AF6535;}
	.st64{fill:#B93226;}
	.st65{fill:#FF6050;}
	.st66{fill:#D06E3C;stroke:#464646;stroke-miterlimit:10;}
	.st67{fill:#EA7CB1;}
	.st68{fill:none;stroke:#6D6E71;stroke-width:10;stroke-linecap:round;stroke-linejoin:round;stroke-miterlimit:10;}
	.st69{fill:#00B0E0;}
	.st70{fill:#EA7DAE;}
	.st71{opacity:0.1;fill:#FFFFFF;}
	.st72{fill:#BC7532;}
	.st73{fill:#876C6C;}
	.st74{fill:#F9F6CD;}
	.st75{fill:#FFE37B;}
	.st76{fill:#1DDCFF;}
	.st77{fill:#60ACF7;}
	.st78{fill:#C3755A;}
	.st79{fill:#96557A;}
	.st80{fill:#66625D;}
	.st81{fill:#D68032;}
	.st82{opacity:0.8;fill:#FFFFFF;}
	.st83{fill:#F2A355;}
	.st84{fill:#7E9E6A;}
	.st85{opacity:0.3;}
	.st86{fill:#965A85;}
	.st87{opacity:0.7;fill:#FFFFFF;}
	.st88{fill:#90CAD3;}
	.st89{fill:#94B57F;}
	.st90{fill:#B2E2E7;}
	.st91{fill:#FFDF8F;}
	.st92{fill:#FFFAEB;}
	.st93{fill:#F88916;}
	.st94{fill:#FFC86E;}
	.st95{fill:#AFA51D;}
	.st96{fill:#968A1C;}
	.st97{fill:#C3556D;}
</style>
<g>
	<path class="st16" d="M125.1,31.8c-0.2,0.3-0.4,0.6-0.5,0.8c-0.2,0.3-0.4,0.6-0.5,0.9c0,0,0,0,0,0c-0.3,0.5-0.6,1-0.8,1.5
		c-2.7,1.4-6,3.3-8.7,5.3c-0.2,0.1-0.4,0.3-0.6,0.4h0C102.7,49.2,82.4,61.5,57,64.7c-39.4,5-48.7,18-53,15.9
		c-0.8-18,34-40.3,75.6-47.1c1.2-0.2,2.3-0.4,3.5-0.5c2-0.3,4-0.5,6-0.7c0.5-0.1,1.1-0.1,1.6-0.2l1.6-0.1c0.6,0,1.1-0.1,1.7-0.1
		c0.4,0,0.9-0.1,1.3-0.1c0.4,0,0.7,0,1.1-0.1c0.6,0,1.3-0.1,1.9-0.1c0.5,0,0.9,0,1.4-0.1c0.5,0,1,0,1.5,0c0.3,0,0.7,0,1,0
		C109.2,31.3,118.1,31.2,125.1,31.8z"/>
	<path class="st7" d="M123.2,35.1c0.3-0.5,0.5-1,0.8-1.5c0,0,0,0,0,0c0.2-0.3,0.3-0.6,0.5-0.9c0.2-0.3,0.4-0.6,0.5-0.8
		c-6.9-0.6-15.9-0.6-22.8-0.4c-0.3,0-0.7,0-1,0c-0.5,0-1,0-1.5,0c-0.5,0-0.9,0-1.4,0.1c-0.6,0-1.3,0.1-1.9,0.1c-0.4,0-0.7,0-1.1,0.1
		c-0.4,0-0.9,0.1-1.3,0.1c-0.6,0-1.1,0.1-1.7,0.1l-1.6,0.1c-0.5,0.1-1.1,0.1-1.6,0.2c-2,0.2-4,0.5-6,0.7c-1.2,0.2-2.4,0.3-3.5,0.5
		C38.1,40.3,3.2,62.6,4,80.6c0,0,8.8-20.1,50.5-33.6S123.2,35.1,123.2,35.1z"/>
	<g>
		<path class="st16" d="M126.6,30.7c-0.3,0.4-0.6,0.8-0.8,1.2c-6.9-0.6-15.9-0.6-22.8-0.4c-0.3,0-0.7,0-1,0c-0.5,0-1,0-1.5,0
			c-0.5,0-0.9,0-1.4,0.1c-0.6,0-1.3,0.1-1.9,0.1c-0.4,0-0.7,0-1.1,0.1c-0.4,0-0.9,0.1-1.3,0.1c-0.6,0-1.1,0.1-1.7,0.1l-1.6,0.1
			c-0.5,0.1-1.1,0.1-1.6,0.2c-2,0.2-4,0.4-6,0.7c-1.2,0.2-2.4,0.3-3.5,0.5c-25.1-9.5-35.1-5-37.1-7.8
			C50.4,11.3,93.2,11.7,126.6,30.7z"/>
	</g>
	<g class="st19">
		<path d="M61.9,28.4c15.8-3.1,30.4-2.7,49.9-1.6l5.8,5.5l-45.3-1.8L61.9,28.4z"/>
		<path d="M73.6,39.1c-2.9,0.3-5.7,0.6-8.5,1C68,39.8,70.8,39.4,73.6,39.1z"/>
	</g>
	<path class="st1" d="M125.1,31.8c-0.2,0.3-0.4,0.6-0.5,0.8c-0.2,0.3-0.4,0.6-0.5,0.9c0,0,0,0,0,0c-0.3,0.5-0.6,1-0.8,1.5
		c-2.7,1.4-6,3.3-8.7,5.3c-0.2,0.1-0.4,0.3-0.6,0.4h0C102.7,49.2,82.4,61.5,57,64.7c-39.4,5-48.7,18-53,15.9
		c-0.8-18,34-40.3,75.6-47.1c1.2-0.2,2.3-0.4,3.5-0.5c2-0.3,4-0.5,6-0.7c0.5-0.1,1.1-0.1,1.6-0.2l1.6-0.1c0.6,0,1.1-0.1,1.7-0.1
		c0.4,0,0.9-0.1,1.3-0.1c0.4,0,0.7,0,1.1-0.1c0.6,0,1.3-0.1,1.9-0.1c0.5,0,0.9,0,1.4-0.1c0.5,0,1,0,1.5,0c0.3,0,0.7,0,1,0
		C109.2,31.3,118.1,31.2,125.1,31.8z"/>
	<g>
		<path class="st1" d="M125.9,30.7c-0.3,0.4-0.6,0.8-0.8,1.2c-6.9-0.6-15.9-0.6-22.8-0.4c-0.3,0-0.7,0-1,0c-0.5,0-1,0-1.5,0
			c-0.5,0-0.9,0-1.4,0.1c-0.6,0-1.3,0.1-1.9,0.1c-0.4,0-0.7,0-1.1,0.1c-0.4,0-0.9,0.1-1.3,0.1c-0.6,0-1.1,0.1-1.7,0.1l-1.6,0.1
			c-0.5,0.1-1.1,0.1-1.6,0.2c-2,0.2-4,0.4-6,0.7c-1.2,0.2-2.4,0.3-3.5,0.5c-25.1-9.5-35.1-5-37.1-7.8
			C49.7,11.3,92.5,11.7,125.9,30.7z"/>
	</g>
	<path class="st95" d="M248.6,133.8c-7.7,24.9-38.4,33.7-67.6,28.2c8.5-21.2,2.1-36.3-7.2-53.6C155.2,80,125.3,76.4,97.3,83.2
		c-0.6-11.9,1.8-23.5,6.1-33.8c1.1-2.8,2.4-5.4,3.8-8c0.4-0.7,0.8-1.4,1.2-2.1c0,0,0,0,0-0.1c0.2-0.4,0.5-0.8,0.7-1.3
		c0.3-0.4,0.5-0.8,0.8-1.2c0.4-0.6,0.8-1.1,1.2-1.7c20-27.3,67.2-22.7,99.4-3.5C253.8,60.1,256.3,108.9,248.6,133.8z"/>
	<path class="st19" d="M181,162c29.2,5.4,59.8-3.3,67.6-28.2s5.2-73.7-38.1-102.1C196.7,23.5,180,17.9,164,16.4
		c0,0,78.1,28.8,71.3,89.7S181,162,181,162z"/>
	<path class="st19" d="M193.2,163.5c-4-0.2-8.1-0.7-12.2-1.4c8.5-21.2,2.1-36.3-7.2-53.6C155.2,80,125.3,76.4,97.3,83.2
		c-0.2-4.6-0.4-6.2,0.2-10.6C174.6,64.5,204.5,107.8,193.2,163.5z"/>
	<path class="st96" d="M79.3,216.7c-18.9,15-58.2-36.4-39.3-51.4C62.1,147.8,101.4,199.2,79.3,216.7z"/>
	<path class="st19" d="M71.6,218.4c36.7-12.3-7.5-71.3-37.9-48.9C54.4,160.2,91.1,197.9,71.6,218.4z"/>
	<path class="st95" d="M173.9,108.5C155.2,80,125.3,76.4,97.3,83.2c-16.8,4.1-33,12.1-45.5,20.7c-33.3,22.9-49.4,56.3-30.7,92.6
		c18.7,36.3,60.2,67.4,118.9,18.7c22.8-22,35.3-38.9,41-53.1C189.6,140.9,183.2,125.7,173.9,108.5z M79.3,216.7
		c-18.9,15-58.2-36.4-39.3-51.4C62.1,147.8,101.4,199.2,79.3,216.7z"/>
	<path class="st7" d="M97.3,83.2c-16.8,4.1-33,12.1-45.5,20.7c-33.3,22.9-49.4,56.3-30.7,92.6c0,0-3.8-36.2,12.6-60.3
		S97.3,83.2,97.3,83.2z"/>
	<path class="st19" d="M21.1,196.5c18.7,36.3,60.2,67.4,118.9,18.7c22.8-22,35.3-38.9,41-53.1c8.5-21.2,2.1-36.3-7.2-53.6
		C155.2,80,125.3,76.4,97.3,83.2c60.1,5.5,92.2,38.8,51.2,103.2S55.8,231.6,21.1,196.5z"/>
	<path class="st34" d="M79.3,216.7c-18.9,15-58.2-36.4-39.3-51.4C62.1,147.8,101.4,199.2,79.3,216.7z"/>
	<path class="st1" d="M173.9,108.5C155.2,80,125.3,76.4,97.3,83.2c-16.8,4.1-33,12.1-45.5,20.7c-33.3,22.9-49.4,56.3-30.7,92.6
		c18.7,36.3,60.2,67.4,118.9,18.7c22.8-22,35.3-38.9,41-53.1C189.6,140.9,183.2,125.7,173.9,108.5z M79.3,216.7
		c-18.9,15-58.2-36.4-39.3-51.4C62.1,147.8,101.4,199.2,79.3,216.7z"/>
	<path class="st1" d="M79.3,216.7c-18.9,15-58.2-36.4-39.3-51.4C62.1,147.8,101.4,199.2,79.3,216.7z"/>
	<path class="st1" d="M248.6,133.8c-7.7,24.9-38.4,33.7-67.6,28.2c8.5-21.2,2.1-36.3-7.2-53.6C155.2,80,125.3,76.4,97.3,83.2
		c-0.6-11.9,1.8-23.5,6.1-33.8c1.1-2.8,2.4-5.4,3.8-8c0.4-0.7,0.8-1.4,1.2-2.1c0,0,0,0,0-0.1c0.2-0.4,0.5-0.8,0.7-1.3
		c0.3-0.4,0.5-0.8,0.8-1.2c0.4-0.6,0.8-1.1,1.2-1.7c20-27.3,67.2-22.7,99.4-3.5C253.8,60.1,256.3,108.9,248.6,133.8z"/>
</g>
</svg>
