<?xml version="1.0" encoding="utf-8"?>
<!-- Generator: Adobe Illustrator 21.1.0, SVG Export Plug-In . SVG Version: 6.00 Build 0)  -->
<svg version="1.1" id="Icon_Set" xmlns="http://www.w3.org/2000/svg" xmlns:xlink="http://www.w3.org/1999/xlink" x="0px" y="0px"
	 viewBox="0 0 512 512" style="enable-background:new 0 0 512 512;" xml:space="preserve">
<style type="text/css">
	.st0{fill:#FFFFFF;}
	.st1{fill:#5B7C31;}
	.st2{fill:#E56823;}
	.st3{fill:#FE8E46;}
	.st4{fill:#7DAC51;}
	.st5{fill:#463218;}
	.st6{fill:#FEFE71;}
	.st7{fill:#D6CD1E;}
	.st8{fill:none;stroke:#FFFFFF;stroke-width:14;stroke-miterlimit:10;}
	.st9{fill:none;stroke:#463218;stroke-width:14;stroke-linecap:round;stroke-linejoin:round;stroke-miterlimit:10;}
</style>
<g id="Onigiri">
	<g>
		<g>
			<g>
				<path class="st6" d="M385.9,311.1l-75.3-133.6c-8.3-14.7-23.9-23.8-40.8-23.8h-27.7c-16.9,0-32.5,9.1-40.8,23.8l-75.3,133.6
					c-14.1,28.2-8.5,62.3,13.9,84.6l0,0c8.7,8.6,20.5,13.5,32.8,13.5H256v0l0,0h83.2c12.3,0,24-4.8,32.8-13.5l0,0
					C394.4,373.4,400.1,339.3,385.9,311.1z"/>
			</g>
		</g>
	</g>
	<g>
		<g>
			<g>
				<g>
					<polygon class="st7" points="299.9,409.1 299.9,409.1 299.9,409.1 					"/>
				</g>
			</g>
		</g>
		<g>
			<g>
				<g>
					<path class="st7" d="M169.9,311.1l75.3-133.6c7-12.3,19-20.7,32.7-23.1c-2.6-0.5-5.3-0.7-8.1-0.7h-27.7
						c-16.9,0-32.5,9.1-40.8,23.8l-75.3,133.6c-14.1,28.2-8.5,62.3,13.9,84.6c8.7,8.6,20.5,13.5,32.8,13.5h43.9
						c-12.3,0-24-4.8-32.8-13.5C161.4,373.4,155.8,339.3,169.9,311.1z"/>
				</g>
			</g>
		</g>
	</g>
	<g>
		<g>
			<g>
				<path class="st5" d="M339.2,416.1H256h0h0h-83.2c-14.2,0-27.6-5.5-37.7-15.5c-24.6-24.4-30.8-61.6-15.3-92.7
					c0.1-0.1,0.1-0.2,0.2-0.3L195.3,174c9.5-16.9,27.5-27.4,46.9-27.4h27.7c19.4,0,37.4,10.5,46.9,27.4L392,307.6
					c0.1,0.1,0.1,0.2,0.2,0.3c15.5,31,9.4,68.3-15.3,92.7C366.8,410.6,353.5,416.1,339.2,416.1z M256.3,402.1h82.9
					c10.5,0,20.4-4.1,27.8-11.5c20.3-20.1,25.4-50.7,12.7-76.3l-75.2-133.5c-7-12.5-20.3-20.3-34.7-20.3h-27.7
					c-14.4,0-27.6,7.8-34.7,20.3l-75.2,133.5c-12.7,25.6-7.6,56.2,12.7,76.3c7.5,7.4,17.3,11.5,27.8,11.5h82.9
					C255.9,402.1,256.1,402.1,256.3,402.1z"/>
			</g>
		</g>
	</g>
	<g>
		<g>
			<g>
				<polygon class="st4" points="195.7,409.1 256,409.1 256,409.1 256,409.1 316.3,409.1 316.3,285.5 195.7,285.5 				"/>
			</g>
		</g>
	</g>
	<g>
		<g>
			<g>
				<polygon class="st1" points="195.7,409.1 225.8,409.1 225.8,409.1 225.8,409.1 256,409.1 256,285.5 195.7,285.5 				"/>
			</g>
		</g>
	</g>
	<g>
		<g>
			<g>
				<path class="st5" d="M316.3,416.1H256h0h0h-60.3c-3.9,0-7-3.1-7-7V285.5c0-3.9,3.1-7,7-7h120.7c3.9,0,7,3.1,7,7v123.6
					C323.3,413,320.2,416.1,316.3,416.1z M256.3,402.1h53V292.5H202.7v109.6h53C255.9,402.1,256.1,402.1,256.3,402.1z"/>
			</g>
		</g>
	</g>
	<g>
		<g>
			<g>
				<circle class="st7" cx="284.8" cy="210.7" r="7.6"/>
			</g>
		</g>
	</g>
	<g>
		<g>
			<g>
				<circle class="st7" cx="258.6" cy="210.7" r="7.6"/>
			</g>
		</g>
	</g>
	<g>
		<g>
			<g>
				<circle class="st7" cx="297.9" cy="237.2" r="7.6"/>
			</g>
		</g>
	</g>
	<g>
		<g>
			<g>
				<circle class="st7" cx="243.4" cy="237.2" r="7.6"/>
			</g>
		</g>
	</g>
	<g>
		<g>
			<g>
				<circle class="st7" cx="271.7" cy="237.2" r="7.6"/>
			</g>
		</g>
	</g>
	<g>
		<g>
			<g>
				<rect x="277.8" y="315" class="st0" width="14" height="32.3"/>
			</g>
		</g>
	</g>
	<g>
		<g>
			<g>
				<rect x="277.8" y="356.2" class="st0" width="14" height="16.1"/>
			</g>
		</g>
	</g>
</g>
</svg>
