<?xml version="1.0" encoding="utf-8"?>
<!-- Generator: Adobe Illustrator 21.1.0, SVG Export Plug-In . SVG Version: 6.00 Build 0)  -->
<svg version="1.1" id="Icon_Set" xmlns="http://www.w3.org/2000/svg" xmlns:xlink="http://www.w3.org/1999/xlink" x="0px" y="0px"
	 viewBox="0 0 512 512" style="enable-background:new 0 0 512 512;" xml:space="preserve">
<style type="text/css">
	.st0{fill:#FFFFFF;}
	.st1{fill:#5B7C31;}
	.st2{fill:#E56823;}
	.st3{fill:#FE8E46;}
	.st4{fill:#7DAC51;}
	.st5{fill:#463218;}
	.st6{fill:#FEFE71;}
	.st7{fill:#D6CD1E;}
	.st8{fill:none;stroke:#FFFFFF;stroke-width:14;stroke-miterlimit:10;}
	.st9{fill:none;stroke:#463218;stroke-width:14;stroke-linecap:round;stroke-linejoin:round;stroke-miterlimit:10;}
</style>
<g id="Onion_Ring">
	<g>
		<g>
			<g>
				<path class="st6" d="M256,140.3c-63.9,0-115.7,51.8-115.7,115.7S192.1,371.7,256,371.7S371.7,319.9,371.7,256
					S319.9,140.3,256,140.3z M266.5,334.2c-43.2,0-78.2-35-78.2-78.2s35-78.2,78.2-78.2c43.2,0,78.2,35,78.2,78.2
					S309.7,334.2,266.5,334.2z"/>
			</g>
		</g>
	</g>
	<g>
		<g>
			<g>
				<path class="st7" d="M256,333.5c-38.2-5.1-67.7-37.8-67.7-77.5c0-25.8,12.5-48.6,31.7-62.9l-21.2-37.8
					c-35,19.9-58.6,57.5-58.6,100.7c0,63.9,51.8,115.7,115.7,115.7h0V333.5z"/>
			</g>
		</g>
	</g>
	<g>
		<g>
			<g>
				<path class="st5" d="M256,378.7c-67.7,0-122.7-55.1-122.7-122.7S188.3,133.3,256,133.3S378.7,188.3,378.7,256
					S323.7,378.7,256,378.7z M256,147.3c-60,0-108.7,48.8-108.7,108.7S196,364.7,256,364.7S364.7,316,364.7,256S316,147.3,256,147.3
					z"/>
			</g>
		</g>
	</g>
	<g>
		<g>
			<g>
				<path class="st5" d="M266.5,341.2c-47,0-85.2-38.2-85.2-85.2s38.2-85.2,85.2-85.2c47,0,85.2,38.2,85.2,85.2
					S313.5,341.2,266.5,341.2z M266.5,184.8c-39.3,0-71.2,31.9-71.2,71.2s31.9,71.2,71.2,71.2c39.3,0,71.2-31.9,71.2-71.2
					S305.8,184.8,266.5,184.8z"/>
			</g>
		</g>
	</g>
	<g>
		<g>
			<g>
				<path class="st5" d="M371.7,263h-27c-3.9,0-7-3.1-7-7s3.1-7,7-7h27c3.9,0,7,3.1,7,7S375.6,263,371.7,263z"/>
			</g>
		</g>
	</g>
	<g>
		<g>
			<g>
				<path class="st5" d="M332.8,218.7c-2.4,0-4.8-1.3-6.1-3.5c-1.9-3.3-0.8-7.6,2.6-9.6l23.4-13.5c3.3-1.9,7.6-0.8,9.6,2.6
					c1.9,3.3,0.8,7.6-2.6,9.6l-23.4,13.5C335.2,218.4,334,218.7,332.8,218.7z"/>
			</g>
		</g>
	</g>
	<g>
		<g>
			<g>
				<path class="st5" d="M300.3,186.2c-1.2,0-2.4-0.3-3.5-0.9c-3.3-1.9-4.5-6.2-2.6-9.6l13.5-23.4c1.9-3.3,6.2-4.5,9.6-2.6
					c3.3,1.9,4.5,6.2,2.6,9.6l-13.5,23.4C305.1,184.9,302.8,186.2,300.3,186.2z"/>
			</g>
		</g>
	</g>
	<g>
		<g>
			<g>
				<path class="st5" d="M256,185.5c-3.9,0-7-3.1-7-7v-38.2c0-3.9,3.1-7,7-7s7,3.1,7,7v38.2C263,182.4,259.9,185.5,256,185.5z"/>
			</g>
		</g>
	</g>
	<g>
		<g>
			<g>
				<path class="st5" d="M219.8,200.3c-2.4,0-4.8-1.3-6.1-3.5l-21.7-37.5c-1.9-3.3-0.8-7.6,2.6-9.6c3.3-1.9,7.6-0.8,9.6,2.6
					l21.7,37.5c1.9,3.3,0.8,7.6-2.6,9.6C222.2,200,221,200.3,219.8,200.3z"/>
			</g>
		</g>
	</g>
	<g>
		<g>
			<g>
				<path class="st5" d="M188.3,263h-48c-3.9,0-7-3.1-7-7s3.1-7,7-7h48c3.9,0,7,3.1,7,7S192.2,263,188.3,263z"/>
			</g>
		</g>
	</g>
	<g>
		<g>
			<g>
				<path class="st5" d="M155.8,320.9c-2.4,0-4.8-1.3-6.1-3.5c-1.9-3.3-0.8-7.6,2.6-9.6l40.5-23.4c3.3-1.9,7.6-0.8,9.6,2.6
					c1.9,3.3,0.8,7.6-2.6,9.6l-40.5,23.4C158.2,320.6,157,320.9,155.8,320.9z"/>
			</g>
		</g>
	</g>
	<g>
		<g>
			<g>
				<path class="st5" d="M198.1,363.2c-1.2,0-2.4-0.3-3.5-0.9c-3.3-1.9-4.5-6.2-2.6-9.6l21.7-37.5c1.9-3.3,6.2-4.5,9.6-2.6
					c3.3,1.9,4.5,6.2,2.6,9.6l-21.7,37.5C202.9,362,200.5,363.2,198.1,363.2z"/>
			</g>
		</g>
	</g>
	<g>
		<g>
			<g>
				<path class="st5" d="M256,378.7c-3.9,0-7-3.1-7-7v-37.5c0-3.9,3.1-7,7-7s7,3.1,7,7v37.5C263,375.6,259.9,378.7,256,378.7z"/>
			</g>
		</g>
	</g>
	<g>
		<g>
			<g>
				<path class="st5" d="M313.9,363.2c-2.4,0-4.8-1.3-6.1-3.5l-13.5-23.4c-1.9-3.3-0.8-7.6,2.6-9.6c3.3-1.9,7.6-0.8,9.6,2.6
					l13.5,23.4c1.9,3.3,0.8,7.6-2.6,9.6C316.3,362.9,315.1,363.2,313.9,363.2z"/>
			</g>
		</g>
	</g>
	<g>
		<g>
			<g>
				<path class="st5" d="M356.2,320.9c-1.2,0-2.4-0.3-3.5-0.9l-23.4-13.5c-3.3-1.9-4.5-6.2-2.6-9.6c1.9-3.3,6.2-4.5,9.6-2.6
					l23.4,13.5c3.3,1.9,4.5,6.2,2.6,9.6C361,319.6,358.6,320.9,356.2,320.9z"/>
			</g>
		</g>
	</g>
	<g>
		<g>
			<g>
				<path class="st0" d="M174.3,235.7l-13.8-2.1c4.6-29.7,24.6-50.6,25.5-51.5l10,9.8C195.8,192,178.2,210.5,174.3,235.7z"/>
			</g>
		</g>
	</g>
</g>
</svg>
