<?xml version="1.0" encoding="utf-8"?>
<!-- Generator: Adobe Illustrator 22.1.0, SVG Export Plug-In . SVG Version: 6.00 Build 0)  -->
<svg version="1.1" id="Layer_1" xmlns="http://www.w3.org/2000/svg" xmlns:xlink="http://www.w3.org/1999/xlink" x="0px" y="0px"
	 viewBox="0 0 256 256" style="enable-background:new 0 0 256 256;" xml:space="preserve">
<style type="text/css">
	.st0{fill:#F5B31F;}
	.st1{fill:none;stroke:#464646;stroke-width:8;stroke-linecap:round;stroke-linejoin:round;stroke-miterlimit:10;}
	.st2{opacity:0.15;fill:#464646;}
	.st3{fill:#AC6535;}
	.st4{fill:#EB573B;}
	.st5{fill:#90C056;}
	.st6{opacity:0.35;fill:#FFFFFF;}
	.st7{opacity:0.2;fill:#FFFFFF;}
	.st8{fill:#F6D67A;}
	.st9{opacity:0.15;fill:#FFFFFF;}
	.st10{opacity:0.3;fill:#FFFFFF;}
	.st11{fill:#AC6535;stroke:#464646;stroke-width:8;stroke-linecap:round;stroke-linejoin:round;stroke-miterlimit:10;}
	.st12{fill:#EB573B;stroke:#464646;stroke-width:8;stroke-miterlimit:10;}
	.st13{opacity:0.15;}
	.st14{fill:#464646;}
	.st15{fill:#FFA755;}
	.st16{fill:#8FAE3C;}
	.st17{fill:#BE6BB2;}
	.st18{fill:#B7C536;}
	.st19{opacity:0.1;}
	.st20{fill:#9D5A96;}
	.st21{fill:#EA615D;}
	.st22{opacity:0.4;fill:#FFFFFF;}
	.st23{opacity:7.000000e-02;}
	.st24{fill:#F79932;}
	.st25{fill:#FFEC97;}
	.st26{fill:#FFD11D;}
	.st27{opacity:0.2;}
	.st28{fill:#FFFFFF;}
	.st29{fill:#F7F2D5;}
	.st30{fill:#F6AF72;}
	.st31{fill:#BA6C45;}
	.st32{opacity:0.5;fill:#FFFFFF;}
	.st33{fill:#E4C074;}
	.st34{fill:none;stroke:#656566;stroke-width:8;stroke-linecap:round;stroke-linejoin:round;stroke-miterlimit:10;}
	.st35{fill:#FFA755;stroke:#464646;stroke-width:8;stroke-linecap:round;stroke-linejoin:round;stroke-miterlimit:10;}
	.st36{fill:#FFD11D;stroke:#464646;stroke-width:8;stroke-linecap:round;stroke-linejoin:round;stroke-miterlimit:10;}
	.st37{fill:#FACD1F;}
	.st38{fill:#FFDF66;}
	.st39{fill:#FFEC97;stroke:#464646;stroke-width:8;stroke-linecap:round;stroke-linejoin:round;stroke-miterlimit:10;}
	.st40{fill:#FFDF66;stroke:#464646;stroke-width:8;stroke-linecap:round;stroke-linejoin:round;stroke-miterlimit:10;}
	.st41{opacity:0.2;fill:#464646;}
	.st42{fill:#FFFFFF;stroke:#464646;stroke-width:8;stroke-linecap:round;stroke-linejoin:round;stroke-miterlimit:10;}
	.st43{fill:#6D6E71;stroke:#464646;stroke-width:8;stroke-linecap:round;stroke-linejoin:round;stroke-miterlimit:10;}
	.st44{opacity:0.1;fill:#464646;}
	.st45{fill:#E77CAE;}
	.st46{fill:#FFE5C4;}
	.st47{fill:#F68455;stroke:#464646;stroke-width:8;stroke-linecap:round;stroke-linejoin:round;stroke-miterlimit:10;}
	.st48{opacity:0.7;}
	.st49{fill:#ADEDFF;}
	.st50{fill:#EC754B;}
	.st51{fill:#4AA5BA;}
	.st52{opacity:0.5;}
	.st53{opacity:0.8;}
	.st54{fill:#F68455;}
	.st55{fill:#92A5AC;}
	.st56{fill:#6D6E71;}
	.st57{fill:#D06E3C;}
	.st58{fill:#DA4F4B;}
	.st59{fill:#BDF3FF;}
	.st60{fill:#F18BB4;}
	.st61{fill:#F9D97A;}
	.st62{fill:none;}
	.st63{fill:#AF6535;}
	.st64{fill:#B93226;}
	.st65{fill:#FF6050;}
	.st66{fill:#D06E3C;stroke:#464646;stroke-miterlimit:10;}
	.st67{fill:#EA7CB1;}
	.st68{fill:none;stroke:#6D6E71;stroke-width:10;stroke-linecap:round;stroke-linejoin:round;stroke-miterlimit:10;}
	.st69{fill:#00B0E0;}
	.st70{fill:#EA7DAE;}
	.st71{opacity:0.1;fill:#FFFFFF;}
	.st72{fill:#BC7532;}
	.st73{fill:#876C6C;}
	.st74{fill:#F9F6CD;}
	.st75{fill:#FFE37B;}
	.st76{fill:#1DDCFF;}
	.st77{fill:#60ACF7;}
	.st78{fill:#C3755A;}
	.st79{fill:#96557A;}
	.st80{fill:#66625D;}
	.st81{fill:#D68032;}
	.st82{opacity:0.8;fill:#FFFFFF;}
	.st83{fill:#F2A355;}
	.st84{fill:#7E9E6A;}
	.st85{opacity:0.3;}
	.st86{fill:#965A85;}
	.st87{opacity:0.7;fill:#FFFFFF;}
	.st88{fill:#90CAD3;}
	.st89{fill:#94B57F;}
	.st90{fill:#B2E2E7;}
	.st91{fill:#FFDF8F;}
	.st92{fill:#FFFAEB;}
	.st93{fill:#F88916;}
	.st94{fill:#FFC86E;}
	.st95{fill:#AFA51D;}
	.st96{fill:#968A1C;}
	.st97{fill:#C3556D;}
</style>
<g>
	<g>
		<g>
			<path class="st55" d="M146,82.6c-2.2,6.4-5.4,18.5-9.2,32.8c7.5-36.1-23.5-64.4-32.8-69.3s-19.8-4-27.4-2.6
				c-7.5,1.4-12.8,12.3-21.3,15c-8.5,2.7-14.8,4.8-20.6,7.5c-10.4,4.8-21.5,35.7-17.1,58.3c-10.5-29-14.6-56.2-9-65
				c5.5-8.7,10.9-19,20.7-29.8c9.8-10.8,29.4-26.3,53-25.5c23.6,0.8,31.8,2.4,45.4,16.2C141.5,33.9,153.8,59.3,146,82.6z"/>
		</g>
		<g class="st52">
			<path class="st28" d="M127.9,20.1C114.2,6.3,106.1,4.7,82.4,3.9c-23.6-0.8-43.3,14.7-53,25.5C19.6,40.3,14.2,50.6,8.7,59.3
				c-5.5,8.8-9.5,8.9,0.9,37.9c0,0,3-58,54.8-78.2S127.9,20.1,127.9,20.1L127.9,20.1z"/>
		</g>
		<g class="st19">
			<path d="M141.3,103.8c-3.1,11.6-16.2,29.3-19.8,41.9c1.4-24.8-6.1-65.7-38.7-62.6c-9.4,1.2-11,6.4-20.4,9.1
				c-9.4,2.7-15.9,3.1-20.3,7.6c-9.3,12-19.6,35.8-9.3,60.7c-5.7-9.5-10.9-19.8-15.2-30.2c-1.8-4.3-3.5-8.7-5.1-13
				C8.1,94.7,19.2,63.9,29.6,59c5.7-2.7,12.1-4.8,20.6-7.5s13.8-13.6,21.3-15C79,35.1,96.7,34.2,106,39S148.8,67.7,141.3,103.8z"/>
		</g>
		<g>
			<path class="st55" d="M136.9,115.4c-3.1,11.6-6.6,24.6-10.1,37.3c1.4-24.8-6.1-65.7-38.7-62.6c-9.4,1.2-11,6.4-20.4,9.1
				c-9.4,2.7-15.9,3.1-20.3,7.6c-9.3,12-19.6,35.8-9.3,60.7c-5.7-9.5-10.9-19.8-15.2-30.2c-1.8-4.3-3.5-8.7-5.1-13
				c-4.4-22.6,6.6-53.5,17.1-58.3c5.7-2.7,12.1-4.8,20.6-7.5c8.5-2.7,13.8-13.6,21.3-15c7.5-1.4,18.1-2.3,27.4,2.6
				S144.4,79.3,136.9,115.4z"/>
		</g>
		<g class="st52">
			<path class="st28" d="M129,72.6c-8.2-14.1-19.8-23.8-24.9-26.5c-9.3-4.9-19.8-4-27.4-2.6c-7.5,1.4-12.8,12.3-21.3,15
				c-8.5,2.7-14.8,4.8-20.6,7.5c-10.4,4.8-21.5,35.7-17.1,58.3c1.6,4.3,3.3,8.7,5.1,13c0,0,4.5-46.9,13.6-58.8
				C39.1,75,49,68,60.4,67c7.4-0.7,15.9-17.5,24.1-17.2C107,50.6,129,72.6,129,72.6z"/>
		</g>
		<g class="st19">
			<path d="M129.9,127.4c-3.6,12.6-17.2,43.8-20.8,53.7c13.9-42.7-22.9-50.5-30.2-48.8c-7.8,1.8-17.5,7-22.9,28.4
				c-5.4,21.4,31.3,44.9,31.3,44.9c-21.1,0.4-40.7-19-56-44.2c0,0,0,0,0,0c-10.3-24.9,0-48.7,9.3-60.7c4.4-4.5,10.9-4.9,20.3-7.6
				c9.4-2.7,11.1-7,20.4-9.1C113.6,76.7,131.3,101.7,129.9,127.4z"/>
		</g>
		<g>
			<path class="st55" d="M126.7,152.6c-3.6,12.6-7.3,24.7-10.9,34.6c13.9-42.7-22.9-50.5-30.2-48.8c-7.8,1.8-17.5,7-22.9,28.4
				C57.4,188.3,94,211.7,94,211.7c-21.1,0.4-40.7-19-56-44.2c0,0,0,0,0,0c-10.3-24.9,0-48.7,9.3-60.7c4.4-4.5,10.9-4.9,20.3-7.6
				c9.4-2.7,11-7.9,20.4-9.1C120.7,86.9,128.2,127.8,126.7,152.6z"/>
		</g>
		<g class="st52">
			<path class="st28" d="M120.2,110.9c-5.8-12.9-15.8-22.4-32.1-20.8c-9.4,1.2-11,6.4-20.4,9.1c-9.4,2.7-15.9,3.1-20.3,7.6
				c-9.3,12-19.6,35.8-9.3,60.7c0,0,0,0,0,0c0,0,8-48.3,17-53.5c9-5.2,10.2-3.6,18.7-6.8c8.7-3.3,8.8-7.6,18.3-7.7
				C101.7,99.4,120.2,110.9,120.2,110.9z"/>
		</g>
		<g class="st19">
			<path d="M117.3,188.3c17-52-25.7-60.7-34.5-58.6c-9.5,2.2-21.3,8.5-27.9,34.6c-6.6,26.1,36.5,44.9,36.5,44.9L117.3,188.3z"/>
		</g>
		<g>
			<path class="st55" d="M115.9,187.2C115.9,187.3,115.9,187.3,115.9,187.2c-1.3,3.5-2.5,6.8-3.8,9.6c0,0.1-0.1,0.1-0.1,0.2
				c-3.1,7.1-6,12-8.5,13.2c-3.2,1-6.3,1.5-9.4,1.5c0,0-36.7-23.4-31.3-44.9c5.4-21.4,15-26.6,22.9-28.4
				C92.9,136.7,129.8,144.6,115.9,187.2z"/>
		</g>
		<g class="st52">
			<path class="st28" d="M115.8,155.1c-7.4-14.7-25.3-17.8-30.1-16.6c-7.8,1.8-17.5,7-22.9,28.4c-1.8,7,1,14.3,5.5,20.8
				c0,0-1.9-23.2,12.8-36.3S115.8,155.1,115.8,155.1z"/>
		</g>
		<g>
			<path class="st55" d="M22.8,137.3c-2.5-3.7-4.1-8.2-5.1-13L22.8,137.3z"/>
		</g>
		<g>
			<g>
				<path class="st1" d="M146,82.6c-2.2,6.4-5.4,18.5-9.2,32.8c7.5-36.1-23.5-64.4-32.8-69.3s-19.8-4-27.4-2.6
					c-7.5,1.4-12.8,12.3-21.3,15c-8.5,2.7-14.8,4.8-20.6,7.5c-10.4,4.8-21.5,35.7-17.1,58.3c-10.5-29-14.6-56.2-9-65
					c5.5-8.7,10.9-19,20.7-29.8c9.8-10.8,29.4-26.3,53-25.5c23.6,0.8,31.8,2.4,45.4,16.2C141.5,33.9,153.8,59.3,146,82.6z"/>
			</g>
			<g>
				<path class="st1" d="M136.9,115.4c-3.1,11.6-6.6,24.6-10.1,37.3c1.4-24.8-6.1-65.7-38.7-62.6c-9.4,1.2-11,6.4-20.4,9.1
					c-9.4,2.7-15.9,3.1-20.3,7.6c-9.3,12-19.6,35.8-9.3,60.7c-5.7-9.5-10.9-19.8-15.2-30.2c-1.8-4.3-3.5-8.7-5.1-13
					c-4.4-22.6,6.6-53.5,17.1-58.3c5.7-2.7,12.1-4.8,20.6-7.5c8.5-2.7,13.8-13.6,21.3-15c7.5-1.4,18.1-2.3,27.4,2.6
					S144.4,79.3,136.9,115.4z"/>
			</g>
			<g>
				<path class="st1" d="M126.7,152.6c-3.6,12.6-7.3,24.7-10.9,34.6c13.9-42.7-22.9-50.5-30.2-48.8c-7.8,1.8-17.5,7-22.9,28.4
					C57.4,188.3,94,211.7,94,211.7c-21.1,0.4-40.7-19-56-44.2c0,0,0,0,0,0c-10.3-24.9,0-48.7,9.3-60.7c4.4-4.5,10.9-4.9,20.3-7.6
					c9.4-2.7,11-7.9,20.4-9.1C120.7,86.9,128.2,127.8,126.7,152.6z"/>
			</g>
			<g>
				<path class="st1" d="M115.9,187.2C115.9,187.3,115.9,187.3,115.9,187.2c-1.3,3.5-2.5,6.8-3.8,9.6c0,0.1-0.1,0.1-0.1,0.2
					c-3.1,7.1-6,12-8.5,13.2c-3.2,1-6.3,1.5-9.4,1.5c0,0-36.7-23.4-31.3-44.9c5.4-21.4,15-26.6,22.9-28.4
					C92.9,136.7,129.8,144.6,115.9,187.2z"/>
			</g>
		</g>
	</g>
	<g>
		<g>
			<path class="st55" d="M201.1,221.6C201.1,221.6,201.1,221.6,201.1,221.6c19.1-15,36.1-35.7,48-62.3c3.4-13.8-6.9-17.3-7.4-40
				c-0.2-15.9-23.3-41-46.8-50s-53.6,0-72.6,33.8c-2.3,4-4.7,8.9-7.1,14.3c0,0,0,0.1-0.1,0.2c0,0,0,0.1-0.1,0.1
				c-2.5,6.1-34.3,84.9-12.1,113.8C125.8,261.5,200,222.2,201.1,221.6z M120.8,214.9c-3.2-4.8,6.4-32,6.4-32s7.6-34.2,12.4-40.8
				c4.8-6.6,22.2-30.1,47.7-23.7c25.5,6.4,28.8,25.8,28.9,34.5c0.1,8.7,1.4,23.1-10.8,39.9S138,238.9,120.8,214.9z"/>
		</g>
		<g class="st19">
			<path d="M115.1,117.4c0,0,0,0.1-0.1,0.2c0,0-34.3,85-12.1,114c22.9,29.9,97.1-9.4,98.2-10c0,0,0,0,0,0s-64.3,30.9-88,3.3
				S115.1,117.4,115.1,117.4z"/>
		</g>
		<g>
			<path class="st55" d="M82.9,242.1c26.8,17.6,77.1,11.8,118.2-20.5c-1.1,0.6-75.3,39.9-98.2,10c-22.2-28.9,9.6-107.8,12.1-113.8
				C97,158.1,76.8,230.6,82.9,242.1z"/>
		</g>
		<g>
			<path class="st46" d="M205.5,192.8c12.2-16.8,10.9-31.2,10.8-39.9c-0.1-8.7-3.3-28-28.9-34.5c-25.5-6.4-43,17.1-47.7,23.7
				c-4.8,6.6-12.4,40.8-12.4,40.8s-9.6,27.2-6.4,32C138,238.9,193.3,209.6,205.5,192.8z"/>
		</g>
		<g class="st48">
			<path class="st28" d="M187.4,118.4c-25.5-6.4-43,17.1-47.7,23.7c-4.8,6.6-12.4,40.8-12.4,40.8s-9.6,27.2-6.4,32
				c7.1,9.9,20.8,10.7,35.2,7.1c0,0-14.2-12.4-13.1-39.7C146,138.6,187.4,118.4,187.4,118.4z"/>
		</g>
		<g>
			<path class="st1" d="M201.1,221.6C201.1,221.6,201.1,221.6,201.1,221.6c19.1-15,36.1-35.7,48-62.3c3.4-13.8-6.9-17.3-7.4-40
				c-0.2-15.9-23.3-41-46.8-50s-53.6,0-72.6,33.8c-2.3,4-4.7,8.9-7.1,14.3c0,0,0,0.1-0.1,0.2c0,0,0,0.1-0.1,0.1
				c-2.5,6.1-34.3,84.9-12.1,113.8C125.8,261.5,200,222.2,201.1,221.6z M120.8,214.9c-3.2-4.8,6.4-32,6.4-32s7.6-34.2,12.4-40.8
				c4.8-6.6,22.2-30.1,47.7-23.7c25.5,6.4,28.8,25.8,28.9,34.5c0.1,8.7,1.4,23.1-10.8,39.9S138,238.9,120.8,214.9z"/>
		</g>
		<g>
			<path class="st1" d="M82.9,242.1c26.8,17.6,77.1,11.8,118.2-20.5c-1.1,0.6-75.3,39.9-98.2,10c-22.2-28.9,9.6-107.8,12.1-113.8
				C97,158.1,76.8,230.6,82.9,242.1z"/>
		</g>
		<path class="st1" d="M158.3,204.1c15.3-5.6,28.8-13,37.1-25.8"/>
		<path class="st1" d="M173.6,156c9.3-2.8,17.2,0.2,24.2,7.5c-1.4-14.2-4.9-26.3-13.5-33.2"/>
	</g>
</g>
</svg>
