<?xml version="1.0" encoding="utf-8"?>
<!-- Generator: Adobe Illustrator 21.1.0, SVG Export Plug-In . SVG Version: 6.00 Build 0)  -->
<svg version="1.1" id="Icon_Set" xmlns="http://www.w3.org/2000/svg" xmlns:xlink="http://www.w3.org/1999/xlink" x="0px" y="0px"
	 viewBox="0 0 512 512" style="enable-background:new 0 0 512 512;" xml:space="preserve">
<style type="text/css">
	.st0{fill:#FFFFFF;}
	.st1{fill:#5B7C31;}
	.st2{fill:#E56823;}
	.st3{fill:#FE8E46;}
	.st4{fill:#7DAC51;}
	.st5{fill:#463218;}
	.st6{fill:#FEFE71;}
	.st7{fill:#D6CD1E;}
	.st8{fill:none;stroke:#FFFFFF;stroke-width:14;stroke-miterlimit:10;}
	.st9{fill:none;stroke:#463218;stroke-width:14;stroke-linecap:round;stroke-linejoin:round;stroke-miterlimit:10;}
</style>
<g id="Oyster">
	<g>
		<g>
			<g>
				<path class="st6" d="M213.8,290.5c0,0-76.3-6.1-80.2-56.9c-5.1-66.4,113.5-63.3,113.5-63.3H275c0,0,118.6-3.1,113.5,63.3
					c-3.9,50.8-80.2,56.9-80.2,56.9H213.8z"/>
			</g>
		</g>
	</g>
	<g>
		<g>
			<g>
				<path class="st7" d="M213.8,290.5h94.4c0,0,56.8-4.6,74.9-38.4c-22.7-40-108.2-37.8-108.2-37.8h-27.9c0,0-85.5-2.2-108.2,37.8
					C157,286,213.8,290.5,213.8,290.5z"/>
			</g>
		</g>
	</g>
	<g>
		<g>
			<g>
				<path class="st6" d="M275.4,350.2c-77.8,0-159-25.3-167.2-40.6c4.5,14.1,33.1,86.2,152.9,86.2c119.1,0,140-71.1,143-85.9
					C399,325.2,352.7,350.2,275.4,350.2z"/>
			</g>
		</g>
	</g>
	<g>
		<g>
			<g>
				<path class="st2" d="M404.5,307.2c0,14.8-47.1,43-129.2,43s-167.9-28.1-167.9-43s52.4-16.8,134.5-16.8S404.5,292.4,404.5,307.2z
					"/>
			</g>
		</g>
	</g>
	<g>
		<g>
			<g>
				<path class="st3" d="M343.2,292.5c-8.8,15.4-54.3,37.8-127.6,37.8c-33,0-66.7-4.6-95.1-11c27.1,14.4,92.1,30.8,154.8,30.8
					c82,0,129.2-28.1,129.2-43C404.5,298.9,379.5,294.7,343.2,292.5z"/>
			</g>
		</g>
	</g>
	<g>
		<g>
			<g>
				<path class="st7" d="M225.1,347c-59.3-7.3-110.6-25.4-117-37.4c4.5,14.1,33.1,86.2,152.9,86.2c2.1,0,4.2,0,6.3-0.1
					C247.7,379.3,233.6,360.3,225.1,347z"/>
			</g>
		</g>
	</g>
	<g>
		<g>
			<g>
				<path class="st5" d="M275.4,357.2c-37.4,0-79.9-5.9-116.6-16.2c-16.1-4.5-29.8-9.5-39.8-14.6c-12.6-6.4-18.5-12.5-18.5-19.2
					c0-14.6,20.6-18.7,42.8-20.9c25.2-2.5,62.3-2.9,98.7-2.9c35.1,0,79.7,0.3,112.6,2.9c16.7,1.3,29.1,3,37.9,5.3
					c5.2,1.3,19.1,4.9,19.1,15.7c0,11.4-14.3,23.9-38.2,33.5C354.8,348.2,322.7,357.2,275.4,357.2z M114.9,307.1
					c3.3,3.8,18.6,12.7,52.1,21.6c34.5,9.2,74,14.4,108.4,14.4c35.2,0,68.1-5.5,92.7-15.4c20.1-8.1,27.8-16.3,29.2-19.6
					c-2.5-1.7-12.5-5.9-50.6-8.4c-31.8-2.1-72.7-2.4-104.7-2.4c-33.2,0-67.3,0.3-91.8,2.3C123.6,301.9,116.6,305.6,114.9,307.1z"/>
			</g>
		</g>
	</g>
	<g>
		<g>
			<g>
				<path class="st5" d="M261.1,402.8c-124.6,0-154.8-75.9-159.6-91.1c-1.1-3.4,0.6-7.2,4-8.6c3.3-1.4,7.2,0,8.9,3.1
					c0.1,0.1,7.4,10.4,53.1,22.6c34.3,9.1,73.7,14.3,107.9,14.3c77.5,0,118.7-25.4,122-35.5c1.2-3.5,4.9-5.5,8.5-4.6
					c3.6,1,5.8,4.5,5,8.2C407.8,326.6,385.7,402.8,261.1,402.8z M125.6,329.5c16.1,24.7,53.4,59.3,135.5,59.3
					c76.4,0,110.3-30.1,125.2-54c-5,2.7-10.7,5.2-17,7.5c-18.2,6.8-49.2,14.9-93.9,14.9c-35.4,0-76-5.4-111.5-14.8
					C154.9,340,139.1,335.4,125.6,329.5z"/>
			</g>
		</g>
	</g>
	<g>
		<g>
			<g>
				<path class="st5" d="M308.3,297.5h-94.4c-0.2,0-0.4,0-0.6,0c-0.8-0.1-20.4-1.7-40.7-9.9c-28.2-11.4-44.1-29.9-45.9-53.5
					c-1.2-15.5,3.5-28.9,13.8-39.8c30.8-32.4,102.5-31.2,106.7-31.1h27.7c4.2-0.1,75.9-1.3,106.7,31.1c10.4,10.9,15,24.3,13.8,39.8
					c-1.8,23.6-17.7,42.1-45.9,53.5c-20.3,8.2-39.9,9.8-40.7,9.9C308.7,297.5,308.5,297.5,308.3,297.5z M214.2,283.5H308
					c2.2-0.2,19.4-2,36.6-9c23.1-9.4,35.5-23.3,36.9-41.4c0.9-11.5-2.4-21-10-29.1c-10.9-11.5-30.9-19.7-57.8-23.9
					c-20.9-3.2-38.4-2.8-38.5-2.8c-0.1,0-0.1,0-0.2,0h-27.9c-0.1,0-0.1,0-0.2,0c-0.2,0-17.9-0.4-38.8,2.9
					c-26.8,4.2-46.7,12.5-57.5,23.9c-7.6,8-10.9,17.5-10,29.1C143.9,276.1,209.6,283.1,214.2,283.5z"/>
			</g>
		</g>
	</g>
	<g>
		<g>
			<g>
				<path class="st0" d="M267.7,269l-0.7-14l9.9-0.5c23-1.1,44.8-9,63.2-22.9l8.5,11.2c-20.6,15.6-45.1,24.5-71,25.7L267.7,269z"/>
			</g>
		</g>
	</g>
</g>
</svg>
