<?xml version="1.0" encoding="utf-8"?>
<!-- Generator: Adobe Illustrator 22.1.0, SVG Export Plug-In . SVG Version: 6.00 Build 0)  -->
<svg version="1.1" id="Layer_1" xmlns="http://www.w3.org/2000/svg" xmlns:xlink="http://www.w3.org/1999/xlink" x="0px" y="0px"
	 viewBox="0 0 256 256" style="enable-background:new 0 0 256 256;" xml:space="preserve">
<style type="text/css">
	.st0{fill:#F5B31F;}
	.st1{fill:none;stroke:#464646;stroke-width:8;stroke-linecap:round;stroke-linejoin:round;stroke-miterlimit:10;}
	.st2{opacity:0.15;fill:#464646;}
	.st3{fill:#AC6535;}
	.st4{fill:#EB573B;}
	.st5{fill:#90C056;}
	.st6{opacity:0.35;fill:#FFFFFF;}
	.st7{opacity:0.2;fill:#FFFFFF;}
	.st8{fill:#F6D67A;}
	.st9{opacity:0.15;fill:#FFFFFF;}
	.st10{opacity:0.3;fill:#FFFFFF;}
	.st11{fill:#AC6535;stroke:#464646;stroke-width:8;stroke-linecap:round;stroke-linejoin:round;stroke-miterlimit:10;}
	.st12{fill:#EB573B;stroke:#464646;stroke-width:8;stroke-miterlimit:10;}
	.st13{opacity:0.15;}
	.st14{fill:#464646;}
	.st15{fill:#FFA755;}
	.st16{fill:#8FAE3C;}
	.st17{fill:#BE6BB2;}
	.st18{fill:#B7C536;}
	.st19{opacity:0.1;}
	.st20{fill:#9D5A96;}
	.st21{fill:#EA615D;}
	.st22{opacity:0.4;fill:#FFFFFF;}
	.st23{opacity:7.000000e-02;}
	.st24{fill:#F79932;}
	.st25{fill:#FFEC97;}
	.st26{fill:#FFD11D;}
	.st27{opacity:0.2;}
	.st28{fill:#FFFFFF;}
	.st29{fill:#F7F2D5;}
	.st30{fill:#F6AF72;}
	.st31{fill:#BA6C45;}
	.st32{opacity:0.5;fill:#FFFFFF;}
	.st33{fill:#E4C074;}
	.st34{fill:none;stroke:#656566;stroke-width:8;stroke-linecap:round;stroke-linejoin:round;stroke-miterlimit:10;}
	.st35{fill:#FFA755;stroke:#464646;stroke-width:8;stroke-linecap:round;stroke-linejoin:round;stroke-miterlimit:10;}
	.st36{fill:#FFD11D;stroke:#464646;stroke-width:8;stroke-linecap:round;stroke-linejoin:round;stroke-miterlimit:10;}
	.st37{fill:#FACD1F;}
	.st38{fill:#FFDF66;}
	.st39{fill:#FFEC97;stroke:#464646;stroke-width:8;stroke-linecap:round;stroke-linejoin:round;stroke-miterlimit:10;}
	.st40{fill:#FFDF66;stroke:#464646;stroke-width:8;stroke-linecap:round;stroke-linejoin:round;stroke-miterlimit:10;}
	.st41{opacity:0.2;fill:#464646;}
	.st42{fill:#FFFFFF;stroke:#464646;stroke-width:8;stroke-linecap:round;stroke-linejoin:round;stroke-miterlimit:10;}
	.st43{fill:#6D6E71;stroke:#464646;stroke-width:8;stroke-linecap:round;stroke-linejoin:round;stroke-miterlimit:10;}
	.st44{opacity:0.1;fill:#464646;}
	.st45{fill:#E77CAE;}
	.st46{fill:#FFE5C4;}
	.st47{fill:#F68455;stroke:#464646;stroke-width:8;stroke-linecap:round;stroke-linejoin:round;stroke-miterlimit:10;}
	.st48{opacity:0.7;}
	.st49{fill:#ADEDFF;}
	.st50{fill:#EC754B;}
	.st51{fill:#4AA5BA;}
	.st52{opacity:0.5;}
	.st53{opacity:0.8;}
	.st54{fill:#F68455;}
	.st55{fill:#92A5AC;}
	.st56{fill:#6D6E71;}
	.st57{fill:#D06E3C;}
	.st58{fill:#DA4F4B;}
	.st59{fill:#BDF3FF;}
	.st60{fill:#F18BB4;}
	.st61{fill:#F9D97A;}
	.st62{fill:none;}
	.st63{fill:#AF6535;}
	.st64{fill:#B93226;}
	.st65{fill:#FF6050;}
	.st66{fill:#D06E3C;stroke:#464646;stroke-miterlimit:10;}
	.st67{fill:#EA7CB1;}
	.st68{fill:none;stroke:#6D6E71;stroke-width:10;stroke-linecap:round;stroke-linejoin:round;stroke-miterlimit:10;}
	.st69{fill:#00B0E0;}
	.st70{fill:#EA7DAE;}
	.st71{opacity:0.1;fill:#FFFFFF;}
	.st72{fill:#BC7532;}
	.st73{fill:#876C6C;}
	.st74{fill:#F9F6CD;}
	.st75{fill:#FFE37B;}
	.st76{fill:#1DDCFF;}
	.st77{fill:#60ACF7;}
	.st78{fill:#C3755A;}
	.st79{fill:#96557A;}
	.st80{fill:#66625D;}
	.st81{fill:#D68032;}
	.st82{opacity:0.8;fill:#FFFFFF;}
	.st83{fill:#F2A355;}
	.st84{fill:#7E9E6A;}
	.st85{opacity:0.3;}
	.st86{fill:#965A85;}
	.st87{opacity:0.7;fill:#FFFFFF;}
	.st88{fill:#90CAD3;}
	.st89{fill:#94B57F;}
	.st90{fill:#B2E2E7;}
	.st91{fill:#FFDF8F;}
	.st92{fill:#FFFAEB;}
	.st93{fill:#F88916;}
	.st94{fill:#FFC86E;}
	.st95{fill:#AFA51D;}
	.st96{fill:#968A1C;}
	.st97{fill:#C3556D;}
</style>
<g>
	<polygon class="st46" points="214.4,103.3 212.4,120.6 134.6,120.6 120.6,103.3 	"/>
	<polygon class="st46" points="208.4,154.6 197.1,252 143.3,198.3 170.8,165.5 168,162.1 162,154.6 	"/>
	<polygon class="st46" points="197.1,252 98.4,252 143.3,198.3 	"/>
	<polygon class="st1" points="214.4,103.3 212.4,120.6 134.6,120.6 120.6,103.3 	"/>
	<polygon class="st1" points="208.4,154.6 197.1,252 143.3,198.3 170.8,165.5 168,162.1 162,154.6 	"/>
	<polygon class="st1" points="197.1,252 98.4,252 143.3,198.3 	"/>
	<polygon class="st4" points="212.4,120.6 208.4,154.6 162,154.6 140.7,128.2 134.6,120.6 	"/>
	<polygon class="st1" points="212.4,120.6 208.4,154.6 162,154.6 140.7,128.2 134.6,120.6 	"/>
	<polygon class="st11" points="99.7,66.9 77.8,10.6 92.9,4 110.3,54.3 	"/>
	<polygon class="st46" points="214.4,103.3 80.7,103.3 106.2,54.3 187.7,54.3 	"/>
	<path class="st6" d="M187.7,54.3l-81.5,0l-25.5,49c0,0,20.1-31.9,34.3-38.2S187.7,54.3,187.7,54.3z"/>
	<polygon class="st1" points="214.4,103.3 80.7,103.3 106.2,54.3 187.7,54.3 	"/>
	<polygon class="st2" points="100.9,249.1 113.6,249.1 183.7,165.1 135.9,104.4 124.1,103.3 	"/>
	<polygon class="st46" points="170.8,165.5 143.3,198.3 98.4,252 87.7,162.1 168,162.1 	"/>
	<polygon class="st6" points="110.1,238 98.4,252 87.7,162.1 100.9,162.1 	"/>
	<polygon class="st46" points="140.7,128.2 83.7,128.2 80.7,103.3 120.6,103.3 134.6,120.6 	"/>
	<polygon class="st6" points="95.9,128.2 83.7,128.2 80.7,103.3 91.9,103.3 	"/>
	<polygon class="st42" points="168,162.1 162,154.6 168,162.1 	"/>
	<polygon class="st1" points="170.8,165.5 143.3,198.3 98.4,252 87.7,162.1 168,162.1 	"/>
	<polygon class="st1" points="140.7,128.2 83.7,128.2 80.7,103.3 120.6,103.3 134.6,120.6 	"/>
	<polygon class="st64" points="168,162.1 168,162.1 162,154.6 	"/>
	<polygon class="st4" points="168,162.1 87.7,162.1 83.7,128.2 140.7,128.2 162,154.6 	"/>
	<polygon class="st7" points="100.9,162.1 88.6,162.1 84.6,128.2 95.9,128.2 	"/>
	<polygon class="st1" points="168,162.1 87.7,162.1 83.7,128.2 140.7,128.2 162,154.6 	"/>
	<polygon class="st1" points="168,162.1 168,162.1 162,154.6 	"/>
	<polygon class="st11" points="89.4,86.6 41.6,33.9 52.1,24.8 95.4,75 	"/>
</g>
</svg>
