<?xml version="1.0" encoding="utf-8"?>
<!-- Generator: Adobe Illustrator 21.1.0, SVG Export Plug-In . SVG Version: 6.00 Build 0)  -->
<svg version="1.1" id="Icon_Set" xmlns="http://www.w3.org/2000/svg" xmlns:xlink="http://www.w3.org/1999/xlink" x="0px" y="0px"
	 viewBox="0 0 512 512" style="enable-background:new 0 0 512 512;" xml:space="preserve">
<style type="text/css">
	.st0{fill:#FFFFFF;}
	.st1{fill:#5B7C31;}
	.st2{fill:#E56823;}
	.st3{fill:#FE8E46;}
	.st4{fill:#7DAC51;}
	.st5{fill:#463218;}
	.st6{fill:#FEFE71;}
	.st7{fill:#D6CD1E;}
	.st8{fill:none;stroke:#FFFFFF;stroke-width:14;stroke-miterlimit:10;}
	.st9{fill:none;stroke:#463218;stroke-width:14;stroke-linecap:round;stroke-linejoin:round;stroke-miterlimit:10;}
</style>
<g id="Paleo">
	<g>
		<g>
			<g>
				<path class="st6" d="M364.2,364.2c7.7,1.6,16-0.6,22-6.5c9.4-9.4,9.4-24.6,0-34s-24.6-9.4-34,0l-35.4-35.4
					c-2.2,3.9-6.7,6.2-11.5,5.1c-7.3-1.6-13.9,4.6-12.7,12l0,0.3c0.8,4.4-1.3,8.5-4.8,10.7l35.8,35.8c-9.4,9.4-9.4,24.6,0,34
					s24.6,9.4,34,0C363.6,380.2,365.8,371.8,364.2,364.2z"/>
			</g>
		</g>
	</g>
	<g>
		<g>
			<g>
				<path class="st7" d="M364.2,364.2c7.7,1.6,16-0.6,22-6.5c9.4-9.4,9.4-24.6,0-34c-3-3-6.5-5-10.2-6.1c2.4,8.2,0.4,17.3-6.1,23.8
					c-6,6-14.3,8.1-22,6.5c1.6,7.7-0.6,16-6.5,22c-6.4,6.4-15.6,8.5-23.8,6.1c1.1,3.7,3.1,7.3,6.1,10.2c9.4,9.4,24.6,9.4,34,0
					C363.6,380.2,365.8,371.8,364.2,364.2z"/>
			</g>
		</g>
	</g>
	<g>
		<g>
			<g>
				<path class="st3" d="M305.2,293.3L305.2,293.3c7,1.6,13.6-4.2,12.8-11.3c-5.2-46.3-59.7-121.5-81.1-143c-27-27-70.8-27-97.7,0
					s-27,70.8,0,97.7c21.3,21.3,95.5,75.1,141.9,81c7,0.9,12.8-5.3,11.6-12.2l0-0.3C291.3,298,297.9,291.7,305.2,293.3z"/>
			</g>
		</g>
	</g>
	<g>
		<g>
			<g>
				<path class="st2" d="M292.6,305.6l0-0.3c-0.4-2.3,0-4.5,0.9-6.4c-43-17.8-92.7-54.8-109.5-71.6c-27-27-27-70.8,0-97.7
					c4-4,8.4-7.4,13-10.2c-20.6-2.7-42.1,3.8-57.9,19.6c-27,27-27,70.8,0,97.7c21.3,21.3,95.5,75.1,141.9,81
					C287.9,318.7,293.7,312.6,292.6,305.6z"/>
			</g>
		</g>
	</g>
	<g>
		<g>
			<g>
				<path class="st5" d="M282.3,324.9c-0.7,0-1.5,0-2.3-0.1c-26.9-3.4-60.1-21.3-83.2-35.8c-28.4-17.7-52.4-36.9-62.8-47.2
					c-29.7-29.7-29.7-78,0-107.6c29.7-29.7,78-29.7,107.6,0c10.5,10.5,29.9,34.8,47.7,63.4c14.5,23.4,32.5,56.9,35.5,83.7
					c0.6,5.6-1.5,11.1-5.7,14.8c-4.2,3.8-10.1,5.3-15.6,4c-1.6-0.4-2.7,0.4-3.2,0.9c-0.5,0.5-1.3,1.5-1,3.1l0,0.3
					c0.9,5.5-0.7,11-4.6,15.1C291.5,323,287,324.9,282.3,324.9z M187.9,125.8c-15.9,0-31.8,6.1-43.9,18.2
					c-24.2,24.2-24.2,63.6,0,87.8c9.8,9.8,32.9,28.2,60.3,45.3c31,19.3,58.5,31.3,77.5,33.7c1.5,0.2,2.5-0.6,2.9-1
					c0.5-0.5,1.2-1.5,0.9-3l0-0.3c-1-5.8,1-11.6,5.2-15.6c4.2-4,10.2-5.7,15.9-4.4c0,0,0,0,0,0c1.6,0.4,2.7-0.5,3.2-0.8
					c0.5-0.4,1.3-1.4,1.1-2.9c-4.9-43.7-58.4-118-79.1-138.8C219.8,131.9,203.8,125.8,187.9,125.8z"/>
			</g>
		</g>
	</g>
	<g>
		<g>
			<g>
				<path class="st5" d="M340.6,400.2c-8,0-15.9-3-22-9.1c-10.4-10.4-11.9-26.4-4.4-38.4l-31.4-31.4c-1.5-1.5-2.2-3.6-2-5.7
					s1.4-4,3.2-5.1c0.9-0.6,1.9-1.9,1.6-3.6l0-0.3c-1-5.8,1-11.6,5.2-15.6c4.2-4,10.2-5.7,15.9-4.4c1.8,0.4,3.3-0.6,3.9-1.7
					c1.1-1.9,3-3.2,5.1-3.5c2.2-0.3,4.4,0.4,5.9,2l31,31c4.9-3.1,10.5-4.7,16.4-4.7c8.3,0,16.1,3.2,22,9.1
					c12.1,12.1,12.1,31.8,0,43.9c-5.3,5.3-12.2,8.4-19.5,9c-0.6,7.3-3.7,14.2-9,19.5C356.5,397.1,348.6,400.2,340.6,400.2z
					 M297.4,316l31.1,31.1c2.7,2.7,2.7,7.2,0,9.9c-6.6,6.6-6.6,17.5,0,24.1c6.6,6.6,17.5,6.6,24.1,0c4.1-4.1,5.8-9.9,4.6-15.6
					c-0.5-2.3,0.2-4.7,1.9-6.4c1.7-1.7,4.1-2.4,6.4-1.9c5.7,1.2,11.5-0.5,15.6-4.6c6.6-6.6,6.6-17.5,0-24.1c-3.2-3.2-7.5-5-12.1-5
					c-4.6,0-8.8,1.8-12.1,5c-1.3,1.3-3.1,2.1-4.9,2.1s-3.6-0.7-4.9-2.1L316.6,298c-3.8,2.3-8.5,3.2-13,2.1c-1.6-0.4-2.7,0.4-3.2,0.9
					c-0.5,0.5-1.3,1.5-1,3.1l0,0.3C300.2,308.5,299.4,312.6,297.4,316z"/>
			</g>
		</g>
	</g>
	<g>
		<g>
			<g>
				<path class="st0" d="M255.3,222.9c-9.6-20.4-36.3-56.5-36.5-56.9l11.2-8.3c1.1,1.5,27.8,37.6,38,59.3L255.3,222.9z"/>
			</g>
		</g>
	</g>
</g>
</svg>
