<?xml version="1.0" encoding="utf-8"?>
<!-- Generator: Adobe Illustrator 21.1.0, SVG Export Plug-In . SVG Version: 6.00 Build 0)  -->
<svg version="1.1" id="Icon_Set" xmlns="http://www.w3.org/2000/svg" xmlns:xlink="http://www.w3.org/1999/xlink" x="0px" y="0px"
	 viewBox="0 0 512 512" style="enable-background:new 0 0 512 512;" xml:space="preserve">
<style type="text/css">
	.st0{fill:#FFFFFF;}
	.st1{fill:#5B7C31;}
	.st2{fill:#E56823;}
	.st3{fill:#FE8E46;}
	.st4{fill:#7DAC51;}
	.st5{fill:#463218;}
	.st6{fill:#FEFE71;}
	.st7{fill:#D6CD1E;}
	.st8{fill:none;stroke:#FFFFFF;stroke-width:14;stroke-miterlimit:10;}
	.st9{fill:none;stroke:#463218;stroke-width:14;stroke-linecap:round;stroke-linejoin:round;stroke-miterlimit:10;}
</style>
<g id="Pancake">
	<g>
		<g>
			<g>
				<path class="st4" d="M377.5,366.5h-243c-17.7,0-32.1-14.4-32.1-32.1v0h307.2v0C409.6,352.1,395.2,366.5,377.5,366.5z"/>
			</g>
		</g>
	</g>
	<g>
		<g>
			<g>
				<path class="st1" d="M186.1,334.4L186.1,334.4h-83.7l0,0c0,17.7,14.4,32.1,32.1,32.1h83.7C200.5,366.5,186.1,352.1,186.1,334.4z
					"/>
			</g>
		</g>
	</g>
	<g>
		<g>
			<g>
				<rect x="185.9" y="145.5" class="st6" width="73.1" height="35.3"/>
			</g>
		</g>
	</g>
	<g>
		<g>
			<g>
				<rect x="185.9" y="145.5" class="st7" width="24.4" height="35.3"/>
			</g>
		</g>
	</g>
	<g>
		<g>
			<g>
				<path class="st3" d="M350.5,333.9H167.4c-10.1,0-18.3-8.2-18.3-18.3v0c0-10.1,8.2-18.3,18.3-18.3h183.1
					c10.1,0,18.3,8.2,18.3,18.3v0C368.8,325.7,360.6,333.9,350.5,333.9z"/>
			</g>
		</g>
	</g>
	<g>
		<g>
			<g>
				<rect x="134.5" y="275.7" class="st7" width="260.1" height="21.6"/>
			</g>
		</g>
	</g>
	<g>
		<g>
			<g>
				<path class="st3" d="M350.5,275.7H167.4c-10.1,0-18.3-8.2-18.3-18.3v0c0-10.1,8.2-18.3,18.3-18.3h183.1
					c10.1,0,18.3,8.2,18.3,18.3v0C368.8,267.5,360.6,275.7,350.5,275.7z"/>
			</g>
		</g>
	</g>
	<g>
		<g>
			<g>
				<rect x="122.8" y="217.4" class="st7" width="260.1" height="21.6"/>
			</g>
		</g>
	</g>
	<g>
		<g>
			<g>
				<rect x="223.1" y="275.7" class="st6" width="171.6" height="21.6"/>
			</g>
		</g>
	</g>
	<g>
		<g>
			<g>
				<rect x="215.3" y="217.4" class="st6" width="171.6" height="21.6"/>
			</g>
		</g>
	</g>
	<g>
		<g>
			<g>
				<path class="st3" d="M350.5,217.4H167.4c-10.1,0-18.3-8.2-18.3-18.3v0c0-10.1,8.2-18.3,18.3-18.3h183.1
					c10.1,0,18.3,8.2,18.3,18.3v0C368.8,209.2,360.6,217.4,350.5,217.4z"/>
			</g>
		</g>
	</g>
	<g>
		<g>
			<g>
				<path class="st2" d="M215.3,199.1c0-10.1,8.2-18.3,18.3-18.3h-66.2c-10.1,0-18.3,8.2-18.3,18.3s8.2,18.3,18.3,18.3h66.2
					C223.5,217.4,215.3,209.2,215.3,199.1z"/>
			</g>
		</g>
	</g>
	<g>
		<g>
			<g>
				<path class="st2" d="M215.3,257.3c0-10.1,8.2-18.3,18.3-18.3h-66.2c-10.1,0-18.3,8.2-18.3,18.3s8.2,18.3,18.3,18.3h66.2
					C223.5,275.7,215.3,267.5,215.3,257.3z"/>
			</g>
		</g>
	</g>
	<g>
		<g>
			<g>
				<path class="st2" d="M215.3,315.6c0-10.1,8.2-18.3,18.3-18.3h-66.2c-10.1,0-18.3,8.2-18.3,18.3s8.2,18.3,18.3,18.3h66.2
					C223.5,333.9,215.3,325.7,215.3,315.6z"/>
			</g>
		</g>
	</g>
	<g>
		<g>
			<g>
				<path class="st5" d="M377.5,373.5h-243c-21.6,0-39.1-17.5-39.1-39.1c0-3.9,3.1-7,7-7h307.2c3.9,0,7,3.1,7,7
					C416.6,356,399.1,373.5,377.5,373.5z M110.4,341.4c3,10.4,12.7,18.1,24.1,18.1h243c11.4,0,21.1-7.7,24.1-18.1H110.4z"/>
			</g>
		</g>
	</g>
	<g>
		<g>
			<g>
				<path class="st5" d="M350.5,224.4H167.4c-14,0-25.3-11.4-25.3-25.3s11.4-25.3,25.3-25.3h183.1c14,0,25.3,11.4,25.3,25.3
					S364.5,224.4,350.5,224.4z M167.4,187.8c-6.2,0-11.3,5.1-11.3,11.3s5.1,11.3,11.3,11.3h183.1c6.2,0,11.3-5.1,11.3-11.3
					s-5.1-11.3-11.3-11.3H167.4z"/>
			</g>
		</g>
	</g>
	<g>
		<g>
			<g>
				<path class="st5" d="M350.5,282.7H167.4c-14,0-25.3-11.4-25.3-25.3s11.4-25.3,25.3-25.3h183.1c14,0,25.3,11.4,25.3,25.3
					S364.5,282.7,350.5,282.7z M167.4,246c-6.2,0-11.3,5.1-11.3,11.3s5.1,11.3,11.3,11.3h183.1c6.2,0,11.3-5.1,11.3-11.3
					s-5.1-11.3-11.3-11.3H167.4z"/>
			</g>
		</g>
	</g>
	<g>
		<g>
			<g>
				<path class="st5" d="M350.5,340.9H167.4c-14,0-25.3-11.4-25.3-25.3s11.4-25.3,25.3-25.3h183.1c14,0,25.3,11.4,25.3,25.3
					S364.5,340.9,350.5,340.9z M167.4,304.3c-6.2,0-11.3,5.1-11.3,11.3s5.1,11.3,11.3,11.3h183.1c6.2,0,11.3-5.1,11.3-11.3
					s-5.1-11.3-11.3-11.3H167.4z"/>
			</g>
		</g>
	</g>
	<g>
		<g>
			<g>
				<path class="st5" d="M382.9,246H122.8c-3.9,0-7-3.1-7-7v-21.6c0-3.9,3.1-7,7-7h260.1c3.9,0,7,3.1,7,7V239
					C389.9,242.9,386.8,246,382.9,246z M129.8,232h246.1v-7.6H129.8V232z"/>
			</g>
		</g>
	</g>
	<g>
		<g>
			<g>
				<path class="st5" d="M394.7,304.3H134.5c-3.9,0-7-3.1-7-7v-21.6c0-3.9,3.1-7,7-7h260.1c3.9,0,7,3.1,7,7v21.6
					C401.7,301.1,398.5,304.3,394.7,304.3z M141.5,290.3h246.1v-7.6H141.5V290.3z"/>
			</g>
		</g>
	</g>
	<g>
		<g>
			<g>
				<path class="st5" d="M259,187.8h-73.1c-3.9,0-7-3.1-7-7v-35.3c0-3.9,3.1-7,7-7H259c3.9,0,7,3.1,7,7v35.3
					C266,184.7,262.8,187.8,259,187.8z M192.9,173.8H252v-21.3h-59.1V173.8z"/>
			</g>
		</g>
	</g>
	<g>
		<g>
			<g>
				<path class="st6" d="M274.7,180.8c9.7,0,17.6,7.9,17.6,17.6v95.1c0,8.2,6.7,14.9,14.9,14.9h0c8.2,0,14.9-6.7,14.9-14.9v-95.1
					c0-9.7,7.9-17.6,17.6-17.6H274.7z"/>
			</g>
		</g>
	</g>
	<g>
		<g>
			<g>
				<path class="st5" d="M307.2,315.4c-12.1,0-21.9-9.8-21.9-21.9v-95.1c0-5.9-4.8-10.6-10.6-10.6c-3.9,0-7-3.1-7-7s3.1-7,7-7h65.1
					c3.9,0,7,3.1,7,7s-3.1,7-7,7c-5.9,0-10.6,4.8-10.6,10.6v95.1C329.1,305.6,319.3,315.4,307.2,315.4z M296.9,187.8
					c1.5,3.2,2.4,6.8,2.4,10.6v95.1c0,4.4,3.5,7.9,7.9,7.9c4.4,0,7.9-3.5,7.9-7.9v-95.1c0-3.8,0.9-7.4,2.4-10.6H296.9z"/>
			</g>
		</g>
	</g>
	<g>
		<g>
			<g>
				<rect x="177.4" y="192.1" class="st0" width="23.6" height="14"/>
			</g>
		</g>
	</g>
</g>
</svg>
