<?xml version="1.0" encoding="utf-8"?>
<!-- Generator: Adobe Illustrator 22.1.0, SVG Export Plug-In . SVG Version: 6.00 Build 0)  -->
<svg version="1.1" id="Layer_1" xmlns="http://www.w3.org/2000/svg" xmlns:xlink="http://www.w3.org/1999/xlink" x="0px" y="0px"
	 viewBox="0 0 256 256" style="enable-background:new 0 0 256 256;" xml:space="preserve">
<style type="text/css">
	.st0{fill:#F5B31F;}
	.st1{fill:none;stroke:#464646;stroke-width:8;stroke-linecap:round;stroke-linejoin:round;stroke-miterlimit:10;}
	.st2{opacity:0.15;fill:#464646;}
	.st3{fill:#AC6535;}
	.st4{fill:#EB573B;}
	.st5{fill:#90C056;}
	.st6{opacity:0.35;fill:#FFFFFF;}
	.st7{opacity:0.2;fill:#FFFFFF;}
	.st8{fill:#F6D67A;}
	.st9{opacity:0.15;fill:#FFFFFF;}
	.st10{opacity:0.3;fill:#FFFFFF;}
	.st11{fill:#AC6535;stroke:#464646;stroke-width:8;stroke-linecap:round;stroke-linejoin:round;stroke-miterlimit:10;}
	.st12{fill:#EB573B;stroke:#464646;stroke-width:8;stroke-miterlimit:10;}
	.st13{opacity:0.15;}
	.st14{fill:#464646;}
	.st15{fill:#FFA755;}
	.st16{fill:#8FAE3C;}
	.st17{fill:#BE6BB2;}
	.st18{fill:#B7C536;}
	.st19{opacity:0.1;}
	.st20{fill:#9D5A96;}
	.st21{fill:#EA615D;}
	.st22{opacity:0.4;fill:#FFFFFF;}
	.st23{opacity:7.000000e-02;}
	.st24{fill:#F79932;}
	.st25{fill:#FFEC97;}
	.st26{fill:#FFD11D;}
	.st27{opacity:0.2;}
	.st28{fill:#FFFFFF;}
	.st29{fill:#F7F2D5;}
	.st30{fill:#F6AF72;}
	.st31{fill:#BA6C45;}
	.st32{opacity:0.5;fill:#FFFFFF;}
	.st33{fill:#E4C074;}
	.st34{fill:none;stroke:#656566;stroke-width:8;stroke-linecap:round;stroke-linejoin:round;stroke-miterlimit:10;}
	.st35{fill:#FFA755;stroke:#464646;stroke-width:8;stroke-linecap:round;stroke-linejoin:round;stroke-miterlimit:10;}
	.st36{fill:#FFD11D;stroke:#464646;stroke-width:8;stroke-linecap:round;stroke-linejoin:round;stroke-miterlimit:10;}
	.st37{fill:#FACD1F;}
	.st38{fill:#FFDF66;}
	.st39{fill:#FFEC97;stroke:#464646;stroke-width:8;stroke-linecap:round;stroke-linejoin:round;stroke-miterlimit:10;}
	.st40{fill:#FFDF66;stroke:#464646;stroke-width:8;stroke-linecap:round;stroke-linejoin:round;stroke-miterlimit:10;}
	.st41{opacity:0.2;fill:#464646;}
	.st42{fill:#FFFFFF;stroke:#464646;stroke-width:8;stroke-linecap:round;stroke-linejoin:round;stroke-miterlimit:10;}
	.st43{fill:#6D6E71;stroke:#464646;stroke-width:8;stroke-linecap:round;stroke-linejoin:round;stroke-miterlimit:10;}
	.st44{opacity:0.1;fill:#464646;}
	.st45{fill:#E77CAE;}
	.st46{fill:#FFE5C4;}
	.st47{fill:#F68455;stroke:#464646;stroke-width:8;stroke-linecap:round;stroke-linejoin:round;stroke-miterlimit:10;}
	.st48{opacity:0.7;}
	.st49{fill:#ADEDFF;}
	.st50{fill:#EC754B;}
	.st51{fill:#4AA5BA;}
	.st52{opacity:0.5;}
	.st53{opacity:0.8;}
	.st54{fill:#F68455;}
	.st55{fill:#92A5AC;}
	.st56{fill:#6D6E71;}
	.st57{fill:#D06E3C;}
	.st58{fill:#DA4F4B;}
	.st59{fill:#BDF3FF;}
	.st60{fill:#F18BB4;}
	.st61{fill:#F9D97A;}
	.st62{fill:none;}
	.st63{fill:#AF6535;}
	.st64{fill:#B93226;}
	.st65{fill:#FF6050;}
	.st66{fill:#D06E3C;stroke:#464646;stroke-miterlimit:10;}
	.st67{fill:#EA7CB1;}
	.st68{fill:none;stroke:#6D6E71;stroke-width:10;stroke-linecap:round;stroke-linejoin:round;stroke-miterlimit:10;}
	.st69{fill:#00B0E0;}
	.st70{fill:#EA7DAE;}
	.st71{opacity:0.1;fill:#FFFFFF;}
	.st72{fill:#BC7532;}
	.st73{fill:#876C6C;}
	.st74{fill:#F9F6CD;}
	.st75{fill:#FFE37B;}
	.st76{fill:#1DDCFF;}
	.st77{fill:#60ACF7;}
	.st78{fill:#C3755A;}
	.st79{fill:#96557A;}
	.st80{fill:#66625D;}
	.st81{fill:#D68032;}
	.st82{opacity:0.8;fill:#FFFFFF;}
	.st83{fill:#F2A355;}
	.st84{fill:#7E9E6A;}
	.st85{opacity:0.3;}
	.st86{fill:#965A85;}
	.st87{opacity:0.7;fill:#FFFFFF;}
	.st88{fill:#90CAD3;}
	.st89{fill:#94B57F;}
	.st90{fill:#B2E2E7;}
	.st91{fill:#FFDF8F;}
	.st92{fill:#FFFAEB;}
	.st93{fill:#F88916;}
	.st94{fill:#FFC86E;}
	.st95{fill:#AFA51D;}
	.st96{fill:#968A1C;}
	.st97{fill:#C3556D;}
</style>
<g>
	<path class="st16" d="M203.9,84.4c5.3,53.9-89.6,195.3-191.6,162.6c4.8-9.1,13-15.8,22.6-21.6c-1.1,1.7-1.7,3.8-1.7,6
		c0,6.3,5.1,11.4,11.4,11.4c6.3,0,11.4-5.1,11.4-11.4c0-6.3-5-11.3-11.3-11.4c7-3.6,14.4-7,21.6-10.7c-0.8,1.8-1.3,3.7-1.3,5.8
		c0,7.6,6.2,13.8,13.8,13.8c7.6,0,13.8-6.2,13.8-13.8c0-7.1-5.4-12.9-12.2-13.7c4.9-3.1,9.5-6.6,13.5-10.5
		c1.1,8.7,8.5,15.4,17.5,15.4c9.8,0,17.7-7.9,17.7-17.7c0-9.8-7.9-17.7-17.7-17.7c-1.1,0-2.2,0.1-3.3,0.3c4-6.4,8-12.5,11.8-18.3
		c-0.2,1.1-0.3,2.2-0.3,3.4c0,10.8,8.8,19.5,19.5,19.5c10.8,0,19.5-8.8,19.5-19.6c0-10.8-8.8-19.5-19.5-19.5
		c-3.9,0-7.6,1.2-10.6,3.2c4.9-7.4,9.6-14.2,14-20.6c0,0.3,0,0.6,0,0.9c0,9.5,7.7,17.2,17.2,17.2c9.5,0,17.2-7.7,17.2-17.3
		c0-9.5-7.7-17.2-17.2-17.2c-2.3,0-4.5,0.5-6.5,1.3c4.2-5.8,8.1-11.1,11.8-15.9c1.5,5.2,6.3,8.9,11.9,8.9c6.9,0,12.4-5.6,12.4-12.5
		c0-6.7-5.3-12.1-11.9-12.4c21.8-27,32.4-34.8,33-35.2C210.3,37.5,203,50.2,203.9,84.4z"/>
	<path class="st1" d="M203.9,84.4c5.3,53.9-89.6,195.3-191.6,162.6c4.8-9.1,13-15.8,22.6-21.6c-1.1,1.7-1.7,3.8-1.7,6
		c0,6.3,5.1,11.4,11.4,11.4c6.3,0,11.4-5.1,11.4-11.4c0-6.3-5-11.3-11.3-11.4c7-3.6,14.4-7,21.6-10.7c-0.8,1.8-1.3,3.7-1.3,5.8
		c0,7.6,6.2,13.8,13.8,13.8c7.6,0,13.8-6.2,13.8-13.8c0-7.1-5.4-12.9-12.2-13.7c4.9-3.1,9.5-6.6,13.5-10.5
		c1.1,8.7,8.5,15.4,17.5,15.4c9.8,0,17.7-7.9,17.7-17.7c0-9.8-7.9-17.7-17.7-17.7c-1.1,0-2.2,0.1-3.3,0.3c4-6.4,8-12.5,11.8-18.3
		c-0.2,1.1-0.3,2.2-0.3,3.4c0,10.8,8.8,19.5,19.5,19.5c10.8,0,19.5-8.8,19.5-19.6c0-10.8-8.8-19.5-19.5-19.5
		c-3.9,0-7.6,1.2-10.6,3.2c4.9-7.4,9.6-14.2,14-20.6c0,0.3,0,0.6,0,0.9c0,9.5,7.7,17.2,17.2,17.2c9.5,0,17.2-7.7,17.2-17.3
		c0-9.5-7.7-17.2-17.2-17.2c-2.3,0-4.5,0.5-6.5,1.3c4.2-5.8,8.1-11.1,11.8-15.9c1.5,5.2,6.3,8.9,11.9,8.9c6.9,0,12.4-5.6,12.4-12.5
		c0-6.7-5.3-12.1-11.9-12.4c21.8-27,32.4-34.8,33-35.2C210.3,37.5,203,50.2,203.9,84.4z"/>
	<g class="st19">
		<path d="M63.3,233.6c0,6.3-5.1,11.4-11.4,11.4c-6.3,0-11.4-5.1-11.4-11.4c0-2.2,0.6-4.2,1.7-6c3.1-1.9,6.4-3.7,9.8-5.4
			C58.3,222.2,63.3,227.3,63.3,233.6z"/>
		<path d="M100,217.2c0,7.6-6.2,13.8-13.8,13.8c-7.6,0-13.8-6.2-13.8-13.8c0-2.1,0.4-4,1.3-5.8c4.9-2.5,9.7-5.1,14.2-8
			C94.7,204.3,100,210.1,100,217.2z"/>
		<path d="M136.5,190.7c0,9.8-7.9,17.7-17.7,17.7c-9,0-16.4-6.7-17.5-15.4c3-2.9,5.7-6.1,8-9.7c2.1-3.4,4.2-6.7,6.2-9.9
			c1.1-0.2,2.2-0.3,3.3-0.3C128.6,173,136.5,180.9,136.5,190.7z"/>
		<path d="M166,158.4c0,10.8-8.7,19.6-19.5,19.6c-10.8,0-19.5-8.7-19.5-19.5c0-1.1,0.1-2.3,0.3-3.4c2.9-4.5,5.8-8.8,8.6-13
			c3.1-2,6.7-3.2,10.6-3.2C157.2,138.9,166,147.6,166,158.4z"/>
		<path d="M184.3,122.3c0,9.5-7.7,17.3-17.2,17.3c-9.5,0-17.2-7.7-17.2-17.2c0-0.3,0-0.6,0-0.9c3.7-5.3,7.3-10.4,10.7-15.1
			c2-0.8,4.2-1.3,6.5-1.3C176.6,105,184.3,112.8,184.3,122.3z"/>
		<path d="M196.7,86.8c0,6.9-5.6,12.5-12.4,12.5c-5.6,0-10.4-3.7-11.9-8.9c4.5-6,8.7-11.3,12.5-16C191.5,74.7,196.7,80.2,196.7,86.8
			z"/>
	</g>
	<path class="st18" d="M56.1,231.3c0,6.3-5.1,11.4-11.4,11.4c-6.3,0-11.4-5.1-11.4-11.4c0-2.2,0.6-4.2,1.7-6
		c3.1-1.9,6.4-3.7,9.8-5.4C51.1,220,56.1,225,56.1,231.3z"/>
	<path class="st18" d="M92.8,214.9c0,7.6-6.2,13.8-13.8,13.8c-7.6,0-13.8-6.2-13.8-13.8c0-2.1,0.4-4,1.3-5.8c4.9-2.5,9.7-5.1,14.2-8
		C87.4,202,92.8,207.8,92.8,214.9z"/>
	<path class="st18" d="M129.2,188.4c0,9.8-7.9,17.7-17.7,17.7c-9,0-16.4-6.7-17.5-15.4c3-2.9,5.7-6.1,8-9.7c2.1-3.4,4.2-6.7,6.2-9.9
		c1.1-0.2,2.2-0.3,3.3-0.3C121.3,170.8,129.2,178.7,129.2,188.4z"/>
	<path class="st18" d="M158.8,156.1c0,10.8-8.7,19.6-19.5,19.6c-10.8,0-19.5-8.7-19.5-19.5c0-1.1,0.1-2.3,0.3-3.4
		c2.9-4.5,5.8-8.8,8.6-13c3.1-2,6.7-3.2,10.6-3.2C150,136.6,158.8,145.3,158.8,156.1z"/>
	<path class="st18" d="M177.1,120c0,9.5-7.7,17.3-17.2,17.3c-9.5,0-17.2-7.7-17.2-17.2c0-0.3,0-0.6,0-0.9
		c3.7-5.3,7.3-10.4,10.7-15.1c2-0.8,4.2-1.3,6.5-1.3C169.3,102.8,177.1,110.5,177.1,120z"/>
	<path class="st18" d="M189.5,84.6c0,6.9-5.6,12.5-12.4,12.5c-5.6,0-10.4-3.7-11.9-8.9c4.5-6,8.7-11.3,12.5-16
		C184.2,72.4,189.5,77.9,189.5,84.6z"/>
	<path class="st19" d="M208.2,42.9C208.2,42.9,208.2,42.9,208.2,42.9s-2.4-1.8-2.4-1.8C205.8,41,208.2,42.9,208.2,42.9
		c-0.4,0.3,6.2,2.3-3.6,12.8c-4.8,5.1-10.8,12-18,20.8c-3.8,4.7-8,10-12.5,16c-3.7,4.9-7.6,10.2-11.8,15.9c-3.4,4.7-7,9.7-10.7,15.1
		c-4.5,6.4-9.1,13.3-14,20.6c-2.8,4.2-5.6,8.5-8.6,13c-3.8,5.8-7.7,11.9-11.8,18.3c-2,3.2-4.1,6.5-6.2,9.9c-0.5,0.8-1,1.6-1.6,2.3
		c-1.9,2.7-4.1,5.1-6.4,7.4c-4,3.9-8.6,7.4-13.5,10.5c-4.5,2.9-9.3,5.5-14.2,8c-7.2,3.7-14.6,7.1-21.6,10.7
		c-3.4,1.8-6.7,3.5-9.8,5.4c-9.6,5.8-17.8,12.5-22.6,21.6c-15.4-9.1,17.2-26.7,17.2-26.7c5.4-4.3,14.9-8.3,20.8-13
		c16.5-13.2,47.8-44.4,56.5-53.5c43.5-46,48.9-77.2,71.7-98.7C197.9,49.7,197.6,42.7,208.2,42.9z"/>
	<path class="st16" d="M210.7,36.9C210.7,36.9,210.7,36.9,210.7,36.9C210.7,36.9,210.7,36.9,210.7,36.9
		C210.7,36.9,210.7,36.9,210.7,36.9c-0.4,0.3-5.3,3.9-15.1,14.4c-4.8,5.1-10.8,12-18,20.8c-3.8,4.7-8,10-12.5,16
		c-3.7,4.9-7.6,10.2-11.8,15.9c-3.4,4.7-7,9.7-10.7,15.1c-4.5,6.4-9.1,13.3-14,20.6c-2.8,4.2-5.6,8.5-8.6,13
		c-3.8,5.8-7.7,11.9-11.8,18.3c-2,3.2-4.1,6.5-6.2,9.9c-0.5,0.8-1,1.6-1.6,2.3c-1.9,2.7-4.1,5.1-6.4,7.4c-4,3.9-8.6,7.4-13.5,10.5
		c-4.5,2.9-9.3,5.5-14.2,8c-7.2,3.7-14.6,7.1-21.6,10.7c-3.4,1.8-6.7,3.5-9.8,5.4c-9.6,5.8-17.8,12.5-22.6,21.6
		c-15.4-9.1,18.4-35.6,18.4-35.6c5.4-4.3,11.3-8.9,17.1-13.6c16.5-13.2,33.3-27,42.1-36.2c43.5-46,61.2-88.9,84-110.4
		C184.3,41.6,195.6,36.2,210.7,36.9z"/>
	<g>
		<path class="st16" d="M174,51.2c-22.8,21.5-40.5,64.4-84,110.4c-8.7,9.1-25.5,23-42.1,36.2c-13.7,0.2-27.4-2.8-40.4-9.8
			c-10.9-9.5,20-25.7,20-25.7c18.9-9.9,43.3-22.8,54.6-30.9C129.1,97.1,149.1,61.1,174,51.2z"/>
	</g>
	<g class="st19">
		<path d="M155.1,69.1c-15.1,22.3-36.6,62.4-65.1,92.5c-8.7,9.1-25.5,23-42.1,36.2c-5.1,0.1-7.5,0-12.5-0.9
			C78.5,169.5,118.9,118.1,155.1,69.1z"/>
	</g>
	<g class="st27">
		<path class="st28" d="M174,51.2c-24.9,9.8-44.9,45.8-92,80.1c-11.3,8.1-35.7,21-54.6,30.9c0,0-30.9,16.2-20,25.7
			c13.1,7,26.8,10,40.4,9.8c0,0-22.6-5.2-21.9-16.2c0.7-11,61.6-32.6,103.3-82.1C148,79.3,174,51.2,174,51.2z"/>
	</g>
	<path class="st1" d="M210.7,36.9C210.7,36.9,210.7,36.9,210.7,36.9C210.7,36.9,210.7,36.9,210.7,36.9
		C210.7,36.9,210.7,36.9,210.7,36.9c-0.4,0.3-5.3,3.9-15.1,14.4c-4.8,5.1-10.8,12-18,20.8c-3.8,4.7-8,10-12.5,16
		c-3.7,4.9-7.6,10.2-11.8,15.9c-3.4,4.7-7,9.7-10.7,15.1c-4.5,6.4-9.1,13.3-14,20.6c-2.8,4.2-5.6,8.5-8.6,13
		c-3.8,5.8-7.7,11.9-11.8,18.3c-2,3.2-4.1,6.5-6.2,9.9c-0.5,0.8-1,1.6-1.6,2.3c-1.9,2.7-4.1,5.1-6.4,7.4c-4,3.9-8.6,7.4-13.5,10.5
		c-4.5,2.9-9.3,5.5-14.2,8c-7.2,3.7-14.6,7.1-21.6,10.7c-3.4,1.8-6.7,3.5-9.8,5.4c-9.6,5.8-17.8,12.5-22.6,21.6
		c-15.4-9.1,18.4-35.6,18.4-35.6c5.4-4.3,11.3-8.9,17.1-13.6c16.5-13.2,33.3-27,42.1-36.2c43.5-46,61.2-88.9,84-110.4
		C184.3,41.6,195.6,36.2,210.7,36.9z"/>
	<path class="st1" d="M56.1,231.3c0,6.3-5.1,11.4-11.4,11.4c-6.3,0-11.4-5.1-11.4-11.4c0-2.2,0.6-4.2,1.7-6c3.1-1.9,6.4-3.7,9.8-5.4
		C51.1,220,56.1,225,56.1,231.3z"/>
	<path class="st1" d="M92.8,214.9c0,7.6-6.2,13.8-13.8,13.8c-7.6,0-13.8-6.2-13.8-13.8c0-2.1,0.4-4,1.3-5.8c4.9-2.5,9.7-5.1,14.2-8
		C87.4,202,92.8,207.8,92.8,214.9z"/>
	<path class="st1" d="M129.2,188.4c0,9.8-7.9,17.7-17.7,17.7c-9,0-16.4-6.7-17.5-15.4c3-2.9,5.7-6.1,8-9.7c2.1-3.4,4.2-6.7,6.2-9.9
		c1.1-0.2,2.2-0.3,3.3-0.3C121.3,170.8,129.2,178.7,129.2,188.4z"/>
	<path class="st1" d="M158.8,156.1c0,10.8-8.7,19.6-19.5,19.6c-10.8,0-19.5-8.7-19.5-19.5c0-1.1,0.1-2.3,0.3-3.4
		c2.9-4.5,5.8-8.8,8.6-13c3.1-2,6.7-3.2,10.6-3.2C150,136.6,158.8,145.3,158.8,156.1z"/>
	<path class="st1" d="M177.1,120c0,9.5-7.7,17.3-17.2,17.3c-9.5,0-17.2-7.7-17.2-17.2c0-0.3,0-0.6,0-0.9c3.7-5.3,7.3-10.4,10.7-15.1
		c2-0.8,4.2-1.3,6.5-1.3C169.3,102.8,177.1,110.5,177.1,120z"/>
	<path class="st1" d="M189.5,84.6c0,6.9-5.6,12.5-12.4,12.5c-5.6,0-10.4-3.7-11.9-8.9c4.5-6,8.7-11.3,12.5-16
		C184.2,72.4,189.5,77.9,189.5,84.6z"/>
	<path class="st1" d="M210.6,36.9c0,0,12.7-23.2,25.8-16.8c13.1,6.5,4.7,18.9-1.8,16.7c0,0-25.4-21.5,16.2-33.1"/>
	<g>
		<path class="st1" d="M174,51.2c-22.8,21.5-40.5,64.4-84,110.4c-8.7,9.1-25.5,23-42.1,36.2c-13.7,0.2-27.4-2.8-40.4-9.8
			c-10.9-9.5,20-25.7,20-25.7c18.9-9.9,43.3-22.8,54.6-30.9C129.1,97.1,149.1,61.1,174,51.2z"/>
	</g>
</g>
</svg>
