<?xml version="1.0" encoding="utf-8"?>
<!-- Generator: Adobe Illustrator 21.1.0, SVG Export Plug-In . SVG Version: 6.00 Build 0)  -->
<svg version="1.1" id="Icon_Set" xmlns="http://www.w3.org/2000/svg" xmlns:xlink="http://www.w3.org/1999/xlink" x="0px" y="0px"
	 viewBox="0 0 512 512" style="enable-background:new 0 0 512 512;" xml:space="preserve">
<style type="text/css">
	.st0{fill:#FFFFFF;}
	.st1{fill:#5B7C31;}
	.st2{fill:#E56823;}
	.st3{fill:#FE8E46;}
	.st4{fill:#7DAC51;}
	.st5{fill:#463218;}
	.st6{fill:#FEFE71;}
	.st7{fill:#D6CD1E;}
	.st8{fill:none;stroke:#FFFFFF;stroke-width:14;stroke-miterlimit:10;}
	.st9{fill:none;stroke:#463218;stroke-width:14;stroke-linecap:round;stroke-linejoin:round;stroke-miterlimit:10;}
</style>
<g id="Pie">
	<g>
		<g>
			<g>
				<g>
					<polygon class="st6" points="352.6,402.4 159.4,402.4 128,308.7 384,308.7 					"/>
				</g>
			</g>
		</g>
		<g>
			<g>
				<g>
					<polygon class="st7" points="128,308.7 159.4,402.4 219,402.4 187.6,308.7 					"/>
				</g>
			</g>
		</g>
		<g>
			<g>
				<g>
					<path class="st5" d="M352.6,409.4H159.4c-3,0-5.7-1.9-6.6-4.8L121.4,311c-0.7-2.1-0.4-4.5,1-6.3c1.3-1.8,3.4-2.9,5.7-2.9h256
						c2.3,0,4.4,1.1,5.7,2.9c1.3,1.8,1.7,4.2,1,6.3l-31.4,93.7C358.2,407.5,355.6,409.4,352.6,409.4z M164.5,395.4h183l26.7-79.7
						H137.7L164.5,395.4z"/>
				</g>
			</g>
		</g>
		<g>
			<g>
				<g>
					<path class="st3" d="M397.2,298.6c15.5,0,28,13.8,27,30.3c-0.8,14.2-11.8,25.8-25.3,26.6c-12.1,0.8-22.7-6.8-26.8-17.9
						c-4.6-12-13.7-21.7-25.5-25.1c-18.1-5.3-38.3-0.4-52.5,14.5c-21,22.2-55.1,22.2-76.1,0c-14.2-15-34.4-19.8-52.5-14.5
						c-11.8,3.5-21,13.1-25.5,25.1c-4.2,11-14.7,18.7-26.8,17.9c-13.5-0.9-24.4-12.4-25.3-26.6c-1-16.6,11.5-30.3,27-30.3l6.2-7.5
						c17.9-21.8,40.4-39,65.6-50.1l0,0c44.4-19.6,94.4-19.4,138.6,0.5l2,0.9c24.1,10.9,45.6,27.3,63,47.9L397.2,298.6z"/>
				</g>
			</g>
		</g>
		<g>
			<g>
				<g>
					<path class="st2" d="M186.6,240.9L186.6,240.9c-25.2,11.2-47.7,28.3-65.6,50.1l-6.2,7.5c-15.5,0-28,13.8-27,30.3
						c0.8,14.2,11.8,25.8,25.3,26.6c12.1,0.8,22.7-6.8,26.8-17.9c4.6-12,13.7-21.7,25.5-25.1c17.5-5.1,37-0.7,51.2,13.2
						c4.5-63.7,39.3-99.4,39.4-99.4C232.4,226.2,208.8,231.1,186.6,240.9z"/>
				</g>
			</g>
		</g>
		<g>
			<g>
				<g>
					<path class="st5" d="M397.2,362.6c-13.9,0-26.5-8.8-31.7-22.5c-4-10.5-11.6-18.2-20.9-20.9c-16.1-4.7-33.6,0.1-45.4,12.6
						c-11.5,12.1-26.8,18.8-43.1,18.8s-31.6-6.7-43.1-18.8c-11.9-12.5-29.3-17.4-45.4-12.6c-9.3,2.7-16.9,10.3-20.9,20.9
						c-5.4,14.4-19,23.3-33.8,22.4c-17.1-1.1-30.7-15.4-31.8-33.2c-0.6-10.1,2.9-20,9.7-27.1c5.6-6,12.9-9.6,20.8-10.4l4.2-5.1
						c18.5-22.5,42.1-40.5,68.2-52.1c45.9-20.3,98.6-20.1,144.4,0.5l2,0.9c24.9,11.2,47.6,28.5,65.5,49.8l5,6
						c7.9,0.8,15.2,4.4,20.9,10.4c6.8,7.2,10.3,17.1,9.7,27.1c-1,17.8-14.7,32.1-31.8,33.2C398.6,362.6,397.9,362.6,397.2,362.6z
						 M332.1,303.5c5.5,0,11,0.8,16.4,2.4c13.6,4,24.5,14.7,30.1,29.4c3.2,8.6,11.2,13.9,19.8,13.4c9.9-0.6,18.1-9.5,18.7-20.1
						c0.4-6.2-1.8-12.3-5.9-16.7c-3.8-4-8.8-6.2-14.1-6.2c-2.1,0-4-0.9-5.4-2.5l-7-8.3c-16.6-19.8-37.5-35.7-60.5-46.1l-2-0.9
						c-42.2-19-90.6-19.2-132.9-0.5c-24.1,10.7-45.9,27.3-63,48.2l-6.2,7.5c-1.3,1.6-3.3,2.6-5.4,2.6c-5.3,0-10.3,2.2-14.1,6.2
						c-4.1,4.4-6.3,10.5-5.9,16.7c0.6,10.6,8.9,19.4,18.7,20.1c8.6,0.6,16.6-4.8,19.8-13.4c5.6-14.7,16.5-25.4,30.1-29.4
						c21.2-6.2,44,0.1,59.5,16.5c8.8,9.3,20.5,14.4,33,14.4s24.1-5.1,33-14.4C300.5,310.1,316.2,303.5,332.1,303.5z"/>
				</g>
			</g>
		</g>
		<g>
			<g>
				<g>
					<path class="st5" d="M256,292.2c-3.9,0-7-3.1-7-7v-29.4c0-3.9,3.1-7,7-7s7,3.1,7,7v29.4C263,289.1,259.9,292.2,256,292.2z"/>
				</g>
			</g>
		</g>
		<g>
			<g>
				<g>
					<path class="st5" d="M193.2,292.2c-1.4,0-2.9-0.4-4.1-1.4c-3.1-2.3-3.8-6.7-1.5-9.8l16.7-22.8c2.3-3.1,6.7-3.8,9.8-1.5
						c3.1,2.3,3.8,6.7,1.5,9.8l-16.7,22.8C197.5,291.2,195.4,292.2,193.2,292.2z"/>
				</g>
			</g>
		</g>
		<g>
			<g>
				<g>
					<path class="st5" d="M315.6,292.2c-2.2,0-4.3-1-5.7-2.9l-16.7-22.8c-2.3-3.1-1.6-7.5,1.5-9.8c3.1-2.3,7.5-1.6,9.8,1.5
						l16.7,22.8c2.3,3.1,1.6,7.5-1.5,9.8C318.4,291.8,317,292.2,315.6,292.2z"/>
				</g>
			</g>
		</g>
		<g>
			<g>
				<g>
					
						<rect x="166.7" y="339.6" transform="matrix(0.9457 -0.3251 0.3251 0.9457 -107.0961 75.9453)" class="st0" width="14" height="37.7"/>
				</g>
			</g>
		</g>
	</g>
	<g>
		<g>
			<g>
				<g>
					<path class="st5" d="M256,181.2c-1.8,0-3.6-0.7-4.9-2c-5.6-5.6-8.7-13.1-8.7-21c0-7.3,2.6-14.2,7.4-19.6
						c0.3-0.7,0.8-1.3,1.3-1.8c3-3,4.6-6.9,4.6-11.1s-1.6-8.1-4.6-11.1c-2.7-2.7-2.7-7.2,0-9.9c2.7-2.7,7.2-2.7,9.9,0
						c5.6,5.6,8.7,13.1,8.7,21c0,7.3-2.6,14.2-7.4,19.6c-0.3,0.7-0.8,1.3-1.3,1.8c-3,3-4.6,6.9-4.6,11.1s1.6,8.1,4.6,11.1
						c2.7,2.7,2.7,7.2,0,9.9C259.6,180.5,257.8,181.2,256,181.2z M256,142.1L256,142.1L256,142.1z"/>
				</g>
			</g>
		</g>
		<g>
			<g>
				<g>
					<path class="st5" d="M209.1,189.9c-1.8,0-3.6-0.7-4.9-2c-8-8-8.4-20.7-1.1-29.1c0.3-0.5,0.7-1,1.1-1.5c2.9-2.9,2.9-7.6,0-10.6
						c-2.7-2.7-2.7-7.2,0-9.9c2.7-2.7,7.2-2.7,9.9,0c4.1,4.1,6.3,9.4,6.3,15.2c0,5.2-1.8,10.1-5.2,14c-0.3,0.5-0.7,1-1.1,1.5
						c-2.9,2.9-2.9,7.7,0,10.6c2.7,2.7,2.7,7.2,0,9.9C212.7,189.2,210.9,189.9,209.1,189.9z M209.1,162.4L209.1,162.4L209.1,162.4z"
						/>
				</g>
			</g>
		</g>
		<g>
			<g>
				<g>
					<path class="st5" d="M302.9,189.9c-1.8,0-3.6-0.7-4.9-2c-8-8-8.4-20.7-1.1-29.1c0.3-0.5,0.7-1,1.1-1.5c1.4-1.4,2.2-3.3,2.2-5.3
						c0-2-0.8-3.9-2.2-5.3c-2.7-2.7-2.7-7.2,0-9.9c2.7-2.7,7.2-2.7,9.9,0c4.1,4.1,6.3,9.4,6.3,15.2c0,5.2-1.8,10.1-5.2,14
						c-0.3,0.5-0.7,1-1.1,1.5c-2.9,2.9-2.9,7.7,0,10.6c2.7,2.7,2.7,7.2,0,9.9C306.5,189.2,304.7,189.9,302.9,189.9z M302.9,162.4
						L302.9,162.4L302.9,162.4z"/>
				</g>
			</g>
		</g>
	</g>
</g>
</svg>
