<?xml version="1.0" encoding="utf-8"?>
<!-- Generator: Adobe Illustrator 21.1.0, SVG Export Plug-In . SVG Version: 6.00 Build 0)  -->
<svg version="1.1" id="Icon_Set" xmlns="http://www.w3.org/2000/svg" xmlns:xlink="http://www.w3.org/1999/xlink" x="0px" y="0px"
	 viewBox="0 0 512 512" style="enable-background:new 0 0 512 512;" xml:space="preserve">
<style type="text/css">
	.st0{fill:#FFFFFF;}
	.st1{fill:#5B7C31;}
	.st2{fill:#E56823;}
	.st3{fill:#FE8E46;}
	.st4{fill:#7DAC51;}
	.st5{fill:#463218;}
	.st6{fill:#FEFE71;}
	.st7{fill:#D6CD1E;}
	.st8{fill:none;stroke:#FFFFFF;stroke-width:14;stroke-miterlimit:10;}
	.st9{fill:none;stroke:#463218;stroke-width:14;stroke-linecap:round;stroke-linejoin:round;stroke-miterlimit:10;}
</style>
<g id="Pizza">
	<g>
		<g>
			<g>
				<path class="st7" d="M127.5,380.1l104.9-248.3c37.7,11.5,71.7,32.9,98.4,61.8s45.3,64.6,53.7,103.1L127.5,380.1z"/>
			</g>
		</g>
	</g>
	<g>
		<g>
			<g>
				<path class="st6" d="M311.5,211.6c24.2,26.3,41.7,58,51,92.4l22-7.1c-8.4-38.5-26.9-74.1-53.7-103.1
					c-26.7-29-60.7-50.3-98.4-61.8l-9,21.3C257,165.2,287.2,185.2,311.5,211.6z"/>
			</g>
		</g>
	</g>
	<g>
		<g>
			<g>
				<path class="st5" d="M127.5,387.2c-1.9,0-3.8-0.8-5.2-2.3c-1.9-2-2.4-4.9-1.3-7.5L226,129.1c1.4-3.3,5.1-5,8.5-4
					c38.9,11.9,74,33.9,101.5,63.8c27.5,29.9,46.7,66.7,55.4,106.4c0.8,3.5-1.3,7-4.7,8.2l-257,83.3
					C129,387,128.2,387.2,127.5,387.2z M236.4,140.5l-96.4,228.3l236.3-76.6c-8.7-34.9-26.1-67.2-50.5-93.7
					C301.2,171.9,270.5,152,236.4,140.5z"/>
			</g>
		</g>
	</g>
	<g>
		<g>
			<g>
				<path class="st6" d="M322.8,316.8c-10-56.5-50.5-105.5-109.2-123.4c-2.2-0.7-4.3-1.2-6.5-1.8l-79.6,188.5L322.8,316.8z"/>
			</g>
		</g>
	</g>
	<g>
		<g>
			<g>
				<path class="st5" d="M127.5,387.1c-1.9,0-3.8-0.8-5.2-2.3c-1.9-2-2.4-4.9-1.3-7.5L200.7,189c1.4-3.2,4.8-4.9,8.2-4.1
					c2,0.5,4.4,1.2,6.8,1.9c29.6,9,55.9,26.1,76.1,49.3c19.6,22.6,32.7,50.1,37.9,79.5c0.6,3.4-1.4,6.8-4.7,7.9l-195.2,63.3
					C129,387,128.2,387.1,127.5,387.1z M211.2,200.1l-71.3,168.7l174.8-56.7c-11.6-53.3-50.7-95.9-103.1-111.9
					C211.4,200.1,211.3,200.1,211.2,200.1z"/>
			</g>
		</g>
	</g>
	<g>
		<g>
			<g>
				<path class="st1" d="M287.9,295.5c10.1,0,19.2-4.7,25.1-12c-8-19.2-19.7-36.7-34.6-51.4c-13.3,4-22.9,16.4-22.9,31
					C255.5,281,270,295.5,287.9,295.5z"/>
			</g>
		</g>
	</g>
	<g>
		<g>
			<g>
				<path class="st5" d="M287.9,302.5c-21.7,0-39.4-17.7-39.4-39.4c0-17.5,11.2-32.6,27.9-37.7c2.5-0.8,5.1-0.1,7,1.7
					c15.5,15.4,27.7,33.4,36.1,53.7c1,2.4,0.6,5.1-1,7.1C310.9,297.2,299.8,302.5,287.9,302.5z M276.6,240.3
					c-8.6,4.2-14.2,12.9-14.2,22.8c0,14,11.4,25.4,25.4,25.4c6.3,0,12.2-2.3,16.9-6.4C297.7,266.6,288.3,252.6,276.6,240.3z"/>
			</g>
		</g>
	</g>
	<g>
		<g>
			<g>
				<path class="st3" d="M195.8,218.5L170.7,278c4.4,2.3,9.5,3.6,14.8,3.6c17.9,0,32.4-14.5,32.4-32.4
					C217.9,235,208.6,222.8,195.8,218.5z"/>
			</g>
		</g>
	</g>
	<g>
		<g>
			<g>
				<path class="st5" d="M185.5,288.6c-6.2,0-12.5-1.5-18-4.4c-3.3-1.7-4.7-5.6-3.2-8.9l25.1-59.5c1.4-3.4,5.2-5.1,8.7-3.9
					c16.1,5.4,26.8,20.4,26.8,37.3C224.9,271,207.2,288.6,185.5,288.6z M179.9,274c1.8,0.4,3.6,0.6,5.5,0.6
					c14,0,25.4-11.4,25.4-25.4c0-8.7-4.4-16.6-11.5-21.2L179.9,274z"/>
			</g>
		</g>
	</g>
	<g>
		<g>
			<g>
				<path class="st2" d="M217.9,315.4c-17.9,0-32.4,14.5-32.4,32.4c0,4.5,0.9,8.8,2.6,12.7l61.4-19.9
					C246.2,326.2,233.3,315.4,217.9,315.4z"/>
			</g>
		</g>
	</g>
	<g>
		<g>
			<g>
				<path class="st5" d="M188.1,367.5c-2.7,0-5.3-1.6-6.4-4.2c-2.1-4.9-3.2-10.1-3.2-15.5c0-21.7,17.7-39.4,39.4-39.4
					c18.5,0,34.3,12.6,38.4,30.7c0.8,3.5-1.2,7.1-4.7,8.2l-61.4,19.9C189.5,367.4,188.8,367.5,188.1,367.5z M217.9,322.4
					c-14,0-25.4,11.4-25.4,25.4c0,1.3,0.1,2.6,0.3,3.9l47.7-15.5C236.1,327.9,227.4,322.4,217.9,322.4z"/>
			</g>
		</g>
	</g>
	<g>
		<g>
			<g>
				<path class="st0" d="M281,215.2c-15.6-17.9-46.7-30.7-47-30.8l5.3-13c1.4,0.6,34.4,14.2,52.3,34.5L281,215.2z"/>
			</g>
		</g>
	</g>
</g>
</svg>
