<?xml version="1.0" encoding="utf-8"?>
<!-- Generator: Adobe Illustrator 22.1.0, SVG Export Plug-In . SVG Version: 6.00 Build 0)  -->
<svg version="1.1" id="Layer_1" xmlns="http://www.w3.org/2000/svg" xmlns:xlink="http://www.w3.org/1999/xlink" x="0px" y="0px"
	 viewBox="0 0 256 256" style="enable-background:new 0 0 256 256;" xml:space="preserve">
<style type="text/css">
	.st0{fill:#F5B31F;}
	.st1{fill:none;stroke:#464646;stroke-width:8;stroke-linecap:round;stroke-linejoin:round;stroke-miterlimit:10;}
	.st2{opacity:0.15;fill:#464646;}
	.st3{fill:#AC6535;}
	.st4{fill:#EB573B;}
	.st5{fill:#90C056;}
	.st6{opacity:0.35;fill:#FFFFFF;}
	.st7{opacity:0.2;fill:#FFFFFF;}
	.st8{fill:#F6D67A;}
	.st9{opacity:0.15;fill:#FFFFFF;}
	.st10{opacity:0.3;fill:#FFFFFF;}
	.st11{fill:#AC6535;stroke:#464646;stroke-width:8;stroke-linecap:round;stroke-linejoin:round;stroke-miterlimit:10;}
	.st12{fill:#EB573B;stroke:#464646;stroke-width:8;stroke-miterlimit:10;}
	.st13{opacity:0.15;}
	.st14{fill:#464646;}
	.st15{fill:#FFA755;}
	.st16{fill:#8FAE3C;}
	.st17{fill:#BE6BB2;}
	.st18{fill:#B7C536;}
	.st19{opacity:0.1;}
	.st20{fill:#9D5A96;}
	.st21{fill:#EA615D;}
	.st22{opacity:0.4;fill:#FFFFFF;}
	.st23{opacity:7.000000e-02;}
	.st24{fill:#F79932;}
	.st25{fill:#FFEC97;}
	.st26{fill:#FFD11D;}
	.st27{opacity:0.2;}
	.st28{fill:#FFFFFF;}
	.st29{fill:#F7F2D5;}
	.st30{fill:#F6AF72;}
	.st31{fill:#BA6C45;}
	.st32{opacity:0.5;fill:#FFFFFF;}
	.st33{fill:#E4C074;}
	.st34{fill:none;stroke:#656566;stroke-width:8;stroke-linecap:round;stroke-linejoin:round;stroke-miterlimit:10;}
	.st35{fill:#FFA755;stroke:#464646;stroke-width:8;stroke-linecap:round;stroke-linejoin:round;stroke-miterlimit:10;}
	.st36{fill:#FFD11D;stroke:#464646;stroke-width:8;stroke-linecap:round;stroke-linejoin:round;stroke-miterlimit:10;}
	.st37{fill:#FACD1F;}
	.st38{fill:#FFDF66;}
	.st39{fill:#FFEC97;stroke:#464646;stroke-width:8;stroke-linecap:round;stroke-linejoin:round;stroke-miterlimit:10;}
	.st40{fill:#FFDF66;stroke:#464646;stroke-width:8;stroke-linecap:round;stroke-linejoin:round;stroke-miterlimit:10;}
	.st41{opacity:0.2;fill:#464646;}
	.st42{fill:#FFFFFF;stroke:#464646;stroke-width:8;stroke-linecap:round;stroke-linejoin:round;stroke-miterlimit:10;}
	.st43{fill:#6D6E71;stroke:#464646;stroke-width:8;stroke-linecap:round;stroke-linejoin:round;stroke-miterlimit:10;}
	.st44{opacity:0.1;fill:#464646;}
	.st45{fill:#E77CAE;}
	.st46{fill:#FFE5C4;}
	.st47{fill:#F68455;stroke:#464646;stroke-width:8;stroke-linecap:round;stroke-linejoin:round;stroke-miterlimit:10;}
	.st48{opacity:0.7;}
	.st49{fill:#ADEDFF;}
	.st50{fill:#EC754B;}
	.st51{fill:#4AA5BA;}
	.st52{opacity:0.5;}
	.st53{opacity:0.8;}
	.st54{fill:#F68455;}
	.st55{fill:#92A5AC;}
	.st56{fill:#6D6E71;}
	.st57{fill:#D06E3C;}
	.st58{fill:#DA4F4B;}
	.st59{fill:#BDF3FF;}
	.st60{fill:#F18BB4;}
	.st61{fill:#F9D97A;}
	.st62{fill:none;}
	.st63{fill:#AF6535;}
	.st64{fill:#B93226;}
	.st65{fill:#FF6050;}
	.st66{fill:#D06E3C;stroke:#464646;stroke-miterlimit:10;}
	.st67{fill:#EA7CB1;}
	.st68{fill:none;stroke:#6D6E71;stroke-width:10;stroke-linecap:round;stroke-linejoin:round;stroke-miterlimit:10;}
	.st69{fill:#00B0E0;}
	.st70{fill:#EA7DAE;}
	.st71{opacity:0.1;fill:#FFFFFF;}
	.st72{fill:#BC7532;}
	.st73{fill:#876C6C;}
	.st74{fill:#F9F6CD;}
	.st75{fill:#FFE37B;}
	.st76{fill:#1DDCFF;}
	.st77{fill:#60ACF7;}
	.st78{fill:#C3755A;}
	.st79{fill:#96557A;}
	.st80{fill:#66625D;}
	.st81{fill:#D68032;}
	.st82{opacity:0.8;fill:#FFFFFF;}
	.st83{fill:#F2A355;}
	.st84{fill:#7E9E6A;}
	.st85{opacity:0.3;}
	.st86{fill:#965A85;}
	.st87{opacity:0.7;fill:#FFFFFF;}
	.st88{fill:#90CAD3;}
	.st89{fill:#94B57F;}
	.st90{fill:#B2E2E7;}
	.st91{fill:#FFDF8F;}
	.st92{fill:#FFFAEB;}
	.st93{fill:#F88916;}
	.st94{fill:#FFC86E;}
	.st95{fill:#AFA51D;}
	.st96{fill:#968A1C;}
	.st97{fill:#C3556D;}
</style>
<g>
	<path class="st0" d="M239.6,43.7c-0.2,0.8-2.3,5.2-5.7,12.3C160.4,27.2,89.8,27.2,22.1,56c-3.4-7-5.5-11.5-5.7-12.3
		C14.9,38,12.9,33,18.7,29.9C54.6,12.7,91,4,128,4c37,0.1,73.5,8.7,109.3,25.9C243.1,33,241.1,38,239.6,43.7z"/>
	<path class="st2" d="M237.3,29.9c5.7,3.1,3.7,8.1,2.2,13.8c-0.2,0.8-2.3,5.2-5.7,12.3c-23.4-9.2-46.5-15.4-69.4-18.8
		c0,0,52.3,5.6,62.2,3.1S237.3,29.9,237.3,29.9z"/>
	<path class="st6" d="M128,4C91,4,54.6,12.7,18.7,29.9c-5.7,3.1-3.7,8.1-2.2,13.8c0.2,0.8,2.3,5.2,5.7,12.3c0,0,8.3-13.6,21.5-24.3
		S128,4,128,4z"/>
	<path class="st1" d="M239.6,43.7c-0.2,0.8-2.3,5.2-5.7,12.3C160.4,27.2,89.8,27.2,22.1,56c-3.4-7-5.5-11.5-5.7-12.3
		C14.9,38,12.9,33,18.7,29.9C54.6,12.7,91,4,128,4c37,0.1,73.5,8.7,109.3,25.9C243.1,33,241.1,38,239.6,43.7z"/>
	<path class="st8" d="M22.1,56c6.5,13.5,18.1,36.8,30.8,62.5c4.6-2.6,10-4,15.7-4c17.9,0,32.4,14.5,32.4,32.5
		c0,13.2-7.8,24.5-19.1,29.6c18.8,37.5,34.5,68.7,35.2,70.4c2,4.2,5.9,5.1,10.8,5.1c4.8,0,8.8-0.9,10.8-5.1
		c0.5-1.1,7.1-14.3,16.8-33.5c-12.2-4.7-20.9-16.5-20.9-30.3c0-17.9,14.5-32.5,32.4-32.5c6.4,0,12.3,1.8,17.4,5.1
		c19.4-38.8,39.8-79.7,49.4-99.6C160.4,27.2,89.8,27.2,22.1,56z M141.9,122.5c-17.9,0-32.4-14.5-32.4-32.5
		c0-17.9,14.5-32.5,32.4-32.5c17.9,0,32.4,14.5,32.4,32.5C174.3,108,159.8,122.5,141.9,122.5z"/>
	<path class="st1" d="M22.1,56c6.5,13.5,18.1,36.8,30.8,62.5c4.6-2.6,10-4,15.7-4c17.9,0,32.4,14.5,32.4,32.5
		c0,13.2-7.8,24.5-19.1,29.6c18.8,37.5,34.5,68.7,35.2,70.4c2,4.2,5.9,5.1,10.8,5.1c4.8,0,8.8-0.9,10.8-5.1
		c0.5-1.1,7.1-14.3,16.8-33.5c-12.2-4.7-20.9-16.5-20.9-30.3c0-17.9,14.5-32.5,32.4-32.5c6.4,0,12.3,1.8,17.4,5.1
		c19.4-38.8,39.8-79.7,49.4-99.6C160.4,27.2,89.8,27.2,22.1,56z M141.9,122.5c-17.9,0-32.4-14.5-32.4-32.5
		c0-17.9,14.5-32.5,32.4-32.5c17.9,0,32.4,14.5,32.4,32.5C174.3,108,159.8,122.5,141.9,122.5z"/>
	<ellipse class="st2" cx="150.9" cy="94.8" rx="32.4" ry="32.5"/>
	<ellipse class="st3" cx="141.7" cy="90.1" rx="32.4" ry="32.5"/>
	<path class="st7" d="M158.3,62.2c-4.8-2.9-10.5-4.5-16.6-4.5c-17.9,0-32.4,14.5-32.4,32.5c0,9.8,4.3,18.6,11.2,24.5
		c0,0-10.8-19.5,2.5-37.5S158.3,62.2,158.3,62.2z"/>
	<path class="st2" d="M85.8,177.9c30.5,1.5,34.2-55.6,0-61.5L85.8,177.9z"/>
	<path class="st3" d="M100.9,147c0,13.2-7.8,24.5-19.1,29.6c-9.4-18.7-19.5-39.1-29-58c4.6-2.6,10-4,15.7-4
		C86.4,114.5,100.9,129.1,100.9,147z"/>
	<path class="st7" d="M83.2,118.1c-4.4-2.3-9.4-3.5-14.7-3.5c-5.7,0-11,1.5-15.7,4c9.5,19,19.6,39.3,29,58c0,0-14.7-39.1-16.3-49.3
		C63.9,117.1,83.2,118.1,83.2,118.1z"/>
	<path class="st3" d="M184.5,155.6c-10.5,21.1-20.8,41.6-28.9,57.8c-12.2-4.7-20.9-16.5-20.9-30.3c0-17.9,14.5-32.5,32.4-32.5
		C173.5,150.5,179.5,152.4,184.5,155.6z"/>
	<path class="st7" d="M167.1,150.5c-17.9,0-32.4,14.5-32.4,32.5c0,13.8,8.7,25.7,20.9,30.3c0,0-11.8-13.6-9.8-33.9
		S167.1,150.5,167.1,150.5z"/>
	<ellipse class="st1" cx="141.7" cy="90.1" rx="32.4" ry="32.5"/>
	<path class="st1" d="M100.9,147c0,13.2-7.8,24.5-19.1,29.6c-9.4-18.7-19.5-39.1-29-58c4.6-2.6,10-4,15.7-4
		C86.4,114.5,100.9,129.1,100.9,147z"/>
	<path class="st1" d="M184.5,155.6c-10.5,21.1-20.8,41.6-28.9,57.8c-12.2-4.7-20.9-16.5-20.9-30.3c0-17.9,14.5-32.5,32.4-32.5
		C173.5,150.5,179.5,152.4,184.5,155.6z"/>
</g>
</svg>
