<?xml version="1.0" encoding="utf-8"?>
<!-- Generator: Adobe Illustrator 21.1.0, SVG Export Plug-In . SVG Version: 6.00 Build 0)  -->
<svg version="1.1" id="Icon_Set" xmlns="http://www.w3.org/2000/svg" xmlns:xlink="http://www.w3.org/1999/xlink" x="0px" y="0px"
	 viewBox="0 0 512 512" style="enable-background:new 0 0 512 512;" xml:space="preserve">
<style type="text/css">
	.st0{fill:#FFFFFF;}
	.st1{fill:#5B7C31;}
	.st2{fill:#E56823;}
	.st3{fill:#FE8E46;}
	.st4{fill:#7DAC51;}
	.st5{fill:#463218;}
	.st6{fill:#FEFE71;}
	.st7{fill:#D6CD1E;}
	.st8{fill:none;stroke:#FFFFFF;stroke-width:14;stroke-miterlimit:10;}
	.st9{fill:none;stroke:#463218;stroke-width:14;stroke-linecap:round;stroke-linejoin:round;stroke-miterlimit:10;}
</style>
<g id="Popcorn">
	<g>
		<g>
			<g>
				<circle class="st6" cx="218.9" cy="146.8" r="24.2"/>
			</g>
		</g>
	</g>
	<g>
		<g>
			<g>
				<path class="st5" d="M218.9,177.9c-17.2,0-31.2-14-31.2-31.2c0-17.2,14-31.2,31.2-31.2s31.2,14,31.2,31.2
					C250.1,163.9,236.1,177.9,218.9,177.9z M218.9,129.6c-9.5,0-17.2,7.7-17.2,17.2c0,9.5,7.7,17.2,17.2,17.2s17.2-7.7,17.2-17.2
					C236.1,137.3,228.4,129.6,218.9,129.6z"/>
			</g>
		</g>
	</g>
	<g>
		<g>
			<g>
				<circle class="st6" cx="291.7" cy="146.8" r="24.2"/>
			</g>
		</g>
	</g>
	<g>
		<g>
			<g>
				<path class="st5" d="M291.7,177.9c-17.2,0-31.2-14-31.2-31.2c0-17.2,14-31.2,31.2-31.2s31.2,14,31.2,31.2
					C322.9,163.9,308.9,177.9,291.7,177.9z M291.7,129.6c-9.5,0-17.2,7.7-17.2,17.2c0,9.5,7.7,17.2,17.2,17.2s17.2-7.7,17.2-17.2
					C308.9,137.3,301.2,129.6,291.7,129.6z"/>
			</g>
		</g>
	</g>
	<g>
		<g>
			<g>
				<circle class="st6" cx="256" cy="162.3" r="29.8"/>
			</g>
		</g>
	</g>
	<g>
		<g>
			<g>
				<path class="st5" d="M256,199.2c-20.3,0-36.8-16.5-36.8-36.8c0-20.3,16.5-36.8,36.8-36.8s36.8,16.5,36.8,36.8
					C292.8,182.7,276.3,199.2,256,199.2z M256,139.5c-12.6,0-22.8,10.2-22.8,22.8c0,12.6,10.2,22.8,22.8,22.8s22.8-10.2,22.8-22.8
					C278.8,149.7,268.6,139.5,256,139.5z"/>
			</g>
		</g>
	</g>
	<g>
		<g>
			<g>
				<circle class="st6" cx="206.8" cy="183.7" r="29.8"/>
			</g>
		</g>
	</g>
	<g>
		<g>
			<g>
				<path class="st5" d="M206.8,220.5c-20.3,0-36.8-16.5-36.8-36.8c0-20.3,16.5-36.8,36.8-36.8s36.8,16.5,36.8,36.8
					C243.6,204,227.1,220.5,206.8,220.5z M206.8,160.8c-12.6,0-22.8,10.2-22.8,22.8c0,12.6,10.2,22.8,22.8,22.8s22.8-10.2,22.8-22.8
					C229.6,171.1,219.4,160.8,206.8,160.8z"/>
			</g>
		</g>
	</g>
	<g>
		<g>
			<g>
				<circle class="st6" cx="302.6" cy="183.7" r="29.8"/>
			</g>
		</g>
	</g>
	<g>
		<g>
			<g>
				<path class="st5" d="M302.6,220.5c-20.3,0-36.8-16.5-36.8-36.8c0-20.3,16.5-36.8,36.8-36.8s36.8,16.5,36.8,36.8
					C339.5,204,323,220.5,302.6,220.5z M302.6,160.8c-12.6,0-22.8,10.2-22.8,22.8c0,12.6,10.2,22.8,22.8,22.8s22.8-10.2,22.8-22.8
					C325.5,171.1,315.2,160.8,302.6,160.8z"/>
			</g>
		</g>
	</g>
	<g>
		<g>
			<g>
				<circle class="st6" cx="256" cy="206.5" r="29.8"/>
			</g>
		</g>
	</g>
	<g>
		<g>
			<g>
				<path class="st5" d="M256,243.3c-20.3,0-36.8-16.5-36.8-36.8s16.5-36.8,36.8-36.8s36.8,16.5,36.8,36.8S276.3,243.3,256,243.3z
					 M256,183.6c-12.6,0-22.8,10.2-22.8,22.8s10.2,22.8,22.8,22.8s22.8-10.2,22.8-22.8S268.6,183.6,256,183.6z"/>
			</g>
		</g>
	</g>
	<g>
		<g>
			<g>
				<path class="st3" d="M335.1,198.7c0,0-66.9-7.4-79.1,18.2c-12.2-25.7-79.1-18.2-79.1-18.2l32,190.7h94L335.1,198.7z"/>
			</g>
		</g>
	</g>
	<g>
		<g>
			<g>
				<path class="st2" d="M256,217c-12.2-25.7-79.1-18.2-79.1-18.2l32,190.7H256V217z"/>
			</g>
		</g>
	</g>
	<g>
		<g>
			<g>
				<path class="st5" d="M302.9,396.4h-94c-3.4,0-6.3-2.5-6.9-5.8l-32-190.7c-0.3-1.9,0.2-3.8,1.3-5.4c1.2-1.5,2.9-2.5,4.8-2.7
					c6.5-0.7,58.6-5.8,79.9,13.7c21.2-19.5,73.3-14.5,79.9-13.7c1.9,0.2,3.7,1.2,4.8,2.7c1.2,1.5,1.6,3.5,1.3,5.4l-32.2,190.7
					C309.2,394,306.3,396.4,302.9,396.4z M214.8,382.4H297l29.9-177.3c-6.4-0.4-16.2-0.7-26.5,0.1c-20.8,1.6-34.4,6.8-38.1,14.7
					c-1.2,2.4-3.6,4-6.3,4s-5.2-1.6-6.3-4c-3.8-7.9-17.3-13.2-38.1-14.7c-10.2-0.8-20.1-0.5-26.5-0.1L214.8,382.4z"/>
			</g>
		</g>
	</g>
	<g>
		<g>
			<g>
				<polygon class="st4" points="198.5,327.1 313.5,327.1 324.8,259.9 187.2,259.9 				"/>
			</g>
		</g>
	</g>
	<g>
		<g>
			<g>
				<polygon class="st1" points="256,259.9 187.2,259.9 198.5,327.1 256,327.1 				"/>
			</g>
		</g>
	</g>
	<g>
		<g>
			<g>
				<path class="st5" d="M313.5,334.1h-115c-3.4,0-6.3-2.5-6.9-5.8L180.3,261c-0.3-2,0.2-4.1,1.6-5.7s3.3-2.5,5.3-2.5h137.6
					c2.1,0,4,0.9,5.3,2.5s1.9,3.7,1.6,5.7l-11.3,67.2C319.8,331.6,316.9,334.1,313.5,334.1z M204.4,320.1h103.1l9-53.2H195.5
					L204.4,320.1z"/>
			</g>
		</g>
	</g>
	<g>
		<g>
			<g>
				<rect x="272.8" y="275.3" class="st0" width="29.8" height="14"/>
			</g>
		</g>
	</g>
</g>
</svg>
