<?xml version="1.0" encoding="utf-8"?>
<!-- Generator: Adobe Illustrator 22.1.0, SVG Export Plug-In . SVG Version: 6.00 Build 0)  -->
<svg version="1.1" id="Layer_1" xmlns="http://www.w3.org/2000/svg" xmlns:xlink="http://www.w3.org/1999/xlink" x="0px" y="0px"
	 viewBox="0 0 256 256" style="enable-background:new 0 0 256 256;" xml:space="preserve">
<style type="text/css">
	.st0{fill:#F5B31F;}
	.st1{fill:none;stroke:#464646;stroke-width:8;stroke-linecap:round;stroke-linejoin:round;stroke-miterlimit:10;}
	.st2{opacity:0.15;fill:#464646;}
	.st3{fill:#AC6535;}
	.st4{fill:#EB573B;}
	.st5{fill:#90C056;}
	.st6{opacity:0.35;fill:#FFFFFF;}
	.st7{opacity:0.2;fill:#FFFFFF;}
	.st8{fill:#F6D67A;}
	.st9{opacity:0.15;fill:#FFFFFF;}
	.st10{opacity:0.3;fill:#FFFFFF;}
	.st11{fill:#AC6535;stroke:#464646;stroke-width:8;stroke-linecap:round;stroke-linejoin:round;stroke-miterlimit:10;}
	.st12{fill:#EB573B;stroke:#464646;stroke-width:8;stroke-miterlimit:10;}
	.st13{opacity:0.15;}
	.st14{fill:#464646;}
	.st15{fill:#FFA755;}
	.st16{fill:#8FAE3C;}
	.st17{fill:#BE6BB2;}
	.st18{fill:#B7C536;}
	.st19{opacity:0.1;}
	.st20{fill:#9D5A96;}
	.st21{fill:#EA615D;}
	.st22{opacity:0.4;fill:#FFFFFF;}
	.st23{opacity:7.000000e-02;}
	.st24{fill:#F79932;}
	.st25{fill:#FFEC97;}
	.st26{fill:#FFD11D;}
	.st27{opacity:0.2;}
	.st28{fill:#FFFFFF;}
	.st29{fill:#F7F2D5;}
	.st30{fill:#F6AF72;}
	.st31{fill:#BA6C45;}
	.st32{opacity:0.5;fill:#FFFFFF;}
	.st33{fill:#E4C074;}
	.st34{fill:none;stroke:#656566;stroke-width:8;stroke-linecap:round;stroke-linejoin:round;stroke-miterlimit:10;}
	.st35{fill:#FFA755;stroke:#464646;stroke-width:8;stroke-linecap:round;stroke-linejoin:round;stroke-miterlimit:10;}
	.st36{fill:#FFD11D;stroke:#464646;stroke-width:8;stroke-linecap:round;stroke-linejoin:round;stroke-miterlimit:10;}
	.st37{fill:#FACD1F;}
	.st38{fill:#FFDF66;}
	.st39{fill:#FFEC97;stroke:#464646;stroke-width:8;stroke-linecap:round;stroke-linejoin:round;stroke-miterlimit:10;}
	.st40{fill:#FFDF66;stroke:#464646;stroke-width:8;stroke-linecap:round;stroke-linejoin:round;stroke-miterlimit:10;}
	.st41{opacity:0.2;fill:#464646;}
	.st42{fill:#FFFFFF;stroke:#464646;stroke-width:8;stroke-linecap:round;stroke-linejoin:round;stroke-miterlimit:10;}
	.st43{fill:#6D6E71;stroke:#464646;stroke-width:8;stroke-linecap:round;stroke-linejoin:round;stroke-miterlimit:10;}
	.st44{opacity:0.1;fill:#464646;}
	.st45{fill:#E77CAE;}
	.st46{fill:#FFE5C4;}
	.st47{fill:#F68455;stroke:#464646;stroke-width:8;stroke-linecap:round;stroke-linejoin:round;stroke-miterlimit:10;}
	.st48{opacity:0.7;}
	.st49{fill:#ADEDFF;}
	.st50{fill:#EC754B;}
	.st51{fill:#4AA5BA;}
	.st52{opacity:0.5;}
	.st53{opacity:0.8;}
	.st54{fill:#F68455;}
	.st55{fill:#92A5AC;}
	.st56{fill:#6D6E71;}
	.st57{fill:#D06E3C;}
	.st58{fill:#DA4F4B;}
	.st59{fill:#BDF3FF;}
	.st60{fill:#F18BB4;}
	.st61{fill:#F9D97A;}
	.st62{fill:none;}
	.st63{fill:#AF6535;}
	.st64{fill:#B93226;}
	.st65{fill:#FF6050;}
	.st66{fill:#D06E3C;stroke:#464646;stroke-miterlimit:10;}
	.st67{fill:#EA7CB1;}
	.st68{fill:none;stroke:#6D6E71;stroke-width:10;stroke-linecap:round;stroke-linejoin:round;stroke-miterlimit:10;}
	.st69{fill:#00B0E0;}
	.st70{fill:#EA7DAE;}
	.st71{opacity:0.1;fill:#FFFFFF;}
	.st72{fill:#BC7532;}
	.st73{fill:#876C6C;}
	.st74{fill:#F9F6CD;}
	.st75{fill:#FFE37B;}
	.st76{fill:#1DDCFF;}
	.st77{fill:#60ACF7;}
	.st78{fill:#C3755A;}
	.st79{fill:#96557A;}
	.st80{fill:#66625D;}
	.st81{fill:#D68032;}
	.st82{opacity:0.8;fill:#FFFFFF;}
	.st83{fill:#F2A355;}
	.st84{fill:#7E9E6A;}
	.st85{opacity:0.3;}
	.st86{fill:#965A85;}
	.st87{opacity:0.7;fill:#FFFFFF;}
	.st88{fill:#90CAD3;}
	.st89{fill:#94B57F;}
	.st90{fill:#B2E2E7;}
	.st91{fill:#FFDF8F;}
	.st92{fill:#FFFAEB;}
	.st93{fill:#F88916;}
	.st94{fill:#FFC86E;}
	.st95{fill:#AFA51D;}
	.st96{fill:#968A1C;}
	.st97{fill:#C3556D;}
</style>
<g>
	<path class="st33" d="M198.6,4.9c-23.1-5-72,9.6-90.1,20.1S85.9,57.7,66.1,66.6s-51.7,40.7-55.9,74.3s9.7,71.2,20.9,82.3
		c42.3,38.9,130.9,38.9,158.6-3.9s36-87.1,52-114.6s-0.6-58.7-10-72.3S221.7,10,198.6,4.9z"/>
	<path class="st19" d="M170.5,23.7c0,0,1-3.3,3.2-4.3c8.5-3,47.4,4.1,62.1,18.2l-1.8,5.8C216.1,30.3,195.1,23.6,170.5,23.7z"/>
	<path class="st19" d="M203,104.1c9.9,10.7,16.4,23.1,18.6,37.6l-2.5,7.6c-4.1-16.9-12.3-32.7-24.6-47.4
		C197.8,102.4,201.4,102.8,203,104.1z"/>
	<path class="st19" d="M159.2,142.6c18.3,0,30.7,18.6,25.5,29.6l-3.8,1.4c2.1-16.5-10.2-23.9-27.7-28
		C153.1,145.6,155.3,142.6,159.2,142.6z"/>
	<path class="st19" d="M57,118c5-3.8,28.1-11.2,44.1-0.7c1.2,0.6,0.3,3.9-0.8,5.2c-16.2-6.9-28.1-5.5-47,0.4
		C53.4,122.8,53.6,120.3,57,118z"/>
	<path class="st19" d="M44.6,83.3c19.4-9.4,34.9-9.2,50.8,1.3c1.2,0.6,0.3,3.9-0.8,5.2c-16.2-6.9-34.6-7-53.5-1.1L44.6,83.3z"/>
	<path class="st19" d="M197.7,4.9c23.1,5,23.6,13.9,33,27.4s26,44.8,10,72.3s-24.3,71.8-52,114.6s-116.3,42.8-158.6,3.9
		C19,212.1,5.1,174.5,9.3,140.9c13.4,34,58.5,132.5,143.5,50.3C237,109.6,208.5,27.1,197.7,4.9z"/>
	<path class="st1" d="M197.7,4.9c-23.1-5-72,9.6-90.1,20.1S85.1,57.7,65.2,66.6s-51.7,40.7-55.9,74.3s9.7,71.2,20.9,82.3
		c42.3,38.9,130.9,38.9,158.6-3.9s36-87.1,52-114.6s-0.6-58.7-10-72.3S220.8,10,197.7,4.9z"/>
	<path class="st1" d="M26.2,101.3c21.9-17.9,43.5-21.9,64.7-10.7"/>
	<path class="st1" d="M216.2,164c4.3-20-2.9-40-21.8-60"/>
	<path class="st1" d="M172.6,26.7c35.8-0.7,59.7,10.5,71.8,33.3"/>
	<path class="st1" d="M55.1,125.8c14.7-6.1,29.3-8.2,43.6-2.9"/>
	<path class="st1" d="M154.1,149.3c17.9,2.2,28.4,9.4,25.6,25.6"/>
	<path class="st1" d="M68.6,132.1c5.5-5.5,11-5.7,16.4,0"/>
	<path class="st1" d="M161.7,160.8c2,5.3,5.6,8.2,10.9,8.7"/>
	<path class="st1" d="M161.7,57c14.7,4.7,24.7,12.3,29.9,22.9"/>
	<path class="st1" d="M180.2,55.3c6.2,2.4,10,6.3,11.4,11.8"/>
	<path class="st1" d="M118.1,50c-4.5,7,6.1,13.2,13.7,10.1s6.7-13,4.2-14.8C133.4,43.4,122.5,43,118.1,50z"/>
	<path class="st1" d="M40.5,183.7c-4.2,4.2-2.2,19.3,8,17.2c10.1-2.1,16.7-6.3,13.4-13.4C58.6,180.4,44.7,179.5,40.5,183.7z"/>
	<path class="st1" d="M87,227.4c10.6-2.5,16.9,1.1,21,7.6"/>
	<path class="st1" d="M137.7,211c-6,1.7-3.7,10.5,0,12.6c3.7,2.1,10.1,0.4,10.1-4.2S143.7,209.3,137.7,211z"/>
	<path class="st1" d="M8.6,151.8c17.6-3.8,16.8-19.3,5.6-29"/>
	<path class="st1" d="M247.4,79.9c-18.6,4.4-22.2,24-4.9,21.4"/>
</g>
</svg>
