<?xml version="1.0" encoding="utf-8"?>
<!-- Generator: Adobe Illustrator 21.1.0, SVG Export Plug-In . SVG Version: 6.00 Build 0)  -->
<svg version="1.1" id="Icon_Set" xmlns="http://www.w3.org/2000/svg" xmlns:xlink="http://www.w3.org/1999/xlink" x="0px" y="0px"
	 viewBox="0 0 512 512" style="enable-background:new 0 0 512 512;" xml:space="preserve">
<style type="text/css">
	.st0{fill:#FFFFFF;}
	.st1{fill:#5B7C31;}
	.st2{fill:#E56823;}
	.st3{fill:#FE8E46;}
	.st4{fill:#7DAC51;}
	.st5{fill:#463218;}
	.st6{fill:#FEFE71;}
	.st7{fill:#D6CD1E;}
	.st8{fill:none;stroke:#FFFFFF;stroke-width:14;stroke-miterlimit:10;}
	.st9{fill:none;stroke:#463218;stroke-width:14;stroke-linecap:round;stroke-linejoin:round;stroke-miterlimit:10;}
</style>
<g id="Pretzel">
	<g>
		<g>
			<g>
				<g>
					<path class="st3" d="M153.6,382c-5.1,0-10.3-2-14.2-5.9c-7.8-7.8-7.7-20.5,0.1-28.3l10.3-10.2c-34.8-32.1-46.2-74.9-46.2-104.2
						c0-55,44.8-99.8,99.8-99.8c18.8,0,37,5.4,52.5,15c15.5-9.7,33.7-15,52.8-15c55,0,99.8,44.8,99.8,99.8
						c0,28.4-10.7,69.3-42.8,101l10.1,9.5c8.1,7.6,8.4,20.2,0.9,28.3c-7.6,8.1-20.2,8.5-28.3,0.9l-15.4-14.4
						c-19.9,10.9-44.5,18.9-74.8,22c-0.7,0.1-1.4,0.1-2.1,0.1s-1.5,0-2.1-0.1c-28.2-2.9-51.5-10-70.7-19.8l-15.5,15.4
						C163.8,380.1,158.7,382,153.6,382z M213.6,330.6c12,4.6,26,8.1,42.4,10c17.9-2,33-6,45.7-11.3l-44.6-41.8L213.6,330.6z
						 M203.4,173.6c-33,0-59.8,26.8-59.8,59.8c0,6.5,1.4,46.4,34.7,76l50.3-49.9c-17.7-22.4-20-54-4.6-78.7c0.6-0.9,1.2-1.9,1.8-2.8
						C218.7,175.1,211.1,173.6,203.4,173.6z M285,258.7l51.4,48.2c30.7-29.3,32-67.3,32-73.6c0-33-26.8-59.8-59.8-59.8
						c-7.8,0-15.4,1.5-22.3,4.3c1.1,1.7,2.2,3.4,3.2,5.1C303.6,207,301.5,236.9,285,258.7z M256,205.2c-3.4,7.7-3.2,16.4,0.3,23.9
						C259.7,221.6,259.7,212.8,256,205.2z"/>
				</g>
			</g>
		</g>
	</g>
	<g>
		<g>
			<g>
				<circle class="st2" cx="197.7" cy="143.4" r="11.4"/>
			</g>
		</g>
	</g>
	<g>
		<g>
			<g>
				<circle class="st2" cx="133.6" cy="252" r="16"/>
			</g>
		</g>
	</g>
	<g>
		<g>
			<g>
				<circle class="st2" cx="237.1" cy="199" r="16"/>
			</g>
		</g>
	</g>
	<g>
		<g>
			<g>
				<circle class="st2" cx="361.2" cy="309.4" r="16"/>
			</g>
		</g>
	</g>
	<g>
		<g>
			<g>
				
					<ellipse transform="matrix(0.1629 -0.9866 0.9866 0.1629 -88.8086 596.6173)" class="st2" cx="307.2" cy="350.6" rx="16" ry="16"/>
			</g>
		</g>
	</g>
	<g>
		<g>
			<g>
				<path class="st2" d="M186.4,362.3L164.9,350l-22.1-19.3c2.2,2.4,4.6,4.7,7,7l-10.3,10.2c-7.8,7.8-7.9,20.4-0.1,28.3
					c3.9,3.9,9.1,5.9,14.2,5.9c5.1,0,10.2-1.9,14.1-5.8l15.5-15.4C184.3,361.3,185.3,361.8,186.4,362.3z"/>
			</g>
		</g>
	</g>
	<g>
		<g>
			<g>
				<g>
					<path class="st2" d="M166.5,297L166.5,297L166.5,297C166.6,297.1,166.5,297.1,166.5,297z"/>
				</g>
			</g>
		</g>
		<g>
			<g>
				<g>
					<path class="st2" d="M214.1,330.1l42.3-42L223.3,252c1.5,2.6,3.3,5.1,5.2,7.5l-50.2,49.8l10.2,10.7L214.1,330.1z"/>
				</g>
			</g>
		</g>
		<g>
			<g>
				<g>
					<path class="st2" d="M225.5,334.5l0.2,0.1l0,0C225.6,334.6,225.5,334.6,225.5,334.5z"/>
				</g>
			</g>
		</g>
	</g>
	<g>
		<g>
			<g>
				<g>
					<path class="st5" d="M153.6,389c-7.2,0-14.1-2.8-19.2-8c-10.5-10.6-10.4-27.7,0.1-38.2l5.2-5.2c-40-40.6-43.2-89.7-43.2-104.3
						c0-58.9,47.9-106.8,106.8-106.8c18.4,0,36.4,4.8,52.5,13.9c16-9.1,34.1-13.9,52.8-13.9c58.9,0,106.8,47.9,106.8,106.8
						c0,13.9-3,60.7-39.9,100.7l4.9,4.6c5.3,4.9,8.3,11.6,8.5,18.8c0.2,7.2-2.4,14.1-7.3,19.3c-4.9,5.3-11.6,8.3-18.8,8.5
						c-7.2,0.2-14.1-2.4-19.3-7.3l-11.7-11c-21.1,10.7-45.6,17.6-73,20.4c-0.9,0.1-1.9,0.1-2.8,0.1c-1,0-2-0.1-2.9-0.1
						c-25.5-2.6-48.5-8.8-68.5-18.3l-12,11.9C167.5,386.2,160.8,389,153.6,389z M153.6,382L153.6,382L153.6,382z M203.4,140.6
						c-51.2,0-92.8,41.6-92.8,92.8c0,13.7,3.2,61.4,44,99.1c1.4,1.3,2.2,3.1,2.3,5c0,1.9-0.7,3.8-2.1,5.1l-10.3,10.2
						c-5.1,5.1-5.1,13.3-0.1,18.4c2.5,2.5,5.7,3.8,9.2,3.8c3.5,0,6.7-1.3,9.2-3.8l15.5-15.4c2.1-2.1,5.4-2.6,8.1-1.3
						c19.5,10,42.5,16.4,68.2,19.1c0.4,0,1,0.1,1.4,0.1c0.4,0,0.9,0,1.3-0.1c27.5-2.8,51.8-10,72.2-21.2c2.7-1.5,5.9-1,8.2,1
						l15.4,14.4c2.5,2.4,5.8,3.6,9.3,3.5c3.5-0.1,6.7-1.6,9.1-4.1c2.4-2.5,3.6-5.8,3.5-9.3c-0.1-3.5-1.6-6.7-4.1-9.1l-10.1-9.5
						c-1.4-1.3-2.2-3.1-2.2-5s0.7-3.7,2.1-5.1c37.8-37.3,40.8-82.9,40.8-96c0-51.2-41.6-92.8-92.8-92.8c-17.5,0-34.4,4.8-49.1,13.9
						c-2.3,1.4-5.1,1.4-7.4,0C237.4,145.4,220.5,140.6,203.4,140.6z M256,347.5c-0.3,0-0.5,0-0.8,0c-16.1-1.8-31-5.3-44.1-10.4
						c-2.2-0.9-3.8-2.8-4.3-5.1c-0.5-2.3,0.2-4.7,1.9-6.4l43.5-43.2c2.7-2.7,7-2.7,9.7-0.1l44.6,41.8c1.7,1.6,2.5,4,2.1,6.4
						c-0.4,2.3-2,4.3-4.2,5.2c-14,5.8-30,9.8-47.6,11.8C256.5,347.5,256.3,347.5,256,347.5z M226.6,327.6c9.1,2.7,18.9,4.7,29.4,5.9
						c11.7-1.4,22.7-3.7,32.6-6.9l-31.4-29.5L226.6,327.6z M178.2,316.4c-1.7,0-3.3-0.6-4.7-1.8c-35.2-31.3-37-73.1-37-81.2
						c0-36.8,30-66.8,66.8-66.8c8.6,0,16.9,1.6,24.9,4.9c2,0.8,3.4,2.4,4.1,4.4c0.6,2,0.3,4.2-0.9,6c-0.6,0.9-1.1,1.7-1.7,2.6
						c-13.6,21.9-12,50.4,4.2,70.7c2.2,2.8,2,6.8-0.6,9.3l-50.3,49.9C181.8,315.7,180,316.4,178.2,316.4z M203.4,180.6
						c-29.1,0-52.8,23.7-52.8,52.8c0,4.1,0.8,38.8,27.6,66.2l41.2-40.9c-15.2-22.9-16.9-52.5-4.2-76.8
						C211.3,181,207.3,180.6,203.4,180.6z M336.4,314c-1.7,0-3.4-0.6-4.8-1.9l-51.4-48.2c-2.6-2.4-2.9-6.5-0.8-9.3
						c15-19.9,16.6-46.6,4-68c-0.9-1.6-1.9-3.2-3-4.8c-1.2-1.8-1.5-3.9-0.9-6c0.6-2,2.1-3.6,4.1-4.4c7.9-3.2,16.3-4.8,25-4.8
						c36.8,0,66.8,30,66.8,66.8c0,7.7-1.6,47.6-34.2,78.6C339.9,313.3,338.1,314,336.4,314z M294.2,257.7l42,39.4
						c24.5-27,25.2-59.9,25.2-63.8c0-29.1-23.7-52.8-52.8-52.8c-4,0-7.9,0.4-11.7,1.3C309.8,205.9,308.7,234.8,294.2,257.7z
						 M256.4,236.1c-2.7,0-5.2-1.6-6.3-4c-4.5-9.4-4.6-20.3-0.4-29.8c1.1-2.5,3.6-4.1,6.3-4.1c2.7-0.1,5.2,1.5,6.4,4
						c4.5,9.4,4.7,20.2,0.4,29.8C261.6,234.4,259.2,236.1,256.4,236.1C256.4,236.1,256.4,236.1,256.4,236.1z"/>
				</g>
			</g>
		</g>
	</g>
	<g>
		<g>
			<g>
				<path class="st5" d="M285,265.7c-1.8,0-3.7-0.7-5-2.1L251.3,234c-2.7-2.8-2.6-7.2,0.2-9.9c2.8-2.7,7.2-2.6,9.9,0.2l28.7,29.6
					c2.7,2.8,2.6,7.2-0.2,9.9C288.5,265.1,286.8,265.7,285,265.7z"/>
			</g>
		</g>
	</g>
	<g>
		<g>
			<g>
				<path class="st5" d="M257.1,294.4c-1.8,0-3.5-0.7-4.9-2l-28.7-27.9c-2.8-2.7-2.8-7.1-0.1-9.9c2.7-2.8,7.1-2.8,9.9-0.1l28.7,27.9
					c2.8,2.7,2.8,7.1,0.1,9.9C260.8,293.7,259,294.4,257.1,294.4z"/>
			</g>
		</g>
	</g>
	<g>
		<g>
			<g>
				<path class="st5" d="M256.1,212.2c-2.3,0-4.6-1.1-5.9-3.2c-14-21.9-25.3-24.1-25.4-24.1c0.2,0,0.2,0,0.2,0l1.4-13.9
					c1.8,0.2,17.7,2.6,35.6,30.4c2.1,3.3,1.1,7.6-2.1,9.7C258.7,211.8,257.3,212.2,256.1,212.2z"/>
			</g>
		</g>
	</g>
	<g>
		<g>
			<g>
				<path class="st5" d="M332.9,365.6c-1.7,0-3.4-0.6-4.8-1.9l-31.2-29.3c-2.8-2.6-3-7.1-0.3-9.9c2.6-2.8,7.1-3,9.9-0.3l31.2,29.3
					c2.8,2.6,3,7.1,0.3,9.9C336.6,364.8,334.8,365.6,332.9,365.6z"/>
			</g>
		</g>
	</g>
	<g>
		<g>
			<g>
				<path class="st5" d="M365.6,341.4c-1.7,0-3.4-0.6-4.8-1.9l-29.2-27.4c-2.8-2.6-3-7.1-0.3-9.9c2.6-2.8,7.1-3,9.9-0.3l29.2,27.4
					c2.8,2.6,3,7.1,0.3,9.9C369.3,340.6,367.5,341.4,365.6,341.4z"/>
			</g>
		</g>
	</g>
	<g>
		<g>
			<g>
				<path class="st5" d="M213.6,337.6c-0.8,0-1.7-0.1-2.5-0.5c-12.9-4.9-36-21.4-37-22c-3.1-2.2-3.9-6.6-1.6-9.8s6.6-3.9,9.8-1.6
					c6.2,4.5,24.5,16.8,33.8,20.3c3.6,1.4,5.4,5.4,4.1,9C219.1,335.9,216.5,337.6,213.6,337.6z"/>
			</g>
		</g>
	</g>
	<g>
		<g>
			<g>
				<path class="st5" d="M183.2,367.8c-1,0-2-0.2-2.9-0.6c-19.4-8.9-34.8-23.9-35.4-24.5c-2.8-2.7-2.8-7.1-0.1-9.9
					c2.7-2.8,7.1-2.8,9.9-0.1l0,0c0.1,0.1,14.3,13.9,31.5,21.8c3.5,1.6,5.1,5.8,3.4,9.3C188.4,366.2,185.9,367.8,183.2,367.8z"/>
			</g>
		</g>
	</g>
	<g>
		<g>
			<g>
				<path class="st5" d="M289.5,190c-2.3,0-4.6-1.2-5.9-3.3c-8.2-13.1-31.9-32.5-32.1-32.7c-3-2.4-3.4-6.9-1-9.8
					c2.4-3,6.8-3.4,9.8-1c1,0.9,25.8,21.1,35.2,36.1c2,3.3,1,7.6-2.2,9.6C292.1,189.7,290.8,190,289.5,190z"/>
			</g>
		</g>
	</g>
	<g>
		<g>
			<g>
				<path class="st0" d="M368.9,192.8c-13.7-23.4-41.1-31.2-41.3-31.3l3.7-13.5c1.3,0.4,33,9.3,49.7,37.7L368.9,192.8z"/>
			</g>
		</g>
	</g>
</g>
</svg>
