<?xml version="1.0" encoding="utf-8"?>
<!-- Generator: Adobe Illustrator 22.1.0, SVG Export Plug-In . SVG Version: 6.00 Build 0)  -->
<svg version="1.1" id="Layer_1" xmlns="http://www.w3.org/2000/svg" xmlns:xlink="http://www.w3.org/1999/xlink" x="0px" y="0px"
	 viewBox="0 0 256 256" style="enable-background:new 0 0 256 256;" xml:space="preserve">
<style type="text/css">
	.st0{fill:#F5B31F;}
	.st1{fill:none;stroke:#464646;stroke-width:8;stroke-linecap:round;stroke-linejoin:round;stroke-miterlimit:10;}
	.st2{opacity:0.15;fill:#464646;}
	.st3{fill:#AC6535;}
	.st4{fill:#EB573B;}
	.st5{fill:#90C056;}
	.st6{opacity:0.35;fill:#FFFFFF;}
	.st7{opacity:0.2;fill:#FFFFFF;}
	.st8{fill:#F6D67A;}
	.st9{opacity:0.15;fill:#FFFFFF;}
	.st10{opacity:0.3;fill:#FFFFFF;}
	.st11{fill:#AC6535;stroke:#464646;stroke-width:8;stroke-linecap:round;stroke-linejoin:round;stroke-miterlimit:10;}
	.st12{fill:#EB573B;stroke:#464646;stroke-width:8;stroke-miterlimit:10;}
	.st13{opacity:0.15;}
	.st14{fill:#464646;}
	.st15{fill:#FFA755;}
	.st16{fill:#8FAE3C;}
	.st17{fill:#BE6BB2;}
	.st18{fill:#B7C536;}
	.st19{opacity:0.1;}
	.st20{fill:#9D5A96;}
	.st21{fill:#EA615D;}
	.st22{opacity:0.4;fill:#FFFFFF;}
	.st23{opacity:7.000000e-02;}
	.st24{fill:#F79932;}
	.st25{fill:#FFEC97;}
	.st26{fill:#FFD11D;}
	.st27{opacity:0.2;}
	.st28{fill:#FFFFFF;}
	.st29{fill:#F7F2D5;}
	.st30{fill:#F6AF72;}
	.st31{fill:#BA6C45;}
	.st32{opacity:0.5;fill:#FFFFFF;}
	.st33{fill:#E4C074;}
	.st34{fill:none;stroke:#656566;stroke-width:8;stroke-linecap:round;stroke-linejoin:round;stroke-miterlimit:10;}
	.st35{fill:#FFA755;stroke:#464646;stroke-width:8;stroke-linecap:round;stroke-linejoin:round;stroke-miterlimit:10;}
	.st36{fill:#FFD11D;stroke:#464646;stroke-width:8;stroke-linecap:round;stroke-linejoin:round;stroke-miterlimit:10;}
	.st37{fill:#FACD1F;}
	.st38{fill:#FFDF66;}
	.st39{fill:#FFEC97;stroke:#464646;stroke-width:8;stroke-linecap:round;stroke-linejoin:round;stroke-miterlimit:10;}
	.st40{fill:#FFDF66;stroke:#464646;stroke-width:8;stroke-linecap:round;stroke-linejoin:round;stroke-miterlimit:10;}
	.st41{opacity:0.2;fill:#464646;}
	.st42{fill:#FFFFFF;stroke:#464646;stroke-width:8;stroke-linecap:round;stroke-linejoin:round;stroke-miterlimit:10;}
	.st43{fill:#6D6E71;stroke:#464646;stroke-width:8;stroke-linecap:round;stroke-linejoin:round;stroke-miterlimit:10;}
	.st44{opacity:0.1;fill:#464646;}
	.st45{fill:#E77CAE;}
	.st46{fill:#FFE5C4;}
	.st47{fill:#F68455;stroke:#464646;stroke-width:8;stroke-linecap:round;stroke-linejoin:round;stroke-miterlimit:10;}
	.st48{opacity:0.7;}
	.st49{fill:#ADEDFF;}
	.st50{fill:#EC754B;}
	.st51{fill:#4AA5BA;}
	.st52{opacity:0.5;}
	.st53{opacity:0.8;}
	.st54{fill:#F68455;}
	.st55{fill:#92A5AC;}
	.st56{fill:#6D6E71;}
	.st57{fill:#D06E3C;}
	.st58{fill:#DA4F4B;}
	.st59{fill:#BDF3FF;}
	.st60{fill:#F18BB4;}
	.st61{fill:#F9D97A;}
	.st62{fill:none;}
	.st63{fill:#AF6535;}
	.st64{fill:#B93226;}
	.st65{fill:#FF6050;}
	.st66{fill:#D06E3C;stroke:#464646;stroke-miterlimit:10;}
	.st67{fill:#EA7CB1;}
	.st68{fill:none;stroke:#6D6E71;stroke-width:10;stroke-linecap:round;stroke-linejoin:round;stroke-miterlimit:10;}
	.st69{fill:#00B0E0;}
	.st70{fill:#EA7DAE;}
	.st71{opacity:0.1;fill:#FFFFFF;}
	.st72{fill:#BC7532;}
	.st73{fill:#876C6C;}
	.st74{fill:#F9F6CD;}
	.st75{fill:#FFE37B;}
	.st76{fill:#1DDCFF;}
	.st77{fill:#60ACF7;}
	.st78{fill:#C3755A;}
	.st79{fill:#96557A;}
	.st80{fill:#66625D;}
	.st81{fill:#D68032;}
	.st82{opacity:0.8;fill:#FFFFFF;}
	.st83{fill:#F2A355;}
	.st84{fill:#7E9E6A;}
	.st85{opacity:0.3;}
	.st86{fill:#965A85;}
	.st87{opacity:0.7;fill:#FFFFFF;}
	.st88{fill:#90CAD3;}
	.st89{fill:#94B57F;}
	.st90{fill:#B2E2E7;}
	.st91{fill:#FFDF8F;}
	.st92{fill:#FFFAEB;}
	.st93{fill:#F88916;}
	.st94{fill:#FFC86E;}
	.st95{fill:#AFA51D;}
	.st96{fill:#968A1C;}
	.st97{fill:#C3556D;}
</style>
<g>
	<path class="st16" d="M161.9,68.9L161.9,68.9c-6.2,0.9-11.8,2.5-17.2,3.8c-5.5,1.3-10.9,2.4-16.7,2.4c-6.6,0-12.7-1.4-19.1-3
		c-6.4-1.6-13-3.3-20.7-3.8c-8.4-8.9-10.7-17-6.5-24.3c9.8,7.8,20.4,10.2,31.9,7.4c2.1-29.2,12.2-45.5,31.6-46.7l7.7,12.6
		C131.8,17,128,44.9,135.7,51c7.7,6.1,18.3,2,26.4-5.8C164,55,166.6,62.5,161.9,68.9z"/>
	<path class="st23" d="M162,45.2c2,9.8,4.5,17.3-0.1,23.7l0,0c-6.2,0.9-11.7,2.5-17.2,3.8c-5.5,1.3-10.9,2.4-16.7,2.4
		c-6.6,0-12.7-1.4-19.1-3c-6.4-1.6-13-3.3-20.7-3.8c-8.4-8.9-10.7-17-6.5-24.3c0,0,9.2,20.8,43,21S162,45.2,162,45.2z"/>
	<path class="st24" d="M250.5,188.1c-7.7,35.3-40.6,52.1-76.1,59c-9.7,1.9-19.5,3-29.1,3.6c0,0,0,0,0,0c-5.6,0.3-11.1,0.5-16.4,0.5
		c-6.3,0-12.9-0.2-19.6-0.7c-4.4-0.3-8.9-0.8-13.3-1.4c-2.3-0.3-4.5-0.6-6.7-1c0,0,0,0,0,0c-37.7-6.2-73.8-22.8-81.9-60.1
		c-11-50.6,18.4-104.6,52-115.7c11.9-3.9,21.5-4.7,29.9-4.1c7.7,0.5,14.3,2.3,20.7,3.8c6.4,1.6,12.5,3,19.1,3
		c5.8,0,11.2-1.1,16.7-2.4c5.5-1.3,11-2.8,17.2-3.8l0,0c3-0.5,6.2-0.8,9.6-0.8c7.5-0.1,16,0.9,26.2,4.3
		C232.1,83.5,261.6,137.5,250.5,188.1z"/>
	<path class="st23" d="M78.1,72.1c-42.8,32.6-60.3,110.2-13.3,167.4l-10-2.4C14.2,189.7,28.5,103.3,68.2,71.9L78.1,72.1z"/>
	<path class="st23" d="M102.8,75.2c-30,37-31.8,120.2,0.6,172.3l-8.3,0c-24.7-46.8-28.6-137.3,1.3-174L102.8,75.2z"/>
	<path class="st23" d="M150.1,75.2c30,37,31.8,120.2-0.6,172.3l10.8-1.1c27-46.5,34.8-134.6-1.3-173L150.1,75.2z"/>
	<path class="st23" d="M178.7,68.3c51.8,3.7,82,69.2,71,119.8c-7.7,35.3-40.6,52.1-76.1,59c-9.7,1.9-19.5,3-29.1,3.6c0,0,0,0,0,0
		c-5.6,0.3-11.1,0.5-16.4,0.5c-6.3,0-12.9-0.2-19.6-0.7c-4.4-0.3-8.9-0.8-13.3-1.4c-2.3-0.3-4.5-0.6-6.7-1c0,0,0,0,0,0
		c-37.7-6.2-73.8-22.8-81.9-60.1c-4.7-21.4-2.1-43.5,5-62.7c-5,62.7,71.7,127.5,159.8,96.4S221.9,103,178.7,68.3z"/>
	<path class="st1" d="M249.6,188.1c-7.7,35.3-40.6,52.1-76.1,59c-9.7,1.9-19.5,3-29.1,3.6c0,0,0,0,0,0c-5.6,0.3-11.1,0.5-16.4,0.5
		c-6.3,0-12.9-0.2-19.6-0.7c-4.4-0.3-8.9-0.8-13.3-1.4c-2.3-0.3-4.5-0.6-6.7-1c0,0,0,0,0,0c-37.7-6.2-73.8-22.8-81.9-60.1
		c-11-50.6,18.4-104.6,52-115.7c11.9-3.9,21.5-4.7,29.9-4.1c7.7,0.5,14.3,2.3,20.7,3.8c6.4,1.6,12.5,3,19.1,3
		c5.8,0,11.2-1.1,16.7-2.4c5.5-1.3,11-2.8,17.2-3.8l0,0c3-0.5,6.2-0.8,9.6-0.8c7.5-0.1,16,0.9,26.2,4.3
		C231.3,83.5,260.7,137.5,249.6,188.1z"/>
	<path class="st1" d="M161.9,68.9L161.9,68.9c-6.2,0.9-11.8,2.5-17.2,3.8c-5.5,1.3-10.9,2.4-16.7,2.4c-6.6,0-12.7-1.4-19.1-3
		c-6.4-1.6-13-3.3-20.7-3.8c-8.4-8.9-10.7-17-6.5-24.3c9.8,7.8,20.4,10.2,31.9,7.4c2.1-29.2,12.2-45.5,31.6-46.7l7.7,12.6
		C131.8,17,128,44.9,135.7,51c7.7,6.1,18.3,2,26.4-5.8C164,55,166.6,62.5,161.9,68.9z"/>
	<path class="st1" d="M88.2,68.3C10.5,103.5,26.6,243.8,95,249.1"/>
	<path class="st1" d="M171.5,68.1c77.7,35.2,61.5,175.2-7,180.5"/>
	<path class="st1" d="M108.4,250.5c-30.9-17.6-39.2-163.2,0.5-178.3"/>
	<path class="st1" d="M144.4,250.7c30.9-17.6,40-162.8,0.2-178"/>
</g>
</svg>
