<?xml version="1.0" encoding="utf-8"?>
<!-- Generator: Adobe Illustrator 22.1.0, SVG Export Plug-In . SVG Version: 6.00 Build 0)  -->
<svg version="1.1" id="Layer_1" xmlns="http://www.w3.org/2000/svg" xmlns:xlink="http://www.w3.org/1999/xlink" x="0px" y="0px"
	 viewBox="0 0 256 256" style="enable-background:new 0 0 256 256;" xml:space="preserve">
<style type="text/css">
	.st0{fill:#F5B31F;}
	.st1{fill:none;stroke:#464646;stroke-width:8;stroke-linecap:round;stroke-linejoin:round;stroke-miterlimit:10;}
	.st2{opacity:0.15;fill:#464646;}
	.st3{fill:#AC6535;}
	.st4{fill:#EB573B;}
	.st5{fill:#90C056;}
	.st6{opacity:0.35;fill:#FFFFFF;}
	.st7{opacity:0.2;fill:#FFFFFF;}
	.st8{fill:#F6D67A;}
	.st9{opacity:0.15;fill:#FFFFFF;}
	.st10{opacity:0.3;fill:#FFFFFF;}
	.st11{fill:#AC6535;stroke:#464646;stroke-width:8;stroke-linecap:round;stroke-linejoin:round;stroke-miterlimit:10;}
	.st12{fill:#EB573B;stroke:#464646;stroke-width:8;stroke-miterlimit:10;}
	.st13{opacity:0.15;}
	.st14{fill:#464646;}
	.st15{fill:#FFA755;}
	.st16{fill:#8FAE3C;}
	.st17{fill:#BE6BB2;}
	.st18{fill:#B7C536;}
	.st19{opacity:0.1;}
	.st20{fill:#9D5A96;}
	.st21{fill:#EA615D;}
	.st22{opacity:0.4;fill:#FFFFFF;}
	.st23{opacity:7.000000e-02;}
	.st24{fill:#F79932;}
	.st25{fill:#FFEC97;}
	.st26{fill:#FFD11D;}
	.st27{opacity:0.2;}
	.st28{fill:#FFFFFF;}
	.st29{fill:#F7F2D5;}
	.st30{fill:#F6AF72;}
	.st31{fill:#BA6C45;}
	.st32{opacity:0.5;fill:#FFFFFF;}
	.st33{fill:#E4C074;}
	.st34{fill:none;stroke:#656566;stroke-width:8;stroke-linecap:round;stroke-linejoin:round;stroke-miterlimit:10;}
	.st35{fill:#FFA755;stroke:#464646;stroke-width:8;stroke-linecap:round;stroke-linejoin:round;stroke-miterlimit:10;}
	.st36{fill:#FFD11D;stroke:#464646;stroke-width:8;stroke-linecap:round;stroke-linejoin:round;stroke-miterlimit:10;}
	.st37{fill:#FACD1F;}
	.st38{fill:#FFDF66;}
	.st39{fill:#FFEC97;stroke:#464646;stroke-width:8;stroke-linecap:round;stroke-linejoin:round;stroke-miterlimit:10;}
	.st40{fill:#FFDF66;stroke:#464646;stroke-width:8;stroke-linecap:round;stroke-linejoin:round;stroke-miterlimit:10;}
	.st41{opacity:0.2;fill:#464646;}
	.st42{fill:#FFFFFF;stroke:#464646;stroke-width:8;stroke-linecap:round;stroke-linejoin:round;stroke-miterlimit:10;}
	.st43{fill:#6D6E71;stroke:#464646;stroke-width:8;stroke-linecap:round;stroke-linejoin:round;stroke-miterlimit:10;}
	.st44{opacity:0.1;fill:#464646;}
	.st45{fill:#E77CAE;}
	.st46{fill:#FFE5C4;}
	.st47{fill:#F68455;stroke:#464646;stroke-width:8;stroke-linecap:round;stroke-linejoin:round;stroke-miterlimit:10;}
	.st48{opacity:0.7;}
	.st49{fill:#ADEDFF;}
	.st50{fill:#EC754B;}
	.st51{fill:#4AA5BA;}
	.st52{opacity:0.5;}
	.st53{opacity:0.8;}
	.st54{fill:#F68455;}
	.st55{fill:#92A5AC;}
	.st56{fill:#6D6E71;}
	.st57{fill:#D06E3C;}
	.st58{fill:#DA4F4B;}
	.st59{fill:#BDF3FF;}
	.st60{fill:#F18BB4;}
	.st61{fill:#F9D97A;}
	.st62{fill:none;}
	.st63{fill:#AF6535;}
	.st64{fill:#B93226;}
	.st65{fill:#FF6050;}
	.st66{fill:#D06E3C;stroke:#464646;stroke-miterlimit:10;}
	.st67{fill:#EA7CB1;}
	.st68{fill:none;stroke:#6D6E71;stroke-width:10;stroke-linecap:round;stroke-linejoin:round;stroke-miterlimit:10;}
	.st69{fill:#00B0E0;}
	.st70{fill:#EA7DAE;}
	.st71{opacity:0.1;fill:#FFFFFF;}
	.st72{fill:#BC7532;}
	.st73{fill:#876C6C;}
	.st74{fill:#F9F6CD;}
	.st75{fill:#FFE37B;}
	.st76{fill:#1DDCFF;}
	.st77{fill:#60ACF7;}
	.st78{fill:#C3755A;}
	.st79{fill:#96557A;}
	.st80{fill:#66625D;}
	.st81{fill:#D68032;}
	.st82{opacity:0.8;fill:#FFFFFF;}
	.st83{fill:#F2A355;}
	.st84{fill:#7E9E6A;}
	.st85{opacity:0.3;}
	.st86{fill:#965A85;}
	.st87{opacity:0.7;fill:#FFFFFF;}
	.st88{fill:#90CAD3;}
	.st89{fill:#94B57F;}
	.st90{fill:#B2E2E7;}
	.st91{fill:#FFDF8F;}
	.st92{fill:#FFFAEB;}
	.st93{fill:#F88916;}
	.st94{fill:#FFC86E;}
	.st95{fill:#AFA51D;}
	.st96{fill:#968A1C;}
	.st97{fill:#C3556D;}
</style>
<g>
	<path class="st97" d="M154.4,116.6c-2.7-2.5-5.6-4.9-8.6-7.2L127,98.6C119.3,117.6,144.5,132.9,154.4,116.6z"/>
	<path class="st16" d="M238.5,97.5c-9,9-20.2,19.7-49.6,9.4c-17.6-6.2-33.3-1.9-43.1,2.5c-6.5,2.9-10.4,5.9-10.4,5.9
		c1.4-4.1,2.1-7.9,2-11.7c-0.2-12.8-12.7-23.6-24.1-39c20.3,1.7,31.1,19.8,32.9,36.9c0,0,1.2-1.1,3.2-3c5.4-5,16.8-15.7,28.2-25.6
		c8.5-7.4,17-14.5,22.9-18.6c16.8-11.7,36.5,0.1,22.5,22.5C242.6,73.4,247.4,88.5,238.5,97.5z"/>
	<path class="st19" d="M200.6,54.4c16.8-11.7,36.5,0.1,22.5,22.5c0,0,2.2-12.6-3.3-18.7S200.6,54.4,200.6,54.4z"/>
	<path class="st19" d="M223.1,77c19.5-3.6,24.4,11.6,15.4,20.5c-9,9-20.2,19.7-49.6,9.4c0,0,30.5,0.8,42.1-11.3S223.1,77,223.1,77z"
		/>
	<path class="st16" d="M178.4,73c-11.4,9.9-22.8,20.6-28.2,25.6c-2.8-9.1-4.1-17.6-2.1-24.7c-8.1-6.2-10.1-13.6-4.6-22.5
		c-3.7-1.7-26.6-27.8,1.9-44.9c18-10,30.4,9.5,19.8,34.4c15.2-5,13.2,11.9,6.6,19.1C175.2,63.2,177.7,67.6,178.4,73z"/>
	<path class="st19" d="M149.2,91.4c0.4-0.5,26-25.4,26-25.4l2.9,5l-27,24.2L149.2,91.4z"/>
	<path class="st19" d="M168.4,60c10.8-7,8.7-22.8-6.5-17.9c0,0,7.4,1,9.5,5.3S168.4,60,168.4,60z"/>
	<path class="st19" d="M164.5,40.9c10.6-24.9-1.8-44.4-19.8-34.4c0,0,9.8,0.8,15.3,6.5C165.5,18.7,164.5,40.9,164.5,40.9z"/>
	<path class="st97" d="M84.5,220.2c-23.7-9-45.3,2.8-45.3,2.8S46,208,33,172.5C3.9,88.7,83.7,54.4,127,97.8
		c-19.4,10.8,22.8,42.2,27.4,18.8C213.7,176,151.8,249.9,84.5,220.2z"/>
	<path class="st7" d="M127,97.8C83.7,54.4,3.9,88.7,33,172.5c0,0-3.5-48.2,25.8-66.8S127,97.8,127,97.8z"/>
	<path class="st19" d="M131.7,120c8.7,6.3,20.4,8.3,22.7-3.4c59.3,59.3-2.6,133.2-69.8,103.6c-23.7-9-45.3,2.8-45.3,2.8
		S46,208,33,172.5c0,0,36.5,55.3,97.6,29.7S131.7,120,131.7,120z"/>
	<path class="st1" d="M84.5,220.2c-23.7-9-45.3,2.8-45.3,2.8S46,208,33,172.5C3.9,88.7,83.7,54.4,127,97.8
		c-19.4,10.8,22.8,42.2,27.4,18.8C213.7,176,151.8,249.9,84.5,220.2z"/>
	<path class="st1" d="M154.4,116.6c-2.7-2.5-5.6-4.9-8.6-7.2L127,98.6C119.3,117.6,144.5,132.9,154.4,116.6z"/>
	<path class="st1" d="M238.5,97.5c-9,9-20.2,19.7-49.6,9.4c-17.6-6.2-33.3-1.9-43.1,2.5c-6.5,2.9-10.4,5.9-10.4,5.9
		c1.4-4.1,2.1-7.9,2-11.7c-0.2-12.8-12.7-23.6-24.1-39c20.3,1.7,31.1,19.8,32.9,36.9c0,0,1.2-1.1,3.2-3c5.4-5,16.8-15.7,28.2-25.6
		c8.5-7.4,17-14.5,22.9-18.6c16.8-11.7,36.5,0.1,22.5,22.5C242.6,73.4,247.4,88.5,238.5,97.5z"/>
	<path class="st1" d="M177.7,73c-11.4,9.9-22.8,20.6-28.2,25.6c-2.8-9.1-4.1-17.6-2.1-24.7c-8.1-6.2-10.1-13.6-4.6-22.5
		c-3.7-1.7-26.6-27.8,1.9-44.9c18-10,30.4,9.5,19.8,34.4c15.2-5,13.2,11.9,6.6,19.1C174.4,63.2,176.9,67.6,177.7,73z"/>
	<path class="st1" d="M212.5,83.5c-9.4,4.3-19.3,6.5-29.6,7.1"/>
	<path class="st1" d="M150.2,29.4c1.6,13.7,4.8,27,9.7,39.6"/>
	<path class="st1" d="M92.5,79.7c-12.6,34.4,27.2,79.2,60.3,84.5"/>
	<path class="st1" d="M152.8,196.3c-36-4.6-75.6-41.8-88.6-77.7"/>
	<path class="st1" d="M45.4,144.4c-4.7-13.1-7.5-26.4-8-42.2"/>
	<path class="st1" d="M152.2,215.8c-31.7,1.3-58.7-8.8-78.6-27.4"/>
	<path class="st1" d="M30,162.9c5.6,19.5,16.8,35.1,34.7,46.1"/>
	<path class="st1" d="M13.2,251.8c0,0,4.4-6.6,14-10.7s12.1-18.2,12.1-18.2c-5.6,11.5,4.6,14.7,6.1,21.2"/>
	<path class="st1" d="M39.2,222.9c-8.1,8.4-16.1,11.6-24.1,12.8"/>
	<path class="st1" d="M40.6,203.4c-3,13.2-10,17.9-18.8,18.8"/>
</g>
</svg>
