<?xml version="1.0" encoding="utf-8"?>
<!-- Generator: Adobe Illustrator 21.1.0, SVG Export Plug-In . SVG Version: 6.00 Build 0)  -->
<svg version="1.1" id="Icon_Set" xmlns="http://www.w3.org/2000/svg" xmlns:xlink="http://www.w3.org/1999/xlink" x="0px" y="0px"
	 viewBox="0 0 512 512" style="enable-background:new 0 0 512 512;" xml:space="preserve">
<style type="text/css">
	.st0{fill:#FFFFFF;}
	.st1{fill:#5B7C31;}
	.st2{fill:#E56823;}
	.st3{fill:#FE8E46;}
	.st4{fill:#7DAC51;}
	.st5{fill:#463218;}
	.st6{fill:#FEFE71;}
	.st7{fill:#D6CD1E;}
	.st8{fill:none;stroke:#FFFFFF;stroke-width:14;stroke-miterlimit:10;}
	.st9{fill:none;stroke:#463218;stroke-width:14;stroke-linecap:round;stroke-linejoin:round;stroke-miterlimit:10;}
</style>
<g id="Raw">
	<g>
		<g>
			<g>
				<path class="st3" d="M350.6,236.2c-1.6-23.5-20.6-42.5-44.1-44.2c-9.6-0.7-18.7,1.5-26.5,5.8c-15.2,8.4-33.5,9.3-48.9,1.3
					c-7.6-4-16.4-6-25.8-5.3c-23,1.7-41.7,20.1-43.8,43.1c-0.6,6.5,0.1,12.7,1.9,18.4l0,0l0,0.1c0.4,1.3,0.8,2.5,1.3,3.7l27.9,94
					c6.1,17.5,22.6,29.1,41.2,29.1h44.5c18.6,0,35.2-11.8,41.3-29.5l27.7-95.2c0.7-1.6,1.2-3.3,1.7-5l0,0l0,0
					C350.4,247.4,351,241.9,350.6,236.2z"/>
			</g>
		</g>
	</g>
	<g>
		<g>
			<g>
				<g>
					<path class="st2" d="M249.5,355.1l-27.9-94c-0.5-1.2-0.9-2.5-1.3-3.7l0-0.1l0,0c-1.8-5.8-2.5-12-1.9-18.4
						c1.4-15.2,10-28.3,22.3-36c-3.3-0.9-6.5-2.1-9.6-3.8c-7.6-4-16.4-6-25.8-5.3c-23,1.7-41.7,20.1-43.8,43.1
						c-0.6,6.5,0.1,12.7,1.9,18.4l0,0l0,0.1c0.4,1.3,0.8,2.5,1.3,3.7l27.9,94c6.1,17.5,22.6,29.1,41.2,29.1h43.8
						C264.7,378.2,254.1,368.3,249.5,355.1z"/>
				</g>
			</g>
		</g>
	</g>
	<g>
		<g>
			<g>
				<path class="st5" d="M278.3,389.2h-44.5c-21.4,0-40.6-13.6-47.8-33.8c0-0.1-0.1-0.2-0.1-0.3l-27.8-93.6
					c-0.5-1.2-0.9-2.5-1.3-3.8c-0.1-0.2-0.1-0.3-0.2-0.5c-2-6.8-2.7-13.8-2.1-20.8c2.4-26.2,24-47.5,50.3-49.4
					c10.3-0.8,20.5,1.3,29.5,6.1c12.9,6.7,28.7,6.3,42.3-1.2c9.2-5.1,19.7-7.4,30.3-6.6c27,1.9,48.7,23.7,50.6,50.7v0
					c0.4,6.3-0.2,12.6-1.9,18.7c0,0,0,0.1,0,0.1c-0.5,1.8-1.1,3.5-1.8,5.3l-27.6,94.9c0,0.1-0.1,0.2-0.1,0.3
					C319.1,375.5,299.9,389.2,278.3,389.2z M199.3,350.9c5.2,14.5,19,24.3,34.5,24.3h44.5c15.6,0,29.5-9.9,34.6-24.6l27.6-95.1
					c0.1-0.2,0.1-0.5,0.2-0.7c0.6-1.4,1.1-2.9,1.5-4.3c0-0.1,0-0.1,0-0.2c1.2-4.5,1.7-9.1,1.4-13.8v0c-1.4-20.1-17.6-36.2-37.6-37.7
					c-7.9-0.6-15.7,1.1-22.6,4.9c-17.7,9.8-38.5,10.3-55.5,1.4c-6.7-3.5-14.3-5.1-22-4.5c-19.5,1.4-35.6,17.2-37.4,36.7
					c-0.5,5.3,0,10.6,1.6,15.7c0,0,0,0,0,0c0,0,0,0,0,0.1c0.3,1.1,0.7,2.2,1.1,3.2c0.1,0.2,0.2,0.4,0.2,0.6L199.3,350.9z"/>
			</g>
		</g>
	</g>
	<g>
		<g>
			<g>
				<path class="st5" d="M256,211.6c-2.8,0-5.4-1.7-6.5-4.4c-0.4-1.1-10.1-26.3,7.5-44.6c2.7-2.8,7.1-2.9,9.9-0.2
					c2.8,2.7,2.9,7.1,0.2,9.9c-11.4,11.9-4.6,29.6-4.6,29.8c1.4,3.6-0.4,7.7-3.9,9.1C257.7,211.4,256.9,211.6,256,211.6z"/>
			</g>
		</g>
	</g>
	<g>
		<g>
			<g>
				<path class="st5" d="M249.5,389.2c-3.9,0-7-3.1-7-7s3.1-7,7-7c7.6,0,14.5-16.1,16.5-23.4c1-3.7,4.8-6,8.6-5c3.7,1,6,4.8,5,8.6
					C278.6,358.9,269.9,389.2,249.5,389.2z"/>
			</g>
		</g>
	</g>
	<g>
		<g>
			<g>
				<path class="st0" d="M334.9,243.2h-14c0-10.9-8.9-19.8-19.8-19.8v-14C319.8,209.4,334.9,224.6,334.9,243.2z"/>
			</g>
		</g>
	</g>
	<g>
		<g>
			<g>
				<g>
					<path class="st4" d="M310.4,131c-16.3-3.8-34.2,1-46.4,14.1c-12.3,13.1-15.8,31.2-11,47.3c16.3,3.8,34.2-1,46.4-14.1
						C311.7,165.2,315.3,147.1,310.4,131z"/>
				</g>
			</g>
		</g>
		<g>
			<g>
				<g>
					<path class="st5" d="M263.9,200.7c-4.2,0-8.3-0.5-12.5-1.4c-2.4-0.6-4.4-2.4-5.1-4.8c-5.7-18.9-0.9-39.7,12.6-54.1
						c13.5-14.4,33.8-20.6,53.1-16.2c2.4,0.6,4.4,2.4,5.1,4.8c5.7,18.9,0.9,39.7-12.6,54.1C294,194.4,279.1,200.7,263.9,200.7z
						 M258.7,186.3c13.2,1.7,26.5-3.1,35.6-12.8c9.1-9.8,12.9-23.4,10.4-36.4c-13.2-1.7-26.5,3.1-35.6,12.8
						C260,159.7,256.2,173.3,258.7,186.3z"/>
				</g>
			</g>
		</g>
	</g>
	<g>
		<g>
			<g>
				<path class="st5" d="M278.3,389.2h-44.5c-21.4,0-40.6-13.6-47.8-33.8c0-0.1-0.1-0.2-0.1-0.3l-27.8-93.6
					c-0.5-1.2-0.9-2.5-1.3-3.8c-0.1-0.2-0.1-0.3-0.2-0.5c-2-6.8-2.7-13.8-2.1-20.8c2.4-26.2,24-47.5,50.3-49.4
					c10.3-0.8,20.5,1.3,29.5,6.1c12.9,6.7,28.7,6.3,42.3-1.2c9.2-5.1,19.7-7.4,30.3-6.6c27,1.9,48.7,23.7,50.6,50.7v0
					c0.4,6.3-0.2,12.6-1.9,18.7c0,0,0,0.1,0,0.1c-0.5,1.8-1.1,3.5-1.8,5.3l-27.6,94.9c0,0.1-0.1,0.2-0.1,0.3
					C319.1,375.5,299.9,389.2,278.3,389.2z M199.3,350.9c5.2,14.5,19,24.3,34.5,24.3h44.5c15.6,0,29.5-9.9,34.6-24.6l27.6-95.1
					c0.1-0.2,0.1-0.5,0.2-0.7c0.6-1.4,1.1-2.9,1.5-4.3c0-0.1,0-0.1,0-0.2c1.2-4.5,1.7-9.1,1.4-13.8v0c-1.4-20.1-17.6-36.2-37.6-37.7
					c-7.9-0.6-15.7,1.1-22.6,4.9c-17.7,9.8-38.5,10.3-55.5,1.4c-6.7-3.5-14.3-5.1-22-4.5c-19.5,1.4-35.6,17.2-37.4,36.7
					c-0.5,5.3,0,10.6,1.6,15.7c0,0,0,0,0,0c0,0,0,0,0,0.1c0.3,1.1,0.7,2.2,1.1,3.2c0.1,0.2,0.2,0.4,0.2,0.6L199.3,350.9z"/>
			</g>
		</g>
	</g>
</g>
</svg>
