<?xml version="1.0" encoding="utf-8"?>
<!-- Generator: Adobe Illustrator 22.1.0, SVG Export Plug-In . SVG Version: 6.00 Build 0)  -->
<svg version="1.1" id="Layer_1" xmlns="http://www.w3.org/2000/svg" xmlns:xlink="http://www.w3.org/1999/xlink" x="0px" y="0px"
	 viewBox="0 0 256 256" style="enable-background:new 0 0 256 256;" xml:space="preserve">
<style type="text/css">
	.st0{fill:#F5B31F;}
	.st1{fill:none;stroke:#464646;stroke-width:8;stroke-linecap:round;stroke-linejoin:round;stroke-miterlimit:10;}
	.st2{opacity:0.15;fill:#464646;}
	.st3{fill:#AC6535;}
	.st4{fill:#EB573B;}
	.st5{fill:#90C056;}
	.st6{opacity:0.35;fill:#FFFFFF;}
	.st7{opacity:0.2;fill:#FFFFFF;}
	.st8{fill:#F6D67A;}
	.st9{opacity:0.15;fill:#FFFFFF;}
	.st10{opacity:0.3;fill:#FFFFFF;}
	.st11{fill:#AC6535;stroke:#464646;stroke-width:8;stroke-linecap:round;stroke-linejoin:round;stroke-miterlimit:10;}
	.st12{fill:#EB573B;stroke:#464646;stroke-width:8;stroke-miterlimit:10;}
	.st13{opacity:0.15;}
	.st14{fill:#464646;}
	.st15{fill:#FFA755;}
	.st16{fill:#8FAE3C;}
	.st17{fill:#BE6BB2;}
	.st18{fill:#B7C536;}
	.st19{opacity:0.1;}
	.st20{fill:#9D5A96;}
	.st21{fill:#EA615D;}
	.st22{opacity:0.4;fill:#FFFFFF;}
	.st23{opacity:7.000000e-02;}
	.st24{fill:#F79932;}
	.st25{fill:#FFEC97;}
	.st26{fill:#FFD11D;}
	.st27{opacity:0.2;}
	.st28{fill:#FFFFFF;}
	.st29{fill:#F7F2D5;}
	.st30{fill:#F6AF72;}
	.st31{fill:#BA6C45;}
	.st32{opacity:0.5;fill:#FFFFFF;}
	.st33{fill:#E4C074;}
	.st34{fill:none;stroke:#656566;stroke-width:8;stroke-linecap:round;stroke-linejoin:round;stroke-miterlimit:10;}
	.st35{fill:#FFA755;stroke:#464646;stroke-width:8;stroke-linecap:round;stroke-linejoin:round;stroke-miterlimit:10;}
	.st36{fill:#FFD11D;stroke:#464646;stroke-width:8;stroke-linecap:round;stroke-linejoin:round;stroke-miterlimit:10;}
	.st37{fill:#FACD1F;}
	.st38{fill:#FFDF66;}
	.st39{fill:#FFEC97;stroke:#464646;stroke-width:8;stroke-linecap:round;stroke-linejoin:round;stroke-miterlimit:10;}
	.st40{fill:#FFDF66;stroke:#464646;stroke-width:8;stroke-linecap:round;stroke-linejoin:round;stroke-miterlimit:10;}
	.st41{opacity:0.2;fill:#464646;}
	.st42{fill:#FFFFFF;stroke:#464646;stroke-width:8;stroke-linecap:round;stroke-linejoin:round;stroke-miterlimit:10;}
	.st43{fill:#6D6E71;stroke:#464646;stroke-width:8;stroke-linecap:round;stroke-linejoin:round;stroke-miterlimit:10;}
	.st44{opacity:0.1;fill:#464646;}
	.st45{fill:#E77CAE;}
	.st46{fill:#FFE5C4;}
	.st47{fill:#F68455;stroke:#464646;stroke-width:8;stroke-linecap:round;stroke-linejoin:round;stroke-miterlimit:10;}
	.st48{opacity:0.7;}
	.st49{fill:#ADEDFF;}
	.st50{fill:#EC754B;}
	.st51{fill:#4AA5BA;}
	.st52{opacity:0.5;}
	.st53{opacity:0.8;}
	.st54{fill:#F68455;}
	.st55{fill:#92A5AC;}
	.st56{fill:#6D6E71;}
	.st57{fill:#D06E3C;}
	.st58{fill:#DA4F4B;}
	.st59{fill:#BDF3FF;}
	.st60{fill:#F18BB4;}
	.st61{fill:#F9D97A;}
	.st62{fill:none;}
	.st63{fill:#AF6535;}
	.st64{fill:#B93226;}
	.st65{fill:#FF6050;}
	.st66{fill:#D06E3C;stroke:#464646;stroke-miterlimit:10;}
	.st67{fill:#EA7CB1;}
	.st68{fill:none;stroke:#6D6E71;stroke-width:10;stroke-linecap:round;stroke-linejoin:round;stroke-miterlimit:10;}
	.st69{fill:#00B0E0;}
	.st70{fill:#EA7DAE;}
	.st71{opacity:0.1;fill:#FFFFFF;}
	.st72{fill:#BC7532;}
	.st73{fill:#876C6C;}
	.st74{fill:#F9F6CD;}
	.st75{fill:#FFE37B;}
	.st76{fill:#1DDCFF;}
	.st77{fill:#60ACF7;}
	.st78{fill:#C3755A;}
	.st79{fill:#96557A;}
	.st80{fill:#66625D;}
	.st81{fill:#D68032;}
	.st82{opacity:0.8;fill:#FFFFFF;}
	.st83{fill:#F2A355;}
	.st84{fill:#7E9E6A;}
	.st85{opacity:0.3;}
	.st86{fill:#965A85;}
	.st87{opacity:0.7;fill:#FFFFFF;}
	.st88{fill:#90CAD3;}
	.st89{fill:#94B57F;}
	.st90{fill:#B2E2E7;}
	.st91{fill:#FFDF8F;}
	.st92{fill:#FFFAEB;}
	.st93{fill:#F88916;}
	.st94{fill:#FFC86E;}
	.st95{fill:#AFA51D;}
	.st96{fill:#968A1C;}
	.st97{fill:#C3556D;}
</style>
<g>
	<path class="st16" d="M205.7,108.6c0,0,4.8-28.5,8.7-34.4c4-5.9,35.8-43.4,34.1-49.5s-2.9-12.1-8.1-15.8c-5.2-3.8-9.9-7.2-13-3
		s9.6,5.5,10.1,17.7c-0.5,20.9-52.6,52.3-52.6,52.3c7,4.5,4.9,12.6,8.3,18C196.8,99.3,203,95.9,205.7,108.6z"/>
	<path class="st4" d="M13.2,236.1c-12.5,7.9-3,17.2,9.2,15.5c87.1-13,98.1-39.4,111.5-54.2c13.4-14.8,69.1-60.5,71.1-83.4
		c0.6-6.2,1.9-9.2,1.4-13.2c-0.4-4-2.4-7.4-7-6.2s-7,12.1-7,12.1c-2,0.7-1.9-12.5-2.1-25c-0.2-12-12.2-2.3-15.7-3.5
		c-23.9-4.6-63.4,66.3-78.1,96.3S13.2,236.1,13.2,236.1z"/>
	<path class="st10" d="M190.2,81.7c-0.2-12-12.2-2.3-15.7-3.5c-23.9-4.6-65.4,74.9-80,104.9c0,0,46.3-68.6,64-84.1
		S190.2,81.7,190.2,81.7z"/>
	<path class="st19" d="M192.3,106.7c0,0,2.4-10.8,7-12.1s6.6,2.2,7,6.2c0.4,4-0.9,7-1.4,13.2c-2,23-57.7,68.6-71.1,83.4
		c-13.4,14.8-24.4,41.2-111.5,54.2c-12.2,1.7-21.7-7.6-9.2-15.5c0,0,30.5,16.9,108.4-43.5S192.3,106.7,192.3,106.7z"/>
	<path class="st1" d="M13.2,236.1c-12.5,7.9-3,17.2,9.2,15.5c87.1-13,98.1-39.4,111.5-54.2c13.4-14.8,69.1-60.5,71.1-83.4
		c0.6-6.2,1.9-9.2,1.4-13.2c-0.4-4-2.4-7.4-7-6.2s-7,12.1-7,12.1c-2,0.7-1.9-12.5-2.1-25c-0.2-12-12.2-2.3-15.7-3.5
		c-23.9-4.6-63.4,66.3-78.1,96.3S13.2,236.1,13.2,236.1z"/>
	<path class="st1" d="M205.7,108.6c0,0,4.8-28.5,8.7-34.4c4-5.9,35.8-43.4,34.1-49.5s-2.9-12.1-8.1-15.8c-5.2-3.8-9.9-7.2-13-3
		s9.6,5.5,10.1,17.7c-0.5,20.9-52.6,52.3-52.6,52.3"/>
	<path class="st1" d="M172.4,90.1c-10.7,4.6-20.9,18.4-31,33.5"/>
</g>
</svg>
