<?xml version="1.0" encoding="utf-8"?>
<!-- Generator: Adobe Illustrator 22.1.0, SVG Export Plug-In . SVG Version: 6.00 Build 0)  -->
<svg version="1.1" id="Layer_1" xmlns="http://www.w3.org/2000/svg" xmlns:xlink="http://www.w3.org/1999/xlink" x="0px" y="0px"
	 viewBox="0 0 256 256" style="enable-background:new 0 0 256 256;" xml:space="preserve">
<style type="text/css">
	.st0{fill:#F5B31F;}
	.st1{fill:none;stroke:#464646;stroke-width:8;stroke-linecap:round;stroke-linejoin:round;stroke-miterlimit:10;}
	.st2{opacity:0.15;fill:#464646;}
	.st3{fill:#AC6535;}
	.st4{fill:#EB573B;}
	.st5{fill:#90C056;}
	.st6{opacity:0.35;fill:#FFFFFF;}
	.st7{opacity:0.2;fill:#FFFFFF;}
	.st8{fill:#F6D67A;}
	.st9{opacity:0.15;fill:#FFFFFF;}
	.st10{opacity:0.3;fill:#FFFFFF;}
	.st11{fill:#AC6535;stroke:#464646;stroke-width:8;stroke-linecap:round;stroke-linejoin:round;stroke-miterlimit:10;}
	.st12{fill:#EB573B;stroke:#464646;stroke-width:8;stroke-miterlimit:10;}
	.st13{opacity:0.15;}
	.st14{fill:#464646;}
	.st15{fill:#FFA755;}
	.st16{fill:#8FAE3C;}
	.st17{fill:#BE6BB2;}
	.st18{fill:#B7C536;}
	.st19{opacity:0.1;}
	.st20{fill:#9D5A96;}
	.st21{fill:#EA615D;}
	.st22{opacity:0.4;fill:#FFFFFF;}
	.st23{opacity:7.000000e-02;}
	.st24{fill:#F79932;}
	.st25{fill:#FFEC97;}
	.st26{fill:#FFD11D;}
	.st27{opacity:0.2;}
	.st28{fill:#FFFFFF;}
	.st29{fill:#F7F2D5;}
	.st30{fill:#F6AF72;}
	.st31{fill:#BA6C45;}
	.st32{opacity:0.5;fill:#FFFFFF;}
	.st33{fill:#E4C074;}
	.st34{fill:none;stroke:#656566;stroke-width:8;stroke-linecap:round;stroke-linejoin:round;stroke-miterlimit:10;}
	.st35{fill:#FFA755;stroke:#464646;stroke-width:8;stroke-linecap:round;stroke-linejoin:round;stroke-miterlimit:10;}
	.st36{fill:#FFD11D;stroke:#464646;stroke-width:8;stroke-linecap:round;stroke-linejoin:round;stroke-miterlimit:10;}
	.st37{fill:#FACD1F;}
	.st38{fill:#FFDF66;}
	.st39{fill:#FFEC97;stroke:#464646;stroke-width:8;stroke-linecap:round;stroke-linejoin:round;stroke-miterlimit:10;}
	.st40{fill:#FFDF66;stroke:#464646;stroke-width:8;stroke-linecap:round;stroke-linejoin:round;stroke-miterlimit:10;}
	.st41{opacity:0.2;fill:#464646;}
	.st42{fill:#FFFFFF;stroke:#464646;stroke-width:8;stroke-linecap:round;stroke-linejoin:round;stroke-miterlimit:10;}
	.st43{fill:#6D6E71;stroke:#464646;stroke-width:8;stroke-linecap:round;stroke-linejoin:round;stroke-miterlimit:10;}
	.st44{opacity:0.1;fill:#464646;}
	.st45{fill:#E77CAE;}
	.st46{fill:#FFE5C4;}
	.st47{fill:#F68455;stroke:#464646;stroke-width:8;stroke-linecap:round;stroke-linejoin:round;stroke-miterlimit:10;}
	.st48{opacity:0.7;}
	.st49{fill:#ADEDFF;}
	.st50{fill:#EC754B;}
	.st51{fill:#4AA5BA;}
	.st52{opacity:0.5;}
	.st53{opacity:0.8;}
	.st54{fill:#F68455;}
	.st55{fill:#92A5AC;}
	.st56{fill:#6D6E71;}
	.st57{fill:#D06E3C;}
	.st58{fill:#DA4F4B;}
	.st59{fill:#BDF3FF;}
	.st60{fill:#F18BB4;}
	.st61{fill:#F9D97A;}
	.st62{fill:none;}
	.st63{fill:#AF6535;}
	.st64{fill:#B93226;}
	.st65{fill:#FF6050;}
	.st66{fill:#D06E3C;stroke:#464646;stroke-miterlimit:10;}
	.st67{fill:#EA7CB1;}
	.st68{fill:none;stroke:#6D6E71;stroke-width:10;stroke-linecap:round;stroke-linejoin:round;stroke-miterlimit:10;}
	.st69{fill:#00B0E0;}
	.st70{fill:#EA7DAE;}
	.st71{opacity:0.1;fill:#FFFFFF;}
	.st72{fill:#BC7532;}
	.st73{fill:#876C6C;}
	.st74{fill:#F9F6CD;}
	.st75{fill:#FFE37B;}
	.st76{fill:#1DDCFF;}
	.st77{fill:#60ACF7;}
	.st78{fill:#C3755A;}
	.st79{fill:#96557A;}
	.st80{fill:#66625D;}
	.st81{fill:#D68032;}
	.st82{opacity:0.8;fill:#FFFFFF;}
	.st83{fill:#F2A355;}
	.st84{fill:#7E9E6A;}
	.st85{opacity:0.3;}
	.st86{fill:#965A85;}
	.st87{opacity:0.7;fill:#FFFFFF;}
	.st88{fill:#90CAD3;}
	.st89{fill:#94B57F;}
	.st90{fill:#B2E2E7;}
	.st91{fill:#FFDF8F;}
	.st92{fill:#FFFAEB;}
	.st93{fill:#F88916;}
	.st94{fill:#FFC86E;}
	.st95{fill:#AFA51D;}
	.st96{fill:#968A1C;}
	.st97{fill:#C3556D;}
</style>
<g>
	<path class="st46" d="M232.2,113.7c1.3,0.6,4.1,4.2,7.1,8.9c6,9.3,13,23,12.3,26.4c-1,5.1-21.5,16.2-27.8,13.6
		c-3.3-1.3-7.5-8.9-10.6-16.4c-2.8-6.9-4.6-13.8-3.7-15.5C211.7,127.3,228.3,112,232.2,113.7z"/>
	<path class="st32" d="M239.4,122.6c-3-4.7-5.8-8.3-7.1-8.9c-4-1.7-20.6,13.7-22.6,17.1c-1,1.7,0.8,8.5,3.7,15.5
		c3.1,7.5,7.3,15,10.6,16.4c0,0-9.3-20.4-3.9-28.4C225.4,126.3,239.4,122.6,239.4,122.6z"/>
	<path class="st46" d="M106.8,7.9c8.3-2,20.6,8,20.6,8s0,0.3,0,0.8c-7.6,6-15,13.8-18.6,23.1c0,0-9.8-3.1-13.1-6.4
		S98.4,9.9,106.8,7.9z"/>
	<path class="st19" d="M121.9,12.1c3.2,1.9,5.5,3.8,5.5,3.8s0,0.3,0,0.8c-7.6,6-15,13.8-18.6,23.1c0,0-3.5-1.1-7-2.7
		C107,26.8,113.4,18.1,121.9,12.1z"/>
	<path class="st46" d="M63.3,52c5.1,0,12.4,4.5,19.8,10.5C74.6,69.2,67.7,78.2,62.4,89c-6.1-4.1-13.1-9.4-14.9-12.6
		C44.1,70.6,55.8,52,63.3,52z"/>
	<path class="st19" d="M77.1,57.9c2,1.4,4,2.9,6,4.6C74.6,69.2,67.7,78.2,62.4,89c-2.2-1.5-4.5-3.1-6.7-4.8
		C60.5,73.2,67.5,64.3,77.1,57.9z"/>
	<path class="st46" d="M14.8,98.8c5.3-0.8,15.3,3.4,25.4,8.9c-9.5,5.9-18.2,14.3-24.1,23.9c-4.4-1.8-9-4-10.9-5.9
		C1.2,121.7,7.6,100,14.8,98.8z"/>
	<path class="st19" d="M31.2,103.1c2.9,1.3,6,2.9,9,4.5c-9.5,5.9-18.2,14.3-24.1,23.9c-2.9-1.2-5.9-2.6-8.2-3.9
		C14.6,117.2,22.3,109,31.2,103.1z"/>
	<path class="st46" d="M186.2,156.9c1.1,0.4,3.9,4.7,7.1,10.4c5.9,10.4,12.8,25.4,11.7,28.4c-1.7,4.6-20,13.1-26.8,11.8
		c-3.5-0.7-8.5-7.1-12.2-14c-3.5-6.4-5.8-13.1-4.8-15.7C163.3,172.3,183.2,155.9,186.2,156.9z"/>
	<path class="st32" d="M178.3,207.4c-3.5-0.7-8.5-7.1-12.2-14c-3.5-6.4-5.8-13.1-4.8-15.7c2-5.5,21.9-21.9,24.9-20.9
		c1.1,0.4,3.9,4.7,7.1,10.4c0,0-16.1,1.4-20.9,12.1S178.3,207.4,178.3,207.4z"/>
	<path class="st46" d="M138.6,202c1.8,0.7,5.2,5.2,8.8,11c6.4,10.2,13.2,24.3,11.8,28.1c-2.2,5.9-23.2,13.4-28.5,10.1
		c-2.3-1.5-5.7-6.5-8.7-12.1c-3.8-7.2-7-15.3-6.3-17.9C117,216.6,133.7,199.9,138.6,202z"/>
	<path class="st32" d="M147.4,212.9c-3.6-5.7-7-10.3-8.8-11c-4.9-2-21.6,14.7-22.9,19.2c-0.7,2.5,2.4,10.6,6.3,17.9
		c3,5.6,6.4,10.7,8.7,12.1c0,0-8.9-20.6-4.7-28.3C130.2,215.1,147.4,212.9,147.4,212.9z"/>
	<path class="st66" d="M127.4,16.7c11.2-8.8,23-13.5,24.6-12.7c8-2,85,49.2,99.5,99.6c1.7,1.1-4,9.6-12.2,19c-3-4.7-5.8-8.3-7.1-8.9
		c-4-1.7-20.6,13.7-22.6,17.1c-1,1.7,0.8,8.5,3.7,15.5c-2.8,1.7-5.4,2.8-7.6,3.1c-27.7-39.7-60.8-72.5-99.5-98.1
		c0.1-4,1-7.9,2.5-11.5C112.5,30.5,119.8,22.7,127.4,16.7z"/>
	<path class="st9" d="M127.4,16.7c-7.6,6-15,13.8-18.6,23.1c-1.5,3.6-2.3,7.5-2.5,11.5c6.7,4.4,13.1,9,19.5,13.8
		c0,0-8.9-11.7-8.9-19.4S127.4,16.7,127.4,16.7z"/>
	<path class="st19" d="M239.4,122.6c8.2-9.4,13.9-17.9,12.2-19C237.1,53.2,160.1,2,152.1,4c-1.7-0.8-13.4,4-24.6,12.7
		C153.1-10.5,265.1,95.3,239.4,122.6z"/>
	<path class="st19" d="M230.6,111c0,0,18.1-3,16.4,2s-8.8,7.8-8.8,7.8L230.6,111z"/>
	<path class="st57" d="M83.1,62.5c6.6-5.1,14.3-8.9,23.1-11.2c38.7,25.6,71.8,58.4,99.5,98.1c-3.3,5-7.4,11.4-12.4,17.9
		c-3.2-5.7-6.1-10.1-7.1-10.4c-3-1-22.9,15.4-24.9,20.9c-1,2.6,1.4,9.4,4.8,15.7c-2.9,1.9-6,3.5-9.3,4.9
		c-26.3-39-58.4-72.3-99.1-98.4c1.4-3.8,3-7.4,4.7-10.9C67.7,78.2,74.6,69.2,83.1,62.5z"/>
	<path class="st9" d="M83.1,62.5C74.6,69.2,67.7,78.2,62.4,89c-1.7,3.4-3.3,7.1-4.7,10.9c8,5.1,15.6,10.5,23,16.2
		c0,0-9.2-10.2-10.3-20.5C69.4,85.2,83.1,62.5,83.1,62.5z"/>
	<path class="st19" d="M193.3,167.3c5-6.5,9.1-12.9,12.4-17.9c-27.7-39.7-60.8-72.5-99.5-98.1c-8.9,2.2-16.5,6-23.1,11.2
		C101,43.6,211.2,148.4,193.3,167.3z"/>
	<path class="st19" d="M185.4,154.5c0,0,12.8-1.9,13.4,1.3s-6,10.4-6,10.4L185.4,154.5z"/>
	<path class="st57" d="M40.2,107.7c5.7-3.6,11.7-6.2,17.5-7.7c40.7,26.1,72.8,59.5,99.1,98.4c-2.8,4.9-5.9,9.8-9.5,14.6
		c-3.6-5.7-7-10.3-8.8-11c-4.9-2-21.6,14.7-22.9,19.2c-0.7,2.5,2.4,10.6,6.3,17.9c-5,3.8-10.4,7.4-16.3,10.7
		c-25.1-41.5-57-74.5-97-97.1c0.8-7.3,3.5-14.4,7.5-20.9C22,121.9,30.7,113.6,40.2,107.7z"/>
	<path class="st9" d="M40.2,107.7c-9.5,5.9-18.2,14.3-24.1,23.9c-4,6.5-6.7,13.6-7.5,20.9c7.4,4.2,14.6,8.7,21.4,13.6
		c0,0-9.6-9.6-10.2-20.6C19.3,134.6,40.2,107.7,40.2,107.7z"/>
	<path class="st19" d="M147.4,212.9c3.6-4.8,6.7-9.7,9.5-14.6c-26.3-39-58.4-72.3-99.1-98.4c-5.8,1.5-11.8,4.2-17.5,7.7
		C51.6,96,158.8,201.3,147.4,212.9z"/>
	<path class="st19" d="M138.5,199.1c0,0,10-1.8,12.8,1.2s-4.3,9.8-4.3,9.8L138.5,199.1z"/>
	<path class="st1" d="M40.2,107.7c5.7-3.6,11.7-6.2,17.5-7.7c40.7,26.1,72.8,59.5,99.1,98.4c-2.8,4.9-5.9,9.8-9.5,14.6
		c-3.6-5.7-7-10.3-8.8-11c-4.9-2-21.6,14.7-22.9,19.2c-0.7,2.5,2.4,10.6,6.3,17.9c-5,3.8-10.4,7.4-16.3,10.7
		c-25.1-41.5-57-74.5-97-97.1c0.8-7.3,3.5-14.4,7.5-20.9C22,121.9,30.7,113.6,40.2,107.7z"/>
	<path class="st1" d="M83.1,62.5c6.6-5.1,14.3-8.9,23.1-11.2c38.7,25.6,71.8,58.4,99.5,98.1c-3.3,5-7.4,11.4-12.4,17.9
		c-3.2-5.7-6.1-10.1-7.1-10.4c-3-1-22.9,15.4-24.9,20.9c-1,2.6,1.4,9.4,4.8,15.7c-2.9,1.9-6,3.5-9.3,4.9
		c-26.3-39-58.4-72.3-99.1-98.4c1.4-3.8,3-7.4,4.7-10.9C67.7,78.2,74.6,69.2,83.1,62.5z"/>
	<path class="st1" d="M127.4,16.7c11.2-8.8,23-13.5,24.6-12.7c8-2,85,49.2,99.5,99.6c1.7,1.1-4,9.6-12.2,19c-3-4.7-5.8-8.3-7.1-8.9
		c-4-1.7-20.6,13.7-22.6,17.1c-1,1.7,0.8,8.5,3.7,15.5c-2.8,1.7-5.4,2.8-7.6,3.1c-27.7-39.7-60.8-72.5-99.5-98.1
		c0.1-4,1-7.9,2.5-11.5C112.5,30.5,119.8,22.7,127.4,16.7z"/>
	<path class="st1" d="M138.6,202c1.8,0.7,5.2,5.2,8.8,11c6.4,10.2,13.2,24.3,11.8,28.1c-2.2,5.9-23.2,13.4-28.5,10.1
		c-2.3-1.5-5.7-6.5-8.7-12.1c-3.8-7.2-7-15.3-6.3-17.9C117,216.6,133.7,199.9,138.6,202z"/>
	<path class="st1" d="M186.2,156.9c1.1,0.4,3.9,4.7,7.1,10.4c5.9,10.4,12.8,25.4,11.7,28.4c-1.7,4.6-20,13.1-26.8,11.8
		c-3.5-0.7-8.5-7.1-12.2-14c-3.5-6.4-5.8-13.1-4.8-15.7C163.3,172.3,183.2,155.9,186.2,156.9z"/>
	<path class="st1" d="M232.2,113.7c1.3,0.6,4.1,4.2,7.1,8.9c6,9.3,13,23,12.3,26.4c-1,5.1-21.5,16.2-27.8,13.6
		c-3.3-1.3-7.5-8.9-10.6-16.4c-2.8-6.9-4.6-13.8-3.7-15.5C211.7,127.3,228.3,112,232.2,113.7z"/>
	<path class="st1" d="M106.8,7.9c8.3-2,20.6,8,20.6,8s0,0.3,0,0.8c-7.6,6-15,13.8-18.6,23.1c0,0-9.8-3.1-13.1-6.4
		S98.4,9.9,106.8,7.9z"/>
	<path class="st1" d="M63.3,52c5.1,0,12.4,4.5,19.8,10.5C74.6,69.2,67.7,78.2,62.4,89c-6.1-4.1-13.1-9.4-14.9-12.6
		C44.1,70.6,55.8,52,63.3,52z"/>
	<path class="st1" d="M14.8,98.8c5.3-0.8,15.3,3.4,25.4,8.9c-9.5,5.9-18.2,14.3-24.1,23.9c-4.4-1.8-9-4-10.9-5.9
		C1.2,121.7,7.6,100,14.8,98.8z"/>
	<path class="st1" d="M79,132.8c-7.5-7.2-15.2-12.9-23-16.7"/>
	<path class="st1" d="M143.7,99.7c15.5,14,28.6,28.6,39.3,43.9"/>
	<path class="st1" d="M233.3,98.8c-11.6-21.1-28-40.7-49.4-58.9"/>
</g>
</svg>
