<?xml version="1.0" encoding="utf-8"?>
<!-- Generator: Adobe Illustrator 21.1.0, SVG Export Plug-In . SVG Version: 6.00 Build 0)  -->
<svg version="1.1" id="Icon_Set" xmlns="http://www.w3.org/2000/svg" xmlns:xlink="http://www.w3.org/1999/xlink" x="0px" y="0px"
	 viewBox="0 0 512 512" style="enable-background:new 0 0 512 512;" xml:space="preserve">
<style type="text/css">
	.st0{fill:#FFFFFF;}
	.st1{fill:#5B7C31;}
	.st2{fill:#E56823;}
	.st3{fill:#FE8E46;}
	.st4{fill:#7DAC51;}
	.st5{fill:#463218;}
	.st6{fill:#FEFE71;}
	.st7{fill:#D6CD1E;}
	.st8{fill:none;stroke:#FFFFFF;stroke-width:14;stroke-miterlimit:10;}
	.st9{fill:none;stroke:#463218;stroke-width:14;stroke-linecap:round;stroke-linejoin:round;stroke-miterlimit:10;}
</style>
<g id="Rice_Bowl">
	<g>
		<g>
			<g>
				<path class="st6" d="M351.8,224c-3.3-50.1-44.9-89.6-95.8-89.6S163.5,174,160.2,224H351.8z"/>
			</g>
		</g>
	</g>
	<g>
		<g>
			<g>
				<path class="st7" d="M276.6,136.6c-6.6-1.4-13.5-2.2-20.6-2.2c-50.9,0-92.5,39.6-95.8,89.6h41.2
					C204.2,180.9,235.5,145.6,276.6,136.6z"/>
			</g>
		</g>
	</g>
	<g>
		<g>
			<g>
				<path class="st7" d="M249.4,158l-13.4,3.9c-2.9,0.9-6-0.8-6.8-3.7v0c-0.9-2.9,0.8-6,3.7-6.8l13.4-3.9c2.9-0.9,6,0.8,6.8,3.7v0
					C254,154.1,252.3,157.1,249.4,158z"/>
			</g>
		</g>
	</g>
	<g>
		<g>
			<g>
				<path class="st7" d="M253.7,186.4l-9.6-10.1c-2.1-2.2-2-5.7,0.2-7.8l0,0c2.2-2.1,5.7-2,7.8,0.2l9.6,10.1c2.1,2.2,2,5.7-0.2,7.8
					v0C259.2,188.7,255.8,188.6,253.7,186.4z"/>
			</g>
		</g>
	</g>
	<g>
		<g>
			<g>
				<path class="st7" d="M263.2,222l6.3-12.4c1.4-2.7,4.7-3.8,7.4-2.4h0c2.7,1.4,3.8,4.7,2.4,7.4l-6.3,12.4
					c-1.4,2.7-4.7,3.8-7.4,2.4h0C262.9,228.1,261.9,224.8,263.2,222z"/>
			</g>
		</g>
	</g>
	<g>
		<g>
			<g>
				<path class="st7" d="M291.9,191.4l-13.9,0.5c-3,0.1-5.6-2.3-5.7-5.3l0,0c-0.1-3,2.3-5.6,5.3-5.7l13.9-0.5c3-0.1,5.6,2.3,5.7,5.3
					v0C297.3,188.7,294.9,191.3,291.9,191.4z"/>
			</g>
		</g>
	</g>
	<g>
		<g>
			<g>
				<path class="st7" d="M247.3,206.8l-13.6,2.8c-3,0.6-5.9-1.3-6.5-4.3l0,0c-0.6-3,1.3-5.9,4.3-6.5L245,196c3-0.6,5.9,1.3,6.5,4.3
					v0C252.2,203.3,250.3,206.2,247.3,206.8z"/>
			</g>
		</g>
	</g>
	<g>
		<g>
			<g>
				<path class="st7" d="M310.6,212.1l-13.4-3.6c-2.9-0.8-4.7-3.8-3.9-6.7v0c0.8-2.9,3.8-4.7,6.7-3.9l13.4,3.6
					c2.9,0.8,4.7,3.8,3.9,6.7v0C316.5,211.2,313.5,212.9,310.6,212.1z"/>
			</g>
		</g>
	</g>
	<g>
		<g>
			<g>
				<path class="st7" d="M214.9,215.5l-10.2,9.5c-2.2,2.1-5.7,1.9-7.8-0.3l0,0c-2.1-2.2-1.9-5.7,0.3-7.8l10.2-9.5
					c2.2-2.1,5.7-1.9,7.8,0.3l0,0C217.2,210,217.1,213.5,214.9,215.5z"/>
			</g>
		</g>
	</g>
	<g>
		<g>
			<g>
				<path class="st7" d="M199.9,205l-13.8-1.5c-3-0.3-5.2-3-4.9-6.1v0c0.3-3,3-5.2,6.1-4.9l13.8,1.5c3,0.3,5.2,3,4.9,6.1v0
					C205.7,203.1,203,205.3,199.9,205z"/>
			</g>
		</g>
	</g>
	<g>
		<g>
			<g>
				<path class="st7" d="M280.8,168.8l-13.8-1.5c-3-0.3-5.2-3-4.9-6.1v0c0.3-3,3-5.2,6.1-4.9l13.8,1.5c3,0.3,5.2,3,4.9,6.1h0
					C286.5,166.9,283.8,169.1,280.8,168.8z"/>
			</g>
		</g>
	</g>
	<g>
		<g>
			<g>
				<path class="st7" d="M338.2,195.5l-13.9,0.4c-3,0.1-5.6-2.3-5.7-5.4v0c-0.1-3,2.3-5.6,5.4-5.7l13.9-0.4c3-0.1,5.6,2.3,5.7,5.4
					l0,0C343.6,192.9,341.2,195.4,338.2,195.5z"/>
			</g>
		</g>
	</g>
	<g>
		<g>
			<g>
				<path class="st7" d="M211.4,181.3l8.6-11c1.9-2.4,5.3-2.8,7.7-1l0,0c2.4,1.9,2.8,5.3,1,7.7l-8.6,11c-1.9,2.4-5.3,2.8-7.7,1v0
					C209.9,187.2,209.5,183.7,211.4,181.3z"/>
			</g>
		</g>
	</g>
	<g>
		<g>
			<g>
				<path class="st7" d="M190.4,162.8l13.3,4c2.9,0.9,4.6,3.9,3.7,6.9v0c-0.9,2.9-3.9,4.6-6.9,3.7l-13.3-4c-2.9-0.9-4.6-3.9-3.7-6.9
					l0,0C184.4,163.6,187.5,161.9,190.4,162.8z"/>
			</g>
		</g>
	</g>
	<g>
		<g>
			<g>
				<path class="st7" d="M304,167.3l13.1-4.8c2.9-1.1,6,0.4,7.1,3.2v0c1.1,2.9-0.4,6-3.2,7.1l-13.1,4.8c-2.9,1.1-6-0.4-7.1-3.2l0,0
					C299.7,171.6,301.1,168.4,304,167.3z"/>
			</g>
		</g>
	</g>
	<g>
		<g>
			<g>
				<path class="st3" d="M256.8,354.3h-1.7c-56.1,0-101.6-45.5-101.6-101.6V224h204.8v28.7C358.4,308.8,312.9,354.3,256.8,354.3z"/>
			</g>
		</g>
	</g>
	<g>
		<g>
			<g>
				<path class="st2" d="M204.8,252.7V224h-51.2v28.7c0,56.1,45.5,101.6,101.6,101.6h1.7c8.5,0,16.8-1.1,24.8-3
					C237.5,340.2,204.8,300.3,204.8,252.7z"/>
			</g>
		</g>
	</g>
	<g>
		<g>
			<g>
				<path class="st5" d="M256.8,361.3h-1.7c-59.9,0-108.6-48.7-108.6-108.6V224c0-3.9,3.1-7,7-7h204.8c3.9,0,7,3.1,7,7v28.7
					C365.4,312.6,316.7,361.3,256.8,361.3z M160.6,231v21.7c0,52.1,42.4,94.6,94.6,94.6h1.7c52.1,0,94.6-42.4,94.6-94.6V231H160.6z"
					/>
			</g>
		</g>
	</g>
	<g>
		<g>
			<g>
				<rect x="204.8" y="340.9" class="st4" width="102.4" height="36.7"/>
			</g>
		</g>
	</g>
	<g>
		<g>
			<g>
				<rect x="204.8" y="340.9" class="st1" width="41.3" height="36.7"/>
			</g>
		</g>
	</g>
	<g>
		<g>
			<g>
				<path class="st5" d="M307.2,384.6H204.8c-3.9,0-7-3.1-7-7v-36.7c0-3.9,3.1-7,7-7h102.4c3.9,0,7,3.1,7,7v36.7
					C314.2,381.5,311.1,384.6,307.2,384.6z M211.8,370.6h88.4v-22.7h-88.4V370.6z"/>
			</g>
		</g>
	</g>
	<g>
		<g>
			<g>
				<path class="st6" d="M348.9,295.6c3.9-8.3,6.7-17.3,8.2-26.7H154.9c1.5,9.4,4.3,18.4,8.2,26.7H348.9z"/>
			</g>
		</g>
	</g>
	<g>
		<g>
			<g>
				<path class="st7" d="M154.9,268.9c1.5,9.4,4.3,18.4,8.2,26.7h49.9c-3.9-8.3-6.7-17.3-8.2-26.7H154.9z"/>
			</g>
		</g>
	</g>
	<g>
		<g>
			<g>
				<path class="st5" d="M348.9,302.6H163.1c-2.7,0-5.2-1.6-6.3-4c-4.2-9.1-7.2-18.7-8.8-28.6c-0.3-2,0.3-4.1,1.6-5.6
					s3.3-2.5,5.3-2.5h202.2c2,0,4,0.9,5.3,2.5s1.9,3.6,1.6,5.6c-1.6,9.9-4.5,19.5-8.8,28.6C354.1,301,351.7,302.6,348.9,302.6z
					 M167.6,288.6h176.7c1.7-4.1,3.1-8.4,4.2-12.7H163.5C164.6,280.2,166,284.5,167.6,288.6z"/>
			</g>
		</g>
	</g>
	<g>
		<g>
			<g>
				<path class="st5" d="M351.8,231H160.2c-1.9,0-3.8-0.8-5.1-2.2c-1.3-1.4-2-3.3-1.9-5.2c3.5-53.9,48.7-96.2,102.8-96.2
					c54.1,0,99.2,42.2,102.8,96.2c0.1,1.9-0.6,3.8-1.9,5.2C355.6,230.2,353.7,231,351.8,231z M168,217h176
					c-6.5-43-43.8-75.6-88-75.6C211.8,141.4,174.5,174,168,217z"/>
			</g>
		</g>
	</g>
	<g>
		<g>
			<g>
				<rect x="293" y="239.1" class="st0" width="44.4" height="14"/>
			</g>
		</g>
	</g>
</g>
</svg>
