<?xml version="1.0" encoding="utf-8"?>
<!-- Generator: Adobe Illustrator 21.1.0, SVG Export Plug-In . SVG Version: 6.00 Build 0)  -->
<svg version="1.1" id="Icon_Set" xmlns="http://www.w3.org/2000/svg" xmlns:xlink="http://www.w3.org/1999/xlink" x="0px" y="0px"
	 viewBox="0 0 512 512" style="enable-background:new 0 0 512 512;" xml:space="preserve">
<style type="text/css">
	.st0{fill:#FFFFFF;}
	.st1{fill:#5B7C31;}
	.st2{fill:#E56823;}
	.st3{fill:#FE8E46;}
	.st4{fill:#7DAC51;}
	.st5{fill:#463218;}
	.st6{fill:#FEFE71;}
	.st7{fill:#D6CD1E;}
	.st8{fill:none;stroke:#FFFFFF;stroke-width:14;stroke-miterlimit:10;}
	.st9{fill:none;stroke:#463218;stroke-width:14;stroke-linecap:round;stroke-linejoin:round;stroke-miterlimit:10;}
</style>
<g id="Roasted_Chicken">
	<g>
		<g>
			<g>
				<path class="st6" d="M278.7,163.8l-39.3,39.3c7.2-1.1,13.1-0.3,16.6,3.2c3.5,3.5,4.2,9.4,3.2,16.6l39.3-39.3
					c6.7,6.7,17.6,6.7,24.4,0c6.7-6.7,6.7-17.6,0-24.4c-4.1-4.1-9.7-5.7-15-4.8c0.9-5.3-0.7-10.9-4.8-15c-6.7-6.7-17.6-6.7-24.4,0
					C272,146.2,272,157.1,278.7,163.8z"/>
			</g>
		</g>
	</g>
	<g>
		<g>
			<g>
				<path class="st5" d="M259.1,229.9c-1.1,0-2.2-0.2-3.2-0.8c-2.7-1.4-4.2-4.3-3.8-7.3c0.8-5.2,0.4-9.1-1.2-10.6
					c-1.5-1.5-5.4-2-10.6-1.2c-3,0.5-5.9-1.1-7.3-3.8c-1.4-2.7-0.8-6,1.3-8.1l35.1-35.1c-4.9-9.2-3.5-20.9,4.2-28.6
					c9.4-9.4,24.8-9.4,34.3,0c3.6,3.6,5.9,8.2,6.7,13c4.9,0.8,9.5,3.2,13,6.7c4.6,4.6,7.1,10.7,7.1,17.1c0,6.5-2.5,12.6-7.1,17.1
					c-7.7,7.7-19.4,9.1-28.6,4.2l-35.1,35.1C262.7,229.2,260.9,229.9,259.1,229.9z M254.9,197.5c2.3,0.9,4.3,2.2,5.9,3.9
					c1.7,1.7,3,3.7,3.9,5.9l28.7-28.7c2.7-2.7,7.2-2.7,9.9,0c4,4,10.5,4,14.5,0c1.9-1.9,3-4.5,3-7.2c0-2.7-1.1-5.3-3-7.2
					c-2.3-2.3-5.6-3.4-8.9-2.8c-2.2,0.4-4.5-0.4-6.1-2c-1.6-1.6-2.3-3.9-2-6.1c0.5-3.3-0.5-6.5-2.8-8.9c-4-4-10.5-4-14.5,0
					c-4,4-4,10.5,0,14.5c1.3,1.3,2.1,3.1,2.1,5s-0.7,3.6-2.1,5L254.9,197.5z"/>
			</g>
		</g>
	</g>
	<g>
		<g>
			<g>
				<path class="st4" d="M397.4,380H114.6C92.2,380,74,361.8,74,339.4v0H438v0C438,361.8,419.8,380,397.4,380z"/>
			</g>
		</g>
	</g>
	<g>
		<g>
			<g>
				<path class="st1" d="M165.8,339.4H74c0,22.4,18.2,40.5,40.5,40.5h91.8C184,380,165.8,361.8,165.8,339.4z"/>
			</g>
		</g>
	</g>
	<g>
		<g>
			<g>
				<path class="st6" d="M379.4,161.5L340,200.9c7.2-1.1,13.1-0.3,16.6,3.2c3.5,3.5,4.2,9.5,3.2,16.6l39.4-39.4
					c6.7,6.7,17.7,6.7,24.4,0c6.7-6.7,6.7-17.7,0-24.4c-4.1-4.1-9.7-5.7-15-4.8c0.9-5.3-0.7-10.9-4.8-15c-6.7-6.7-17.7-6.7-24.4,0
					C372.7,143.8,372.7,154.7,379.4,161.5z"/>
			</g>
		</g>
	</g>
	<g>
		<g>
			<g>
				<path class="st3" d="M371.5,339.4H147.2v-17c0-69.1,56.1-125.2,125.2-125.2h0c54.7,0,99.1,44.4,99.1,99.1V339.4z"/>
			</g>
		</g>
	</g>
	<g>
		<g>
			<g>
				<path class="st2" d="M293.1,199.4c-6.7-1.4-13.6-2.2-20.7-2.2h0c-69.1,0-125.2,56.1-125.2,125.2v17h44v-17
					C191.3,261.3,235.1,210.3,293.1,199.4z"/>
			</g>
		</g>
	</g>
	<g>
		<g>
			<g>
				<path class="st5" d="M397.4,387H114.6C88.4,387,67,365.7,67,339.4c0-3.9,3.1-7,7-7H438c3.9,0,7,3.1,7,7
					C445,365.7,423.6,387,397.4,387z M81.8,346.4C85,361.6,98.5,373,114.6,373h282.8c16.1,0,29.6-11.4,32.8-26.5H81.8z"/>
			</g>
		</g>
	</g>
	<g>
		<g>
			<g>
				<path class="st2" d="M307.2,206.9c-18.6,10.3-46.5,15-54.6,23.1c-21.6,21.6-21.6,56.5,0,78.1c21.6,21.6,56.5,21.6,78.1,0
					c8.9-8.9,16.7-39.8,27.7-60.9C346.5,218.1,338.2,214.4,307.2,206.9z"/>
			</g>
		</g>
	</g>
	<g>
		<g>
			<g>
				<path class="st5" d="M371.5,346.4H147.2c-3.9,0-7-3.1-7-7v-17c0-72.9,59.3-132.2,132.2-132.2c58.5,0,106.1,47.6,106.1,106.1
					v43.1C378.5,343.3,375.3,346.4,371.5,346.4z M154.2,332.4h210.3v-36.1c0-50.8-41.3-92.1-92.1-92.1c-65.2,0-118.2,53-118.2,118.2
					V332.4z"/>
			</g>
		</g>
	</g>
	<g>
		<g>
			<g>
				<path class="st3" d="M274,235.2c14.2-14.2,68.5-45.4,82.7-31.2c14.2,14.2-17,68.5-31.2,82.7s-37.3,14.2-51.5,0
					S259.7,249.5,274,235.2z"/>
			</g>
		</g>
	</g>
	<g>
		<g>
			<g>
				<path class="st5" d="M299.7,304.4c-11.1,0-22.2-4.2-30.7-12.7c-8.2-8.2-12.7-19.1-12.7-30.7s4.5-22.5,12.7-30.7l0,0l0,0
					c8.4-8.4,26.7-20.1,43.4-27.7c24-10.9,40.6-12.1,49.2-3.5c8.6,8.6,7.4,25.2-3.5,49.2c-7.6,16.7-19.3,35-27.7,43.4
					C321.9,300.1,310.8,304.4,299.7,304.4z M345.6,207.4c-5.3,0-14.1,1.9-27.4,7.9c-16.6,7.6-33,18.6-39.3,24.8l0,0
					c-5.6,5.6-8.6,12.9-8.6,20.8c0,7.9,3.1,15.2,8.6,20.8c11.5,11.5,30.1,11.5,41.6,0c6.3-6.3,17.3-22.7,24.8-39.3
					c9.8-21.6,8.6-31.2,6.4-33.5C350.8,208.1,348.9,207.4,345.6,207.4z M274,235.2L274,235.2L274,235.2z"/>
			</g>
		</g>
	</g>
	<g>
		<g>
			<g>
				<path class="st5" d="M359.8,227.7c-1.1,0-2.2-0.2-3.2-0.8c-2.7-1.4-4.2-4.3-3.8-7.3c0.8-5.2,0.4-9.1-1.2-10.6
					c-1.5-1.5-5.4-2-10.6-1.2c-3,0.5-5.9-1.1-7.3-3.8c-1.4-2.7-0.8-6,1.3-8.1l35.2-35.2c-4.9-9.2-3.5-20.9,4.2-28.6
					c4.6-4.6,10.7-7.1,17.1-7.1c6.5,0,12.6,2.5,17.1,7.1c3.6,3.6,5.9,8.2,6.7,13.1c4.9,0.8,9.5,3.2,13.1,6.7
					c4.6,4.6,7.1,10.7,7.1,17.1c0,6.5-2.5,12.6-7.1,17.1c-7.7,7.7-19.4,9.1-28.6,4.2l-35.2,35.2C363.4,227,361.6,227.7,359.8,227.7z
					 M355.6,195.2c2.3,0.9,4.3,2.2,6,3.9c1.7,1.7,3,3.7,3.9,6l28.8-28.8c2.7-2.7,7.2-2.7,9.9,0c4,4,10.5,4,14.5,0
					c1.9-1.9,3-4.5,3-7.2c0-2.7-1.1-5.3-3-7.2c-2.4-2.4-5.6-3.4-8.9-2.9c-2.2,0.4-4.5-0.4-6.1-2s-2.3-3.9-2-6.1
					c0.5-3.3-0.5-6.6-2.9-8.9c-1.9-1.9-4.5-3-7.2-3c-2.7,0-5.3,1.1-7.2,3c-4,4-4,10.5,0,14.5c2.7,2.7,2.7,7.2,0,9.9L355.6,195.2z"/>
			</g>
		</g>
	</g>
	<g>
		<g>
			<g>
				<path class="st0" d="M199.4,305.5l-14-0.7c1.3-27,20.3-54.7,21.1-55.9l11.5,8l-5.8-4l5.8,4C217.9,257.2,200.5,282.6,199.4,305.5
					z"/>
			</g>
		</g>
	</g>
</g>
</svg>
