<?xml version="1.0" encoding="utf-8"?>
<!-- Generator: Adobe Illustrator 21.1.0, SVG Export Plug-In . SVG Version: 6.00 Build 0)  -->
<svg version="1.1" id="Icon_Set" xmlns="http://www.w3.org/2000/svg" xmlns:xlink="http://www.w3.org/1999/xlink" x="0px" y="0px"
	 viewBox="0 0 512 512" style="enable-background:new 0 0 512 512;" xml:space="preserve">
<style type="text/css">
	.st0{fill:#FFFFFF;}
	.st1{fill:#5B7C31;}
	.st2{fill:#E56823;}
	.st3{fill:#FE8E46;}
	.st4{fill:#7DAC51;}
	.st5{fill:#463218;}
	.st6{fill:#FEFE71;}
	.st7{fill:#D6CD1E;}
	.st8{fill:none;stroke:#FFFFFF;stroke-width:14;stroke-miterlimit:10;}
	.st9{fill:none;stroke:#463218;stroke-width:14;stroke-linecap:round;stroke-linejoin:round;stroke-miterlimit:10;}
</style>
<g id="Root_Beer">
	<g>
		<g>
			<g>
				<path class="st3" d="M306.1,401.6H194.6c-11.6,0-21.1-9.4-21.1-21.1V171.6h153.6v208.9C327.1,392.2,317.7,401.6,306.1,401.6z"/>
			</g>
		</g>
	</g>
	<g>
		<g>
			<g>
				<path class="st2" d="M220.4,380.5V171.6h-46.9v208.9c0,11.6,9.4,21.1,21.1,21.1h46.9C229.8,401.6,220.4,392.2,220.4,380.5z"/>
			</g>
		</g>
	</g>
	<g>
		<g>
			<g>
				<path class="st5" d="M306.1,408.6H194.6c-15.5,0-28.1-12.6-28.1-28.1V171.6c0-3.9,3.1-7,7-7h153.6c3.9,0,7,3.1,7,7v208.9
					C334.1,396,321.5,408.6,306.1,408.6z M180.5,178.6v201.9c0,7.8,6.3,14.1,14.1,14.1h111.5c7.8,0,14.1-6.3,14.1-14.1V178.6H180.5z
					"/>
			</g>
		</g>
	</g>
	<g>
		<g>
			<g>
				<path class="st5" d="M348,315.4h-20.9c-3.9,0-7-3.1-7-7v-94.1c0-3.9,3.1-7,7-7H348c12.7,0,23,10.3,23,23v62
					C371.1,305.1,360.7,315.4,348,315.4z M334.1,301.4H348c5,0,9-4.1,9-9v-62c0-5-4.1-9-9-9h-13.9V301.4z"/>
			</g>
		</g>
	</g>
	<g>
		<g>
			<g>
				<path class="st6" d="M220.4,319.4L220.4,319.4c-9.2,0-16.7-7.5-16.7-16.7v-131h33.5v131C237.1,311.9,229.6,319.4,220.4,319.4z"
					/>
			</g>
		</g>
	</g>
	<g>
		<g>
			<g>
				<path class="st6" d="M282.1,319.4L282.1,319.4c-9.2,0-16.7-7.5-16.7-16.7v-131h33.5v131C298.9,311.9,291.4,319.4,282.1,319.4z"
					/>
			</g>
		</g>
	</g>
	<g>
		<g>
			<g>
				<path class="st5" d="M220.4,326.4c-13.1,0-23.7-10.6-23.7-23.7v-131c0-3.9,3.1-7,7-7h33.5c3.9,0,7,3.1,7,7v131
					C244.1,315.7,233.5,326.4,220.4,326.4z M210.7,178.6v124c0,5.4,4.4,9.7,9.7,9.7c5.4,0,9.7-4.4,9.7-9.7v-124H210.7z"/>
			</g>
		</g>
	</g>
	<g>
		<g>
			<g>
				<path class="st5" d="M282.1,326.4c-13.1,0-23.7-10.6-23.7-23.7v-131c0-3.9,3.1-7,7-7h33.5c3.9,0,7,3.1,7,7v131
					C305.9,315.7,295.2,326.4,282.1,326.4z M272.4,178.6v124c0,5.4,4.4,9.7,9.7,9.7s9.7-4.4,9.7-9.7v-124H272.4z"/>
			</g>
		</g>
	</g>
	<g>
		<g>
			<g>
				<path class="st2" d="M173.5,369.6v10.9c0,11.6,9.4,21.1,21.1,21.1h111.5c11.6,0,21.1-9.4,21.1-21.1v-10.9H173.5z"/>
			</g>
		</g>
	</g>
	<g>
		<g>
			<g>
				<path class="st5" d="M306.1,408.6H194.6c-15.5,0-28.1-12.6-28.1-28.1v-10.9c0-3.9,3.1-7,7-7h153.6c3.9,0,7,3.1,7,7v10.9
					C334.1,396,321.5,408.6,306.1,408.6z M180.5,376.6v3.9c0,7.8,6.3,14.1,14.1,14.1h111.5c7.8,0,14.1-6.3,14.1-14.1v-3.9H180.5z"/>
			</g>
		</g>
	</g>
	<g>
		<g>
			<g>
				<path class="st6" d="M315.5,139.9c-7.4,0-14.4,2.2-20.2,6c-5.3-20.4-23.8-35.5-45.8-35.5c-21.7,0-40,14.7-45.6,34.6
					c-5.5-3.2-12-5.1-18.8-5.1c-20.6,0-37.2,16.7-37.2,37.2s16.7,37.2,37.2,37.2c14.7,0,27.4-8.5,33.4-20.9
					c8.3,7.2,19.1,11.5,30.9,11.5c12.4,0,23.6-4.8,32.1-12.6c5.8,12.9,18.8,21.9,33.9,21.9c20.6,0,37.2-16.7,37.2-37.2
					S336.1,139.9,315.5,139.9z"/>
			</g>
		</g>
	</g>
	<g>
		<g>
			<g>
				<path class="st7" d="M315.5,182.7c-15.1,0-28.1-9-33.9-21.9c-8.4,7.8-19.7,12.6-32.1,12.6c-11.8,0-22.6-4.4-30.9-11.5
					c-6,12.4-18.7,20.9-33.4,20.9c-14.9,0-27.8-8.8-33.7-21.4c-2.3,4.8-3.5,10.1-3.5,15.8c0,20.6,16.7,37.2,37.2,37.2
					c14.7,0,27.4-8.5,33.4-20.9c8.3,7.2,19.1,11.5,30.9,11.5c12.4,0,23.6-4.8,32.1-12.6c5.8,12.9,18.8,21.9,33.9,21.9
					c20.6,0,37.2-16.7,37.2-37.2c0-5.7-1.3-11-3.5-15.8C343.3,174,330.4,182.7,315.5,182.7z"/>
			</g>
		</g>
	</g>
	<g>
		<g>
			<g>
				<path class="st5" d="M315.5,221.3c-14.4,0-27.7-7-35.9-18.4c-8.9,5.9-19.3,9.1-30.1,9.1c-10.3,0-20.3-2.9-29-8.4
					c-8.2,11.1-21.2,17.7-35.4,17.7c-24.4,0-44.2-19.8-44.2-44.2s19.8-44.2,44.2-44.2c5.1,0,10.1,0.9,14.8,2.6
					c8.6-19.2,28-32.1,49.5-32.1c21.9,0,41.3,13,49.8,32.6c5.1-2,10.6-3.1,16.2-3.1c24.4,0,44.2,19.8,44.2,44.2
					S339.9,221.3,315.5,221.3z M281.6,185.4c0.5,0,0.9,0,1.4,0.1c2.2,0.4,4.1,1.9,5,4c4.9,10.8,15.7,17.8,27.5,17.8
					c16.7,0,30.2-13.6,30.2-30.2s-13.6-30.2-30.2-30.2c-5.8,0-11.5,1.7-16.4,4.8c-1.9,1.2-4.3,1.5-6.3,0.6s-3.7-2.6-4.2-4.8
					c-4.6-17.8-20.6-30.2-39-30.2c-18,0-34,12.1-38.8,29.5c-0.6,2.1-2.1,3.8-4.1,4.6c-2,0.8-4.3,0.6-6.2-0.5
					c-4.6-2.7-9.9-4.1-15.3-4.1c-16.7,0-30.2,13.6-30.2,30.2s13.6,30.2,30.2,30.2c11.6,0,22-6.5,27.2-17c1-2,2.8-3.3,4.9-3.8
					c2.1-0.4,4.3,0.1,6,1.6c7.3,6.3,16.7,9.8,26.4,9.8c10.2,0,19.9-3.8,27.3-10.7C278.2,186.1,279.9,185.4,281.6,185.4z"/>
			</g>
		</g>
	</g>
	<g>
		<g>
			<g>
				<rect x="275.8" y="337.5" class="st0" width="33.5" height="14"/>
			</g>
		</g>
	</g>
</g>
</svg>
