<?xml version="1.0" encoding="utf-8"?>
<!-- Generator: Adobe Illustrator 21.1.0, SVG Export Plug-In . SVG Version: 6.00 Build 0)  -->
<svg version="1.1" id="Icon_Set" xmlns="http://www.w3.org/2000/svg" xmlns:xlink="http://www.w3.org/1999/xlink" x="0px" y="0px"
	 viewBox="0 0 512 512" style="enable-background:new 0 0 512 512;" xml:space="preserve">
<style type="text/css">
	.st0{fill:#FFFFFF;}
	.st1{fill:#5B7C31;}
	.st2{fill:#E56823;}
	.st3{fill:#FE8E46;}
	.st4{fill:#7DAC51;}
	.st5{fill:#463218;}
	.st6{fill:#FEFE71;}
	.st7{fill:#D6CD1E;}
	.st8{fill:none;stroke:#FFFFFF;stroke-width:14;stroke-miterlimit:10;}
	.st9{fill:none;stroke:#463218;stroke-width:14;stroke-linecap:round;stroke-linejoin:round;stroke-miterlimit:10;}
</style>
<g id="Sake">
	<g>
		<g>
			<g>
				<g>
					<path class="st4" d="M330.8,216.8l-9.2-47c-1.8-9.4,5.3-18.1,14.9-18.1h1l22.8-49.3H224.5l22.8,49.3h0
						c9.4,0,16.5,8.5,14.9,17.8l-8.3,47.3c-14.7,10.9-24.3,28.5-24.3,48.2v144.6h125.5V265C355.1,245.2,345.5,227.7,330.8,216.8z"/>
				</g>
			</g>
		</g>
		<g>
			<g>
				<g>
					<polyline class="st3" points="353,255.8 282,255.8 282,368.7 353.8,368.7 					"/>
				</g>
			</g>
		</g>
		<g>
			<g>
				<g>
					<polyline class="st2" points="312.6,255.8 282,255.8 282,368.7 312.9,368.7 					"/>
				</g>
			</g>
		</g>
		<g>
			<g>
				<g>
					<path class="st1" d="M289.5,216.8l8.3-47.3c1.6-9.3-5.5-17.8-14.9-17.8l0,0l-22.8-49.3h-35.6l22.8,49.3
						c9.4,0,16.5,8.5,14.9,17.8l-8.3,47.3c-14.7,10.9-24.3,28.5-24.3,48.2v144.6h35.6V265C265.2,245.2,274.7,227.7,289.5,216.8z"/>
				</g>
			</g>
		</g>
		<g>
			<g>
				<g>
					<path class="st5" d="M355.1,416.6H229.6c-3.9,0-7-3.1-7-7V265c0-20.2,9.2-39.4,24.9-52.1l7.9-44.7c0.4-2.4-0.2-4.8-1.8-6.6
						s-3.8-2.9-6.2-2.9c-2.7,0-5.2-1.6-6.4-4.1l-22.8-49.3c-1-2.2-0.8-4.7,0.5-6.7c1.3-2,3.5-3.2,5.9-3.2h135.7
						c2.4,0,4.6,1.2,5.9,3.2c1.3,2,1.5,4.5,0.5,6.7l-22.8,49.3c-1.1,2.5-3.6,4.1-6.4,4.1h-1c-2.4,0-4.7,1.1-6.3,3
						c-1.6,1.9-2.2,4.3-1.7,6.7l8.7,44.5c15.7,12.7,24.9,32,24.9,52.2v144.6C362.1,413.5,358.9,416.6,355.1,416.6z M236.6,402.6
						h111.5V265c0-17-7.8-32.5-21.5-42.6c-1.4-1-2.4-2.6-2.7-4.3l-9.2-47c-1.3-6.5,0.4-13.2,4.6-18.3c3.4-4.2,8.2-6.9,13.5-7.8
						l16.5-35.6H235.4l16.6,35.8c4.7,1,9.1,3.6,12.2,7.4c4.2,5,6,11.6,4.8,18.1l-8.3,47.3c-0.3,1.8-1.3,3.3-2.7,4.4
						c-13.6,10.1-21.5,25.7-21.5,42.6V402.6z"/>
				</g>
			</g>
		</g>
		<g>
			<g>
				<g>
					<path class="st5" d="M353.8,375.7H282c-3.9,0-7-3.1-7-7V255.8c0-3.9,3.1-7,7-7h71c3.5,0,6.4,2.5,6.9,5.9
						c0.5,3.5,0.8,6.9,0.8,10.3v103.7C360.8,372.6,357.6,375.7,353.8,375.7z M289,361.7h57.8V265c0-0.7,0-1.5-0.1-2.2H289V361.7z"/>
				</g>
			</g>
		</g>
		<g>
			<g>
				<g>
					<rect x="314.5" y="281.6" class="st0" width="14" height="45.5"/>
				</g>
			</g>
		</g>
		<g>
			<g>
				<g>
					<path class="st5" d="M292.3,170.8h-31.1c-3.9,0-7-3.1-7-7s3.1-7,7-7h31.1c3.9,0,7,3.1,7,7S296.2,170.8,292.3,170.8z"/>
				</g>
			</g>
		</g>
	</g>
	<g>
		<g>
			<g>
				<g>
					<polygon class="st6" points="225.6,409.6 171.6,409.6 151.8,304.3 245.3,304.3 					"/>
				</g>
			</g>
		</g>
		<g>
			<g>
				<g>
					<polygon class="st7" points="225.6,409.6 237.1,348.2 160,348.2 171.6,409.6 					"/>
				</g>
			</g>
		</g>
		<g>
			<g>
				<g>
					<path class="st5" d="M225.6,416.6h-54c-3.4,0-6.3-2.4-6.9-5.7l-11.5-61.4c-0.4-2,0.2-4.2,1.5-5.8c1.3-1.6,3.3-2.5,5.4-2.5h77.1
						c2.1,0,4.1,0.9,5.4,2.5c1.3,1.6,1.9,3.7,1.5,5.8l-11.5,61.4C231.9,414.2,229,416.6,225.6,416.6z M177.4,402.6h42.4l8.9-47.4
						h-60.2L177.4,402.6z"/>
				</g>
			</g>
		</g>
		<g>
			<g>
				<g>
					<path class="st5" d="M225.6,416.6h-54c-3.4,0-6.3-2.4-6.9-5.7L145,305.6c-0.4-2,0.2-4.2,1.5-5.8c1.3-1.6,3.3-2.5,5.4-2.5h93.5
						c2.1,0,4.1,0.9,5.4,2.5c1.3,1.6,1.9,3.7,1.5,5.8l-19.7,105.3C231.9,414.2,229,416.6,225.6,416.6z M177.4,402.6h42.4l17.1-91.3
						h-76.6L177.4,402.6z"/>
				</g>
			</g>
		</g>
	</g>
</g>
</svg>
