<?xml version="1.0" encoding="utf-8"?>
<!-- Generator: Adobe Illustrator 21.1.0, SVG Export Plug-In . SVG Version: 6.00 Build 0)  -->
<svg version="1.1" id="Icon_Set" xmlns="http://www.w3.org/2000/svg" xmlns:xlink="http://www.w3.org/1999/xlink" x="0px" y="0px"
	 viewBox="0 0 512 512" style="enable-background:new 0 0 512 512;" xml:space="preserve">
<style type="text/css">
	.st0{fill:#FFFFFF;}
	.st1{fill:#5B7C31;}
	.st2{fill:#E56823;}
	.st3{fill:#FE8E46;}
	.st4{fill:#7DAC51;}
	.st5{fill:#463218;}
	.st6{fill:#FEFE71;}
	.st7{fill:#D6CD1E;}
	.st8{fill:none;stroke:#FFFFFF;stroke-width:14;stroke-miterlimit:10;}
	.st9{fill:none;stroke:#463218;stroke-width:14;stroke-linecap:round;stroke-linejoin:round;stroke-miterlimit:10;}
</style>
<g id="Salad">
	<g>
		<g>
			<g>
				<circle class="st4" cx="332.1" cy="253.2" r="53.9"/>
			</g>
		</g>
	</g>
	<g>
		<g>
			<g>
				<path class="st5" d="M332.1,314.1c-33.6,0-60.9-27.3-60.9-60.9s27.3-60.9,60.9-60.9s60.9,27.3,60.9,60.9
					S365.7,314.1,332.1,314.1z M332.1,206.3c-25.9,0-46.9,21-46.9,46.9s21,46.9,46.9,46.9s46.9-21,46.9-46.9S358,206.3,332.1,206.3z
					"/>
			</g>
		</g>
	</g>
	<g>
		<g>
			<g>
				
					<rect x="133.5" y="159.6" transform="matrix(0.866 0.5 -0.5 0.866 114.9151 -73.2786)" class="st1" width="121.3" height="36.3"/>
			</g>
		</g>
	</g>
	<g>
		<g>
			<g>
				<path class="st5" d="M237.7,230.8c-1.2,0-2.4-0.3-3.5-0.9l-105.1-60.7c-3.3-1.9-4.5-6.2-2.6-9.6l18.1-31.4
					c0.9-1.6,2.5-2.8,4.3-3.3c1.8-0.5,3.7-0.2,5.3,0.7l105.1,60.7c3.3,1.9,4.5,6.2,2.6,9.6l-18.1,31.4c-0.9,1.6-2.5,2.8-4.3,3.3
					C238.9,230.8,238.3,230.8,237.7,230.8z M142.2,160.6l92.9,53.7l11.1-19.3l-92.9-53.7L142.2,160.6z"/>
			</g>
		</g>
	</g>
	<g>
		<g>
			<g>
				<circle class="st4" cx="295.7" cy="170.9" r="36.5"/>
			</g>
		</g>
	</g>
	<g>
		<g>
			<g>
				<path class="st5" d="M295.7,214.3c-24,0-43.5-19.5-43.5-43.5s19.5-43.5,43.5-43.5s43.5,19.5,43.5,43.5S319.6,214.3,295.7,214.3z
					 M295.7,141.4c-16.2,0-29.5,13.2-29.5,29.5c0,16.2,13.2,29.5,29.5,29.5s29.5-13.2,29.5-29.5
					C325.1,154.6,311.9,141.4,295.7,141.4z"/>
			</g>
		</g>
	</g>
	<g>
		<g>
			<g>
				<path class="st7" d="M335.9,205c-2.5-18.1-19.1-30.8-37.2-28.3c-5.4,0.7-10.3,2.7-14.5,5.7c-5-16.3-20.2-28.1-38.1-28.1
					c-22,0-39.9,17.9-39.9,39.9c0,0.8,0,1.5,0.1,2.3c-2.6-0.3-5.2-0.2-7.9,0.1c-18.1,2.5-30.8,19.1-28.3,37.2
					c2.5,18.1,19.1,30.8,37.2,28.3c8.2-1.1,15.3-5.2,20.4-11c5.8,13.2,19.8,21.5,34.7,19.5c15.8-2.1,27.4-15.1,28.5-30.4
					c5.1,2,10.8,2.8,16.6,2C325.7,239.8,338.3,223.1,335.9,205z"/>
			</g>
		</g>
	</g>
	<g>
		<g>
			<g>
				<path class="st6" d="M335.9,205c-2.5-18.1-19.1-30.8-37.2-28.3c-5.4,0.7-10.3,2.7-14.5,5.7c-5-16.3-20.2-28.1-38.1-28.1
					c-22,0-39.9,17.9-39.9,39.9c0,0.8,0,1.5,0.1,2.3c-2.6-0.3-5.2-0.2-7.9,0.1c-18.1,2.5-30.8,19.1-28.3,37.2
					c0.2,1.2,0.4,2.4,0.7,3.6c4.4-3.3,9.6-5.5,15.4-6.3c2.7-0.4,5.3-0.4,7.9-0.1c0-0.8-0.1-1.5-0.1-2.3c0-22,17.9-39.9,39.9-39.9
					c17.9,0,33.1,11.8,38.1,28.1c4.2-2.9,9.1-4.9,14.5-5.7c16.9-2.3,32.5,8.6,36.5,24.7C332.2,228.9,337.5,217.3,335.9,205z"/>
			</g>
		</g>
	</g>
	<g>
		<g>
			<g>
				<path class="st5" d="M258,277.9c-12.6,0-24.5-6-32-15.9c-5.2,3.7-11.3,6.1-17.8,7c-10.6,1.4-21.1-1.3-29.7-7.8
					c-8.5-6.5-14-15.9-15.4-26.5c-3-21.9,12.4-42.1,34.3-45.1c0.7-0.1,1.3-0.2,2-0.2c2.4-23.6,22.4-42.1,46.6-42.1
					c17.8,0,33.7,9.9,41.6,25.2c3.2-1.3,6.6-2.3,10-2.7c21.9-3,42.1,12.4,45.1,34.3c3,21.9-12.4,42.1-34.3,45.1
					c-4,0.5-8.1,0.5-12.1-0.2c-4.4,14.9-17.2,26.4-33.1,28.5C261.5,277.8,259.8,277.9,258,277.9z M227.7,244.1c0.4,0,0.7,0,1.1,0.1
					c2.4,0.4,4.4,1.9,5.3,4.1c4.6,10.6,15.9,16.9,27.4,15.3c12.2-1.7,21.6-11.7,22.5-23.9c0.2-2.2,1.4-4.2,3.3-5.4
					c1.9-1.2,4.2-1.4,6.3-0.6c4.1,1.6,8.7,2.2,13.1,1.6c14.2-1.9,24.3-15.1,22.3-29.3c-1.9-14.2-15.1-24.2-29.3-22.3
					c-4.1,0.6-8,2.1-11.4,4.5c-1.8,1.3-4.2,1.6-6.3,0.9c-2.1-0.7-3.8-2.4-4.4-4.6c-4.3-13.8-16.9-23.1-31.4-23.1
					c-18.1,0-32.9,14.7-32.9,32.9c0,0.6,0,1.2,0.1,1.9c0.1,2-0.7,4-2.2,5.5c-1.5,1.4-3.5,2.1-5.6,1.9c-2.1-0.2-4.2-0.2-6.2,0.1
					c-14.2,1.9-24.3,15.1-22.3,29.3c1.9,14.2,15.1,24.3,29.3,22.3c6.2-0.8,11.9-3.9,16.1-8.6C223.7,245,225.7,244.1,227.7,244.1z"/>
			</g>
		</g>
	</g>
	<g>
		<g>
			<g>
				
					<rect x="276.8" y="207.7" transform="matrix(0.7778 -0.6285 0.6285 0.7778 -66.985 261.3942)" class="st1" width="118.7" height="35.5"/>
			</g>
		</g>
	</g>
	<g>
		<g>
			<g>
				<circle class="st4" cx="172.4" cy="239.9" r="53.9"/>
			</g>
		</g>
	</g>
	<g>
		<g>
			<g>
				<path class="st1" d="M150.1,253.2c0-29.8,24.1-53.9,53.9-53.9c1.4,0,2.7,0.1,4.1,0.2c-9.5-8.4-22-13.5-35.6-13.5
					c-29.8,0-53.9,24.1-53.9,53.9c0,28.4,22,51.7,49.8,53.7C157.2,283.7,150.1,269.3,150.1,253.2z"/>
			</g>
		</g>
	</g>
	<g>
		<g>
			<g>
				<path class="st5" d="M172.4,300.8c-33.6,0-60.9-27.3-60.9-60.9s27.3-60.9,60.9-60.9s60.9,27.3,60.9,60.9S206,300.8,172.4,300.8z
					 M172.4,192.9c-25.9,0-46.9,21-46.9,46.9s21,46.9,46.9,46.9s46.9-21,46.9-46.9S198.3,192.9,172.4,192.9z"/>
			</g>
		</g>
	</g>
	<g>
		<g>
			<g>
				<path class="st5" d="M301.2,283.5c-2,0-4.1-0.9-5.4-2.6l-22.3-27.6c-1.2-1.4-1.7-3.3-1.5-5.1s1.1-3.5,2.6-4.7l92.3-74.6
					c1.4-1.2,3.3-1.7,5.1-1.5c1.8,0.2,3.5,1.1,4.7,2.6l22.3,27.6c2.4,3,2,7.4-1,9.8L305.6,282C304.3,283,302.7,283.5,301.2,283.5z
					 M288.7,250l13.5,16.7l81.4-65.8l-13.5-16.7L288.7,250z"/>
			</g>
		</g>
	</g>
	<g>
		<g>
			<g>
				<rect x="118.5" y="253.2" class="st2" width="268.9" height="27.8"/>
			</g>
		</g>
	</g>
	<g>
		<g>
			<g>
				<polygon class="st3" points="336.2,380.2 169.7,380.2 118.5,281 387.4,281 				"/>
			</g>
		</g>
	</g>
	<g>
		<g>
			<g>
				<polygon class="st2" points="118.5,281 169.7,380.2 257.9,380.2 206.7,281 				"/>
			</g>
		</g>
	</g>
	<g>
		<g>
			<g>
				<path class="st5" d="M336.2,387.2H169.7c-2.6,0-5-1.5-6.2-3.8l-51.2-99.3c-1.1-2.2-1-4.8,0.2-6.9c1.3-2.1,3.5-3.4,6-3.4h268.9
					c2.4,0,4.7,1.3,6,3.4s1.4,4.7,0.2,6.9l-51.2,99.3C341.2,385.8,338.8,387.2,336.2,387.2z M174,373.2h157.9l44-85.3H130L174,373.2
					z"/>
			</g>
		</g>
	</g>
	<g>
		<g>
			<g>
				<path class="st5" d="M387.4,288H118.5c-3.9,0-7-3.1-7-7v-27.8c0-3.9,3.1-7,7-7h268.9c3.9,0,7,3.1,7,7V281
					C394.4,284.9,391.3,288,387.4,288z M125.5,274h254.9v-13.8H125.5V274z"/>
			</g>
		</g>
	</g>
	<g>
		<g>
			<g>
				
					<rect x="176.2" y="302.8" transform="matrix(0.8886 -0.4586 0.4586 0.8886 -129.2079 120.3255)" class="st0" width="14" height="46.9"/>
			</g>
		</g>
	</g>
</g>
</svg>
