<?xml version="1.0" encoding="utf-8"?>
<!-- Generator: Adobe Illustrator 22.1.0, SVG Export Plug-In . SVG Version: 6.00 Build 0)  -->
<svg version="1.1" id="Layer_1" xmlns="http://www.w3.org/2000/svg" xmlns:xlink="http://www.w3.org/1999/xlink" x="0px" y="0px"
	 viewBox="0 0 256 256" style="enable-background:new 0 0 256 256;" xml:space="preserve">
<style type="text/css">
	.st0{fill:#F5B31F;}
	.st1{fill:none;stroke:#464646;stroke-width:8;stroke-linecap:round;stroke-linejoin:round;stroke-miterlimit:10;}
	.st2{opacity:0.15;fill:#464646;}
	.st3{fill:#AC6535;}
	.st4{fill:#EB573B;}
	.st5{fill:#90C056;}
	.st6{opacity:0.35;fill:#FFFFFF;}
	.st7{opacity:0.2;fill:#FFFFFF;}
	.st8{fill:#F6D67A;}
	.st9{opacity:0.15;fill:#FFFFFF;}
	.st10{opacity:0.3;fill:#FFFFFF;}
	.st11{fill:#AC6535;stroke:#464646;stroke-width:8;stroke-linecap:round;stroke-linejoin:round;stroke-miterlimit:10;}
	.st12{fill:#EB573B;stroke:#464646;stroke-width:8;stroke-miterlimit:10;}
	.st13{opacity:0.15;}
	.st14{fill:#464646;}
	.st15{fill:#FFA755;}
	.st16{fill:#8FAE3C;}
	.st17{fill:#BE6BB2;}
	.st18{fill:#B7C536;}
	.st19{opacity:0.1;}
	.st20{fill:#9D5A96;}
	.st21{fill:#EA615D;}
	.st22{opacity:0.4;fill:#FFFFFF;}
	.st23{opacity:7.000000e-02;}
	.st24{fill:#F79932;}
	.st25{fill:#FFEC97;}
	.st26{fill:#FFD11D;}
	.st27{opacity:0.2;}
	.st28{fill:#FFFFFF;}
	.st29{fill:#F7F2D5;}
	.st30{fill:#F6AF72;}
	.st31{fill:#BA6C45;}
	.st32{opacity:0.5;fill:#FFFFFF;}
	.st33{fill:#E4C074;}
	.st34{fill:none;stroke:#656566;stroke-width:8;stroke-linecap:round;stroke-linejoin:round;stroke-miterlimit:10;}
	.st35{fill:#FFA755;stroke:#464646;stroke-width:8;stroke-linecap:round;stroke-linejoin:round;stroke-miterlimit:10;}
	.st36{fill:#FFD11D;stroke:#464646;stroke-width:8;stroke-linecap:round;stroke-linejoin:round;stroke-miterlimit:10;}
	.st37{fill:#FACD1F;}
	.st38{fill:#FFDF66;}
	.st39{fill:#FFEC97;stroke:#464646;stroke-width:8;stroke-linecap:round;stroke-linejoin:round;stroke-miterlimit:10;}
	.st40{fill:#FFDF66;stroke:#464646;stroke-width:8;stroke-linecap:round;stroke-linejoin:round;stroke-miterlimit:10;}
	.st41{opacity:0.2;fill:#464646;}
	.st42{fill:#FFFFFF;stroke:#464646;stroke-width:8;stroke-linecap:round;stroke-linejoin:round;stroke-miterlimit:10;}
	.st43{fill:#6D6E71;stroke:#464646;stroke-width:8;stroke-linecap:round;stroke-linejoin:round;stroke-miterlimit:10;}
	.st44{opacity:0.1;fill:#464646;}
	.st45{fill:#E77CAE;}
	.st46{fill:#FFE5C4;}
	.st47{fill:#F68455;stroke:#464646;stroke-width:8;stroke-linecap:round;stroke-linejoin:round;stroke-miterlimit:10;}
	.st48{opacity:0.7;}
	.st49{fill:#ADEDFF;}
	.st50{fill:#EC754B;}
	.st51{fill:#4AA5BA;}
	.st52{opacity:0.5;}
	.st53{opacity:0.8;}
	.st54{fill:#F68455;}
	.st55{fill:#92A5AC;}
	.st56{fill:#6D6E71;}
	.st57{fill:#D06E3C;}
	.st58{fill:#DA4F4B;}
	.st59{fill:#BDF3FF;}
	.st60{fill:#F18BB4;}
	.st61{fill:#F9D97A;}
	.st62{fill:none;}
	.st63{fill:#AF6535;}
	.st64{fill:#B93226;}
	.st65{fill:#FF6050;}
	.st66{fill:#D06E3C;stroke:#464646;stroke-miterlimit:10;}
	.st67{fill:#EA7CB1;}
	.st68{fill:none;stroke:#6D6E71;stroke-width:10;stroke-linecap:round;stroke-linejoin:round;stroke-miterlimit:10;}
	.st69{fill:#00B0E0;}
	.st70{fill:#EA7DAE;}
	.st71{opacity:0.1;fill:#FFFFFF;}
	.st72{fill:#BC7532;}
	.st73{fill:#876C6C;}
	.st74{fill:#F9F6CD;}
	.st75{fill:#FFE37B;}
	.st76{fill:#1DDCFF;}
	.st77{fill:#60ACF7;}
	.st78{fill:#C3755A;}
	.st79{fill:#96557A;}
	.st80{fill:#66625D;}
	.st81{fill:#D68032;}
	.st82{opacity:0.8;fill:#FFFFFF;}
	.st83{fill:#F2A355;}
	.st84{fill:#7E9E6A;}
	.st85{opacity:0.3;}
	.st86{fill:#965A85;}
	.st87{opacity:0.7;fill:#FFFFFF;}
	.st88{fill:#90CAD3;}
	.st89{fill:#94B57F;}
	.st90{fill:#B2E2E7;}
	.st91{fill:#FFDF8F;}
	.st92{fill:#FFFAEB;}
	.st93{fill:#F88916;}
	.st94{fill:#FFC86E;}
	.st95{fill:#AFA51D;}
	.st96{fill:#968A1C;}
	.st97{fill:#C3556D;}
</style>
<g>
	<path class="st65" d="M239.4,27.3l-13,3.8c-2.9-4-6.2-7.8-10-11.1l2.2-13.4C231.2,7.9,238.1,14.8,239.4,27.3z"/>
	<path class="st19" d="M234.8,28.7l-8.4,2.5c-2.9-4-6.2-7.8-10-11.1l1.4-8.3C224.7,16.2,230.3,21.9,234.8,28.7z"/>
	<path class="st46" d="M75,244.7c-0.1,0.1-0.1,0.1-0.2,0.2c-3.2,3.1-7,5.3-11.7,6.4C27.1,259.8,0.7,160,27,136.6
		c2.3-2.1,5.1-3.6,8.3-4.3C75.9,122.7,102.5,217.3,75,244.7z"/>
	<path class="st19" d="M73,156.4c15.3,27.8,19.2,71.2,2.1,88.3c-0.1,0.1-0.1,0.1-0.2,0.2c-3.2,3.1-7,5.3-11.7,6.4
		c-8.4,2-16.3-1.9-23.1-9.4c0,0,24.7,7.7,32.9-13.4S73,156.4,73,156.4z"/>
	<path class="st1" d="M75,244.7c-0.1,0.1-0.1,0.1-0.2,0.2c-3.2,3.1-7,5.3-11.7,6.4C27.1,259.8,0.7,160,27,136.6
		c2.3-2.1,5.1-3.6,8.3-4.3C75.9,122.7,102.5,217.3,75,244.7z"/>
	<path class="st4" d="M226.4,31.2c13.8,19.3,17,45-2.7,64.8L75,244.7c27.4-27.5,0.9-122-39.7-112.5c-3.2,0.8-6,2.2-8.3,4.3
		L145.6,17.8c21.9-22,51.2-15.5,70.8,2.2C220.2,23.4,223.5,27.1,226.4,31.2z"/>
	<path class="st19" d="M226.4,31.2c13.8,19.3,17,45-2.7,64.8L75,244.7c0,0,135.2-142.4,146.3-168.7
		C232.5,49.8,226.4,31.2,226.4,31.2z"/>
	<path class="st10" d="M145.6,17.8L27,136.6c2.3-2.1,5.1-3.6,8.3-4.3c10.1-2.4,19.4,1.7,27.2,9.7c0,0-8.7-8.4-4.1-22.5
		S145.6,17.8,145.6,17.8z"/>
	<path class="st1" d="M226.4,31.2c13.8,19.3,17,45-2.7,64.8L75,244.7c27.4-27.5,0.9-122-39.7-112.5c-3.2,0.8-6,2.2-8.3,4.3
		L145.6,17.8c21.9-22,51.2-15.5,70.8,2.2C220.2,23.4,223.5,27.1,226.4,31.2z"/>
	<g>
		<path class="st4" d="M41.6,204.9C41.6,204.9,41.6,204.9,41.6,204.9c-0.6,0.6-1.4,1-2.2,1.2c-6.8,1.6-11.7-17.1-6.8-21.5
			c0.4-0.4,1-0.7,1.6-0.8C41.7,182,46.7,199.7,41.6,204.9z"/>
		<path class="st4" d="M63.2,231.3C63.2,231.3,63.2,231.3,63.2,231.3c-0.7,0.7-1.5,1.1-2.4,1.3c-7.3,1.7-12.6-18.5-7.3-23.2
			c0.5-0.4,1-0.7,1.7-0.9C63.4,206.6,68.7,225.8,63.2,231.3z"/>
		<path class="st4" d="M55.2,173.6C55.2,173.6,55.1,173.6,55.2,173.6c-0.6,0.6-1.4,1.1-2.3,1.3c-6.9,1.6-12-17.6-7-22.1
			c0.5-0.4,1-0.7,1.6-0.8C55.3,150.1,60.5,168.3,55.2,173.6z"/>
	</g>
	<g>
		<path class="st1" d="M41.6,204.9C41.6,204.9,41.6,204.9,41.6,204.9c-0.6,0.6-1.4,1-2.2,1.2c-6.8,1.6-11.7-17.1-6.8-21.5
			c0.4-0.4,1-0.7,1.6-0.8C41.7,182,46.7,199.7,41.6,204.9z"/>
		<path class="st1" d="M63.2,231.3C63.2,231.3,63.2,231.3,63.2,231.3c-0.7,0.7-1.5,1.1-2.4,1.3c-7.3,1.7-12.6-18.5-7.3-23.2
			c0.5-0.4,1-0.7,1.7-0.9C63.4,206.6,68.7,225.8,63.2,231.3z"/>
		<path class="st1" d="M55.2,173.6C55.2,173.6,55.1,173.6,55.2,173.6c-0.6,0.6-1.4,1.1-2.3,1.3c-6.9,1.6-12-17.6-7-22.1
			c0.5-0.4,1-0.7,1.6-0.8C55.3,150.1,60.5,168.3,55.2,173.6z"/>
	</g>
	<path class="st1" d="M239.4,27.3l-13,3.8c-2.9-4-6.2-7.8-10-11.1l2.2-13.4C231.2,7.9,238.1,14.8,239.4,27.3z"/>
	<path class="st1" d="M135.6,46.8c19.1-19.1,33.9-30.7,46.1-28.4"/>
	<path class="st1" d="M99.2,204.7c0.4-11.7-1.3-20.6-4-29.8"/>
</g>
</svg>
