<?xml version="1.0" encoding="utf-8"?>
<!-- Generator: Adobe Illustrator 21.1.0, SVG Export Plug-In . SVG Version: 6.00 Build 0)  -->
<svg version="1.1" id="Icon_Set" xmlns="http://www.w3.org/2000/svg" xmlns:xlink="http://www.w3.org/1999/xlink" x="0px" y="0px"
	 viewBox="0 0 512 512" style="enable-background:new 0 0 512 512;" xml:space="preserve">
<style type="text/css">
	.st0{fill:#FFFFFF;}
	.st1{fill:#5B7C31;}
	.st2{fill:#E56823;}
	.st3{fill:#FE8E46;}
	.st4{fill:#7DAC51;}
	.st5{fill:#463218;}
	.st6{fill:#FEFE71;}
	.st7{fill:#D6CD1E;}
	.st8{fill:none;stroke:#FFFFFF;stroke-width:14;stroke-miterlimit:10;}
	.st9{fill:none;stroke:#463218;stroke-width:14;stroke-linecap:round;stroke-linejoin:round;stroke-miterlimit:10;}
</style>
<g id="Salmon">
	<g>
		<g>
			<g>
				<path class="st3" d="M256,280.4c20.6,0,33,20.1,29.3,37.4c-3.6,17.2-37.8,61.8,2.2,61.8c29.6,0,61.8-69.6,61.8-152.8
					c0-101.1-93.3-94.2-93.3-94.2s-93.3-6.9-93.3,94.2c0,83.2,32.2,152.8,61.8,152.8c40,0,5.8-44.5,2.2-61.8S235.4,280.4,256,280.4z
					"/>
			</g>
		</g>
	</g>
	<g>
		<g>
			<g>
				<g>
					<path class="st2" d="M236.1,288.3c-3.8-18.9-6-39.7-6-61.5c0-60,32.9-82,59.6-89.9c-18.3-5.4-33.7-4.3-33.7-4.3
						s-93.3-6.9-93.3,94.2c0,83.2,32.2,152.8,61.8,152.8c40,0,5.8-44.5,2.2-61.8C224.5,307.3,228.2,295.7,236.1,288.3z"/>
				</g>
			</g>
		</g>
		<g>
			<g>
				<g>
					<path class="st2" d="M268.3,365.7c0.1,8.1,4.9,13.9,19.2,13.9c0.7,0,1.5-0.1,2.2-0.1C282.5,378.6,275.2,373.8,268.3,365.7z"/>
				</g>
			</g>
		</g>
	</g>
	<g>
		<g>
			<g>
				<path class="st5" d="M287.5,386.6c-11.3,0-19.1-3.3-23.2-9.7c-7.6-12,0.6-29.6,7.9-45.1c2.9-6.1,5.6-11.9,6.3-15.4
					c1.5-7-0.5-14.9-5.2-20.7c-4.3-5.3-10.5-8.3-17.3-8.3c-6.8,0-12.9,2.9-17.3,8.3c-4.7,5.8-6.7,13.7-5.2,20.7
					c0.7,3.5,3.4,9.3,6.3,15.4c7.3,15.5,15.5,33.1,7.9,45.1c-4.1,6.5-11.9,9.7-23.2,9.7c-17.5,0-35.2-18-48.4-49.5
					c-13.1-31.1-20.3-70.2-20.3-110.3c0-33.2,9.6-59,28.6-76.6c28.1-26.1,66.6-24.9,71.7-24.6c5.1-0.3,43.6-1.5,71.7,24.6
					c19,17.6,28.6,43.4,28.6,76.6c0,40.1-7.2,79.3-20.3,110.3C322.7,368.5,305,386.6,287.5,386.6z M256,273.4
					c11.1,0,21.1,4.8,28.1,13.5c7.4,9.1,10.4,21.2,8,32.4c-1.1,5.1-4,11.3-7.3,18.4c-4.6,9.8-12.2,26.1-8.7,31.6
					c1.3,2.1,5.4,3.2,11.4,3.2c22.1,0,54.8-61.2,54.8-145.8c0-29.1-8.1-51.4-24.1-66.3c-24.9-23.2-61.4-21-61.7-21c-0.3,0-0.7,0-1,0
					c-0.4,0-36.8-2.3-61.7,21c-16,14.9-24.1,37.2-24.1,66.3c0,84.6,32.7,145.8,54.8,145.8c6,0,10.1-1.2,11.4-3.2
					c3.5-5.5-4.2-21.8-8.7-31.6c-3.4-7.2-6.2-13.3-7.3-18.4c-2.4-11.2,0.6-23.3,8-32.4C234.9,278.2,244.9,273.4,256,273.4z"/>
			</g>
		</g>
	</g>
	<g>
		<g>
			<g>
				<path class="st5" d="M346.8,207.4c-1,0-2-0.2-2.9-0.6c-27.7-12.7-57.3-19.1-87.9-19.1s-60.2,6.4-87.9,19.1
					c-3.5,1.6-7.7,0.1-9.3-3.4c-1.6-3.5-0.1-7.7,3.4-9.3c29.5-13.5,61.1-20.4,93.8-20.4s64.2,6.9,93.8,20.4c3.5,1.6,5.1,5.8,3.4,9.3
					C352,205.9,349.5,207.4,346.8,207.4z"/>
			</g>
		</g>
	</g>
	<g>
		<g>
			<g>
				<path class="st5" d="M348.1,261c-1.3,0-2.6-0.4-3.8-1.1C318,243,287.4,234.1,256,234.1s-62,8.9-88.4,25.7
					c-3.3,2.1-7.6,1.1-9.7-2.1s-1.1-7.6,2.1-9.7c28.6-18.3,61.8-27.9,95.9-27.9s67.3,9.7,95.9,27.9c3.3,2.1,4.2,6.4,2.1,9.7
					C352.7,259.8,350.4,261,348.1,261z"/>
			</g>
		</g>
	</g>
	<g>
		<g>
			<g>
				<path class="st5" d="M337.3,319.4c-1.7,0-3.4-0.6-4.8-1.9c-20.8-19.6-48-30.4-76.5-30.4s-55.7,10.8-76.5,30.4
					c-2.8,2.7-7.2,2.5-9.9-0.3c-2.7-2.8-2.5-7.2,0.3-9.9c23.4-22.1,54-34.2,86.1-34.2s62.7,12.1,86.1,34.2c2.8,2.7,2.9,7.1,0.3,9.9
					C341,318.7,339.2,319.4,337.3,319.4z"/>
			</g>
		</g>
	</g>
	<g>
		<g>
			<g>
				<path class="st0" d="M329.4,225c-13.9-6.4-28.9-10.7-44.3-12.7l1.8-13.9c16.9,2.2,33.1,6.8,48.4,13.8L329.4,225z"/>
			</g>
		</g>
	</g>
	<g>
		<g>
			<g>
				<path class="st0" d="M245.7,212.5l-2.7-13.7c0.4-0.1,9.4-1.8,23.8-1.7l-0.1,14C253.9,210.9,245.8,212.5,245.7,212.5z"/>
			</g>
		</g>
	</g>
</g>
</svg>
