<?xml version="1.0" encoding="utf-8"?>
<!-- Generator: Adobe Illustrator 21.1.0, SVG Export Plug-In . SVG Version: 6.00 Build 0)  -->
<svg version="1.1" id="Icon_Set" xmlns="http://www.w3.org/2000/svg" xmlns:xlink="http://www.w3.org/1999/xlink" x="0px" y="0px"
	 viewBox="0 0 512 512" style="enable-background:new 0 0 512 512;" xml:space="preserve">
<style type="text/css">
	.st0{fill:#FFFFFF;}
	.st1{fill:#5B7C31;}
	.st2{fill:#E56823;}
	.st3{fill:#FE8E46;}
	.st4{fill:#7DAC51;}
	.st5{fill:#463218;}
	.st6{fill:#FEFE71;}
	.st7{fill:#D6CD1E;}
	.st8{fill:none;stroke:#FFFFFF;stroke-width:14;stroke-miterlimit:10;}
	.st9{fill:none;stroke:#463218;stroke-width:14;stroke-linecap:round;stroke-linejoin:round;stroke-miterlimit:10;}
</style>
<g id="Sandwich">
	<g>
		<g>
			<g>
				<polygon class="st3" points="243.4,128 158,384 183.3,384 268.6,128 				"/>
			</g>
		</g>
	</g>
	<g>
		<g>
			<g>
				<path class="st5" d="M183.3,391H158c-2.2,0-4.4-1.1-5.7-2.9c-1.3-1.8-1.7-4.2-1-6.3l85.3-256c1-2.9,3.6-4.8,6.6-4.8h25.2
					c2.2,0,4.4,1.1,5.7,2.9c1.3,1.8,1.7,4.2,1,6.3l-85.3,256C189,389.1,186.3,391,183.3,391z M167.8,377h10.5l80.7-242h-10.5
					L167.8,377z"/>
			</g>
		</g>
	</g>
	<g>
		<g>
			<g>
				<polygon class="st7" points="208.5,128 123.2,384 158,384 243.4,128 				"/>
			</g>
		</g>
	</g>
	<g>
		<g>
			<g>
				<path class="st5" d="M158,391h-34.8c-2.2,0-4.4-1.1-5.7-2.9c-1.3-1.8-1.7-4.2-1-6.3l85.3-256c1-2.9,3.6-4.8,6.6-4.8h34.8
					c2.2,0,4.4,1.1,5.7,2.9c1.3,1.8,1.7,4.2,1,6.3l-85.3,256C163.7,389.1,161.1,391,158,391z M132.9,377H153l80.7-242h-20.1
					L132.9,377z"/>
			</g>
		</g>
	</g>
	<g>
		<g>
			<g>
				<polygon class="st6" points="303.5,128 218.1,384 388.8,384 				"/>
			</g>
		</g>
	</g>
	<g>
		<g>
			<g>
				<polygon class="st7" points="303.5,128 303,384 388.8,384 				"/>
			</g>
		</g>
	</g>
	<g>
		<g>
			<g>
				<path class="st5" d="M388.8,391H218.1c-2.2,0-4.4-1.1-5.7-2.9c-1.3-1.8-1.7-4.2-1-6.3l85.3-256c1-2.9,3.6-4.8,6.6-4.8
					s5.7,1.9,6.6,4.8l85.3,256c0.7,2.1,0.4,4.5-1,6.3C393.2,389.9,391.1,391,388.8,391z M227.8,377h151.2l-75.6-226.9L227.8,377z"/>
			</g>
		</g>
	</g>
	<g>
		<g>
			<g>
				<path class="st4" d="M225.4,303.5c4.2-5.2,6.7-11.7,6.7-18.9c0-16.5-13.4-29.9-29.9-29.9s-29.9,13.4-29.9,29.9
					c0,8.2,3.3,15.6,8.6,21c-4.5,5.3-7.2,12.2-7.2,19.7c0,16.8,13.6,30.4,30.4,30.4c16.8,0,30.4-13.6,30.4-30.4
					C234.6,316.7,231.1,309,225.4,303.5z"/>
			</g>
		</g>
	</g>
	<g>
		<g>
			<g>
				<path class="st5" d="M204.1,362.7c-20.6,0-37.4-16.8-37.4-37.4c0-6.9,1.9-13.5,5.4-19.4c-4.4-6.2-6.8-13.6-6.8-21.3
					c0-20.4,16.6-36.9,36.9-36.9c20.4,0,36.9,16.6,36.9,36.9c0,6.5-1.7,12.9-4.9,18.4c4.7,6.4,7.3,14.1,7.3,22.2
					C241.6,345.9,224.8,362.7,204.1,362.7z M202.2,261.6c-12.6,0-22.9,10.3-22.9,22.9c0,6,2.3,11.8,6.6,16.1
					c2.5,2.6,2.7,6.7,0.3,9.4c-3.6,4.2-5.6,9.6-5.6,15.2c0,12.9,10.5,23.4,23.4,23.4s23.4-10.5,23.4-23.4c0-6.3-2.5-12.3-7-16.7
					c-2.6-2.5-2.8-6.6-0.5-9.4c3.4-4.1,5.2-9.2,5.2-14.5C225.2,271.9,214.9,261.6,202.2,261.6z"/>
			</g>
		</g>
	</g>
	<g>
		<g>
			<g>
				<circle class="st2" cx="226.3" cy="227.8" r="29.9"/>
			</g>
		</g>
	</g>
	<g>
		<g>
			<g>
				<path class="st5" d="M226.3,264.7c-20.4,0-36.9-16.6-36.9-36.9s16.6-36.9,36.9-36.9c20.4,0,36.9,16.6,36.9,36.9
					S246.7,264.7,226.3,264.7z M226.3,204.8c-12.6,0-22.9,10.3-22.9,22.9s10.3,22.9,22.9,22.9c12.6,0,22.9-10.3,22.9-22.9
					S238.9,204.8,226.3,204.8z"/>
			</g>
		</g>
	</g>
	<g>
		<g>
			<g>
				<polygon class="st7" points="268.6,128 183.3,384 218.1,384 303.5,128 				"/>
			</g>
		</g>
	</g>
	<g>
		<g>
			<g>
				<path class="st5" d="M218.1,391h-34.8c-2.2,0-4.4-1.1-5.7-2.9c-1.3-1.8-1.7-4.2-1-6.3l85.3-256c1-2.9,3.6-4.8,6.6-4.8h34.8
					c2.2,0,4.4,1.1,5.7,2.9c1.3,1.8,1.7,4.2,1,6.3l-85.3,256C223.8,389.1,221.1,391,218.1,391z M193,377h20.1l80.7-242h-20.1
					L193,377z"/>
			</g>
		</g>
	</g>
	<g>
		<g>
			<g>
				
					<rect x="324.2" y="275.2" transform="matrix(0.9498 -0.3127 0.3127 0.9498 -79.2057 118.9573)" class="st0" width="14" height="62.4"/>
			</g>
		</g>
	</g>
</g>
</svg>
