<?xml version="1.0" encoding="utf-8"?>
<!-- Generator: Adobe Illustrator 22.1.0, SVG Export Plug-In . SVG Version: 6.00 Build 0)  -->
<svg version="1.1" id="Layer_1" xmlns="http://www.w3.org/2000/svg" xmlns:xlink="http://www.w3.org/1999/xlink" x="0px" y="0px"
	 viewBox="0 0 256 256" style="enable-background:new 0 0 256 256;" xml:space="preserve">
<style type="text/css">
	.st0{fill:#F5B31F;}
	.st1{fill:none;stroke:#464646;stroke-width:8;stroke-linecap:round;stroke-linejoin:round;stroke-miterlimit:10;}
	.st2{opacity:0.15;fill:#464646;}
	.st3{fill:#AC6535;}
	.st4{fill:#EB573B;}
	.st5{fill:#90C056;}
	.st6{opacity:0.35;fill:#FFFFFF;}
	.st7{opacity:0.2;fill:#FFFFFF;}
	.st8{fill:#F6D67A;}
	.st9{opacity:0.15;fill:#FFFFFF;}
	.st10{opacity:0.3;fill:#FFFFFF;}
	.st11{fill:#AC6535;stroke:#464646;stroke-width:8;stroke-linecap:round;stroke-linejoin:round;stroke-miterlimit:10;}
	.st12{fill:#EB573B;stroke:#464646;stroke-width:8;stroke-miterlimit:10;}
	.st13{opacity:0.15;}
	.st14{fill:#464646;}
	.st15{fill:#FFA755;}
	.st16{fill:#8FAE3C;}
	.st17{fill:#BE6BB2;}
	.st18{fill:#B7C536;}
	.st19{opacity:0.1;}
	.st20{fill:#9D5A96;}
	.st21{fill:#EA615D;}
	.st22{opacity:0.4;fill:#FFFFFF;}
	.st23{opacity:7.000000e-02;}
	.st24{fill:#F79932;}
	.st25{fill:#FFEC97;}
	.st26{fill:#FFD11D;}
	.st27{opacity:0.2;}
	.st28{fill:#FFFFFF;}
	.st29{fill:#F7F2D5;}
	.st30{fill:#F6AF72;}
	.st31{fill:#BA6C45;}
	.st32{opacity:0.5;fill:#FFFFFF;}
	.st33{fill:#E4C074;}
	.st34{fill:none;stroke:#656566;stroke-width:8;stroke-linecap:round;stroke-linejoin:round;stroke-miterlimit:10;}
	.st35{fill:#FFA755;stroke:#464646;stroke-width:8;stroke-linecap:round;stroke-linejoin:round;stroke-miterlimit:10;}
	.st36{fill:#FFD11D;stroke:#464646;stroke-width:8;stroke-linecap:round;stroke-linejoin:round;stroke-miterlimit:10;}
	.st37{fill:#FACD1F;}
	.st38{fill:#FFDF66;}
	.st39{fill:#FFEC97;stroke:#464646;stroke-width:8;stroke-linecap:round;stroke-linejoin:round;stroke-miterlimit:10;}
	.st40{fill:#FFDF66;stroke:#464646;stroke-width:8;stroke-linecap:round;stroke-linejoin:round;stroke-miterlimit:10;}
	.st41{opacity:0.2;fill:#464646;}
	.st42{fill:#FFFFFF;stroke:#464646;stroke-width:8;stroke-linecap:round;stroke-linejoin:round;stroke-miterlimit:10;}
	.st43{fill:#6D6E71;stroke:#464646;stroke-width:8;stroke-linecap:round;stroke-linejoin:round;stroke-miterlimit:10;}
	.st44{opacity:0.1;fill:#464646;}
	.st45{fill:#E77CAE;}
	.st46{fill:#FFE5C4;}
	.st47{fill:#F68455;stroke:#464646;stroke-width:8;stroke-linecap:round;stroke-linejoin:round;stroke-miterlimit:10;}
	.st48{opacity:0.7;}
	.st49{fill:#ADEDFF;}
	.st50{fill:#EC754B;}
	.st51{fill:#4AA5BA;}
	.st52{opacity:0.5;}
	.st53{opacity:0.8;}
	.st54{fill:#F68455;}
	.st55{fill:#92A5AC;}
	.st56{fill:#6D6E71;}
	.st57{fill:#D06E3C;}
	.st58{fill:#DA4F4B;}
	.st59{fill:#BDF3FF;}
	.st60{fill:#F18BB4;}
	.st61{fill:#F9D97A;}
	.st62{fill:none;}
	.st63{fill:#AF6535;}
	.st64{fill:#B93226;}
	.st65{fill:#FF6050;}
	.st66{fill:#D06E3C;stroke:#464646;stroke-miterlimit:10;}
	.st67{fill:#EA7CB1;}
	.st68{fill:none;stroke:#6D6E71;stroke-width:10;stroke-linecap:round;stroke-linejoin:round;stroke-miterlimit:10;}
	.st69{fill:#00B0E0;}
	.st70{fill:#EA7DAE;}
	.st71{opacity:0.1;fill:#FFFFFF;}
	.st72{fill:#BC7532;}
	.st73{fill:#876C6C;}
	.st74{fill:#F9F6CD;}
	.st75{fill:#FFE37B;}
	.st76{fill:#1DDCFF;}
	.st77{fill:#60ACF7;}
	.st78{fill:#C3755A;}
	.st79{fill:#96557A;}
	.st80{fill:#66625D;}
	.st81{fill:#D68032;}
	.st82{opacity:0.8;fill:#FFFFFF;}
	.st83{fill:#F2A355;}
	.st84{fill:#7E9E6A;}
	.st85{opacity:0.3;}
	.st86{fill:#965A85;}
	.st87{opacity:0.7;fill:#FFFFFF;}
	.st88{fill:#90CAD3;}
	.st89{fill:#94B57F;}
	.st90{fill:#B2E2E7;}
	.st91{fill:#FFDF8F;}
	.st92{fill:#FFFAEB;}
	.st93{fill:#F88916;}
	.st94{fill:#FFC86E;}
	.st95{fill:#AFA51D;}
	.st96{fill:#968A1C;}
	.st97{fill:#C3556D;}
</style>
<g>
	<path class="st0" d="M35.6,174.5c5.1,10.7,20.7,19.8,41.8,19.8l110.5,0c21.3,0,36.6-5.8,40.7-18.8c-2.4,0.4-5,0.8-8,1.1
		c-19.7,1.8-39.4,0.4-46-8.4c-6,6.9-19,13.5-47.3,12c-22.5-1.2-35-6.8-41.9-13c-6.8,4.7-16.7,8.7-30.9,9.1
		C47.1,176.4,40.8,175.8,35.6,174.5z"/>
	<path class="st1" d="M35.6,174.5c5.1,10.7,20.7,19.8,41.8,19.8l110.5,0c21.3,0,36.6-5.8,40.7-18.8c-2.4,0.4-5,0.8-8,1.1
		c-19.7,1.8-39.4,0.4-46-8.4c-6,6.9-19,13.5-47.3,12c-22.5-1.2-35-6.8-41.9-13c-6.8,4.7-16.7,8.7-30.9,9.1
		C47.1,176.4,40.8,175.8,35.6,174.5z"/>
	<path class="st2" d="M243.7,150.3l-23.2,35.9c-19.7,1.8-39.4,0.4-46-8.4c-6,6.9-19,13.5-47.3,12c-22.5-1.2-35-6.8-41.9-13
		c-6.8,4.7-15.9,8.6-30.9,9.1c-15,0.5-21.8-22.8-21.8-22.8s33.8-2.1,43.8-0.3c0.3,0,0.5,0.1,0.8,0.2c5.2,1,11.2,3.1,17.4,4.8
		c5.9,1.6,11.9,3,17.7,3c12.3,0,25.9-6.1,35-6.1c5.9,0,15.1,3,24.8,5.2c2,0.4,4.1,0.8,6.2,1.2c3.2,0.5,6.4,0.8,9.6,0.8
		C199.5,171.8,230,163.3,243.7,150.3z"/>
	<path class="st3" d="M174.6,168.1c6.6,8.8,26.3,10.2,46,8.4c2.9-0.3,5.6-0.6,8-1.1h0c18.9-3.5,22.2-12.1,23.4-19.9
		c0.8-5.5-4.3-11.3-8.2-14.9c-13.7,13-44.2,21.6-55.6,21.6c-3.1,0-6.4-0.3-9.6-0.8c-2.1-0.3-4.2-0.7-6.2-1.2
		C172.1,163.3,172.9,165.9,174.6,168.1z"/>
	<path class="st4" d="M77.4,153.3c0.7,3.8,2.7,9,8.1,13.8c6.9,6.2,19.4,11.8,41.9,13c28.3,1.5,41.3-5.2,47.3-12
		c-1.6-2.2-2.4-4.8-2.2-7.9c-9.8-2.1-18.9-5.2-24.8-5.2c-9.1,0-22.7,6.1-35,6.1c-5.8,0-11.9-1.4-17.7-3
		C88.5,156.4,82.5,154.3,77.4,153.3z"/>
	<path class="st3" d="M35.6,174.5c5.2,1.3,11.5,1.9,18.9,1.7c14.3-0.4,24.2-4.4,30.9-9.1c-5.4-4.8-7.4-10-8.1-13.8
		c-0.3-0.1-0.6-0.1-0.8-0.2c-10.1-1.9-43.8,0.3-43.8,0.3c-8.1,0-14.5-2.2-19.2-5.7C12.5,159.1,18.4,170.3,35.6,174.5z"/>
	<path class="st1" d="M174.6,168.1c6.6,8.8,26.3,10.2,46,8.4c2.9-0.3,5.6-0.6,8-1.1h0c18.9-3.5,22.2-12.1,23.4-19.9
		c0.8-5.5-4.3-11.3-8.2-14.9c-13.7,13-44.2,21.6-55.6,21.6c-3.1,0-6.4-0.3-9.6-0.8c-2.1-0.3-4.2-0.7-6.2-1.2
		C172.1,163.3,172.9,165.9,174.6,168.1z"/>
	<path class="st1" d="M77.4,153.3c0.7,3.8,2.7,9,8.1,13.8c6.9,6.2,19.4,11.8,41.9,13c28.3,1.5,41.3-5.2,47.3-12
		c-1.6-2.2-2.4-4.8-2.2-7.9c-9.8-2.1-18.9-5.2-24.8-5.2c-9.1,0-22.7,6.1-35,6.1c-5.8,0-11.9-1.4-17.7-3
		C88.5,156.4,82.5,154.3,77.4,153.3z"/>
	<path class="st1" d="M35.6,174.5c5.2,1.3,11.5,1.9,18.9,1.7c14.3-0.4,24.2-4.4,30.9-9.1c-5.4-4.8-7.4-10-8.1-13.8
		c-0.3-0.1-0.6-0.1-0.8-0.2c-10.1-1.9-43.8,0.3-43.8,0.3c-8.1,0-14.5-2.2-19.2-5.7C12.5,159.1,18.4,170.3,35.6,174.5z"/>
	<path class="st2" d="M13.9,157c4.7,3.5,11.1,5.7,19.2,5.7c0,0,33.7-2.1,43.8-0.3c0.3,0.1,0.5,0.1,0.8,0.2c5.2,1,11.2,3.1,17.4,4.8
		c5.9,1.6,11.9,3,17.7,3c12.3,0,25.9-6.1,35-6.1c6,0,15.1,3,24.8,5.2c2.1,0.4,4.1,0.8,6.2,1.2c3.2,0.5,6.4,0.8,9.6,0.8
		c11.4,0,41.9-8.5,55.6-21.6c4.2-4-1.3-8.2-1.3-12.9c0-13.8-3.7-20.9-11.2-23.8c-1.4,22.9-20.1,33.2-35.8,33.2l-130.2,0
		c-28.3,0-40.6-32.1-40.6-32.1S2.1,145.1,13.9,157z"/>
	<path class="st5" d="M13.5,147.7c4.7,3.5,11.1,5.7,19.2,5.7c0,0,33.7-2.1,43.8-0.3c0.3,0.1,0.5,0.1,0.8,0.2
		c5.2,1,11.2,3.1,17.4,4.8c5.9,1.6,11.9,3,17.7,3c12.3,0,25.9-6.1,35-6.1c6,0,15.1,3,24.8,5.2c2.1,0.4,4.1,0.8,6.2,1.2
		c3.2,0.5,6.4,0.8,9.6,0.8c11.4,0,41.9-8.5,55.6-21.6c4.2-4,6.9-8.4,6.9-13.2c0-13.8-11.9-20.6-19.4-23.6
		c-1.4,22.9-20.1,33.2-35.8,33.2l-130.2,0c-28.3,0-38.8-15.9-40.6-32.1C1.5,109.9-2.1,136,13.5,147.7z"/>
	<path class="st2" d="M240,112c0,0.9,0,1.8-0.1,2.7c-1.5,22.9-21.8,33.2-38.9,33.2l-141.2,0c-30.7,0-42.1-15.9-44.1-32.1
		c-0.2-1.8-0.3-3.6-0.3-5.3C94.2,86.5,169.7,83.2,240,112z"/>
	<path class="st0" d="M24.2,99.6c0,1.8,0.1,3.5,0.3,5.3c1.8,16.3,12.3,32.1,40.6,32.1l130.2,0c15.7,0,34.5-10.3,35.8-33.2
		c0.1-0.9,0.1-1.8,0.1-2.7c0-24.7-19.6-38.6-39.3-38.6c-19.6,0-30.3,5.5-40.4,10c-16.4-13.6-40.9-15.7-62,0
		c-5.9-3.3-15.8-11.7-34.7-7.8C37,69.2,24.2,81.7,24.2,99.6z"/>
	<path class="st6" d="M89.6,72.6c-5.9-3.3-15.8-11.7-34.7-7.8C37,69.2,24.2,81.7,24.2,99.6c0,1.8,0.1,3.5,0.3,5.3
		c1.8,16.3,12.3,32.1,40.6,32.1c0,0-43-19.1-23.8-49.7S89.6,72.6,89.6,72.6z"/>
	<path class="st2" d="M217.6,71.4c8.1,6.6,13.7,16.6,13.7,29.8c0,0.9,0,1.8-0.1,2.7c-1.4,22.9-20.1,33.2-35.8,33.2l-130.2,0
		c0,0,96.4-9.1,128.7-14.4C226,117.3,217.6,71.4,217.6,71.4"/>
	<path class="st1" d="M24.2,99.6c0,1.8,0.1,3.5,0.3,5.3c1.8,16.3,12.3,32.1,40.6,32.1l130.2,0c15.7,0,34.5-10.3,35.8-33.2
		c0.1-0.9,0.1-1.8,0.1-2.7c0-24.7-19.6-38.6-39.3-38.6c-19.6,0-30.3,5.5-40.4,10c-16.4-13.6-40.9-15.7-62,0
		c-5.9-3.3-15.8-11.7-34.7-7.8C37,69.2,24.2,81.7,24.2,99.6z"/>
	<path class="st1" d="M13.5,147.7c4.7,3.5,11.1,5.7,19.2,5.7c0,0,33.7-2.1,43.8-0.3c0.3,0.1,0.5,0.1,0.8,0.2
		c5.2,1,11.2,3.1,17.4,4.8c5.9,1.6,11.9,3,17.7,3c12.3,0,25.9-6.1,35-6.1c6,0,15.1,3,24.8,5.2c2.1,0.4,4.1,0.8,6.2,1.2
		c3.2,0.5,6.4,0.8,9.6,0.8c11.4,0,41.9-8.5,55.6-21.6c4.2-4,6.9-8.4,6.9-13.2c0-13.8-11.9-20.6-19.4-23.6
		c-1.4,22.9-20.1,33.2-35.8,33.2l-130.2,0c-28.3,0-38.8-15.9-40.6-32.1C1.5,109.9-2.1,136,13.5,147.7z"/>
	<path class="st1" d="M89.6,72.6c14.2,10.1,19.9,23,19.7,37.8"/>
	<path class="st1" d="M151.6,72.6c12.5,10.3,17.2,23.1,15.9,37.8"/>
</g>
</svg>
