<?xml version="1.0" encoding="utf-8"?>
<!-- Generator: Adobe Illustrator 21.1.0, SVG Export Plug-In . SVG Version: 6.00 Build 0)  -->
<svg version="1.1" id="Icon_Set" xmlns="http://www.w3.org/2000/svg" xmlns:xlink="http://www.w3.org/1999/xlink" x="0px" y="0px"
	 viewBox="0 0 512 512" style="enable-background:new 0 0 512 512;" xml:space="preserve">
<style type="text/css">
	.st0{fill:#FFFFFF;}
	.st1{fill:#5B7C31;}
	.st2{fill:#E56823;}
	.st3{fill:#FE8E46;}
	.st4{fill:#7DAC51;}
	.st5{fill:#463218;}
	.st6{fill:#FEFE71;}
	.st7{fill:#D6CD1E;}
	.st8{fill:none;stroke:#FFFFFF;stroke-width:14;stroke-miterlimit:10;}
	.st9{fill:none;stroke:#463218;stroke-width:14;stroke-linecap:round;stroke-linejoin:round;stroke-miterlimit:10;}
</style>
<g id="Satay">
	<g>
		<g>
			<g>
				
					<ellipse transform="matrix(0.7071 -0.7071 0.7071 0.7071 -72.9601 186.2251)" class="st3" cx="188.3" cy="181.2" rx="40.5" ry="40.5"/>
			</g>
		</g>
	</g>
	<g>
		<g>
			<g>
				<path class="st2" d="M197.4,190.3c-12.4,12.4-30.8,15.1-45.8,8c1.9,4.1,4.6,8,8,11.4c15.8,15.8,41.4,15.8,57.2,0
					s15.8-41.4,0-57.2c-3.4-3.4-7.3-6.1-11.4-8C212.5,159.5,209.8,177.9,197.4,190.3z"/>
			</g>
		</g>
	</g>
	<g>
		<g>
			<g>
				
					<ellipse transform="matrix(0.7071 -0.7071 0.7071 0.7071 -96.6723 243.4715)" class="st6" cx="245.6" cy="238.4" rx="40.5" ry="40.5"/>
			</g>
		</g>
	</g>
	<g>
		<g>
			<g>
				<path class="st7" d="M255.3,248.1c-12.5,12.5-31.1,15.1-46.2,7.9c1.9,4,4.5,7.8,7.9,11.1c15.8,15.8,41.4,15.8,57.2,0
					s15.8-41.4,0-57.2c-3.3-3.3-7.1-5.9-11.1-7.9C270.4,217,267.7,235.6,255.3,248.1z"/>
			</g>
		</g>
	</g>
	<g>
		<g>
			<g>
				
					<ellipse transform="matrix(0.7071 -0.7071 0.7071 0.7071 -120.3846 300.7179)" class="st3" cx="302.8" cy="295.7" rx="40.5" ry="40.5"/>
			</g>
		</g>
	</g>
	<g>
		<g>
			<g>
				<path class="st2" d="M311.4,304.3c-12.3,12.3-30.5,15-45.4,8.2c2,4.3,4.7,8.3,8.2,11.8c15.8,15.8,41.4,15.8,57.2,0
					s15.8-41.4,0-57.2c-3.5-3.5-7.5-6.2-11.8-8.2C326.5,273.8,323.7,292,311.4,304.3z"/>
			</g>
		</g>
	</g>
	<g>
		<g>
			<g>
				<path class="st5" d="M188.3,228.6c-12.2,0-24.3-4.6-33.6-13.9c-18.5-18.5-18.5-48.6,0-67.1s48.6-18.5,67.1,0c0,0,0,0,0,0
					c18.5,18.5,18.5,48.6,0,67.1C212.6,224,200.5,228.6,188.3,228.6z M188.3,147.7c-8.6,0-17.1,3.3-23.7,9.8
					c-13.1,13.1-13.1,34.3,0,47.3c13.1,13.1,34.3,13.1,47.3,0s13.1-34.3,0-47.3C205.5,151,196.9,147.7,188.3,147.7z"/>
			</g>
		</g>
	</g>
	<g>
		<g>
			<g>
				<path class="st5" d="M245.6,285.9c-12.7,0-24.6-4.9-33.6-13.9c-9-9-13.9-20.9-13.9-33.6c0-12.7,4.9-24.6,13.9-33.6
					s20.9-13.9,33.6-13.9c12.7,0,24.6,4.9,33.6,13.9c9,9,13.9,20.9,13.9,33.6c0,12.7-4.9,24.6-13.9,33.6
					C270.2,281,258.2,285.9,245.6,285.9z M245.6,205c-8.9,0-17.4,3.5-23.7,9.8c-6.3,6.3-9.8,14.7-9.8,23.7c0,8.9,3.5,17.3,9.8,23.7
					c6.3,6.3,14.7,9.8,23.7,9.8c8.9,0,17.3-3.5,23.7-9.8c6.3-6.3,9.8-14.7,9.8-23.7c0-8.9-3.5-17.3-9.8-23.7c0,0,0,0,0,0
					C262.9,208.4,254.5,205,245.6,205z"/>
			</g>
		</g>
	</g>
	<g>
		<g>
			<g>
				<path class="st5" d="M302.8,343.2c-12.7,0-24.6-4.9-33.6-13.9c-9-9-13.9-20.9-13.9-33.6c0-12.7,4.9-24.6,13.9-33.6
					c9-9,20.9-13.9,33.6-13.9c12.7,0,24.6,4.9,33.6,13.9c9,9,13.9,20.9,13.9,33.6c0,12.7-4.9,24.6-13.9,33.6
					S315.5,343.2,302.8,343.2z M302.8,262.2c-8.9,0-17.3,3.5-23.7,9.8c-6.3,6.3-9.8,14.7-9.8,23.7c0,8.9,3.5,17.3,9.8,23.7
					c6.3,6.3,14.7,9.8,23.7,9.8c8.9,0,17.4-3.5,23.7-9.8c6.3-6.3,9.8-14.7,9.8-23.7c0-8.9-3.5-17.3-9.8-23.7
					C320.2,265.7,311.7,262.2,302.8,262.2z"/>
			</g>
		</g>
	</g>
	<g>
		<g>
			<g>
				<path class="st5" d="M179,179c-1.8,0-3.6-0.7-4.9-2l-43.5-43.5c-2.7-2.7-2.7-7.2,0-9.9c2.7-2.7,7.2-2.7,9.9,0L184,167
					c2.7,2.7,2.7,7.2,0,9.9C182.6,178.3,180.8,179,179,179z"/>
			</g>
		</g>
	</g>
	<g>
		<g>
			<g>
				<path class="st5" d="M376.5,376.4c-1.8,0-3.6-0.7-4.9-2l-45.1-45.1c-2.7-2.7-2.7-7.2,0-9.9c2.7-2.7,7.2-2.7,9.9,0l45.1,45.1
					c2.7,2.7,2.7,7.2,0,9.9C380.1,375.7,378.3,376.4,376.5,376.4z"/>
			</g>
		</g>
	</g>
	<g>
		<g>
			<g>
				<path class="st5" d="M235.2,235c-1.8,0-3.6-0.7-4.9-2L212,214.8c-2.7-2.7-2.7-7.2,0-9.9c2.7-2.7,7.2-2.7,9.9,0l18.2,18.2
					c2.7,2.7,2.7,7.2,0,9.9C238.7,234.3,236.9,235,235.2,235z"/>
			</g>
		</g>
	</g>
	<g>
		<g>
			<g>
				<path class="st5" d="M291.4,291.3c-1.8,0-3.6-0.7-4.9-2L269.2,272c-2.7-2.7-2.7-7.2,0-9.9c2.7-2.7,7.2-2.7,9.9,0l17.3,17.3
					c2.7,2.7,2.7,7.2,0,9.9C295,290.6,293.2,291.3,291.4,291.3z"/>
			</g>
		</g>
	</g>
	<g>
		<g>
			<g>
				<path class="st0" d="M191.7,203.1l-4-13.4l-0.1,0c0.3-0.1,6.3-2.2,9.5-9.9l12.9,5.3C205.4,196.4,196.3,201.7,191.7,203.1z"/>
			</g>
		</g>
	</g>
</g>
</svg>
