<?xml version="1.0" encoding="utf-8"?>
<!-- Generator: Adobe Illustrator 21.1.0, SVG Export Plug-In . SVG Version: 6.00 Build 0)  -->
<svg version="1.1" id="Icon_Set" xmlns="http://www.w3.org/2000/svg" xmlns:xlink="http://www.w3.org/1999/xlink" x="0px" y="0px"
	 viewBox="0 0 512 512" style="enable-background:new 0 0 512 512;" xml:space="preserve">
<style type="text/css">
	.st0{fill:#FFFFFF;}
	.st1{fill:#5B7C31;}
	.st2{fill:#E56823;}
	.st3{fill:#FE8E46;}
	.st4{fill:#7DAC51;}
	.st5{fill:#463218;}
	.st6{fill:#FEFE71;}
	.st7{fill:#D6CD1E;}
	.st8{fill:none;stroke:#FFFFFF;stroke-width:14;stroke-miterlimit:10;}
	.st9{fill:none;stroke:#463218;stroke-width:14;stroke-linecap:round;stroke-linejoin:round;stroke-miterlimit:10;}
</style>
<g id="Sausage">
	<g>
		<g>
			<g>
				<path class="st3" d="M378.3,147.3c-15.1-15.1-39.5-15.1-54.5,0c-4.1,4.1-7.1,9-9,14.2l-16.1,31.4
					c-23.2,45.4-60,82.4-105.3,105.9l-26.3,13.7c-6.9,1.5-13.5,5-18.8,10.4c-15.1,15.1-15.1,39.5,0,54.5c12.5,12.5,31.4,14.6,46,6.4
					l40.3-18.6c55.6-28.9,100.9-74.4,129.5-130.2l19.8-38.6l-0.7-0.4C393.1,180.9,391.5,160.5,378.3,147.3z"/>
			</g>
		</g>
	</g>
	<g>
		<g>
			<g>
				<path class="st2" d="M362.3,175.1l0.7,0.4l-19.8,38.6c-28.6,55.8-73.8,101.3-129.5,130.2l-40.3,18.6
					c-10.3,5.8-22.8,6.4-33.6,1.9c1.9,4.5,4.7,8.8,8.4,12.5c12.5,12.5,31.4,14.6,46,6.4l40.3-18.6c55.6-28.9,100.9-74.4,129.5-130.2
					l19.8-38.6l-0.7-0.4c10-15,8.3-35.4-4.9-48.6c-3.7-3.7-7.9-6.5-12.5-8.4C370.6,150.7,369.5,164.3,362.3,175.1z"/>
			</g>
		</g>
	</g>
	<g>
		<g>
			<g>
				<path class="st5" d="M175.6,395.6c-11.8,0-23.6-4.6-32.3-13.3c-8.6-8.6-13.3-20-13.3-32.2c0-12.2,4.7-23.6,13.3-32.2
					c5.9-5.9,13.3-10,21.3-12l25.6-13.3c44.2-23,79.6-58.5,102.2-102.9l15.9-31c2.3-6.2,5.8-11.6,10.5-16.3
					c17.8-17.8,46.7-17.8,64.4,0c14.4,14.4,17.4,36.8,7.6,54.3c-0.1,0.9-0.3,1.9-0.8,2.8l-19.8,38.6
					c-29.4,57.4-75.2,103.5-132.5,133.3c-0.1,0.1-0.2,0.1-0.3,0.1L197.4,390C190.6,393.8,183.1,395.6,175.6,395.6z M351,143.1
					c-8.1,0-16.2,3.1-22.3,9.2c-3.3,3.3-5.8,7.2-7.4,11.6c-0.1,0.3-0.2,0.6-0.4,0.8l-16.1,31.4c-24,46.9-61.5,84.6-108.3,108.9
					l-26.3,13.7c-0.5,0.3-1.1,0.5-1.7,0.6c-5.8,1.3-11.2,4.2-15.4,8.5c-6,6-9.2,13.9-9.2,22.3s3.3,16.4,9.2,22.3
					c9.9,9.9,25.4,12.1,37.7,5.3c0.2-0.1,0.3-0.2,0.5-0.2l40.2-18.6c54.6-28.4,98.3-72.4,126.3-127.1l18.3-35.7
					c0-1.4,0.4-2.8,1.2-3.9c8.3-12.4,6.6-29.2-4-39.8C367.2,146.1,359.1,143.1,351,143.1z M314.7,161.5L314.7,161.5L314.7,161.5z"/>
			</g>
		</g>
	</g>
	<g>
		<g>
			<g>
				<path class="st5" d="M217.2,347.9c-2.5,0-5-1.4-6.2-3.8c-1.8-3.4-0.4-7.7,3-9.4c42.9-22.3,80.1-55.2,107.4-95.2
					c2.2-3.2,6.5-4,9.7-1.8c3.2,2.2,4,6.5,1.8,9.7c-28.6,41.9-67.5,76.3-112.5,99.7C219.4,347.6,218.3,347.9,217.2,347.9z"/>
			</g>
		</g>
	</g>
	<g>
		<g>
			<g>
				<path class="st5" d="M131.4,381.9c-1.5,0-3-0.5-4.3-1.5c-3-2.4-3.6-6.8-1.2-9.8l8.9-11.4l-14.5-4.9c-3.7-1.2-5.6-5.2-4.4-8.9
					c1.2-3.7,5.2-5.6,8.9-4.4l23.9,8.1c2.2,0.7,3.8,2.4,4.5,4.6c0.7,2.2,0.2,4.5-1.2,6.3l-15,19.2
					C135.5,381,133.4,381.9,131.4,381.9z"/>
			</g>
		</g>
	</g>
	<g>
		<g>
			<g>
				<path class="st5" d="M361.1,154.2c-0.7,0-1.4-0.1-2-0.3c-2.2-0.7-3.9-2.3-4.6-4.5l-8.1-23.9c-1.2-3.7,0.7-7.6,4.4-8.9
					c3.7-1.2,7.6,0.7,8.9,4.4l4.9,14.5l11.4-8.9c3-2.4,7.4-1.8,9.8,1.2c2.4,3,1.8,7.4-1.2,9.8l-19.2,15
					C364.1,153.7,362.6,154.2,361.1,154.2z"/>
			</g>
		</g>
	</g>
	<g>
		<g>
			<g>
				
					<rect x="337.7" y="182.2" transform="matrix(0.3629 -0.9318 0.9318 0.3629 50.1525 451.7349)" class="st0" width="35.6" height="14"/>
			</g>
		</g>
	</g>
</g>
</svg>
