<?xml version="1.0" encoding="utf-8"?>
<!-- Generator: Adobe Illustrator 22.1.0, SVG Export Plug-In . SVG Version: 6.00 Build 0)  -->
<svg version="1.1" id="Layer_1" xmlns="http://www.w3.org/2000/svg" xmlns:xlink="http://www.w3.org/1999/xlink" x="0px" y="0px"
	 viewBox="0 0 256 256" style="enable-background:new 0 0 256 256;" xml:space="preserve">
<style type="text/css">
	.st0{fill:#F5B31F;}
	.st1{fill:none;stroke:#464646;stroke-width:8;stroke-linecap:round;stroke-linejoin:round;stroke-miterlimit:10;}
	.st2{opacity:0.15;fill:#464646;}
	.st3{fill:#AC6535;}
	.st4{fill:#EB573B;}
	.st5{fill:#90C056;}
	.st6{opacity:0.35;fill:#FFFFFF;}
	.st7{opacity:0.2;fill:#FFFFFF;}
	.st8{fill:#F6D67A;}
	.st9{opacity:0.15;fill:#FFFFFF;}
	.st10{opacity:0.3;fill:#FFFFFF;}
	.st11{fill:#AC6535;stroke:#464646;stroke-width:8;stroke-linecap:round;stroke-linejoin:round;stroke-miterlimit:10;}
	.st12{fill:#EB573B;stroke:#464646;stroke-width:8;stroke-miterlimit:10;}
	.st13{opacity:0.15;}
	.st14{fill:#464646;}
	.st15{fill:#FFA755;}
	.st16{fill:#8FAE3C;}
	.st17{fill:#BE6BB2;}
	.st18{fill:#B7C536;}
	.st19{opacity:0.1;}
	.st20{fill:#9D5A96;}
	.st21{fill:#EA615D;}
	.st22{opacity:0.4;fill:#FFFFFF;}
	.st23{opacity:7.000000e-02;}
	.st24{fill:#F79932;}
	.st25{fill:#FFEC97;}
	.st26{fill:#FFD11D;}
	.st27{opacity:0.2;}
	.st28{fill:#FFFFFF;}
	.st29{fill:#F7F2D5;}
	.st30{fill:#F6AF72;}
	.st31{fill:#BA6C45;}
	.st32{opacity:0.5;fill:#FFFFFF;}
	.st33{fill:#E4C074;}
	.st34{fill:none;stroke:#656566;stroke-width:8;stroke-linecap:round;stroke-linejoin:round;stroke-miterlimit:10;}
	.st35{fill:#FFA755;stroke:#464646;stroke-width:8;stroke-linecap:round;stroke-linejoin:round;stroke-miterlimit:10;}
	.st36{fill:#FFD11D;stroke:#464646;stroke-width:8;stroke-linecap:round;stroke-linejoin:round;stroke-miterlimit:10;}
	.st37{fill:#FACD1F;}
	.st38{fill:#FFDF66;}
	.st39{fill:#FFEC97;stroke:#464646;stroke-width:8;stroke-linecap:round;stroke-linejoin:round;stroke-miterlimit:10;}
	.st40{fill:#FFDF66;stroke:#464646;stroke-width:8;stroke-linecap:round;stroke-linejoin:round;stroke-miterlimit:10;}
	.st41{opacity:0.2;fill:#464646;}
	.st42{fill:#FFFFFF;stroke:#464646;stroke-width:8;stroke-linecap:round;stroke-linejoin:round;stroke-miterlimit:10;}
	.st43{fill:#6D6E71;stroke:#464646;stroke-width:8;stroke-linecap:round;stroke-linejoin:round;stroke-miterlimit:10;}
	.st44{opacity:0.1;fill:#464646;}
	.st45{fill:#E77CAE;}
	.st46{fill:#FFE5C4;}
	.st47{fill:#F68455;stroke:#464646;stroke-width:8;stroke-linecap:round;stroke-linejoin:round;stroke-miterlimit:10;}
	.st48{opacity:0.7;}
	.st49{fill:#ADEDFF;}
	.st50{fill:#EC754B;}
	.st51{fill:#4AA5BA;}
	.st52{opacity:0.5;}
	.st53{opacity:0.8;}
	.st54{fill:#F68455;}
	.st55{fill:#92A5AC;}
	.st56{fill:#6D6E71;}
	.st57{fill:#D06E3C;}
	.st58{fill:#DA4F4B;}
	.st59{fill:#BDF3FF;}
	.st60{fill:#F18BB4;}
	.st61{fill:#F9D97A;}
	.st62{fill:none;}
	.st63{fill:#AF6535;}
	.st64{fill:#B93226;}
	.st65{fill:#FF6050;}
	.st66{fill:#D06E3C;stroke:#464646;stroke-miterlimit:10;}
	.st67{fill:#EA7CB1;}
	.st68{fill:none;stroke:#6D6E71;stroke-width:10;stroke-linecap:round;stroke-linejoin:round;stroke-miterlimit:10;}
	.st69{fill:#00B0E0;}
	.st70{fill:#EA7DAE;}
	.st71{opacity:0.1;fill:#FFFFFF;}
	.st72{fill:#BC7532;}
	.st73{fill:#876C6C;}
	.st74{fill:#F9F6CD;}
	.st75{fill:#FFE37B;}
	.st76{fill:#1DDCFF;}
	.st77{fill:#60ACF7;}
	.st78{fill:#C3755A;}
	.st79{fill:#96557A;}
	.st80{fill:#66625D;}
	.st81{fill:#D68032;}
	.st82{opacity:0.8;fill:#FFFFFF;}
	.st83{fill:#F2A355;}
	.st84{fill:#7E9E6A;}
	.st85{opacity:0.3;}
	.st86{fill:#965A85;}
	.st87{opacity:0.7;fill:#FFFFFF;}
	.st88{fill:#90CAD3;}
	.st89{fill:#94B57F;}
	.st90{fill:#B2E2E7;}
	.st91{fill:#FFDF8F;}
	.st92{fill:#FFFAEB;}
	.st93{fill:#F88916;}
	.st94{fill:#FFC86E;}
	.st95{fill:#AFA51D;}
	.st96{fill:#968A1C;}
	.st97{fill:#C3556D;}
</style>
<g>
	<g>
		<path class="st54" d="M112.4,98.7c-6.7,1.9-13.3,5.6-19.5,11.1c-28.5-9.7-43.4-27.3-52.9-50.9c6.9-13,16.8-24.2,30.6-31.6
			c7.9-5,18.5-9.4,30.3-12.8C85.3,45.9,91,73.6,112.4,98.7z"/>
	</g>
	<g>
		<path class="st54" d="M188.3,17.5c-49.5,18.7-63.5,61.4-49.8,82.8c-0.5-0.2-1-0.4-1.6-0.6c-7.9-3-16.3-3.4-24.5-1.1
			C91,73.6,85.3,45.9,101,14.5c26.2-7.5,58.5-9.7,80.9-0.3C184.1,15.3,186.3,16.4,188.3,17.5z"/>
	</g>
	<g class="st19">
		<path d="M180.2,14.1c2.2,1,4.3,2.1,6.4,3.3c-49.5,18.7-63.5,61.4-49.8,82.8c-0.5-0.2-1-0.4-1.6-0.6c-1.2-0.5-4.6-0.9-5.8-1.2
			C119.2,64.4,135.1,35.8,180.2,14.1z"/>
	</g>
	<g class="st19">
		<path d="M100.4,13.5c-2.6,0.6-5.1,1.3-7.6,2c-15.7,31.4-10,59.1,11.4,84.1c1.9-0.5,3.8-0.9,5.7-1.2
			C87.9,70.6,85.9,42.3,100.4,13.5z"/>
	</g>
	<g>
		<path class="st54" d="M244.6,82.3c6.9,17.3,8.6,32.6,6.7,40.4c-4.7,18.7-13.5,26.3-31.5,31.5c-18,5.2-32.7,5.5-44.1-6.6
			c-5.3-5.7-9.1-14.7-14-23.5C176.3,91,206.4,68.6,244.6,82.3z"/>
	</g>
	<g class="st19">
		<path d="M244.6,82.3c6.9,17.3,8.6,32.6,6.7,40.4c-4.7,18.7-13.5,26.3-31.5,31.5c-10.8,3.1-20.4,4.5-28.8,2.5
			c-5.6-1.4-10.7-4.2-15.3-9.1c0,0,44.8,7.2,59.3-15.7C249.5,109.1,244.6,82.3,244.6,82.3z"/>
	</g>
	<g>
		<path class="st54" d="M244.6,82.2C244.6,82.2,244.6,82.3,244.6,82.2c-38.2-13.6-68.3,8.8-82.9,41.9c-5.3-9.6-11.9-19-23.1-23.8
			c-13.7-21.4,0.3-64.1,49.8-82.8C217.9,33.8,235.6,59.6,244.6,82.2z"/>
	</g>
	<g class="st19">
		<path d="M241.7,75.6c1.5,3,1.7,3.7,2.8,6.6c0,0,0,0,0,0c-38.2-13.6-68.3,8.8-82.9,41.9c-1-1.7-4-6.5-5-8.2
			C169.1,80.4,214.2,62.1,241.7,75.6z"/>
	</g>
	<g class="st13">
		<path class="st28" d="M101,14.5c-11.8,3.4-22.3,7.8-30.3,12.8C56.9,34.7,47,45.9,40.1,58.9c2,4.9,4.6,10.3,7.1,14.6
			C52.1,52.8,71.9,32.9,101,14.5z"/>
	</g>
	<g>
		<path class="st54" d="M93,109.8c-5.9,5.3-11.3,12.3-15.9,21.1c-20.5,7-37.4,3.9-51.4-6.6c0.1-21.2,3.8-45.4,14.5-65.4
			C49.6,82.5,64.5,100.1,93,109.8z"/>
	</g>
	<g class="st19">
		<path d="M88.4,114.6c1-1,2-2,2.9-2.9C62.9,102,48,84.4,38.4,60.8c-1,2-2,4-2.9,6C45.4,92.2,62.2,109.2,88.4,114.6z"/>
	</g>
	<g class="st13">
		<path class="st28" d="M47.2,73.5c-2.7-4.6-5-9.5-7.1-14.6c-10.7,20-14.4,44.2-14.5,65.4c3.1,2.3,6.3,4.2,9.6,5.8
			C35.8,109.9,39.3,90.8,47.2,73.5z"/>
	</g>
	<g>
		<path class="st54" d="M77,130.9c-1.7,3.2-3.3,6.6-4.8,10.3c-3.5,8.7-5.2,17.3-6,25.6c-13.2,8.2-25.3,8-36.1-2.3
			c-2.6-9.5-4.6-23.9-4.6-40.1C39.7,134.8,56.5,137.8,77,130.9z"/>
	</g>
	<g class="st19">
		<path d="M72.3,141.2c1.5-3.7,3.1-7.1,4.8-10.3c-20.5,7-37.4,3.9-51.4-6.6c0,2.6,0.1,6.7,0.2,9.2C39,142.3,54.7,144.3,72.3,141.2z"
			/>
	</g>
	<g class="st13">
		<path class="st28" d="M34.8,129.9c-3.3-1.6-6.1-3.3-9.1-5.6c-0.1,16.2,2,30.7,4.6,40.1c2.2,2.1,4.4,3.8,6.7,5.1
			C35.1,156.1,34.7,142.9,34.8,129.9z"/>
	</g>
	<g>
		<path class="st54" d="M66.3,166.7c-2.3,26.9,6.2,50.6,2.6,63.4c-4.8,16.8-26.6,19.8-32.5,16.8c-5.9-2.9-7-10.4-11-11.3
			c-4-0.8-16.8,7.8-21.1,2.2c-4.3-5.6,36.8-51.6,29.2-64.7c-1.1-2-2.3-5-3.4-8.8C41,174.7,53.1,175,66.3,166.7z"/>
	</g>
	<g class="st19">
		<path d="M65.9,177c-0.1-3.8,0.1-6.2,0.4-10.2c-13.2,8.2-25.3,8-36.1-2.3c1.1,3.9,2.2,6.9,3.4,8.8c0.8,1.5,1.3,1.2,1.1,3.3
			C43.3,181.4,53.7,181.5,65.9,177z"/>
	</g>
	<g>
		<g>
			<path class="st1" d="M112.4,98.7c-6.7,1.9-13.3,5.6-19.5,11.1c-28.5-9.7-43.4-27.3-52.9-50.9c6.9-13,16.8-24.2,30.6-31.6
				c7.9-5,18.5-9.4,30.3-12.8C85.3,45.9,91,73.6,112.4,98.7z"/>
		</g>
		<g>
			<path class="st1" d="M188.3,17.5c-49.5,18.7-63.5,61.4-49.8,82.8c-0.5-0.2-1-0.4-1.6-0.6c-7.9-3-16.3-3.4-24.5-1.1
				C91,73.6,85.3,45.9,101,14.5c26.2-7.5,58.5-9.7,80.9-0.3C184.1,15.3,186.3,16.4,188.3,17.5z"/>
		</g>
		<g>
			<path class="st1" d="M244.6,82.3c6.9,17.3,8.6,32.6,6.7,40.4c-4.7,18.7-13.5,26.3-31.5,31.5c-18,5.2-32.7,5.5-44.1-6.6
				c-5.3-5.7-9.1-14.7-14-23.5C176.3,91,206.4,68.6,244.6,82.3z"/>
		</g>
		<g>
			<path class="st1" d="M244.6,82.2C244.6,82.2,244.6,82.3,244.6,82.2c-38.2-13.6-68.3,8.8-82.9,41.9c-5.3-9.6-11.9-19-23.1-23.8
				c-13.7-21.4,0.3-64.1,49.8-82.8C217.9,33.8,235.6,59.6,244.6,82.2z"/>
		</g>
		<g>
			<path class="st1" d="M93,109.8c-5.9,5.3-11.3,12.3-15.9,21.1c-20.5,7-37.4,3.9-51.4-6.6c0.1-21.2,3.8-45.4,14.5-65.4
				C49.6,82.5,64.5,100.1,93,109.8z"/>
		</g>
		<g>
			<path class="st1" d="M77,130.9c-1.7,3.2-3.3,6.6-4.8,10.3c-3.5,8.7-5.2,17.3-6,25.6c-13.2,8.2-25.3,8-36.1-2.3
				c-2.6-9.5-4.6-23.9-4.6-40.1C39.7,134.8,56.5,137.8,77,130.9z"/>
		</g>
		<g>
			<path class="st1" d="M66.3,166.7c-2.3,26.9,6.2,50.6,2.6,63.4c-4.8,16.8-26.6,19.8-32.5,16.8c-5.9-2.9-7-10.4-11-11.3
				c-4-0.8-16.8,7.8-21.1,2.2c-4.3-5.6,36.8-51.6,29.2-64.7c-1.1-2-2.3-5-3.4-8.8C41,174.7,53.1,175,66.3,166.7z"/>
		</g>
	</g>
	<path class="st1" d="M36.9,202.4c-1.9,7.6-5.6,13.1-12.8,21.8"/>
	<path class="st1" d="M41.9,234.2c14.5-2.9,16.4-13.1,14.7-31"/>
</g>
</svg>
