<?xml version="1.0" encoding="utf-8"?>
<!-- Generator: Adobe Illustrator 21.1.0, SVG Export Plug-In . SVG Version: 6.00 Build 0)  -->
<svg version="1.1" id="Icon_Set" xmlns="http://www.w3.org/2000/svg" xmlns:xlink="http://www.w3.org/1999/xlink" x="0px" y="0px"
	 viewBox="0 0 512 512" style="enable-background:new 0 0 512 512;" xml:space="preserve">
<style type="text/css">
	.st0{fill:#FFFFFF;}
	.st1{fill:#5B7C31;}
	.st2{fill:#E56823;}
	.st3{fill:#FE8E46;}
	.st4{fill:#7DAC51;}
	.st5{fill:#463218;}
	.st6{fill:#FEFE71;}
	.st7{fill:#D6CD1E;}
	.st8{fill:none;stroke:#FFFFFF;stroke-width:14;stroke-miterlimit:10;}
	.st9{fill:none;stroke:#463218;stroke-width:14;stroke-linecap:round;stroke-linejoin:round;stroke-miterlimit:10;}
</style>
<g id="Shrimp">
	<g>
		<g>
			<g>
				<path class="st7" d="M196.4,275.5l-7.2-12.7c-14-24.8-45.5-33.6-70.3-19.6l0,0l44.3,32.3H196.4z"/>
			</g>
		</g>
	</g>
	<g>
		<g>
			<g>
				<path class="st3" d="M163.2,275.5c0,63.5,51.5,115,115,115s115-51.5,115-115s-51.5-115-115-115h-73.5c0,0,6.7,94.3,73.5,94.3
					l25.2,35.1l-25.2,26.7l-81.8-41.1H163.2z"/>
			</g>
		</g>
	</g>
	<g>
		<g>
			<g>
				<g>
					<path class="st2" d="M301.8,364.8c-54.7,0-100.5-38.2-112.1-89.4h-26.6c0,63.5,51.5,115,115,115c39.7,0,74.7-20.1,95.3-50.7
						C353.8,355.5,328.9,364.8,301.8,364.8z"/>
				</g>
			</g>
		</g>
	</g>
	<g>
		<g>
			<g>
				<path class="st2" d="M344.9,181.8l-66.7,73l25.2,35.1h88.9c0.6-4.7,0.9-9.5,0.9-14.4C393.1,236.9,374.1,202.7,344.9,181.8z"/>
			</g>
		</g>
	</g>
	<g>
		<g>
			<g>
				<path class="st3" d="M344.9,181.8L322.7,206c24.2,20.2,40,50.2,41.4,83.9h28.1c0.6-4.7,0.9-9.5,0.9-14.4
					C393.1,236.9,374.1,202.7,344.9,181.8z"/>
			</g>
		</g>
	</g>
	<g>
		<g>
			<g>
				<path class="st3" d="M204.6,160.5c0,0,6.7,94.3,73.5,94.3l66.7-73l0,0c-18.8-13.4-41.8-21.3-66.7-21.3H204.6z"/>
			</g>
		</g>
	</g>
	<g>
		<g>
			<g>
				<path class="st2" d="M236.3,160.5h-31.7c0,0,6.7,94.3,73.5,94.3l23.7-25.9C260.5,226.8,243.3,187.7,236.3,160.5z"/>
			</g>
		</g>
	</g>
	<g>
		<g>
			<g>
				<path class="st5" d="M278.1,397.5c-67.3,0-122-54.7-122-122c0-3.9,3.1-7,7-7h33.2c1.1,0,2.2,0.3,3.1,0.7l77.1,38.7l17.7-18.7
					l-19.8-27.6c-28.6-1.4-50.9-19-64.6-51.3C199.5,186,197.7,162,197.6,161c-0.1-1.9,0.5-3.8,1.9-5.3s3.2-2.2,5.1-2.2h73.5
					c67.3,0,122,54.7,122,122C400.1,342.7,345.4,397.5,278.1,397.5z M170.4,282.5c3.6,56.3,50.6,101,107.8,101
					c59.5,0,108-48.4,108-108s-48.4-108-108-108h-65.7c1.3,8.6,4.2,23.2,10.4,37.7c12.1,28.3,30.7,42.6,55.3,42.6
					c2.3,0,4.4,1.1,5.7,2.9l25.2,35.1c2,2.7,1.7,6.5-0.6,8.9l-25.2,26.7c-2.1,2.2-5.5,2.8-8.2,1.4l-80.3-40.3H170.4z"/>
			</g>
		</g>
	</g>
	<g>
		<g>
			<g>
				<path class="st5" d="M151.4,188.8c-1.7,0-3.5-0.6-4.8-1.9c-2.8-2.7-2.9-7.1-0.2-9.9c12.7-13.3,30.1-21.6,48.3-23.2l-11-29.8
					c-1.3-3.6,0.5-7.7,4.1-9c3.6-1.3,7.7,0.5,9,4.1l14.4,39c0.8,2.1,0.5,4.5-0.8,6.4c-1.3,1.9-3.5,3-5.7,3h-3.4
					c-16.8,0-33.1,7-44.8,19.2C155.1,188.1,153.2,188.8,151.4,188.8z"/>
			</g>
		</g>
	</g>
	<g>
		<g>
			<g>
				<path class="st5" d="M278.1,261.8c-30.4,0-54-17.8-68.3-51.4C199.5,186,197.7,162,197.6,161c-0.1-1.9,0.5-3.8,1.9-5.3
					s3.2-2.2,5.1-2.2h73.5c25.6,0,50,7.8,70.8,22.6c1.6,1.2,2.7,3,2.9,5c0.2,2-0.4,4-1.8,5.5l-66.7,73
					C282,261,280.1,261.8,278.1,261.8z M212.5,167.5c1.3,8.6,4.2,23.2,10.4,37.7c11.6,27.1,29.2,41.4,52.3,42.5l59-64.6
					c-16.9-10.3-36.1-15.6-56-15.6H212.5z"/>
			</g>
		</g>
	</g>
	<g>
		<g>
			<g>
				<path class="st5" d="M392.2,296.9h-88.8c-2.3,0-4.4-1.1-5.7-2.9l-25.2-35.1c-1.9-2.7-1.7-6.4,0.5-8.8l66.7-73
					c2.4-2.6,6.4-3,9.2-1c32.1,22.9,51.2,60,51.2,99.3c0,5.1-0.3,10.2-1,15.3C398.7,294.3,395.8,296.9,392.2,296.9z M307,282.9h78.9
					c0.2-2.5,0.3-4.9,0.3-7.4c0-32.8-15-63.8-40.4-84.2l-58.6,64.1L307,282.9z"/>
			</g>
		</g>
	</g>
	<g>
		<g>
			<g>
				<path class="st3" d="M278.1,390.5c58.6,0,107-43.9,114.1-100.6h-88.9l-25.2,26.7L278.1,390.5L278.1,390.5z"/>
			</g>
		</g>
	</g>
	<g>
		<g>
			<g>
				<path class="st3" d="M278.1,390.5c58.6,0,107-43.9,114.1-100.6h-88.9l-25.2,26.7L278.1,390.5L278.1,390.5z"/>
			</g>
		</g>
	</g>
	<g>
		<g>
			<g>
				<path class="st2" d="M357.6,289.9c-12,36.7-41.9,65.2-79.4,75.2v25.3h0c58.6,0,107-43.9,114.1-100.6H357.6z"/>
			</g>
		</g>
	</g>
	<g>
		<g>
			<g>
				<path class="st5" d="M278.1,397.5c-3.9,0-7-3.1-7-7l0-73.9c0-1.8,0.7-3.5,1.9-4.8l25.2-26.7c1.3-1.4,3.2-2.2,5.1-2.2h88.8
					c2,0,3.9,0.9,5.2,2.4c1.3,1.5,1.9,3.5,1.7,5.5C391.6,351.6,339.5,397.5,278.1,397.5z M285.1,319.4v63.9
					c48.6-3.1,89.3-38.7,98.9-86.3h-77.6L285.1,319.4z"/>
			</g>
		</g>
	</g>
	<g>
		<g>
			<g>
				<path class="st5" d="M196.4,282.5h-33.2c-1.5,0-2.9-0.5-4.1-1.3l-44.3-32.3c-1.9-1.4-3-3.7-2.9-6.1c0.1-2.4,1.5-4.5,3.6-5.7
					c28.1-15.8,63.9-5.8,79.8,22.3l7.2,12.7c1.2,2.2,1.2,4.8,0,7S198.9,282.5,196.4,282.5z M165.5,268.5h18.9l-1.3-2.2
					c-10.1-17.9-30.9-26.1-49.9-21.3L165.5,268.5z"/>
			</g>
		</g>
	</g>
	<g>
		<g>
			<g>
				<circle class="st5" cx="277.5" cy="189.7" r="10.2"/>
			</g>
		</g>
	</g>
	<g>
		<g>
			<g>
				<path class="st5" d="M257.8,289.1c-3.9,0-7-3.1-7-7c0-9.7,4.6-18.9,12.3-24.8l10.8-8.1c3.1-2.3,7.5-1.7,9.8,1.4s1.7,7.5-1.4,9.8
					l-10.8,8.1c-4.2,3.2-6.8,8.3-6.8,13.6C264.8,286,261.6,289.1,257.8,289.1z"/>
			</g>
		</g>
	</g>
	<g>
		<g>
			<g>
				<path class="st0" d="M354.3,269.4c-2.6-19.2-18.4-39.4-18.6-39.6l11-8.7c0.8,0.9,18.4,23.4,21.5,46.5L354.3,269.4z"/>
			</g>
		</g>
	</g>
</g>
</svg>
