<?xml version="1.0" encoding="utf-8"?>
<!-- Generator: Adobe Illustrator 21.1.0, SVG Export Plug-In . SVG Version: 6.00 Build 0)  -->
<svg version="1.1" id="Icon_Set" xmlns="http://www.w3.org/2000/svg" xmlns:xlink="http://www.w3.org/1999/xlink" x="0px" y="0px"
	 viewBox="0 0 512 512" style="enable-background:new 0 0 512 512;" xml:space="preserve">
<style type="text/css">
	.st0{fill:#FFFFFF;}
	.st1{fill:#5B7C31;}
	.st2{fill:#E56823;}
	.st3{fill:#FE8E46;}
	.st4{fill:#7DAC51;}
	.st5{fill:#463218;}
	.st6{fill:#FEFE71;}
	.st7{fill:#D6CD1E;}
	.st8{fill:none;stroke:#FFFFFF;stroke-width:14;stroke-miterlimit:10;}
	.st9{fill:none;stroke:#463218;stroke-width:14;stroke-linecap:round;stroke-linejoin:round;stroke-miterlimit:10;}
</style>
<g id="Smoothies">
	<g>
		<g>
			<g>
				<polygon class="st1" points="298.7,174.1 319.2,174.1 341.6,89.7 321.2,89.7 				"/>
			</g>
		</g>
	</g>
	<g>
		<g>
			<g>
				<polygon class="st2" points="262.8,406.2 229,422.3 331.4,422.3 297.7,406.2 				"/>
			</g>
		</g>
	</g>
	<g>
		<g>
			<g>
				<path class="st3" d="M319.4,174.5l-1.4,14.2c-1.1,11.2-2.7,22.3-5.1,33.3c-4.2,18.6-1.1,38.2,8.7,54.8l10.7,18
					c12.4,20.9,13.9,46.5,4.1,68.7l0,0c-4.6,10.4-11.5,19.6-20.1,26.9l-18.6,15.8h-34.9l-18.6-15.8c-8.7-7.3-15.5-16.6-20.1-26.9
					l0,0c-9.8-22.2-8.3-47.8,4.1-68.7l10.7-18c9.8-16.6,12.9-36.2,8.7-54.8c-2.5-11-4-22.1-5.1-33.3l-1.4-14.2H319.4z"/>
			</g>
		</g>
	</g>
	<g>
		<g>
			<g>
				<path class="st2" d="M253.2,363.5L253.2,363.5c-9.8-22.2-8.3-47.8,4.1-68.7l10.7-18c9.8-16.6,12.9-36.2,8.7-54.8
					c-2.5-11-4-22.1-5.1-33.3l-1.4-14.2H241l1.4,14.2c1.1,11.2,2.7,22.3,5.1,33.3c4.2,18.6,1.1,38.2-8.7,54.8l-10.7,18
					c-12.4,20.9-13.9,46.5-4.1,68.7l0,0c4.6,10.4,11.5,19.6,20.1,26.9l18.6,15.8h29.1l-18.6-15.8
					C264.6,383.1,257.7,373.9,253.2,363.5z"/>
			</g>
		</g>
	</g>
	<g>
		<g>
			<g>
				<path class="st4" d="M274.8,129c-12-8.5-43.7-23.1-68.2-13.4c-24.5,9.7-34.5,40.8-37.4,55.2L274.8,129z"/>
			</g>
		</g>
	</g>
	<g>
		<g>
			<g>
				<path class="st1" d="M237.3,115.6c1.2-0.5,2.4-0.9,3.7-1.2c-11.3-2.6-23.6-3-34.4,1.2c-24.5,9.7-34.5,40.8-37.4,55.2l34.4-13.6
					C208.8,142,219,122.8,237.3,115.6z"/>
			</g>
		</g>
	</g>
	<g>
		<g>
			<g>
				<path class="st5" d="M297.7,413.2h-34.9c-1.7,0-3.3-0.6-4.5-1.7l-18.6-15.8c-9.4-8-17-18.2-22-29.5c-10.7-24.2-9-52.3,4.5-75.1
					l10.7-18c8.9-15,11.7-32.6,7.9-49.7c-2.2-10-3.9-20.9-5.3-34.1l-1.4-14.2c-0.2-2,0.4-3.9,1.8-5.4s3.2-2.3,5.2-2.3h78.4
					c2,0,3.9,0.8,5.2,2.3s2,3.4,1.8,5.4l-1.4,14.2c-1.3,13.3-3,24.1-5.3,34.1c-3.8,17-1,34.7,7.9,49.7l10.7,18
					c13.5,22.8,15.2,50.9,4.5,75.1c-5,11.3-12.6,21.5-22,29.5l-18.6,15.8C300.9,412.6,299.3,413.2,297.7,413.2z M265.4,399.2h29.7
					l16.7-14.1c7.8-6.6,14.1-15.1,18.3-24.4c8.9-20.1,7.5-43.4-3.7-62.3l-10.7-18c-10.7-18.1-14.1-39.3-9.5-59.9
					c2.1-9.5,3.7-19.8,5-32.5l0.7-6.5h-62.9l0.7,6.5c1.3,12.7,2.9,23,5,32.5c4.6,20.5,1.2,41.8-9.5,59.9l-10.7,18
					c-11.2,18.9-12.6,42.2-3.7,62.3c4.1,9.4,10.4,17.8,18.3,24.4L265.4,399.2z"/>
			</g>
		</g>
	</g>
	<g>
		<g>
			<g>
				<path class="st5" d="M331.4,429.3H229c-3.3,0-6.1-2.3-6.8-5.5s0.9-6.5,3.8-7.9l33.8-16.1c0.9-0.4,2-0.7,3-0.7h34.9
					c1,0,2.1,0.2,3,0.7l33.8,16.1c3,1.4,4.5,4.7,3.8,7.9S334.7,429.3,331.4,429.3z M260,415.3h40.4l-4.4-2.1h-31.7L260,415.3z"/>
			</g>
		</g>
	</g>
	<g>
		<g>
			<g>
				<path class="st5" d="M169.2,177.8c-1.6,0-3.2-0.6-4.5-1.6c-2-1.6-2.9-4.2-2.4-6.8c1.3-6.3,4.4-18.8,11.3-31.3
					c7.9-14.4,18.1-24.1,30.4-29c29-11.5,63.9,6.4,74.9,14.2c2.1,1.5,3.2,4,2.9,6.5c-0.3,2.5-2,4.7-4.4,5.7l-105.6,41.7
					C170.9,177.6,170.1,177.8,169.2,177.8z M224.5,119.4c-5.3,0-10.6,0.8-15.4,2.7c-16.2,6.4-25.1,24.2-29.5,37l79-31.2
					C249.1,123.4,236.5,119.4,224.5,119.4z"/>
			</g>
		</g>
	</g>
	<g>
		<g>
			<g>
				<path class="st5" d="M241,181.5c-2.4,0-4.8-1.3-6.1-3.6l-13.8-24.4c-1.9-3.4-0.7-7.6,2.6-9.5c3.4-1.9,7.6-0.7,9.5,2.6l13.8,24.4
					c1.9,3.4,0.7,7.6-2.6,9.5C243.4,181.2,242.2,181.5,241,181.5z"/>
			</g>
		</g>
	</g>
	<g>
		<g>
			<g>
				<path class="st5" d="M319.2,181.1h-20.4c-2.2,0-4.2-1-5.5-2.7s-1.8-4-1.2-6.1l22.5-84.4c0.8-3.1,3.6-5.2,6.8-5.2h20.4
					c2.2,0,4.2,1,5.5,2.7s1.8,4,1.2,6.1l-22.5,84.4C325.1,179,322.3,181.1,319.2,181.1z M307.8,167.1h5.9l18.7-70.4h-5.9
					L307.8,167.1z"/>
			</g>
		</g>
	</g>
	<g>
		<g>
			<g>
				<path class="st6" d="M238.9,276.8l-10.7,18c-12.4,20.9-13.9,46.5-4.1,68.7l0,0c4.6,10.4,11.5,19.6,20.1,26.9l18.6,15.8h34.9
					l18.6-15.8c8.7-7.3,15.5-16.6,20.1-26.9l0,0c9.8-22.2,8.3-47.8-4.1-68.7l-10.7-18c-5.4-9.2-8.8-19.3-10-29.6h-62.7
					C247.7,257.5,244.3,267.6,238.9,276.8z"/>
			</g>
		</g>
	</g>
	<g>
		<g>
			<g>
				<path class="st7" d="M253.2,363.5c-9.8-22.2-8.3-47.8,4.1-68.7l10.7-18c5.4-9.2,8.8-19.3,10-29.6h-29.1
					c-0.1,1.2-0.3,2.5-0.5,3.7c0,0.2-0.1,0.4-0.1,0.5c-0.2,1-0.4,2.1-0.6,3.1c-0.1,0.3-0.1,0.6-0.2,0.8c-0.2,0.9-0.5,1.9-0.7,2.8
					c-0.1,0.3-0.2,0.7-0.3,1c-0.2,0.9-0.5,1.7-0.8,2.6c-0.1,0.4-0.2,0.8-0.4,1.1c-0.3,0.8-0.6,1.6-0.9,2.4c-0.2,0.4-0.3,0.8-0.5,1.2
					c-0.3,0.8-0.7,1.6-1,2.3c-0.2,0.4-0.3,0.8-0.5,1.2c-0.4,0.8-0.8,1.6-1.2,2.4c-0.2,0.3-0.3,0.7-0.5,1c-0.6,1.1-1.2,2.2-1.9,3.3
					l-10.7,18c-12.4,20.9-13.9,46.5-4.1,68.7c4.6,10.4,11.5,19.6,20.1,26.9l18.6,15.8h29.1l-18.6-15.8
					C264.6,383.1,257.7,373.9,253.2,363.5z"/>
			</g>
		</g>
	</g>
	<g>
		<g>
			<g>
				<path class="st5" d="M297.7,413.2h-34.9c-1.7,0-3.3-0.6-4.5-1.7l-18.6-15.8c-9.4-8-17-18.2-22-29.5c-10.7-24.2-9-52.3,4.5-75.1
					l10.7-18c4.9-8.3,8-17.3,9.1-26.8c0.4-3.5,3.4-6.2,7-6.2h62.7c3.6,0,6.5,2.7,7,6.2c1.1,9.6,4.2,18.6,9.1,26.8l10.7,18
					c13.5,22.8,15.2,50.9,4.5,75.1c-5,11.3-12.6,21.5-22,29.5l-18.6,15.8C300.9,412.6,299.3,413.2,297.7,413.2z M265.4,399.2h29.7
					l16.7-14.1c7.8-6.6,14.1-15.1,18.3-24.4c8.9-20.1,7.5-43.4-3.7-62.3l-10.7-18c-4.8-8.2-8.2-16.9-10-26.2h-50.7
					c-1.8,9.2-5.1,18-10,26.2l0,0l-10.7,18c-11.2,18.9-12.6,42.2-3.7,62.3c4.1,9.4,10.4,17.8,18.3,24.4L265.4,399.2z M238.9,276.8
					L238.9,276.8L238.9,276.8z"/>
			</g>
		</g>
	</g>
	<g>
		<g>
			<g>
				
					<rect x="278.8" y="198.1" transform="matrix(0.2334 -0.9724 0.9724 0.2334 23.8891 440.4902)" class="st0" width="25" height="14"/>
			</g>
		</g>
	</g>
</g>
</svg>
