<?xml version="1.0" encoding="utf-8"?>
<!-- Generator: Adobe Illustrator 21.1.0, SVG Export Plug-In . SVG Version: 6.00 Build 0)  -->
<svg version="1.1" id="Icon_Set" xmlns="http://www.w3.org/2000/svg" xmlns:xlink="http://www.w3.org/1999/xlink" x="0px" y="0px"
	 viewBox="0 0 512 512" style="enable-background:new 0 0 512 512;" xml:space="preserve">
<style type="text/css">
	.st0{fill:#FFFFFF;}
	.st1{fill:#5B7C31;}
	.st2{fill:#E56823;}
	.st3{fill:#FE8E46;}
	.st4{fill:#7DAC51;}
	.st5{fill:#463218;}
	.st6{fill:#FEFE71;}
	.st7{fill:#D6CD1E;}
	.st8{fill:none;stroke:#FFFFFF;stroke-width:14;stroke-miterlimit:10;}
	.st9{fill:none;stroke:#463218;stroke-width:14;stroke-linecap:round;stroke-linejoin:round;stroke-miterlimit:10;}
</style>
<g id="Snack">
	<g>
		<g>
			<g>
				<path class="st6" d="M265.2,132.2c11.6,18.6,5.9,43-12.7,54.6c-18.6,11.6-43,5.9-54.6-12.7c-11.6-18.6-13.3-55,5.3-66.5
					S253.6,113.7,265.2,132.2z"/>
			</g>
		</g>
	</g>
	<g>
		<g>
			<g>
				<path class="st5" d="M231.6,199.8c-15.6,0-30.8-7.8-39.7-22c-12.9-20.8-15.5-61.9,7.5-76.2c23-14.3,58.8,6.2,71.7,26.9
					c0,0,0,0,0,0c6.6,10.6,8.6,23.1,5.8,35.2s-10.2,22.4-20.8,29C248.5,197.5,240,199.8,231.6,199.8z M217.1,110.9
					c-4,0-7.5,0.9-10.3,2.6c-6.4,4-10.2,13-10.6,24.9c-0.4,11.4,2.6,23.9,7.6,32c9.5,15.3,29.7,20,44.9,10.5
					c7.4-4.6,12.6-11.8,14.5-20.3c2-8.5,0.5-17.2-4.1-24.6c-5-8.1-15-16.3-25.3-21C227.9,112.3,222.1,110.9,217.1,110.9z"/>
			</g>
		</g>
	</g>
	<g>
		<g>
			<g>
				<path class="st7" d="M308.4,160.9c-0.7,16.2-14.4,28.7-30.5,28c-16.2-0.7-28.7-14.4-28-30.5c0.7-16.2,14.8-39.1,31-38.4
					C297,120.6,309.1,144.7,308.4,160.9z"/>
			</g>
		</g>
	</g>
	<g>
		<g>
			<g>
				<path class="st5" d="M279.2,195.9c-0.5,0-1,0-1.6,0c-9.7-0.4-18.6-4.6-25.2-11.7c-6.6-7.1-9.9-16.4-9.5-26.1
					c0.4-9.5,4.5-20.5,11-29.4c7.8-10.6,17.4-16.2,27.2-15.8c21,0.9,35.1,29.4,34.3,48.2v0C314.6,180.6,298.5,195.9,279.2,195.9z
					 M280.1,126.9c-4.8,0-10.2,3.6-14.9,10.1c-4.8,6.5-8,15-8.3,21.7c-0.3,6,1.8,11.6,5.9,16c4,4.4,9.5,6.9,15.5,7.2
					c12.3,0.5,22.7-9,23.2-21.3c0.3-6.7-2.2-15.4-6.5-22.3c-4.3-7-9.5-11.1-14.4-11.3C280.4,126.9,280.3,126.9,280.1,126.9z
					 M308.4,160.9L308.4,160.9L308.4,160.9z"/>
			</g>
		</g>
	</g>
	<g>
		<g>
			<g>
				<path class="st3" d="M347.4,366.1V197.6c0-7.3,5.9-13.3,13.3-13.3l5-28.8H146.3l5,28.8c7.3,0,13.3,5.9,13.3,13.3v168.5
					c0,7.3-5.9,13.3-13.3,13.3l-5,28.8h219.4l-5-28.8C353.4,379.4,347.4,373.4,347.4,366.1z"/>
			</g>
		</g>
	</g>
	<g>
		<g>
			<g>
				<path class="st2" d="M151.3,379.4l-5,28.8h45.3l0,0c7.3,0,13.3-5.9,13.3-13.3V226.4c0-7.3-5.9-13.3-13.3-13.3l-5-28.8h174.1
					l5-28.8H146.3l5,28.8c7.3,0,13.3,5.9,13.3,13.3v168.5C164.6,373.4,158.6,379.4,151.3,379.4z"/>
			</g>
		</g>
	</g>
	<g>
		<g>
			<g>
				<path class="st6" d="M365.7,408.1l-5-28.8c-7.3,0-13.3-5.9-13.3-13.3V235l-182.9,65.7v65.3c0,7.3-5.9,13.3-13.3,13.3l-5,28.8
					H365.7z"/>
			</g>
		</g>
	</g>
	<g>
		<g>
			<g>
				<path class="st7" d="M184,402.4l5-28.8c7.3,0,13.3-5.9,13.3-13.3v-65.3l145.2-52.2V235l-182.9,65.7v65.3
					c0,7.3-5.9,13.3-13.3,13.3l-5,28.8h219.4l-1-5.7H184z"/>
			</g>
		</g>
	</g>
	<g>
		<g>
			<g>
				<path class="st5" d="M365.7,415.1H146.3c-2.1,0-4-0.9-5.4-2.5c-1.3-1.6-1.9-3.7-1.5-5.7l5-28.8c0.6-3.4,3.5-5.8,6.9-5.8
					c3.5,0,6.3-2.8,6.3-6.3V197.6c0-3.5-2.8-6.3-6.3-6.3c-3.4,0-6.3-2.4-6.9-5.8l-5-28.8c-0.4-2,0.2-4.1,1.5-5.7
					c1.3-1.6,3.3-2.5,5.4-2.5h219.4c2.1,0,4,0.9,5.4,2.5s1.9,3.7,1.5,5.7l-5,28.8c-0.6,3.4-3.5,5.8-6.9,5.8c-3.5,0-6.3,2.8-6.3,6.3
					v168.5c0,3.5,2.8,6.3,6.3,6.3c3.4,0,6.3,2.4,6.9,5.8l5,28.8c0.4,2-0.2,4.1-1.5,5.7S367.8,415.1,365.7,415.1z M154.6,401.1h202.8
					l-2.7-15.7c-8.2-2.6-14.2-10.3-14.2-19.3V197.6c0-9.1,6-16.8,14.2-19.3l2.7-15.7H154.6l2.7,15.7c8.2,2.6,14.2,10.3,14.2,19.3
					v168.5c0,9.1-6,16.8-14.2,19.3L154.6,401.1z"/>
			</g>
		</g>
	</g>
	<g>
		<g>
			<g>
				<polygon class="st4" points="146.3,155.5 151.3,184.3 360.7,184.3 365.7,155.5 				"/>
			</g>
		</g>
	</g>
	<g>
		<g>
			<g>
				<polygon class="st4" points="360.7,379.4 151.3,379.4 146.3,408.1 365.7,408.1 				"/>
			</g>
		</g>
	</g>
	<g>
		<g>
			<g>
				<path class="st5" d="M360.7,191.3H151.3c-3.4,0-6.3-2.4-6.9-5.8l-5-28.8c-0.4-2,0.2-4.1,1.5-5.7c1.3-1.6,3.3-2.5,5.4-2.5h219.4
					c2.1,0,4,0.9,5.4,2.5s1.9,3.7,1.5,5.7l-5,28.8C367,188.9,364.1,191.3,360.7,191.3z M157.2,177.3h197.6l2.6-14.8H154.6
					L157.2,177.3z"/>
			</g>
		</g>
	</g>
	<g>
		<g>
			<g>
				<path class="st5" d="M365.7,415.1H146.3c-2.1,0-4-0.9-5.4-2.5c-1.3-1.6-1.9-3.7-1.5-5.7l5-28.8c0.6-3.4,3.5-5.8,6.9-5.8h209.4
					c3.4,0,6.3,2.4,6.9,5.8l5,28.8c0.4,2-0.2,4.1-1.5,5.7S367.8,415.1,365.7,415.1z M154.6,401.1h202.8l-2.6-14.8H157.2L154.6,401.1
					z"/>
			</g>
		</g>
	</g>
	<g>
		<g>
			<g>
				<path class="st5" d="M365.7,415.1H146.3c-2.1,0-4-0.9-5.4-2.5c-1.3-1.6-1.9-3.7-1.5-5.7l5-28.8c0.6-3.4,3.5-5.8,6.9-5.8
					c3.5,0,6.3-2.8,6.3-6.3v-65.3c0-3,1.9-5.6,4.6-6.6l182.9-65.7c2.1-0.8,4.5-0.4,6.4,0.9c1.9,1.3,3,3.4,3,5.7v131.1
					c0,3.5,2.8,6.3,6.3,6.3c3.4,0,6.3,2.4,6.9,5.8l5,28.8c0.4,2-0.2,4.1-1.5,5.7S367.8,415.1,365.7,415.1z M154.6,401.1h202.8
					l-2.7-15.7c-8.2-2.6-14.2-10.3-14.2-19.3V245l-168.9,60.7v60.4c0,9.1-6,16.8-14.2,19.3L154.6,401.1z"/>
			</g>
		</g>
	</g>
	<g>
		<g>
			<g>
				<path class="st5" d="M227.8,313.2c-2.9,0-5.6-1.8-6.6-4.6c-1.3-3.6,0.6-7.6,4.2-9l119.6-43.1c3.6-1.3,7.6,0.6,9,4.2
					s-0.6,7.6-4.2,9l-119.6,43.1C229.4,313,228.6,313.2,227.8,313.2z"/>
			</g>
		</g>
	</g>
	<g>
		<g>
			<g>
				<rect x="243" y="202.3" class="st0" width="47.5" height="14"/>
			</g>
		</g>
	</g>
	<g>
		<g>
			<g>
				<rect x="302.9" y="202.3" class="st0" width="23.7" height="14"/>
			</g>
		</g>
	</g>
</g>
</svg>
