<?xml version="1.0" encoding="utf-8"?>
<!-- Generator: Adobe Illustrator 22.1.0, SVG Export Plug-In . SVG Version: 6.00 Build 0)  -->
<svg version="1.1" id="Layer_1" xmlns="http://www.w3.org/2000/svg" xmlns:xlink="http://www.w3.org/1999/xlink" x="0px" y="0px"
	 viewBox="0 0 256 256" style="enable-background:new 0 0 256 256;" xml:space="preserve">
<style type="text/css">
	.st0{fill:#F5B31F;}
	.st1{fill:none;stroke:#464646;stroke-width:8;stroke-linecap:round;stroke-linejoin:round;stroke-miterlimit:10;}
	.st2{opacity:0.15;fill:#464646;}
	.st3{fill:#AC6535;}
	.st4{fill:#EB573B;}
	.st5{fill:#90C056;}
	.st6{opacity:0.35;fill:#FFFFFF;}
	.st7{opacity:0.2;fill:#FFFFFF;}
	.st8{fill:#F6D67A;}
	.st9{opacity:0.15;fill:#FFFFFF;}
	.st10{opacity:0.3;fill:#FFFFFF;}
	.st11{fill:#AC6535;stroke:#464646;stroke-width:8;stroke-linecap:round;stroke-linejoin:round;stroke-miterlimit:10;}
	.st12{fill:#EB573B;stroke:#464646;stroke-width:8;stroke-miterlimit:10;}
	.st13{opacity:0.15;}
	.st14{fill:#464646;}
	.st15{fill:#FFA755;}
	.st16{fill:#8FAE3C;}
	.st17{fill:#BE6BB2;}
	.st18{fill:#B7C536;}
	.st19{opacity:0.1;}
	.st20{fill:#9D5A96;}
	.st21{fill:#EA615D;}
	.st22{opacity:0.4;fill:#FFFFFF;}
	.st23{opacity:7.000000e-02;}
	.st24{fill:#F79932;}
	.st25{fill:#FFEC97;}
	.st26{fill:#FFD11D;}
	.st27{opacity:0.2;}
	.st28{fill:#FFFFFF;}
	.st29{fill:#F7F2D5;}
	.st30{fill:#F6AF72;}
	.st31{fill:#BA6C45;}
	.st32{opacity:0.5;fill:#FFFFFF;}
	.st33{fill:#E4C074;}
	.st34{fill:none;stroke:#656566;stroke-width:8;stroke-linecap:round;stroke-linejoin:round;stroke-miterlimit:10;}
	.st35{fill:#FFA755;stroke:#464646;stroke-width:8;stroke-linecap:round;stroke-linejoin:round;stroke-miterlimit:10;}
	.st36{fill:#FFD11D;stroke:#464646;stroke-width:8;stroke-linecap:round;stroke-linejoin:round;stroke-miterlimit:10;}
	.st37{fill:#FACD1F;}
	.st38{fill:#FFDF66;}
	.st39{fill:#FFEC97;stroke:#464646;stroke-width:8;stroke-linecap:round;stroke-linejoin:round;stroke-miterlimit:10;}
	.st40{fill:#FFDF66;stroke:#464646;stroke-width:8;stroke-linecap:round;stroke-linejoin:round;stroke-miterlimit:10;}
	.st41{opacity:0.2;fill:#464646;}
	.st42{fill:#FFFFFF;stroke:#464646;stroke-width:8;stroke-linecap:round;stroke-linejoin:round;stroke-miterlimit:10;}
	.st43{fill:#6D6E71;stroke:#464646;stroke-width:8;stroke-linecap:round;stroke-linejoin:round;stroke-miterlimit:10;}
	.st44{opacity:0.1;fill:#464646;}
	.st45{fill:#E77CAE;}
	.st46{fill:#FFE5C4;}
	.st47{fill:#F68455;stroke:#464646;stroke-width:8;stroke-linecap:round;stroke-linejoin:round;stroke-miterlimit:10;}
	.st48{opacity:0.7;}
	.st49{fill:#ADEDFF;}
	.st50{fill:#EC754B;}
	.st51{fill:#4AA5BA;}
	.st52{opacity:0.5;}
	.st53{opacity:0.8;}
	.st54{fill:#F68455;}
	.st55{fill:#92A5AC;}
	.st56{fill:#6D6E71;}
	.st57{fill:#D06E3C;}
	.st58{fill:#DA4F4B;}
	.st59{fill:#BDF3FF;}
	.st60{fill:#F18BB4;}
	.st61{fill:#F9D97A;}
	.st62{fill:none;}
	.st63{fill:#AF6535;}
	.st64{fill:#B93226;}
	.st65{fill:#FF6050;}
	.st66{fill:#D06E3C;stroke:#464646;stroke-miterlimit:10;}
	.st67{fill:#EA7CB1;}
	.st68{fill:none;stroke:#6D6E71;stroke-width:10;stroke-linecap:round;stroke-linejoin:round;stroke-miterlimit:10;}
	.st69{fill:#00B0E0;}
	.st70{fill:#EA7DAE;}
	.st71{opacity:0.1;fill:#FFFFFF;}
	.st72{fill:#BC7532;}
	.st73{fill:#876C6C;}
	.st74{fill:#F9F6CD;}
	.st75{fill:#FFE37B;}
	.st76{fill:#1DDCFF;}
	.st77{fill:#60ACF7;}
	.st78{fill:#C3755A;}
	.st79{fill:#96557A;}
	.st80{fill:#66625D;}
	.st81{fill:#D68032;}
	.st82{opacity:0.8;fill:#FFFFFF;}
	.st83{fill:#F2A355;}
	.st84{fill:#7E9E6A;}
	.st85{opacity:0.3;}
	.st86{fill:#965A85;}
	.st87{opacity:0.7;fill:#FFFFFF;}
	.st88{fill:#90CAD3;}
	.st89{fill:#94B57F;}
	.st90{fill:#B2E2E7;}
	.st91{fill:#FFDF8F;}
	.st92{fill:#FFFAEB;}
	.st93{fill:#F88916;}
	.st94{fill:#FFC86E;}
	.st95{fill:#AFA51D;}
	.st96{fill:#968A1C;}
	.st97{fill:#C3556D;}
</style>
<g>
	<rect x="67.2" y="42.5" class="st77" width="121.6" height="68.2"/>
	<rect x="67.2" y="42.5" class="st10" width="15.5" height="68.2"/>
	<path class="st4" d="M188.8,42.5l-121.6,0c0-4.7,4.3-12.4,6-15.7c1.7-3.3,5.7-8.7,12-8.7l85.5,0c6.3,0,10.3,5.4,12,8.7
		C184.5,30.1,188.8,37.8,188.8,42.5z"/>
	<path class="st10" d="M98.1,18l-12.9,0c-6.3,0-10.3,5.4-12,8.7c-1.7,3.3-6,11.1-6,15.7l15.5,0C83.5,33.1,87.2,24.5,98.1,18z"/>
	<path class="st77" d="M188.8,176.6l0,49.6c0,8.2-5.9,15.2-15.7,15.2l-90.3,0c-9.8,0-15.6-7-15.6-15.2l0-49.6L188.8,176.6z"/>
	<path class="st10" d="M82.2,176.6c0,0,0,14.1,0,39.3c0,25.2,70.7,25.4,70.7,25.4l-70,0L71.5,237c-1.2,0-4.3-2.7-4.3-10.8l0-49.6
		L82.2,176.6z"/>
	<path class="st77" d="M182.3,11c0,1.9-0.8,3.7-2.1,4.9c-1.3,1.3-3,2.1-4.9,2.1l-94.6,0c-3.8,0-7-3.1-7-7c0-1.9,0.8-3.7,2.1-4.9
		c1.3-1.3,3-2.1,4.9-2.1l94.6,0C179.1,4,182.3,7.2,182.3,11z"/>
	<path class="st32" d="M175.3,4L80.7,4c-1.9,0-3.7,0.8-4.9,2.1c-1.3,1.3-2.1,3-2.1,4.9c0,3.8,3.1,7,7,7c0,0,3.5-4.3,9.8-7
		C96.7,8.3,175.3,4,175.3,4z"/>
	<rect x="67.2" y="110.7" class="st4" width="121.6" height="65.9"/>
	<rect x="67.2" y="110.7" class="st10" width="15" height="65.9"/>
	<rect x="173.4" y="42.5" class="st19" width="15.5" height="68.2"/>
	<path class="st19" d="M157.9,18l12.9,0c6.3,0,10.3,5.4,12,8.7c1.7,3.3,6,11.1,6,15.7l-15.5,0C172.5,33.1,168.8,24.5,157.9,18z"/>
	<path class="st19" d="M173.1,241.3l11.3-4.3c1.2,0,4.3-2.7,4.3-10.8l0-49.6l-15,0c0,0,0,14.1,0,39.3L173.1,241.3"/>
	<rect x="173.8" y="110.7" class="st19" width="15" height="65.9"/>
	<rect x="67.2" y="42.5" class="st1" width="121.6" height="68.2"/>
	<path class="st1" d="M188.8,42.5l-121.6,0c0-4.7,4.3-12.4,6-15.7c1.7-3.3,5.7-8.7,12-8.7l85.5,0c6.3,0,10.3,5.4,12,8.7
		C184.5,30.1,188.8,37.8,188.8,42.5z"/>
	<path class="st1" d="M188.8,176.6l0,49.6c0,8.2-5.9,15.2-15.7,15.2l-90.3,0c-9.8,0-15.6-7-15.6-15.2l0-49.6L188.8,176.6z"/>
	<path class="st65" d="M171.2,241.3c0,0,0,1,0,3.9c0,2.9-1.8,6.7-6.7,6.7c-4.9,0-69.5-0.1-73.2-0.1c-3.7,0-6.6-4.2-6.6-6.6
		c0-2.5,0-3.9,0-3.9L171.2,241.3z"/>
	<path class="st19" d="M171.2,241.3c0,0,0,0.5,0,2c0,1.5-1.8,3.4-6.7,3.4c-4.9,0-69.5-0.1-73.2-0.1c-3.7,0-6.6-2.1-6.6-3.4
		c0-1.3,0-2,0-2L171.2,241.3z"/>
	<path class="st1" d="M171.2,241.3c0,0,0,1,0,3.9c0,2.9-1.8,6.7-6.7,6.7c-4.9,0-69.5-0.1-73.2-0.1c-3.7,0-6.6-4.2-6.6-6.6
		c0-2.5,0-3.9,0-3.9L171.2,241.3z"/>
	<path class="st1" d="M182.3,11c0,1.9-0.8,3.7-2.1,4.9c-1.3,1.3-3,2.1-4.9,2.1l-94.6,0c-3.8,0-7-3.1-7-7c0-1.9,0.8-3.7,2.1-4.9
		c1.3-1.3,3-2.1,4.9-2.1l94.6,0C179.1,4,182.3,7.2,182.3,11z"/>
	<rect x="67.2" y="110.7" class="st1" width="121.6" height="65.9"/>
</g>
</svg>
