<?xml version="1.0" encoding="utf-8"?>
<!-- Generator: Adobe Illustrator 21.1.0, SVG Export Plug-In . SVG Version: 6.00 Build 0)  -->
<svg version="1.1" id="Icon_Set" xmlns="http://www.w3.org/2000/svg" xmlns:xlink="http://www.w3.org/1999/xlink" x="0px" y="0px"
	 viewBox="0 0 512 512" style="enable-background:new 0 0 512 512;" xml:space="preserve">
<style type="text/css">
	.st0{fill:#FFFFFF;}
	.st1{fill:#5B7C31;}
	.st2{fill:#E56823;}
	.st3{fill:#FE8E46;}
	.st4{fill:#7DAC51;}
	.st5{fill:#463218;}
	.st6{fill:#FEFE71;}
	.st7{fill:#D6CD1E;}
	.st8{fill:none;stroke:#FFFFFF;stroke-width:14;stroke-miterlimit:10;}
	.st9{fill:none;stroke:#463218;stroke-width:14;stroke-linecap:round;stroke-linejoin:round;stroke-miterlimit:10;}
</style>
<g id="Soft_Drink">
	<g>
		<g>
			<g>
				<polygon class="st4" points="313.1,145 198.9,145 189.5,166.1 322.5,166.1 				"/>
			</g>
		</g>
	</g>
	<g>
		<g>
			<g>
				<polygon class="st4" points="198.9,392.1 313.1,392.1 322.5,371 189.5,371 				"/>
			</g>
		</g>
	</g>
	<g>
		<g>
			<g>
				<rect x="189.1" y="166.2" class="st3" width="133.8" height="204.8"/>
			</g>
		</g>
	</g>
	<g>
		<g>
			<g>
				<rect x="189.1" y="166.2" class="st2" width="46.8" height="204.8"/>
			</g>
		</g>
	</g>
	<g>
		<g>
			<g>
				<path class="st5" d="M322.9,378H189.1c-3.9,0-7-3.1-7-7V166.2c0-3.9,3.1-7,7-7h133.8c3.9,0,7,3.1,7,7V371
					C329.9,374.9,326.8,378,322.9,378z M196.1,364h119.8V173.2H196.1V364z"/>
			</g>
		</g>
	</g>
	<g>
		<g>
			<g>
				<path class="st5" d="M322.5,173.1h-133c-2.4,0-4.6-1.2-5.9-3.2c-1.3-2-1.5-4.5-0.5-6.7l9.4-21.1c1.1-2.5,3.6-4.2,6.4-4.2h114.2
					c2.8,0,5.3,1.6,6.4,4.2l9.4,21.1c1,2.2,0.8,4.7-0.5,6.7C327.1,171.9,324.9,173.1,322.5,173.1z M200.3,159.1h111.4l-3.2-7.1
					H203.4L200.3,159.1z"/>
			</g>
		</g>
	</g>
	<g>
		<g>
			<g>
				<path class="st5" d="M313.1,399.1H198.9c-2.8,0-5.3-1.6-6.4-4.2l-9.4-21.1c-1-2.2-0.8-4.7,0.5-6.7c1.3-2,3.5-3.2,5.9-3.2h133
					c2.4,0,4.6,1.2,5.9,3.2c1.3,2,1.5,4.5,0.5,6.7l-9.4,21.1C318.4,397.5,315.9,399.1,313.1,399.1z M203.4,385.1h105.1l3.2-7.1
					H200.3L203.4,385.1z"/>
			</g>
		</g>
	</g>
	<g>
		<g>
			<g>
				<path class="st5" d="M253.5,152h-29.1c-2.1,0-4-0.9-5.4-2.5c-9.2-10.9-10.4-24.3-2.9-31.8c4.2-4.2,10.6-5.8,17.5-4.3
					c5.9,1.3,11.9,4.7,16.8,9.6c6.5,6.5,10.2,14.8,10.1,22.2C260.4,149,257.3,152,253.5,152z M227.9,138h16.5
					c-0.9-1.7-2.2-3.4-3.9-5.1c-3-3-6.5-5.1-9.8-5.8c-2.1-0.5-3.9-0.2-4.7,0.5C224.6,129,224.9,133.3,227.9,138z"/>
			</g>
		</g>
	</g>
	<g>
		<g>
			<g>
				<path class="st7" d="M322.9,200.3c-34.2-0.2-64.4,24.6-69.8,59.4c-6,38.3,20.3,74.2,58.6,80.2c3.8,0.6,7.5,0.9,11.2,0.8V200.3z"
					/>
			</g>
		</g>
	</g>
	<g>
		<g>
			<g>
				<path class="st6" d="M253.1,259.6c-0.5,3-0.7,6-0.8,9h70.6v-68.4C288.7,200,258.6,224.8,253.1,259.6z"/>
			</g>
		</g>
	</g>
	<g>
		<g>
			<g>
				<path class="st5" d="M322.6,347.6c-4,0-8-0.3-12-0.9c-42.1-6.6-70.9-46.1-64.4-88.2c2.9-18.4,12.3-35.1,26.5-47.1
					c13.9-11.7,31.6-18.2,49.7-18.2c0.2,0,0.4,0,0.5,0c3.8,0,6.9,3.2,6.9,7v140.4c0,3.9-3.1,7-7,7
					C322.8,347.6,322.7,347.6,322.6,347.6z M315.9,207.6c-28,3-51.4,24.7-55.9,53.1c-2.6,16.7,1.5,33.4,11.4,47s24.6,22.6,41.3,25.2
					c1,0.2,2.1,0.3,3.1,0.4V207.6z"/>
			</g>
		</g>
	</g>
	<g>
		<g>
			<g>
				<rect x="211.2" y="193.5" class="st0" width="14" height="49.3"/>
			</g>
		</g>
	</g>
</g>
</svg>
