<?xml version="1.0" encoding="utf-8"?>
<!-- Generator: Adobe Illustrator 21.1.0, SVG Export Plug-In . SVG Version: 6.00 Build 0)  -->
<svg version="1.1" id="Icon_Set" xmlns="http://www.w3.org/2000/svg" xmlns:xlink="http://www.w3.org/1999/xlink" x="0px" y="0px"
	 viewBox="0 0 512 512" style="enable-background:new 0 0 512 512;" xml:space="preserve">
<style type="text/css">
	.st0{fill:#FFFFFF;}
	.st1{fill:#5B7C31;}
	.st2{fill:#E56823;}
	.st3{fill:#FE8E46;}
	.st4{fill:#7DAC51;}
	.st5{fill:#463218;}
	.st6{fill:#FEFE71;}
	.st7{fill:#D6CD1E;}
	.st8{fill:none;stroke:#FFFFFF;stroke-width:14;stroke-miterlimit:10;}
	.st9{fill:none;stroke:#463218;stroke-width:14;stroke-linecap:round;stroke-linejoin:round;stroke-miterlimit:10;}
</style>
<g id="Soju">
	<g>
		<g>
			<g>
				<path class="st4" d="M275.5,210.3v-77.9h-39v77.9c-18.3,5.4-31.7,22.4-31.7,42.5v133.2c0,15,12.2,27.2,27.2,27.2H280
					c15,0,27.2-12.2,27.2-27.2V252.8C307.2,232.7,293.8,215.8,275.5,210.3z"/>
			</g>
		</g>
	</g>
	<g>
		<g>
			<g>
				<path class="st1" d="M230.3,386.1V252.8c0-20.1,13.4-37.1,31.7-42.5v-77.9h-25.5v77.9c-18.3,5.4-31.7,22.4-31.7,42.5v133.2
					c0,15,12.2,27.2,27.2,27.2h25.5C242.4,413.3,230.3,401.1,230.3,386.1z"/>
			</g>
		</g>
	</g>
	<g>
		<g>
			<g>
				<rect x="204.8" y="259.7" class="st6" width="102.4" height="106.4"/>
			</g>
		</g>
	</g>
	<g>
		<g>
			<g>
				<rect x="204.8" y="259.7" class="st7" width="25.5" height="106.4"/>
			</g>
		</g>
	</g>
	<g>
		<g>
			<g>
				<path class="st5" d="M307.2,373.1H204.8c-3.9,0-7-3.1-7-7V259.7c0-3.9,3.1-7,7-7h102.4c3.9,0,7,3.1,7,7v106.4
					C314.2,370,311.1,373.1,307.2,373.1z M211.8,359.1h88.4v-92.4h-88.4V359.1z"/>
			</g>
		</g>
	</g>
	<g>
		<g>
			<g>
				<path class="st5" d="M280,420.3H232c-18.9,0-34.2-15.4-34.2-34.2V252.8c0-20.8,12.8-39.6,31.7-47.5v-72.9c0-3.9,3.1-7,7-7h39
					c3.9,0,7,3.1,7,7v72.9c18.9,7.9,31.7,26.7,31.7,47.5v133.2C314.2,404.9,298.8,420.3,280,420.3z M243.5,139.5v70.9
					c0,3.1-2,5.8-5,6.7c-15.7,4.7-26.7,19.4-26.7,35.8v133.2c0,11.2,9.1,20.2,20.2,20.2H280c11.2,0,20.2-9.1,20.2-20.2V252.8
					c0-16.4-11-31.1-26.7-35.8c-3-0.9-5-3.6-5-6.7v-70.9H243.5z"/>
			</g>
		</g>
	</g>
	<g>
		<g>
			<g>
				<path class="st0" d="M270.9,245.3c-1.9-7.1-10.9-10.1-11-10.1l4.1-13.4c0.7,0.2,16.5,5.1,20.4,19.9L270.9,245.3z"/>
			</g>
		</g>
	</g>
	<g>
		<g>
			<g>
				<path class="st3" d="M270.5,146.2h-28.9c-10.3,0-18.7-8.4-18.7-18.7v-10.1c0-10.3,8.4-18.7,18.7-18.7h28.9
					c10.3,0,18.7,8.4,18.7,18.7v10.1C289.2,137.8,280.8,146.2,270.5,146.2z"/>
			</g>
		</g>
	</g>
	<g>
		<g>
			<g>
				<path class="st2" d="M222.8,117.4v10.1c0,0.7,0,1.4,0.1,2H289c0.1-0.7,0.1-1.3,0.1-2v-10.1c0-0.3,0-0.6,0-0.9h-66.2
					C222.9,116.8,222.8,117.1,222.8,117.4z"/>
			</g>
		</g>
	</g>
	<g>
		<g>
			<g>
				<path class="st5" d="M270.5,153.2h-28.9c-14.2,0-25.7-11.5-25.7-25.7v-10.1c0-14.2,11.5-25.7,25.7-25.7h28.9
					c14.2,0,25.7,11.5,25.7,25.7v10.1C296.2,141.7,284.6,153.2,270.5,153.2z M241.5,105.7c-6.5,0-11.7,5.2-11.7,11.7v10.1
					c0,6.5,5.2,11.7,11.7,11.7h28.9c6.5,0,11.7-5.2,11.7-11.7v-10.1c0-6.5-5.2-11.7-11.7-11.7H241.5z"/>
			</g>
		</g>
	</g>
</g>
</svg>
