<?xml version="1.0" encoding="utf-8"?>
<!-- Generator: Adobe Illustrator 21.1.0, SVG Export Plug-In . SVG Version: 6.00 Build 0)  -->
<svg version="1.1" id="Icon_Set" xmlns="http://www.w3.org/2000/svg" xmlns:xlink="http://www.w3.org/1999/xlink" x="0px" y="0px"
	 viewBox="0 0 512 512" style="enable-background:new 0 0 512 512;" xml:space="preserve">
<style type="text/css">
	.st0{fill:#FFFFFF;}
	.st1{fill:#5B7C31;}
	.st2{fill:#E56823;}
	.st3{fill:#FE8E46;}
	.st4{fill:#7DAC51;}
	.st5{fill:#463218;}
	.st6{fill:#FEFE71;}
	.st7{fill:#D6CD1E;}
	.st8{fill:none;stroke:#FFFFFF;stroke-width:14;stroke-miterlimit:10;}
	.st9{fill:none;stroke:#463218;stroke-width:14;stroke-linecap:round;stroke-linejoin:round;stroke-miterlimit:10;}
</style>
<g id="Soup">
	<g>
		<g>
			<g>
				<g>
					<path class="st3" d="M235.3,193.4c-29.2,10.7-56,11.1-59.8,0.8c0,0,15.8,42.9,68.7,23.5s37.1-62.4,37.1-62.4
						C285.2,165.6,264.6,182.7,235.3,193.4z"/>
				</g>
			</g>
		</g>
		<g>
			<g>
				<g>
					<path class="st5" d="M218.6,229.8c-15,0-25.7-5.3-32.9-11c-10.5-8.3-15.3-18.7-16.5-21.4c-0.1-0.2-0.2-0.5-0.3-0.7c0,0,0,0,0,0
						c-1.3-3.6,0.5-7.7,4.2-9c3.6-1.3,7.7,0.5,9,4.2c0,0,0,0,0,0l0,0c0,0,0,0,0,0c0.2,0.5,3.3,3,13.7,2.9
						c10.5-0.1,23.7-2.9,37.1-7.9c13.4-4.9,25.3-11.3,33.4-18c8-6.6,8.7-10.5,8.5-11.1c0,0,0,0,0,0l0,0c-1.3-3.6,0.5-7.7,4.2-9
						c3.6-1.3,7.7,0.5,9,4.2c0,0,0,0,0,0c0.1,0.2,0.2,0.4,0.2,0.7c0.9,2.8,4,13.9,1.3,27c-2.8,13.8-12.5,32.5-42.9,43.7
						C236,228.2,226.7,229.8,218.6,229.8z M195.7,208.7c11.8,8.5,27.4,9.3,46.2,2.4c18.8-6.9,30.1-17.6,33.6-31.8
						c-0.1,0.1-0.2,0.1-0.3,0.2c-9.3,7.7-22.6,14.9-37.5,20.4c-14.9,5.5-29.7,8.6-41.7,8.7C195.9,208.7,195.8,208.7,195.7,208.7z"/>
				</g>
			</g>
		</g>
		<g>
			<g>
				<g>
					<path class="st2" d="M376.5,109.5l-106.1,39c5.8,1.1,9.7,3.3,11,6.8c1.8,4.8-1.8,11.1-9,17.5l112.3-41.3c3.4-1.2,6-3.9,7.1-7.3
						l0,0C394.8,114.9,385.7,106.1,376.5,109.5z"/>
				</g>
			</g>
		</g>
		<g>
			<g>
				<g>
					
						<ellipse transform="matrix(0.9386 -0.3451 0.3451 0.9386 -46.2845 89.5744)" class="st7" cx="228.5" cy="174.8" rx="56.4" ry="19.9"/>
				</g>
			</g>
		</g>
		<g>
			<g>
				<g>
					<path class="st5" d="M272.4,179.8c-2.4,0-4.7-1.2-6-3.4c-1.7-2.9-1.2-6.6,1.4-8.8c6.7-5.9,7.3-9.4,7.1-9.8
						c-0.1-0.3-1.4-1.6-5.7-2.3c-3.1-0.6-5.4-3.1-5.7-6.3c-0.3-3.1,1.6-6.1,4.6-7.2l106.1-39v0c6.8-2.5,14.3-0.9,19.5,4.1
						c5.2,5,7,12.5,4.7,19.4c-1.8,5.4-5.9,9.7-11.3,11.7l-112.2,41.3C274,179.7,273.2,179.8,272.4,179.8z M286.5,150.1
						c0.6,1,1.1,1.9,1.4,2.9c0.7,1.8,1.1,3.9,0.8,6.4l93.4-34.3c1.4-0.5,2.4-1.6,2.9-3c0.8-2.5-0.6-4.3-1.2-4.9
						c-0.6-0.6-2.4-2-4.9-1l0,0L286.5,150.1z M376.5,109.5L376.5,109.5L376.5,109.5z"/>
				</g>
			</g>
		</g>
		<g>
			<g>
				<g>
					<path class="st6" d="M235.3,193.4c-5.6,2.1-11.1,3.7-16.4,5v111.7h41.5V181.5C253.2,185.9,244.7,190,235.3,193.4z"/>
				</g>
			</g>
		</g>
		<g>
			<g>
				<g>
					<path class="st7" d="M239.6,297.6V191.8c-1.4,0.6-2.8,1.1-4.3,1.7c-5.6,2.1-11.1,3.7-16.4,5v111.7h41.5v-12.5H239.6z"/>
				</g>
			</g>
		</g>
		<g>
			<g>
				<g>
					<path class="st5" d="M260.3,317.1h-41.5c-3.9,0-7-3.1-7-7V198.5c0-3.9,3.1-7,7-7s7,3.1,7,7v104.7h27.5V181.5c0-3.9,3.1-7,7-7
						s7,3.1,7,7v128.6C267.3,314,264.2,317.1,260.3,317.1z"/>
				</g>
			</g>
		</g>
		<g>
			<g>
				<g>
					<path class="st5" d="M195,208.8c-13.8,0-23.1-4.1-26-12.1c-2.1-5.6-1.5-14.9,12.8-26.7c9.3-7.7,22.6-14.9,37.5-20.4
						s29.7-8.6,41.7-8.7c18.6-0.2,24.9,6.4,27,12.1c3.9,10.5-4.6,22.8-24,34.6c-3.3,2-7.6,1-9.6-2.3c-2-3.3-1-7.6,2.3-9.6
						c15.3-9.3,18.6-16.6,18.1-17.8c-0.2-0.5-3.3-3-13.7-2.9c-10.5,0.1-23.7,2.9-37.1,7.9c-13.4,4.9-25.3,11.3-33.4,18
						c-8,6.6-8.7,10.6-8.5,11.1c0.8,2.1,12.8,5.3,35.1-0.2c3.8-0.9,7.5,1.4,8.5,5.1s-1.4,7.5-5.1,8.5
						C210.9,207.6,202.3,208.8,195,208.8z"/>
				</g>
			</g>
		</g>
	</g>
	<g>
		<g>
			<g>
				<g>
					<path class="st3" d="M240.5,386.8L240.5,386.8c-66.7,0-120.8-54.1-120.8-120.8v-1.4h241.7v1.4
						C361.3,332.7,307.2,386.8,240.5,386.8z"/>
				</g>
			</g>
		</g>
		<g>
			<g>
				<g>
					<path class="st2" d="M194.2,265.9v-1.4h-74.5v1.4c0,66.7,54.1,120.8,120.8,120.8l0,0c13,0,25.5-2.1,37.2-5.9
						C229.2,365.2,194.2,319.7,194.2,265.9z"/>
				</g>
			</g>
		</g>
		<g>
			<g>
				<g>
					<path class="st5" d="M240.5,393.8c-70.5,0-127.8-57.3-127.8-127.8v-1.4c0-3.9,3.1-7,7-7h241.7c3.9,0,7,3.1,7,7v1.4
						C368.3,336.4,311,393.8,240.5,393.8z M126.8,271.5c2.9,60.2,52.8,108.3,113.7,108.3s110.8-48.1,113.7-108.3H126.8z"/>
				</g>
			</g>
		</g>
		<g>
			<g>
				<g>
					<rect x="190.4" y="375.9" class="st4" width="96.5" height="27.3"/>
				</g>
			</g>
		</g>
		<g>
			<g>
				<g>
					<path class="st5" d="M286.8,410.2h-96.5c-3.9,0-7-3.1-7-7v-27.3c0-3.9,3.1-7,7-7h96.5c3.9,0,7,3.1,7,7v27.3
						C293.8,407.1,290.7,410.2,286.8,410.2z M197.4,396.2h82.5v-13.3h-82.5V396.2z"/>
				</g>
			</g>
		</g>
		<g>
			<g>
				<g>
					<path class="st6" d="M351.3,314.3c3.4-7.8,6-16,7.7-24.5H122c1.7,8.5,4.3,16.7,7.7,24.5H351.3z"/>
				</g>
			</g>
		</g>
		<g>
			<g>
				<g>
					<path class="st7" d="M204.2,314.3c-3.4-7.8-6-16-7.7-24.5H122c1.5,7.5,3.7,14.7,6.5,21.6c0,0,0,0,0,0c0.4,1,0.8,2,1.2,2.9
						c0,0,0,0,0,0H204.2z"/>
				</g>
			</g>
		</g>
		<g>
			<g>
				<g>
					<path class="st5" d="M351.3,321.3H129.7c-2.8,0-5.3-1.6-6.4-4.2c-3.6-8.3-6.4-17-8.2-25.9c-0.4-2.1,0.1-4.2,1.5-5.8
						c1.3-1.6,3.3-2.6,5.4-2.6H359c2.1,0,4.1,0.9,5.4,2.6c1.3,1.6,1.9,3.8,1.5,5.8c-1.8,8.9-4.5,17.6-8.2,25.9
						C356.6,319.6,354,321.3,351.3,321.3z M134.4,307.3h212.2c1.3-3.4,2.5-6.9,3.5-10.5H130.9C131.9,300.3,133.1,303.8,134.4,307.3z
						"/>
				</g>
			</g>
		</g>
		<g>
			<g>
				<g>
					<rect x="251.2" y="328.9" class="st0" width="31.8" height="14"/>
				</g>
			</g>
		</g>
		<g>
			<g>
				<g>
					<rect x="299.2" y="328.9" class="st0" width="12.7" height="14"/>
				</g>
			</g>
		</g>
	</g>
</g>
</svg>
