<?xml version="1.0" encoding="utf-8"?>
<!-- Generator: Adobe Illustrator 21.1.0, SVG Export Plug-In . SVG Version: 6.00 Build 0)  -->
<svg version="1.1" id="Icon_Set" xmlns="http://www.w3.org/2000/svg" xmlns:xlink="http://www.w3.org/1999/xlink" x="0px" y="0px"
	 viewBox="0 0 512 512" style="enable-background:new 0 0 512 512;" xml:space="preserve">
<style type="text/css">
	.st0{fill:#FFFFFF;}
	.st1{fill:#5B7C31;}
	.st2{fill:#E56823;}
	.st3{fill:#FE8E46;}
	.st4{fill:#7DAC51;}
	.st5{fill:#463218;}
	.st6{fill:#FEFE71;}
	.st7{fill:#D6CD1E;}
	.st8{fill:none;stroke:#FFFFFF;stroke-width:14;stroke-miterlimit:10;}
	.st9{fill:none;stroke:#463218;stroke-width:14;stroke-linecap:round;stroke-linejoin:round;stroke-miterlimit:10;}
</style>
<g id="Soy_Milk">
	<g>
		<g>
			<g>
				<path class="st3" d="M271.3,196L271.3,196c-13.5-21.7-20.6-46.8-20.6-72.3V76.5h-12h-38.9h-12v47.2c0,25.6-7.1,50.6-20.6,72.3
					l0,0c-13.5,21.7-20.6,46.8-20.6,72.3v130.4c0,20.3,16.5,36.8,36.8,36.8h16.4h38.9h16.4c20.3,0,36.8-16.5,36.8-36.8V268.3
					C292,242.8,284.8,217.7,271.3,196z"/>
			</g>
		</g>
	</g>
	<g>
		<g>
			<g>
				<path class="st2" d="M176.2,398.7V268.3c0-25.6,7.1-50.6,20.6-72.3c13.5-21.7,20.6-46.8,20.6-72.3V76.5h-17.7h-12v47.2
					c0,25.6-7.1,50.6-20.6,72.3s-20.6,46.8-20.6,72.3v130.4c0,20.3,16.5,36.8,36.8,36.8h16.4H213C192.7,435.5,176.2,419,176.2,398.7
					z"/>
			</g>
		</g>
	</g>
	<g>
		<g>
			<g>
				<path class="st5" d="M255.2,442.5h-71.8c-24.1,0-43.8-19.6-43.8-43.8V268.3c0-26.9,7.5-53.2,21.7-76
					c12.8-20.6,19.6-44.4,19.6-68.6V76.5c0-3.9,3.1-7,7-7h62.9c3.9,0,7,3.1,7,7v47.2c0,24.3,6.8,48,19.6,68.6
					c14.2,22.8,21.7,49.1,21.7,76v130.4C299,422.8,279.3,442.5,255.2,442.5z M194.8,83.5v40.2c0,26.9-7.5,53.2-21.7,76
					c-12.8,20.6-19.6,44.4-19.6,68.6v130.4c0,16.4,13.4,29.8,29.8,29.8h71.8c16.4,0,29.8-13.4,29.8-29.8V268.3
					c0-24.3-6.8-48-19.6-68.6c-14.2-22.8-21.7-49.1-21.7-76V83.5H194.8z"/>
			</g>
		</g>
	</g>
	<g>
		<g>
			<g>
				<path class="st6" d="M146.6,268.3v130.4c0,20.3,16.5,36.8,36.8,36.8h16.4h38.9h16.4c20.3,0,36.8-16.5,36.8-36.8V268.3
					c0-19.5-4.2-38.6-12.1-56.2H158.6C150.7,229.7,146.6,248.9,146.6,268.3z"/>
			</g>
		</g>
	</g>
	<g>
		<g>
			<g>
				<path class="st7" d="M176.2,398.7V268.3c0-19.5,4.2-38.6,12.1-56.2h-29.7c-0.4,0.9-0.8,1.8-1.1,2.6c-0.2,0.4-0.3,0.8-0.5,1.1
					c-0.4,0.9-0.7,1.7-1,2.6c-0.2,0.4-0.3,0.8-0.4,1.2c-1.1,2.8-2,5.6-2.9,8.4c-0.2,0.5-0.3,1.1-0.5,1.6c-0.2,0.8-0.4,1.5-0.7,2.3
					c-0.2,0.6-0.3,1.2-0.5,1.8c-0.2,0.7-0.4,1.4-0.6,2.2c-0.3,1.2-0.6,2.4-0.8,3.7c-0.1,0.6-0.2,1.2-0.4,1.8
					c-0.2,0.8-0.3,1.6-0.5,2.4c-0.1,0.6-0.2,1.2-0.3,1.8c-0.1,0.9-0.3,1.7-0.4,2.6c-0.1,0.5-0.2,1.1-0.2,1.6
					c-0.2,1.4-0.4,2.7-0.5,4.1c0,0.3-0.1,0.6-0.1,0.9c-0.1,1.1-0.2,2.3-0.3,3.4c0,0.5-0.1,1-0.1,1.4c-0.1,1-0.1,2-0.2,3.1
					c0,0.4,0,0.9-0.1,1.3c0,1.4-0.1,2.9-0.1,4.3v130.4c0,20.3,16.5,36.8,36.8,36.8h16.4H213C192.7,435.5,176.2,419,176.2,398.7z"/>
			</g>
		</g>
	</g>
	<g>
		<g>
			<g>
				<path class="st5" d="M255.2,442.5h-71.8c-24.1,0-43.8-19.6-43.8-43.8V268.3c0-20.5,4.3-40.4,12.7-59.1c1.1-2.5,3.6-4.1,6.4-4.1
					h121.3c2.8,0,5.3,1.6,6.4,4.1c8.4,18.7,12.7,38.6,12.7,59.1v130.4C299,422.8,279.3,442.5,255.2,442.5z M163.2,219.1
					c-6.4,15.7-9.7,32.2-9.7,49.2v130.4c0,16.4,13.4,29.8,29.8,29.8h71.8c16.4,0,29.8-13.4,29.8-29.8V268.3c0-17-3.3-33.5-9.7-49.2
					H163.2z"/>
			</g>
		</g>
	</g>
	<g>
		<g>
			<g>
				<path class="st3" d="M332.8,326.2c-8.6,3.2-14.7,10.9-15.7,20c-1.9,16.7-12.9,31.7-29.7,37.9c-16.8,6.2-35,1.9-47.2-9.6
					c-6.7-6.3-16.3-8.2-24.9-5h0c-17,6.2-21.4,28.2-8.2,40.5c25.2,23.6,62.5,32.4,97.1,19.6c34.6-12.7,57.3-43.6,61.2-77.9
					C367.3,333.8,349.7,320,332.8,326.2L332.8,326.2z"/>
			</g>
		</g>
	</g>
	<g>
		<g>
			<g>
				<path class="st5" d="M271.3,442.5c-25.2,0-49.9-9.5-69.1-27.4c-8-7.5-11.5-18.3-9.3-29c2.2-10.7,9.6-19.4,19.9-23.2
					c11.2-4.1,23.5-1.6,32.1,6.5c10.8,10.1,26.1,13.2,40,8.1c13.9-5.1,23.5-17.4,25.2-32.1c1.3-11.8,9.1-21.6,20.3-25.7h0
					c10.3-3.8,21.5-2,30.2,4.8c8.6,6.8,13,17.3,11.7,28.1c-4.4,38.3-29.6,70.4-65.7,83.7C295,440.5,283.1,442.5,271.3,442.5z
					 M223.7,375c-2,0-4.1,0.4-6,1.1c-5.7,2.1-9.8,6.9-11,12.8c-1.2,5.9,0.7,11.9,5.1,16c24.3,22.7,58.7,29.7,89.9,18.2
					c31.2-11.5,52.9-39.1,56.7-72.2c0.7-6-1.7-11.8-6.5-15.5c-4.8-3.7-11-4.7-16.7-2.6c-6.2,2.3-10.5,7.7-11.2,14.2
					c-2.2,20-15.4,36.7-34.3,43.7c-18.9,7-39.7,2.7-54.4-11.1C232.1,376.6,227.9,375,223.7,375z"/>
			</g>
		</g>
	</g>
	<g>
		<g>
			<g>
				<path class="st5" d="M306.6,412.4c-2.3,0-4.6-1.2-5.9-3.3c-2.1-3.3-1.1-7.6,2.2-9.7C327.3,384,332,367,332,366.9
					c0.9-3.8,4.7-6.1,8.4-5.2c3.8,0.9,6.1,4.7,5.2,8.4c-0.2,0.9-5.7,22.4-35.3,41.2C309.2,412.1,307.9,412.4,306.6,412.4z"/>
			</g>
		</g>
	</g>
	<g>
		<g>
			<g>
				<path class="st3" d="M219.3,337.1H292v-68.8c0-4.1-0.2-8.2-0.6-12.3h-72.1V337.1z"/>
			</g>
		</g>
	</g>
	<g>
		<g>
			<g>
				<path class="st2" d="M219.3,337.1h31.1v-68.8c0-4.1-0.1-8.2-0.2-12.3h-30.9V337.1z"/>
			</g>
		</g>
	</g>
	<g>
		<g>
			<g>
				<path class="st5" d="M292,344.1h-72.7c-3.9,0-7-3.1-7-7V256c0-3.9,3.1-7,7-7h72.1c3.6,0,6.6,2.8,7,6.4c0.4,4.4,0.6,8.7,0.6,13
					v68.8C299,341,295.8,344.1,292,344.1z M226.3,330.1H285v-61.8c0-1.8,0-3.5-0.1-5.3h-58.6V330.1z"/>
			</g>
		</g>
	</g>
	<g>
		<g>
			<g>
				<rect x="257.8" y="279.9" class="st0" width="14" height="37.3"/>
			</g>
		</g>
	</g>
</g>
</svg>
