<?xml version="1.0" encoding="utf-8"?>
<!-- Generator: Adobe Illustrator 21.1.0, SVG Export Plug-In . SVG Version: 6.00 Build 0)  -->
<svg version="1.1" id="Icon_Set" xmlns="http://www.w3.org/2000/svg" xmlns:xlink="http://www.w3.org/1999/xlink" x="0px" y="0px"
	 viewBox="0 0 512 512" style="enable-background:new 0 0 512 512;" xml:space="preserve">
<style type="text/css">
	.st0{fill:#FFFFFF;}
	.st1{fill:#5B7C31;}
	.st2{fill:#E56823;}
	.st3{fill:#FE8E46;}
	.st4{fill:#7DAC51;}
	.st5{fill:#463218;}
	.st6{fill:#FEFE71;}
	.st7{fill:#D6CD1E;}
	.st8{fill:none;stroke:#FFFFFF;stroke-width:14;stroke-miterlimit:10;}
	.st9{fill:none;stroke:#463218;stroke-width:14;stroke-linecap:round;stroke-linejoin:round;stroke-miterlimit:10;}
</style>
<g id="Spaghetti">
	<g>
		<g>
			<g>
				<rect x="195.4" y="372.6" class="st1" width="121.2" height="20.4"/>
			</g>
		</g>
	</g>
	<g>
		<g>
			<g>
				<circle class="st3" cx="167.7" cy="314.2" r="37.1"/>
			</g>
		</g>
	</g>
	<g>
		<g>
			<g>
				<path class="st5" d="M167.7,358.3c-24.3,0-44.1-19.8-44.1-44.1s19.8-44.1,44.1-44.1s44.1,19.8,44.1,44.1S192,358.3,167.7,358.3z
					 M167.7,284.1c-16.6,0-30.1,13.5-30.1,30.1c0,16.6,13.5,30.1,30.1,30.1s30.1-13.5,30.1-30.1
					C197.8,297.6,184.3,284.1,167.7,284.1z"/>
			</g>
		</g>
	</g>
	<g>
		<g>
			<g>
				<circle class="st2" cx="322.8" cy="330.4" r="28.6"/>
			</g>
		</g>
	</g>
	<g>
		<g>
			<g>
				<path class="st5" d="M322.8,366c-19.6,0-35.6-16-35.6-35.6c0-19.6,16-35.6,35.6-35.6s35.6,16,35.6,35.6
					C358.4,350,342.4,366,322.8,366z M322.8,308.8c-11.9,0-21.6,9.7-21.6,21.6s9.7,21.6,21.6,21.6s21.6-9.7,21.6-21.6
					S334.7,308.8,322.8,308.8z"/>
			</g>
		</g>
	</g>
	<g>
		<g>
			<g>
				<polygon class="st4" points="312.6,183.5 409.6,133.9 409.6,170.5 312.6,204.8 				"/>
			</g>
		</g>
	</g>
	<g>
		<g>
			<g>
				<polygon class="st1" points="135.9,198.2 135.9,180.2 312.6,216.9 312.6,247.3 				"/>
			</g>
		</g>
	</g>
	<g>
		<g>
			<g>
				<polygon class="st1" points="312.6,216.9 409.6,239.5 409.6,272.2 312.6,247.3 				"/>
			</g>
		</g>
	</g>
	<g>
		<g>
			<g>
				<path class="st5" d="M409.6,279.2c-0.6,0-1.2-0.1-1.7-0.2l-97-24.9c-3.1-0.8-5.3-3.6-5.3-6.8v-30.3c0-2.1,1-4.2,2.6-5.5
					c1.7-1.3,3.9-1.8,5.9-1.3l97,22.5c3.2,0.7,5.4,3.6,5.4,6.8v32.7c0,2.2-1,4.2-2.7,5.5C412.6,278.6,411.1,279.2,409.6,279.2z
					 M319.6,241.8l83,21.3V245l-83-19.3V241.8z"/>
			</g>
		</g>
	</g>
	<g>
		<g>
			<g>
				<path class="st5" d="M312.6,254.3c-0.6,0-1.3-0.1-1.9-0.3L134,204.9c-3-0.8-5.1-3.6-5.1-6.7v-18c0-2.1,0.9-4.1,2.6-5.4
					c1.6-1.3,3.8-1.9,5.8-1.4L314,210.1c3.2,0.7,5.6,3.5,5.6,6.9v30.3c0,2.2-1,4.2-2.8,5.6C315.6,253.8,314.1,254.3,312.6,254.3z
					 M142.9,192.9L305.6,238v-15.4l-162.7-33.8V192.9z"/>
			</g>
		</g>
	</g>
	<g>
		<g>
			<g>
				<g>
					<polygon class="st6" points="183.2,243.4 183.2,330.8 204.8,330.8 204.8,233.5 					"/>
				</g>
			</g>
		</g>
		<g>
			<g>
				<g>
					<polygon class="st7" points="204.8,233.5 204.8,330.8 226.4,330.8 226.4,223.5 					"/>
				</g>
			</g>
		</g>
		<g>
			<g>
				<g>
					<polygon class="st6" points="226.4,223.5 226.4,330.8 247.9,330.8 247.9,213.5 					"/>
				</g>
			</g>
		</g>
		<g>
			<g>
				<g>
					<polygon class="st7" points="247.9,213.5 247.9,330.8 269.5,330.8 269.5,203.5 					"/>
				</g>
			</g>
		</g>
		<g>
			<g>
				<g>
					<polygon class="st6" points="269.5,203.5 269.5,330.8 291,330.8 291,193.5 					"/>
				</g>
			</g>
		</g>
		<g>
			<g>
				<g>
					<polygon class="st7" points="291,330.8 312.6,330.8 312.6,183.5 291,193.5 					"/>
				</g>
			</g>
		</g>
	</g>
	<g>
		<g>
			<g>
				<path class="st6" d="M88.9,330.8L88.9,330.8c29.5,26.9,68.1,41.8,108,41.8h118c40,0,78.5-14.9,108-41.8v0H88.9z"/>
			</g>
		</g>
	</g>
	<g>
		<g>
			<g>
				<path class="st7" d="M177.9,330.8H88.9v0c29.5,26.9,68.1,41.8,108,41.8h88.9C246,372.6,207.4,357.7,177.9,330.8L177.9,330.8z"/>
			</g>
		</g>
	</g>
	<g>
		<g>
			<g>
				<path class="st5" d="M315,379.6H197c-41.8,0-81.8-15.5-112.8-43.6c-2.1-1.9-2.9-5-1.8-7.7c1-2.7,3.6-4.5,6.5-4.5h334.1
					c2.9,0,5.5,1.8,6.5,4.5c1,2.7,0.3,5.8-1.8,7.7C396.9,364.1,356.8,379.6,315,379.6z M108.8,337.8c25.7,18.1,56.4,27.8,88.1,27.8
					h118c31.8,0,62.4-9.8,88.1-27.8L108.8,337.8z"/>
			</g>
		</g>
	</g>
	<g>
		<g>
			<g>
				<path class="st5" d="M316.6,400H195.4c-3.9,0-7-3.1-7-7v-20.4c0-3.9,3.1-7,7-7h121.2c3.9,0,7,3.1,7,7V393
					C323.6,396.9,320.5,400,316.6,400z M202.4,386h107.2v-6.4H202.4V386z"/>
			</g>
		</g>
	</g>
	<g>
		<g>
			<g>
				<g>
					<path class="st5" d="M204.8,337.8h-21.6c-3.9,0-7-3.1-7-7v-87.4c0-2.7,1.6-5.2,4.1-6.4l21.6-10c2.2-1,4.7-0.8,6.7,0.5
						c2,1.3,3.2,3.5,3.2,5.9v97.3C211.8,334.7,208.7,337.8,204.8,337.8z M190.2,323.8h7.6v-79.4l-7.6,3.5V323.8z"/>
				</g>
			</g>
		</g>
		<g>
			<g>
				<g>
					<path class="st5" d="M226.4,337.8h-21.6c-3.9,0-7-3.1-7-7v-97.3c0-2.7,1.6-5.2,4.1-6.4l21.6-10c2.2-1,4.7-0.8,6.7,0.5
						c2,1.3,3.2,3.5,3.2,5.9v107.3C233.4,334.7,230.2,337.8,226.4,337.8z M211.8,323.8h7.6v-89.4l-7.6,3.5V323.8z"/>
				</g>
			</g>
		</g>
		<g>
			<g>
				<g>
					<path class="st5" d="M247.9,337.8h-21.6c-3.9,0-7-3.1-7-7V223.5c0-2.7,1.6-5.2,4.1-6.4l21.6-10c2.2-1,4.7-0.8,6.7,0.5
						c2,1.3,3.2,3.5,3.2,5.9v117.3C254.9,334.7,251.8,337.8,247.9,337.8z M233.4,323.8h7.6v-99.4l-7.6,3.5V323.8z"/>
				</g>
			</g>
		</g>
		<g>
			<g>
				<g>
					<path class="st5" d="M269.5,337.8h-21.6c-3.9,0-7-3.1-7-7V213.5c0-2.7,1.6-5.2,4.1-6.4l21.6-10c2.2-1,4.7-0.8,6.7,0.5
						c2,1.3,3.2,3.5,3.2,5.9v127.3C276.5,334.7,273.3,337.8,269.5,337.8z M254.9,323.8h7.6V214.5l-7.6,3.5V323.8z"/>
				</g>
			</g>
		</g>
		<g>
			<g>
				<g>
					<path class="st5" d="M291,337.8h-21.6c-3.9,0-7-3.1-7-7V203.5c0-2.7,1.6-5.2,4.1-6.4l21.6-10c2.2-1,4.7-0.8,6.7,0.5
						c2,1.3,3.2,3.5,3.2,5.9v137.3C298,334.7,294.9,337.8,291,337.8z M276.5,323.8h7.6V204.5l-7.6,3.5V323.8z"/>
				</g>
			</g>
		</g>
		<g>
			<g>
				<g>
					<path class="st5" d="M312.6,337.8H291c-3.9,0-7-3.1-7-7V193.5c0-2.7,1.6-5.2,4.1-6.4l21.6-10c2.2-1,4.7-0.8,6.7,0.5
						c2,1.3,3.2,3.5,3.2,5.9v147.3C319.6,334.7,316.5,337.8,312.6,337.8z M298,323.8h7.6V194.5L298,198V323.8z"/>
				</g>
			</g>
		</g>
	</g>
	<g>
		<g>
			<g>
				<path class="st5" d="M312.6,211.8c-1.4,0-2.8-0.4-4-1.3c-1.9-1.3-3-3.4-3-5.7v-21.3c0-2.6,1.5-5,3.8-6.2l97-49.6
					c2.2-1.1,4.8-1,6.8,0.3c2.1,1.3,3.3,3.5,3.3,6v36.6c0,3-1.9,5.6-4.7,6.6l-97,34.3C314.2,211.7,313.4,211.8,312.6,211.8z
					 M319.6,187.8v7.1l83-29.3v-20.2L319.6,187.8z"/>
			</g>
		</g>
	</g>
	<g>
		<g>
			<g>
				<rect x="176.5" y="344.3" class="st0" width="71.4" height="14"/>
			</g>
		</g>
	</g>
</g>
</svg>
