<?xml version="1.0" encoding="utf-8"?>
<!-- Generator: Adobe Illustrator 21.1.0, SVG Export Plug-In . SVG Version: 6.00 Build 0)  -->
<svg version="1.1" id="Icon_Set" xmlns="http://www.w3.org/2000/svg" xmlns:xlink="http://www.w3.org/1999/xlink" x="0px" y="0px"
	 viewBox="0 0 512 512" style="enable-background:new 0 0 512 512;" xml:space="preserve">
<style type="text/css">
	.st0{fill:#FFFFFF;}
	.st1{fill:#5B7C31;}
	.st2{fill:#E56823;}
	.st3{fill:#FE8E46;}
	.st4{fill:#7DAC51;}
	.st5{fill:#463218;}
	.st6{fill:#FEFE71;}
	.st7{fill:#D6CD1E;}
	.st8{fill:none;stroke:#FFFFFF;stroke-width:14;stroke-miterlimit:10;}
	.st9{fill:none;stroke:#463218;stroke-width:14;stroke-linecap:round;stroke-linejoin:round;stroke-miterlimit:10;}
</style>
<g id="Squid">
	<g>
		<g>
			<g>
				<path class="st3" d="M291.4,291.2L291.4,291.2c-20,20-52.4,20-72.4,0h0c-0.4-0.4-0.8-0.9-1.3-1.3V329
					c0,14.6,11.9,26.5,26.5,26.5h21.9c14.6,0,26.5-11.9,26.5-26.5v-39.1C292.3,290.4,291.9,290.8,291.4,291.2z"/>
			</g>
		</g>
	</g>
	<g>
		<g>
			<g>
				<path class="st2" d="M291.4,291.2L291.4,291.2c-20,20-52.4,20-72.4,0h0c-0.4-0.4-0.8-0.9-1.3-1.3v23.6c0.4,0.4,0.8,0.9,1.3,1.3
					h0c20,20,52.4,20,72.4,0h0c0.4-0.4,0.8-0.9,1.3-1.3v-23.6C292.3,290.4,291.9,290.8,291.4,291.2z"/>
			</g>
		</g>
	</g>
	<g>
		<g>
			<g>
				<polygon class="st6" points="255.2,82.9 192.9,126.5 219.9,154.9 				"/>
			</g>
		</g>
	</g>
	<g>
		<g>
			<g>
				<polygon class="st6" points="255.2,82.9 317.6,126.5 290.6,154.9 				"/>
			</g>
		</g>
	</g>
	<g>
		<g>
			<g>
				<path class="st3" d="M298,170.1l-42.8-87.2l-42.8,87.2c-5.5,8.3-8.4,18.1-8.4,28.1V255c0,13.6,5.4,26.6,15,36.2h0
					c20,20,52.4,20,72.4,0h0c9.6-9.6,15-22.6,15-36.2v-56.9C306.4,188.2,303.5,178.4,298,170.1z"/>
			</g>
		</g>
	</g>
	<g>
		<g>
			<g>
				<path class="st2" d="M256.5,294.6L256.5,294.6c-9.6-9.6-15-22.6-15-36.2v-56.9c0-10,2.9-19.7,8.4-28.1l24.9-50.7l-19.6-39.8
					l-42.8,87.2c-5.5,8.3-8.4,18.1-8.4,28.1V255c0,13.6,5.4,26.6,15,36.2h0c13.7,13.7,33.3,18,50.7,12.9
					C264.9,301.8,260.4,298.6,256.5,294.6z"/>
			</g>
		</g>
	</g>
	<g>
		<g>
			<g>
				<path class="st5" d="M255.2,313.2c-14.9,0-29.8-5.7-41.2-17c-11-11-17-25.6-17-41.2v-56.9c0-11.2,3.2-22.1,9.3-31.5l42.6-86.8
					c1.2-2.4,3.6-3.9,6.3-3.9s5.1,1.5,6.3,3.9l42.6,86.8c6.1,9.4,9.3,20.3,9.3,31.5V255c0,15.5-6.1,30.2-17,41.2
					C285,307.5,270.1,313.2,255.2,313.2z M255.2,98.8l-36.5,74.4c-0.1,0.3-0.3,0.5-0.4,0.8c-4.7,7.2-7.2,15.6-7.2,24.2V255
					c0,11.8,4.6,22.9,12.9,31.3c8.6,8.6,19.9,12.9,31.3,12.9c11.3,0,22.6-4.3,31.3-12.9c8.3-8.3,12.9-19.4,12.9-31.3v-56.9
					c0-8.6-2.5-17-7.2-24.2c-0.2-0.2-0.3-0.5-0.4-0.8L255.2,98.8z"/>
			</g>
		</g>
	</g>
	<g>
		<g>
			<g>
				<path class="st5" d="M219.9,161.9c-1.9,0-3.7-0.8-5.1-2.2l-27-28.4c-1.4-1.5-2.1-3.5-1.9-5.5c0.2-2,1.3-3.9,3-5l62.3-43.6
					c2.6-1.8,6.1-1.7,8.6,0.4c2.4,2.1,3.1,5.5,1.7,8.4l-35.3,72c-1,2.1-3,3.5-5.2,3.8C220.6,161.9,220.2,161.9,219.9,161.9z
					 M203.6,127.6l14.5,15.2l18.9-38.5L203.6,127.6z"/>
			</g>
		</g>
	</g>
	<g>
		<g>
			<g>
				<path class="st5" d="M290.6,161.9c-0.4,0-0.7,0-1.1-0.1c-2.3-0.3-4.2-1.8-5.2-3.8l-35.3-72c-1.4-2.9-0.7-6.3,1.7-8.4
					c2.4-2.1,5.9-2.3,8.6-0.4l62.3,43.6c1.7,1.2,2.8,3,3,5c0.2,2-0.5,4-1.9,5.5l-27,28.4C294.3,161.1,292.5,161.9,290.6,161.9z
					 M273.5,104.3l18.9,38.5l14.5-15.2L273.5,104.3z"/>
			</g>
		</g>
	</g>
	<g>
		<g>
			<g>
				<path class="st5" d="M266.2,362.5h-21.9c-18.5,0-33.5-15-33.5-33.5v-39.1c0-2.9,1.8-5.5,4.4-6.5c2.7-1.1,5.7-0.4,7.7,1.7
					l0.1,0.1c0.3,0.3,0.6,0.7,1,1c17.2,17.2,45.3,17.2,62.5,0c0.3-0.3,0.6-0.7,1-1l0.1-0.1c2-2.1,5-2.8,7.7-1.7
					c2.7,1.1,4.4,3.6,4.4,6.5V329C299.7,347.5,284.6,362.5,266.2,362.5z M224.8,304.6V329c0,10.8,8.8,19.5,19.5,19.5h21.9
					c10.8,0,19.5-8.8,19.5-19.5v-24.4C267.1,316.1,243.4,316.1,224.8,304.6z"/>
			</g>
		</g>
	</g>
	<g>
		<g>
			<g>
				<path class="st5" d="M192.6,406.4c-1,0-2.1,0-3.1-0.1c-0.6-0.1-1.3-0.1-1.9-0.2c-12.5-1.6-23.6-9.2-29.8-20.2l-12.1-21.7
					c-1.9-3.4-0.7-7.6,2.7-9.5c3.4-1.9,7.6-0.7,9.5,2.7l12.1,21.7c4,7.1,11.2,12,19.3,13.1c0.4,0.1,0.8,0.1,1.2,0.1
					c6.4,0.5,12.6-1.6,17.4-6c5-4.6,7.9-11.1,8-17.9l0.1-22.1c0-3.9,3.1-7,7-7c0,0,0,0,0,0c3.9,0,7,3.2,7,7l-0.1,22.1
					c-0.1,10.7-4.6,20.9-12.5,28.1C210.6,403,201.8,406.4,192.6,406.4z"/>
			</g>
		</g>
	</g>
	<g>
		<g>
			<g>
				<path class="st5" d="M196.9,436.1c-6.7,0-13.2-1.9-19-5.6c-14.2-9.1-20-27.1-13.9-42.8l11.6-29.5c1.4-3.6,5.5-5.4,9.1-3.9
					c3.6,1.4,5.4,5.5,3.9,9.1l-11.6,29.5c-3.7,9.5-0.2,20.4,8.4,25.9c5.6,3.6,12.3,4.4,18.6,2.2l8.9-3.1c3.9-1.4,7.3-3.8,9.8-7
					l10.3-13.1c2.9-3.7,4.5-8.4,4.5-13.2v-23.6c0-3.9,3.1-7,7-7s7,3.1,7,7v23.6c0,7.8-2.7,15.6-7.5,21.8l-10.3,13.1
					c-4.2,5.4-9.8,9.4-16.2,11.6l-8.9,3.1C204.8,435.4,200.9,436.1,196.9,436.1z"/>
			</g>
		</g>
	</g>
	<g>
		<g>
			<g>
				<path class="st5" d="M319.4,406.4c-9.2,0-18-3.4-24.9-9.8c-7.9-7.2-12.4-17.5-12.5-28.1l-0.1-22.1c0-3.9,3.1-7,7-7
					c3.8,0,7,3.1,7,7l0.1,22.1c0,6.8,2.9,13.3,8,17.9c4.8,4.4,11,6.6,17.4,6c0.4,0,0.8-0.1,1.2-0.1c8.1-1.1,15.3-6,19.3-13.1
					l12.1-21.7c1.9-3.4,6.1-4.6,9.5-2.7c3.4,1.9,4.6,6.1,2.7,9.5L354.1,386c-6.1,11-17.3,18.5-29.8,20.2c-0.6,0.1-1.3,0.1-1.9,0.2
					C321.5,406.4,320.4,406.4,319.4,406.4z"/>
			</g>
		</g>
	</g>
	<g>
		<g>
			<g>
				<path class="st5" d="M315.1,436.1c-3.9,0-7.9-0.7-11.7-2l-8.9-3.1c-6.4-2.2-12.1-6.3-16.2-11.6L268,406.2
					c-4.8-6.2-7.5-13.9-7.5-21.8v-23.6c0-3.9,3.1-7,7-7s7,3.1,7,7v23.6c0,4.7,1.6,9.4,4.5,13.2l10.3,13.1c2.5,3.2,5.9,5.7,9.8,7
					l8.9,3.1c6.2,2.2,13,1.4,18.6-2.2c8.6-5.5,12.1-16.4,8.4-25.9l-11.6-29.5c-1.4-3.6,0.3-7.7,3.9-9.1c3.6-1.4,7.7,0.4,9.1,3.9
					l11.6,29.5c6.2,15.7,0.4,33.7-13.9,42.8C328.3,434.2,321.7,436.1,315.1,436.1z"/>
			</g>
		</g>
	</g>
	<g>
		<g>
			<g>
				<rect x="271.1" y="202" class="st0" width="14" height="34.4"/>
			</g>
		</g>
	</g>
	<g>
		<g>
			<g>
				<rect x="271.1" y="250.8" class="st0" width="14" height="20.1"/>
			</g>
		</g>
	</g>
</g>
</svg>
