<?xml version="1.0" encoding="utf-8"?>
<!-- Generator: Adobe Illustrator 21.1.0, SVG Export Plug-In . SVG Version: 6.00 Build 0)  -->
<svg version="1.1" id="Icon_Set" xmlns="http://www.w3.org/2000/svg" xmlns:xlink="http://www.w3.org/1999/xlink" x="0px" y="0px"
	 viewBox="0 0 512 512" style="enable-background:new 0 0 512 512;" xml:space="preserve">
<style type="text/css">
	.st0{fill:#FFFFFF;}
	.st1{fill:#5B7C31;}
	.st2{fill:#E56823;}
	.st3{fill:#FE8E46;}
	.st4{fill:#7DAC51;}
	.st5{fill:#463218;}
	.st6{fill:#FEFE71;}
	.st7{fill:#D6CD1E;}
	.st8{fill:none;stroke:#FFFFFF;stroke-width:14;stroke-miterlimit:10;}
	.st9{fill:none;stroke:#463218;stroke-width:14;stroke-linecap:round;stroke-linejoin:round;stroke-miterlimit:10;}
</style>
<g id="Sushi">
	<g>
		<g>
			<g>
				<g>
					<g>
						<circle class="st3" cx="222" cy="173.7" r="22.5"/>
					</g>
				</g>
			</g>
			<g>
				<g>
					<g>
						<path class="st2" d="M229.2,181.7c-8.4,0-15.3-6.8-15.3-15.3c0-7.3,5.1-13.4,12-14.9c-1.3-0.2-2.6-0.4-4-0.4
							c-12.4,0-22.5,10.1-22.5,22.5c0,12.4,10.1,22.5,22.5,22.5s22.5-10.1,22.5-22.5c0-1.4-0.1-2.7-0.4-4
							C242.6,176.6,236.5,181.7,229.2,181.7z"/>
					</g>
				</g>
			</g>
			<g>
				<g>
					<g>
						<path class="st5" d="M222,203.2c-16.3,0-29.5-13.2-29.5-29.5s13.2-29.5,29.5-29.5s29.5,13.2,29.5,29.5S238.3,203.2,222,203.2z
							 M222,158.2c-8.5,0-15.5,7-15.5,15.5s7,15.5,15.5,15.5s15.5-7,15.5-15.5S230.5,158.2,222,158.2z"/>
					</g>
				</g>
			</g>
		</g>
		<g>
			<g>
				<g>
					<g>
						<circle class="st3" cx="256" cy="173.7" r="22.5"/>
					</g>
				</g>
			</g>
			<g>
				<g>
					<g>
						<path class="st2" d="M263.2,181.7c-8.4,0-15.3-6.8-15.3-15.3c0-7.3,5.1-13.4,12-14.9c-1.3-0.2-2.6-0.4-4-0.4
							c-12.4,0-22.5,10.1-22.5,22.5c0,12.4,10.1,22.5,22.5,22.5s22.5-10.1,22.5-22.5c0-1.4-0.1-2.7-0.4-4
							C276.6,176.6,270.5,181.7,263.2,181.7z"/>
					</g>
				</g>
			</g>
			<g>
				<g>
					<g>
						<path class="st5" d="M256,203.2c-16.3,0-29.5-13.2-29.5-29.5s13.2-29.5,29.5-29.5s29.5,13.2,29.5,29.5S272.3,203.2,256,203.2z
							 M256,158.2c-8.5,0-15.5,7-15.5,15.5s7,15.5,15.5,15.5s15.5-7,15.5-15.5S264.5,158.2,256,158.2z"/>
					</g>
				</g>
			</g>
		</g>
		<g>
			<g>
				<g>
					<g>
						<circle class="st3" cx="290" cy="173.7" r="22.5"/>
					</g>
				</g>
			</g>
			<g>
				<g>
					<g>
						<path class="st2" d="M297.2,181.7c-8.4,0-15.3-6.8-15.3-15.3c0-7.3,5.1-13.4,12-14.9c-1.3-0.2-2.6-0.4-4-0.4
							c-12.4,0-22.5,10.1-22.5,22.5c0,12.4,10.1,22.5,22.5,22.5s22.5-10.1,22.5-22.5c0-1.4-0.1-2.7-0.4-4
							C310.6,176.6,304.5,181.7,297.2,181.7z"/>
					</g>
				</g>
			</g>
			<g>
				<g>
					<g>
						<path class="st5" d="M290,203.2c-16.3,0-29.5-13.2-29.5-29.5s13.2-29.5,29.5-29.5s29.5,13.2,29.5,29.5S306.3,203.2,290,203.2z
							 M290,158.2c-8.5,0-15.5,7-15.5,15.5s7,15.5,15.5,15.5s15.5-7,15.5-15.5S298.5,158.2,290,158.2z"/>
					</g>
				</g>
			</g>
		</g>
	</g>
	<g>
		<g>
			<g>
				<path class="st3" d="M201.3,263.1h111c18.7,0,34.9,10.8,42.7,26.4l22.1-21.4l-10.8-9.6c-22-19.7-50.5-30.5-80.1-30.5H256h-19.1
					h-10.4c-29.5,0-58,10.9-80.1,30.5l-10.8,9.6l22.6,21.9C166,274.1,182.4,263.1,201.3,263.1z"/>
			</g>
		</g>
	</g>
	<g>
		<g>
			<g>
				<rect x="189" y="188.2" class="st6" width="134" height="39.8"/>
			</g>
		</g>
	</g>
	<g>
		<g>
			<g>
				<path class="st5" d="M158.3,297c-1.8,0-3.6-0.7-4.9-2l-22.6-21.9c-1.4-1.4-2.2-3.2-2.1-5.2c0-1.9,0.9-3.8,2.3-5.1l10.8-9.6
					c23.3-20.8,53.4-32.3,84.7-32.3h59.6c31.3,0,61.4,11.5,84.7,32.3l10.8,9.6c1.5,1.3,2.3,3.1,2.3,5.1c0,1.9-0.7,3.8-2.1,5.2
					l-22.1,21.4c-1.6,1.6-3.9,2.2-6.1,1.9c-2.2-0.4-4.1-1.8-5.1-3.8c-6.9-13.9-20.9-22.6-36.4-22.6h-111c-15.5,0-29.9,9-36.6,23
					c-1,2-2.9,3.5-5.1,3.8C159.1,297,158.7,297,158.3,297z M146,268.3l10.9,10.5c10.2-14.1,26.7-22.8,44.4-22.8h111
					c17.7,0,33.9,8.4,44.1,22.3l10.4-10.1l-5.2-4.6C340.8,245.2,314,235,286.2,235h-59.6c-27.9,0-54.6,10.2-75.4,28.8L146,268.3z"/>
			</g>
		</g>
	</g>
	<g>
		<g>
			<g>
				<path class="st5" d="M323,235H189c-3.9,0-7-3.1-7-7v-39.8c0-3.9,3.1-7,7-7h134c3.9,0,7,3.1,7,7V228C330,231.8,326.9,235,323,235
					z M196,221h120v-25.8H196V221z"/>
			</g>
		</g>
	</g>
	<g>
		<g>
			<g>
				<path class="st6" d="M312.3,358.4h-111c-26.3,0-47.7-21.3-47.7-47.7v0c0-26.3,21.3-47.7,47.7-47.7h111
					c26.3,0,47.7,21.3,47.7,47.7v0C359.9,337.1,338.6,358.4,312.3,358.4z"/>
			</g>
		</g>
	</g>
	<g>
		<g>
			<g>
				<path class="st7" d="M312.3,325.3h-111c-20.5,0-38-12.9-44.7-31.1c-1.9,5.2-3,10.7-3,16.5l0,0c0,26.3,21.3,47.7,47.7,47.7h111
					c26.3,0,47.7-21.3,47.7-47.7l0,0c0-5.8-1-11.4-3-16.5C350.2,312.4,332.8,325.3,312.3,325.3z"/>
			</g>
		</g>
	</g>
	<g>
		<g>
			<g>
				<path class="st5" d="M312.3,365.4h-111c-30.1,0-54.7-24.5-54.7-54.7s24.5-54.7,54.7-54.7h111c30.1,0,54.7,24.5,54.7,54.7
					S342.4,365.4,312.3,365.4z M201.3,270.1c-22.4,0-40.7,18.2-40.7,40.7s18.2,40.7,40.7,40.7h111c22.4,0,40.7-18.2,40.7-40.7
					s-18.2-40.7-40.7-40.7H201.3z"/>
			</g>
		</g>
	</g>
	<g>
		<g>
			<g>
				<rect x="216.9" y="188.2" class="st4" width="78.3" height="170.2"/>
			</g>
		</g>
	</g>
	<g>
		<g>
			<g>
				<rect x="216.9" y="266" class="st1" width="78.3" height="92.4"/>
			</g>
		</g>
	</g>
	<g>
		<g>
			<g>
				<path class="st5" d="M295.1,365.4h-78.3c-3.9,0-7-3.1-7-7V188.2c0-3.9,3.1-7,7-7h78.3c3.9,0,7,3.1,7,7v170.2
					C302.1,362.3,299,365.4,295.1,365.4z M223.9,351.4h64.3V195.2h-64.3V351.4z"/>
			</g>
		</g>
	</g>
	<g>
		<g>
			<g>
				<rect x="238" y="214" class="st0" width="36" height="14"/>
			</g>
		</g>
	</g>
</g>
</svg>
