<?xml version="1.0" encoding="utf-8"?>
<!-- Generator: Adobe Illustrator 22.1.0, SVG Export Plug-In . SVG Version: 6.00 Build 0)  -->
<svg version="1.1" id="Layer_1" xmlns="http://www.w3.org/2000/svg" xmlns:xlink="http://www.w3.org/1999/xlink" x="0px" y="0px"
	 viewBox="0 0 256 256" style="enable-background:new 0 0 256 256;" xml:space="preserve">
<style type="text/css">
	.st0{fill:#F5B31F;}
	.st1{fill:none;stroke:#464646;stroke-width:8;stroke-linecap:round;stroke-linejoin:round;stroke-miterlimit:10;}
	.st2{opacity:0.15;fill:#464646;}
	.st3{fill:#AC6535;}
	.st4{fill:#EB573B;}
	.st5{fill:#90C056;}
	.st6{opacity:0.35;fill:#FFFFFF;}
	.st7{opacity:0.2;fill:#FFFFFF;}
	.st8{fill:#F6D67A;}
	.st9{opacity:0.15;fill:#FFFFFF;}
	.st10{opacity:0.3;fill:#FFFFFF;}
	.st11{fill:#AC6535;stroke:#464646;stroke-width:8;stroke-linecap:round;stroke-linejoin:round;stroke-miterlimit:10;}
	.st12{fill:#EB573B;stroke:#464646;stroke-width:8;stroke-miterlimit:10;}
	.st13{opacity:0.15;}
	.st14{fill:#464646;}
	.st15{fill:#FFA755;}
	.st16{fill:#8FAE3C;}
	.st17{fill:#BE6BB2;}
	.st18{fill:#B7C536;}
	.st19{opacity:0.1;}
	.st20{fill:#9D5A96;}
	.st21{fill:#EA615D;}
	.st22{opacity:0.4;fill:#FFFFFF;}
	.st23{opacity:7.000000e-02;}
	.st24{fill:#F79932;}
	.st25{fill:#FFEC97;}
	.st26{fill:#FFD11D;}
	.st27{opacity:0.2;}
	.st28{fill:#FFFFFF;}
	.st29{fill:#F7F2D5;}
	.st30{fill:#F6AF72;}
	.st31{fill:#BA6C45;}
	.st32{opacity:0.5;fill:#FFFFFF;}
	.st33{fill:#E4C074;}
	.st34{fill:none;stroke:#656566;stroke-width:8;stroke-linecap:round;stroke-linejoin:round;stroke-miterlimit:10;}
	.st35{fill:#FFA755;stroke:#464646;stroke-width:8;stroke-linecap:round;stroke-linejoin:round;stroke-miterlimit:10;}
	.st36{fill:#FFD11D;stroke:#464646;stroke-width:8;stroke-linecap:round;stroke-linejoin:round;stroke-miterlimit:10;}
	.st37{fill:#FACD1F;}
	.st38{fill:#FFDF66;}
	.st39{fill:#FFEC97;stroke:#464646;stroke-width:8;stroke-linecap:round;stroke-linejoin:round;stroke-miterlimit:10;}
	.st40{fill:#FFDF66;stroke:#464646;stroke-width:8;stroke-linecap:round;stroke-linejoin:round;stroke-miterlimit:10;}
	.st41{opacity:0.2;fill:#464646;}
	.st42{fill:#FFFFFF;stroke:#464646;stroke-width:8;stroke-linecap:round;stroke-linejoin:round;stroke-miterlimit:10;}
	.st43{fill:#6D6E71;stroke:#464646;stroke-width:8;stroke-linecap:round;stroke-linejoin:round;stroke-miterlimit:10;}
	.st44{opacity:0.1;fill:#464646;}
	.st45{fill:#E77CAE;}
	.st46{fill:#FFE5C4;}
	.st47{fill:#F68455;stroke:#464646;stroke-width:8;stroke-linecap:round;stroke-linejoin:round;stroke-miterlimit:10;}
	.st48{opacity:0.7;}
	.st49{fill:#ADEDFF;}
	.st50{fill:#EC754B;}
	.st51{fill:#4AA5BA;}
	.st52{opacity:0.5;}
	.st53{opacity:0.8;}
	.st54{fill:#F68455;}
	.st55{fill:#92A5AC;}
	.st56{fill:#6D6E71;}
	.st57{fill:#D06E3C;}
	.st58{fill:#DA4F4B;}
	.st59{fill:#BDF3FF;}
	.st60{fill:#F18BB4;}
	.st61{fill:#F9D97A;}
	.st62{fill:none;}
	.st63{fill:#AF6535;}
	.st64{fill:#B93226;}
	.st65{fill:#FF6050;}
	.st66{fill:#D06E3C;stroke:#464646;stroke-miterlimit:10;}
	.st67{fill:#EA7CB1;}
	.st68{fill:none;stroke:#6D6E71;stroke-width:10;stroke-linecap:round;stroke-linejoin:round;stroke-miterlimit:10;}
	.st69{fill:#00B0E0;}
	.st70{fill:#EA7DAE;}
	.st71{opacity:0.1;fill:#FFFFFF;}
	.st72{fill:#BC7532;}
	.st73{fill:#876C6C;}
	.st74{fill:#F9F6CD;}
	.st75{fill:#FFE37B;}
	.st76{fill:#1DDCFF;}
	.st77{fill:#60ACF7;}
	.st78{fill:#C3755A;}
	.st79{fill:#96557A;}
	.st80{fill:#66625D;}
	.st81{fill:#D68032;}
	.st82{opacity:0.8;fill:#FFFFFF;}
	.st83{fill:#F2A355;}
	.st84{fill:#7E9E6A;}
	.st85{opacity:0.3;}
	.st86{fill:#965A85;}
	.st87{opacity:0.7;fill:#FFFFFF;}
	.st88{fill:#90CAD3;}
	.st89{fill:#94B57F;}
	.st90{fill:#B2E2E7;}
	.st91{fill:#FFDF8F;}
	.st92{fill:#FFFAEB;}
	.st93{fill:#F88916;}
	.st94{fill:#FFC86E;}
	.st95{fill:#AFA51D;}
	.st96{fill:#968A1C;}
	.st97{fill:#C3556D;}
</style>
<g>
	<g>
		<path class="st50" d="M220.2,105.1c0,2.2-0.3,4.4-0.9,6.4c-6.9,2.7-12.2,8.5-14.2,15.8c-2.4,0.9-4.9,1.5-7.5,1.6
			c-0.9-12.4-11.2-22.1-23.8-22.1c-0.4,0-0.9,0-1.3,0c-0.1-0.6-0.1-1.1-0.1-1.7c0-3,0.5-5.8,1.5-8.4c0,0,0,0,0,0
			c0.5-1.2,1-2.4,1.7-3.6v0c4.1-7.1,11.9-11.9,20.7-11.9C209.5,81.3,220.2,92,220.2,105.1z"/>
	</g>
	<g class="st53">
		<path class="st28" d="M182.6,107.2c-1.1,0-2-0.9-2-2c0-8.7,7.1-15.7,15.7-15.7c1.1,0,2,0.9,2,2c0,1.1-0.9,2-2,2
			c-6.4,0-11.7,5.2-11.7,11.7C184.6,106.3,183.7,107.2,182.6,107.2z"/>
	</g>
	<g>
		<path class="st50" d="M252.1,133.7c0,13.2-10.7,23.9-23.9,23.9c-1.1,0-2.2-0.1-3.3-0.2c-1.1-10.9-9.6-19.6-20.5-21.1
			c-0.1-0.8-0.1-1.7-0.1-2.5c0-2.2,0.3-4.4,0.9-6.4c2-7.2,7.3-13,14.2-15.8c2.7-1.1,5.7-1.7,8.8-1.7
			C241.4,109.9,252.1,120.6,252.1,133.7z"/>
	</g>
	<g class="st53">
		<path class="st28" d="M214.5,135.8c-1.1,0-2-0.9-2-2c0-8.7,7.1-15.7,15.7-15.7c1.1,0,2,0.9,2,2c0,1.1-0.9,2-2,2
			c-6.4,0-11.7,5.2-11.7,11.7C216.5,134.9,215.6,135.8,214.5,135.8z"/>
	</g>
	<g>
		<path class="st50" d="M225,159.9c0,13.2-10.7,23.9-23.9,23.9c-13.2,0-23.9-10.7-23.9-23.9c0-2,0.2-3.9,0.7-5.7
			c9.4-1.6,16.9-8.7,19.2-17.8c1.3-0.2,2.7-0.4,4.1-0.4c1.1,0,2.2,0.1,3.3,0.2c10.8,1.5,19.3,10.2,20.5,21.1
			C224.9,158.2,225,159,225,159.9z"/>
	</g>
	<g class="st53">
		<path class="st28" d="M187.4,161.9c-1.1,0-2-0.9-2-2c0-8.7,7.1-15.7,15.7-15.7c1.1,0,2,0.9,2,2s-0.9,2-2,2
			c-6.4,0-11.7,5.2-11.7,11.7C189.4,161,188.5,161.9,187.4,161.9z"/>
	</g>
	<g>
		<path class="st50" d="M129.4,180.9c-3.7,8.4-12.1,14.2-21.9,14.2c-12.6,0-22.9-9.7-23.8-22.1v0c0-0.6-0.1-1.2-0.1-1.8
			c0-4.9,1.5-9.4,4-13.2v0c2.5-3.7,6-6.8,10.2-8.6c3-0.1,5.9-0.9,8.5-2c0.4,0,0.8,0,1.2,0c8.7,0,16.3,4.6,20.5,11.5
			c-1.3,2.9-2,6.2-2,9.6C125.9,173.1,127.2,177.3,129.4,180.9z"/>
	</g>
	<g>
		<path class="st50" d="M87.6,158.1c-2.5,3.8-4,8.3-4,13.2c0,0.6,0,1.2,0.1,1.8v0c-4.3,6.4-11.6,10.7-19.9,10.7
			c-10.9,0-20.2-7.3-23-17.3c-0.6-2.1-0.9-4.3-0.9-6.5c0-8.5,4.5-16,11.2-20.2c3.7-2.3,8-3.7,12.7-3.7c5.3,0,10.3,1.8,14.2,4.7
			c0,0,0,0,0,0c1.6,1.2,3.1,2.6,4.3,4.1c0,0,0,0,0,0C85.3,148.5,87.2,153.1,87.6,158.1L87.6,158.1z"/>
	</g>
	<g>
		<path class="st50" d="M39.8,159.9c0,2.3,0.3,4.5,0.9,6.5c-3.7,2.3-8,3.7-12.7,3.7c-13.2,0-23.9-10.7-23.9-23.9
			c0-13.2,10.7-23.9,23.9-23.9c10.9,0,20.2,7.3,23,17.3C44.3,143.9,39.8,151.4,39.8,159.9z"/>
	</g>
	<g>
		<path class="st50" d="M72.6,125.7c0,0.6,0,1.2,0.1,1.8c-4.1,3.1-9.1,5-14.7,5c-13.2,0-23.9-10.7-23.9-23.9
			c0-13.2,10.7-23.9,23.9-23.9c12.6,0,22.9,9.7,23.8,22C76.2,111.2,72.6,118,72.6,125.7z"/>
	</g>
	<g>
		<path class="st50" d="M117,138c-2.5,4.2-6.2,7.5-10.7,9.5c-2.6,1.2-5.5,1.9-8.5,2c-0.4,0-0.8,0-1.2,0c-5.3,0-10.2-1.7-14.2-4.7
			c0,0,0,0,0,0c-1.3-1.6-2.7-2.9-4.3-4.1c0,0,0,0,0,0c-3-3.7-4.9-8.2-5.3-13.2c-0.1-0.6-0.1-1.2-0.1-1.8c0-7.7,3.6-14.5,9.3-18.9
			c1.4-1.1,2.8-2,4.4-2.7c3.1-1.5,6.6-2.3,10.2-2.3c7,0,13.4,3,17.8,7.9c0.5,0.5,0.9,1,1.3,1.6c-2.2,3.6-3.4,7.8-3.4,12.3
			C112.1,129,114,134,117,138z"/>
	</g>
	<g>
		<path class="st50" d="M128,88.1c0,6.9-3,13.2-7.7,17.5c-0.1,0.1-0.3,0.3-0.4,0.4c-1.7,1.5-3.5,2.7-5.6,3.6
			c-4.4-4.8-10.7-7.9-17.8-7.9c-3.7,0-7.1,0.8-10.2,2.3c-3.8-4.2-6.2-9.8-6.2-16c0-13.2,10.7-23.9,23.9-23.9
			C117.3,64.2,128,74.9,128,88.1z"/>
	</g>
	<g>
		<path class="st50" d="M177.2,84.8c0,3-0.5,5.8-1.5,8.4v0c-0.5,1.2-1,2.4-1.7,3.6c0,0,0,0,0,0c-3.9,6.7-11,11.4-19.2,11.8
			c-4.4-5.4-11.1-8.9-18.6-8.9c-0.5,0-1,0-1.4,0.1c-3.3-4.1-5.3-9.3-5.3-15c0-13.2,10.7-23.9,23.9-23.9
			C166.5,60.9,177.2,71.6,177.2,84.8z"/>
	</g>
	<g>
		<path class="st50" d="M149.9,130.7c0,3.7,0.9,7.3,2.4,10.4c-1.7,1.5-3.5,2.8-5.6,3.8c0,0,0,0,0,0c-2.6,0.3-5.2,1.1-7.5,2.3
			c0,0,0,0,0,0c-1,0.1-2.1,0.2-3.2,0.2c-7.8,0-14.7-3.7-19.1-9.5c-3.1-4-4.9-9-4.9-14.4c0-4.5,1.2-8.7,3.4-12.3
			c1.2-1.9,2.6-3.7,4.3-5.2c0.2-0.1,0.3-0.3,0.4-0.4c3.9-3.4,8.9-5.6,14.3-5.9c0.5,0,1-0.1,1.4-0.1c7.5,0,14.2,3.5,18.6,8.9
			c1.1,1.4,2.1,2.9,2.9,4.5C152.8,117.5,149.9,123.8,149.9,130.7z"/>
	</g>
	<g>
		<path class="st50" d="M197.7,130.7c0,2-0.2,3.9-0.7,5.7c-2.2,9.2-9.8,16.2-19.2,17.8c-1.3,0.2-2.7,0.4-4.1,0.4
			c-1.7,0-3.4-0.2-5-0.5c-3.4-4.4-8.3-7.6-14-8.8c-1-1.3-1.9-2.7-2.6-4.1c-1.5-3.1-2.4-6.7-2.4-10.4c0-6.9,3-13.2,7.7-17.6
			c4-3.6,9.2-6,14.9-6.3c0.4,0,0.9,0,1.3,0c12.6,0,23,9.8,23.8,22.1C197.7,129.5,197.7,130.1,197.7,130.7z"/>
	</g>
	<g>
		<path class="st50" d="M173.8,168.6c0,13.2-10.7,23.9-23.9,23.9c-8.7,0-16.3-4.6-20.5-11.5c-2.2-3.6-3.4-7.8-3.4-12.3
			c0-3.4,0.7-6.7,2-9.6c2.3-5.1,6.3-9.3,11.3-11.7c0,0,0,0,0,0c2.3-1.1,4.8-1.9,7.5-2.3c0,0,0,0,0,0c1-0.1,2.1-0.2,3.1-0.2
			c1.7,0,3.4,0.2,5,0.5c5.7,1.2,10.6,4.4,14,8.8C171.9,158.1,173.8,163.1,173.8,168.6z"/>
	</g>
	<g class="st53">
		<path class="st28" d="M93.8,173.3c-1.1,0-2-0.9-2-2c0-8.7,7.1-15.7,15.7-15.7c1.1,0,2,0.9,2,2c0,1.1-0.9,2-2,2
			c-6.4,0-11.7,5.2-11.7,11.7C95.8,172.4,94.9,173.3,93.8,173.3z"/>
	</g>
	<g class="st53">
		<path class="st28" d="M50,161.9c-1.1,0-2-0.9-2-2c0-8.7,7.1-15.7,15.7-15.7c1.1,0,2,0.9,2,2c0,1.1-0.9,2-2,2
			c-6.4,0-11.7,5.2-11.7,11.7C52,161,51.1,161.9,50,161.9z"/>
	</g>
	<g class="st53">
		<path class="st28" d="M14.3,148.2c-1.1,0-2-0.9-2-2c0-8.7,7.1-15.7,15.7-15.7c1.1,0,2,0.9,2,2c0,1.1-0.9,2-2,2
			c-6.4,0-11.7,5.2-11.7,11.7C16.3,147.3,15.4,148.2,14.3,148.2z"/>
	</g>
	<g class="st53">
		<path class="st28" d="M44.3,110.7c-1.1,0-2-0.9-2-2c0-8.7,7.1-15.7,15.7-15.7c1.1,0,2,0.9,2,2c0,1.1-0.9,2-2,2
			c-6.4,0-11.7,5.2-11.7,11.7C46.3,109.8,45.4,110.7,44.3,110.7z"/>
	</g>
	<g class="st53">
		<path class="st28" d="M82.8,127.7c-1.1,0-2-0.9-2-2c0-8.7,7.1-15.7,15.7-15.7c1.1,0,2,0.9,2,2c0,1.1-0.9,2-2,2
			c-6.4,0-11.7,5.2-11.7,11.7C84.8,126.8,83.9,127.7,82.8,127.7z"/>
	</g>
	<g class="st53">
		<path class="st28" d="M90.3,90.1c-1.1,0-2-0.9-2-2c0-8.7,7.1-15.7,15.7-15.7c1.1,0,2,0.9,2,2c0,1.1-0.9,2-2,2
			c-6.4,0-11.7,5.2-11.7,11.7C92.4,89.2,91.4,90.1,90.3,90.1z"/>
	</g>
	<g class="st53">
		<path class="st28" d="M139.5,86.8c-1.1,0-2-0.9-2-2c0-8.7,7.1-15.7,15.7-15.7c1.1,0,2,0.9,2,2c0,1.1-0.9,2-2,2
			c-6.4,0-11.7,5.2-11.7,11.7C141.6,85.9,140.6,86.8,139.5,86.8z"/>
	</g>
	<g class="st53">
		<path class="st28" d="M122.3,125.6c-1.1,0-2-0.9-2-2c0-8.7,7.1-15.7,15.7-15.7c1.1,0,2,0.9,2,2c0,1.1-0.9,2-2,2
			c-6.4,0-11.7,5.2-11.7,11.7C124.4,124.7,123.5,125.6,122.3,125.6z"/>
	</g>
	<g class="st53">
		<path class="st28" d="M160.1,132.7c-1.1,0-2-0.9-2-2c0-8.7,7.1-15.7,15.7-15.7c1.1,0,2,0.9,2,2c0,1.1-0.9,2-2,2
			c-6.4,0-11.7,5.2-11.7,11.7C162.1,131.8,161.2,132.7,160.1,132.7z"/>
	</g>
	<g class="st53">
		<path class="st28" d="M136.1,170.6c-1.1,0-2-0.9-2-2c0-8.7,7.1-15.7,15.7-15.7c1.1,0,2,0.9,2,2c0,1.1-0.9,2-2,2
			c-6.4,0-11.7,5.2-11.7,11.7C138.2,169.7,137.3,170.6,136.1,170.6z"/>
	</g>
	<g>
		<g>
			<path class="st1" d="M220.2,105.1c0,2.2-0.3,4.4-0.9,6.4c-6.9,2.7-12.2,8.5-14.2,15.8c-2.4,0.9-4.9,1.5-7.5,1.6
				c-0.9-12.4-11.2-22.1-23.8-22.1c-0.4,0-0.9,0-1.3,0c-0.1-0.6-0.1-1.1-0.1-1.7c0-3,0.5-5.8,1.5-8.4c0,0,0,0,0,0
				c0.5-1.2,1-2.4,1.7-3.6v0c4.1-7.1,11.9-11.9,20.7-11.9C209.5,81.3,220.2,92,220.2,105.1z"/>
		</g>
		<g>
			<path class="st1" d="M252.1,133.7c0,13.2-10.7,23.9-23.9,23.9c-1.1,0-2.2-0.1-3.3-0.2c-1.1-10.9-9.6-19.6-20.5-21.1
				c-0.1-0.8-0.1-1.7-0.1-2.5c0-2.2,0.3-4.4,0.9-6.4c2-7.2,7.3-13,14.2-15.8c2.7-1.1,5.7-1.7,8.8-1.7
				C241.4,109.9,252.1,120.6,252.1,133.7z"/>
		</g>
		<g>
			<path class="st1" d="M225,159.9c0,13.2-10.7,23.9-23.9,23.9c-13.2,0-23.9-10.7-23.9-23.9c0-2,0.2-3.9,0.7-5.7
				c9.4-1.6,16.9-8.7,19.2-17.8c1.3-0.2,2.7-0.4,4.1-0.4c1.1,0,2.2,0.1,3.3,0.2c10.8,1.5,19.3,10.2,20.5,21.1
				C224.9,158.2,225,159,225,159.9z"/>
		</g>
		<g>
			<path class="st1" d="M129.4,180.9c-3.7,8.4-12.1,14.2-21.9,14.2c-12.6,0-22.9-9.7-23.8-22.1v0c0-0.6-0.1-1.2-0.1-1.8
				c0-4.9,1.5-9.4,4-13.2v0c2.5-3.7,6-6.8,10.2-8.6c3-0.1,5.9-0.9,8.5-2c0.4,0,0.8,0,1.2,0c8.7,0,16.3,4.6,20.5,11.5
				c-1.3,2.9-2,6.2-2,9.6C125.9,173.1,127.2,177.3,129.4,180.9z"/>
		</g>
		<g>
			<path class="st1" d="M87.6,158.1c-2.5,3.8-4,8.3-4,13.2c0,0.6,0,1.2,0.1,1.8v0c-4.3,6.4-11.6,10.7-19.9,10.7
				c-10.9,0-20.2-7.3-23-17.3c-0.6-2.1-0.9-4.3-0.9-6.5c0-8.5,4.5-16,11.2-20.2c3.7-2.3,8-3.7,12.7-3.7c5.3,0,10.3,1.8,14.2,4.7
				c0,0,0,0,0,0c1.6,1.2,3.1,2.6,4.3,4.1c0,0,0,0,0,0C85.3,148.5,87.2,153.1,87.6,158.1L87.6,158.1z"/>
		</g>
		<g>
			<path class="st1" d="M39.8,159.9c0,2.3,0.3,4.5,0.9,6.5c-3.7,2.3-8,3.7-12.7,3.7c-13.2,0-23.9-10.7-23.9-23.9
				c0-13.2,10.7-23.9,23.9-23.9c10.9,0,20.2,7.3,23,17.3C44.3,143.9,39.8,151.4,39.8,159.9z"/>
		</g>
		<g>
			<path class="st1" d="M72.6,125.7c0,0.6,0,1.2,0.1,1.8c-4.1,3.1-9.1,5-14.7,5c-13.2,0-23.9-10.7-23.9-23.9
				c0-13.2,10.7-23.9,23.9-23.9c12.6,0,22.9,9.7,23.8,22C76.2,111.2,72.6,118,72.6,125.7z"/>
		</g>
		<g>
			<path class="st1" d="M117,138c-2.5,4.2-6.2,7.5-10.7,9.5c-2.6,1.2-5.5,1.9-8.5,2c-0.4,0-0.8,0-1.2,0c-5.3,0-10.2-1.7-14.2-4.7
				c0,0,0,0,0,0c-1.3-1.6-2.7-2.9-4.3-4.1c0,0,0,0,0,0c-3-3.7-4.9-8.2-5.3-13.2c-0.1-0.6-0.1-1.2-0.1-1.8c0-7.7,3.6-14.5,9.3-18.9
				c1.4-1.1,2.8-2,4.4-2.7c3.1-1.5,6.6-2.3,10.2-2.3c7,0,13.4,3,17.8,7.9c0.5,0.5,0.9,1,1.3,1.6c-2.2,3.6-3.4,7.8-3.4,12.3
				C112.1,129,114,134,117,138z"/>
		</g>
		<g>
			<path class="st1" d="M128,88.1c0,6.9-3,13.2-7.7,17.5c-0.1,0.1-0.3,0.3-0.4,0.4c-1.7,1.5-3.5,2.7-5.6,3.6
				c-4.4-4.8-10.7-7.9-17.8-7.9c-3.7,0-7.1,0.8-10.2,2.3c-3.8-4.2-6.2-9.8-6.2-16c0-13.2,10.7-23.9,23.9-23.9
				C117.3,64.2,128,74.9,128,88.1z"/>
		</g>
		<g>
			<path class="st1" d="M177.2,84.8c0,3-0.5,5.8-1.5,8.4v0c-0.5,1.2-1,2.4-1.7,3.6c0,0,0,0,0,0c-3.9,6.7-11,11.4-19.2,11.8
				c-4.4-5.4-11.1-8.9-18.6-8.9c-0.5,0-1,0-1.4,0.1c-3.3-4.1-5.3-9.3-5.3-15c0-13.2,10.7-23.9,23.9-23.9
				C166.5,60.9,177.2,71.6,177.2,84.8z"/>
		</g>
		<g>
			<path class="st1" d="M149.9,130.7c0,3.7,0.9,7.3,2.4,10.4c-1.7,1.5-3.5,2.8-5.6,3.8c0,0,0,0,0,0c-2.6,0.3-5.2,1.1-7.5,2.3
				c0,0,0,0,0,0c-1,0.1-2.1,0.2-3.2,0.2c-7.8,0-14.7-3.7-19.1-9.5c-3.1-4-4.9-9-4.9-14.4c0-4.5,1.2-8.7,3.4-12.3
				c1.2-1.9,2.6-3.7,4.3-5.2c0.2-0.1,0.3-0.3,0.4-0.4c3.9-3.4,8.9-5.6,14.3-5.9c0.5,0,1-0.1,1.4-0.1c7.5,0,14.2,3.5,18.6,8.9
				c1.1,1.4,2.1,2.9,2.9,4.5C152.8,117.5,149.9,123.8,149.9,130.7z"/>
		</g>
		<g>
			<path class="st1" d="M197.7,130.7c0,2-0.2,3.9-0.7,5.7c-2.2,9.2-9.8,16.2-19.2,17.8c-1.3,0.2-2.7,0.4-4.1,0.4
				c-1.7,0-3.4-0.2-5-0.5c-3.4-4.4-8.3-7.6-14-8.8c-1-1.3-1.9-2.7-2.6-4.1c-1.5-3.1-2.4-6.7-2.4-10.4c0-6.9,3-13.2,7.7-17.6
				c4-3.6,9.2-6,14.9-6.3c0.4,0,0.9,0,1.3,0c12.6,0,23,9.8,23.8,22.1C197.7,129.5,197.7,130.1,197.7,130.7z"/>
		</g>
		<g>
			<path class="st1" d="M173.8,168.6c0,13.2-10.7,23.9-23.9,23.9c-8.7,0-16.3-4.6-20.5-11.5c-2.2-3.6-3.4-7.8-3.4-12.3
				c0-3.4,0.7-6.7,2-9.6c2.3-5.1,6.3-9.3,11.3-11.7c0,0,0,0,0,0c2.3-1.1,4.8-1.9,7.5-2.3c0,0,0,0,0,0c1-0.1,2.1-0.2,3.1-0.2
				c1.7,0,3.4,0.2,5,0.5c5.7,1.2,10.6,4.4,14,8.8C171.9,158.1,173.8,163.1,173.8,168.6z"/>
		</g>
	</g>
</g>
</svg>
