<?xml version="1.0" encoding="utf-8"?>
<!-- Generator: Adobe Illustrator 22.1.0, SVG Export Plug-In . SVG Version: 6.00 Build 0)  -->
<svg version="1.1" id="Layer_1" xmlns="http://www.w3.org/2000/svg" xmlns:xlink="http://www.w3.org/1999/xlink" x="0px" y="0px"
	 viewBox="0 0 256 256" style="enable-background:new 0 0 256 256;" xml:space="preserve">
<style type="text/css">
	.st0{fill:#F5B31F;}
	.st1{fill:none;stroke:#464646;stroke-width:8;stroke-linecap:round;stroke-linejoin:round;stroke-miterlimit:10;}
	.st2{opacity:0.15;fill:#464646;}
	.st3{fill:#AC6535;}
	.st4{fill:#EB573B;}
	.st5{fill:#90C056;}
	.st6{opacity:0.35;fill:#FFFFFF;}
	.st7{opacity:0.2;fill:#FFFFFF;}
	.st8{fill:#F6D67A;}
	.st9{opacity:0.15;fill:#FFFFFF;}
	.st10{opacity:0.3;fill:#FFFFFF;}
	.st11{fill:#AC6535;stroke:#464646;stroke-width:8;stroke-linecap:round;stroke-linejoin:round;stroke-miterlimit:10;}
	.st12{fill:#EB573B;stroke:#464646;stroke-width:8;stroke-miterlimit:10;}
	.st13{opacity:0.15;}
	.st14{fill:#464646;}
	.st15{fill:#FFA755;}
	.st16{fill:#8FAE3C;}
	.st17{fill:#BE6BB2;}
	.st18{fill:#B7C536;}
	.st19{opacity:0.1;}
	.st20{fill:#9D5A96;}
	.st21{fill:#EA615D;}
	.st22{opacity:0.4;fill:#FFFFFF;}
	.st23{opacity:7.000000e-02;}
	.st24{fill:#F79932;}
	.st25{fill:#FFEC97;}
	.st26{fill:#FFD11D;}
	.st27{opacity:0.2;}
	.st28{fill:#FFFFFF;}
	.st29{fill:#F7F2D5;}
	.st30{fill:#F6AF72;}
	.st31{fill:#BA6C45;}
	.st32{opacity:0.5;fill:#FFFFFF;}
	.st33{fill:#E4C074;}
	.st34{fill:none;stroke:#656566;stroke-width:8;stroke-linecap:round;stroke-linejoin:round;stroke-miterlimit:10;}
	.st35{fill:#FFA755;stroke:#464646;stroke-width:8;stroke-linecap:round;stroke-linejoin:round;stroke-miterlimit:10;}
	.st36{fill:#FFD11D;stroke:#464646;stroke-width:8;stroke-linecap:round;stroke-linejoin:round;stroke-miterlimit:10;}
	.st37{fill:#FACD1F;}
	.st38{fill:#FFDF66;}
	.st39{fill:#FFEC97;stroke:#464646;stroke-width:8;stroke-linecap:round;stroke-linejoin:round;stroke-miterlimit:10;}
	.st40{fill:#FFDF66;stroke:#464646;stroke-width:8;stroke-linecap:round;stroke-linejoin:round;stroke-miterlimit:10;}
	.st41{opacity:0.2;fill:#464646;}
	.st42{fill:#FFFFFF;stroke:#464646;stroke-width:8;stroke-linecap:round;stroke-linejoin:round;stroke-miterlimit:10;}
	.st43{fill:#6D6E71;stroke:#464646;stroke-width:8;stroke-linecap:round;stroke-linejoin:round;stroke-miterlimit:10;}
	.st44{opacity:0.1;fill:#464646;}
	.st45{fill:#E77CAE;}
	.st46{fill:#FFE5C4;}
	.st47{fill:#F68455;stroke:#464646;stroke-width:8;stroke-linecap:round;stroke-linejoin:round;stroke-miterlimit:10;}
	.st48{opacity:0.7;}
	.st49{fill:#ADEDFF;}
	.st50{fill:#EC754B;}
	.st51{fill:#4AA5BA;}
	.st52{opacity:0.5;}
	.st53{opacity:0.8;}
	.st54{fill:#F68455;}
	.st55{fill:#92A5AC;}
	.st56{fill:#6D6E71;}
	.st57{fill:#D06E3C;}
	.st58{fill:#DA4F4B;}
	.st59{fill:#BDF3FF;}
	.st60{fill:#F18BB4;}
	.st61{fill:#F9D97A;}
	.st62{fill:none;}
	.st63{fill:#AF6535;}
	.st64{fill:#B93226;}
	.st65{fill:#FF6050;}
	.st66{fill:#D06E3C;stroke:#464646;stroke-miterlimit:10;}
	.st67{fill:#EA7CB1;}
	.st68{fill:none;stroke:#6D6E71;stroke-width:10;stroke-linecap:round;stroke-linejoin:round;stroke-miterlimit:10;}
	.st69{fill:#00B0E0;}
	.st70{fill:#EA7DAE;}
	.st71{opacity:0.1;fill:#FFFFFF;}
	.st72{fill:#BC7532;}
	.st73{fill:#876C6C;}
	.st74{fill:#F9F6CD;}
	.st75{fill:#FFE37B;}
	.st76{fill:#1DDCFF;}
	.st77{fill:#60ACF7;}
	.st78{fill:#C3755A;}
	.st79{fill:#96557A;}
	.st80{fill:#66625D;}
	.st81{fill:#D68032;}
	.st82{opacity:0.8;fill:#FFFFFF;}
	.st83{fill:#F2A355;}
	.st84{fill:#7E9E6A;}
	.st85{opacity:0.3;}
	.st86{fill:#965A85;}
	.st87{opacity:0.7;fill:#FFFFFF;}
	.st88{fill:#90CAD3;}
	.st89{fill:#94B57F;}
	.st90{fill:#B2E2E7;}
	.st91{fill:#FFDF8F;}
	.st92{fill:#FFFAEB;}
	.st93{fill:#F88916;}
	.st94{fill:#FFC86E;}
	.st95{fill:#AFA51D;}
	.st96{fill:#968A1C;}
	.st97{fill:#C3556D;}
</style>
<g>
	<path class="st8" d="M252,192.3c0,12.5-4.1,15.4-13.4,15.4l-31.8,0c8.6,0,12.7-2.5,13.3-12.6c20.1-4,17.8-24.9,6.5-52.5
		c1.8-3.1,2.8-5.7,1.8-7.2c-3.4-5.1-15.3-7.6-19.3-13.6c-2.1-3.2-0.5-9.1,0.7-14.6C241.2,137.7,252,184.1,252,192.3z"/>
	<path class="st2" d="M223.5,200.7c0.1-0.9,0-4.5,0-5.6c0-4.2-1.1-15.2-8.4-31.7c0,0,10.3-16.9,16-25.1
		C247.3,168.3,253.1,200,223.5,200.7z"/>
	<path class="st3" d="M220.1,195.1c0.1-0.9,0.1-1.8,0.1-2.8c0-3.9-2.5-16.6-8.5-32c0,0,10.3-10.1,14.9-17.7
		C237.9,170.2,240.2,191.2,220.1,195.1z"/>
	<path class="st1" d="M252,192.3c0,12.5-4.1,15.4-13.4,15.4l-31.8,0c8.6,0,12.7-2.5,13.3-12.6c20.1-4,17.8-24.9,6.5-52.5
		c1.8-3.1,2.8-5.7,1.8-7.2c-3.4-5.1-15.3-7.6-19.3-13.6c-2.1-3.2-0.5-9.1,0.7-14.6C241.2,137.7,252,184.1,252,192.3z"/>
	<path class="st1" d="M220.1,195.1c0.1-0.9,0.1-1.8,0.1-2.8c0-3.9-2.5-16.6-8.5-32c0,0,10.3-10.1,14.9-17.7
		C237.9,170.2,240.2,191.2,220.1,195.1z"/>
	<path class="st5" d="M226.6,142.6c-4.6,7.6-14.9,17.7-14.9,17.7c-11.7-30.2-37-71.2-83.6-79c-5-0.8-10.4-1.3-15.9-1.3
		c-50.3,0-79.3,36.5-94.3,68.1c-0.5-0.4-16-14.7-13.7-19.8c2.4-5.2,13.8-4.7,17.6-8.2c3.8-3.5-0.2-24,4.8-28c5-4,17.2,0.4,23.4-3.4
		c6.2-3.8,1.4-22.9,7.6-26.3s17.6,7.5,25.5,7.1c7.9-0.4,8.6-22.4,17.2-21.5s12.2,15.1,20,16.7c7.7,1.6,15-14.1,22.7-13.3
		c7.7,0.8,6.5,16.4,13.8,19.8c7.2,3.4,18.4-10.2,24.4-7.6c5.9,2.5,0.7,21,6.2,27.1h0c0.1,0.1,0.2,0.2,0.3,0.3c1.3,1.2,2.8,2,4.3,2.4
		c5.8,1.5,12.9-1.2,17,2.5c2.4,2.2,1.7,6.6,0.7,11.4c-1.2,5.5-2.8,11.4-0.7,14.6c4,5.9,15.8,8.5,19.3,13.6
		C229.4,136.9,228.5,139.5,226.6,142.6z"/>
	<path class="st1" d="M226.6,142.6c-4.6,7.6-14.9,17.7-14.9,17.7c-11.7-30.2-37-71.2-83.6-79c-5-0.8-10.4-1.3-15.9-1.3
		c-50.3,0-79.3,36.5-94.3,68.1c-0.5-0.4-16-14.7-13.7-19.8c2.4-5.2,13.8-4.7,17.6-8.2c3.8-3.5-0.2-24,4.8-28c5-4,17.2,0.4,23.4-3.4
		c6.2-3.8,1.4-22.9,7.6-26.3s17.6,7.5,25.5,7.1c7.9-0.4,8.6-22.4,17.2-21.5s12.2,15.1,20,16.7c7.7,1.6,15-14.1,22.7-13.3
		c7.7,0.8,6.5,16.4,13.8,19.8c7.2,3.4,18.4-10.2,24.4-7.6c5.9,2.5,0.7,21,6.2,27.1h0c0.1,0.1,0.2,0.2,0.3,0.3c1.3,1.2,2.8,2,4.3,2.4
		c5.8,1.5,12.9-1.2,17,2.5c2.4,2.2,1.7,6.6,0.7,11.4c-1.2,5.5-2.8,11.4-0.7,14.6c4,5.9,15.8,8.5,19.3,13.6
		C229.4,136.9,228.5,139.5,226.6,142.6z"/>
	<path class="st2" d="M232.1,188l-11.5-35.3c-12.8-30.2-40.2-71.2-91-79c-5.5-0.8-11.3-1.3-17.3-1.3c-54.8,0-86.3,36.5-102.6,68.1
		l10.2,6.7l199.1,47.9L232.1,188z"/>
	<path class="st8" d="M220.2,192.3c0,1,0,1.9-0.1,2.8c-0.6,10.2-4.8,12.6-13.3,12.6l-189.1,0c-9.3,0-13.4-2.9-13.4-15.5
		c0-4.9,3.9-23.5,13.7-44.1c15-31.6,44-68.1,94.3-68.1c5.6,0,10.9,0.5,15.9,1.3c46.6,7.7,71.9,48.7,83.6,79
		C217.7,175.7,220.2,188.4,220.2,192.3z"/>
	<path class="st6" d="M153.1,89.3c-7.5-3.7-15.8-6.5-24.9-8c-5-0.8-10.4-1.3-15.9-1.3c-50.3,0-79.3,36.5-94.3,68.1
		c-9.8,20.6-13.7,39.2-13.7,44.1c0,12.5,4.1,15.4,13.4,15.5C18.7,143.9,66.7,83.9,153.1,89.3z"/>
	<path class="st2" d="M211.7,160.3c6,15.5,8.5,28.1,8.5,32c0,1,0,1.9-0.1,2.8c-0.6,10.2-4.8,12.6-13.3,12.6l-189.1,0
		c0,0,170.4-5,183.9-16.9C215.1,179,211.7,160.3,211.7,160.3z"/>
	<path class="st8" d="M17.9,148.2C17.9,148.2,17.9,148.2,17.9,148.2"/>
	<path class="st1" d="M220.2,192.3c0,1,0,1.9-0.1,2.8c-0.6,10.2-4.8,12.6-13.3,12.6l-189.1,0c-9.3,0-13.4-2.9-13.4-15.5
		c0-4.9,3.9-23.5,13.7-44.1c15-31.6,44-68.1,94.3-68.1c5.6,0,10.9,0.5,15.9,1.3c46.6,7.7,71.9,48.7,83.6,79
		C217.7,175.7,220.2,188.4,220.2,192.3z"/>
	<path class="st1" d="M17.9,148.2C17.9,148.2,17.9,148.2,17.9,148.2"/>
	<path class="st1" d="M49.9,170.8c0,3.2-2.6,5.7-5.7,5.7c-3.2,0-5.7-2.6-5.7-5.7s2.6-5.7,5.7-5.7C47.3,165,49.9,167.6,49.9,170.8z"
		/>
	<path class="st1" d="M95.3,170.8c0,3.2-2.6,5.7-5.7,5.7c-3.2,0-5.7-2.6-5.7-5.8c0-3.2,2.6-5.7,5.7-5.7
		C92.7,165.1,95.3,167.6,95.3,170.8z"/>
	<path class="st1" d="M140.7,170.8c0,3.2-2.6,5.7-5.7,5.7c-3.2,0-5.7-2.6-5.7-5.7c0-1.1,0.3-2.2,0.9-3.1h0c1-1.6,2.8-2.6,4.8-2.6
		c2.6,0,4.8,1.7,5.5,4.1C140.6,169.7,140.7,170.3,140.7,170.8z"/>
	<path class="st1" d="M186.1,170.9c0,1.8-0.8,3.3-2,4.4h0c-1,0.9-2.3,1.4-3.7,1.4c-2,0-3.7-1-4.8-2.5c-0.6-0.9-1-2-1-3.2
		c0-3.2,2.6-5.7,5.7-5.7C183.5,165.1,186.1,167.7,186.1,170.9z"/>
	<path class="st1" d="M163.3,134.9c0,3.2-2.6,5.7-5.7,5.7c-3.2,0-5.7-2.6-5.7-5.7c0-3.2,2.6-5.7,5.7-5.7
		C160.8,129.1,163.3,131.7,163.3,134.9z"/>
	<path class="st1" d="M117.9,135.9c0,3.2-2.6,5.7-5.7,5.7c-3.2,0-5.7-2.6-5.7-5.8c0-3.2,2.6-5.7,5.7-5.7
		C115.4,130.1,117.9,132.7,117.9,135.9z"/>
	<ellipse class="st1" cx="66.8" cy="134.8" rx="5.7" ry="5.7"/>
</g>
</svg>
