<?xml version="1.0" encoding="utf-8"?>
<!-- Generator: Adobe Illustrator 16.0.0, SVG Export Plug-In . SVG Version: 6.00 Build 0)  -->
<!DOCTYPE svg PUBLIC "-//W3C//DTD SVG 1.1//EN" "http://www.w3.org/Graphics/SVG/1.1/DTD/svg11.dtd">
<svg version="1.1" id="Layer_1" xmlns="http://www.w3.org/2000/svg" xmlns:xlink="http://www.w3.org/1999/xlink" x="0px" y="0px"
	 width="512px" height="512px" viewBox="0 0 512 512" enable-background="new 0 0 512 512" xml:space="preserve">
<g id="_x32_0._taxi_x2C__car_x2C__transport_x2C___machine_x2C__movement_x2C__transportation_1_">
	<g>
		<g>
			<g>
				<path fill="#FFCE54" d="M228.077,184.017c-5.757-0.156-11.755-0.078-18.074,0.164l5.999-24.158h15.996l5.756,23.112
					l-0.078,1.125C234.56,184.095,231.357,184.017,228.077,184.017z"/>
			</g>
		</g>
		<g opacity="0.2">
			<g>
				<g>
					<path d="M231.998,160.022H224l5.756,23.112l-0.062,0.921c2.703,0.023,5.389,0.07,7.983,0.203l0.078-1.125L231.998,160.022z"/>
				</g>
			</g>
		</g>
		<g opacity="0.5">
			<g>
				<g>
					<path fill="#FFFFFF" d="M224,160.022h-7.998l-5.999,24.158c2.75-0.102,5.413-0.164,8.045-0.203L224,160.022z"/>
				</g>
			</g>
		</g>
		<g>
			<g>
				<path fill="#5D9CEC" d="M379.963,232.006H235.997v-7.998l-7.998-33.75l0.078-6.241c3.28,0,6.483,0.078,9.6,0.242
					c26.313,1.117,45.825,4.874,54.308,7.756C331.576,205.215,379.963,232.006,379.963,232.006z"/>
			</g>
		</g>
		<g>
			<g>
				<path fill="#5D9CEC" d="M130.983,200.81l-1.359-4.717c28.79-7.756,56.307-11.115,80.379-11.912
					c6.319-0.242,12.317-0.32,18.074-0.164l-0.078,6.241l7.998,33.75v7.998H100.029C106.988,219.446,126.265,204.411,130.983,200.81
					z"/>
			</g>
		</g>
		<g>
			<g>
				<polygon fill="#ED5565" points="16.049,248.002 51.962,248.08 36.044,263.998 12.05,263.998 				"/>
			</g>
		</g>
		<g>
			<g>
				<rect x="164.014" y="263.998" fill="#656D78" width="15.996" height="15.996"/>
			</g>
		</g>
		<g>
			<g>
				<rect x="180.01" y="279.994" fill="#656D78" width="15.997" height="15.996"/>
			</g>
		</g>
		<g>
			<g>
				<rect x="196.007" y="263.998" fill="#656D78" width="15.996" height="15.996"/>
			</g>
		</g>
		<g>
			<g>
				<rect x="212.003" y="279.994" fill="#656D78" width="15.996" height="15.996"/>
			</g>
		</g>
		<g>
			<g>
				<rect x="227.999" y="263.998" fill="#656D78" width="15.996" height="15.996"/>
			</g>
		</g>
		<g>
			<g>
				<rect x="243.995" y="279.994" fill="#656D78" width="15.996" height="15.996"/>
			</g>
		</g>
		<g>
			<g>
				<rect x="259.991" y="263.998" fill="#656D78" width="15.996" height="15.996"/>
			</g>
		</g>
		<g>
			<g>
				<rect x="275.987" y="279.994" fill="#656D78" width="15.997" height="15.996"/>
			</g>
		</g>
		<g>
			<g>
				<rect x="291.984" y="263.998" fill="#656D78" width="15.996" height="15.996"/>
			</g>
		</g>
		<g>
			<g>
				<rect x="307.98" y="279.994" fill="#656D78" width="15.996" height="15.996"/>
			</g>
		</g>
		<g>
			<g>
				<rect x="323.977" y="263.998" fill="#656D78" width="15.996" height="15.996"/>
			</g>
		</g>
		<g>
			<g>
				<path fill="#E6E9ED" d="M483.938,256c6.795,2.242,11.599,8.318,15.113,15.996H475.94l-23.994-23.994l0.078-0.477
					C465.061,250.563,476.823,253.602,483.938,256z"/>
			</g>
		</g>
		<g>
			<g>
				<path fill="#FFCE54" d="M196.007,263.998v15.996H180.01v-15.996h-15.996v15.996h15.996v15.996h15.997v-15.996h15.996v15.996
					h15.996v-15.996h15.996v15.996h15.996v-15.996h15.996v15.996h15.997v-15.996h15.996v15.996h15.996v-15.996h15.996v-15.996
					h-15.996v15.996H307.98v-15.996h-15.996v15.996h-15.997v-15.996h-15.996v15.996h-15.996v-15.996h-15.996v15.996h-15.996v-15.996
					H196.007z M51.962,248.08l-35.914-0.078l3.999-15.996l31.993-3.999c25.83-14.958,52.23-25.111,77.583-31.915l1.359,4.717
					c-4.718,3.601-23.995,18.637-30.954,31.196h135.968h143.966c0,0,40.068,7.92,72.062,15.52l-0.078,0.477l23.994,23.994h23.111
					c5.679,12.396,7.679,28.954,8.396,39.99c0.484,6.397,0.484,10.959,0.484,11.998c0,3.998-47.988,3.998-47.988,3.998h-10.076
					c1.359-3.756,2.078-7.756,2.078-11.996c0-19.918-16.074-35.992-35.991-35.992c-19.84,0-35.992,16.074-35.992,35.992
					c0,4.24,0.719,8.24,2.078,11.996H137.942c1.359-3.756,2.077-7.756,2.077-11.996c0-19.918-16.074-35.992-35.991-35.992
					c-19.839,0-35.991,16.074-35.991,35.992c0,4.24,0.718,8.24,2.077,11.996H60.039c0,0-39.991,0-47.989-3.998
					c-7.998-4-7.998-43.99-7.998-43.99l7.998-15.996h23.995L51.962,248.08z"/>
			</g>
		</g>
		<g opacity="0.2">
			<g>
				<g>
					<path d="M507.448,311.986c-0.718-11.036-2.718-27.595-8.396-39.99c-3.515-7.678-8.318-13.754-15.113-15.996
						c-7.115-2.398-18.878-5.437-31.914-8.475c-31.993-7.6-72.062-15.52-72.062-15.52h-26.205c0,0,110.607,23.611,117.723,26.01
						c6.795,2.241,16.059,6.303,19.573,13.98c5.679,12.396,7.679,28.954,8.396,39.99c0.484,6.397,0.484,10.959,0.484,11.998
						c0,3.998-47.988,3.998-47.988,3.998h7.998c0,0,47.988,0,47.988-3.998C507.933,322.945,507.933,318.384,507.448,311.986z"/>
				</g>
			</g>
		</g>
		<g opacity="0.5">
			<g>
				<g>
					<path fill="#FFFFFF" d="M12.05,279.994l7.998-15.996l3.999-15.996l2.492-9.951l29.048-4.069
						c23.354-13.52,52.308-26.431,75.396-33.172l-1.359-4.717c-25.354,6.803-51.754,16.957-77.583,31.915l-31.993,3.999
						l-3.999,15.996l-3.999,15.996l-7.998,15.996c0,0,0,39.99,7.998,43.99c7.998,3.998,47.989,3.998,47.989,3.998h7.998
						c0,0-39.991,0-47.989-3.998C12.05,319.984,12.05,279.994,12.05,279.994z"/>
				</g>
			</g>
		</g>
		<g opacity="0.3">
			<g>
				<path fill="#FFFFFF" d="M261.882,232.006h16.566l10.927-40.779c-3.843-1.109-9.131-2.289-15.668-3.375L261.882,232.006z"/>
			</g>
		</g>
		<g opacity="0.3">
			<g>
				<path fill="#FFFFFF" d="M282.58,232.006h4.147l10.247-38.249c-1.266-0.445-2.538-0.898-3.788-1.32L282.58,232.006z"/>
			</g>
		</g>
		<g opacity="0.3">
			<g>
				<path fill="#FFFFFF" d="M189.352,185.517c-5.584,0.5-11.263,1.117-17.089,1.937l-11.935,44.552h16.566L189.352,185.517z"/>
			</g>
		</g>
		<g opacity="0.3">
			<g>
				<path fill="#FFFFFF" d="M197.795,184.907c-1.421,0.094-2.772,0.133-4.21,0.25l-12.56,46.849h4.147L197.795,184.907z"/>
			</g>
		</g>
	</g>
	<g>
		<g>
			<g>
				<path fill="#AAB2BD" d="M140.027,315.986c0,3.678-0.562,7.279-1.601,10.716c-4.554,14.637-18.238,25.275-34.391,25.275
					c-14.958,0-27.673-9.037-33.195-21.995c-1.757-4.233-2.796-9.037-2.796-13.996c0-19.918,16.074-35.992,35.991-35.992
					S140.027,296.068,140.027,315.986z"/>
			</g>
		</g>
		<g opacity="0.5">
			<g>
				<path fill="#FFFFFF" d="M78.839,329.982c-1.757-4.233-2.796-9.037-2.796-13.996c0-18.543,13.997-33.586,31.992-35.586
					c-1.328-0.156-2.624-0.406-3.999-0.406c-19.917,0-35.991,16.074-35.991,35.992c0,4.959,1.039,9.763,2.796,13.996
					c5.522,12.958,18.238,21.995,33.195,21.995c1.305,0,2.562-0.18,3.827-0.312C94.757,350.149,83.838,341.714,78.839,329.982z"/>
			</g>
		</g>
		<g opacity="0.2">
			<g>
				<path d="M129.233,301.989c1.757,4.233,2.796,9.036,2.796,13.997c0,18.542-13.997,33.585-31.992,35.585
					c1.328,0.156,2.624,0.406,3.999,0.406c19.917,0,35.991-16.075,35.991-35.991c0-4.961-1.039-9.764-2.796-13.997
					c-5.522-12.958-18.238-21.995-33.195-21.995c-1.305,0-2.562,0.18-3.827,0.312C113.315,281.822,124.234,290.258,129.233,301.989z
					"/>
			</g>
		</g>
	</g>
	<g>
		<g>
			<g>
				<path fill="#AAB2BD" d="M451.954,315.986c0,3.678-0.562,7.279-1.602,10.716c-4.554,14.637-18.237,25.275-34.39,25.275
					c-14.958,0-27.674-9.037-33.195-21.995c-1.758-4.233-2.797-9.037-2.797-13.996c0-19.918,16.074-35.992,35.992-35.992
					C435.88,279.994,451.954,296.068,451.954,315.986z"/>
			</g>
		</g>
		<g opacity="0.5">
			<g>
				<path fill="#FFFFFF" d="M390.766,329.982c-1.758-4.233-2.797-9.037-2.797-13.996c0-18.543,13.997-33.586,31.992-35.586
					c-1.327-0.156-2.624-0.406-3.998-0.406c-19.918,0-35.992,16.074-35.992,35.992c0,4.959,1.039,9.763,2.797,13.996
					c5.521,12.958,18.237,21.995,33.195,21.995c1.304,0,2.562-0.18,3.826-0.312C406.684,350.149,395.764,341.714,390.766,329.982z"
					/>
			</g>
		</g>
		<g opacity="0.2">
			<g>
				<path d="M441.159,301.989c1.758,4.233,2.797,9.036,2.797,13.997c0,18.542-13.997,33.585-31.993,35.585
					c1.328,0.156,2.625,0.406,4,0.406c19.917,0,35.991-16.075,35.991-35.991c0-4.961-1.039-9.764-2.796-13.997
					c-5.522-12.958-18.238-21.995-33.195-21.995c-1.305,0-2.562,0.18-3.828,0.312C425.241,281.822,436.16,290.258,441.159,301.989z"
					/>
			</g>
		</g>
	</g>
	<g id="_x32_0._taxi_x2C__car_x2C__transport_x2C___machine_x2C__movement_x2C__transportation">
		<g>
			<g>
				<g>
					<path fill="#3A3847" d="M415.963,355.977c-22.05,0-39.991-17.941-39.991-39.99c0-22.05,17.941-39.991,39.991-39.991
						c22.049,0,39.99,17.941,39.99,39.991C455.953,338.035,438.012,355.977,415.963,355.977z M415.963,283.993
						c-17.645,0-31.993,14.349-31.993,31.993c0,17.644,14.349,31.992,31.993,31.992c17.644,0,31.992-14.349,31.992-31.992
						C447.955,298.342,433.606,283.993,415.963,283.993z"/>
				</g>
			</g>
			<g>
				<g>
					<path fill="#3A3847" d="M416.205,319.984c-2.211,0-4.039-1.788-4.039-3.998c0-2.211,1.75-4,3.953-4h0.086
						c2.202,0,3.998,1.789,3.998,4C420.203,318.196,418.407,319.984,416.205,319.984z"/>
				</g>
			</g>
			<g>
				<g>
					<path fill="#3A3847" d="M415.963,307.987c-2.211,0-4-1.788-4-3.999v-7.998c0-2.21,1.789-3.999,4-3.999
						c2.21,0,3.998,1.789,3.998,3.999v7.998C419.961,306.199,418.173,307.987,415.963,307.987z"/>
				</g>
			</g>
			<g>
				<g>
					<path fill="#3A3847" d="M415.963,339.98c-2.211,0-4-1.789-4-4v-7.998c0-2.21,1.789-3.998,4-3.998
						c2.21,0,3.998,1.788,3.998,3.998v7.998C419.961,338.191,418.173,339.98,415.963,339.98z"/>
				</g>
			</g>
			<g>
				<g>
					<path fill="#3A3847" d="M407.48,311.502c-1.023,0-2.047-0.391-2.828-1.171l-5.654-5.655c-1.562-1.562-1.562-4.093,0-5.654
						c1.562-1.562,4.092-1.562,5.654,0l5.655,5.654c1.562,1.562,1.562,4.093,0,5.655
						C409.526,311.111,408.503,311.502,407.48,311.502z"/>
				</g>
			</g>
			<g>
				<g>
					<path fill="#3A3847" d="M430.1,334.122c-1.023,0-2.047-0.391-2.827-1.172l-5.655-5.654c-1.562-1.562-1.562-4.093,0-5.655
						s4.093-1.562,5.655,0l5.654,5.655c1.562,1.562,1.562,4.093,0,5.654C432.146,333.731,431.123,334.122,430.1,334.122z"/>
				</g>
			</g>
			<g>
				<g>
					<path fill="#3A3847" d="M403.965,319.984h-7.998c-2.21,0-3.999-1.788-3.999-3.998c0-2.211,1.789-4,3.999-4h7.998
						c2.211,0,4,1.789,4,4C407.965,318.196,406.176,319.984,403.965,319.984z"/>
				</g>
			</g>
			<g>
				<g>
					<path fill="#3A3847" d="M435.957,319.984h-7.998c-2.21,0-3.998-1.788-3.998-3.998c0-2.211,1.788-4,3.998-4h7.998
						c2.211,0,4,1.789,4,4C439.957,318.196,438.168,319.984,435.957,319.984z"/>
				</g>
			</g>
			<g>
				<g>
					<path fill="#3A3847" d="M401.825,334.122c-1.023,0-2.047-0.391-2.827-1.172c-1.562-1.562-1.562-4.093,0-5.654l5.654-5.655
						c1.562-1.562,4.093-1.562,5.655,0c1.562,1.562,1.562,4.093,0,5.655l-5.655,5.654
						C403.871,333.731,402.849,334.122,401.825,334.122z"/>
				</g>
			</g>
			<g>
				<g>
					<path fill="#3A3847" d="M424.445,311.502c-1.023,0-2.047-0.391-2.828-1.171c-1.562-1.562-1.562-4.093,0-5.655l5.655-5.654
						c1.562-1.562,4.093-1.562,5.654,0c1.562,1.562,1.562,4.092,0,5.654l-5.654,5.655
						C426.491,311.111,425.468,311.502,424.445,311.502z"/>
				</g>
			</g>
		</g>
		<g>
			<g>
				<g>
					<path fill="#3A3847" d="M104.036,355.977c-22.05,0-39.99-17.941-39.99-39.99c0-22.05,17.94-39.991,39.99-39.991
						s39.99,17.941,39.99,39.991C144.026,338.035,126.086,355.977,104.036,355.977z M104.036,283.993
						c-17.645,0-31.992,14.349-31.992,31.993c0,17.644,14.348,31.992,31.992,31.992s31.992-14.349,31.992-31.992
						C136.028,298.342,121.681,283.993,104.036,283.993z"/>
				</g>
			</g>
			<g>
				<g>
					<path fill="#3A3847" d="M104.278,319.984c-2.21,0-4.038-1.788-4.038-3.998c0-2.211,1.75-4,3.952-4h0.086
						c2.203,0,3.999,1.789,3.999,4C108.277,318.196,106.481,319.984,104.278,319.984z"/>
				</g>
			</g>
			<g>
				<g>
					<path fill="#3A3847" d="M104.036,307.987c-2.21,0-3.999-1.788-3.999-3.999v-7.998c0-2.21,1.789-3.999,3.999-3.999
						s3.999,1.789,3.999,3.999v7.998C108.035,306.199,106.247,307.987,104.036,307.987z"/>
				</g>
			</g>
			<g>
				<g>
					<path fill="#3A3847" d="M104.036,339.98c-2.21,0-3.999-1.789-3.999-4v-7.998c0-2.21,1.789-3.998,3.999-3.998
						s3.999,1.788,3.999,3.998v7.998C108.035,338.191,106.247,339.98,104.036,339.98z"/>
				</g>
			</g>
			<g>
				<g>
					<path fill="#3A3847" d="M95.554,311.502c-1.023,0-2.046-0.391-2.827-1.171l-5.655-5.655c-1.562-1.562-1.562-4.093,0-5.654
						c1.562-1.562,4.093-1.562,5.655,0l5.654,5.654c1.562,1.562,1.562,4.093,0,5.655C97.6,311.111,96.577,311.502,95.554,311.502z"
						/>
				</g>
			</g>
			<g>
				<g>
					<path fill="#3A3847" d="M118.173,334.122c-1.023,0-2.046-0.391-2.828-1.172l-5.654-5.654c-1.562-1.562-1.562-4.093,0-5.655
						c1.562-1.562,4.093-1.562,5.654,0l5.655,5.655c1.562,1.562,1.562,4.093,0,5.654
						C120.22,333.731,119.196,334.122,118.173,334.122z"/>
				</g>
			</g>
			<g>
				<g>
					<path fill="#3A3847" d="M92.039,319.984h-7.998c-2.21,0-3.999-1.788-3.999-3.998c0-2.211,1.789-4,3.999-4h7.998
						c2.21,0,3.999,1.789,3.999,4C96.038,318.196,94.249,319.984,92.039,319.984z"/>
				</g>
			</g>
			<g>
				<g>
					<path fill="#3A3847" d="M124.031,319.984h-7.998c-2.21,0-3.999-1.788-3.999-3.998c0-2.211,1.789-4,3.999-4h7.998
						c2.21,0,3.999,1.789,3.999,4C128.03,318.196,126.242,319.984,124.031,319.984z"/>
				</g>
			</g>
			<g>
				<g>
					<path fill="#3A3847" d="M89.899,334.122c-1.023,0-2.046-0.391-2.828-1.172c-1.562-1.562-1.562-4.093,0-5.654l5.655-5.655
						c1.562-1.562,4.093-1.562,5.654,0c1.562,1.562,1.562,4.093,0,5.655l-5.654,5.654C91.945,333.731,90.922,334.122,89.899,334.122
						z"/>
				</g>
			</g>
			<g>
				<g>
					<path fill="#3A3847" d="M112.519,311.502c-1.023,0-2.046-0.391-2.827-1.171c-1.562-1.562-1.562-4.093,0-5.655l5.654-5.654
						c1.562-1.562,4.093-1.562,5.655,0c1.562,1.562,1.562,4.092,0,5.654l-5.655,5.655
						C114.565,311.111,113.542,311.502,112.519,311.502z"/>
				</g>
			</g>
		</g>
		<g>
			<g>
				<path fill="#3A3847" d="M459.952,331.982c-2.211,0-3.999-1.789-3.999-4c0-2.21,1.788-3.998,3.999-3.998
					c17.44,0,37.835-0.859,43.974-2.273c-0.312-21.503-5.046-56.518-21.245-61.915c-24.08-8.029-102.702-23.713-103.491-23.869
					c-0.406-0.078-0.797-0.219-1.155-0.422c-0.484-0.266-48.513-26.767-87.308-39.694c-21.979-7.342-133.234-24.026-236.679,35.656
					c-0.461,0.273-0.977,0.445-1.5,0.508l-29.274,3.663l-7.334,29.329c-0.07,0.281-0.171,0.562-0.304,0.82l-7.577,15.145
					c0.094,19.065,2.781,37.39,5.835,39.498c5.163,2.586,31.055,3.555,46.153,3.555c2.21,0,3.999,1.788,3.999,3.998
					c0,2.211-1.789,4-3.999,4c-6.835,0-41.357-0.211-49.777-4.422c-9.217-4.607-10.209-34.796-10.209-47.566
					c0-0.617,0.148-1.234,0.422-1.789L8.285,262.6l7.889-31.562c0.406-1.601,1.75-2.796,3.382-2.999l31.196-3.897
					c105.818-60.689,219.886-43.451,242.505-35.922c37.226,12.411,82.59,36.976,88.097,39.983
					c7.943,1.585,80.168,16.105,103.858,24.002c24.799,8.271,26.728,57.033,26.728,71.78
					C511.939,327.912,511.939,331.982,459.952,331.982z"/>
			</g>
		</g>
		<g>
			<g>
				<path fill="#3A3847" d="M371.973,331.982H148.025c-2.21,0-3.999-1.789-3.999-4c0-2.21,1.789-3.998,3.999-3.998h223.947
					c2.211,0,3.999,1.788,3.999,3.998C375.972,330.193,374.184,331.982,371.973,331.982z"/>
			</g>
		</g>
		<g>
			<g>
				<path fill="#3A3847" d="M236.005,228.007c-1.812,0-3.452-1.234-3.89-3.078l-7.998-33.757c-0.508-2.148,0.82-4.304,2.968-4.812
					c2.172-0.539,4.304,0.812,4.812,2.968l7.998,33.758c0.508,2.148-0.82,4.304-2.968,4.812
					C236.614,227.976,236.31,228.007,236.005,228.007z"/>
			</g>
		</g>
		<g>
			<g>
				<path fill="#3A3847" d="M363.975,236.005H100.037c-2.21,0-3.999-1.789-3.999-3.999c0-2.211,1.789-3.999,3.999-3.999h263.938
					c2.211,0,3.999,1.788,3.999,3.999C367.974,234.216,366.186,236.005,363.975,236.005z"/>
			</g>
		</g>
		<g>
			<g>
				<path fill="#3A3847" d="M100.037,236.005c-0.664,0-1.336-0.164-1.953-0.508c-1.921-1.078-2.617-3.515-1.539-5.444
					c8.326-14.91,32.102-32.516,33.109-33.258c1.78-1.312,4.288-0.929,5.592,0.844c1.312,1.781,0.929,4.288-0.843,5.593
					c-0.234,0.172-23.394,17.332-30.876,30.727C102.794,235.263,101.436,236.005,100.037,236.005z"/>
			</g>
		</g>
		<g>
			<g>
				<path fill="#3A3847" d="M499.067,275.995h-23.119c-2.21,0-3.999-1.788-3.999-3.999s1.789-3.999,3.999-3.999h23.119
					c2.211,0,3.999,1.788,3.999,3.999S501.278,275.995,499.067,275.995z"/>
			</g>
		</g>
		<g>
			<g>
				<path fill="#3A3847" d="M475.948,275.995c-1.023,0-2.046-0.391-2.827-1.171l-15.996-15.997c-1.562-1.562-1.562-4.093,0-5.654
					c1.562-1.562,4.092-1.562,5.654,0l15.996,15.996c1.562,1.562,1.562,4.093,0,5.655
					C477.994,275.604,476.972,275.995,475.948,275.995z"/>
			</g>
		</g>
		<g>
			<g>
				<path fill="#3A3847" d="M52.048,252.103h-0.008l-35.992-0.102c-2.21-0.008-3.999-1.805-3.991-4.007
					c0.008-2.21,1.797-3.991,3.999-3.991h0.008l35.992,0.102c2.21,0.008,3.999,1.804,3.991,4.007
					C56.04,250.321,54.251,252.103,52.048,252.103z"/>
			</g>
		</g>
		<g>
			<g>
				<path fill="#3A3847" d="M36.052,267.997c-1.031,0-2.054-0.391-2.835-1.18c-1.562-1.569-1.546-4.101,0.016-5.654l15.996-15.895
					c1.578-1.562,4.108-1.546,5.655,0.016c1.562,1.57,1.546,4.101-0.016,5.655l-15.996,15.895
					C38.091,267.606,37.067,267.997,36.052,267.997z"/>
			</g>
		</g>
		<g>
			<g>
				<path fill="#3A3847" d="M36.052,267.997H12.058c-2.21,0-3.999-1.788-3.999-3.999s1.789-3.999,3.999-3.999h23.995
					c2.21,0,3.999,1.788,3.999,3.999S38.263,267.997,36.052,267.997z"/>
			</g>
		</g>
		<g>
			<g>
				<path fill="#3A3847" d="M507.511,315.986h-7.568c-2.21,0-3.999-1.789-3.999-4c0-2.21,1.789-3.999,3.999-3.999h7.568
					c2.211,0,3.999,1.789,3.999,3.999C511.51,314.197,509.722,315.986,507.511,315.986z"/>
			</g>
		</g>
		<g>
			<g>
				<path fill="#3A3847" d="M180.018,283.993h-15.996c-2.21,0-3.999-1.788-3.999-3.999v-15.996c0-2.211,1.789-3.999,3.999-3.999
					h15.996c2.21,0,4,1.788,4,3.999v15.996C184.018,282.205,182.229,283.993,180.018,283.993z M168.021,275.995h7.998v-7.998h-7.998
					V275.995z"/>
			</g>
		</g>
		<g>
			<g>
				<path fill="#3A3847" d="M196.015,299.989h-15.997c-2.21,0-3.999-1.788-3.999-3.999v-15.996c0-2.21,1.789-3.999,3.999-3.999
					h15.997c2.21,0,3.999,1.789,3.999,3.999v15.996C200.014,298.201,198.225,299.989,196.015,299.989z M184.018,291.991h7.998
					v-7.998h-7.998V291.991z"/>
			</g>
		</g>
		<g>
			<g>
				<path fill="#3A3847" d="M212.011,283.993h-15.996c-2.211,0-3.999-1.788-3.999-3.999v-15.996c0-2.211,1.788-3.999,3.999-3.999
					h15.996c2.21,0,3.999,1.788,3.999,3.999v15.996C216.01,282.205,214.221,283.993,212.011,283.993z M200.014,275.995h7.998v-7.998
					h-7.998V275.995z"/>
			</g>
		</g>
		<g>
			<g>
				<path fill="#3A3847" d="M228.007,299.989h-15.996c-2.21,0-3.999-1.788-3.999-3.999v-15.996c0-2.21,1.789-3.999,3.999-3.999
					h15.996c2.21,0,3.999,1.789,3.999,3.999v15.996C232.006,298.201,230.217,299.989,228.007,299.989z M216.01,291.991h7.998v-7.998
					h-7.998V291.991z"/>
			</g>
		</g>
		<g>
			<g>
				<path fill="#3A3847" d="M244.003,283.993h-15.996c-2.21,0-3.999-1.788-3.999-3.999v-15.996c0-2.211,1.789-3.999,3.999-3.999
					h15.996c2.21,0,3.999,1.788,3.999,3.999v15.996C248.002,282.205,246.213,283.993,244.003,283.993z M232.006,275.995h7.998
					v-7.998h-7.998V275.995z"/>
			</g>
		</g>
		<g>
			<g>
				<path fill="#3A3847" d="M259.999,299.989h-15.996c-2.21,0-3.999-1.788-3.999-3.999v-15.996c0-2.21,1.789-3.999,3.999-3.999
					h15.996c2.211,0,3.999,1.789,3.999,3.999v15.996C263.998,298.201,262.21,299.989,259.999,299.989z M248.002,291.991H256v-7.998
					h-7.998V291.991z"/>
			</g>
		</g>
		<g>
			<g>
				<path fill="#3A3847" d="M275.995,283.993h-15.996c-2.21,0-3.999-1.788-3.999-3.999v-15.996c0-2.211,1.789-3.999,3.999-3.999
					h15.996c2.211,0,3.999,1.788,3.999,3.999v15.996C279.994,282.205,278.206,283.993,275.995,283.993z M263.998,275.995h7.998
					v-7.998h-7.998V275.995z"/>
			</g>
		</g>
		<g>
			<g>
				<path fill="#3A3847" d="M291.992,299.989h-15.997c-2.21,0-3.999-1.788-3.999-3.999v-15.996c0-2.21,1.789-3.999,3.999-3.999
					h15.997c2.21,0,3.998,1.789,3.998,3.999v15.996C295.99,298.201,294.202,299.989,291.992,299.989z M279.994,291.991h7.998v-7.998
					h-7.998V291.991z"/>
			</g>
		</g>
		<g>
			<g>
				<path fill="#3A3847" d="M307.988,283.993h-15.996c-2.211,0-4-1.788-4-3.999v-15.996c0-2.211,1.789-3.999,4-3.999h15.996
					c2.21,0,3.999,1.788,3.999,3.999v15.996C311.987,282.205,310.198,283.993,307.988,283.993z M295.99,275.995h7.998v-7.998h-7.998
					V275.995z"/>
			</g>
		</g>
		<g>
			<g>
				<path fill="#3A3847" d="M323.984,299.989h-15.996c-2.211,0-4-1.788-4-3.999v-15.996c0-2.21,1.789-3.999,4-3.999h15.996
					c2.21,0,3.999,1.789,3.999,3.999v15.996C327.983,298.201,326.194,299.989,323.984,299.989z M311.987,291.991h7.998v-7.998
					h-7.998V291.991z"/>
			</g>
		</g>
		<g>
			<g>
				<path fill="#3A3847" d="M339.98,283.993h-15.996c-2.211,0-3.999-1.788-3.999-3.999v-15.996c0-2.211,1.788-3.999,3.999-3.999
					h15.996c2.21,0,3.999,1.788,3.999,3.999v15.996C343.979,282.205,342.19,283.993,339.98,283.993z M327.983,275.995h7.998v-7.998
					h-7.998V275.995z"/>
			</g>
		</g>
		<g>
			<g>
				<path fill="#3A3847" d="M236.005,180.018c-1.796,0-3.429-1.21-3.882-3.03l-3.999-15.996c-0.531-2.14,0.766-4.312,2.913-4.851
					c2.094-0.516,4.312,0.766,4.851,2.914l3.999,15.996c0.531,2.14-0.766,4.312-2.913,4.851
					C236.653,179.979,236.325,180.018,236.005,180.018z"/>
			</g>
		</g>
		<g>
			<g>
				<path fill="#3A3847" d="M212.011,180.018c-0.32,0-0.641-0.039-0.969-0.117c-2.148-0.539-3.444-2.71-2.913-4.851l3.999-15.996
					c0.531-2.148,2.679-3.421,4.851-2.914c2.147,0.539,3.444,2.71,2.913,4.851l-3.999,15.996
					C215.439,178.808,213.807,180.018,212.011,180.018z"/>
			</g>
		</g>
		<g>
			<g>
				<path fill="#3A3847" d="M232.006,164.021H216.01c-2.21,0-3.999-1.788-3.999-3.999c0-2.21,1.789-3.999,3.999-3.999h15.996
					c2.21,0,3.999,1.789,3.999,3.999C236.005,162.233,234.216,164.021,232.006,164.021z"/>
			</g>
		</g>
	</g>
</g>
</svg>
