<?xml version="1.0" encoding="utf-8"?>
<!-- Generator: Adobe Illustrator 21.1.0, SVG Export Plug-In . SVG Version: 6.00 Build 0)  -->
<svg version="1.1" id="Icon_Set" xmlns="http://www.w3.org/2000/svg" xmlns:xlink="http://www.w3.org/1999/xlink" x="0px" y="0px"
	 viewBox="0 0 512 512" style="enable-background:new 0 0 512 512;" xml:space="preserve">
<style type="text/css">
	.st0{fill:#FFFFFF;}
	.st1{fill:#5B7C31;}
	.st2{fill:#E56823;}
	.st3{fill:#FE8E46;}
	.st4{fill:#7DAC51;}
	.st5{fill:#463218;}
	.st6{fill:#FEFE71;}
	.st7{fill:#D6CD1E;}
	.st8{fill:none;stroke:#FFFFFF;stroke-width:14;stroke-miterlimit:10;}
	.st9{fill:none;stroke:#463218;stroke-width:14;stroke-linecap:round;stroke-linejoin:round;stroke-miterlimit:10;}
</style>
<g id="Tea">
	<g>
		<g>
			<g>
				<g>
					<rect x="134.2" y="381.5" class="st4" width="204.8" height="27.6"/>
				</g>
			</g>
		</g>
		<g>
			<g>
				<g>
					<rect x="134.2" y="381.5" class="st1" width="85.4" height="27.6"/>
				</g>
			</g>
		</g>
		<g>
			<g>
				<g>
					<path class="st3" d="M236.6,379.7L236.6,379.7c-48.8,0-88.4-39.6-88.4-88.4v-63.4H325v63.4C325,340.1,285.4,379.7,236.6,379.7z
						"/>
				</g>
			</g>
		</g>
		<g>
			<g>
				<g>
					<path class="st2" d="M199.3,291.3v-63.4h-51.2v63.4c0,48.8,39.6,88.4,88.4,88.4l0,0c8.9,0,17.5-1.3,25.6-3.8
						C225.8,365,199.3,331.2,199.3,291.3z"/>
				</g>
			</g>
		</g>
		<g>
			<g>
				<g>
					<path class="st5" d="M236.6,386.7c-52.6,0-95.4-42.8-95.4-95.4v-63.4c0-3.9,3.1-7,7-7H325c3.9,0,7,3.1,7,7v63.4
						C332,343.9,289.2,386.7,236.6,386.7z M155.1,234.9v56.4c0,44.9,36.5,81.4,81.4,81.4s81.4-36.5,81.4-81.4v-56.4H155.1z"/>
				</g>
			</g>
		</g>
		<g>
			<g>
				<g>
					<path class="st5" d="M339,416.1H134.2c-3.9,0-7-3.1-7-7v-27.6c0-3.9,3.1-7,7-7H339c3.9,0,7,3.1,7,7v27.6
						C346,413,342.8,416.1,339,416.1z M141.2,402.1H332v-13.6H141.2V402.1z"/>
				</g>
			</g>
		</g>
		<g>
			<g>
				<g>
					<path class="st5" d="M345.1,318h-22.2c-3.9,0-7-3.1-7-7s3.1-7,7-7h22.2c4.3,0,8.3-1.7,11.3-4.7l9.7-9.7c3-3,4.7-7,4.7-11.3
						c0-8.8-7.2-16-16-16h-28c-3.9,0-7-3.1-7-7s3.1-7,7-7h28c16.6,0,30,13.5,30,30c0,8-3.1,15.6-8.8,21.2l-9.7,9.7
						C360.6,314.9,353.1,318,345.1,318z"/>
				</g>
			</g>
		</g>
		<g>
			<g>
				<g>
					<path class="st5" d="M269.1,270.5c-3.9,0-7-3.1-7-7v-32.7c0-3.9,3.1-7,7-7s7,3.1,7,7v32.7C276.1,267.4,273,270.5,269.1,270.5z"
						/>
				</g>
			</g>
		</g>
		<g>
			<g>
				<g>
					<rect x="247.4" y="263.5" class="st6" width="44" height="44"/>
				</g>
			</g>
		</g>
		<g>
			<g>
				<g>
					<path class="st5" d="M291.4,314.5h-44c-3.9,0-7-3.1-7-7v-44c0-3.9,3.1-7,7-7h44c3.9,0,7,3.1,7,7v44
						C298.4,311.4,295.3,314.5,291.4,314.5z M254.4,300.5h30v-30h-30V300.5z"/>
				</g>
			</g>
		</g>
		<g>
			<g>
				<g>
					<rect x="169.9" y="255.2" class="st0" width="14" height="40.3"/>
				</g>
			</g>
		</g>
	</g>
	<g>
		<g>
			<g>
				<g>
					<path class="st5" d="M236.6,174.5c-1.8,0-3.6-0.7-5-2.1c-11.1-11.1-11.6-29-1.3-40.6c0.3-0.7,0.8-1.3,1.3-1.8
						c6.1-6.1,6.1-16.1,0-22.2c-2.7-2.7-2.7-7.2,0-9.9c2.7-2.7,7.2-2.7,9.9,0c5.6,5.6,8.7,13.1,8.7,21c0,7.3-2.6,14.2-7.4,19.6
						c-0.3,0.7-0.8,1.3-1.3,1.8c-6.1,6.1-6.1,16.1,0,22.2c2.7,2.7,2.7,7.2,0,9.9C240.2,173.8,238.4,174.5,236.6,174.5z M236.6,135.4
						L236.6,135.4L236.6,135.4z"/>
				</g>
			</g>
		</g>
		<g>
			<g>
				<g>
					<path class="st5" d="M189.7,183.2c-1.8,0-3.6-0.7-5-2c-8-8-8.4-20.7-1.1-29.1c0.3-0.5,0.7-1,1.1-1.5c2.9-2.9,2.9-7.6,0-10.6
						c-2.7-2.7-2.7-7.2,0-9.9c2.7-2.7,7.2-2.7,9.9,0c8,8,8.4,20.7,1.1,29.1c-0.3,0.5-0.7,1-1.1,1.5c-2.9,2.9-2.9,7.6,0,10.6
						c2.7,2.7,2.7,7.2,0,9.9C193.3,182.5,191.5,183.2,189.7,183.2z M189.7,155.7L189.7,155.7L189.7,155.7z"/>
				</g>
			</g>
		</g>
		<g>
			<g>
				<g>
					<path class="st5" d="M283.5,183.2c-1.8,0-3.6-0.7-5-2c-8-8-8.4-20.7-1.1-29.1c0.3-0.5,0.7-1,1.1-1.5c2.9-2.9,2.9-7.6,0-10.6
						c-2.7-2.7-2.7-7.2,0-9.9c2.7-2.7,7.2-2.7,9.9,0c8,8,8.4,20.7,1.1,29.1c-0.3,0.5-0.7,1-1.1,1.5c-2.9,2.9-2.9,7.6,0,10.6
						c2.7,2.7,2.7,7.2,0,9.9C287.1,182.5,285.3,183.2,283.5,183.2z M283.5,155.7L283.5,155.7L283.5,155.7z"/>
				</g>
			</g>
		</g>
	</g>
</g>
</svg>
