<?xml version="1.0" encoding="utf-8"?>
<!-- Generator: Adobe Illustrator 21.1.0, SVG Export Plug-In . SVG Version: 6.00 Build 0)  -->
<svg version="1.1" id="Icon_Set" xmlns="http://www.w3.org/2000/svg" xmlns:xlink="http://www.w3.org/1999/xlink" x="0px" y="0px"
	 viewBox="0 0 512 512" style="enable-background:new 0 0 512 512;" xml:space="preserve">
<style type="text/css">
	.st0{fill:#FFFFFF;}
	.st1{fill:#5B7C31;}
	.st2{fill:#E56823;}
	.st3{fill:#FE8E46;}
	.st4{fill:#7DAC51;}
	.st5{fill:#463218;}
	.st6{fill:#FEFE71;}
	.st7{fill:#D6CD1E;}
	.st8{fill:none;stroke:#FFFFFF;stroke-width:14;stroke-miterlimit:10;}
	.st9{fill:none;stroke:#463218;stroke-width:14;stroke-linecap:round;stroke-linejoin:round;stroke-miterlimit:10;}
</style>
<g id="Tempura">
	<g>
		<g>
			<g>
				<polygon class="st6" points="312.8,116.5 319.4,184.1 354.3,198 379.6,123.9 340.4,159.1 				"/>
			</g>
		</g>
	</g>
	<g>
		<g>
			<g>
				<path class="st3" d="M354.3,198c-29.8,99.8-53,125.2-143.3,186.5c-29.4,20-66.4,11.2-75.8-14.5l0,0
					c-9.4-25.7,5.6-54.2,30.7-65.3c80.9-35.3,109.9-35.3,153.4-120.5C331,188.7,342.7,193.4,354.3,198z"/>
			</g>
		</g>
	</g>
	<g>
		<g>
			<g>
				<path class="st2" d="M205.5,347.4c-26,17.7-57.8,12.9-71.4-6.2c-2.5,9.3-2.4,19.2,1.1,28.8c9.3,25.7,46.3,34.5,75.8,14.5
					c90.4-61.3,113.6-86.7,143.3-186.5c-5.1-2-10.3-4.1-15.4-6.1C311.2,272.2,286,292.7,205.5,347.4z"/>
			</g>
		</g>
	</g>
	<g>
		<g>
			<g>
				<path class="st5" d="M176.3,402.5c-6.2,0-12.3-0.9-18.1-2.8c-14.2-4.6-24.9-14.5-29.6-27.3c-5.1-14-4.2-29.5,2.7-43.6
					c6.6-13.5,17.9-24.4,31.8-30.5c12.2-5.3,23.4-9.9,33.3-14c80.9-33.2,92.1-55.2,116.7-103.3c1.6-3.2,5.5-4.7,8.8-3.3l35,13.8
					c3.4,1.3,5.2,5,4.1,8.5c-16.2,54.3-29.8,84.1-50.2,110c-21.5,27.3-50.3,49.3-96,80.3C203.1,398.3,189.5,402.5,176.3,402.5z
					 M322.7,193c-36.7,69.7-65.3,81.5-120.9,104.3c-9.8,4-20.9,8.6-33,13.8c-22.6,10-34.7,35.3-27,56.5c3.2,8.8,10.6,15.5,20.7,18.8
					c14.1,4.6,30.8,1.7,44.5-7.7c85.6-58.1,109.9-82.3,138.7-176.6L322.7,193z"/>
			</g>
		</g>
	</g>
	<g>
		<g>
			<g>
				<path class="st5" d="M354.3,205c-0.9,0-1.7-0.2-2.6-0.5l-35-13.8c-2.4-1-4.1-3.2-4.4-5.8l-6.6-67.6c-0.3-3.2,1.6-6.2,4.7-7.3
					c3-1.1,6.4,0.1,8.2,2.8l23.2,35.7l33.1-29.8c2.4-2.1,5.9-2.4,8.5-0.6c2.7,1.8,3.8,5.1,2.8,8.1L361,200.2c-0.6,1.8-2,3.3-3.7,4.1
					C356.3,204.8,355.3,205,354.3,205z M325.9,179.2l24.2,9.6l14.2-41.7l-19.2,17.3c-1.5,1.4-3.6,2-5.6,1.7c-2-0.3-3.8-1.4-5-3.1
					l-12.1-18.6L325.9,179.2z"/>
			</g>
		</g>
	</g>
	<g>
		<g>
			<g>
				<path class="st0" d="M218.2,321.8l-6.8-12.3c9.5-5.3,17.1-10.5,22.5-15.7l9.7,10.1C237.3,310,228.8,316,218.2,321.8z"/>
			</g>
		</g>
	</g>
	<g>
		<g>
			<g>
				<path class="st0" d="M180.2,337.9l-5.1-13c0.1,0,10.1-3.9,22.7-10.3l6.3,12.5C190.9,333.8,180.7,337.7,180.2,337.9z"/>
			</g>
		</g>
	</g>
	<g>
		<g>
			<g>
				
					<ellipse transform="matrix(0.7071 -0.7071 0.7071 0.7071 -121.4706 279.1563)" class="st2" cx="276.2" cy="286.2" rx="8.3" ry="8.3"/>
			</g>
		</g>
	</g>
	<g>
		<g>
			<g>
				
					<ellipse transform="matrix(0.7071 -0.7071 0.7071 0.7071 -85.4704 291.9562)" class="st2" cx="309.7" cy="249.2" rx="8.3" ry="8.3"/>
			</g>
		</g>
	</g>
	<g>
		<g>
			<g>
				
					<ellipse transform="matrix(0.7071 -0.7071 0.7071 0.7071 -145.8167 271.1943)" class="st2" cx="254.5" cy="311.6" rx="8.3" ry="8.3"/>
			</g>
		</g>
	</g>
	<g>
		<g>
			<g>
				
					<ellipse transform="matrix(0.5933 -0.805 0.805 0.5933 -213.831 288.2679)" class="st2" cx="178.3" cy="355.7" rx="8.3" ry="8.3"/>
			</g>
		</g>
	</g>
	<g>
		<g>
			<g>
				
					<ellipse transform="matrix(0.5933 -0.805 0.805 0.5933 -183.5551 313.6686)" class="st2" cx="218.6" cy="338.5" rx="8.3" ry="8.3"/>
			</g>
		</g>
	</g>
	<g>
		<g>
			<g>
				
					<ellipse transform="matrix(0.7071 -0.7071 0.7071 0.7071 -103.1524 287.9992)" class="st2" cx="296.1" cy="268.5" rx="5.3" ry="5.3"/>
			</g>
		</g>
	</g>
	<g>
		<g>
			<g>
				
					<ellipse transform="matrix(0.7071 -0.7071 0.7071 0.7071 -193.0771 209.1951)" class="st2" cx="156" cy="337.7" rx="5.3" ry="5.3"/>
			</g>
		</g>
	</g>
	<g>
		<g>
			<g>
				
					<ellipse transform="matrix(0.7071 -0.7071 0.7071 0.7071 -55.2049 292.098)" class="st2" cx="325" cy="212.7" rx="5.3" ry="5.3"/>
			</g>
		</g>
	</g>
	<g>
		<g>
			<g>
				
					<ellipse transform="matrix(0.7071 -0.7071 0.7071 0.7071 -129.9163 265.018)" class="st2" cx="254.9" cy="289.3" rx="5.3" ry="5.3"/>
			</g>
		</g>
	</g>
</g>
</svg>
