<?xml version="1.0" encoding="utf-8"?>
<!-- Generator: Adobe Illustrator 21.1.0, SVG Export Plug-In . SVG Version: 6.00 Build 0)  -->
<svg version="1.1" id="Icon_Set" xmlns="http://www.w3.org/2000/svg" xmlns:xlink="http://www.w3.org/1999/xlink" x="0px" y="0px"
	 viewBox="0 0 512 512" style="enable-background:new 0 0 512 512;" xml:space="preserve">
<style type="text/css">
	.st0{fill:#FFFFFF;}
	.st1{fill:#5B7C31;}
	.st2{fill:#E56823;}
	.st3{fill:#FE8E46;}
	.st4{fill:#7DAC51;}
	.st5{fill:#463218;}
	.st6{fill:#FEFE71;}
	.st7{fill:#D6CD1E;}
	.st8{fill:none;stroke:#FFFFFF;stroke-width:14;stroke-miterlimit:10;}
	.st9{fill:none;stroke:#463218;stroke-width:14;stroke-linecap:round;stroke-linejoin:round;stroke-miterlimit:10;}
</style>
<g id="Thai_tea">
	<g>
		<g>
			<g>
				<polygon class="st3" points="307.4,409.6 204.3,409.5 170.8,176.5 341.2,176.6 				"/>
			</g>
		</g>
	</g>
	<g>
		<g>
			<g>
				<polygon class="st2" points="241.8,409.5 208.3,176.5 170.8,176.5 204.3,409.5 307.4,409.6 307.4,409.6 				"/>
			</g>
		</g>
	</g>
	<g>
		<g>
			<g>
				<path class="st5" d="M307.4,416.6C307.4,416.6,307.4,416.6,307.4,416.6l-103.1-0.1c-3.5,0-6.4-2.6-6.9-6l-33.5-233.1
					c-0.3-2,0.3-4,1.6-5.6c1.3-1.5,3.3-2.4,5.3-2.4c0,0,0,0,0,0l170.4,0.1c2,0,4,0.9,5.3,2.4c1.3,1.5,1.9,3.6,1.6,5.6l-33.8,233
					C313.8,414.1,310.9,416.6,307.4,416.6z M210.4,402.5l91,0.1l31.8-219l-154.3-0.1L210.4,402.5z"/>
			</g>
		</g>
	</g>
	<g>
		<g>
			<g>
				<path class="st5" d="M358.4,183.5H153.6c-3.9,0-7-3.1-7-7s3.1-7,7-7h204.8c3.9,0,7,3.1,7,7S362.3,183.5,358.4,183.5z"/>
			</g>
		</g>
	</g>
	<g>
		<g>
			<g>
				<path class="st6" d="M335.2,217.9c-3.8-0.6-7.8-0.9-11.8-0.9c-41.2,0-74.5,33.4-74.5,74.5c0,37.9,28.3,69.2,64.9,73.9
					L335.2,217.9z"/>
			</g>
		</g>
	</g>
	<g>
		<g>
			<g>
				<path class="st7" d="M248.9,291.5c0,9.2,1.7,17.9,4.7,26.1l72.8-38.5l8.9-61.2c-3.8-0.6-7.8-0.9-11.8-0.9
					C282.3,217,248.9,250.3,248.9,291.5z"/>
			</g>
		</g>
	</g>
	<g>
		<g>
			<g>
				<path class="st5" d="M313.8,372.4c-0.3,0-0.6,0-0.9-0.1c-40.5-5.2-71-40-71-80.8c0-45,36.6-81.5,81.5-81.5c4.3,0,8.6,0.3,12.9,1
					c3.8,0.6,6.4,4.1,5.8,7.9l-21.4,147.5C320.2,369.9,317.2,372.4,313.8,372.4z M323.4,224c-37.2,0-67.5,30.3-67.5,67.5
					c0,31.5,21.9,58.7,52,65.7l19.3-133.1C326,224,324.7,224,323.4,224z"/>
			</g>
		</g>
	</g>
	<g>
		<g>
			<g>
				<path class="st4" d="M182.2,256l7.4,51.2h61c-1.1-5.1-1.7-10.3-1.7-15.7c0-12.9,3.3-25,9-35.5H182.2z"/>
			</g>
		</g>
	</g>
	<g>
		<g>
			<g>
				<polygon class="st1" points="182.2,256 189.6,307.2 227.4,307.2 220,256 				"/>
			</g>
		</g>
	</g>
	<g>
		<g>
			<g>
				<path class="st5" d="M250.6,314.2h-61c-3.5,0-6.4-2.6-6.9-6l-7.4-51.2c-0.3-2,0.3-4,1.6-5.6c1.3-1.5,3.3-2.4,5.3-2.4h75.7
					c2.5,0,4.8,1.3,6,3.4c1.3,2.1,1.3,4.8,0.1,6.9c-5.3,9.8-8.1,20.9-8.1,32.2c0,4.7,0.5,9.5,1.5,14.2c0.4,2.1-0.1,4.2-1.4,5.9
					C254.7,313.2,252.7,314.2,250.6,314.2z M195.6,300.2h46.7c-0.3-2.9-0.5-5.8-0.5-8.7c0-9.8,1.8-19.4,5.1-28.5h-56.7L195.6,300.2z
					"/>
			</g>
		</g>
	</g>
	<g>
		<g>
			<g>
				<rect x="208.3" y="102.4" class="st6" width="23.5" height="74.1"/>
			</g>
		</g>
	</g>
	<g>
		<g>
			<g>
				<path class="st5" d="M231.8,183.5h-23.5c-3.9,0-7-3.1-7-7v-74.1c0-3.9,3.1-7,7-7h23.5c3.9,0,7,3.1,7,7v74.1
					C238.8,180.3,235.7,183.5,231.8,183.5z M215.3,169.5h9.5v-60.1h-9.5V169.5z"/>
			</g>
		</g>
	</g>
	<g>
		<g>
			<g>
				
					<rect x="206.5" y="197.2" transform="matrix(0.9898 -0.1423 0.1423 0.9898 -28.163 32.5622)" class="st0" width="14" height="32"/>
			</g>
		</g>
	</g>
</g>
</svg>
