<?xml version="1.0" encoding="utf-8"?>
<!-- Generator: Adobe Illustrator 22.1.0, SVG Export Plug-In . SVG Version: 6.00 Build 0)  -->
<svg version="1.1" id="Layer_1" xmlns="http://www.w3.org/2000/svg" xmlns:xlink="http://www.w3.org/1999/xlink" x="0px" y="0px"
	 viewBox="0 0 256 256" style="enable-background:new 0 0 256 256;" xml:space="preserve">
<style type="text/css">
	.st0{fill:#F5B31F;}
	.st1{fill:none;stroke:#464646;stroke-width:8;stroke-linecap:round;stroke-linejoin:round;stroke-miterlimit:10;}
	.st2{opacity:0.15;fill:#464646;}
	.st3{fill:#AC6535;}
	.st4{fill:#EB573B;}
	.st5{fill:#90C056;}
	.st6{opacity:0.35;fill:#FFFFFF;}
	.st7{opacity:0.2;fill:#FFFFFF;}
	.st8{fill:#F6D67A;}
	.st9{opacity:0.15;fill:#FFFFFF;}
	.st10{opacity:0.3;fill:#FFFFFF;}
	.st11{fill:#AC6535;stroke:#464646;stroke-width:8;stroke-linecap:round;stroke-linejoin:round;stroke-miterlimit:10;}
	.st12{fill:#EB573B;stroke:#464646;stroke-width:8;stroke-miterlimit:10;}
	.st13{opacity:0.15;}
	.st14{fill:#464646;}
	.st15{fill:#FFA755;}
	.st16{fill:#8FAE3C;}
	.st17{fill:#BE6BB2;}
	.st18{fill:#B7C536;}
	.st19{opacity:0.1;}
	.st20{fill:#9D5A96;}
	.st21{fill:#EA615D;}
	.st22{opacity:0.4;fill:#FFFFFF;}
	.st23{opacity:7.000000e-02;}
	.st24{fill:#F79932;}
	.st25{fill:#FFEC97;}
	.st26{fill:#FFD11D;}
	.st27{opacity:0.2;}
	.st28{fill:#FFFFFF;}
	.st29{fill:#F7F2D5;}
	.st30{fill:#F6AF72;}
	.st31{fill:#BA6C45;}
	.st32{opacity:0.5;fill:#FFFFFF;}
	.st33{fill:#E4C074;}
	.st34{fill:none;stroke:#656566;stroke-width:8;stroke-linecap:round;stroke-linejoin:round;stroke-miterlimit:10;}
	.st35{fill:#FFA755;stroke:#464646;stroke-width:8;stroke-linecap:round;stroke-linejoin:round;stroke-miterlimit:10;}
	.st36{fill:#FFD11D;stroke:#464646;stroke-width:8;stroke-linecap:round;stroke-linejoin:round;stroke-miterlimit:10;}
	.st37{fill:#FACD1F;}
	.st38{fill:#FFDF66;}
	.st39{fill:#FFEC97;stroke:#464646;stroke-width:8;stroke-linecap:round;stroke-linejoin:round;stroke-miterlimit:10;}
	.st40{fill:#FFDF66;stroke:#464646;stroke-width:8;stroke-linecap:round;stroke-linejoin:round;stroke-miterlimit:10;}
	.st41{opacity:0.2;fill:#464646;}
	.st42{fill:#FFFFFF;stroke:#464646;stroke-width:8;stroke-linecap:round;stroke-linejoin:round;stroke-miterlimit:10;}
	.st43{fill:#6D6E71;stroke:#464646;stroke-width:8;stroke-linecap:round;stroke-linejoin:round;stroke-miterlimit:10;}
	.st44{opacity:0.1;fill:#464646;}
	.st45{fill:#E77CAE;}
	.st46{fill:#FFE5C4;}
	.st47{fill:#F68455;stroke:#464646;stroke-width:8;stroke-linecap:round;stroke-linejoin:round;stroke-miterlimit:10;}
	.st48{opacity:0.7;}
	.st49{fill:#ADEDFF;}
	.st50{fill:#EC754B;}
	.st51{fill:#4AA5BA;}
	.st52{opacity:0.5;}
	.st53{opacity:0.8;}
	.st54{fill:#F68455;}
	.st55{fill:#92A5AC;}
	.st56{fill:#6D6E71;}
	.st57{fill:#D06E3C;}
	.st58{fill:#DA4F4B;}
	.st59{fill:#BDF3FF;}
	.st60{fill:#F18BB4;}
	.st61{fill:#F9D97A;}
	.st62{fill:none;}
	.st63{fill:#AF6535;}
	.st64{fill:#B93226;}
	.st65{fill:#FF6050;}
	.st66{fill:#D06E3C;stroke:#464646;stroke-miterlimit:10;}
	.st67{fill:#EA7CB1;}
	.st68{fill:none;stroke:#6D6E71;stroke-width:10;stroke-linecap:round;stroke-linejoin:round;stroke-miterlimit:10;}
	.st69{fill:#00B0E0;}
	.st70{fill:#EA7DAE;}
	.st71{opacity:0.1;fill:#FFFFFF;}
	.st72{fill:#BC7532;}
	.st73{fill:#876C6C;}
	.st74{fill:#F9F6CD;}
	.st75{fill:#FFE37B;}
	.st76{fill:#1DDCFF;}
	.st77{fill:#60ACF7;}
	.st78{fill:#C3755A;}
	.st79{fill:#96557A;}
	.st80{fill:#66625D;}
	.st81{fill:#D68032;}
	.st82{opacity:0.8;fill:#FFFFFF;}
	.st83{fill:#F2A355;}
	.st84{fill:#7E9E6A;}
	.st85{opacity:0.3;}
	.st86{fill:#965A85;}
	.st87{opacity:0.7;fill:#FFFFFF;}
	.st88{fill:#90CAD3;}
	.st89{fill:#94B57F;}
	.st90{fill:#B2E2E7;}
	.st91{fill:#FFDF8F;}
	.st92{fill:#FFFAEB;}
	.st93{fill:#F88916;}
	.st94{fill:#FFC86E;}
	.st95{fill:#AFA51D;}
	.st96{fill:#968A1C;}
	.st97{fill:#C3556D;}
</style>
<g>
	<ellipse class="st0" cx="200.1" cy="97.1" rx="52" ry="51.9"/>
	<path class="st41" d="M177.9,118.6c0,0,8.7,7.1,14,2.5c5.3-4.6-1.1-12.8-1.1-12.8L177.9,118.6z"/>
	<path class="st41" d="M192,88.7c0,0,15.7,12.8,25.4,4.5C227,85,215.3,70,215.3,70L192,88.7z"/>
	<ellipse class="st0" cx="112.5" cy="188.8" rx="52" ry="51.9"/>
	<path class="st41" d="M80.5,207.5c0,0,14.8,12.1,24,4.3s-2-22-2-22L80.5,207.5z"/>
	<path class="st41" d="M98.4,172.8c0,0,8.7,7.1,14,2.5c5.3-4.6-1.1-12.8-1.1-12.8L98.4,172.8z"/>
	<ellipse class="st0" cx="56" cy="67.2" rx="52" ry="51.9"/>
	<path class="st41" d="M23.8,64.3c0,0,15.4,12.6,24.9,4.5s-2-22.9-2-22.9L23.8,64.3z"/>
	<path class="st41" d="M72.9,55.6c0,0,8.8,7.2,14.2,2.5c5.4-4.6-1.2-13-1.2-13L72.9,55.6z"/>
	<path class="st41" d="M36.4,99.6c0,0,9.7,12.2,19.6,4.3s-2.1-18.3-2.1-18.3L36.4,99.6z"/>
	<path class="st41" d="M92.8,30.5c9.4,9.4,15.2,22.4,15.2,36.7c0,28.7-23.3,51.9-52,51.9c-11.8,0-22.7-3.9-31.4-10.5
		c0,0,38,5.1,58.4-18.1S92.8,30.5,92.8,30.5z"/>
	<path class="st41" d="M149.2,152.1c9.4,9.4,15.2,22.4,15.2,36.7c0,28.7-23.3,51.9-52,51.9c-14.8,0-28.2-6.2-37.7-16.1
		c0,0,42.8,11.6,62.3-10.2S149.2,152.1,149.2,152.1z"/>
	<path class="st41" d="M236.5,60c9.6,9.4,15.6,22.5,15.6,37c0,28.7-23.3,51.9-52,51.9c-13.8,0-26.3-5.4-35.6-14.1
		c0,0,42,7.2,60.6-12.6S236.5,60,236.5,60z"/>
	<ellipse class="st1" cx="56" cy="67.2" rx="52" ry="51.9"/>
	<ellipse class="st1" cx="112.5" cy="188.8" rx="52" ry="51.9"/>
	<ellipse class="st1" cx="200.1" cy="97.1" rx="52" ry="51.9"/>
	<ellipse class="st11" cx="35.1" cy="54.5" rx="10.5" ry="10.5"/>
	<ellipse class="st11" cx="45.6" cy="92.8" rx="7" ry="7"/>
	<ellipse class="st43" cx="78.9" cy="49.3" rx="4.1" ry="4.1"/>
	<ellipse class="st11" cx="139.3" cy="182.2" rx="10.5" ry="10.5"/>
	<ellipse class="st11" cx="89.3" cy="196.2" rx="10.5" ry="10.5"/>
	<ellipse class="st43" cx="103.9" cy="166.6" rx="4.1" ry="4.1"/>
	<ellipse class="st43" cx="128.8" cy="218.6" rx="4.1" ry="4.1"/>
	<ellipse class="st11" cx="202.3" cy="77.7" rx="10.5" ry="10.5"/>
	<ellipse class="st43" cx="183.6" cy="112.4" rx="4.1" ry="4.1"/>
	<ellipse class="st43" cx="225" cy="108.2" rx="4.1" ry="4.1"/>
</g>
</svg>
