<?xml version="1.0" encoding="utf-8"?>
<!-- Generator: Adobe Illustrator 21.1.0, SVG Export Plug-In . SVG Version: 6.00 Build 0)  -->
<svg version="1.1" id="Icon_Set" xmlns="http://www.w3.org/2000/svg" xmlns:xlink="http://www.w3.org/1999/xlink" x="0px" y="0px"
	 viewBox="0 0 512 512" style="enable-background:new 0 0 512 512;" xml:space="preserve">
<style type="text/css">
	.st0{fill:#FFFFFF;}
	.st1{fill:#5B7C31;}
	.st2{fill:#E56823;}
	.st3{fill:#FE8E46;}
	.st4{fill:#7DAC51;}
	.st5{fill:#463218;}
	.st6{fill:#FEFE71;}
	.st7{fill:#D6CD1E;}
	.st8{fill:none;stroke:#FFFFFF;stroke-width:14;stroke-miterlimit:10;}
	.st9{fill:none;stroke:#463218;stroke-width:14;stroke-linecap:round;stroke-linejoin:round;stroke-miterlimit:10;}
</style>
<g id="Toast">
	<g>
		<g>
			<g>
				<path class="st3" d="M170.3,211.8c0-33.7,35-61.9,81.5-68.3c-6.6-0.9-13.5-1.4-20.5-1.4c-56.3,0-93.7,31.2-93.7,69.7
					c0,17.9,9.9,34.3,26.2,46.6v111.4h32.7V258.5C180.2,246.1,170.3,229.8,170.3,211.8z"/>
			</g>
		</g>
	</g>
	<g>
		<g>
			<g>
				<path class="st7" d="M374.3,211.8c0-38.5-45.7-69.7-102-69.7s-102,31.2-102,69.7c0,17.9,9.9,34.3,26.2,46.6v111.4h151.7V258.5
					C364.4,246.1,374.3,229.8,374.3,211.8z"/>
			</g>
		</g>
	</g>
	<g>
		<g>
			<g>
				<path class="st6" d="M221.5,344.9v-98.8l-9.9-7.5c-6.1-4.6-16.3-14.2-16.3-26.7c0-21.2,31.6-44.7,77-44.7s77,23.6,77,44.7
					c0,12.5-10.2,22.1-16.3,26.7l-9.9,7.5v98.8H221.5z"/>
			</g>
		</g>
	</g>
	<g>
		<g>
			<g>
				<rect x="163.8" y="258.5" class="st2" width="32.7" height="111.4"/>
			</g>
		</g>
	</g>
	<g>
		<g>
			<g>
				<path class="st5" d="M348.2,376.9H196.5c-3.9,0-7-3.1-7-7v-108c-16.9-13.9-26.2-31.5-26.2-50c0-21,11.7-40.6,32.9-55.1
					c20.4-14,47.4-21.7,76.1-21.7s55.7,7.7,76.1,21.7c21.2,14.5,32.9,34.1,32.9,55.1c0,18.5-9.3,36.2-26.2,50v108
					C355.2,373.8,352,376.9,348.2,376.9z M203.5,362.9h137.7V258.5c0-2.2,1-4.3,2.8-5.6c15.1-11.5,23.4-26,23.4-41.1
					c0-34.6-42.6-62.7-95-62.7c-52.4,0-95,28.1-95,62.7c0,15,8.3,29.6,23.4,41.1c1.7,1.3,2.8,3.4,2.8,5.6V362.9z"/>
			</g>
		</g>
	</g>
	<g>
		<g>
			<g>
				<path class="st5" d="M196.5,376.9h-32.7c-3.9,0-7-3.1-7-7v-108c-16.9-13.9-26.2-31.5-26.2-50c0-21.2,10.1-40.7,28.5-54.9
					c18.3-14.1,44-21.9,72.3-21.9c7.2,0,14.4,0.5,21.5,1.5c3.5,0.5,6,3.4,6,6.9c0,3.5-2.6,6.5-6,6.9c-43.7,6.1-75.5,31.9-75.5,61.4
					c0,15,8.3,29.6,23.4,41.1c1.7,1.3,2.8,3.4,2.8,5.6v111.4C203.5,373.8,200.4,376.9,196.5,376.9z M170.8,362.9h18.7v-101
					c-16.9-13.9-26.2-31.5-26.2-50c0-18.3,9.2-36,25.9-49.8c4.5-3.7,9.5-7.1,14.8-10.1c-14.1,3.1-26.5,8.5-36.4,16.1
					c-14.8,11.4-23,27-23,43.8c0,15,8.3,29.6,23.4,41.1c1.7,1.3,2.8,3.4,2.8,5.6V362.9z"/>
			</g>
		</g>
	</g>
	<g>
		<g>
			<g>
				<rect x="316.2" y="274.4" class="st0" width="14" height="39.8"/>
			</g>
		</g>
	</g>
</g>
</svg>
