<?xml version="1.0" encoding="utf-8"?>
<!-- Generator: Adobe Illustrator 22.1.0, SVG Export Plug-In . SVG Version: 6.00 Build 0)  -->
<svg version="1.1" id="Layer_1" xmlns="http://www.w3.org/2000/svg" xmlns:xlink="http://www.w3.org/1999/xlink" x="0px" y="0px"
	 viewBox="0 0 256 256" style="enable-background:new 0 0 256 256;" xml:space="preserve">
<style type="text/css">
	.st0{fill:#F5B31F;}
	.st1{fill:none;stroke:#464646;stroke-width:8;stroke-linecap:round;stroke-linejoin:round;stroke-miterlimit:10;}
	.st2{opacity:0.15;fill:#464646;}
	.st3{fill:#AC6535;}
	.st4{fill:#EB573B;}
	.st5{fill:#90C056;}
	.st6{opacity:0.35;fill:#FFFFFF;}
	.st7{opacity:0.2;fill:#FFFFFF;}
	.st8{fill:#F6D67A;}
	.st9{opacity:0.15;fill:#FFFFFF;}
	.st10{opacity:0.3;fill:#FFFFFF;}
	.st11{fill:#AC6535;stroke:#464646;stroke-width:8;stroke-linecap:round;stroke-linejoin:round;stroke-miterlimit:10;}
	.st12{fill:#EB573B;stroke:#464646;stroke-width:8;stroke-miterlimit:10;}
	.st13{opacity:0.15;}
	.st14{fill:#464646;}
	.st15{fill:#FFA755;}
	.st16{fill:#8FAE3C;}
	.st17{fill:#BE6BB2;}
	.st18{fill:#B7C536;}
	.st19{opacity:0.1;}
	.st20{fill:#9D5A96;}
	.st21{fill:#EA615D;}
	.st22{opacity:0.4;fill:#FFFFFF;}
	.st23{opacity:7.000000e-02;}
	.st24{fill:#F79932;}
	.st25{fill:#FFEC97;}
	.st26{fill:#FFD11D;}
	.st27{opacity:0.2;}
	.st28{fill:#FFFFFF;}
	.st29{fill:#F7F2D5;}
	.st30{fill:#F6AF72;}
	.st31{fill:#BA6C45;}
	.st32{opacity:0.5;fill:#FFFFFF;}
	.st33{fill:#E4C074;}
	.st34{fill:none;stroke:#656566;stroke-width:8;stroke-linecap:round;stroke-linejoin:round;stroke-miterlimit:10;}
	.st35{fill:#FFA755;stroke:#464646;stroke-width:8;stroke-linecap:round;stroke-linejoin:round;stroke-miterlimit:10;}
	.st36{fill:#FFD11D;stroke:#464646;stroke-width:8;stroke-linecap:round;stroke-linejoin:round;stroke-miterlimit:10;}
	.st37{fill:#FACD1F;}
	.st38{fill:#FFDF66;}
	.st39{fill:#FFEC97;stroke:#464646;stroke-width:8;stroke-linecap:round;stroke-linejoin:round;stroke-miterlimit:10;}
	.st40{fill:#FFDF66;stroke:#464646;stroke-width:8;stroke-linecap:round;stroke-linejoin:round;stroke-miterlimit:10;}
	.st41{opacity:0.2;fill:#464646;}
	.st42{fill:#FFFFFF;stroke:#464646;stroke-width:8;stroke-linecap:round;stroke-linejoin:round;stroke-miterlimit:10;}
	.st43{fill:#6D6E71;stroke:#464646;stroke-width:8;stroke-linecap:round;stroke-linejoin:round;stroke-miterlimit:10;}
	.st44{opacity:0.1;fill:#464646;}
	.st45{fill:#E77CAE;}
	.st46{fill:#FFE5C4;}
	.st47{fill:#F68455;stroke:#464646;stroke-width:8;stroke-linecap:round;stroke-linejoin:round;stroke-miterlimit:10;}
	.st48{opacity:0.7;}
	.st49{fill:#ADEDFF;}
	.st50{fill:#EC754B;}
	.st51{fill:#4AA5BA;}
	.st52{opacity:0.5;}
	.st53{opacity:0.8;}
	.st54{fill:#F68455;}
	.st55{fill:#92A5AC;}
	.st56{fill:#6D6E71;}
	.st57{fill:#D06E3C;}
	.st58{fill:#DA4F4B;}
	.st59{fill:#BDF3FF;}
	.st60{fill:#F18BB4;}
	.st61{fill:#F9D97A;}
	.st62{fill:none;}
	.st63{fill:#AF6535;}
	.st64{fill:#B93226;}
	.st65{fill:#FF6050;}
	.st66{fill:#D06E3C;stroke:#464646;stroke-miterlimit:10;}
	.st67{fill:#EA7CB1;}
	.st68{fill:none;stroke:#6D6E71;stroke-width:10;stroke-linecap:round;stroke-linejoin:round;stroke-miterlimit:10;}
	.st69{fill:#00B0E0;}
	.st70{fill:#EA7DAE;}
	.st71{opacity:0.1;fill:#FFFFFF;}
	.st72{fill:#BC7532;}
	.st73{fill:#876C6C;}
	.st74{fill:#F9F6CD;}
	.st75{fill:#FFE37B;}
	.st76{fill:#1DDCFF;}
	.st77{fill:#60ACF7;}
	.st78{fill:#C3755A;}
	.st79{fill:#96557A;}
	.st80{fill:#66625D;}
	.st81{fill:#D68032;}
	.st82{opacity:0.8;fill:#FFFFFF;}
	.st83{fill:#F2A355;}
	.st84{fill:#7E9E6A;}
	.st85{opacity:0.3;}
	.st86{fill:#965A85;}
	.st87{opacity:0.7;fill:#FFFFFF;}
	.st88{fill:#90CAD3;}
	.st89{fill:#94B57F;}
	.st90{fill:#B2E2E7;}
	.st91{fill:#FFDF8F;}
	.st92{fill:#FFFAEB;}
	.st93{fill:#F88916;}
	.st94{fill:#FFC86E;}
	.st95{fill:#AFA51D;}
	.st96{fill:#968A1C;}
	.st97{fill:#C3556D;}
</style>
<g>
	<ellipse class="st28" cx="84" cy="50.1" rx="79.9" ry="33"/>
	<ellipse class="st54" cx="84" cy="50.1" rx="30.8" ry="12.7"/>
	<path class="st44" d="M84,17.1c44.1,0,79.9,14.8,79.9,33c0,18.2-35.8,33-79.9,33C160.4,83.1,160.4,17.1,84,17.1z"/>
	<ellipse class="st1" cx="84" cy="50.1" rx="79.9" ry="33"/>
	<ellipse class="st1" cx="84" cy="50.1" rx="30.8" ry="12.7"/>
	<path class="st56" d="M163.9,50.1l0,94.4c0,18.2-35.8,33-79.9,33c-44.1,0-79.9-14.8-79.9-33l0-94.4c0,18.2,35.8,33,79.9,33
		S163.9,68.4,163.9,50.1z"/>
	<path class="st9" d="M84,83.1C39.8,83.1,4,68.3,4,50.1l0,94.4c0,5.9,3.7,11.4,10.2,16.2c0,0-1.2-49.5,14.2-61.7S84,83.1,84,83.1z"
		/>
	<path class="st1" d="M163.9,50.1l0,94.4c0,18.2-35.8,33-79.9,33c-44.1,0-79.9-14.8-79.9-33l0-94.4c0,18.2,35.8,33,79.9,33
		S163.9,68.4,163.9,50.1z"/>
	<path class="st9" d="M172.1,144.8c-44.1,0-79.9-14.8-79.9-33l0,94.4c0,7.3,5.7,14,15.3,19.4c0,0-1.8-52,7.3-61.9
		S172.1,144.8,172.1,144.8z"/>
	<ellipse class="st28" cx="172.1" cy="111.8" rx="79.9" ry="33"/>
	<ellipse class="st54" cx="172.1" cy="111.8" rx="30.8" ry="12.7"/>
	<path class="st44" d="M172.1,78.7c44.1,0,79.9,14.8,79.9,33c0,18.2-35.8,33-79.9,33C244.4,144.8,244.4,78.7,172.1,78.7z"/>
	<ellipse class="st1" cx="172.1" cy="111.8" rx="79.9" ry="33"/>
	<ellipse class="st1" cx="172.1" cy="111.8" rx="30.8" ry="12.7"/>
	<path class="st56" d="M252,111.8l0,94.4c0,18.2-35.8,33-79.9,33c-44.1,0-79.9-14.8-79.9-33l0-94.4c0,18.2,35.8,33,79.9,33
		C216.2,144.8,252,130,252,111.8z"/>
	<path class="st2" d="M252,111.8l0,94.4c0,18.2-35.8,33-79.9,33c-44.1,0-79.9-14.8-79.9-33c0,0,80.1,27.9,119.9,8.8
		S252,111.8,252,111.8z"/>
	<path class="st1" d="M252,111.8l0,94.4c0,18.2-35.8,33-79.9,33c-44.1,0-79.9-14.8-79.9-33l0-94.4c0,18.2,35.8,33,79.9,33
		C216.2,144.8,252,130,252,111.8z"/>
</g>
</svg>
