<?xml version="1.0" encoding="utf-8"?>
<!-- Generator: Adobe Illustrator 22.1.0, SVG Export Plug-In . SVG Version: 6.00 Build 0)  -->
<svg version="1.1" id="Layer_1" xmlns="http://www.w3.org/2000/svg" xmlns:xlink="http://www.w3.org/1999/xlink" x="0px" y="0px"
	 viewBox="0 0 256 256" style="enable-background:new 0 0 256 256;" xml:space="preserve">
<style type="text/css">
	.st0{fill:#F5B31F;}
	.st1{fill:none;stroke:#464646;stroke-width:8;stroke-linecap:round;stroke-linejoin:round;stroke-miterlimit:10;}
	.st2{opacity:0.15;fill:#464646;}
	.st3{fill:#AC6535;}
	.st4{fill:#EB573B;}
	.st5{fill:#90C056;}
	.st6{opacity:0.35;fill:#FFFFFF;}
	.st7{opacity:0.2;fill:#FFFFFF;}
	.st8{fill:#F6D67A;}
	.st9{opacity:0.15;fill:#FFFFFF;}
	.st10{opacity:0.3;fill:#FFFFFF;}
	.st11{fill:#AC6535;stroke:#464646;stroke-width:8;stroke-linecap:round;stroke-linejoin:round;stroke-miterlimit:10;}
	.st12{fill:#EB573B;stroke:#464646;stroke-width:8;stroke-miterlimit:10;}
	.st13{opacity:0.15;}
	.st14{fill:#464646;}
	.st15{fill:#FFA755;}
	.st16{fill:#8FAE3C;}
	.st17{fill:#BE6BB2;}
	.st18{fill:#B7C536;}
	.st19{opacity:0.1;}
	.st20{fill:#9D5A96;}
	.st21{fill:#EA615D;}
	.st22{opacity:0.4;fill:#FFFFFF;}
	.st23{opacity:7.000000e-02;}
	.st24{fill:#F79932;}
	.st25{fill:#FFEC97;}
	.st26{fill:#FFD11D;}
	.st27{opacity:0.2;}
	.st28{fill:#FFFFFF;}
	.st29{fill:#F7F2D5;}
	.st30{fill:#F6AF72;}
	.st31{fill:#BA6C45;}
	.st32{opacity:0.5;fill:#FFFFFF;}
	.st33{fill:#E4C074;}
	.st34{fill:none;stroke:#656566;stroke-width:8;stroke-linecap:round;stroke-linejoin:round;stroke-miterlimit:10;}
	.st35{fill:#FFA755;stroke:#464646;stroke-width:8;stroke-linecap:round;stroke-linejoin:round;stroke-miterlimit:10;}
	.st36{fill:#FFD11D;stroke:#464646;stroke-width:8;stroke-linecap:round;stroke-linejoin:round;stroke-miterlimit:10;}
	.st37{fill:#FACD1F;}
	.st38{fill:#FFDF66;}
	.st39{fill:#FFEC97;stroke:#464646;stroke-width:8;stroke-linecap:round;stroke-linejoin:round;stroke-miterlimit:10;}
	.st40{fill:#FFDF66;stroke:#464646;stroke-width:8;stroke-linecap:round;stroke-linejoin:round;stroke-miterlimit:10;}
	.st41{opacity:0.2;fill:#464646;}
	.st42{fill:#FFFFFF;stroke:#464646;stroke-width:8;stroke-linecap:round;stroke-linejoin:round;stroke-miterlimit:10;}
	.st43{fill:#6D6E71;stroke:#464646;stroke-width:8;stroke-linecap:round;stroke-linejoin:round;stroke-miterlimit:10;}
	.st44{opacity:0.1;fill:#464646;}
	.st45{fill:#E77CAE;}
	.st46{fill:#FFE5C4;}
	.st47{fill:#F68455;stroke:#464646;stroke-width:8;stroke-linecap:round;stroke-linejoin:round;stroke-miterlimit:10;}
	.st48{opacity:0.7;}
	.st49{fill:#ADEDFF;}
	.st50{fill:#EC754B;}
	.st51{fill:#4AA5BA;}
	.st52{opacity:0.5;}
	.st53{opacity:0.8;}
	.st54{fill:#F68455;}
	.st55{fill:#92A5AC;}
	.st56{fill:#6D6E71;}
	.st57{fill:#D06E3C;}
	.st58{fill:#DA4F4B;}
	.st59{fill:#BDF3FF;}
	.st60{fill:#F18BB4;}
	.st61{fill:#F9D97A;}
	.st62{fill:none;}
	.st63{fill:#AF6535;}
	.st64{fill:#B93226;}
	.st65{fill:#FF6050;}
	.st66{fill:#D06E3C;stroke:#464646;stroke-miterlimit:10;}
	.st67{fill:#EA7CB1;}
	.st68{fill:none;stroke:#6D6E71;stroke-width:10;stroke-linecap:round;stroke-linejoin:round;stroke-miterlimit:10;}
	.st69{fill:#00B0E0;}
	.st70{fill:#EA7DAE;}
	.st71{opacity:0.1;fill:#FFFFFF;}
	.st72{fill:#BC7532;}
	.st73{fill:#876C6C;}
	.st74{fill:#F9F6CD;}
	.st75{fill:#FFE37B;}
	.st76{fill:#1DDCFF;}
	.st77{fill:#60ACF7;}
	.st78{fill:#C3755A;}
	.st79{fill:#96557A;}
	.st80{fill:#66625D;}
	.st81{fill:#D68032;}
	.st82{opacity:0.8;fill:#FFFFFF;}
	.st83{fill:#F2A355;}
	.st84{fill:#7E9E6A;}
	.st85{opacity:0.3;}
	.st86{fill:#965A85;}
	.st87{opacity:0.7;fill:#FFFFFF;}
	.st88{fill:#90CAD3;}
	.st89{fill:#94B57F;}
	.st90{fill:#B2E2E7;}
	.st91{fill:#FFDF8F;}
	.st92{fill:#FFFAEB;}
	.st93{fill:#F88916;}
	.st94{fill:#FFC86E;}
	.st95{fill:#AFA51D;}
	.st96{fill:#968A1C;}
	.st97{fill:#C3556D;}
</style>
<g>
	<path class="st4" d="M128.3,230.4c-88,0-153.8-73.9-110.7-143.5c19.4-30.3,52.8-30.4,78.3-26.3c4.4,5.6,9.4,9.7,14.3,10.1
		C92,76.9,83.7,89.6,84,108c7.7-13.3,18.2-27.5,30.9-27.6c7.4,0.2,29.6,11.7,39.5,11.5c15.8,0.3,19.1,19.6,19.1,19.6
		c7.1-3.5,0-27.4-25.4-31c16.1,0.5,37.5-8.7,35.3-9.5c-2.4-0.9-23,2.1-34-1.2c6.5-1.5,14.6-6.3,20.9-11.1
		c23.6-2.7,51.2,0.3,68.3,26.9C281.5,155.3,216.2,230.4,128.3,230.4z"/>
	<path class="st19" d="M86.2,60.3c0,0,7.6,7.3,5.7,8.4c-2.9,1.8-22.7,22.2-19,40.3c1,8.1,9.8,12.7,16.1,6.8c0,0,17.2-26.7,24-27
		c6.8-0.2,38.9,11.8,44.8,13.7c5.9,1.9,8,15.2,8,15.2c2.7,6.4,18.4,6.2,22-3.9c3.9-10.7-11-25.2-12.3-28.2
		c-1.3-2.9,18.6-5,17.5-16.1c-1.1-11.1-17.7-6.2-17.7-6.2l2.8-4l-6.5,0.1L159,67l23.7,3.7l-20.5,9.7l15.8,31.1
		c-6.7-14-22.5-21.1-42.6-24.8c-10.9-4.5-21.7-7.8-31.7-4.1L82,103.9c1.8-13.6,8.3-25.1,23-33L94.7,60.5L86.2,60.3z"/>
	<path class="st19" d="M4,133.3c1,52.5,56,97.1,124.3,97.1c88,0,153.2-75.1,110.1-144.7c-17-26.6-44.7-29.6-68.3-26.9
		C237.8,88.3,237,160,193.7,189.1S59.7,225.8,4,133.3z"/>
	<path class="st16" d="M148,80.6c25.4,3.6,32.5,27.4,25.4,31c0,0-3.3-19.4-19.1-19.6c-9.9,0.1-32.1-11.3-39.5-11.5
		C102.1,80.6,91.7,94.7,84,108c-0.2-18.4,8.1-31.1,26.1-37.3c-4.9-0.4-9.8-4.5-14.3-10.1C85.1,47.2,77.2,25.2,78.9,25.2
		c2.4,0,10.7,26.5,44.8,35.1c1.3-11.1,10.3-27.1,14.9-27.1c4.5,0,9.9,5,9.6,7.7c-0.3,2.7-9.1,10.1-12.5,17.8
		c16.5,1.3,41.6-12.6,43.9-10.6c1.2,1-3.2,5.7-9.5,10.6c-6.3,4.8-14.4,9.6-20.9,11.1c11,3.3,31.6,0.3,34,1.2
		C185.5,72,164.1,81.1,148,80.6z"/>
	<path class="st1" d="M128.3,230.4c-88,0-153.8-73.9-110.7-143.5c19.4-30.3,52.8-30.4,78.3-26.3c4.4,5.6,9.4,9.7,14.3,10.1
		C92,76.9,83.7,89.6,84,108c7.7-13.3,18.2-27.5,30.9-27.6c7.4,0.2,29.6,11.7,39.5,11.5c15.8,0.3,19.1,19.6,19.1,19.6
		c7.1-3.5,0-27.4-25.4-31c16.1,0.5,37.5-8.7,35.3-9.5c-2.4-0.9-23,2.1-34-1.2c6.5-1.5,14.6-6.3,20.9-11.1
		c23.6-2.7,51.2,0.3,68.3,26.9C281.5,155.3,216.2,230.4,128.3,230.4z"/>
	<path class="st1" d="M148,80.6c25.4,3.6,32.5,27.4,25.4,31c0,0-3.3-19.4-19.1-19.6c-9.9,0.1-32.1-11.3-39.5-11.5
		C102.1,80.6,91.7,94.7,84,108c-0.2-18.4,8.1-31.1,26.1-37.3c-4.9-0.4-9.8-4.5-14.3-10.1C85.1,47.2,77.2,25.2,78.9,25.2
		c2.4,0,10.7,26.5,44.8,35.1c1.3-11.1,10.3-27.1,14.9-27.1c4.5,0,9.9,5,9.6,7.7c-0.3,2.7-9.1,10.1-12.5,17.8
		c16.5,1.3,41.6-12.6,43.9-10.6c1.2,1-3.2,5.7-9.5,10.6c-6.3,4.8-14.4,9.6-20.9,11.1c11,3.3,31.6,0.3,34,1.2
		C185.5,72,164.1,81.1,148,80.6z"/>
	<path class="st1" d="M25.3,111.6c-5.5,41.2,9.7,64.6,36.8,83.9"/>
</g>
</svg>
