<?xml version="1.0" encoding="utf-8"?>
<!-- Generator: Adobe Illustrator 21.1.0, SVG Export Plug-In . SVG Version: 6.00 Build 0)  -->
<svg version="1.1" id="Icon_Set" xmlns="http://www.w3.org/2000/svg" xmlns:xlink="http://www.w3.org/1999/xlink" x="0px" y="0px"
	 viewBox="0 0 512 512" style="enable-background:new 0 0 512 512;" xml:space="preserve">
<style type="text/css">
	.st0{fill:#FFFFFF;}
	.st1{fill:#5B7C31;}
	.st2{fill:#E56823;}
	.st3{fill:#FE8E46;}
	.st4{fill:#7DAC51;}
	.st5{fill:#463218;}
	.st6{fill:#FEFE71;}
	.st7{fill:#D6CD1E;}
	.st8{fill:none;stroke:#FFFFFF;stroke-width:14;stroke-miterlimit:10;}
	.st9{fill:none;stroke:#463218;stroke-width:14;stroke-linecap:round;stroke-linejoin:round;stroke-miterlimit:10;}
</style>
<g id="Vegan">
	<g>
		<g>
			<g>
				<polygon class="st6" points="281.1,378 230.9,378 204.8,234.7 307.2,234.7 				"/>
			</g>
		</g>
	</g>
	<g>
		<g>
			<g>
				<path class="st5" d="M281.1,385h-50.1c-3.4,0-6.3-2.4-6.9-5.7L197.9,236c-0.4-2,0.2-4.1,1.5-5.7s3.3-2.5,5.4-2.5h102.4
					c2.1,0,4,0.9,5.4,2.5s1.9,3.7,1.5,5.7l-26.1,143.3C287.3,382.6,284.4,385,281.1,385z M236.8,371h38.4l23.6-129.3h-85.6
					L236.8,371z"/>
			</g>
		</g>
	</g>
	<g>
		<g>
			<g>
				<path class="st4" d="M321.6,208.7c4.7-35.9-20.5-69-56.4-74c-36.2-5-69.6,20.2-74.6,56.4c-0.8,6-0.8,11.9-0.1,17.7
					c-24.4,2.4-43.4,23-43.4,48c0,26.7,21.6,48.3,48.3,48.3c23.9,0,43.7-17.3,47.6-40.1c1.3,0.3,2.6,0.5,4,0.7
					c7.6,1.1,15.1,0.8,22.3-0.7c3.9,22.7,23.7,40,47.6,40c26.7,0,48.3-21.6,48.3-48.3C365,231.7,345.9,211.1,321.6,208.7z"/>
			</g>
		</g>
	</g>
	<g>
		<g>
			<g>
				<g>
					<path class="st1" d="M331.1,210.6c5.6,7.9,8.8,17.5,8.8,27.8c0,26.7-21.6,48.3-48.3,48.3c-5,0-9.8-0.8-14.4-2.2
						c8.7,12.4,23.1,20.4,39.4,20.4c26.7,0,48.3-21.6,48.3-48.3C365,235.1,350.7,216.7,331.1,210.6z"/>
				</g>
			</g>
		</g>
	</g>
	<g>
		<g>
			<g>
				<g>
					<path class="st1" d="M192.4,302.6c-2-1.3-3.7-3-5-5c-25.7-37.3-1.9-77.1,32.6-80.5c-0.7-5.7-0.8-11.7,0.1-17.7
						c4.8-34.1,34.7-58.4,68.4-56.9c-7-4-14.9-6.7-23.3-7.9c-36.2-5-69.6,20.2-74.6,56.4c-0.8,6-0.8,11.9-0.1,17.7
						c-34.5,3.5-58.3,43.2-32.6,80.5c1.3,2,3,3.7,5,5c11.2,7.7,22.6,11,33.2,10.8C194.8,304.3,193.6,303.5,192.4,302.6z"/>
				</g>
			</g>
		</g>
	</g>
	<g>
		<g>
			<g>
				<path class="st5" d="M316.7,312c-24.7,0-45.9-16.1-52.9-39.1c-5.2,0.6-10.4,0.6-15.6,0c-7,23-28.2,39.1-52.9,39.1
					c-30.5,0-55.3-24.8-55.3-55.3c0-26.2,18-48.3,42.9-53.9c-0.2-4.3,0.1-8.5,0.7-12.8c5.6-39.9,42.6-67.9,82.5-62.3
					c37.3,5.2,64.3,38.1,63,75.1c24.9,5.6,42.9,27.7,42.9,53.9C372,287.2,347.2,312,316.7,312z M269.1,258c1.4,0,2.8,0.4,4,1.2
					c1.6,1.1,2.6,2.7,2.9,4.6c3.4,19.8,20.5,34.2,40.7,34.2c22.8,0,41.3-18.5,41.3-41.3c0-21.3-16-39-37.1-41.1
					c-1.9-0.2-3.6-1.1-4.8-2.6c-1.2-1.5-1.7-3.4-1.5-5.3c4.2-32-18.5-61.7-50.4-66.2c-32.3-4.5-62.2,18.1-66.7,50.4
					c-0.7,5.2-0.8,10.5-0.1,15.8c0.2,1.9-0.3,3.8-1.5,5.3c-1.2,1.5-2.9,2.4-4.8,2.6c-21.2,2.1-37.1,19.8-37.1,41.1
					c0,22.8,18.5,41.3,41.3,41.3c20.2,0,37.3-14.4,40.7-34.2c0.3-1.9,1.4-3.5,2.9-4.6c1.6-1.1,3.5-1.5,5.3-1.1
					c1.4,0.3,2.5,0.5,3.6,0.6c6.6,0.9,13.3,0.7,19.9-0.6C268.2,258,268.7,258,269.1,258z"/>
			</g>
		</g>
	</g>
	<g>
		<g>
			<g>
				<path class="st0" d="M304.3,201.3h-14c0-18.9-15.4-34.3-34.3-34.3v-14C282.6,153,304.3,174.6,304.3,201.3z"/>
			</g>
		</g>
	</g>
	<g>
		<g>
			<g>
				<path class="st5" d="M256,340.8c-3.9,0-7-3.1-7-7v-67.5c0-3.9,3.1-7,7-7s7,3.1,7,7v67.5C263,337.6,259.9,340.8,256,340.8z"/>
			</g>
		</g>
	</g>
</g>
</svg>
