<?xml version="1.0" encoding="utf-8"?>
<!-- Generator: Adobe Illustrator 21.1.0, SVG Export Plug-In . SVG Version: 6.00 Build 0)  -->
<svg version="1.1" id="Icon_Set" xmlns="http://www.w3.org/2000/svg" xmlns:xlink="http://www.w3.org/1999/xlink" x="0px" y="0px"
	 viewBox="0 0 512 512" style="enable-background:new 0 0 512 512;" xml:space="preserve">
<style type="text/css">
	.st0{fill:#FFFFFF;}
	.st1{fill:#5B7C31;}
	.st2{fill:#E56823;}
	.st3{fill:#FE8E46;}
	.st4{fill:#7DAC51;}
	.st5{fill:#463218;}
	.st6{fill:#FEFE71;}
	.st7{fill:#D6CD1E;}
	.st8{fill:none;stroke:#FFFFFF;stroke-width:14;stroke-miterlimit:10;}
	.st9{fill:none;stroke:#463218;stroke-width:14;stroke-linecap:round;stroke-linejoin:round;stroke-miterlimit:10;}
</style>
<g id="Vegetarian">
	<g>
		<g>
			<g>
				<g>
					<rect x="224.2" y="234" class="st6" width="64" height="143.3"/>
				</g>
			</g>
		</g>
		<g>
			<g>
				<g>
					<rect x="106.2" y="234" class="st7" width="118" height="143.3"/>
				</g>
			</g>
		</g>
		<g>
			<g>
				<g>
					<polygon class="st7" points="165.2,187 106.2,234 224.2,234 					"/>
				</g>
			</g>
		</g>
		<g>
			<g>
				<g>
					<rect x="165.2" y="154.3" class="st3" width="61.5" height="32.7"/>
				</g>
			</g>
		</g>
		<g>
			<g>
				<g>
					<polygon class="st6" points="229.2,187 165.2,187 224.2,234 288.2,234 					"/>
				</g>
			</g>
		</g>
		<g>
			<g>
				<g>
					<path class="st5" d="M224.2,384.3h-118c-3.9,0-7-3.1-7-7V234c0-3.9,3.1-7,7-7h118c3.9,0,7,3.1,7,7v143.3
						C231.2,381.1,228,384.3,224.2,384.3z M113.2,370.3h104V241h-104V370.3z"/>
				</g>
			</g>
		</g>
		<g>
			<g>
				<g>
					<path class="st5" d="M288.2,384.3h-64c-3.9,0-7-3.1-7-7V234c0-3.9,3.1-7,7-7h64c3.9,0,7,3.1,7,7v143.3
						C295.2,381.1,292,384.3,288.2,384.3z M231.2,370.3h50V241h-50V370.3z"/>
				</g>
			</g>
		</g>
		<g>
			<g>
				<g>
					<path class="st5" d="M224.2,241h-118c-3,0-5.6-1.9-6.6-4.7c-1-2.8-0.1-5.9,2.2-7.8l59-47c2.6-2,6.2-2,8.7,0l59,47
						c2.3,1.9,3.2,5,2.2,7.8C229.8,239.1,227.1,241,224.2,241z M126.2,227h78l-39-31.1L126.2,227z"/>
				</g>
			</g>
		</g>
		<g>
			<g>
				<g>
					<path class="st5" d="M288.2,241h-64c-1.6,0-3.1-0.5-4.4-1.5l-59-47c-2.3-1.9-3.2-5-2.2-7.8c1-2.8,3.6-4.7,6.6-4.7h64
						c1.6,0,3.1,0.5,4.4,1.5l59,47c2.3,1.9,3.2,5,2.2,7.8C293.8,239.1,291.1,241,288.2,241z M226.6,227h41.5l-41.4-33h-41.5
						L226.6,227z"/>
				</g>
			</g>
		</g>
		<g>
			<g>
				<g>
					<path class="st5" d="M226.7,194h-61.5c-3.9,0-7-3.1-7-7v-32.7c0-3.9,3.1-7,7-7h61.5c3.9,0,7,3.1,7,7V187
						C233.7,190.9,230.5,194,226.7,194z M172.2,180h47.5v-18.7h-47.5V180z"/>
				</g>
			</g>
		</g>
		<g>
			<g>
				<g>
					<rect x="125.4" y="254.7" class="st0" width="14" height="57.7"/>
				</g>
			</g>
		</g>
	</g>
	<g>
		<g>
			<g>
				<g>
					<path class="st4" d="M326.4,134.7c-9.1,7.2-10.1,35.6-6.4,47.4c3.7,11.7,14.3,19.4,25.9,20c9.1-7.2,13.3-19.5,9.6-31.3
						C351.8,159.1,338.1,135.3,326.4,134.7z"/>
				</g>
			</g>
		</g>
		<g>
			<g>
				<g>
					<path class="st1" d="M405.8,189.6c-5.1-7.5-27.1-9.8-36.4-7.5c-9.3,2.3-15.8,10.1-16.9,19.1c5.1,7.5,14.5,11.4,23.8,9.1
						C385.6,208,404.7,198.5,405.8,189.6z"/>
				</g>
			</g>
		</g>
		<g>
			<g>
				<g>
					<path class="st3" d="M345.1,204.2L345.1,204.2c-21.8-9-44.8-1.5-49.5,16.1l-35.3,132.4c-2.3,8.4,4,18.2,14.5,22.5l0,0
						c10.5,4.3,21.7,1.8,26.1-5.8l68.1-118.9C378,234.7,366.9,213.2,345.1,204.2z"/>
				</g>
			</g>
		</g>
		<g>
			<g>
				<g>
					<path class="st5" d="M285,384.3c-4.2,0-8.7-0.8-13-2.6c-13.7-5.7-21.7-18.9-18.6-30.7l35.3-132.4c2.4-8.9,8.6-16.3,17.5-20.7
						c11.9-5.9,27.4-5.9,41.5-0.1v0c14.1,5.8,25.1,16.8,29.4,29.3c3.2,9.4,2.5,19-2.1,27l-68.1,118.9
						C302.7,380.2,294.3,384.3,285,384.3z M326.3,207.4c-5,0-9.8,1-13.9,3c-3.7,1.8-8.5,5.3-10.2,11.7L267,354.5
						c-1.3,4.9,3.3,11.3,10.4,14.2c7,2.9,14.8,1.6,17.3-2.8L362.9,247c3.3-5.7,2.4-11.6,1-15.5c-3-8.8-11-16.6-21.5-20.9
						C337.1,208.5,331.6,207.4,326.3,207.4z"/>
				</g>
			</g>
		</g>
		<g>
			<g>
				<g>
					<path class="st5" d="M346,209.1c-0.1,0-0.2,0-0.4,0c-14.8-0.8-27.7-10.7-32.2-24.8c-4.3-13.5-3.6-45.3,8.7-55
						c1.3-1.1,3-1.6,4.7-1.5c17.2,0.9,32.2,30.8,35.4,40.9c4.5,14.1-0.3,29.7-11.9,38.9C349,208.5,347.5,209.1,346,209.1z
						 M328.9,142.8c-3.9,7.6-5.4,27.2-2.2,37.2c2.5,7.7,9.1,13.4,16.9,14.8c5.6-5.7,7.7-14.1,5.3-21.8
						C345.5,162.2,335.5,146.9,328.9,142.8z"/>
				</g>
			</g>
		</g>
		<g>
			<g>
				<g>
					<path class="st5" d="M371,217.9c-9.6,0-18.8-4.7-24.3-12.8c-1-1.4-1.4-3.1-1.2-4.8c1.5-12.1,10.4-22.1,22.2-25
						c10.8-2.6,36.4-0.7,43.9,10.3c1,1.4,1.4,3.1,1.2,4.8c-1.7,14.3-26.1,24.5-34.8,26.6C375.6,217.6,373.3,217.9,371,217.9z
						 M360,199.3c3.7,3.8,9.3,5.5,14.6,4.2c3.6-0.9,10.1-3.4,15.7-6.9c3.2-2,5.3-3.7,6.6-5c-6-2.6-18.8-4.4-25.9-2.6
						C365.8,190.1,361.6,194.2,360,199.3z"/>
				</g>
			</g>
		</g>
		<g>
			<g>
				<g>
					<path class="st5" d="M314.7,268.1c-0.9,0-1.8-0.2-2.7-0.5L285,256.4c-3.6-1.5-5.3-5.6-3.8-9.1c1.5-3.6,5.6-5.3,9.1-3.8
						l27.1,11.1c3.6,1.5,5.3,5.6,3.8,9.1C320.1,266.5,317.5,268.1,314.7,268.1z"/>
				</g>
			</g>
		</g>
		<g>
			<g>
				<g>
					<path class="st5" d="M327.9,327.8c-0.9,0-1.8-0.2-2.7-0.5l-18.1-7.5c-3.6-1.5-5.3-5.6-3.8-9.1c1.5-3.6,5.6-5.3,9.1-3.8
						l18.1,7.5c3.6,1.5,5.3,5.6,3.8,9.1C333.2,326.2,330.6,327.8,327.9,327.8z"/>
				</g>
			</g>
		</g>
	</g>
</g>
</svg>
