<?xml version="1.0" encoding="utf-8"?>
<!-- Generator: Adobe Illustrator 21.1.0, SVG Export Plug-In . SVG Version: 6.00 Build 0)  -->
<svg version="1.1" id="Icon_Set" xmlns="http://www.w3.org/2000/svg" xmlns:xlink="http://www.w3.org/1999/xlink" x="0px" y="0px"
	 viewBox="0 0 512 512" style="enable-background:new 0 0 512 512;" xml:space="preserve">
<style type="text/css">
	.st0{fill:#FFFFFF;}
	.st1{fill:#5B7C31;}
	.st2{fill:#E56823;}
	.st3{fill:#FE8E46;}
	.st4{fill:#7DAC51;}
	.st5{fill:#463218;}
	.st6{fill:#FEFE71;}
	.st7{fill:#D6CD1E;}
	.st8{fill:none;stroke:#FFFFFF;stroke-width:14;stroke-miterlimit:10;}
	.st9{fill:none;stroke:#463218;stroke-width:14;stroke-linecap:round;stroke-linejoin:round;stroke-miterlimit:10;}
</style>
<g id="Vodka">
	<g>
		<g>
			<g>
				<path class="st6" d="M277.7,189.5V94.6h-43.4v94.9c-27.4,9.1-47.2,34.9-47.2,65.4v183.6h137.8V254.9
					C324.9,224.4,305.1,198.6,277.7,189.5z"/>
			</g>
		</g>
	</g>
	<g>
		<g>
			<g>
				<path class="st7" d="M260.9,189.5V94.6h-26.5v94.9c-27.4,9.1-47.2,34.9-47.2,65.4v183.6h26.5V254.9
					C213.6,224.4,233.4,198.6,260.9,189.5z"/>
			</g>
		</g>
	</g>
	<g>
		<g>
			<g>
				<path class="st5" d="M324.9,445.5H187.1c-3.9,0-7-3.1-7-7V254.9c0-31.1,18.8-58.7,47.2-70.3V94.6c0-3.9,3.1-7,7-7h43.4
					c3.9,0,7,3.1,7,7v90.1c28.5,11.6,47.2,39.2,47.2,70.3v183.6C331.9,442.4,328.8,445.5,324.9,445.5z M194.1,431.5h123.8V254.9
					c0-26.7-17.1-50.4-42.4-58.8c-2.9-0.9-4.8-3.6-4.8-6.6v-87.9h-29.4v87.9c0,3-1.9,5.7-4.8,6.6c-25.4,8.4-42.4,32-42.4,58.8V431.5
					z"/>
			</g>
		</g>
	</g>
	<g>
		<g>
			<g>
				<rect x="217.8" y="73.5" class="st3" width="76.4" height="58.6"/>
			</g>
		</g>
	</g>
	<g>
		<g>
			<g>
				<rect x="217.8" y="73.5" class="st2" width="32" height="58.6"/>
			</g>
		</g>
	</g>
	<g>
		<g>
			<g>
				<path class="st5" d="M294.2,139h-76.4c-3.9,0-7-3.1-7-7V73.5c0-3.9,3.1-7,7-7h76.4c3.9,0,7,3.1,7,7V132
					C301.2,135.9,298.1,139,294.2,139z M224.8,125h62.4V80.5h-62.4V125z"/>
			</g>
		</g>
	</g>
	<g>
		<g>
			<g>
				<path class="st4" d="M240.2,383.7h84.8V254.9c0-5.4-0.6-10.6-1.8-15.6h-83V383.7z"/>
			</g>
		</g>
	</g>
	<g>
		<g>
			<g>
				<path class="st1" d="M240.2,383.7h35.6V254.9c0-5.4-0.3-10.6-0.8-15.6h-34.9V383.7z"/>
			</g>
		</g>
	</g>
	<g>
		<g>
			<g>
				<path class="st5" d="M324.9,390.7h-84.8c-3.9,0-7-3.1-7-7V239.3c0-3.9,3.1-7,7-7h83c3.3,0,6.1,2.2,6.8,5.4
					c1.3,5.6,2,11.4,2,17.2v128.8C331.9,387.6,328.8,390.7,324.9,390.7z M247.2,376.7h70.8V254.9c0-2.9-0.2-5.8-0.6-8.6h-70.2V376.7
					z"/>
			</g>
		</g>
	</g>
	<g>
		<g>
			<g>
				<rect x="291.4" y="262.4" class="st0" width="14" height="45.6"/>
			</g>
		</g>
	</g>
	<g>
		<g>
			<g>
				<rect x="291.4" y="319.4" class="st0" width="14" height="22.8"/>
			</g>
		</g>
	</g>
</g>
</svg>
