<?xml version="1.0" encoding="utf-8"?>
<!-- Generator: Adobe Illustrator 21.1.0, SVG Export Plug-In . SVG Version: 6.00 Build 0)  -->
<svg version="1.1" id="Icon_Set" xmlns="http://www.w3.org/2000/svg" xmlns:xlink="http://www.w3.org/1999/xlink" x="0px" y="0px"
	 viewBox="0 0 512 512" style="enable-background:new 0 0 512 512;" xml:space="preserve">
<style type="text/css">
	.st0{fill:#FFFFFF;}
	.st1{fill:#5B7C31;}
	.st2{fill:#E56823;}
	.st3{fill:#FE8E46;}
	.st4{fill:#7DAC51;}
	.st5{fill:#463218;}
	.st6{fill:#FEFE71;}
	.st7{fill:#D6CD1E;}
	.st8{fill:none;stroke:#FFFFFF;stroke-width:14;stroke-miterlimit:10;}
	.st9{fill:none;stroke:#463218;stroke-width:14;stroke-linecap:round;stroke-linejoin:round;stroke-miterlimit:10;}
</style>
<g id="Waffles">
	<g>
		<g>
			<g>
				<circle class="st3" cx="258.5" cy="256" r="136.5"/>
			</g>
		</g>
	</g>
	<g>
		<g>
			<g>
				<path class="st2" d="M256.1,392.5V256H122C122,330.6,181.8,391.2,256.1,392.5z"/>
			</g>
		</g>
	</g>
	<g>
		<g>
			<g>
				<path class="st0" d="M347.8,191.1c-9.6-12.7-22.1-23.5-36-31.1l6.7-12.3c15.7,8.5,29.7,20.6,40.5,34.9L347.8,191.1z"/>
			</g>
		</g>
	</g>
	<g>
		<g>
			<g>
				<circle class="st6" cx="258.5" cy="256" r="98.3"/>
			</g>
		</g>
	</g>
	<g>
		<g>
			<g>
				<path class="st5" d="M258.4,399.5c-76.4,0-140.1-60.5-143.3-137.5c-3.3-79,58.3-146.1,137.3-149.4
					c79-3.3,146.1,58.3,149.4,137.3c3.3,79-58.3,146.1-137.3,149.4C262.5,399.4,260.5,399.5,258.4,399.5z M258.6,126.5
					c-1.8,0-3.6,0-5.5,0.1c-71.3,3-126.9,63.5-123.9,134.8c2.9,69.5,60.4,124.1,129.3,124.1c1.8,0,3.6,0,5.5-0.1
					c71.3-3,126.9-63.5,123.9-134.8C385,181.1,327.5,126.5,258.6,126.5z"/>
			</g>
		</g>
	</g>
	<g>
		<g>
			<g>
				<path class="st7" d="M263.2,157.8c-1.6-0.1-3.1-0.1-4.7-0.1c-54.3,0-98.3,44-98.3,98.3h103V157.8z"/>
			</g>
		</g>
	</g>
	<g>
		<g>
			<g>
				<path class="st7" d="M258.5,354.3c54.3,0,98.3-44,98.3-98.3h-98.3V354.3z"/>
			</g>
		</g>
	</g>
	<g>
		<g>
			<g>
				<path class="st5" d="M258.5,361.3c-58.1,0-105.3-47.2-105.3-105.3s47.2-105.3,105.3-105.3S363.8,197.9,363.8,256
					S316.6,361.3,258.5,361.3z M258.5,164.7c-50.4,0-91.3,41-91.3,91.3s41,91.3,91.3,91.3s91.3-41,91.3-91.3
					S308.9,164.7,258.5,164.7z"/>
			</g>
		</g>
	</g>
	<g>
		<g>
			<g>
				<path class="st5" d="M256.1,361.3c-3.9,0-7-3.1-7-7V157.7c0-3.9,3.1-7,7-7s7,3.1,7,7v196.6C263.1,358.2,260,361.3,256.1,361.3z"
					/>
			</g>
		</g>
	</g>
	<g>
		<g>
			<g>
				<path class="st5" d="M354.4,263H160.2c-3.9,0-7-3.1-7-7s3.1-7,7-7h194.2c3.9,0,7,3.1,7,7S358.3,263,354.4,263z"/>
			</g>
		</g>
	</g>
	<g>
		<g>
			<g>
				<path class="st5" d="M221.8,324.3c-3.9,0-7-3.1-7-7V194.7c0-3.9,3.1-7,7-7s7,3.1,7,7v122.7C228.8,321.2,225.7,324.3,221.8,324.3
					z"/>
			</g>
		</g>
	</g>
	<g>
		<g>
			<g>
				<path class="st5" d="M289.7,324.3c-3.9,0-7-3.1-7-7V194.7c0-3.9,3.1-7,7-7s7,3.1,7,7v122.7C296.7,321.2,293.5,324.3,289.7,324.3
					z"/>
			</g>
		</g>
	</g>
	<g>
		<g>
			<g>
				<path class="st5" d="M317.4,229.6H194.8c-3.9,0-7-3.1-7-7s3.1-7,7-7h122.7c3.9,0,7,3.1,7,7S321.3,229.6,317.4,229.6z"/>
			</g>
		</g>
	</g>
	<g>
		<g>
			<g>
				<path class="st5" d="M317.4,296.4H194.8c-3.9,0-7-3.1-7-7s3.1-7,7-7h122.7c3.9,0,7,3.1,7,7S321.3,296.4,317.4,296.4z"/>
			</g>
		</g>
	</g>
</g>
</svg>
