<?xml version="1.0" encoding="utf-8"?>
<!-- Generator: Adobe Illustrator 22.1.0, SVG Export Plug-In . SVG Version: 6.00 Build 0)  -->
<svg version="1.1" id="Layer_1" xmlns="http://www.w3.org/2000/svg" xmlns:xlink="http://www.w3.org/1999/xlink" x="0px" y="0px"
	 viewBox="0 0 256 256" style="enable-background:new 0 0 256 256;" xml:space="preserve">
<style type="text/css">
	.st0{fill:#F5B31F;}
	.st1{fill:none;stroke:#464646;stroke-width:8;stroke-linecap:round;stroke-linejoin:round;stroke-miterlimit:10;}
	.st2{opacity:0.15;fill:#464646;}
	.st3{fill:#AC6535;}
	.st4{fill:#EB573B;}
	.st5{fill:#90C056;}
	.st6{opacity:0.35;fill:#FFFFFF;}
	.st7{opacity:0.2;fill:#FFFFFF;}
	.st8{fill:#F6D67A;}
	.st9{opacity:0.15;fill:#FFFFFF;}
	.st10{opacity:0.3;fill:#FFFFFF;}
	.st11{fill:#AC6535;stroke:#464646;stroke-width:8;stroke-linecap:round;stroke-linejoin:round;stroke-miterlimit:10;}
	.st12{fill:#EB573B;stroke:#464646;stroke-width:8;stroke-miterlimit:10;}
	.st13{opacity:0.15;}
	.st14{fill:#464646;}
	.st15{fill:#FFA755;}
	.st16{fill:#8FAE3C;}
	.st17{fill:#BE6BB2;}
	.st18{fill:#B7C536;}
	.st19{opacity:0.1;}
	.st20{fill:#9D5A96;}
	.st21{fill:#EA615D;}
	.st22{opacity:0.4;fill:#FFFFFF;}
	.st23{opacity:7.000000e-02;}
	.st24{fill:#F79932;}
	.st25{fill:#FFEC97;}
	.st26{fill:#FFD11D;}
	.st27{opacity:0.2;}
	.st28{fill:#FFFFFF;}
	.st29{fill:#F7F2D5;}
	.st30{fill:#F6AF72;}
	.st31{fill:#BA6C45;}
	.st32{opacity:0.5;fill:#FFFFFF;}
	.st33{fill:#E4C074;}
	.st34{fill:none;stroke:#656566;stroke-width:8;stroke-linecap:round;stroke-linejoin:round;stroke-miterlimit:10;}
	.st35{fill:#FFA755;stroke:#464646;stroke-width:8;stroke-linecap:round;stroke-linejoin:round;stroke-miterlimit:10;}
	.st36{fill:#FFD11D;stroke:#464646;stroke-width:8;stroke-linecap:round;stroke-linejoin:round;stroke-miterlimit:10;}
	.st37{fill:#FACD1F;}
	.st38{fill:#FFDF66;}
	.st39{fill:#FFEC97;stroke:#464646;stroke-width:8;stroke-linecap:round;stroke-linejoin:round;stroke-miterlimit:10;}
	.st40{fill:#FFDF66;stroke:#464646;stroke-width:8;stroke-linecap:round;stroke-linejoin:round;stroke-miterlimit:10;}
	.st41{opacity:0.2;fill:#464646;}
	.st42{fill:#FFFFFF;stroke:#464646;stroke-width:8;stroke-linecap:round;stroke-linejoin:round;stroke-miterlimit:10;}
	.st43{fill:#6D6E71;stroke:#464646;stroke-width:8;stroke-linecap:round;stroke-linejoin:round;stroke-miterlimit:10;}
	.st44{opacity:0.1;fill:#464646;}
	.st45{fill:#E77CAE;}
	.st46{fill:#FFE5C4;}
	.st47{fill:#F68455;stroke:#464646;stroke-width:8;stroke-linecap:round;stroke-linejoin:round;stroke-miterlimit:10;}
	.st48{opacity:0.7;}
	.st49{fill:#ADEDFF;}
	.st50{fill:#EC754B;}
	.st51{fill:#4AA5BA;}
	.st52{opacity:0.5;}
	.st53{opacity:0.8;}
	.st54{fill:#F68455;}
	.st55{fill:#92A5AC;}
	.st56{fill:#6D6E71;}
	.st57{fill:#D06E3C;}
	.st58{fill:#DA4F4B;}
	.st59{fill:#BDF3FF;}
	.st60{fill:#F18BB4;}
	.st61{fill:#F9D97A;}
	.st62{fill:none;}
	.st63{fill:#AF6535;}
	.st64{fill:#B93226;}
	.st65{fill:#FF6050;}
	.st66{fill:#D06E3C;stroke:#464646;stroke-miterlimit:10;}
	.st67{fill:#EA7CB1;}
	.st68{fill:none;stroke:#6D6E71;stroke-width:10;stroke-linecap:round;stroke-linejoin:round;stroke-miterlimit:10;}
	.st69{fill:#00B0E0;}
	.st70{fill:#EA7DAE;}
	.st71{opacity:0.1;fill:#FFFFFF;}
	.st72{fill:#BC7532;}
	.st73{fill:#876C6C;}
	.st74{fill:#F9F6CD;}
	.st75{fill:#FFE37B;}
	.st76{fill:#1DDCFF;}
	.st77{fill:#60ACF7;}
	.st78{fill:#C3755A;}
	.st79{fill:#96557A;}
	.st80{fill:#66625D;}
	.st81{fill:#D68032;}
	.st82{opacity:0.8;fill:#FFFFFF;}
	.st83{fill:#F2A355;}
	.st84{fill:#7E9E6A;}
	.st85{opacity:0.3;}
	.st86{fill:#965A85;}
	.st87{opacity:0.7;fill:#FFFFFF;}
	.st88{fill:#90CAD3;}
	.st89{fill:#94B57F;}
	.st90{fill:#B2E2E7;}
	.st91{fill:#FFDF8F;}
	.st92{fill:#FFFAEB;}
	.st93{fill:#F88916;}
	.st94{fill:#FFC86E;}
	.st95{fill:#AFA51D;}
	.st96{fill:#968A1C;}
	.st97{fill:#C3556D;}
</style>
<g>
	<path class="st28" d="M144.4,37.3l-32.5,0c0.3-3.8,0.4-7.7,0.4-11.6l31.7,0C144,29.7,144.1,33.6,144.4,37.3z"/>
	<path class="st19" d="M144.4,37.3l-8.1,0c0.1-3.8,0.1-7.7,0.1-11.6l7.9,0C144.3,29.7,144.3,33.6,144.4,37.3z"/>
	<path class="st59" d="M168.4,88.5l0,34.6l-80.5,0l0-34.6c0-11.7,0.2-18.4,12.1-27.2l56.4,0C168.2,70.1,168.4,76.7,168.4,88.5z"/>
	<path class="st32" d="M111.9,61.3l-11.9,0c-11.9,8.8-12.1,15.4-12.1,27.2l0,34.6l14.6,0C102.5,99.3,100,76.2,111.9,61.3z"/>
	<path class="st28" d="M156.4,61.3l-56.4,0c8.5-6.2,11.1-14.7,11.9-24l32.5,0C145.2,46.6,147.9,55.1,156.4,61.3z"/>
	<path class="st19" d="M145.6,61.3l10.8,0c-8.5-6.2-11.1-14.7-12-24l-8.2,0C136.8,45.8,139.2,53,145.6,61.3z"/>
	<path class="st59" d="M168.4,188.2l0,41.3c0,19-6.2,22.5-22.4,22.5l-17.8,0c0,0-1.6,0-17.9,0c-16.3,0-22.4-3.5-22.4-22.5l0-41.3
		L168.4,188.2z"/>
	<path class="st32" d="M102.3,188.2c0,0-0.3,31.2-0.3,47c0,15.8,14.1,16.8,14.1,16.8l-18.4-1.7l-5.2-3.2c0,0-4.7,1.4-4.7-17.7
		l0-41.3L102.3,188.2z"/>
	<line class="st69" x1="150.1" y1="37.3" x2="144.4" y2="37.3"/>
	<line class="st69" x1="111.9" y1="37.3" x2="106.2" y2="37.3"/>
	<path class="st76" d="M150.1,9.6l0,16.2l-44,0l0-16.2C106.2,2.1,150.1,2.1,150.1,9.6z"/>
	<path class="st19" d="M145.6,25.8l0,4.2l-34.9,0l0-4.2C110.7,23.8,145.6,23.8,145.6,25.8z"/>
	<path class="st19" d="M150.1,9.6l0,16.2l-44,0c0,0,30.6-2.8,35.9-6.1C147.3,16.2,150.1,9.6,150.1,9.6z"/>
	<rect x="87.9" y="123.1" class="st76" width="80.5" height="65.2"/>
	<rect x="87.9" y="123.1" class="st32" width="14.6" height="65.2"/>
	<path class="st19" d="M145.6,61.3l11.9,0c11.9,8.8,12.1,15.4,12.1,27.2l0,34.6l-14.6,0C155,99.3,157.5,76.2,145.6,61.3z"/>
	<path class="st19" d="M155,188.2c0,0,0.3,31.2,0.3,47s0,16.8,0,16.8l4.3-1.7l5.3-3.2c0,0,4.8,1.4,4.8-17.7l0-41.3L155,188.2z"/>
	<rect x="155" y="123.1" class="st19" width="14.6" height="65.2"/>
	<path class="st1" d="M144.4,37.3l-32.5,0c0.3-3.8,0.4-7.7,0.4-11.6l31.7,0C144,29.7,144.1,33.6,144.4,37.3z"/>
	<path class="st1" d="M168.4,88.5l0,34.6l-80.5,0l0-34.6c0-11.7,0.2-18.4,12.1-27.2l56.4,0C168.2,70.1,168.4,76.7,168.4,88.5z"/>
	<path class="st1" d="M156.4,61.3l-56.4,0c8.5-6.2,11.1-14.7,11.9-24l32.5,0C145.2,46.6,147.9,55.1,156.4,61.3z"/>
	<path class="st1" d="M168.4,188.2l0,41.3c0,19-6.2,22.5-22.4,22.5l-17.8,0c0,0-1.6,0-17.9,0c-16.3,0-22.4-3.5-22.4-22.5l0-41.3
		L168.4,188.2z"/>
	<line class="st1" x1="150.1" y1="37.3" x2="144.4" y2="37.3"/>
	<line class="st1" x1="111.9" y1="37.3" x2="106.2" y2="37.3"/>
	<path class="st1" d="M150.1,9.6l0,16.2l-44,0l0-16.2C106.2,2.1,150.1,2.1,150.1,9.6z"/>
	<rect x="87.9" y="123.1" class="st1" width="80.5" height="65.2"/>
</g>
</svg>
