<?xml version="1.0" encoding="utf-8"?>
<!-- Generator: Adobe Illustrator 22.1.0, SVG Export Plug-In . SVG Version: 6.00 Build 0)  -->
<svg version="1.1" id="Layer_1" xmlns="http://www.w3.org/2000/svg" xmlns:xlink="http://www.w3.org/1999/xlink" x="0px" y="0px"
	 viewBox="0 0 256 256" style="enable-background:new 0 0 256 256;" xml:space="preserve">
<style type="text/css">
	.st0{fill:#F5B31F;}
	.st1{fill:none;stroke:#464646;stroke-width:8;stroke-linecap:round;stroke-linejoin:round;stroke-miterlimit:10;}
	.st2{opacity:0.15;fill:#464646;}
	.st3{fill:#AC6535;}
	.st4{fill:#EB573B;}
	.st5{fill:#90C056;}
	.st6{opacity:0.35;fill:#FFFFFF;}
	.st7{opacity:0.2;fill:#FFFFFF;}
	.st8{fill:#F6D67A;}
	.st9{opacity:0.15;fill:#FFFFFF;}
	.st10{opacity:0.3;fill:#FFFFFF;}
	.st11{fill:#AC6535;stroke:#464646;stroke-width:8;stroke-linecap:round;stroke-linejoin:round;stroke-miterlimit:10;}
	.st12{fill:#EB573B;stroke:#464646;stroke-width:8;stroke-miterlimit:10;}
	.st13{opacity:0.15;}
	.st14{fill:#464646;}
	.st15{fill:#FFA755;}
	.st16{fill:#8FAE3C;}
	.st17{fill:#BE6BB2;}
	.st18{fill:#B7C536;}
	.st19{opacity:0.1;}
	.st20{fill:#9D5A96;}
	.st21{fill:#EA615D;}
	.st22{opacity:0.4;fill:#FFFFFF;}
	.st23{opacity:7.000000e-02;}
	.st24{fill:#F79932;}
	.st25{fill:#FFEC97;}
	.st26{fill:#FFD11D;}
	.st27{opacity:0.2;}
	.st28{fill:#FFFFFF;}
	.st29{fill:#F7F2D5;}
	.st30{fill:#F6AF72;}
	.st31{fill:#BA6C45;}
	.st32{opacity:0.5;fill:#FFFFFF;}
	.st33{fill:#E4C074;}
	.st34{fill:none;stroke:#656566;stroke-width:8;stroke-linecap:round;stroke-linejoin:round;stroke-miterlimit:10;}
	.st35{fill:#FFA755;stroke:#464646;stroke-width:8;stroke-linecap:round;stroke-linejoin:round;stroke-miterlimit:10;}
	.st36{fill:#FFD11D;stroke:#464646;stroke-width:8;stroke-linecap:round;stroke-linejoin:round;stroke-miterlimit:10;}
	.st37{fill:#FACD1F;}
	.st38{fill:#FFDF66;}
	.st39{fill:#FFEC97;stroke:#464646;stroke-width:8;stroke-linecap:round;stroke-linejoin:round;stroke-miterlimit:10;}
	.st40{fill:#FFDF66;stroke:#464646;stroke-width:8;stroke-linecap:round;stroke-linejoin:round;stroke-miterlimit:10;}
	.st41{opacity:0.2;fill:#464646;}
	.st42{fill:#FFFFFF;stroke:#464646;stroke-width:8;stroke-linecap:round;stroke-linejoin:round;stroke-miterlimit:10;}
	.st43{fill:#6D6E71;stroke:#464646;stroke-width:8;stroke-linecap:round;stroke-linejoin:round;stroke-miterlimit:10;}
	.st44{opacity:0.1;fill:#464646;}
	.st45{fill:#E77CAE;}
	.st46{fill:#FFE5C4;}
	.st47{fill:#F68455;stroke:#464646;stroke-width:8;stroke-linecap:round;stroke-linejoin:round;stroke-miterlimit:10;}
	.st48{opacity:0.7;}
	.st49{fill:#ADEDFF;}
	.st50{fill:#EC754B;}
	.st51{fill:#4AA5BA;}
	.st52{opacity:0.5;}
	.st53{opacity:0.8;}
	.st54{fill:#F68455;}
	.st55{fill:#92A5AC;}
	.st56{fill:#6D6E71;}
	.st57{fill:#D06E3C;}
	.st58{fill:#DA4F4B;}
	.st59{fill:#BDF3FF;}
	.st60{fill:#F18BB4;}
	.st61{fill:#F9D97A;}
	.st62{fill:none;}
	.st63{fill:#AF6535;}
	.st64{fill:#B93226;}
	.st65{fill:#FF6050;}
	.st66{fill:#D06E3C;stroke:#464646;stroke-miterlimit:10;}
	.st67{fill:#EA7CB1;}
	.st68{fill:none;stroke:#6D6E71;stroke-width:10;stroke-linecap:round;stroke-linejoin:round;stroke-miterlimit:10;}
	.st69{fill:#00B0E0;}
	.st70{fill:#EA7DAE;}
	.st71{opacity:0.1;fill:#FFFFFF;}
	.st72{fill:#BC7532;}
	.st73{fill:#876C6C;}
	.st74{fill:#F9F6CD;}
	.st75{fill:#FFE37B;}
	.st76{fill:#1DDCFF;}
	.st77{fill:#60ACF7;}
	.st78{fill:#C3755A;}
	.st79{fill:#96557A;}
	.st80{fill:#66625D;}
	.st81{fill:#D68032;}
	.st82{opacity:0.8;fill:#FFFFFF;}
	.st83{fill:#F2A355;}
	.st84{fill:#7E9E6A;}
	.st85{opacity:0.3;}
	.st86{fill:#965A85;}
	.st87{opacity:0.7;fill:#FFFFFF;}
	.st88{fill:#90CAD3;}
	.st89{fill:#94B57F;}
	.st90{fill:#B2E2E7;}
	.st91{fill:#FFDF8F;}
	.st92{fill:#FFFAEB;}
	.st93{fill:#F88916;}
	.st94{fill:#FFC86E;}
	.st95{fill:#AFA51D;}
	.st96{fill:#968A1C;}
	.st97{fill:#C3556D;}
</style>
<g>
	<path class="st46" d="M243.3,191.8c0,0-26.6,17.9-32,17.9l-173.4,0c-4.4,0-30.6-17.9-30.6-17.9L243.3,191.8z"/>
	<path class="st57" d="M219.1,94.9c-4.1,8.4-7.6,16.4-7.6,16.4c-1.2,4-7.8,25.3-19,36.4c-11.2,11.1-31.7,16.2-46.6,1.4
		c-14.9-14.9-9.8-35.4,1.3-46.5c11.2-11.1,32.5-17.7,36.5-18.9c0,0,5.2-2.8,11.6-6.3c-23-14.3-50.9-25-80-26.1
		C42.8,48.4,4,128,4,155.6c0,14.1,8.8,27,23.1,36.2l178.4,0c24.3-11,45.7-27.3,46.5-44.6C252.6,133.3,239.9,113.1,219.1,94.9z
		 M62.8,174.7c-15.7-2.5-28.1-10.1-28.1-20.2s59-42.1,59.3-36.2c0.3,5.9-21.7,29.8-21.7,29.8s28.4,8.7,28.4,16.6
		C100.7,172.5,78.5,177.2,62.8,174.7z"/>
	<path class="st19" d="M27.1,191.8l178.4,0c24.3-11,45.7-27.3,46.5-44.6c0.6-13.9-12.1-34.1-32.9-52.3c0,0,18.7,36.4,3.6,64.8
		S27.1,191.8,27.1,191.8z"/>
	<path class="st9" d="M115.3,51.2C42.8,48.4,4,128,4,155.6c0,14.1,8.8,27,23.1,36.2c0,0-15.3-41.1,9.5-80.8S115.3,51.2,115.3,51.2z"
		/>
	<path class="st19" d="M114.5,163.2c0,11.7-24.4,14.4-40.7,16.2c-15.7-2.5,7.6-47.8,7.6-57.9s26.2-9.1,26.5-3.2
		c0.3,5.9-19,19.6-18.5,26.2C89.9,151.1,114.5,151.5,114.5,163.2z"/>
	<path class="st57" d="M100.7,164.6c0,7.9-22.2,12.6-38,10.1c-15.7-2.5-28.1-10.1-28.1-20.2s59-42.1,59.3-36.2
		c0.3,5.9-21.7,29.8-21.7,29.8S100.7,156.7,100.7,164.6z"/>
	<path class="st9" d="M94,118.3c-0.3-5.9-59.3,26.1-59.3,36.2c0,6,4.3,11.1,11.1,14.7c0,0-2.7-7.8,3.1-17.2S94,118.3,94,118.3z"/>
	<path class="st1" d="M219.1,94.9c-4.1,8.4-7.6,16.4-7.6,16.4c-1.2,4-7.8,25.3-19,36.4c-11.2,11.1-31.7,16.2-46.6,1.4
		c-14.9-14.9-9.8-35.4,1.3-46.5c11.2-11.1,32.5-17.7,36.5-18.9c0,0,5.2-2.8,11.6-6.3c-23-14.3-50.9-25-80-26.1
		C42.8,48.4,4,128,4,155.6c0,14.1,8.8,27,23.1,36.2l178.4,0c24.3-11,45.7-27.3,46.5-44.6C252.6,133.3,239.9,113.1,219.1,94.9z
		 M62.8,174.7c-15.7-2.5-28.1-10.1-28.1-20.2s59-42.1,59.3-36.2c0.3,5.9-21.7,29.8-21.7,29.8s28.4,8.7,28.4,16.6
		C100.7,172.5,78.5,177.2,62.8,174.7z"/>
	<path class="st1" d="M100.7,164.6c0,7.9-22.2,12.6-38,10.1c-15.7-2.5-28.1-10.1-28.1-20.2s59-42.1,59.3-36.2
		c0.3,5.9-21.7,29.8-21.7,29.8S100.7,156.7,100.7,164.6z"/>
	<path class="st1" d="M243.3,191.8c0,0-26.6,17.9-32,17.9l-173.4,0c-4.4,0-30.6-17.9-30.6-17.9L243.3,191.8z"/>
	<path class="st19" d="M222.8,93.6c-6.4,3.6-29.7-4.8-29.7-4.8c-4,1.2-25.3,7.8-36.5,18.9c-11.2,11.1-16.3,31.6-1.3,46.5
		c14.9,14.9,35.4,9.8,46.6-1.4c11.2-11.1,17.7-32.5,19-36.4c0,0,3.5-8,7.6-16.4L222.8,93.6z"/>
	<path class="st57" d="M247.7,66.8c-7.9,8.1-12.2,5.7-17.8,10.2c-2.7,2.2-7,10.2-10.9,17.9c-4.1,8.4-7.6,16.4-7.6,16.4
		c-1.2,4-7.8,25.3-19,36.4c-11.2,11.1-31.7,16.2-46.6,1.4c-14.9-14.9-9.8-35.4,1.3-46.5c11.2-11.1,32.5-17.7,36.5-18.9
		c0,0,5.2-2.8,11.6-6.3c8.4-4.6,18.8-10.6,22.7-13.4c6.8-5.1,0.1-8.1,9-16C235.9,39.9,255.6,58.6,247.7,66.8z"/>
	<path class="st9" d="M195.3,77.3c-6.4,3.6-11.6,6.3-11.6,6.3c-4,1.2-25.3,7.8-36.5,18.9c-11.2,11.1-16.3,31.6-1.3,46.5
		c5.3,5.3,11.2,8,17.2,8.9c0,0-17.8-20.6-12.6-37.7C155.6,103.3,195.3,77.3,195.3,77.3z"/>
	<path class="st1" d="M247.7,66.8c-7.9,8.1-12.2,5.7-17.8,10.2c-2.7,2.2-7,10.2-10.9,17.9c-4.1,8.4-7.6,16.4-7.6,16.4
		c-1.2,4-7.8,25.3-19,36.4c-11.2,11.1-31.7,16.2-46.6,1.4c-14.9-14.9-9.8-35.4,1.3-46.5c11.2-11.1,32.5-17.7,36.5-18.9
		c0,0,5.2-2.8,11.6-6.3c8.4-4.6,18.8-10.6,22.7-13.4c6.8-5.1,0.1-8.1,9-16C235.9,39.9,255.6,58.6,247.7,66.8z"/>
</g>
</svg>
