<?xml version="1.0" encoding="utf-8"?>
<!-- Generator: Adobe Illustrator 21.1.0, SVG Export Plug-In . SVG Version: 6.00 Build 0)  -->
<svg version="1.1" id="Icon_Set" xmlns="http://www.w3.org/2000/svg" xmlns:xlink="http://www.w3.org/1999/xlink" x="0px" y="0px"
	 viewBox="0 0 512 512" style="enable-background:new 0 0 512 512;" xml:space="preserve">
<style type="text/css">
	.st0{fill:#FFFFFF;}
	.st1{fill:#5B7C31;}
	.st2{fill:#E56823;}
	.st3{fill:#FE8E46;}
	.st4{fill:#7DAC51;}
	.st5{fill:#463218;}
	.st6{fill:#FEFE71;}
	.st7{fill:#D6CD1E;}
	.st8{fill:none;stroke:#FFFFFF;stroke-width:14;stroke-miterlimit:10;}
	.st9{fill:none;stroke:#463218;stroke-width:14;stroke-linecap:round;stroke-linejoin:round;stroke-miterlimit:10;}
</style>
<g id="Wine">
	<g>
		<g>
			<g>
				<polygon class="st6" points="257.2,355.7 198.7,387.9 310.8,387.9 				"/>
			</g>
		</g>
	</g>
	<g>
		<g>
			<g>
				<path class="st6" d="M256,281L256,281c-35.1,0-63.5-28.4-63.5-63.5v-93.4h127v93.4C319.5,252.6,291.1,281,256,281z"/>
			</g>
		</g>
	</g>
	<g>
		<g>
			<g>
				<path class="st7" d="M243.5,217.5v-93.4h-51v93.4c0,35.1,28.4,63.5,63.5,63.5l0,0c9.1,0,17.7-1.9,25.5-5.4
					C259.2,265.8,243.5,243.5,243.5,217.5z"/>
			</g>
		</g>
	</g>
	<g>
		<g>
			<g>
				<path class="st5" d="M256,288c-38.9,0-70.5-31.6-70.5-70.5v-93.4c0-3.9,3.1-7,7-7h127c3.9,0,7,3.1,7,7v93.4
					C326.5,256.4,294.9,288,256,288z M199.5,131.1v86.4c0,31.2,25.3,56.5,56.5,56.5s56.5-25.3,56.5-56.5v-86.4H199.5z"/>
			</g>
		</g>
	</g>
	<g>
		<g>
			<g>
				<path class="st3" d="M192.6,221.2c1.9,33.3,29.6,59.8,63.4,59.8l0,0c33.8,0,61.4-26.4,63.4-59.8H192.6z"/>
			</g>
		</g>
	</g>
	<g>
		<g>
			<g>
				<path class="st2" d="M243.5,221.2h-50.9c1.9,33.3,29.6,59.8,63.4,59.8c9.1,0,17.7-1.9,25.5-5.3
					C260.2,266.3,245,245.6,243.5,221.2z"/>
			</g>
		</g>
	</g>
	<g>
		<g>
			<g>
				<path class="st5" d="M256,288c-37.3,0-68.2-29.1-70.4-66.4c-0.1-1.9,0.6-3.8,1.9-5.2c1.3-1.4,3.2-2.2,5.1-2.2h126.8
					c1.9,0,3.8,0.8,5.1,2.2c1.3,1.4,2,3.3,1.9,5.2C324.2,258.9,293.3,288,256,288z M200.5,228.2c5,26.2,28.1,45.8,55.5,45.8
					s50.4-19.6,55.5-45.8H200.5z"/>
			</g>
		</g>
	</g>
	<g>
		<g>
			<g>
				<path class="st5" d="M256,362.7c-3.9,0-7-3.1-7-7V281c0-3.9,3.1-7,7-7s7,3.1,7,7v74.7C263,359.6,259.9,362.7,256,362.7z"/>
			</g>
		</g>
	</g>
	<g>
		<g>
			<g>
				<path class="st5" d="M310.8,394.9H198.7c-3.2,0-6-2.2-6.8-5.3s0.6-6.3,3.4-7.9l58.5-32.2c2.2-1.2,4.8-1.1,7,0.1l53.6,32.2
					c2.7,1.6,4,4.8,3.1,7.9S313.9,394.9,310.8,394.9z M226,380.9h59.5L257,363.8L226,380.9z"/>
			</g>
		</g>
	</g>
	<g>
		<g>
			<g>
				<rect x="214.1" y="146.5" class="st0" width="14" height="29.9"/>
			</g>
		</g>
	</g>
	<g>
		<g>
			<g>
				<rect x="214.1" y="183.9" class="st0" width="14" height="14.9"/>
			</g>
		</g>
	</g>
</g>
</svg>
