<?xml version="1.0" encoding="utf-8"?>
<!-- Generator: Adobe Illustrator 21.1.0, SVG Export Plug-In . SVG Version: 6.00 Build 0)  -->
<svg version="1.1" id="Icon_Set" xmlns="http://www.w3.org/2000/svg" xmlns:xlink="http://www.w3.org/1999/xlink" x="0px" y="0px"
	 viewBox="0 0 512 512" style="enable-background:new 0 0 512 512;" xml:space="preserve">
<style type="text/css">
	.st0{fill:#FFFFFF;}
	.st1{fill:#5B7C31;}
	.st2{fill:#E56823;}
	.st3{fill:#FE8E46;}
	.st4{fill:#7DAC51;}
	.st5{fill:#463218;}
	.st6{fill:#FEFE71;}
	.st7{fill:#D6CD1E;}
	.st8{fill:none;stroke:#FFFFFF;stroke-width:14;stroke-miterlimit:10;}
	.st9{fill:none;stroke:#463218;stroke-width:14;stroke-linecap:round;stroke-linejoin:round;stroke-miterlimit:10;}
</style>
<g id="Wok_Box">
	<g>
		<g>
			<g>
				<polygon class="st7" points="175.3,234.3 135.7,307.9 187,307.9 				"/>
			</g>
		</g>
	</g>
	<g>
		<g>
			<g>
				<polygon class="st7" points="336.7,234.3 376.3,307.9 325,307.9 				"/>
			</g>
		</g>
	</g>
	<g>
		<g>
			<g>
				<polygon class="st4" points="296.2,234.3 275.1,234.3 326.4,116.1 347.5,116.1 				"/>
			</g>
		</g>
	</g>
	<g>
		<g>
			<g>
				<polygon class="st4" points="258.2,234.3 279.3,234.3 241,153 219.9,153 				"/>
			</g>
		</g>
	</g>
	<g>
		<g>
			<g>
				<polygon class="st3" points="311,395.9 201.1,395.9 175.3,234.3 336.8,234.3 				"/>
			</g>
		</g>
	</g>
	<g>
		<g>
			<g>
				<polygon class="st2" points="227.2,366.2 206.1,234.3 175.3,234.3 201.1,395.9 311,395.9 315.8,366.2 				"/>
			</g>
		</g>
	</g>
	<g>
		<g>
			<g>
				<path class="st5" d="M311,402.9H201.1c-3.4,0-6.4-2.5-6.9-5.9l-25.8-161.6c-0.3-2,0.3-4.1,1.6-5.6c1.3-1.6,3.3-2.5,5.3-2.5
					h161.6c2,0,4,0.9,5.3,2.5c1.3,1.6,1.9,3.6,1.6,5.6L317.9,397C317.4,400.4,314.4,402.9,311,402.9z M207.1,388.9h98l23.6-147.6
					H183.5L207.1,388.9z"/>
			</g>
		</g>
	</g>
	<g>
		<g>
			<g>
				<path class="st5" d="M187,314.9h-51.3c-2.5,0-4.7-1.3-6-3.4c-1.3-2.1-1.3-4.7-0.2-6.9l39.6-73.5c1.4-2.6,4.4-4.1,7.3-3.6
					c3,0.5,5.3,2.8,5.7,5.8l11.8,73.5c0.3,2-0.3,4.1-1.6,5.6C191,314,189.1,314.9,187,314.9z M147.4,300.9h31.4l-7.2-45L147.4,300.9
					z"/>
			</g>
		</g>
	</g>
	<g>
		<g>
			<g>
				<path class="st5" d="M376.3,314.9H325c-2,0-4-0.9-5.3-2.5c-1.3-1.6-1.9-3.6-1.6-5.6l11.8-73.5c0.5-3,2.8-5.3,5.7-5.8
					c3-0.5,5.9,0.9,7.3,3.6l39.6,73.5c1.2,2.2,1.1,4.8-0.2,6.9C381.1,313.6,378.8,314.9,376.3,314.9z M333.2,300.9h31.4l-24.2-45
					L333.2,300.9z"/>
			</g>
		</g>
	</g>
	<g>
		<g>
			<g>
				<polygon class="st6" points="175.3,234.3 214.2,292.2 297.9,292.2 336.7,234.3 				"/>
			</g>
		</g>
	</g>
	<g>
		<g>
			<g>
				<path class="st5" d="M297.9,299.2h-83.8c-2.3,0-4.5-1.2-5.8-3.1l-38.9-57.9c-1.4-2.1-1.6-4.9-0.4-7.2c1.2-2.3,3.6-3.7,6.2-3.7
					h161.5c2.6,0,5,1.4,6.2,3.7c1.2,2.3,1.1,5-0.4,7.2l-38.8,57.9C302.4,298,300.3,299.2,297.9,299.2z M217.9,285.2h76.3l29.4-43.9
					H188.4L217.9,285.2z"/>
			</g>
		</g>
	</g>
	<g>
		<g>
			<g>
				<path class="st5" d="M296.2,241.3h-21.1c-2.4,0-4.6-1.2-5.9-3.2s-1.5-4.5-0.6-6.6L320,113.3c1.1-2.6,3.6-4.2,6.4-4.2h21.1
					c2.4,0,4.6,1.2,5.9,3.2s1.5,4.5,0.6,6.6l-51.3,118.2C301.6,239.7,299,241.3,296.2,241.3z M285.8,227.3h5.8l45.2-104.2H331
					L285.8,227.3z"/>
			</g>
		</g>
	</g>
	<g>
		<g>
			<g>
				<path class="st5" d="M279.3,241.3h-21.1c-2.7,0-5.2-1.6-6.3-4l-38.3-81.4c-1-2.2-0.9-4.7,0.4-6.7c1.3-2,3.5-3.3,5.9-3.3H241
					c2.7,0,5.2,1.6,6.3,4l38.3,81.4c1,2.2,0.9,4.7-0.4,6.7S281.7,241.3,279.3,241.3z M262.6,227.3h5.6L236.5,160h-5.6L262.6,227.3z"
					/>
			</g>
		</g>
	</g>
	<g>
		<g>
			<g>
				
					<rect x="269.6" y="325.4" transform="matrix(0.2068 -0.9784 0.9784 0.2068 -95.0624 547.5942)" class="st0" width="41.2" height="14"/>
			</g>
		</g>
	</g>
</g>
</svg>
