<?xml version="1.0" encoding="utf-8"?>
<!-- Generator: Adobe Illustrator 21.1.0, SVG Export Plug-In . SVG Version: 6.00 Build 0)  -->
<svg version="1.1" id="Icon_Set" xmlns="http://www.w3.org/2000/svg" xmlns:xlink="http://www.w3.org/1999/xlink" x="0px" y="0px"
	 viewBox="0 0 512 512" style="enable-background:new 0 0 512 512;" xml:space="preserve">
<style type="text/css">
	.st0{fill:#FFFFFF;}
	.st1{fill:#5B7C31;}
	.st2{fill:#E56823;}
	.st3{fill:#FE8E46;}
	.st4{fill:#7DAC51;}
	.st5{fill:#463218;}
	.st6{fill:#FEFE71;}
	.st7{fill:#D6CD1E;}
	.st8{fill:none;stroke:#FFFFFF;stroke-width:14;stroke-miterlimit:10;}
	.st9{fill:none;stroke:#463218;stroke-width:14;stroke-linecap:round;stroke-linejoin:round;stroke-miterlimit:10;}
</style>
<g id="Yoghurt">
	<g>
		<g>
			<g>
				<path class="st4" d="M329,142.5c0-17.7-9.6-32-21.4-32s-21.4,14.3-21.4,32c0,8.2,2.1,15.7,5.5,21.4v33.8h31.9v-33.8
					C327,158.2,329,150.7,329,142.5z"/>
			</g>
		</g>
	</g>
	<g>
		<g>
			<g>
				<rect x="229.1" y="379.1" class="st2" width="83.7" height="22.4"/>
			</g>
		</g>
	</g>
	<g>
		<g>
			<g>
				<polygon class="st3" points="334.6,379.1 207.3,379.1 189.7,197.7 352.3,197.7 				"/>
			</g>
		</g>
	</g>
	<g>
		<g>
			<g>
				<polygon class="st2" points="189.7,197.7 207.3,379.1 270.3,379.1 252.7,197.7 				"/>
			</g>
		</g>
	</g>
	<g>
		<g>
			<g>
				<path class="st5" d="M334.6,386.1H207.3c-3.6,0-6.6-2.7-7-6.3l-17.7-181.4c-0.2-2,0.5-3.9,1.8-5.4c1.3-1.5,3.2-2.3,5.2-2.3
					h162.6c2,0,3.9,0.8,5.2,2.3c1.3,1.5,2,3.4,1.8,5.4l-17.7,181.4C341.3,383.4,338.2,386.1,334.6,386.1z M213.7,372.1h114.6
					l16.3-167.4H197.4L213.7,372.1z"/>
			</g>
		</g>
	</g>
	<g>
		<g>
			<g>
				<path class="st5" d="M205.1,204.7h-45.4c-3.9,0-7-3.1-7-7s3.1-7,7-7h45.4c3.9,0,7,3.1,7,7S209,204.7,205.1,204.7z"/>
			</g>
		</g>
	</g>
	<g>
		<g>
			<g>
				<path class="st5" d="M312.8,408.5h-83.7c-3.9,0-7-3.1-7-7v-22.4c0-3.9,3.1-7,7-7h83.7c3.9,0,7,3.1,7,7v22.4
					C319.8,405.4,316.7,408.5,312.8,408.5z M236.1,394.5h69.7v-8.4h-69.7V394.5z"/>
			</g>
		</g>
	</g>
	<g>
		<g>
			<g>
				<polygon class="st4" points="341.3,310.9 344.6,276.9 197.4,276.9 200.7,310.9 				"/>
			</g>
		</g>
	</g>
	<g>
		<g>
			<g>
				<path class="st5" d="M341.3,317.9H200.7c-3.6,0-6.6-2.7-7-6.3l-3.3-34.1c-0.2-2,0.5-3.9,1.8-5.4c1.3-1.5,3.2-2.3,5.2-2.3h147.2
					c2,0,3.9,0.8,5.2,2.3c1.3,1.5,2,3.4,1.8,5.4l-3.3,34.1C347.9,315.2,344.9,317.9,341.3,317.9z M207,303.9h127.9l2-20.1H205.1
					L207,303.9z"/>
			</g>
		</g>
	</g>
	<g>
		<g>
			<g>
				<circle class="st6" cx="271" cy="292.1" r="40.2"/>
			</g>
		</g>
	</g>
	<g>
		<g>
			<g>
				<path class="st7" d="M258.2,254c-15.9,5.3-27.4,20.4-27.4,38.1c0,20.4,15.2,37.3,35,39.9L258.2,254z"/>
			</g>
		</g>
	</g>
	<g>
		<g>
			<g>
				<path class="st5" d="M271,339.3c-26,0-47.2-21.2-47.2-47.2s21.2-47.2,47.2-47.2s47.2,21.2,47.2,47.2S297,339.3,271,339.3z
					 M271,258.9c-18.3,0-33.2,14.9-33.2,33.2s14.9,33.2,33.2,33.2s33.2-14.9,33.2-33.2S289.3,258.9,271,258.9z"/>
			</g>
		</g>
	</g>
	<g>
		<g>
			<g>
				<path class="st5" d="M323.6,204.7h-31.9c-3.9,0-7-3.1-7-7v-32c-3.5-6.7-5.5-14.8-5.5-23.2c0-21.9,12.5-39,28.4-39
					s28.4,17.1,28.4,39c0,8.4-1.9,16.6-5.5,23.2v32C330.6,201.6,327.4,204.7,323.6,204.7z M298.7,190.7h17.9v-26.8
					c0-1.3,0.3-2.5,1-3.6c2.9-4.8,4.5-11.1,4.5-17.8c0-11.8-5.9-25-14.4-25s-14.4,13.2-14.4,25c0,6.7,1.6,13,4.5,17.8
					c0.7,1.1,1,2.3,1,3.6V190.7z"/>
			</g>
		</g>
	</g>
	<g>
		<g>
			<g>
				<rect x="289.2" y="216.3" class="st0" width="36" height="14"/>
			</g>
		</g>
	</g>
</g>
</svg>
